<?xml version="1.0" encoding="utf-8"?>
<!-- Generator: Adobe Illustrator 24.3.0, SVG Export Plug-In . SVG Version: 6.00 Build 0)  -->
<svg version="1.1" xmlns="http://www.w3.org/2000/svg" xmlns:xlink="http://www.w3.org/1999/xlink" x="0px" y="0px"
	 viewBox="0 0 500 500" style="enable-background:new 0 0 500 500;" xml:space="preserve">
<style type="text/css">
	.st0{opacity:0.48;fill:#91D7E7;}
	.st1{fill:#D2EBF3;}
	.st2{fill:#FFFFFF;}
	.st3{fill:#E7E3D8;}
	.st4{fill:#C6BCAE;}
	.st5{fill:#D8E9F0;}
	.st6{fill:#3687A4;}
	.st7{fill:#ADDDEC;}
	.st8{fill:#CBD3D7;}
	.st9{fill:#D8AFA2;}
	.st10{fill:none;}
	.st11{fill:#BBC3B6;}
	.st12{fill:#E3E4E6;}
	.st13{fill:#DBE1E5;}
	.st14{fill:#DDD2C0;}
	.st15{fill:#CEC4B2;}
	.st16{fill:#BACAA8;}
	.st17{fill:#C2D3AC;}
	.st18{fill:#BFDBA5;}
	.st19{opacity:0.4;fill:#FFFFFF;}
	.st20{fill:#A6DEF6;}
	.st21{fill:#FBC45E;}
	.st22{fill:#E89BBE;}
	.st23{fill:#7A8EC7;}
	.st24{fill:none;stroke:#FFFFFF;stroke-width:6;stroke-miterlimit:10;}
	.st25{fill:#C1E6EC;}
	.st26{fill:#FFFFFF;stroke:#FFFFFF;stroke-width:4;stroke-miterlimit:10;}
	.st27{fill:#CBDF8C;}
	.st28{fill:none;stroke:#FFFFFF;stroke-width:2;stroke-miterlimit:10;}
	.st29{fill:#838186;stroke:#838186;stroke-width:4;stroke-miterlimit:10;}
	.st30{fill:#838186;}
	.st31{fill:#DFDFDF;}
	.st32{fill:none;stroke:#FFFFFF;stroke-width:28;stroke-miterlimit:10;}
	.st33{fill:url(#SVGID_1_);}
	.st34{fill:url(#SVGID_2_);}
	.st35{fill:#BFE3D3;}
	.st36{fill:#ADCEC1;}
	.st37{fill:#58C5C7;}
	.st38{fill:#00B6BE;}
	.st39{fill:#DDBCC8;}
	.st40{fill:#BCAB92;}
	.st41{fill:#D6A1B7;}
	.st42{fill:#261F44;}
	.st43{opacity:0.44;fill:#5F5F60;}
	.st44{fill:none;stroke:#998675;stroke-width:2;stroke-miterlimit:10;}
	.st45{fill:url(#SVGID_3_);}
	.st46{fill:url(#SVGID_4_);}
	.st47{fill:url(#SVGID_5_);}
	.st48{fill:url(#SVGID_6_);}
	.st49{fill:url(#SVGID_7_);}
	.st50{fill:url(#SVGID_8_);}
	.st51{fill:url(#SVGID_9_);}
	.st52{fill:url(#SVGID_10_);}
	.st53{fill:url(#SVGID_11_);}
	.st54{fill:url(#SVGID_12_);}
	.st55{fill:url(#SVGID_13_);}
	.st56{fill:url(#SVGID_14_);}
	.st57{fill:url(#SVGID_15_);}
	.st58{fill:url(#SVGID_16_);}
	.st59{fill:url(#SVGID_17_);}
	.st60{fill:url(#SVGID_18_);}
	.st61{fill:url(#SVGID_19_);}
	.st62{fill:#454289;}
	.st63{fill:#38327C;}
	.st64{fill:#E6E6E6;}
	.st65{fill:#FF4370;}
	.st66{fill:#E53C70;}
	.st67{fill:#FF6699;}
	.st68{opacity:0.23;fill:#E53C70;}
	.st69{fill:#3F4650;}
	.st70{fill:#0267B6;}
	.st71{fill:#2BB03E;}
	.st72{fill:#EA2023;}
	.st73{fill:#FBED23;}
	.st74{fill:#0E6B7A;}
	.st75{opacity:0.64;fill:url(#SVGID_20_);}
	.st76{fill:none;stroke:#FFFFFF;stroke-width:8.0256;stroke-miterlimit:10;}
	.st77{fill:none;stroke:#FF4370;stroke-width:1.3376;stroke-miterlimit:10;}
	.st78{fill:#FF83B3;}
	.st79{fill:#EBB724;}
	.st80{fill:#FFC727;}
	.st81{fill:#50ACB0;}
	.st82{fill:#FD8283;}
	.st83{fill:#F07B7C;}
	.st84{fill:#3C8185;}
	.st85{display:none;fill:#3C8185;}
	.st86{fill:#92D1DF;}
	.st87{fill:#010101;}
	.st88{fill:#FDEE40;}
	.st89{fill:#020202;}
	.st90{fill:#76B62A;}
	.st91{fill:#FAB924;}
	.st92{fill:#F20303;}
	.st93{fill:none;stroke:#D3DEBC;stroke-width:2.0882;stroke-miterlimit:10;}
	.st94{fill:none;stroke:#D3DEBC;stroke-miterlimit:10;}
	.st95{display:none;fill:#4A4A49;stroke:#C6C6C6;stroke-width:18.9143;stroke-miterlimit:10;}
	.st96{display:none;}
	.st97{display:inline;fill:#C6C6C6;}
	.st98{fill:#F07E31;}
	.st99{fill:#FAC18A;}
	.st100{fill:#6A471E;}
	.st101{fill:#CCCCCC;}
	.st102{display:inline;fill:#FFFFFF;}
	.st103{opacity:0.63;fill:#FAB924;}
	.st104{opacity:0.63;fill:#FDEE40;}
	.st105{opacity:0.63;fill:#76B62A;}
	.st106{opacity:0.63;fill:#92D1DF;}
	.st107{fill:#ABD2D0;}
	.st108{fill:#968976;}
	.st109{fill:#70675B;}
	.st110{fill:#E4DECE;}
	.st111{fill:#93B7B6;}
	.st112{fill:#C9F9F9;}
	.st113{fill:none;stroke:#FFFFFF;stroke-width:2.9103;stroke-miterlimit:10;}
	.st114{fill:#F1893A;}
	.st115{fill:#C96E31;}
	.st116{fill:#DB7838;}
	.st117{fill:#2F3E4C;}
	.st118{fill:#87A978;}
	.st119{fill:#93BD85;}
	.st120{fill:#ACDA99;}
	.st121{fill:#475362;}
	.st122{fill:#627289;}
	.st123{fill:#303846;}
	.st124{fill:#41505E;}
	.st125{fill:none;stroke:#87A978;stroke-width:1.1982;stroke-miterlimit:10;}
	.st126{fill:#B4E6A1;}
	.st127{fill:none;stroke:#87A978;stroke-width:0.8558;stroke-miterlimit:10;}
	.st128{fill:#6E8462;}
	.st129{fill-rule:evenodd;clip-rule:evenodd;fill:#F0EEE6;}
	.st130{fill:#E4E0D9;}
	.st131{fill:#FFDD83;}
	.st132{fill:#219260;}
	.st133{fill:#147798;}
	.st134{fill:#915E36;}
	.st135{fill:#FB8710;}
	.st136{fill:#CA9E64;}
	.st137{fill:#B07F48;}
	.st138{fill:#53D678;}
	.st139{fill:#5C4B51;}
	.st140{fill:#F06060;}
	.st141{fill:#F2EBBF;}
	.st142{fill:none;stroke:#5C4B51;stroke-width:3.4462;stroke-linecap:round;stroke-linejoin:round;stroke-miterlimit:10;}
	.st143{opacity:0.38;fill:none;stroke:#FFFFFF;stroke-width:7;stroke-linecap:round;stroke-linejoin:round;stroke-miterlimit:10;}
	.st144{fill:#DC9C76;}
	.st145{fill:#729C76;}
	.st146{fill:#A94B51;}
	.st147{fill:#974B51;}
	.st148{opacity:0.5;fill:#CC575E;}
	.st149{fill:#7F9C76;}
	.st150{fill:#5C4B7A;}
	.st151{fill:#F03960;}
	.st152{fill:#FFC783;}
	.st153{fill:#5C1A51;}
	.st154{fill:#52BEB2;}
	.st155{fill:#F0A660;}
	.st156{fill:#F3B562;}
	.st157{fill:#F27800;}
	.st158{fill:#613D4A;}
	.st159{fill:#004F4D;}
	.st160{fill:#007F4F;}
	.st161{fill:#00654D;}
	.st162{fill:#F59333;}
	.st163{fill:#F1ECDA;}
	.st164{fill:#88A8A7;}
	.st165{fill:url(#SVGID_23_);}
	.st166{fill:#E6E7E8;}
	.st167{fill:#D1D3D4;}
	.st168{fill:#FDBA4A;}
	.st169{fill:#FAA222;}
	.st170{fill:#D3DEBC;}
	.st171{fill:#CC883B;}
	.st172{fill-rule:evenodd;clip-rule:evenodd;fill:#919697;}
	.st173{fill-rule:evenodd;clip-rule:evenodd;fill:#36343A;}
	.st174{fill-rule:evenodd;clip-rule:evenodd;fill:#0C050D;stroke:#0C050D;stroke-width:0.235;stroke-miterlimit:22.9256;}
	.st175{fill-rule:evenodd;clip-rule:evenodd;fill:#36343A;stroke:#0C050D;stroke-width:0.235;stroke-miterlimit:22.9256;}
	.st176{fill-rule:evenodd;clip-rule:evenodd;fill:#7D8082;}
	.st177{fill-rule:evenodd;clip-rule:evenodd;fill:#5BBA47;}
	.st178{fill-rule:evenodd;clip-rule:evenodd;fill:#818081;}
	.st179{fill-rule:evenodd;clip-rule:evenodd;fill:#666264;}
	.st180{fill-rule:evenodd;clip-rule:evenodd;fill:#3B3438;}
	.st181{fill-rule:evenodd;clip-rule:evenodd;fill:#62C3D2;}
	.st182{fill-rule:evenodd;clip-rule:evenodd;fill:#A0D6E1;}
	.st183{fill-rule:evenodd;clip-rule:evenodd;fill:#00B6E8;}
	.st184{fill-rule:evenodd;clip-rule:evenodd;fill:#232938;}
	.st185{fill-rule:evenodd;clip-rule:evenodd;fill:#E5B249;}
	.st186{fill-rule:evenodd;clip-rule:evenodd;fill:#D4C2AB;}
	.st187{fill-rule:evenodd;clip-rule:evenodd;fill:#E1894A;}
	.st188{fill-rule:evenodd;clip-rule:evenodd;fill:#FFFFFF;}
	.st189{fill:#232938;}
	.st190{fill:#A9B392;}
	.st191{fill:#E5B249;}
	.st192{fill-rule:evenodd;clip-rule:evenodd;fill:#A9B392;}
	.st193{fill:#ECECEC;}
	.st194{fill:#BEC3C7;}
	.st195{fill:#DAE0E2;}
	.st196{fill:#F45A2A;}
	.st197{fill:#F67B46;}
	.st198{fill:#E73F1F;}
	.st199{fill:#E1894A;}
	.st200{fill:#0A837F;}
	.st201{fill:#1DA19F;}
	.st202{fill:#3A6B34;}
	.st203{fill:#96BCBB;}
	.st204{fill:#68858E;}
	.st205{fill:#69935F;}
	.st206{fill:#B75353;}
	.st207{fill:#E0A76E;}
	.st208{fill:#F0D1BC;}
	.st209{fill:#1D2E35;}
	.st210{fill:#272A33;}
	.st211{fill:#563B31;}
	.st212{fill:#462D23;}
	.st213{fill:#FF8D0C;}
	.st214{fill:#FFBF17;}
	.st215{fill:#FFF2EB;}
	.st216{fill:#FFD690;}
	.st217{fill:#FFE5BF;}
	.st218{fill:#F9C44E;}
	.st219{fill:#F9DCB2;}
	.st220{fill:#F9EAD7;}
	.st221{fill:#61AA6A;}
	.st222{fill:#DCD8A0;}
	.st223{fill:#F8F6D3;}
	.st224{fill:#E8E4BF;}
	.st225{fill:#F1CC5E;}
	.st226{fill:#BB8150;}
	.st227{fill:#D09059;}
	.st228{fill:#E3AA79;}
	.st229{fill:#6FC07F;}
	.st230{fill:#A56A2D;}
	.st231{fill:url(#SVGID_24_);}
	.st232{fill:#EFA68F;}
	.st233{fill:#F28B66;}
	.st234{fill-rule:evenodd;clip-rule:evenodd;fill:#999A9A;}
	.st235{fill-rule:evenodd;clip-rule:evenodd;fill:#F3C54B;}
	.st236{fill-rule:evenodd;clip-rule:evenodd;fill:#BBBABA;}
	.st237{fill-rule:evenodd;clip-rule:evenodd;fill:#009CB4;}
	.st238{fill:url(#SVGID_25_);}
	.st239{fill:#3F4E61;}
	.st240{fill:#BE6647;}
	.st241{fill:#404F5F;}
	.st242{fill:#117598;}
	.st243{opacity:0.5;fill:#FF6E86;}
</style>
<g id="Bathroom-icons">
</g>
<g id="Bathroom">
</g>
<g id="Bedroom-icons">
</g>
<g id="Bedroom">
</g>
<g id="icons">
</g>
<g id="POINTS">
</g>
<g id="Kitchen">
</g>
<g id="Livingroom-icons">
</g>
<g id="Livingroom">
	<g>
		<path class="st196" d="M110.1,338.8l319.7-13c21.9-0.9,39-19.5,38.1-41.4L463,165.4c-0.9-21.9-19.5-39-41.4-38.1l-319.7,13
			c-21.9,0.9-39,19.5-38.1,41.4l4.9,118.9C69.6,322.5,88.2,339.6,110.1,338.8z"/>
		<path class="st197" d="M242.5,257.5l-175.3,7.2l-3.5-85.8c-0.8-20.3,15.1-37.6,35.4-38.4l101.5-4.1c20.3-0.8,37.6,15.1,38.4,35.4
			L242.5,257.5z"/>
		<path class="st198" d="M77.8,359.2l-29.4,1.2c-24.8,1-45.9-18.4-46.9-43.2L0.2,283c-1-24.8,18.4-45.9,43.2-46.9l29.4-1.2
			c24.8-1,45.9,18.4,46.9,43.2l1.4,34.2C122.1,337.1,102.6,358.2,77.8,359.2z"/>
		<path class="st197" d="M417.8,250.4l-175.3,7.2l-3.5-85.8c-0.8-20.3,15.1-37.6,35.4-38.4l101.5-4.1c20.3-0.8,37.6,15.1,38.4,35.4
			L417.8,250.4z"/>
		<path class="st196" d="M373,293.7l-304,12.4l-1.7-42.2l304-12.4c11.1-0.5,20.6,8.3,21.1,19.4l0.1,1.7
			C392.9,283.8,384.1,293.3,373,293.7z"/>
		<path class="st196" d="M456.3,343.8l-34.2,1.4c-24.8,1-45.9-18.4-46.9-43.2l-1.4-34.2c-1-24.8,18.4-45.9,43.2-46.9l34.2-1.4
			c24.8-1,45.9,18.4,46.9,43.2l1.4,34.2C500.6,321.7,481.1,342.8,456.3,343.8z"/>
		<path class="st197" d="M342.6,294.9L59.8,306.5c-9.5,0.4-17.5-7-17.9-16.5l-0.1-1.5c-0.4-9.5,7-17.5,16.5-17.9l282.7-11.5
			c9.5-0.4,17.5,7,17.9,16.5l0.1,1.5C359.4,286.5,352,294.6,342.6,294.9z"/>
		<path class="st197" d="M39.7,359.1l-2.7,0.1c-17.7,0.7-32.7-13.1-33.4-30.8l-2.3-56.8c-0.7-17.7,13.1-32.7,30.8-33.4l2.7-0.1
			c17.7-0.7,32.7,13.1,33.4,30.8l2.3,56.8C71.2,343.3,57.4,358.4,39.7,359.1z"/>
		<path class="st196" d="M38.2,348.9l-2,0.1c-13,0.5-24.1-9.7-24.7-22.7l-2.3-55.4c-0.5-13,9.7-24.1,22.7-24.7l2-0.1
			c13-0.5,24.1,9.7,24.7,22.7l2.3,55.4C61.4,337.2,51.2,348.3,38.2,348.9z"/>
		<polygon class="st196" points="211,196.9 217.9,200.3 211.3,204.2 207.9,211.1 204,204.5 197.1,201.1 203.7,197.2 207.1,190.3 		
			"/>
		<polygon class="st196" points="156.9,181.5 163.8,184.9 157.2,188.9 153.8,195.7 149.9,189.2 143,185.8 149.6,181.8 153,175 		"/>
		<polygon class="st196" points="103.4,201.3 110.3,204.7 103.7,208.6 100.3,215.4 96.4,208.9 89.6,205.5 96.1,201.6 99.5,194.7 		
			"/>
		<polygon class="st197" points="38.6,294.1 45.4,297.5 38.9,301.4 35.5,308.3 31.6,301.7 24.7,298.3 31.3,294.4 34.7,287.6 		"/>
		<polygon class="st196" points="273.2,194.3 280,197.7 273.5,201.7 270.1,208.5 266.1,202 259.3,198.6 265.8,194.6 269.2,187.8 		
			"/>
		<polygon class="st196" points="326.6,174.6 333.5,178 326.9,181.9 323.5,188.8 319.6,182.2 312.8,178.8 319.3,174.9 322.7,168.1 
					"/>
		<polygon class="st196" points="380.7,190 387.6,193.3 381,197.3 377.6,204.1 373.7,197.6 366.9,194.2 373.4,190.3 376.8,183.4 		
			"/>
		<path class="st199" d="M87.3,267.1L57,209.2l18.3-1.5c8.8-0.4,19.1-2.3,25.6,3.3l31.9,27.1c6.5,5.5,7.3,15.4,1.8,21.9l-1.1,1.3
			C127.9,267.7,100,265.7,87.3,267.1z"/>
		<path class="st191" d="M79.2,263l-31.9-27.1c-6.5-5.5-7.3-15.4-1.8-21.9l0,0c3-3.5,7.2-5.3,11.4-5.4c3.7-0.1,7.4,1.1,10.4,3.7
			l31.9,27.1c6.5,5.5,7.3,15.4,1.8,21.9l0,0C95.5,267.8,85.7,268.5,79.2,263z"/>
		<path class="st200" d="M365.1,199l-25.8,60l18.4,0.1c8.8-0.3,19.2,0.8,25.3-5.2l29.7-29.5c6.1-6,6.1-15.9,0.1-21.9l-1.2-1.2
			C405.4,195.2,377.8,199.3,365.1,199z"/>
		<path class="st201" d="M357.3,203.7l-29.7,29.4c-6.1,6-6.1,15.9-0.1,21.9l0,0c3.2,3.2,7.5,4.8,11.8,4.6c3.7-0.2,7.3-1.7,10.1-4.5
			l29.7-29.4c6.1-6,6.1-15.9,0.1-21.9l0,0C373.2,197.7,363.4,197.7,357.3,203.7z"/>
		<path class="st197" d="M411.9,345l-2.7,0.1c-17.7,0.7-32.7-13.1-33.4-30.8l-2.4-59.6c-0.7-17.7,13.1-32.7,30.8-33.4l2.7-0.1
			c17.7-0.7,32.7,13.1,33.4,30.8l2.4,59.6C443.4,329.3,429.5,344.3,411.9,345z"/>
		<path class="st196" d="M411.1,335.2l-2,0.1c-13,0.5-24.1-9.7-24.7-22.7l-2.3-55.4c-0.5-13,9.7-24.1,22.7-24.7l2-0.1
			c13-0.5,24.1,9.7,24.7,22.7l2.3,55.4C434.4,323.6,424.2,334.7,411.1,335.2z"/>
		<polygon class="st197" points="411.6,280.5 418.4,283.9 411.9,287.8 408.5,294.7 404.5,288.1 397.7,284.7 404.2,280.8 
			407.6,273.9 		"/>
	</g>
</g>
</svg>
