<?xml version="1.0" encoding="utf-8"?>
<!-- Generator: Adobe Illustrator 24.3.0, SVG Export Plug-In . SVG Version: 6.00 Build 0)  -->
<svg version="1.1" xmlns="http://www.w3.org/2000/svg" xmlns:xlink="http://www.w3.org/1999/xlink" x="0px" y="0px"
	 viewBox="0 0 500 500" style="enable-background:new 0 0 500 500;" xml:space="preserve">
<style type="text/css">
	.st0{opacity:0.48;fill:#91D7E7;}
	.st1{fill:#D2EBF3;}
	.st2{fill:#FFFFFF;}
	.st3{fill:#E7E3D8;}
	.st4{fill:#C6BCAE;}
	.st5{fill:#D8E9F0;}
	.st6{fill:#3687A4;}
	.st7{fill:#ADDDEC;}
	.st8{fill:#CBD3D7;}
	.st9{fill:#D8AFA2;}
	.st10{fill:none;}
	.st11{fill:#BBC3B6;}
	.st12{fill:#E3E4E6;}
	.st13{fill:#DBE1E5;}
	.st14{fill:#DDD2C0;}
	.st15{fill:#CEC4B2;}
	.st16{fill:#BACAA8;}
	.st17{fill:#C2D3AC;}
	.st18{fill:#BFDBA5;}
	.st19{opacity:0.4;fill:#FFFFFF;}
	.st20{fill:#A6DEF6;}
	.st21{fill:#FBC45E;}
	.st22{fill:#E89BBE;}
	.st23{fill:#7A8EC7;}
	.st24{fill:none;stroke:#FFFFFF;stroke-width:6;stroke-miterlimit:10;}
	.st25{fill:#C1E6EC;}
	.st26{fill:#FFFFFF;stroke:#FFFFFF;stroke-width:4;stroke-miterlimit:10;}
	.st27{fill:#CBDF8C;}
	.st28{fill:none;stroke:#FFFFFF;stroke-width:2;stroke-miterlimit:10;}
	.st29{fill:#838186;stroke:#838186;stroke-width:4;stroke-miterlimit:10;}
	.st30{fill:#838186;}
	.st31{fill:#DFDFDF;}
	.st32{fill:none;stroke:#FFFFFF;stroke-width:28;stroke-miterlimit:10;}
	.st33{fill:url(#SVGID_1_);}
	.st34{fill:url(#SVGID_2_);}
	.st35{fill:#BFE3D3;}
	.st36{fill:#ADCEC1;}
	.st37{fill:#58C5C7;}
	.st38{fill:#00B6BE;}
	.st39{fill:#DDBCC8;}
	.st40{fill:#BCAB92;}
	.st41{fill:#D6A1B7;}
	.st42{fill:#261F44;}
	.st43{opacity:0.44;fill:#5F5F60;}
	.st44{fill:none;stroke:#998675;stroke-width:2;stroke-miterlimit:10;}
	.st45{fill:url(#SVGID_3_);}
	.st46{fill:url(#SVGID_4_);}
	.st47{fill:url(#SVGID_5_);}
	.st48{fill:url(#SVGID_6_);}
	.st49{fill:url(#SVGID_7_);}
	.st50{fill:url(#SVGID_8_);}
	.st51{fill:url(#SVGID_9_);}
	.st52{fill:url(#SVGID_10_);}
	.st53{fill:url(#SVGID_11_);}
	.st54{fill:url(#SVGID_12_);}
	.st55{fill:url(#SVGID_13_);}
	.st56{fill:url(#SVGID_14_);}
	.st57{fill:url(#SVGID_15_);}
	.st58{fill:url(#SVGID_16_);}
	.st59{fill:url(#SVGID_17_);}
	.st60{fill:url(#SVGID_18_);}
	.st61{fill:url(#SVGID_19_);}
	.st62{fill:#454289;}
	.st63{fill:#38327C;}
	.st64{fill:#E6E6E6;}
	.st65{fill:#FF4370;}
	.st66{fill:#E53C70;}
	.st67{fill:#FF6699;}
	.st68{opacity:0.23;fill:#E53C70;}
	.st69{fill:#3F4650;}
	.st70{fill:#0267B6;}
	.st71{fill:#2BB03E;}
	.st72{fill:#EA2023;}
	.st73{fill:#FBED23;}
	.st74{fill:#0E6B7A;}
	.st75{opacity:0.64;fill:url(#SVGID_20_);}
	.st76{fill:none;stroke:#FFFFFF;stroke-width:8.0256;stroke-miterlimit:10;}
	.st77{fill:none;stroke:#FF4370;stroke-width:1.3376;stroke-miterlimit:10;}
	.st78{fill:#FF83B3;}
	.st79{fill:#EBB724;}
	.st80{fill:#FFC727;}
	.st81{fill:#50ACB0;}
	.st82{fill:#FD8283;}
	.st83{fill:#F07B7C;}
	.st84{fill:#3C8185;}
	.st85{display:none;fill:#3C8185;}
	.st86{fill:#92D1DF;}
	.st87{fill:#010101;}
	.st88{fill:#FDEE40;}
	.st89{fill:#020202;}
	.st90{fill:#76B62A;}
	.st91{fill:#FAB924;}
	.st92{fill:#F20303;}
	.st93{fill:none;stroke:#D3DEBC;stroke-width:2.0882;stroke-miterlimit:10;}
	.st94{fill:none;stroke:#D3DEBC;stroke-miterlimit:10;}
	.st95{display:none;fill:#4A4A49;stroke:#C6C6C6;stroke-width:18.9143;stroke-miterlimit:10;}
	.st96{display:none;}
	.st97{display:inline;fill:#C6C6C6;}
	.st98{fill:#F07E31;}
	.st99{fill:#FAC18A;}
	.st100{fill:#6A471E;}
	.st101{fill:#CCCCCC;}
	.st102{display:inline;fill:#FFFFFF;}
	.st103{opacity:0.63;fill:#FAB924;}
	.st104{opacity:0.63;fill:#FDEE40;}
	.st105{opacity:0.63;fill:#76B62A;}
	.st106{opacity:0.63;fill:#92D1DF;}
	.st107{fill:#ABD2D0;}
	.st108{fill:#968976;}
	.st109{fill:#70675B;}
	.st110{fill:#E4DECE;}
	.st111{fill:#93B7B6;}
	.st112{fill:#C9F9F9;}
	.st113{fill:none;stroke:#FFFFFF;stroke-width:2.9103;stroke-miterlimit:10;}
	.st114{fill:#F1893A;}
	.st115{fill:#C96E31;}
	.st116{fill:#DB7838;}
	.st117{fill:#2F3E4C;}
	.st118{fill:#87A978;}
	.st119{fill:#93BD85;}
	.st120{fill:#ACDA99;}
	.st121{fill:#475362;}
	.st122{fill:#627289;}
	.st123{fill:#303846;}
	.st124{fill:#41505E;}
	.st125{fill:none;stroke:#87A978;stroke-width:1.1982;stroke-miterlimit:10;}
	.st126{fill:#B4E6A1;}
	.st127{fill:none;stroke:#87A978;stroke-width:0.8558;stroke-miterlimit:10;}
	.st128{fill:#6E8462;}
	.st129{fill-rule:evenodd;clip-rule:evenodd;fill:#F0EEE6;}
	.st130{fill:#E4E0D9;}
	.st131{fill:#FFDD83;}
	.st132{fill:#219260;}
	.st133{fill:#147798;}
	.st134{fill:#915E36;}
	.st135{fill:#FB8710;}
	.st136{fill:#CA9E64;}
	.st137{fill:#B07F48;}
	.st138{fill:#53D678;}
	.st139{fill:#5C4B51;}
	.st140{fill:#F06060;}
	.st141{fill:#F2EBBF;}
	.st142{fill:none;stroke:#5C4B51;stroke-width:3.4462;stroke-linecap:round;stroke-linejoin:round;stroke-miterlimit:10;}
	.st143{opacity:0.38;fill:none;stroke:#FFFFFF;stroke-width:7;stroke-linecap:round;stroke-linejoin:round;stroke-miterlimit:10;}
	.st144{fill:#DC9C76;}
	.st145{fill:#729C76;}
	.st146{fill:#A94B51;}
	.st147{fill:#974B51;}
	.st148{opacity:0.5;fill:#CC575E;}
	.st149{fill:#7F9C76;}
	.st150{fill:#5C4B7A;}
	.st151{fill:#F03960;}
	.st152{fill:#FFC783;}
	.st153{fill:#5C1A51;}
	.st154{fill:#52BEB2;}
	.st155{fill:#F0A660;}
	.st156{fill:#F3B562;}
	.st157{fill:#F27800;}
	.st158{fill:#613D4A;}
	.st159{fill:#004F4D;}
	.st160{fill:#007F4F;}
	.st161{fill:#00654D;}
	.st162{fill:#F59333;}
	.st163{fill:#F1ECDA;}
	.st164{fill:#88A8A7;}
	.st165{fill:url(#SVGID_23_);}
	.st166{fill:#E6E7E8;}
	.st167{fill:#D1D3D4;}
	.st168{fill:#FDBA4A;}
	.st169{fill:#FAA222;}
	.st170{fill:#D3DEBC;}
	.st171{fill:#CC883B;}
	.st172{fill-rule:evenodd;clip-rule:evenodd;fill:#919697;}
	.st173{fill-rule:evenodd;clip-rule:evenodd;fill:#36343A;}
	.st174{fill-rule:evenodd;clip-rule:evenodd;fill:#0C050D;stroke:#0C050D;stroke-width:0.235;stroke-miterlimit:22.9256;}
	.st175{fill-rule:evenodd;clip-rule:evenodd;fill:#36343A;stroke:#0C050D;stroke-width:0.235;stroke-miterlimit:22.9256;}
	.st176{fill-rule:evenodd;clip-rule:evenodd;fill:#7D8082;}
	.st177{fill-rule:evenodd;clip-rule:evenodd;fill:#5BBA47;}
	.st178{fill-rule:evenodd;clip-rule:evenodd;fill:#818081;}
	.st179{fill-rule:evenodd;clip-rule:evenodd;fill:#666264;}
	.st180{fill-rule:evenodd;clip-rule:evenodd;fill:#3B3438;}
	.st181{fill-rule:evenodd;clip-rule:evenodd;fill:#62C3D2;}
	.st182{fill-rule:evenodd;clip-rule:evenodd;fill:#A0D6E1;}
	.st183{fill-rule:evenodd;clip-rule:evenodd;fill:#00B6E8;}
	.st184{fill-rule:evenodd;clip-rule:evenodd;fill:#232938;}
	.st185{fill-rule:evenodd;clip-rule:evenodd;fill:#E5B249;}
	.st186{fill-rule:evenodd;clip-rule:evenodd;fill:#D4C2AB;}
	.st187{fill-rule:evenodd;clip-rule:evenodd;fill:#E1894A;}
	.st188{fill-rule:evenodd;clip-rule:evenodd;fill:#FFFFFF;}
	.st189{fill:#232938;}
	.st190{fill:#A9B392;}
	.st191{fill:#E5B249;}
	.st192{fill-rule:evenodd;clip-rule:evenodd;fill:#A9B392;}
	.st193{fill:#ECECEC;}
	.st194{fill:#BEC3C7;}
	.st195{fill:#DAE0E2;}
	.st196{fill:#F45A2A;}
	.st197{fill:#F67B46;}
	.st198{fill:#E73F1F;}
	.st199{fill:#E1894A;}
	.st200{fill:#0A837F;}
	.st201{fill:#1DA19F;}
	.st202{fill:#3A6B34;}
	.st203{fill:#96BCBB;}
	.st204{fill:#68858E;}
	.st205{fill:#69935F;}
	.st206{fill:#B75353;}
	.st207{fill:#E0A76E;}
	.st208{fill:#F0D1BC;}
	.st209{fill:#1D2E35;}
	.st210{fill:#272A33;}
	.st211{fill:#563B31;}
	.st212{fill:#462D23;}
	.st213{fill:#FF8D0C;}
	.st214{fill:#FFBF17;}
	.st215{fill:#FFF2EB;}
	.st216{fill:#FFD690;}
	.st217{fill:#FFE5BF;}
	.st218{fill:#F9C44E;}
	.st219{fill:#F9DCB2;}
	.st220{fill:#F9EAD7;}
	.st221{fill:#61AA6A;}
	.st222{fill:#DCD8A0;}
	.st223{fill:#F8F6D3;}
	.st224{fill:#E8E4BF;}
	.st225{fill:#F1CC5E;}
	.st226{fill:#BB8150;}
	.st227{fill:#D09059;}
	.st228{fill:#E3AA79;}
	.st229{fill:#6FC07F;}
	.st230{fill:#A56A2D;}
	.st231{fill:url(#SVGID_24_);}
	.st232{fill:#EFA68F;}
	.st233{fill:#F28B66;}
	.st234{fill-rule:evenodd;clip-rule:evenodd;fill:#999A9A;}
	.st235{fill-rule:evenodd;clip-rule:evenodd;fill:#F3C54B;}
	.st236{fill-rule:evenodd;clip-rule:evenodd;fill:#BBBABA;}
	.st237{fill-rule:evenodd;clip-rule:evenodd;fill:#009CB4;}
	.st238{fill:url(#SVGID_25_);}
	.st239{fill:#3F4E61;}
	.st240{fill:#BE6647;}
	.st241{fill:#404F5F;}
	.st242{fill:#117598;}
	.st243{opacity:0.5;fill:#FF6E86;}
</style>
<g id="Bathroom-icons">
</g>
<g id="Bathroom">
</g>
<g id="Bedroom-icons">
</g>
<g id="Bedroom">
</g>
<g id="icons">
</g>
<g id="POINTS">
</g>
<g id="Kitchen">
	<g>
		<rect x="65.1" y="88.7" class="st118" width="370.2" height="315.1"/>
		<rect x="74.7" y="171.4" class="st119" width="349.9" height="224.1"/>
		<rect x="74.7" y="93.5" class="st119" width="349.9" height="70.7"/>
		<path class="st120" d="M442.5,88.7H57.9V78.4c0-3.6,2.9-6.5,6.5-6.5H436c3.6,0,6.5,2.9,6.5,6.5V88.7z"/>
		<rect x="139.4" y="208.5" class="st121" width="221.7" height="129.4"/>
		<rect x="165.7" y="234.9" class="st122" width="170.1" height="77.9"/>
		<rect x="162.1" y="231.3" class="st123" width="3.6" height="85.1"/>
		
			<rect x="249" y="144.4" transform="matrix(-2.530604e-12 1 -1 -2.530604e-12 483.8768 -17.7027)" class="st123" width="3.6" height="177.3"/>
		
			<rect x="249" y="225.9" transform="matrix(-2.530604e-12 1 -1 -2.530604e-12 565.3536 63.7741)" class="st123" width="3.6" height="177.3"/>
		
			<rect x="250.2" y="211.5" transform="matrix(-8.349949e-12 1 -1 -8.349949e-12 550.9753 49.3959)" class="st123" width="1.2" height="177.3"/>
		
			<rect x="250.2" y="197.1" transform="matrix(-8.349949e-12 1 -1 -8.349949e-12 536.5971 35.0176)" class="st123" width="1.2" height="177.3"/>
		
			<rect x="250.2" y="181.6" transform="matrix(-8.349949e-12 1 -1 -8.349949e-12 521.0206 19.4411)" class="st123" width="1.2" height="177.3"/>
		
			<rect x="250.2" y="164.8" transform="matrix(-8.349949e-12 1 -1 -8.349949e-12 504.246 2.6665)" class="st123" width="1.2" height="177.3"/>
		<rect x="335.9" y="231.3" class="st123" width="3.6" height="85.1"/>
		<rect x="217.2" y="358.3" class="st124" width="67.1" height="20.4"/>
		<circle class="st125" cx="389.2" cy="131.2" r="16.8"/>
		<path class="st126" d="M390.5,152.8h-1.4c-1.9,0-3.5-1.6-3.5-3.5v-21.8c0-1.9,1.6-3.5,3.5-3.5h1.4c1.9,0,3.5,1.6,3.5,3.5v21.8
			C394,151.2,392.4,152.8,390.5,152.8z"/>
		<circle class="st125" cx="344.8" cy="131.2" r="16.8"/>
		<path class="st126" d="M346.1,152.8h-1.4c-1.9,0-3.5-1.6-3.5-3.5v-21.8c0-1.9,1.6-3.5,3.5-3.5h1.4c1.9,0,3.5,1.6,3.5,3.5v21.8
			C349.6,151.2,348.1,152.8,346.1,152.8z"/>
		<circle class="st125" cx="299.3" cy="131.2" r="16.8"/>
		<path class="st126" d="M300.6,152.8h-1.4c-1.9,0-3.5-1.6-3.5-3.5v-21.8c0-1.9,1.6-3.5,3.5-3.5h1.4c1.9,0,3.5,1.6,3.5,3.5v21.8
			C304.1,151.2,302.5,152.8,300.6,152.8z"/>
		<path class="st126" d="M249.7,137.8h-1.4c-1.9,0-3.5-1.6-3.5-3.5v-15.8c0-1.9,1.6-3.5,3.5-3.5h1.4c1.9,0,3.5,1.6,3.5,3.5v15.8
			C253.2,136.3,251.6,137.8,249.7,137.8z"/>
		<circle class="st125" cx="195.1" cy="131.2" r="16.8"/>
		<circle class="st127" cx="249" cy="126.4" r="12"/>
		<path class="st126" d="M196.4,152.8H195c-1.9,0-3.5-1.6-3.5-3.5v-21.8c0-1.9,1.6-3.5,3.5-3.5h1.4c1.9,0,3.5,1.6,3.5,3.5v21.8
			C199.9,151.2,198.3,152.8,196.4,152.8z"/>
		<circle class="st125" cx="149.5" cy="131.2" r="16.8"/>
		<path class="st126" d="M150.8,152.8h-1.4c-1.9,0-3.5-1.6-3.5-3.5v-21.8c0-1.9,1.6-3.5,3.5-3.5h1.4c1.9,0,3.5,1.6,3.5,3.5v21.8
			C154.3,151.2,152.8,152.8,150.8,152.8z"/>
		<circle class="st125" cx="104" cy="131.2" r="16.8"/>
		<path class="st126" d="M105.3,152.8h-1.4c-1.9,0-3.5-1.6-3.5-3.5v-21.8c0-1.9,1.6-3.5,3.5-3.5h1.4c1.9,0,3.5,1.6,3.5,3.5v21.8
			C108.8,151.2,107.2,152.8,105.3,152.8z"/>
		<circle class="st118" cx="104.6" cy="109.1" r="3.6"/>
		<rect x="65.1" y="403.8" class="st128" width="370.2" height="19.2"/>
	</g>
</g>
<g id="Livingroom-icons">
</g>
<g id="Livingroom">
</g>
</svg>
