<?xml version="1.0" encoding="utf-8"?>
<!-- Generator: Adobe Illustrator 24.3.0, SVG Export Plug-In . SVG Version: 6.00 Build 0)  -->
<svg version="1.1" xmlns="http://www.w3.org/2000/svg" xmlns:xlink="http://www.w3.org/1999/xlink" x="0px" y="0px"
	 viewBox="0 0 1920 1080" style="enable-background:new 0 0 1920 1080;" xml:space="preserve">
<style type="text/css">
	.st0{fill:#D8E9F0;}
	.st1{fill:#3687A4;}
	.st2{fill:#ADDDEC;}
	.st3{fill:#FFFFFF;}
	.st4{fill:#A6DEF6;}
	.st5{fill:#FBC45E;}
	.st6{fill:#E89BBE;}
	.st7{fill:#7A8EC7;}
	.st8{fill:none;stroke:#FFFFFF;stroke-width:6;stroke-miterlimit:10;}
	.st9{fill:#C1E6EC;}
	.st10{fill:#FFFFFF;stroke:#FFFFFF;stroke-width:4;stroke-miterlimit:10;}
	.st11{fill:#CBDF8C;}
	.st12{fill:none;stroke:#FFFFFF;stroke-width:2;stroke-miterlimit:10;}
	.st13{fill:#838186;stroke:#838186;stroke-width:4;stroke-miterlimit:10;}
	.st14{fill:#838186;}
	.st15{fill:#DFDFDF;}
	.st16{fill:none;stroke:#FFFFFF;stroke-width:28;stroke-miterlimit:10;}
	.st17{opacity:0.4;fill:#FFFFFF;}
	.st18{fill:url(#SVGID_1_);}
	.st19{fill:url(#SVGID_2_);}
	.st20{fill:#BFE3D3;}
	.st21{fill:#ADCEC1;}
	.st22{fill:#58C5C7;}
	.st23{fill:#00B6BE;}
	.st24{fill:#DDBCC8;}
	.st25{fill:#BCAB92;}
	.st26{fill:#D6A1B7;}
	.st27{fill:#261F44;}
	.st28{opacity:0.44;fill:#5F5F60;}
	.st29{fill:none;stroke:#998675;stroke-width:2;stroke-miterlimit:10;}
	.st30{fill:url(#SVGID_3_);}
	.st31{fill:url(#SVGID_4_);}
	.st32{fill:url(#SVGID_5_);}
	.st33{fill:url(#SVGID_6_);}
	.st34{fill:url(#SVGID_7_);}
	.st35{fill:url(#SVGID_8_);}
	.st36{fill:url(#SVGID_9_);}
	.st37{fill:url(#SVGID_10_);}
	.st38{fill:url(#SVGID_11_);}
	.st39{fill:url(#SVGID_12_);}
	.st40{fill:url(#SVGID_13_);}
	.st41{fill:url(#SVGID_14_);}
	.st42{fill:url(#SVGID_15_);}
	.st43{fill:url(#SVGID_16_);}
	.st44{fill:url(#SVGID_17_);}
	.st45{fill:url(#SVGID_18_);}
	.st46{fill:url(#SVGID_19_);}
	.st47{fill:#454289;}
	.st48{fill:#38327C;}
	.st49{fill:#E6E6E6;}
	.st50{fill:#FF4370;}
	.st51{fill:#E53C70;}
	.st52{fill:#FF6699;}
	.st53{opacity:0.23;fill:#E53C70;}
	.st54{fill:#3F4650;}
	.st55{fill:#0267B6;}
	.st56{fill:#2BB03E;}
	.st57{fill:#EA2023;}
	.st58{fill:#FBED23;}
	.st59{fill:#0E6B7A;}
	.st60{opacity:0.64;fill:url(#SVGID_20_);}
	.st61{fill:none;stroke:#FFFFFF;stroke-width:8.0256;stroke-miterlimit:10;}
	.st62{fill:none;stroke:#FF4370;stroke-width:1.3376;stroke-miterlimit:10;}
	.st63{fill:#FF83B3;}
	.st64{fill:#EBB724;}
	.st65{fill:#FFC727;}
	.st66{fill:#50ACB0;}
	.st67{fill:#FD8283;}
	.st68{fill:#F07B7C;}
	.st69{fill:#3C8185;}
	.st70{display:none;fill:#3C8185;}
	.st71{fill:#92D1DF;}
	.st72{fill:#010101;}
	.st73{fill:#FAB924;}
	.st74{fill:#76B62A;}
	.st75{fill:#FDEE40;}
	.st76{fill:#020202;}
	.st77{fill:#ABD2D0;}
	.st78{fill:#968976;}
	.st79{fill:#70675B;}
	.st80{fill:#E4DECE;}
	.st81{fill:#93B7B6;}
	.st82{fill:#C9F9F9;}
	.st83{fill:none;stroke:#FFFFFF;stroke-width:2.9103;stroke-miterlimit:10;}
	.st84{fill:#F1893A;}
	.st85{fill:#C96E31;}
	.st86{fill:#DB7838;}
	.st87{fill:#2F3E4C;}
	.st88{fill:#87A978;}
	.st89{fill:#93BD85;}
	.st90{fill:#ACDA99;}
	.st91{fill:#475362;}
	.st92{fill:#627289;}
	.st93{fill:#303846;}
	.st94{fill:#41505E;}
	.st95{fill:none;stroke:#87A978;stroke-width:1.1982;stroke-miterlimit:10;}
	.st96{fill:#B4E6A1;}
	.st97{fill:none;stroke:#87A978;stroke-width:0.8558;stroke-miterlimit:10;}
	.st98{fill:#6E8462;}
	.st99{fill-rule:evenodd;clip-rule:evenodd;fill:#F0EEE6;}
	.st100{fill:#E4E0D9;}
	.st101{fill:#FFDD83;}
	.st102{fill:#219260;}
	.st103{fill:#147798;}
	.st104{fill:#915E36;}
	.st105{fill:#FB8710;}
	.st106{fill:#CA9E64;}
	.st107{fill:#B07F48;}
	.st108{fill:#53D678;}
	.st109{fill:#5C4B51;}
	.st110{fill:#F06060;}
	.st111{fill:#F2EBBF;}
	.st112{fill:none;stroke:#5C4B51;stroke-width:3.4462;stroke-linecap:round;stroke-linejoin:round;stroke-miterlimit:10;}
	.st113{opacity:0.38;fill:none;stroke:#FFFFFF;stroke-width:7;stroke-linecap:round;stroke-linejoin:round;stroke-miterlimit:10;}
	.st114{fill:#DC9C76;}
	.st115{fill:#729C76;}
	.st116{fill:#A94B51;}
	.st117{fill:#974B51;}
	.st118{opacity:0.5;fill:#CC575E;}
	.st119{fill:#7F9C76;}
	.st120{fill:#5C4B7A;}
	.st121{fill:#F03960;}
	.st122{fill:#FFC783;}
	.st123{fill:#5C1A51;}
	.st124{fill:#52BEB2;}
	.st125{fill:#F0A660;}
	.st126{fill:#F3B562;}
	.st127{fill:#F27800;}
	.st128{fill:#613D4A;}
	.st129{fill:#004F4D;}
	.st130{fill:#007F4F;}
	.st131{fill:#00654D;}
	.st132{fill:#F59333;}
	.st133{fill:#F1ECDA;}
	.st134{fill:#88A8A7;}
	.st135{fill:url(#SVGID_21_);}
	.st136{fill:#E6E7E8;}
	.st137{fill:#D1D3D4;}
	.st138{fill:#FDBA4A;}
	.st139{fill:#FAA222;}
	.st140{fill:#D3DEBC;}
	.st141{fill:#CC883B;}
	.st142{fill-rule:evenodd;clip-rule:evenodd;fill:#919697;}
	.st143{fill-rule:evenodd;clip-rule:evenodd;fill:#36343A;}
	.st144{fill-rule:evenodd;clip-rule:evenodd;fill:#0C050D;stroke:#0C050D;stroke-width:0.235;stroke-miterlimit:22.9256;}
	.st145{fill-rule:evenodd;clip-rule:evenodd;fill:#36343A;stroke:#0C050D;stroke-width:0.235;stroke-miterlimit:22.9256;}
	.st146{fill-rule:evenodd;clip-rule:evenodd;fill:#7D8082;}
	.st147{fill-rule:evenodd;clip-rule:evenodd;fill:#5BBA47;}
	.st148{fill-rule:evenodd;clip-rule:evenodd;fill:#818081;}
	.st149{fill-rule:evenodd;clip-rule:evenodd;fill:#666264;}
	.st150{fill-rule:evenodd;clip-rule:evenodd;fill:#3B3438;}
	.st151{fill-rule:evenodd;clip-rule:evenodd;fill:#62C3D2;}
	.st152{fill-rule:evenodd;clip-rule:evenodd;fill:#A0D6E1;}
	.st153{fill-rule:evenodd;clip-rule:evenodd;fill:#00B6E8;}
	.st154{fill-rule:evenodd;clip-rule:evenodd;fill:#232938;}
	.st155{fill-rule:evenodd;clip-rule:evenodd;fill:#E5B249;}
	.st156{fill-rule:evenodd;clip-rule:evenodd;fill:#D4C2AB;}
	.st157{fill-rule:evenodd;clip-rule:evenodd;fill:#E1894A;}
	.st158{fill-rule:evenodd;clip-rule:evenodd;fill:#FFFFFF;}
	.st159{fill:#232938;}
	.st160{fill:#A9B392;}
	.st161{fill:#E5B249;}
	.st162{fill-rule:evenodd;clip-rule:evenodd;fill:#A9B392;}
	.st163{fill:#ECECEC;}
	.st164{fill:#BEC3C7;}
	.st165{fill:#DAE0E2;}
	.st166{fill:#F45A2A;}
	.st167{fill:#F67B46;}
	.st168{fill:#E73F1F;}
	.st169{fill:#E1894A;}
	.st170{fill:#0A837F;}
	.st171{fill:#1DA19F;}
	.st172{fill:#3A6B34;}
	.st173{fill:#96BCBB;}
	.st174{fill:#68858E;}
	.st175{fill:#69935F;}
	.st176{fill:#B75353;}
	.st177{fill:#E0A76E;}
	.st178{fill:#F0D1BC;}
	.st179{fill:#1D2E35;}
	.st180{fill:#272A33;}
	.st181{fill:#563B31;}
	.st182{fill:#462D23;}
	.st183{fill:#FF8D0C;}
	.st184{fill:#FFBF17;}
	.st185{fill:#FFF2EB;}
	.st186{fill:#FFD690;}
	.st187{fill:#FFE5BF;}
	.st188{fill:#F9C44E;}
	.st189{fill:#F9DCB2;}
	.st190{fill:#F9EAD7;}
	.st191{fill:#61AA6A;}
	.st192{fill:#DCD8A0;}
	.st193{fill:#F8F6D3;}
	.st194{fill:#E8E4BF;}
	.st195{fill:#F1CC5E;}
	.st196{fill:#BB8150;}
	.st197{fill:#D09059;}
	.st198{fill:#E3AA79;}
	.st199{fill:#6FC07F;}
	.st200{fill:#A56A2D;}
	.st201{fill:url(#SVGID_22_);}
	.st202{fill:#EFA68F;}
	.st203{fill:#F28B66;}
	.st204{fill-rule:evenodd;clip-rule:evenodd;fill:#999A9A;}
	.st205{fill-rule:evenodd;clip-rule:evenodd;fill:#F3C54B;}
	.st206{fill-rule:evenodd;clip-rule:evenodd;fill:#BBBABA;}
	.st207{fill-rule:evenodd;clip-rule:evenodd;fill:#009CB4;}
	.st208{fill:url(#SVGID_23_);}
	.st209{fill:#3F4E61;}
	.st210{fill:#BE6647;}
	.st211{fill:#404F5F;}
	.st212{fill:#117598;}
	.st213{opacity:0.5;fill:#FF6E86;}
</style>
<g id="Bathroom-icons">
</g>
<g id="Bathroom">
</g>
<g id="Bedroom-icons">
</g>
<g id="Bedroom">
</g>
<g id="icons">
	<g id="water_5_">
	</g>
	<g id="el_8_">
		<g id="el_6_">
			<path class="st73" d="M598.6,1009c0.4,14.7-12.1,28.2-28.2,28c-15.4-0.2-27.8-13.2-27.6-28.5c0.2-14.2,12.2-27.8,28.6-27.5
				C586.5,981.3,599,994.2,598.6,1009z M573.2,996.4c0-2,0-4,0-6c0-1.4-0.7-2.3-1.9-2.6c-1.2-0.3-2.3,0.2-2.9,1.5
				c-3.6,7.4-7.2,14.8-10.8,22.1c-1,2.1,0.1,3.9,2.4,3.9c2.5,0,5,0,7.5,0c0.5,0,0.7,0.1,0.7,0.7c0,4,0,7.9,0,11.9c0,0.3,0,0.7,0.1,1
				c0.2,1.1,1.1,1.9,2.2,2c1.2,0.1,2-0.5,2.6-1.8c3.5-7.3,7.1-14.6,10.6-21.9c1-2-0.1-3.8-2.4-3.8c-2.5,0-5,0-7.5,0
				c-0.6,0-0.8-0.1-0.8-0.7C573.2,1000.5,573.2,998.5,573.2,996.4z"/>
			<path class="st72" d="M573.2,996.4c0,2,0,4.1,0,6.1c0,0.6,0.2,0.8,0.8,0.7c2.5,0,5,0,7.5,0c2.2,0,3.3,1.8,2.4,3.8
				c-3.6,7.3-7.1,14.6-10.6,21.9c-0.7,1.3-1.4,1.9-2.6,1.8c-1.1-0.1-2-0.9-2.2-2c-0.1-0.3-0.1-0.7-0.1-1c0-4,0-7.9,0-11.9
				c0-0.6-0.1-0.7-0.7-0.7c-2.5,0-5,0-7.5,0c-2.3,0-3.4-1.8-2.4-3.9c3.6-7.4,7.2-14.8,10.8-22.1c0.6-1.3,1.7-1.8,2.9-1.5
				c1.2,0.3,1.9,1.2,1.9,2.6C573.2,992.4,573.2,994.4,573.2,996.4z"/>
		</g>
	</g>
	<g id="light_24_">
		<g id="light_15_">
			<path class="st74" d="M488.4,799.6c8.4-0.1,15.5,6.9,15.5,15.5c0,8.6-7.1,15.6-15.7,15.5c-8.4-0.1-15.4-7.1-15.4-15.7
				C472.9,806.5,480.1,799.5,488.4,799.6z M488.1,820.2c0.9,0,1.7,0,2.6,0c0.6,0,0.6,0,0.7-0.6c0-0.1,0-0.1,0-0.2
				c0.2-1.2,0.8-2.1,1.5-3c1.2-1.6,2.1-3.2,2.3-5.3c0.1-1.5-0.1-3-1-4.2c-1.7-2.4-4.1-3.5-7-3.2c-2.6,0.3-4.5,1.7-5.6,4.1
				c-0.8,1.9-0.7,3.8,0.1,5.7c0.5,1.2,1.2,2.2,2,3.2c0.7,0.9,1.2,1.9,1.3,3.1c0,0.3,0.1,0.3,0.3,0.3
				C486.1,820.2,487.1,820.2,488.1,820.2z M488.1,822.6c0.8,0,1.6,0,2.4,0c0.9,0,0.9,0,0.9-0.9c0-0.3-0.1-0.3-0.4-0.3
				c-1.8,0-3.5,0-5.3,0c-0.9,0-0.9,0-0.9,0.9c0,0.3,0.1,0.3,0.3,0.3C486.1,822.6,487.1,822.6,488.1,822.6z M488.1,823.7
				c-1,0-2,0-2.9,0c-0.3,0-0.4,0.1-0.3,0.4c0.2,0.5,0.6,0.8,1,0.8c1.4,0,2.8,0,4.3,0c0.5,0,0.9-0.4,1.1-0.9c0.1-0.2,0-0.3-0.2-0.3
				C490.1,823.7,489.1,823.7,488.1,823.7z M488.1,825.5c-0.3,0-0.6,0-0.9,0c-0.3,0-0.3,0.1-0.3,0.3c0.1,0.5,0.6,0.9,1.2,0.9
				c0.5,0,1-0.4,1.1-0.9c0.1-0.2,0-0.3-0.2-0.3C488.7,825.5,488.4,825.5,488.1,825.5z"/>
			<path d="M488.1,820.2c-1,0-1.9,0-2.9,0c-0.2,0-0.3,0-0.3-0.3c-0.1-1.2-0.6-2.2-1.3-3.1c-0.7-1-1.5-2-2-3.2
				c-0.7-1.9-0.9-3.8-0.1-5.7c1.1-2.4,3-3.8,5.6-4.1c2.9-0.4,5.3,0.7,7,3.2c0.9,1.3,1.1,2.7,1,4.2c-0.1,2-1.1,3.7-2.3,5.3
				c-0.7,0.9-1.3,1.9-1.5,3c0,0.1,0,0.1,0,0.2c-0.1,0.6-0.1,0.6-0.7,0.6C489.8,820.2,489,820.2,488.1,820.2z M482.6,809.7
				c0,0.4,0.2,0.7,0.5,0.8c0.3,0,0.6-0.2,0.7-0.6c0.3-1.5,1.2-2.6,2.7-3.2c0.4-0.2,0.6-0.5,0.5-0.8c-0.2-0.4-0.5-0.5-0.9-0.3
				c-0.9,0.4-1.7,1-2.4,1.8C483.1,808.1,482.7,808.9,482.6,809.7z"/>
			<path d="M488.1,822.6c-1,0-1.9,0-2.9,0c-0.2,0-0.3,0-0.3-0.3c0-0.9,0-0.9,0.9-0.9c1.8,0,3.5,0,5.3,0c0.3,0,0.4,0,0.4,0.3
				c0,0.9,0,0.9-0.9,0.9C489.7,822.6,488.9,822.6,488.1,822.6z"/>
			<path d="M488.1,823.7c1,0,2,0,2.9,0c0.3,0,0.3,0.1,0.2,0.3c-0.1,0.5-0.6,0.9-1.1,0.9c-1.4,0-2.8,0-4.3,0c-0.5,0-0.9-0.3-1-0.8
				c-0.1-0.3-0.1-0.4,0.3-0.4C486.2,823.7,487.1,823.7,488.1,823.7z"/>
			<path d="M488.1,825.5c0.3,0,0.6,0,0.9,0c0.2,0,0.3,0,0.2,0.3c-0.1,0.5-0.5,0.9-1.1,0.9c-0.6,0-1.1-0.3-1.2-0.9
				c-0.1-0.2,0-0.3,0.3-0.3C487.5,825.5,487.8,825.5,488.1,825.5z"/>
			<path class="st74" d="M482.6,809.7c0.1-0.8,0.5-1.6,1-2.3c0.6-0.8,1.4-1.4,2.4-1.8c0.4-0.2,0.8,0,0.9,0.3c0.1,0.3,0,0.6-0.5,0.8
				c-1.4,0.6-2.3,1.7-2.7,3.2c-0.1,0.4-0.4,0.6-0.7,0.6C482.8,810.4,482.6,810.1,482.6,809.7z"/>
		</g>
		<g id="light_16_">
			<path class="st74" d="M545.4,713.6c8.4-0.1,15.5,6.9,15.5,15.5c0,8.6-7.1,15.6-15.7,15.5c-8.4-0.1-15.4-7.1-15.4-15.7
				C529.9,720.5,537.1,713.5,545.4,713.6z M545.1,734.2c0.9,0,1.7,0,2.6,0c0.6,0,0.6,0,0.7-0.6c0-0.1,0-0.1,0-0.2
				c0.2-1.2,0.8-2.1,1.5-3c1.2-1.6,2.1-3.2,2.3-5.3c0.1-1.5-0.1-3-1-4.2c-1.7-2.4-4.1-3.5-7-3.2c-2.6,0.3-4.5,1.7-5.6,4.1
				c-0.8,1.9-0.7,3.8,0.1,5.7c0.5,1.2,1.2,2.2,2,3.2c0.7,0.9,1.2,1.9,1.3,3.1c0,0.3,0.1,0.3,0.3,0.3
				C543.1,734.2,544.1,734.2,545.1,734.2z M545.1,736.6c0.8,0,1.6,0,2.4,0c0.9,0,0.9,0,0.9-0.9c0-0.3-0.1-0.3-0.4-0.3
				c-1.8,0-3.5,0-5.3,0c-0.9,0-0.9,0-0.9,0.9c0,0.3,0.1,0.3,0.3,0.3C543.1,736.6,544.1,736.6,545.1,736.6z M545.1,737.7
				c-1,0-2,0-2.9,0c-0.3,0-0.4,0.1-0.3,0.4c0.2,0.5,0.6,0.8,1,0.8c1.4,0,2.8,0,4.3,0c0.5,0,0.9-0.4,1.1-0.9c0.1-0.2,0-0.3-0.2-0.3
				C547.1,737.7,546.1,737.7,545.1,737.7z M545.1,739.5c-0.3,0-0.6,0-0.9,0c-0.3,0-0.3,0.1-0.3,0.3c0.1,0.5,0.6,0.9,1.2,0.9
				c0.5,0,1-0.4,1.1-0.9c0.1-0.2,0-0.3-0.2-0.3C545.7,739.5,545.4,739.5,545.1,739.5z"/>
			<path d="M545.1,734.2c-1,0-1.9,0-2.9,0c-0.2,0-0.3,0-0.3-0.3c-0.1-1.2-0.6-2.2-1.3-3.1c-0.7-1-1.5-2-2-3.2
				c-0.7-1.9-0.9-3.8-0.1-5.7c1.1-2.4,3-3.8,5.6-4.1c2.9-0.4,5.3,0.7,7,3.2c0.9,1.3,1.1,2.7,1,4.2c-0.1,2-1.1,3.7-2.3,5.3
				c-0.7,0.9-1.3,1.9-1.5,3c0,0.1,0,0.1,0,0.2c-0.1,0.6-0.1,0.6-0.7,0.6C546.8,734.2,546,734.2,545.1,734.2z M539.6,723.7
				c0,0.4,0.2,0.7,0.5,0.8c0.3,0,0.6-0.2,0.7-0.6c0.3-1.5,1.2-2.6,2.7-3.2c0.4-0.2,0.6-0.5,0.5-0.8c-0.2-0.4-0.5-0.5-0.9-0.3
				c-0.9,0.4-1.7,1-2.4,1.8C540.1,722.1,539.7,722.9,539.6,723.7z"/>
			<path d="M545.1,736.6c-1,0-1.9,0-2.9,0c-0.2,0-0.3,0-0.3-0.3c0-0.9,0-0.9,0.9-0.9c1.8,0,3.5,0,5.3,0c0.3,0,0.4,0,0.4,0.3
				c0,0.9,0,0.9-0.9,0.9C546.7,736.6,545.9,736.6,545.1,736.6z"/>
			<path d="M545.1,737.7c1,0,2,0,2.9,0c0.3,0,0.3,0.1,0.2,0.3c-0.1,0.5-0.6,0.9-1.1,0.9c-1.4,0-2.8,0-4.3,0c-0.5,0-0.9-0.3-1-0.8
				c-0.1-0.3-0.1-0.4,0.3-0.4C543.2,737.7,544.1,737.7,545.1,737.7z"/>
			<path d="M545.1,739.5c0.3,0,0.6,0,0.9,0c0.2,0,0.3,0,0.2,0.3c-0.1,0.5-0.5,0.9-1.1,0.9c-0.6,0-1.1-0.3-1.2-0.9
				c-0.1-0.2,0-0.3,0.3-0.3C544.5,739.5,544.8,739.5,545.1,739.5z"/>
			<path class="st74" d="M539.6,723.7c0.1-0.8,0.5-1.6,1-2.3c0.6-0.8,1.4-1.4,2.4-1.8c0.4-0.2,0.8,0,0.9,0.3c0.1,0.3,0,0.6-0.5,0.8
				c-1.4,0.6-2.3,1.7-2.7,3.2c-0.1,0.4-0.4,0.6-0.7,0.6C539.8,724.4,539.6,724.1,539.6,723.7z"/>
		</g>
		<g id="light_14_">
			<path class="st74" d="M585.4,633.6c8.4-0.1,15.5,6.9,15.5,15.5c0,8.6-7.1,15.6-15.7,15.5c-8.4-0.1-15.4-7.1-15.4-15.7
				C569.9,640.5,577.1,633.5,585.4,633.6z M585.1,654.2c0.9,0,1.7,0,2.6,0c0.6,0,0.6,0,0.7-0.6c0-0.1,0-0.1,0-0.2
				c0.2-1.2,0.8-2.1,1.5-3c1.2-1.6,2.1-3.2,2.3-5.3c0.1-1.5-0.1-3-1-4.2c-1.7-2.4-4.1-3.5-7-3.2c-2.6,0.3-4.5,1.7-5.6,4.1
				c-0.8,1.9-0.7,3.8,0.1,5.7c0.5,1.2,1.2,2.2,2,3.2c0.7,0.9,1.2,1.9,1.3,3.1c0,0.3,0.1,0.3,0.3,0.3
				C583.1,654.2,584.1,654.2,585.1,654.2z M585.1,656.6c0.8,0,1.6,0,2.4,0c0.9,0,0.9,0,0.9-0.9c0-0.3-0.1-0.3-0.4-0.3
				c-1.8,0-3.5,0-5.3,0c-0.9,0-0.9,0-0.9,0.9c0,0.3,0.1,0.3,0.3,0.3C583.1,656.6,584.1,656.6,585.1,656.6z M585.1,657.7
				c-1,0-2,0-2.9,0c-0.3,0-0.4,0.1-0.3,0.4c0.2,0.5,0.6,0.8,1,0.8c1.4,0,2.8,0,4.3,0c0.5,0,0.9-0.4,1.1-0.9c0.1-0.2,0-0.3-0.2-0.3
				C587.1,657.7,586.1,657.7,585.1,657.7z M585.1,659.5c-0.3,0-0.6,0-0.9,0c-0.3,0-0.3,0.1-0.3,0.3c0.1,0.5,0.6,0.9,1.2,0.9
				c0.5,0,1-0.4,1.1-0.9c0.1-0.2,0-0.3-0.2-0.3C585.7,659.5,585.4,659.5,585.1,659.5z"/>
			<path d="M585.1,654.2c-1,0-1.9,0-2.9,0c-0.2,0-0.3,0-0.3-0.3c-0.1-1.2-0.6-2.2-1.3-3.1c-0.7-1-1.5-2-2-3.2
				c-0.7-1.9-0.9-3.8-0.1-5.7c1.1-2.4,3-3.8,5.6-4.1c2.9-0.4,5.3,0.7,7,3.2c0.9,1.3,1.1,2.7,1,4.2c-0.1,2-1.1,3.7-2.3,5.3
				c-0.7,0.9-1.3,1.9-1.5,3c0,0.1,0,0.1,0,0.2c-0.1,0.6-0.1,0.6-0.7,0.6C586.8,654.2,586,654.2,585.1,654.2z M579.6,643.7
				c0,0.4,0.2,0.7,0.5,0.8c0.3,0,0.6-0.2,0.7-0.6c0.3-1.5,1.2-2.6,2.7-3.2c0.4-0.2,0.6-0.5,0.5-0.8c-0.2-0.4-0.5-0.5-0.9-0.3
				c-0.9,0.4-1.7,1-2.4,1.8C580.1,642.1,579.7,642.9,579.6,643.7z"/>
			<path d="M585.1,656.6c-1,0-1.9,0-2.9,0c-0.2,0-0.3,0-0.3-0.3c0-0.9,0-0.9,0.9-0.9c1.8,0,3.5,0,5.3,0c0.3,0,0.4,0,0.4,0.3
				c0,0.9,0,0.9-0.9,0.9C586.7,656.6,585.9,656.6,585.1,656.6z"/>
			<path d="M585.1,657.7c1,0,2,0,2.9,0c0.3,0,0.3,0.1,0.2,0.3c-0.1,0.5-0.6,0.9-1.1,0.9c-1.4,0-2.8,0-4.3,0c-0.5,0-0.9-0.3-1-0.8
				c-0.1-0.3-0.1-0.4,0.3-0.4C583.2,657.7,584.1,657.7,585.1,657.7z"/>
			<path d="M585.1,659.5c0.3,0,0.6,0,0.9,0c0.2,0,0.3,0,0.2,0.3c-0.1,0.5-0.5,0.9-1.1,0.9c-0.6,0-1.1-0.3-1.2-0.9
				c-0.1-0.2,0-0.3,0.3-0.3C584.5,659.5,584.8,659.5,585.1,659.5z"/>
			<path class="st74" d="M579.6,643.7c0.1-0.8,0.5-1.6,1-2.3c0.6-0.8,1.4-1.4,2.4-1.8c0.4-0.2,0.8,0,0.9,0.3c0.1,0.3,0,0.6-0.5,0.8
				c-1.4,0.6-2.3,1.7-2.7,3.2c-0.1,0.4-0.4,0.6-0.7,0.6C579.8,644.4,579.6,644.1,579.6,643.7z"/>
		</g>
		<g id="light_23_">
			<path class="st74" d="M611.4,530.6c8.4-0.1,15.5,6.9,15.5,15.5c0,8.6-7.1,15.6-15.7,15.5c-8.4-0.1-15.4-7.1-15.4-15.7
				C595.9,537.5,603.1,530.5,611.4,530.6z M611.1,551.2c0.9,0,1.7,0,2.6,0c0.6,0,0.6,0,0.7-0.6c0-0.1,0-0.1,0-0.2
				c0.2-1.2,0.8-2.1,1.5-3c1.2-1.6,2.1-3.2,2.3-5.3c0.1-1.5-0.1-3-1-4.2c-1.7-2.4-4.1-3.5-7-3.2c-2.6,0.3-4.5,1.7-5.6,4.1
				c-0.8,1.9-0.7,3.8,0.1,5.7c0.5,1.2,1.2,2.2,2,3.2c0.7,0.9,1.2,1.9,1.3,3.1c0,0.3,0.1,0.3,0.3,0.3
				C609.1,551.2,610.1,551.2,611.1,551.2z M611.1,553.6c0.8,0,1.6,0,2.4,0c0.9,0,0.9,0,0.9-0.9c0-0.3-0.1-0.3-0.4-0.3
				c-1.8,0-3.5,0-5.3,0c-0.9,0-0.9,0-0.9,0.9c0,0.3,0.1,0.3,0.3,0.3C609.1,553.6,610.1,553.6,611.1,553.6z M611.1,554.7
				c-1,0-2,0-2.9,0c-0.3,0-0.4,0.1-0.3,0.4c0.2,0.5,0.6,0.8,1,0.8c1.4,0,2.8,0,4.3,0c0.5,0,0.9-0.4,1.1-0.9c0.1-0.2,0-0.3-0.2-0.3
				C613.1,554.7,612.1,554.7,611.1,554.7z M611.1,556.5c-0.3,0-0.6,0-0.9,0c-0.3,0-0.3,0.1-0.3,0.3c0.1,0.5,0.6,0.9,1.2,0.9
				c0.5,0,1-0.4,1.1-0.9c0.1-0.2,0-0.3-0.2-0.3C611.7,556.5,611.4,556.5,611.1,556.5z"/>
			<path d="M611.1,551.2c-1,0-1.9,0-2.9,0c-0.2,0-0.3,0-0.3-0.3c-0.1-1.2-0.6-2.2-1.3-3.1c-0.7-1-1.5-2-2-3.2
				c-0.7-1.9-0.9-3.8-0.1-5.7c1.1-2.4,3-3.8,5.6-4.1c2.9-0.4,5.3,0.7,7,3.2c0.9,1.3,1.1,2.7,1,4.2c-0.1,2-1.1,3.7-2.3,5.3
				c-0.7,0.9-1.3,1.9-1.5,3c0,0.1,0,0.1,0,0.2c-0.1,0.6-0.1,0.6-0.7,0.6C612.8,551.2,612,551.2,611.1,551.2z M605.6,540.7
				c0,0.4,0.2,0.7,0.5,0.8c0.3,0,0.6-0.2,0.7-0.6c0.3-1.5,1.2-2.6,2.7-3.2c0.4-0.2,0.6-0.5,0.5-0.8c-0.2-0.4-0.5-0.5-0.9-0.3
				c-0.9,0.4-1.7,1-2.4,1.8C606.1,539.1,605.7,539.9,605.6,540.7z"/>
			<path d="M611.1,553.6c-1,0-1.9,0-2.9,0c-0.2,0-0.3,0-0.3-0.3c0-0.9,0-0.9,0.9-0.9c1.8,0,3.5,0,5.3,0c0.3,0,0.4,0,0.4,0.3
				c0,0.9,0,0.9-0.9,0.9C612.7,553.6,611.9,553.6,611.1,553.6z"/>
			<path d="M611.1,554.7c1,0,2,0,2.9,0c0.3,0,0.3,0.1,0.2,0.3c-0.1,0.5-0.6,0.9-1.1,0.9c-1.4,0-2.8,0-4.3,0c-0.5,0-0.9-0.3-1-0.8
				c-0.1-0.3-0.1-0.4,0.3-0.4C609.2,554.7,610.1,554.7,611.1,554.7z"/>
			<path d="M611.1,556.5c0.3,0,0.6,0,0.9,0c0.2,0,0.3,0,0.2,0.3c-0.1,0.5-0.5,0.9-1.1,0.9c-0.6,0-1.1-0.3-1.2-0.9
				c-0.1-0.2,0-0.3,0.3-0.3C610.5,556.5,610.8,556.5,611.1,556.5z"/>
			<path class="st74" d="M605.6,540.7c0.1-0.8,0.5-1.6,1-2.3c0.6-0.8,1.4-1.4,2.4-1.8c0.4-0.2,0.8,0,0.9,0.3c0.1,0.3,0,0.6-0.5,0.8
				c-1.4,0.6-2.3,1.7-2.7,3.2c-0.1,0.4-0.4,0.6-0.7,0.6C605.8,541.4,605.6,541.1,605.6,540.7z"/>
		</g>
		<g id="light_13_">
			<path class="st74" d="M622.4,443.6c8.4-0.1,15.5,6.9,15.5,15.5c0,8.6-7.1,15.6-15.7,15.5c-8.4-0.1-15.4-7.1-15.4-15.7
				C606.9,450.5,614.1,443.5,622.4,443.6z M622.1,464.2c0.9,0,1.7,0,2.6,0c0.6,0,0.6,0,0.7-0.6c0-0.1,0-0.1,0-0.2
				c0.2-1.2,0.8-2.1,1.5-3c1.2-1.6,2.1-3.2,2.3-5.3c0.1-1.5-0.1-3-1-4.2c-1.7-2.4-4.1-3.5-7-3.2c-2.6,0.3-4.5,1.7-5.6,4.1
				c-0.8,1.9-0.7,3.8,0.1,5.7c0.5,1.2,1.2,2.2,2,3.2c0.7,0.9,1.2,1.9,1.3,3.1c0,0.3,0.1,0.3,0.3,0.3
				C620.1,464.2,621.1,464.2,622.1,464.2z M622.1,466.6c0.8,0,1.6,0,2.4,0c0.9,0,0.9,0,0.9-0.9c0-0.3-0.1-0.3-0.4-0.3
				c-1.8,0-3.5,0-5.3,0c-0.9,0-0.9,0-0.9,0.9c0,0.3,0.1,0.3,0.3,0.3C620.1,466.6,621.1,466.6,622.1,466.6z M622.1,467.7
				c-1,0-2,0-2.9,0c-0.3,0-0.4,0.1-0.3,0.4c0.2,0.5,0.6,0.8,1,0.8c1.4,0,2.8,0,4.3,0c0.5,0,0.9-0.4,1.1-0.9c0.1-0.2,0-0.3-0.2-0.3
				C624.1,467.7,623.1,467.7,622.1,467.7z M622.1,469.5c-0.3,0-0.6,0-0.9,0c-0.3,0-0.3,0.1-0.3,0.3c0.1,0.5,0.6,0.9,1.2,0.9
				c0.5,0,1-0.4,1.1-0.9c0.1-0.2,0-0.3-0.2-0.3C622.7,469.5,622.4,469.5,622.1,469.5z"/>
			<path d="M622.1,464.2c-1,0-1.9,0-2.9,0c-0.2,0-0.3,0-0.3-0.3c-0.1-1.2-0.6-2.2-1.3-3.1c-0.7-1-1.5-2-2-3.2
				c-0.7-1.9-0.9-3.8-0.1-5.7c1.1-2.4,3-3.8,5.6-4.1c2.9-0.4,5.3,0.7,7,3.2c0.9,1.3,1.1,2.7,1,4.2c-0.1,2-1.1,3.7-2.3,5.3
				c-0.7,0.9-1.3,1.9-1.5,3c0,0.1,0,0.1,0,0.2c-0.1,0.6-0.1,0.6-0.7,0.6C623.8,464.2,623,464.2,622.1,464.2z M616.6,453.7
				c0,0.4,0.2,0.7,0.5,0.8c0.3,0,0.6-0.2,0.7-0.6c0.3-1.5,1.2-2.6,2.7-3.2c0.4-0.2,0.6-0.5,0.5-0.8c-0.2-0.4-0.5-0.5-0.9-0.3
				c-0.9,0.4-1.7,1-2.4,1.8C617.1,452.1,616.7,452.9,616.6,453.7z"/>
			<path d="M622.1,466.6c-1,0-1.9,0-2.9,0c-0.2,0-0.3,0-0.3-0.3c0-0.9,0-0.9,0.9-0.9c1.8,0,3.5,0,5.3,0c0.3,0,0.4,0,0.4,0.3
				c0,0.9,0,0.9-0.9,0.9C623.7,466.6,622.9,466.6,622.1,466.6z"/>
			<path d="M622.1,467.7c1,0,2,0,2.9,0c0.3,0,0.3,0.1,0.2,0.3c-0.1,0.5-0.6,0.9-1.1,0.9c-1.4,0-2.8,0-4.3,0c-0.5,0-0.9-0.3-1-0.8
				c-0.1-0.3-0.1-0.4,0.3-0.4C620.2,467.7,621.1,467.7,622.1,467.7z"/>
			<path d="M622.1,469.5c0.3,0,0.6,0,0.9,0c0.2,0,0.3,0,0.2,0.3c-0.1,0.5-0.5,0.9-1.1,0.9c-0.6,0-1.1-0.3-1.2-0.9
				c-0.1-0.2,0-0.3,0.3-0.3C621.5,469.5,621.8,469.5,622.1,469.5z"/>
			<path class="st74" d="M616.6,453.7c0.1-0.8,0.5-1.6,1-2.3c0.6-0.8,1.4-1.4,2.4-1.8c0.4-0.2,0.8,0,0.9,0.3c0.1,0.3,0,0.6-0.5,0.8
				c-1.4,0.6-2.3,1.7-2.7,3.2c-0.1,0.4-0.4,0.6-0.7,0.6C616.8,454.4,616.6,454.1,616.6,453.7z"/>
		</g>
		<g id="light_22_">
			<path class="st74" d="M712.4,424.6c8.4-0.1,15.5,6.9,15.5,15.5c0,8.6-7.1,15.6-15.7,15.5c-8.4-0.1-15.4-7.1-15.4-15.7
				C696.9,431.5,704.1,424.5,712.4,424.6z M712.1,445.2c0.9,0,1.7,0,2.6,0c0.6,0,0.6,0,0.7-0.6c0-0.1,0-0.1,0-0.2
				c0.2-1.2,0.8-2.1,1.5-3c1.2-1.6,2.1-3.2,2.3-5.3c0.1-1.5-0.1-3-1-4.2c-1.7-2.4-4.1-3.5-7-3.2c-2.6,0.3-4.5,1.7-5.6,4.1
				c-0.8,1.9-0.7,3.8,0.1,5.7c0.5,1.2,1.2,2.2,2,3.2c0.7,0.9,1.2,1.9,1.3,3.1c0,0.3,0.1,0.3,0.3,0.3
				C710.1,445.2,711.1,445.2,712.1,445.2z M712.1,447.6c0.8,0,1.6,0,2.4,0c0.9,0,0.9,0,0.9-0.9c0-0.3-0.1-0.3-0.4-0.3
				c-1.8,0-3.5,0-5.3,0c-0.9,0-0.9,0-0.9,0.9c0,0.3,0.1,0.3,0.3,0.3C710.1,447.6,711.1,447.6,712.1,447.6z M712.1,448.7
				c-1,0-2,0-2.9,0c-0.3,0-0.4,0.1-0.3,0.4c0.2,0.5,0.6,0.8,1,0.8c1.4,0,2.8,0,4.3,0c0.5,0,0.9-0.4,1.1-0.9c0.1-0.2,0-0.3-0.2-0.3
				C714.1,448.7,713.1,448.7,712.1,448.7z M712.1,450.5c-0.3,0-0.6,0-0.9,0c-0.3,0-0.3,0.1-0.3,0.3c0.1,0.5,0.6,0.9,1.2,0.9
				c0.5,0,1-0.4,1.1-0.9c0.1-0.2,0-0.3-0.2-0.3C712.7,450.5,712.4,450.5,712.1,450.5z"/>
			<path d="M712.1,445.2c-1,0-1.9,0-2.9,0c-0.2,0-0.3,0-0.3-0.3c-0.1-1.2-0.6-2.2-1.3-3.1c-0.7-1-1.5-2-2-3.2
				c-0.7-1.9-0.9-3.8-0.1-5.7c1.1-2.4,3-3.8,5.6-4.1c2.9-0.4,5.3,0.7,7,3.2c0.9,1.3,1.1,2.7,1,4.2c-0.1,2-1.1,3.7-2.3,5.3
				c-0.7,0.9-1.3,1.9-1.5,3c0,0.1,0,0.1,0,0.2c-0.1,0.6-0.1,0.6-0.7,0.6C713.8,445.2,713,445.2,712.1,445.2z M706.6,434.7
				c0,0.4,0.2,0.7,0.5,0.8c0.3,0,0.6-0.2,0.7-0.6c0.3-1.5,1.2-2.6,2.7-3.2c0.4-0.2,0.6-0.5,0.5-0.8c-0.2-0.4-0.5-0.5-0.9-0.3
				c-0.9,0.4-1.7,1-2.4,1.8C707.1,433.1,706.7,433.9,706.6,434.7z"/>
			<path d="M712.1,447.6c-1,0-1.9,0-2.9,0c-0.2,0-0.3,0-0.3-0.3c0-0.9,0-0.9,0.9-0.9c1.8,0,3.5,0,5.3,0c0.3,0,0.4,0,0.4,0.3
				c0,0.9,0,0.9-0.9,0.9C713.7,447.6,712.9,447.6,712.1,447.6z"/>
			<path d="M712.1,448.7c1,0,2,0,2.9,0c0.3,0,0.3,0.1,0.2,0.3c-0.1,0.5-0.6,0.9-1.1,0.9c-1.4,0-2.8,0-4.3,0c-0.5,0-0.9-0.3-1-0.8
				c-0.1-0.3-0.1-0.4,0.3-0.4C710.2,448.7,711.1,448.7,712.1,448.7z"/>
			<path d="M712.1,450.5c0.3,0,0.6,0,0.9,0c0.2,0,0.3,0,0.2,0.3c-0.1,0.5-0.5,0.9-1.1,0.9c-0.6,0-1.1-0.3-1.2-0.9
				c-0.1-0.2,0-0.3,0.3-0.3C711.5,450.5,711.8,450.5,712.1,450.5z"/>
			<path class="st74" d="M706.6,434.7c0.1-0.8,0.5-1.6,1-2.3c0.6-0.8,1.4-1.4,2.4-1.8c0.4-0.2,0.8,0,0.9,0.3c0.1,0.3,0,0.6-0.5,0.8
				c-1.4,0.6-2.3,1.7-2.7,3.2c-0.1,0.4-0.4,0.6-0.7,0.6C706.8,435.4,706.6,435.1,706.6,434.7z"/>
		</g>
		<g id="light_21_">
			<path class="st74" d="M790.4,372.6c8.4-0.1,15.5,6.9,15.5,15.5c0,8.6-7.1,15.6-15.7,15.5c-8.4-0.1-15.4-7.1-15.4-15.7
				C774.9,379.5,782.1,372.5,790.4,372.6z M790.1,393.2c0.9,0,1.7,0,2.6,0c0.6,0,0.6,0,0.7-0.6c0-0.1,0-0.1,0-0.2
				c0.2-1.2,0.8-2.1,1.5-3c1.2-1.6,2.1-3.2,2.3-5.3c0.1-1.5-0.1-3-1-4.2c-1.7-2.4-4.1-3.5-7-3.2c-2.6,0.3-4.5,1.7-5.6,4.1
				c-0.8,1.9-0.7,3.8,0.1,5.7c0.5,1.2,1.2,2.2,2,3.2c0.7,0.9,1.2,1.9,1.3,3.1c0,0.3,0.1,0.3,0.3,0.3
				C788.1,393.2,789.1,393.2,790.1,393.2z M790.1,395.6c0.8,0,1.6,0,2.4,0c0.9,0,0.9,0,0.9-0.9c0-0.3-0.1-0.3-0.4-0.3
				c-1.8,0-3.5,0-5.3,0c-0.9,0-0.9,0-0.9,0.9c0,0.3,0.1,0.3,0.3,0.3C788.1,395.6,789.1,395.6,790.1,395.6z M790.1,396.7
				c-1,0-2,0-2.9,0c-0.3,0-0.4,0.1-0.3,0.4c0.2,0.5,0.6,0.8,1,0.8c1.4,0,2.8,0,4.3,0c0.5,0,0.9-0.4,1.1-0.9c0.1-0.2,0-0.3-0.2-0.3
				C792.1,396.7,791.1,396.7,790.1,396.7z M790.1,398.5c-0.3,0-0.6,0-0.9,0c-0.3,0-0.3,0.1-0.3,0.3c0.1,0.5,0.6,0.9,1.2,0.9
				c0.5,0,1-0.4,1.1-0.9c0.1-0.2,0-0.3-0.2-0.3C790.7,398.5,790.4,398.5,790.1,398.5z"/>
			<path d="M790.1,393.2c-1,0-1.9,0-2.9,0c-0.2,0-0.3,0-0.3-0.3c-0.1-1.2-0.6-2.2-1.3-3.1c-0.7-1-1.5-2-2-3.2
				c-0.7-1.9-0.9-3.8-0.1-5.7c1.1-2.4,3-3.8,5.6-4.1c2.9-0.4,5.3,0.7,7,3.2c0.9,1.3,1.1,2.7,1,4.2c-0.1,2-1.1,3.7-2.3,5.3
				c-0.7,0.9-1.3,1.9-1.5,3c0,0.1,0,0.1,0,0.2c-0.1,0.6-0.1,0.6-0.7,0.6C791.8,393.2,791,393.2,790.1,393.2z M784.6,382.7
				c0,0.4,0.2,0.7,0.5,0.8c0.3,0,0.6-0.2,0.7-0.6c0.3-1.5,1.2-2.6,2.7-3.2c0.4-0.2,0.6-0.5,0.5-0.8c-0.2-0.4-0.5-0.5-0.9-0.3
				c-0.9,0.4-1.7,1-2.4,1.8C785.1,381.1,784.7,381.9,784.6,382.7z"/>
			<path d="M790.1,395.6c-1,0-1.9,0-2.9,0c-0.2,0-0.3,0-0.3-0.3c0-0.9,0-0.9,0.9-0.9c1.8,0,3.5,0,5.3,0c0.3,0,0.4,0,0.4,0.3
				c0,0.9,0,0.9-0.9,0.9C791.7,395.6,790.9,395.6,790.1,395.6z"/>
			<path d="M790.1,396.7c1,0,2,0,2.9,0c0.3,0,0.3,0.1,0.2,0.3c-0.1,0.5-0.6,0.9-1.1,0.9c-1.4,0-2.8,0-4.3,0c-0.5,0-0.9-0.3-1-0.8
				c-0.1-0.3-0.1-0.4,0.3-0.4C788.2,396.7,789.1,396.7,790.1,396.7z"/>
			<path d="M790.1,398.5c0.3,0,0.6,0,0.9,0c0.2,0,0.3,0,0.2,0.3c-0.1,0.5-0.5,0.9-1.1,0.9c-0.6,0-1.1-0.3-1.2-0.9
				c-0.1-0.2,0-0.3,0.3-0.3C789.5,398.5,789.8,398.5,790.1,398.5z"/>
			<path class="st74" d="M784.6,382.7c0.1-0.8,0.5-1.6,1-2.3c0.6-0.8,1.4-1.4,2.4-1.8c0.4-0.2,0.8,0,0.9,0.3c0.1,0.3,0,0.6-0.5,0.8
				c-1.4,0.6-2.3,1.7-2.7,3.2c-0.1,0.4-0.4,0.6-0.7,0.6C784.8,383.4,784.6,383.1,784.6,382.7z"/>
		</g>
		<g id="light_19_">
			<path class="st74" d="M848.4,307.6c8.4-0.1,15.5,6.9,15.5,15.5c0,8.6-7.1,15.6-15.7,15.5c-8.4-0.1-15.4-7.1-15.4-15.7
				C832.9,314.5,840.1,307.5,848.4,307.6z M848.1,328.2c0.9,0,1.7,0,2.6,0c0.6,0,0.6,0,0.7-0.6c0-0.1,0-0.1,0-0.2
				c0.2-1.2,0.8-2.1,1.5-3c1.2-1.6,2.1-3.2,2.3-5.3c0.1-1.5-0.1-3-1-4.2c-1.7-2.4-4.1-3.5-7-3.2c-2.6,0.3-4.5,1.7-5.6,4.1
				c-0.8,1.9-0.7,3.8,0.1,5.7c0.5,1.2,1.2,2.2,2,3.2c0.7,0.9,1.2,1.9,1.3,3.1c0,0.3,0.1,0.3,0.3,0.3
				C846.1,328.2,847.1,328.2,848.1,328.2z M848.1,330.6c0.8,0,1.6,0,2.4,0c0.9,0,0.9,0,0.9-0.9c0-0.3-0.1-0.3-0.4-0.3
				c-1.8,0-3.5,0-5.3,0c-0.9,0-0.9,0-0.9,0.9c0,0.3,0.1,0.3,0.3,0.3C846.1,330.6,847.1,330.6,848.1,330.6z M848.1,331.7
				c-1,0-2,0-2.9,0c-0.3,0-0.4,0.1-0.3,0.4c0.2,0.5,0.6,0.8,1,0.8c1.4,0,2.8,0,4.3,0c0.5,0,0.9-0.4,1.1-0.9c0.1-0.2,0-0.3-0.2-0.3
				C850.1,331.7,849.1,331.7,848.1,331.7z M848.1,333.5c-0.3,0-0.6,0-0.9,0c-0.3,0-0.3,0.1-0.3,0.3c0.1,0.5,0.6,0.9,1.2,0.9
				c0.5,0,1-0.4,1.1-0.9c0.1-0.2,0-0.3-0.2-0.3C848.7,333.5,848.4,333.5,848.1,333.5z"/>
			<path d="M848.1,328.2c-1,0-1.9,0-2.9,0c-0.2,0-0.3,0-0.3-0.3c-0.1-1.2-0.6-2.2-1.3-3.1c-0.7-1-1.5-2-2-3.2
				c-0.7-1.9-0.9-3.8-0.1-5.7c1.1-2.4,3-3.8,5.6-4.1c2.9-0.4,5.3,0.7,7,3.2c0.9,1.3,1.1,2.7,1,4.2c-0.1,2-1.1,3.7-2.3,5.3
				c-0.7,0.9-1.3,1.9-1.5,3c0,0.1,0,0.1,0,0.2c-0.1,0.6-0.1,0.6-0.7,0.6C849.8,328.2,849,328.2,848.1,328.2z M842.6,317.7
				c0,0.4,0.2,0.7,0.5,0.8c0.3,0,0.6-0.2,0.7-0.6c0.3-1.5,1.2-2.6,2.7-3.2c0.4-0.2,0.6-0.5,0.5-0.8c-0.2-0.4-0.5-0.5-0.9-0.3
				c-0.9,0.4-1.7,1-2.4,1.8C843.1,316.1,842.7,316.9,842.6,317.7z"/>
			<path d="M848.1,330.6c-1,0-1.9,0-2.9,0c-0.2,0-0.3,0-0.3-0.3c0-0.9,0-0.9,0.9-0.9c1.8,0,3.5,0,5.3,0c0.3,0,0.4,0,0.4,0.3
				c0,0.9,0,0.9-0.9,0.9C849.7,330.6,848.9,330.6,848.1,330.6z"/>
			<path d="M848.1,331.7c1,0,2,0,2.9,0c0.3,0,0.3,0.1,0.2,0.3c-0.1,0.5-0.6,0.9-1.1,0.9c-1.4,0-2.8,0-4.3,0c-0.5,0-0.9-0.3-1-0.8
				c-0.1-0.3-0.1-0.4,0.3-0.4C846.2,331.7,847.1,331.7,848.1,331.7z"/>
			<path d="M848.1,333.5c0.3,0,0.6,0,0.9,0c0.2,0,0.3,0,0.2,0.3c-0.1,0.5-0.5,0.9-1.1,0.9c-0.6,0-1.1-0.3-1.2-0.9
				c-0.1-0.2,0-0.3,0.3-0.3C847.5,333.5,847.8,333.5,848.1,333.5z"/>
			<path class="st74" d="M842.6,317.7c0.1-0.8,0.5-1.6,1-2.3c0.6-0.8,1.4-1.4,2.4-1.8c0.4-0.2,0.8,0,0.9,0.3c0.1,0.3,0,0.6-0.5,0.8
				c-1.4,0.6-2.3,1.7-2.7,3.2c-0.1,0.4-0.4,0.6-0.7,0.6C842.8,318.4,842.6,318.1,842.6,317.7z"/>
		</g>
		<g id="light_17_">
			<path class="st74" d="M900.4,216.6c8.4-0.1,15.5,6.9,15.5,15.5c0,8.6-7.1,15.6-15.7,15.5c-8.4-0.1-15.4-7.1-15.4-15.7
				C884.9,223.5,892.1,216.5,900.4,216.6z M900.1,237.2c0.9,0,1.7,0,2.6,0c0.6,0,0.6,0,0.7-0.6c0-0.1,0-0.1,0-0.2
				c0.2-1.2,0.8-2.1,1.5-3c1.2-1.6,2.1-3.2,2.3-5.3c0.1-1.5-0.1-3-1-4.2c-1.7-2.4-4.1-3.5-7-3.2c-2.6,0.3-4.5,1.7-5.6,4.1
				c-0.8,1.9-0.7,3.8,0.1,5.7c0.5,1.2,1.2,2.2,2,3.2c0.7,0.9,1.2,1.9,1.3,3.1c0,0.3,0.1,0.3,0.3,0.3
				C898.1,237.2,899.1,237.2,900.1,237.2z M900.1,239.6c0.8,0,1.6,0,2.4,0c0.9,0,0.9,0,0.9-0.9c0-0.3-0.1-0.3-0.4-0.3
				c-1.8,0-3.5,0-5.3,0c-0.9,0-0.9,0-0.9,0.9c0,0.3,0.1,0.3,0.3,0.3C898.1,239.6,899.1,239.6,900.1,239.6z M900.1,240.7
				c-1,0-2,0-2.9,0c-0.3,0-0.4,0.1-0.3,0.4c0.2,0.5,0.6,0.8,1,0.8c1.4,0,2.8,0,4.3,0c0.5,0,0.9-0.4,1.1-0.9c0.1-0.2,0-0.3-0.2-0.3
				C902.1,240.7,901.1,240.7,900.1,240.7z M900.1,242.5c-0.3,0-0.6,0-0.9,0c-0.3,0-0.3,0.1-0.3,0.3c0.1,0.5,0.6,0.9,1.2,0.9
				c0.5,0,1-0.4,1.1-0.9c0.1-0.2,0-0.3-0.2-0.3C900.7,242.5,900.4,242.5,900.1,242.5z"/>
			<path d="M900.1,237.2c-1,0-1.9,0-2.9,0c-0.2,0-0.3,0-0.3-0.3c-0.1-1.2-0.6-2.2-1.3-3.1c-0.7-1-1.5-2-2-3.2
				c-0.7-1.9-0.9-3.8-0.1-5.7c1.1-2.4,3-3.8,5.6-4.1c2.9-0.4,5.3,0.7,7,3.2c0.9,1.3,1.1,2.7,1,4.2c-0.1,2-1.1,3.7-2.3,5.3
				c-0.7,0.9-1.3,1.9-1.5,3c0,0.1,0,0.1,0,0.2c-0.1,0.6-0.1,0.6-0.7,0.6C901.8,237.2,901,237.2,900.1,237.2z M894.6,226.7
				c0,0.4,0.2,0.7,0.5,0.8c0.3,0,0.6-0.2,0.7-0.6c0.3-1.5,1.2-2.6,2.7-3.2c0.4-0.2,0.6-0.5,0.5-0.8c-0.2-0.4-0.5-0.5-0.9-0.3
				c-0.9,0.4-1.7,1-2.4,1.8C895.1,225.1,894.7,225.9,894.6,226.7z"/>
			<path d="M900.1,239.6c-1,0-1.9,0-2.9,0c-0.2,0-0.3,0-0.3-0.3c0-0.9,0-0.9,0.9-0.9c1.8,0,3.5,0,5.3,0c0.3,0,0.4,0,0.4,0.3
				c0,0.9,0,0.9-0.9,0.9C901.7,239.6,900.9,239.6,900.1,239.6z"/>
			<path d="M900.1,240.7c1,0,2,0,2.9,0c0.3,0,0.3,0.1,0.2,0.3c-0.1,0.5-0.6,0.9-1.1,0.9c-1.4,0-2.8,0-4.3,0c-0.5,0-0.9-0.3-1-0.8
				c-0.1-0.3-0.1-0.4,0.3-0.4C898.2,240.7,899.1,240.7,900.1,240.7z"/>
			<path d="M900.1,242.5c0.3,0,0.6,0,0.9,0c0.2,0,0.3,0,0.2,0.3c-0.1,0.5-0.5,0.9-1.1,0.9c-0.6,0-1.1-0.3-1.2-0.9
				c-0.1-0.2,0-0.3,0.3-0.3C899.5,242.5,899.8,242.5,900.1,242.5z"/>
			<path class="st74" d="M894.6,226.7c0.1-0.8,0.5-1.6,1-2.3c0.6-0.8,1.4-1.4,2.4-1.8c0.4-0.2,0.8,0,0.9,0.3c0.1,0.3,0,0.6-0.5,0.8
				c-1.4,0.6-2.3,1.7-2.7,3.2c-0.1,0.4-0.4,0.6-0.7,0.6C894.8,227.4,894.6,227.1,894.6,226.7z"/>
		</g>
		<g id="light_18_">
			<path class="st74" d="M954.4,304.6c8.4-0.1,15.5,6.9,15.5,15.5c0,8.6-7.1,15.6-15.7,15.5c-8.4-0.1-15.4-7.1-15.4-15.7
				C938.9,311.5,946.1,304.5,954.4,304.6z M954.1,325.2c0.9,0,1.7,0,2.6,0c0.6,0,0.6,0,0.7-0.6c0-0.1,0-0.1,0-0.2
				c0.2-1.2,0.8-2.1,1.5-3c1.2-1.6,2.1-3.2,2.3-5.3c0.1-1.5-0.1-3-1-4.2c-1.7-2.4-4.1-3.5-7-3.2c-2.6,0.3-4.5,1.7-5.6,4.1
				c-0.8,1.9-0.7,3.8,0.1,5.7c0.5,1.2,1.2,2.2,2,3.2c0.7,0.9,1.2,1.9,1.3,3.1c0,0.3,0.1,0.3,0.3,0.3
				C952.1,325.2,953.1,325.2,954.1,325.2z M954.1,327.6c0.8,0,1.6,0,2.4,0c0.9,0,0.9,0,0.9-0.9c0-0.3-0.1-0.3-0.4-0.3
				c-1.8,0-3.5,0-5.3,0c-0.9,0-0.9,0-0.9,0.9c0,0.3,0.1,0.3,0.3,0.3C952.1,327.6,953.1,327.6,954.1,327.6z M954.1,328.7
				c-1,0-2,0-2.9,0c-0.3,0-0.4,0.1-0.3,0.4c0.2,0.5,0.6,0.8,1,0.8c1.4,0,2.8,0,4.3,0c0.5,0,0.9-0.4,1.1-0.9c0.1-0.2,0-0.3-0.2-0.3
				C956.1,328.7,955.1,328.7,954.1,328.7z M954.1,330.5c-0.3,0-0.6,0-0.9,0c-0.3,0-0.3,0.1-0.3,0.3c0.1,0.5,0.6,0.9,1.2,0.9
				c0.5,0,1-0.4,1.1-0.9c0.1-0.2,0-0.3-0.2-0.3C954.7,330.5,954.4,330.5,954.1,330.5z"/>
			<path d="M954.1,325.2c-1,0-1.9,0-2.9,0c-0.2,0-0.3,0-0.3-0.3c-0.1-1.2-0.6-2.2-1.3-3.1c-0.7-1-1.5-2-2-3.2
				c-0.7-1.9-0.9-3.8-0.1-5.7c1.1-2.4,3-3.8,5.6-4.1c2.9-0.4,5.3,0.7,7,3.2c0.9,1.3,1.1,2.7,1,4.2c-0.1,2-1.1,3.7-2.3,5.3
				c-0.7,0.9-1.3,1.9-1.5,3c0,0.1,0,0.1,0,0.2c-0.1,0.6-0.1,0.6-0.7,0.6C955.8,325.2,955,325.2,954.1,325.2z M948.6,314.7
				c0,0.4,0.2,0.7,0.5,0.8c0.3,0,0.6-0.2,0.7-0.6c0.3-1.5,1.2-2.6,2.7-3.2c0.4-0.2,0.6-0.5,0.5-0.8c-0.2-0.4-0.5-0.5-0.9-0.3
				c-0.9,0.4-1.7,1-2.4,1.8C949.1,313.1,948.7,313.9,948.6,314.7z"/>
			<path d="M954.1,327.6c-1,0-1.9,0-2.9,0c-0.2,0-0.3,0-0.3-0.3c0-0.9,0-0.9,0.9-0.9c1.8,0,3.5,0,5.3,0c0.3,0,0.4,0,0.4,0.3
				c0,0.9,0,0.9-0.9,0.9C955.7,327.6,954.9,327.6,954.1,327.6z"/>
			<path d="M954.1,328.7c1,0,2,0,2.9,0c0.3,0,0.3,0.1,0.2,0.3c-0.1,0.5-0.6,0.9-1.1,0.9c-1.4,0-2.8,0-4.3,0c-0.5,0-0.9-0.3-1-0.8
				c-0.1-0.3-0.1-0.4,0.3-0.4C952.2,328.7,953.1,328.7,954.1,328.7z"/>
			<path d="M954.1,330.5c0.3,0,0.6,0,0.9,0c0.2,0,0.3,0,0.2,0.3c-0.1,0.5-0.5,0.9-1.1,0.9c-0.6,0-1.1-0.3-1.2-0.9
				c-0.1-0.2,0-0.3,0.3-0.3C953.5,330.5,953.8,330.5,954.1,330.5z"/>
			<path class="st74" d="M948.6,314.7c0.1-0.8,0.5-1.6,1-2.3c0.6-0.8,1.4-1.4,2.4-1.8c0.4-0.2,0.8,0,0.9,0.3c0.1,0.3,0,0.6-0.5,0.8
				c-1.4,0.6-2.3,1.7-2.7,3.2c-0.1,0.4-0.4,0.6-0.7,0.6C948.8,315.4,948.6,315.1,948.6,314.7z"/>
		</g>
		<g id="light_11_">
			<path class="st74" d="M1012.4,375.6c8.4-0.1,15.5,6.9,15.5,15.5c0,8.6-7.1,15.6-15.7,15.5c-8.4-0.1-15.4-7.1-15.4-15.7
				C996.9,382.5,1004.1,375.5,1012.4,375.6z M1012.1,396.2c0.9,0,1.7,0,2.6,0c0.6,0,0.6,0,0.7-0.6c0-0.1,0-0.1,0-0.2
				c0.2-1.2,0.8-2.1,1.5-3c1.2-1.6,2.1-3.2,2.3-5.3c0.1-1.5-0.1-3-1-4.2c-1.7-2.4-4.1-3.5-7-3.2c-2.6,0.3-4.5,1.7-5.6,4.1
				c-0.8,1.9-0.7,3.8,0.1,5.7c0.5,1.2,1.2,2.2,2,3.2c0.7,0.9,1.2,1.9,1.3,3.1c0,0.3,0.1,0.3,0.3,0.3
				C1010.1,396.2,1011.1,396.2,1012.1,396.2z M1012.1,398.6c0.8,0,1.6,0,2.4,0c0.9,0,0.9,0,0.9-0.9c0-0.3-0.1-0.3-0.4-0.3
				c-1.8,0-3.5,0-5.3,0c-0.9,0-0.9,0-0.9,0.9c0,0.3,0.1,0.3,0.3,0.3C1010.1,398.6,1011.1,398.6,1012.1,398.6z M1012.1,399.7
				c-1,0-2,0-2.9,0c-0.3,0-0.4,0.1-0.3,0.4c0.2,0.5,0.6,0.8,1,0.8c1.4,0,2.8,0,4.3,0c0.5,0,0.9-0.4,1.1-0.9c0.1-0.2,0-0.3-0.2-0.3
				C1014.1,399.7,1013.1,399.7,1012.1,399.7z M1012.1,401.5c-0.3,0-0.6,0-0.9,0c-0.3,0-0.3,0.1-0.3,0.3c0.1,0.5,0.6,0.9,1.2,0.9
				c0.5,0,1-0.4,1.1-0.9c0.1-0.2,0-0.3-0.2-0.3C1012.7,401.5,1012.4,401.5,1012.1,401.5z"/>
			<path d="M1012.1,396.2c-1,0-1.9,0-2.9,0c-0.2,0-0.3,0-0.3-0.3c-0.1-1.2-0.6-2.2-1.3-3.1c-0.7-1-1.5-2-2-3.2
				c-0.7-1.9-0.9-3.8-0.1-5.7c1.1-2.4,3-3.8,5.6-4.1c2.9-0.4,5.3,0.7,7,3.2c0.9,1.3,1.1,2.7,1,4.2c-0.1,2-1.1,3.7-2.3,5.3
				c-0.7,0.9-1.3,1.9-1.5,3c0,0.1,0,0.1,0,0.2c-0.1,0.6-0.1,0.6-0.7,0.6C1013.8,396.2,1013,396.2,1012.1,396.2z M1006.6,385.7
				c0,0.4,0.2,0.7,0.5,0.8c0.3,0,0.6-0.2,0.7-0.6c0.3-1.5,1.2-2.6,2.7-3.2c0.4-0.2,0.6-0.5,0.5-0.8c-0.2-0.4-0.5-0.5-0.9-0.3
				c-0.9,0.4-1.7,1-2.4,1.8C1007.1,384.1,1006.7,384.9,1006.6,385.7z"/>
			<path d="M1012.1,398.6c-1,0-1.9,0-2.9,0c-0.2,0-0.3,0-0.3-0.3c0-0.9,0-0.9,0.9-0.9c1.8,0,3.5,0,5.3,0c0.3,0,0.4,0,0.4,0.3
				c0,0.9,0,0.9-0.9,0.9C1013.7,398.6,1012.9,398.6,1012.1,398.6z"/>
			<path d="M1012.1,399.7c1,0,2,0,2.9,0c0.3,0,0.3,0.1,0.2,0.3c-0.1,0.5-0.6,0.9-1.1,0.9c-1.4,0-2.8,0-4.3,0c-0.5,0-0.9-0.3-1-0.8
				c-0.1-0.3-0.1-0.4,0.3-0.4C1010.2,399.7,1011.1,399.7,1012.1,399.7z"/>
			<path d="M1012.1,401.5c0.3,0,0.6,0,0.9,0c0.2,0,0.3,0,0.2,0.3c-0.1,0.5-0.5,0.9-1.1,0.9c-0.6,0-1.1-0.3-1.2-0.9
				c-0.1-0.2,0-0.3,0.3-0.3C1011.5,401.5,1011.8,401.5,1012.1,401.5z"/>
			<path class="st74" d="M1006.6,385.7c0.1-0.8,0.5-1.6,1-2.3c0.6-0.8,1.4-1.4,2.4-1.8c0.4-0.2,0.8,0,0.9,0.3c0.1,0.3,0,0.6-0.5,0.8
				c-1.4,0.6-2.3,1.7-2.7,3.2c-0.1,0.4-0.4,0.6-0.7,0.6C1006.8,386.4,1006.6,386.1,1006.6,385.7z"/>
		</g>
		<g id="light_10_">
			<path class="st74" d="M1089.4,427.6c8.4-0.1,15.5,6.9,15.5,15.5c0,8.6-7.1,15.6-15.7,15.5c-8.4-0.1-15.4-7.1-15.4-15.7
				C1073.9,434.5,1081.1,427.5,1089.4,427.6z M1089.1,448.2c0.9,0,1.7,0,2.6,0c0.6,0,0.6,0,0.7-0.6c0-0.1,0-0.1,0-0.2
				c0.2-1.2,0.8-2.1,1.5-3c1.2-1.6,2.1-3.2,2.3-5.3c0.1-1.5-0.1-3-1-4.2c-1.7-2.4-4.1-3.5-7-3.2c-2.6,0.3-4.5,1.7-5.6,4.1
				c-0.8,1.9-0.7,3.8,0.1,5.7c0.5,1.2,1.2,2.2,2,3.2c0.7,0.9,1.2,1.9,1.3,3.1c0,0.3,0.1,0.3,0.3,0.3
				C1087.1,448.2,1088.1,448.2,1089.1,448.2z M1089.1,450.6c0.8,0,1.6,0,2.4,0c0.9,0,0.9,0,0.9-0.9c0-0.3-0.1-0.3-0.4-0.3
				c-1.8,0-3.5,0-5.3,0c-0.9,0-0.9,0-0.9,0.9c0,0.3,0.1,0.3,0.3,0.3C1087.1,450.6,1088.1,450.6,1089.1,450.6z M1089.1,451.7
				c-1,0-2,0-2.9,0c-0.3,0-0.4,0.1-0.3,0.4c0.2,0.5,0.6,0.8,1,0.8c1.4,0,2.8,0,4.3,0c0.5,0,0.9-0.4,1.1-0.9c0.1-0.2,0-0.3-0.2-0.3
				C1091.1,451.7,1090.1,451.7,1089.1,451.7z M1089.1,453.5c-0.3,0-0.6,0-0.9,0c-0.3,0-0.3,0.1-0.3,0.3c0.1,0.5,0.6,0.9,1.2,0.9
				c0.5,0,1-0.4,1.1-0.9c0.1-0.2,0-0.3-0.2-0.3C1089.7,453.5,1089.4,453.5,1089.1,453.5z"/>
			<path d="M1089.1,448.2c-1,0-1.9,0-2.9,0c-0.2,0-0.3,0-0.3-0.3c-0.1-1.2-0.6-2.2-1.3-3.1c-0.7-1-1.5-2-2-3.2
				c-0.7-1.9-0.9-3.8-0.1-5.7c1.1-2.4,3-3.8,5.6-4.1c2.9-0.4,5.3,0.7,7,3.2c0.9,1.3,1.1,2.7,1,4.2c-0.1,2-1.1,3.7-2.3,5.3
				c-0.7,0.9-1.3,1.9-1.5,3c0,0.1,0,0.1,0,0.2c-0.1,0.6-0.1,0.6-0.7,0.6C1090.8,448.2,1090,448.2,1089.1,448.2z M1083.6,437.7
				c0,0.4,0.2,0.7,0.5,0.8c0.3,0,0.6-0.2,0.7-0.6c0.3-1.5,1.2-2.6,2.7-3.2c0.4-0.2,0.6-0.5,0.5-0.8c-0.2-0.4-0.5-0.5-0.9-0.3
				c-0.9,0.4-1.7,1-2.4,1.8C1084.1,436.1,1083.7,436.9,1083.6,437.7z"/>
			<path d="M1089.1,450.6c-1,0-1.9,0-2.9,0c-0.2,0-0.3,0-0.3-0.3c0-0.9,0-0.9,0.9-0.9c1.8,0,3.5,0,5.3,0c0.3,0,0.4,0,0.4,0.3
				c0,0.9,0,0.9-0.9,0.9C1090.7,450.6,1089.9,450.6,1089.1,450.6z"/>
			<path d="M1089.1,451.7c1,0,2,0,2.9,0c0.3,0,0.3,0.1,0.2,0.3c-0.1,0.5-0.6,0.9-1.1,0.9c-1.4,0-2.8,0-4.3,0c-0.5,0-0.9-0.3-1-0.8
				c-0.1-0.3-0.1-0.4,0.3-0.4C1087.2,451.7,1088.1,451.7,1089.1,451.7z"/>
			<path d="M1089.1,453.5c0.3,0,0.6,0,0.9,0c0.2,0,0.3,0,0.2,0.3c-0.1,0.5-0.5,0.9-1.1,0.9c-0.6,0-1.1-0.3-1.2-0.9
				c-0.1-0.2,0-0.3,0.3-0.3C1088.5,453.5,1088.8,453.5,1089.1,453.5z"/>
			<path class="st74" d="M1083.6,437.7c0.1-0.8,0.5-1.6,1-2.3c0.6-0.8,1.4-1.4,2.4-1.8c0.4-0.2,0.8,0,0.9,0.3c0.1,0.3,0,0.6-0.5,0.8
				c-1.4,0.6-2.3,1.7-2.7,3.2c-0.1,0.4-0.4,0.6-0.7,0.6C1083.8,438.4,1083.6,438.1,1083.6,437.7z"/>
		</g>
		<g id="light_9_">
			<path class="st74" d="M1180.4,443.6c8.4-0.1,15.5,6.9,15.5,15.5c0,8.6-7.1,15.6-15.7,15.5c-8.4-0.1-15.4-7.1-15.4-15.7
				C1164.9,450.5,1172.1,443.5,1180.4,443.6z M1180.1,464.2c0.9,0,1.7,0,2.6,0c0.6,0,0.6,0,0.7-0.6c0-0.1,0-0.1,0-0.2
				c0.2-1.2,0.8-2.1,1.5-3c1.2-1.6,2.1-3.2,2.3-5.3c0.1-1.5-0.1-3-1-4.2c-1.7-2.4-4.1-3.5-7-3.2c-2.6,0.3-4.5,1.7-5.6,4.1
				c-0.8,1.9-0.7,3.8,0.1,5.7c0.5,1.2,1.2,2.2,2,3.2c0.7,0.9,1.2,1.9,1.3,3.1c0,0.3,0.1,0.3,0.3,0.3
				C1178.1,464.2,1179.1,464.2,1180.1,464.2z M1180.1,466.6c0.8,0,1.6,0,2.4,0c0.9,0,0.9,0,0.9-0.9c0-0.3-0.1-0.3-0.4-0.3
				c-1.8,0-3.5,0-5.3,0c-0.9,0-0.9,0-0.9,0.9c0,0.3,0.1,0.3,0.3,0.3C1178.1,466.6,1179.1,466.6,1180.1,466.6z M1180.1,467.7
				c-1,0-2,0-2.9,0c-0.3,0-0.4,0.1-0.3,0.4c0.2,0.5,0.6,0.8,1,0.8c1.4,0,2.8,0,4.3,0c0.5,0,0.9-0.4,1.1-0.9c0.1-0.2,0-0.3-0.2-0.3
				C1182.1,467.7,1181.1,467.7,1180.1,467.7z M1180.1,469.5c-0.3,0-0.6,0-0.9,0c-0.3,0-0.3,0.1-0.3,0.3c0.1,0.5,0.6,0.9,1.2,0.9
				c0.5,0,1-0.4,1.1-0.9c0.1-0.2,0-0.3-0.2-0.3C1180.7,469.5,1180.4,469.5,1180.1,469.5z"/>
			<path d="M1180.1,464.2c-1,0-1.9,0-2.9,0c-0.2,0-0.3,0-0.3-0.3c-0.1-1.2-0.6-2.2-1.3-3.1c-0.7-1-1.5-2-2-3.2
				c-0.7-1.9-0.9-3.8-0.1-5.7c1.1-2.4,3-3.8,5.6-4.1c2.9-0.4,5.3,0.7,7,3.2c0.9,1.3,1.1,2.7,1,4.2c-0.1,2-1.1,3.7-2.3,5.3
				c-0.7,0.9-1.3,1.9-1.5,3c0,0.1,0,0.1,0,0.2c-0.1,0.6-0.1,0.6-0.7,0.6C1181.8,464.2,1181,464.2,1180.1,464.2z M1174.6,453.7
				c0,0.4,0.2,0.7,0.5,0.8c0.3,0,0.6-0.2,0.7-0.6c0.3-1.5,1.2-2.6,2.7-3.2c0.4-0.2,0.6-0.5,0.5-0.8c-0.2-0.4-0.5-0.5-0.9-0.3
				c-0.9,0.4-1.7,1-2.4,1.8C1175.1,452.1,1174.7,452.9,1174.6,453.7z"/>
			<path d="M1180.1,466.6c-1,0-1.9,0-2.9,0c-0.2,0-0.3,0-0.3-0.3c0-0.9,0-0.9,0.9-0.9c1.8,0,3.5,0,5.3,0c0.3,0,0.4,0,0.4,0.3
				c0,0.9,0,0.9-0.9,0.9C1181.7,466.6,1180.9,466.6,1180.1,466.6z"/>
			<path d="M1180.1,467.7c1,0,2,0,2.9,0c0.3,0,0.3,0.1,0.2,0.3c-0.1,0.5-0.6,0.9-1.1,0.9c-1.4,0-2.8,0-4.3,0c-0.5,0-0.9-0.3-1-0.8
				c-0.1-0.3-0.1-0.4,0.3-0.4C1178.2,467.7,1179.1,467.7,1180.1,467.7z"/>
			<path d="M1180.1,469.5c0.3,0,0.6,0,0.9,0c0.2,0,0.3,0,0.2,0.3c-0.1,0.5-0.5,0.9-1.1,0.9c-0.6,0-1.1-0.3-1.2-0.9
				c-0.1-0.2,0-0.3,0.3-0.3C1179.5,469.5,1179.8,469.5,1180.1,469.5z"/>
			<path class="st74" d="M1174.6,453.7c0.1-0.8,0.5-1.6,1-2.3c0.6-0.8,1.4-1.4,2.4-1.8c0.4-0.2,0.8,0,0.9,0.3c0.1,0.3,0,0.6-0.5,0.8
				c-1.4,0.6-2.3,1.7-2.7,3.2c-0.1,0.4-0.4,0.6-0.7,0.6C1174.8,454.4,1174.6,454.1,1174.6,453.7z"/>
		</g>
		<g id="light_8_">
			<path class="st74" d="M1187.4,530.6c8.4-0.1,15.5,6.9,15.5,15.5c0,8.6-7.1,15.6-15.7,15.5c-8.4-0.1-15.4-7.1-15.4-15.7
				C1171.9,537.5,1179.1,530.5,1187.4,530.6z M1187.1,551.2c0.9,0,1.7,0,2.6,0c0.6,0,0.6,0,0.7-0.6c0-0.1,0-0.1,0-0.2
				c0.2-1.2,0.8-2.1,1.5-3c1.2-1.6,2.1-3.2,2.3-5.3c0.1-1.5-0.1-3-1-4.2c-1.7-2.4-4.1-3.5-7-3.2c-2.6,0.3-4.5,1.7-5.6,4.1
				c-0.8,1.9-0.7,3.8,0.1,5.7c0.5,1.2,1.2,2.2,2,3.2c0.7,0.9,1.2,1.9,1.3,3.1c0,0.3,0.1,0.3,0.3,0.3
				C1185.1,551.2,1186.1,551.2,1187.1,551.2z M1187.1,553.6c0.8,0,1.6,0,2.4,0c0.9,0,0.9,0,0.9-0.9c0-0.3-0.1-0.3-0.4-0.3
				c-1.8,0-3.5,0-5.3,0c-0.9,0-0.9,0-0.9,0.9c0,0.3,0.1,0.3,0.3,0.3C1185.1,553.6,1186.1,553.6,1187.1,553.6z M1187.1,554.7
				c-1,0-2,0-2.9,0c-0.3,0-0.4,0.1-0.3,0.4c0.2,0.5,0.6,0.8,1,0.8c1.4,0,2.8,0,4.3,0c0.5,0,0.9-0.4,1.1-0.9c0.1-0.2,0-0.3-0.2-0.3
				C1189.1,554.7,1188.1,554.7,1187.1,554.7z M1187.1,556.5c-0.3,0-0.6,0-0.9,0c-0.3,0-0.3,0.1-0.3,0.3c0.1,0.5,0.6,0.9,1.2,0.9
				c0.5,0,1-0.4,1.1-0.9c0.1-0.2,0-0.3-0.2-0.3C1187.7,556.5,1187.4,556.5,1187.1,556.5z"/>
			<path d="M1187.1,551.2c-1,0-1.9,0-2.9,0c-0.2,0-0.3,0-0.3-0.3c-0.1-1.2-0.6-2.2-1.3-3.1c-0.7-1-1.5-2-2-3.2
				c-0.7-1.9-0.9-3.8-0.1-5.7c1.1-2.4,3-3.8,5.6-4.1c2.9-0.4,5.3,0.7,7,3.2c0.9,1.3,1.1,2.7,1,4.2c-0.1,2-1.1,3.7-2.3,5.3
				c-0.7,0.9-1.3,1.9-1.5,3c0,0.1,0,0.1,0,0.2c-0.1,0.6-0.1,0.6-0.7,0.6C1188.8,551.2,1188,551.2,1187.1,551.2z M1181.6,540.7
				c0,0.4,0.2,0.7,0.5,0.8c0.3,0,0.6-0.2,0.7-0.6c0.3-1.5,1.2-2.6,2.7-3.2c0.4-0.2,0.6-0.5,0.5-0.8c-0.2-0.4-0.5-0.5-0.9-0.3
				c-0.9,0.4-1.7,1-2.4,1.8C1182.1,539.1,1181.7,539.9,1181.6,540.7z"/>
			<path d="M1187.1,553.6c-1,0-1.9,0-2.9,0c-0.2,0-0.3,0-0.3-0.3c0-0.9,0-0.9,0.9-0.9c1.8,0,3.5,0,5.3,0c0.3,0,0.4,0,0.4,0.3
				c0,0.9,0,0.9-0.9,0.9C1188.7,553.6,1187.9,553.6,1187.1,553.6z"/>
			<path d="M1187.1,554.7c1,0,2,0,2.9,0c0.3,0,0.3,0.1,0.2,0.3c-0.1,0.5-0.6,0.9-1.1,0.9c-1.4,0-2.8,0-4.3,0c-0.5,0-0.9-0.3-1-0.8
				c-0.1-0.3-0.1-0.4,0.3-0.4C1185.2,554.7,1186.1,554.7,1187.1,554.7z"/>
			<path d="M1187.1,556.5c0.3,0,0.6,0,0.9,0c0.2,0,0.3,0,0.2,0.3c-0.1,0.5-0.5,0.9-1.1,0.9c-0.6,0-1.1-0.3-1.2-0.9
				c-0.1-0.2,0-0.3,0.3-0.3C1186.5,556.5,1186.8,556.5,1187.1,556.5z"/>
			<path class="st74" d="M1181.6,540.7c0.1-0.8,0.5-1.6,1-2.3c0.6-0.8,1.4-1.4,2.4-1.8c0.4-0.2,0.8,0,0.9,0.3c0.1,0.3,0,0.6-0.5,0.8
				c-1.4,0.6-2.3,1.7-2.7,3.2c-0.1,0.4-0.4,0.6-0.7,0.6C1181.8,541.4,1181.6,541.1,1181.6,540.7z"/>
		</g>
		<g id="light_7_">
			<path class="st74" d="M1216.4,628.6c8.4-0.1,15.5,6.9,15.5,15.5c0,8.6-7.1,15.6-15.7,15.5c-8.4-0.1-15.4-7.1-15.4-15.7
				C1200.9,635.5,1208.1,628.5,1216.4,628.6z M1216.1,649.2c0.9,0,1.7,0,2.6,0c0.6,0,0.6,0,0.7-0.6c0-0.1,0-0.1,0-0.2
				c0.2-1.2,0.8-2.1,1.5-3c1.2-1.6,2.1-3.2,2.3-5.3c0.1-1.5-0.1-3-1-4.2c-1.7-2.4-4.1-3.5-7-3.2c-2.6,0.3-4.5,1.7-5.6,4.1
				c-0.8,1.9-0.7,3.8,0.1,5.7c0.5,1.2,1.2,2.2,2,3.2c0.7,0.9,1.2,1.9,1.3,3.1c0,0.3,0.1,0.3,0.3,0.3
				C1214.1,649.2,1215.1,649.2,1216.1,649.2z M1216.1,651.6c0.8,0,1.6,0,2.4,0c0.9,0,0.9,0,0.9-0.9c0-0.3-0.1-0.3-0.4-0.3
				c-1.8,0-3.5,0-5.3,0c-0.9,0-0.9,0-0.9,0.9c0,0.3,0.1,0.3,0.3,0.3C1214.1,651.6,1215.1,651.6,1216.1,651.6z M1216.1,652.7
				c-1,0-2,0-2.9,0c-0.3,0-0.4,0.1-0.3,0.4c0.2,0.5,0.6,0.8,1,0.8c1.4,0,2.8,0,4.3,0c0.5,0,0.9-0.4,1.1-0.9c0.1-0.2,0-0.3-0.2-0.3
				C1218.1,652.7,1217.1,652.7,1216.1,652.7z M1216.1,654.5c-0.3,0-0.6,0-0.9,0c-0.3,0-0.3,0.1-0.3,0.3c0.1,0.5,0.6,0.9,1.2,0.9
				c0.5,0,1-0.4,1.1-0.9c0.1-0.2,0-0.3-0.2-0.3C1216.7,654.5,1216.4,654.5,1216.1,654.5z"/>
			<path d="M1216.1,649.2c-1,0-1.9,0-2.9,0c-0.2,0-0.3,0-0.3-0.3c-0.1-1.2-0.6-2.2-1.3-3.1c-0.7-1-1.5-2-2-3.2
				c-0.7-1.9-0.9-3.8-0.1-5.7c1.1-2.4,3-3.8,5.6-4.1c2.9-0.4,5.3,0.7,7,3.2c0.9,1.3,1.1,2.7,1,4.2c-0.1,2-1.1,3.7-2.3,5.3
				c-0.7,0.9-1.3,1.9-1.5,3c0,0.1,0,0.1,0,0.2c-0.1,0.6-0.1,0.6-0.7,0.6C1217.8,649.2,1217,649.2,1216.1,649.2z M1210.6,638.7
				c0,0.4,0.2,0.7,0.5,0.8c0.3,0,0.6-0.2,0.7-0.6c0.3-1.5,1.2-2.6,2.7-3.2c0.4-0.2,0.6-0.5,0.5-0.8c-0.2-0.4-0.5-0.5-0.9-0.3
				c-0.9,0.4-1.7,1-2.4,1.8C1211.1,637.1,1210.7,637.9,1210.6,638.7z"/>
			<path d="M1216.1,651.6c-1,0-1.9,0-2.9,0c-0.2,0-0.3,0-0.3-0.3c0-0.9,0-0.9,0.9-0.9c1.8,0,3.5,0,5.3,0c0.3,0,0.4,0,0.4,0.3
				c0,0.9,0,0.9-0.9,0.9C1217.7,651.6,1216.9,651.6,1216.1,651.6z"/>
			<path d="M1216.1,652.7c1,0,2,0,2.9,0c0.3,0,0.3,0.1,0.2,0.3c-0.1,0.5-0.6,0.9-1.1,0.9c-1.4,0-2.8,0-4.3,0c-0.5,0-0.9-0.3-1-0.8
				c-0.1-0.3-0.1-0.4,0.3-0.4C1214.2,652.7,1215.1,652.7,1216.1,652.7z"/>
			<path d="M1216.1,654.5c0.3,0,0.6,0,0.9,0c0.2,0,0.3,0,0.2,0.3c-0.1,0.5-0.5,0.9-1.1,0.9c-0.6,0-1.1-0.3-1.2-0.9
				c-0.1-0.2,0-0.3,0.3-0.3C1215.5,654.5,1215.8,654.5,1216.1,654.5z"/>
			<path class="st74" d="M1210.6,638.7c0.1-0.8,0.5-1.6,1-2.3c0.6-0.8,1.4-1.4,2.4-1.8c0.4-0.2,0.8,0,0.9,0.3c0.1,0.3,0,0.6-0.5,0.8
				c-1.4,0.6-2.3,1.7-2.7,3.2c-0.1,0.4-0.4,0.6-0.7,0.6C1210.8,639.4,1210.6,639.1,1210.6,638.7z"/>
		</g>
		<g id="light_6_">
			<path class="st74" d="M1257.4,716.6c8.4-0.1,15.5,6.9,15.5,15.5c0,8.6-7.1,15.6-15.7,15.5c-8.4-0.1-15.4-7.1-15.4-15.7
				C1241.9,723.5,1249.1,716.5,1257.4,716.6z M1257.1,737.2c0.9,0,1.7,0,2.6,0c0.6,0,0.6,0,0.7-0.6c0-0.1,0-0.1,0-0.2
				c0.2-1.2,0.8-2.1,1.5-3c1.2-1.6,2.1-3.2,2.3-5.3c0.1-1.5-0.1-3-1-4.2c-1.7-2.4-4.1-3.5-7-3.2c-2.6,0.3-4.5,1.7-5.6,4.1
				c-0.8,1.9-0.7,3.8,0.1,5.7c0.5,1.2,1.2,2.2,2,3.2c0.7,0.9,1.2,1.9,1.3,3.1c0,0.3,0.1,0.3,0.3,0.3
				C1255.1,737.2,1256.1,737.2,1257.1,737.2z M1257.1,739.6c0.8,0,1.6,0,2.4,0c0.9,0,0.9,0,0.9-0.9c0-0.3-0.1-0.3-0.4-0.3
				c-1.8,0-3.5,0-5.3,0c-0.9,0-0.9,0-0.9,0.9c0,0.3,0.1,0.3,0.3,0.3C1255.1,739.6,1256.1,739.6,1257.1,739.6z M1257.1,740.7
				c-1,0-2,0-2.9,0c-0.3,0-0.4,0.1-0.3,0.4c0.2,0.5,0.6,0.8,1,0.8c1.4,0,2.8,0,4.3,0c0.5,0,0.9-0.4,1.1-0.9c0.1-0.2,0-0.3-0.2-0.3
				C1259.1,740.7,1258.1,740.7,1257.1,740.7z M1257.1,742.5c-0.3,0-0.6,0-0.9,0c-0.3,0-0.3,0.1-0.3,0.3c0.1,0.5,0.6,0.9,1.2,0.9
				c0.5,0,1-0.4,1.1-0.9c0.1-0.2,0-0.3-0.2-0.3C1257.7,742.5,1257.4,742.5,1257.1,742.5z"/>
			<path d="M1257.1,737.2c-1,0-1.9,0-2.9,0c-0.2,0-0.3,0-0.3-0.3c-0.1-1.2-0.6-2.2-1.3-3.1c-0.7-1-1.5-2-2-3.2
				c-0.7-1.9-0.9-3.8-0.1-5.7c1.1-2.4,3-3.8,5.6-4.1c2.9-0.4,5.3,0.7,7,3.2c0.9,1.3,1.1,2.7,1,4.2c-0.1,2-1.1,3.7-2.3,5.3
				c-0.7,0.9-1.3,1.9-1.5,3c0,0.1,0,0.1,0,0.2c-0.1,0.6-0.1,0.6-0.7,0.6C1258.8,737.2,1258,737.2,1257.1,737.2z M1251.6,726.7
				c0,0.4,0.2,0.7,0.5,0.8c0.3,0,0.6-0.2,0.7-0.6c0.3-1.5,1.2-2.6,2.7-3.2c0.4-0.2,0.6-0.5,0.5-0.8c-0.2-0.4-0.5-0.5-0.9-0.3
				c-0.9,0.4-1.7,1-2.4,1.8C1252.1,725.1,1251.7,725.9,1251.6,726.7z"/>
			<path d="M1257.1,739.6c-1,0-1.9,0-2.9,0c-0.2,0-0.3,0-0.3-0.3c0-0.9,0-0.9,0.9-0.9c1.8,0,3.5,0,5.3,0c0.3,0,0.4,0,0.4,0.3
				c0,0.9,0,0.9-0.9,0.9C1258.7,739.6,1257.9,739.6,1257.1,739.6z"/>
			<path d="M1257.1,740.7c1,0,2,0,2.9,0c0.3,0,0.3,0.1,0.2,0.3c-0.1,0.5-0.6,0.9-1.1,0.9c-1.4,0-2.8,0-4.3,0c-0.5,0-0.9-0.3-1-0.8
				c-0.1-0.3-0.1-0.4,0.3-0.4C1255.2,740.7,1256.1,740.7,1257.1,740.7z"/>
			<path d="M1257.1,742.5c0.3,0,0.6,0,0.9,0c0.2,0,0.3,0,0.2,0.3c-0.1,0.5-0.5,0.9-1.1,0.9c-0.6,0-1.1-0.3-1.2-0.9
				c-0.1-0.2,0-0.3,0.3-0.3C1256.5,742.5,1256.8,742.5,1257.1,742.5z"/>
			<path class="st74" d="M1251.6,726.7c0.1-0.8,0.5-1.6,1-2.3c0.6-0.8,1.4-1.4,2.4-1.8c0.4-0.2,0.8,0,0.9,0.3c0.1,0.3,0,0.6-0.5,0.8
				c-1.4,0.6-2.3,1.7-2.7,3.2c-0.1,0.4-0.4,0.6-0.7,0.6C1251.8,727.4,1251.6,727.1,1251.6,726.7z"/>
		</g>
		<g id="light_5_">
			<path class="st74" d="M1317.4,797.6c8.4-0.1,15.5,6.9,15.5,15.5c0,8.6-7.1,15.6-15.7,15.5c-8.4-0.1-15.4-7.1-15.4-15.7
				C1301.9,804.5,1309.1,797.5,1317.4,797.6z M1317.1,818.2c0.9,0,1.7,0,2.6,0c0.6,0,0.6,0,0.7-0.6c0-0.1,0-0.1,0-0.2
				c0.2-1.2,0.8-2.1,1.5-3c1.2-1.6,2.1-3.2,2.3-5.3c0.1-1.5-0.1-3-1-4.2c-1.7-2.4-4.1-3.5-7-3.2c-2.6,0.3-4.5,1.7-5.6,4.1
				c-0.8,1.9-0.7,3.8,0.1,5.7c0.5,1.2,1.2,2.2,2,3.2c0.7,0.9,1.2,1.9,1.3,3.1c0,0.3,0.1,0.3,0.3,0.3
				C1315.1,818.2,1316.1,818.2,1317.1,818.2z M1317.1,820.6c0.8,0,1.6,0,2.4,0c0.9,0,0.9,0,0.9-0.9c0-0.3-0.1-0.3-0.4-0.3
				c-1.8,0-3.5,0-5.3,0c-0.9,0-0.9,0-0.9,0.9c0,0.3,0.1,0.3,0.3,0.3C1315.1,820.6,1316.1,820.6,1317.1,820.6z M1317.1,821.7
				c-1,0-2,0-2.9,0c-0.3,0-0.4,0.1-0.3,0.4c0.2,0.5,0.6,0.8,1,0.8c1.4,0,2.8,0,4.3,0c0.5,0,0.9-0.4,1.1-0.9c0.1-0.2,0-0.3-0.2-0.3
				C1319.1,821.7,1318.1,821.7,1317.1,821.7z M1317.1,823.5c-0.3,0-0.6,0-0.9,0c-0.3,0-0.3,0.1-0.3,0.3c0.1,0.5,0.6,0.9,1.2,0.9
				c0.5,0,1-0.4,1.1-0.9c0.1-0.2,0-0.3-0.2-0.3C1317.7,823.5,1317.4,823.5,1317.1,823.5z"/>
			<path d="M1317.1,818.2c-1,0-1.9,0-2.9,0c-0.2,0-0.3,0-0.3-0.3c-0.1-1.2-0.6-2.2-1.3-3.1c-0.7-1-1.5-2-2-3.2
				c-0.7-1.9-0.9-3.8-0.1-5.7c1.1-2.4,3-3.8,5.6-4.1c2.9-0.4,5.3,0.7,7,3.2c0.9,1.3,1.1,2.7,1,4.2c-0.1,2-1.1,3.7-2.3,5.3
				c-0.7,0.9-1.3,1.9-1.5,3c0,0.1,0,0.1,0,0.2c-0.1,0.6-0.1,0.6-0.7,0.6C1318.8,818.2,1318,818.2,1317.1,818.2z M1311.6,807.7
				c0,0.4,0.2,0.7,0.5,0.8c0.3,0,0.6-0.2,0.7-0.6c0.3-1.5,1.2-2.6,2.7-3.2c0.4-0.2,0.6-0.5,0.5-0.8c-0.2-0.4-0.5-0.5-0.9-0.3
				c-0.9,0.4-1.7,1-2.4,1.8C1312.1,806.1,1311.7,806.9,1311.6,807.7z"/>
			<path d="M1317.1,820.6c-1,0-1.9,0-2.9,0c-0.2,0-0.3,0-0.3-0.3c0-0.9,0-0.9,0.9-0.9c1.8,0,3.5,0,5.3,0c0.3,0,0.4,0,0.4,0.3
				c0,0.9,0,0.9-0.9,0.9C1318.7,820.6,1317.9,820.6,1317.1,820.6z"/>
			<path d="M1317.1,821.7c1,0,2,0,2.9,0c0.3,0,0.3,0.1,0.2,0.3c-0.1,0.5-0.6,0.9-1.1,0.9c-1.4,0-2.8,0-4.3,0c-0.5,0-0.9-0.3-1-0.8
				c-0.1-0.3-0.1-0.4,0.3-0.4C1315.2,821.7,1316.1,821.7,1317.1,821.7z"/>
			<path d="M1317.1,823.5c0.3,0,0.6,0,0.9,0c0.2,0,0.3,0,0.2,0.3c-0.1,0.5-0.5,0.9-1.1,0.9c-0.6,0-1.1-0.3-1.2-0.9
				c-0.1-0.2,0-0.3,0.3-0.3C1316.5,823.5,1316.8,823.5,1317.1,823.5z"/>
			<path class="st74" d="M1311.6,807.7c0.1-0.8,0.5-1.6,1-2.3c0.6-0.8,1.4-1.4,2.4-1.8c0.4-0.2,0.8,0,0.9,0.3c0.1,0.3,0,0.6-0.5,0.8
				c-1.4,0.6-2.3,1.7-2.7,3.2c-0.1,0.4-0.4,0.6-0.7,0.6C1311.8,808.4,1311.6,808.1,1311.6,807.7z"/>
		</g>
		<g id="light_4_">
			<path class="st74" d="M1299.4,333.6c8.4-0.1,15.5,6.9,15.5,15.5c0,8.6-7.1,15.6-15.7,15.5c-8.4-0.1-15.4-7.1-15.4-15.7
				C1283.9,340.5,1291.1,333.5,1299.4,333.6z M1299.1,354.2c0.9,0,1.7,0,2.6,0c0.6,0,0.6,0,0.7-0.6c0-0.1,0-0.1,0-0.2
				c0.2-1.2,0.8-2.1,1.5-3c1.2-1.6,2.1-3.2,2.3-5.3c0.1-1.5-0.1-3-1-4.2c-1.7-2.4-4.1-3.5-7-3.2c-2.6,0.3-4.5,1.7-5.6,4.1
				c-0.8,1.9-0.7,3.8,0.1,5.7c0.5,1.2,1.2,2.2,2,3.2c0.7,0.9,1.2,1.9,1.3,3.1c0,0.3,0.1,0.3,0.3,0.3
				C1297.1,354.2,1298.1,354.2,1299.1,354.2z M1299.1,356.6c0.8,0,1.6,0,2.4,0c0.9,0,0.9,0,0.9-0.9c0-0.3-0.1-0.3-0.4-0.3
				c-1.8,0-3.5,0-5.3,0c-0.9,0-0.9,0-0.9,0.9c0,0.3,0.1,0.3,0.3,0.3C1297.1,356.6,1298.1,356.6,1299.1,356.6z M1299.1,357.7
				c-1,0-2,0-2.9,0c-0.3,0-0.4,0.1-0.3,0.4c0.2,0.5,0.6,0.8,1,0.8c1.4,0,2.8,0,4.3,0c0.5,0,0.9-0.4,1.1-0.9c0.1-0.2,0-0.3-0.2-0.3
				C1301.1,357.7,1300.1,357.7,1299.1,357.7z M1299.1,359.5c-0.3,0-0.6,0-0.9,0c-0.3,0-0.3,0.1-0.3,0.3c0.1,0.5,0.6,0.9,1.2,0.9
				c0.5,0,1-0.4,1.1-0.9c0.1-0.2,0-0.3-0.2-0.3C1299.7,359.5,1299.4,359.5,1299.1,359.5z"/>
			<path d="M1299.1,354.2c-1,0-1.9,0-2.9,0c-0.2,0-0.3,0-0.3-0.3c-0.1-1.2-0.6-2.2-1.3-3.1c-0.7-1-1.5-2-2-3.2
				c-0.7-1.9-0.9-3.8-0.1-5.7c1.1-2.4,3-3.8,5.6-4.1c2.9-0.4,5.3,0.7,7,3.2c0.9,1.3,1.1,2.7,1,4.2c-0.1,2-1.1,3.7-2.3,5.3
				c-0.7,0.9-1.3,1.9-1.5,3c0,0.1,0,0.1,0,0.2c-0.1,0.6-0.1,0.6-0.7,0.6C1300.8,354.2,1300,354.2,1299.1,354.2z M1293.6,343.7
				c0,0.4,0.2,0.7,0.5,0.8c0.3,0,0.6-0.2,0.7-0.6c0.3-1.5,1.2-2.6,2.7-3.2c0.4-0.2,0.6-0.5,0.5-0.8c-0.2-0.4-0.5-0.5-0.9-0.3
				c-0.9,0.4-1.7,1-2.4,1.8C1294.1,342.1,1293.7,342.9,1293.6,343.7z"/>
			<path d="M1299.1,356.6c-1,0-1.9,0-2.9,0c-0.2,0-0.3,0-0.3-0.3c0-0.9,0-0.9,0.9-0.9c1.8,0,3.5,0,5.3,0c0.3,0,0.4,0,0.4,0.3
				c0,0.9,0,0.9-0.9,0.9C1300.7,356.6,1299.9,356.6,1299.1,356.6z"/>
			<path d="M1299.1,357.7c1,0,2,0,2.9,0c0.3,0,0.3,0.1,0.2,0.3c-0.1,0.5-0.6,0.9-1.1,0.9c-1.4,0-2.8,0-4.3,0c-0.5,0-0.9-0.3-1-0.8
				c-0.1-0.3-0.1-0.4,0.3-0.4C1297.2,357.7,1298.1,357.7,1299.1,357.7z"/>
			<path d="M1299.1,359.5c0.3,0,0.6,0,0.9,0c0.2,0,0.3,0,0.2,0.3c-0.1,0.5-0.5,0.9-1.1,0.9c-0.6,0-1.1-0.3-1.2-0.9
				c-0.1-0.2,0-0.3,0.3-0.3C1298.5,359.5,1298.8,359.5,1299.1,359.5z"/>
			<path class="st74" d="M1293.6,343.7c0.1-0.8,0.5-1.6,1-2.3c0.6-0.8,1.4-1.4,2.4-1.8c0.4-0.2,0.8,0,0.9,0.3c0.1,0.3,0,0.6-0.5,0.8
				c-1.4,0.6-2.3,1.7-2.7,3.2c-0.1,0.4-0.4,0.6-0.7,0.6C1293.8,344.4,1293.6,344.1,1293.6,343.7z"/>
		</g>
		<g id="light_3_">
			<path class="st74" d="M361.4,443.6c8.4-0.1,15.5,6.9,15.5,15.5c0,8.6-7.1,15.6-15.7,15.5c-8.4-0.1-15.4-7.1-15.4-15.7
				C345.9,450.5,353.1,443.5,361.4,443.6z M361.1,464.2c0.9,0,1.7,0,2.6,0c0.6,0,0.6,0,0.7-0.6c0-0.1,0-0.1,0-0.2
				c0.2-1.2,0.8-2.1,1.5-3c1.2-1.6,2.1-3.2,2.3-5.3c0.1-1.5-0.1-3-1-4.2c-1.7-2.4-4.1-3.5-7-3.2c-2.6,0.3-4.5,1.7-5.6,4.1
				c-0.8,1.9-0.7,3.8,0.1,5.7c0.5,1.2,1.2,2.2,2,3.2c0.7,0.9,1.2,1.9,1.3,3.1c0,0.3,0.1,0.3,0.3,0.3
				C359.1,464.2,360.1,464.2,361.1,464.2z M361.1,466.6c0.8,0,1.6,0,2.4,0c0.9,0,0.9,0,0.9-0.9c0-0.3-0.1-0.3-0.4-0.3
				c-1.8,0-3.5,0-5.3,0c-0.9,0-0.9,0-0.9,0.9c0,0.3,0.1,0.3,0.3,0.3C359.1,466.6,360.1,466.6,361.1,466.6z M361.1,467.7
				c-1,0-2,0-2.9,0c-0.3,0-0.4,0.1-0.3,0.4c0.2,0.5,0.6,0.8,1,0.8c1.4,0,2.8,0,4.3,0c0.5,0,0.9-0.4,1.1-0.9c0.1-0.2,0-0.3-0.2-0.3
				C363.1,467.7,362.1,467.7,361.1,467.7z M361.1,469.5c-0.3,0-0.6,0-0.9,0c-0.3,0-0.3,0.1-0.3,0.3c0.1,0.5,0.6,0.9,1.2,0.9
				c0.5,0,1-0.4,1.1-0.9c0.1-0.2,0-0.3-0.2-0.3C361.7,469.5,361.4,469.5,361.1,469.5z"/>
			<path d="M361.1,464.2c-1,0-1.9,0-2.9,0c-0.2,0-0.3,0-0.3-0.3c-0.1-1.2-0.6-2.2-1.3-3.1c-0.7-1-1.5-2-2-3.2
				c-0.7-1.9-0.9-3.8-0.1-5.7c1.1-2.4,3-3.8,5.6-4.1c2.9-0.4,5.3,0.7,7,3.2c0.9,1.3,1.1,2.7,1,4.2c-0.1,2-1.1,3.7-2.3,5.3
				c-0.7,0.9-1.3,1.9-1.5,3c0,0.1,0,0.1,0,0.2c-0.1,0.6-0.1,0.6-0.7,0.6C362.8,464.2,362,464.2,361.1,464.2z M355.6,453.7
				c0,0.4,0.2,0.7,0.5,0.8c0.3,0,0.6-0.2,0.7-0.6c0.3-1.5,1.2-2.6,2.7-3.2c0.4-0.2,0.6-0.5,0.5-0.8c-0.2-0.4-0.5-0.5-0.9-0.3
				c-0.9,0.4-1.7,1-2.4,1.8C356.1,452.1,355.7,452.9,355.6,453.7z"/>
			<path d="M361.1,466.6c-1,0-1.9,0-2.9,0c-0.2,0-0.3,0-0.3-0.3c0-0.9,0-0.9,0.9-0.9c1.8,0,3.5,0,5.3,0c0.3,0,0.4,0,0.4,0.3
				c0,0.9,0,0.9-0.9,0.9C362.7,466.6,361.9,466.6,361.1,466.6z"/>
			<path d="M361.1,467.7c1,0,2,0,2.9,0c0.3,0,0.3,0.1,0.2,0.3c-0.1,0.5-0.6,0.9-1.1,0.9c-1.4,0-2.8,0-4.3,0c-0.5,0-0.9-0.3-1-0.8
				c-0.1-0.3-0.1-0.4,0.3-0.4C359.2,467.7,360.1,467.7,361.1,467.7z"/>
			<path d="M361.1,469.5c0.3,0,0.6,0,0.9,0c0.2,0,0.3,0,0.2,0.3c-0.1,0.5-0.5,0.9-1.1,0.9c-0.6,0-1.1-0.3-1.2-0.9
				c-0.1-0.2,0-0.3,0.3-0.3C360.5,469.5,360.8,469.5,361.1,469.5z"/>
			<path class="st74" d="M355.6,453.7c0.1-0.8,0.5-1.6,1-2.3c0.6-0.8,1.4-1.4,2.4-1.8c0.4-0.2,0.8,0,0.9,0.3c0.1,0.3,0,0.6-0.5,0.8
				c-1.4,0.6-2.3,1.7-2.7,3.2c-0.1,0.4-0.4,0.6-0.7,0.6C355.8,454.4,355.6,454.1,355.6,453.7z"/>
		</g>
	</g>
	<g id="heat_2_">
		<g id="heat_1_">
			<path class="st75" d="M1753.2,797.1c14.1-0.1,26,11.5,26,26c0,14.4-11.8,26.2-26.4,26c-14.1-0.1-25.9-11.8-25.8-26.3
				C1727.1,808.7,1738.9,797,1753.2,797.1z M1743.8,838C1743.8,838,1743.8,838,1743.8,838c0,0.4,0,0.8,0,1.2
				c0.1,1.1,0.5,1.3,1.4,0.7c0.7-0.4,1.3-1,1.9-1.4c0.8-0.6,1.2-0.5,1.5,0.5c0.3,0.8,0.5,1.6,0.7,2.4c0.4,1,0.8,1.1,1.5,0.2
				c0.5-0.6,0.9-1.3,1.4-1.9c0.7-0.9,1-0.9,1.7,0c0.5,0.7,0.9,1.4,1.4,2c0.6,0.8,1.1,0.7,1.4-0.2c0.3-0.8,0.5-1.6,0.8-2.3
				c0.4-1,0.7-1.1,1.6-0.5c0.7,0.5,1.3,1,2,1.5c0.7,0.5,1.1,0.3,1.2-0.6c0.1-0.9-0.1-1.8,0-2.7c0.1-0.9,0.4-1.1,1.3-0.9
				c0.7,0.2,1.5,0.5,2.2,0.8c0.4,0.1,0.8,0.3,1.2,0c0.3-0.3,0.2-0.8,0-1.2c-0.2-0.7-0.5-1.4-0.7-2.1c-0.3-1-0.1-1.4,1-1.4
				c0.8,0,1.6,0.1,2.3,0.1c1.1,0,1.3-0.5,0.7-1.4c-0.4-0.7-1-1.3-1.4-1.9c-0.6-0.8-0.4-1.2,0.5-1.5c0.8-0.3,1.6-0.5,2.4-0.7
				c0.9-0.3,1-0.8,0.2-1.4c-0.6-0.5-1.3-0.9-2-1.5c-0.8-0.6-0.8-1,0-1.6c0.4-0.3,0.9-0.6,1.3-0.9c0.3-0.2,0.6-0.4,0.9-0.7
				c0.5-0.5,0.4-0.8-0.2-1.1c-0.2-0.1-0.5-0.2-0.7-0.3c-0.6-0.2-1.2-0.4-1.8-0.6c-1-0.4-1.1-0.7-0.5-1.6c0.5-0.7,1-1.3,1.5-1.9
				c0.6-0.8,0.4-1.3-0.6-1.3c-0.9,0-1.7,0-2.6,0c-0.9,0-1.1-0.4-0.9-1.2c0.2-0.8,0.6-1.6,0.8-2.4c0.3-1.1,0-1.4-1.1-1.1
				c-0.8,0.2-1.6,0.5-2.4,0.8c-0.9,0.2-1.1,0.1-1.2-0.8c0-0.8,0-1.6,0-2.5c0-0.4,0-0.9-0.4-1.1c-0.4-0.2-0.8,0.1-1.1,0.3
				c-0.6,0.4-1.2,0.9-1.8,1.3c-0.9,0.6-1.3,0.5-1.6-0.5c-0.2-0.7-0.4-1.4-0.6-2.1c-0.1-0.4-0.2-0.9-0.7-0.9c-0.5-0.1-0.7,0.3-1,0.7
				c-0.4,0.6-0.8,1.2-1.3,1.8c-0.7,0.8-1,0.8-1.7,0c-0.5-0.6-0.9-1.3-1.3-1.9c-0.2-0.3-0.5-0.7-0.9-0.7c-0.5,0.1-0.6,0.5-0.7,0.9
				c-0.1,0.3-0.2,0.5-0.3,0.8c-0.2,0.5-0.3,1.1-0.6,1.6c-0.3,0.7-0.6,0.8-1.2,0.4c-0.5-0.3-1-0.7-1.4-1.1c-0.4-0.3-0.7-0.6-1.1-0.8
				c-0.5-0.2-0.8-0.1-0.9,0.4c-0.1,0.3-0.1,0.5-0.1,0.8c0,0.7,0,1.4,0,2.2c0,0.9-0.4,1.2-1.3,0.9c-0.8-0.2-1.6-0.6-2.4-0.8
				c-1-0.3-1.3,0-1.1,1c0.1,0.4,0.2,0.7,0.3,1.1c0.2,0.5,0.4,1,0.5,1.5c0.2,0.7,0,1-0.7,1.1c-0.4,0-0.7,0-1.1,0c-0.7,0-1.4-0.1-2,0
				c-0.6,0.1-0.7,0.4-0.5,0.9c0.2,0.5,0.5,0.9,0.9,1.3c0.3,0.5,0.7,0.9,1,1.4c0.3,0.5,0.1,0.8-0.4,1c-0.4,0.2-0.9,0.3-1.3,0.4
				c-0.6,0.2-1.2,0.3-1.8,0.6c-0.5,0.3-0.5,0.6-0.2,1c0.3,0.4,0.8,0.7,1.2,1c0.5,0.3,1,0.7,1.4,1.1c0.4,0.4,0.4,0.7,0,1.1
				c-0.4,0.4-0.8,0.6-1.2,0.9c-0.3,0.2-0.7,0.4-1,0.7c-0.3,0.2-0.7,0.5-0.6,0.9c0.1,0.4,0.5,0.5,0.8,0.7c0.5,0.2,1.1,0.3,1.6,0.5
				c0.4,0.1,0.7,0.2,1,0.4c0.4,0.2,0.5,0.5,0.3,1c-0.2,0.5-0.6,0.9-0.9,1.3c-0.4,0.5-0.8,0.9-1,1.5c-0.2,0.5-0.1,0.8,0.5,0.9
				c0.2,0,0.5,0,0.7,0c0.8,0,1.6,0,2.3,0c0.7,0,1,0.3,0.8,1.1c-0.2,0.8-0.5,1.5-0.8,2.3c-0.1,0.4-0.4,0.9,0,1.3
				c0.4,0.4,0.9,0.1,1.3,0c0.8-0.2,1.5-0.6,2.3-0.8c0.6-0.1,0.9,0.1,1,0.7C1743.9,837,1743.8,837.5,1743.8,838z"/>
			<path class="st76" d="M1743.8,838c0-0.5,0-1,0-1.5c0-0.7-0.3-0.9-1-0.7c-0.8,0.2-1.6,0.5-2.3,0.8c-0.4,0.1-0.9,0.4-1.3,0
				c-0.4-0.4-0.1-0.9,0-1.3c0.2-0.8,0.5-1.5,0.8-2.3c0.2-0.7,0-1-0.8-1.1c-0.8,0-1.6,0-2.3,0c-0.2,0-0.5,0-0.7,0
				c-0.6-0.1-0.7-0.4-0.5-0.9c0.3-0.5,0.7-1,1-1.5c0.3-0.4,0.7-0.8,0.9-1.3c0.2-0.4,0.1-0.8-0.3-1c-0.3-0.2-0.7-0.3-1-0.4
				c-0.5-0.2-1.1-0.3-1.6-0.5c-0.3-0.1-0.8-0.2-0.8-0.7c-0.1-0.5,0.3-0.7,0.6-0.9c0.3-0.3,0.7-0.5,1-0.7c0.4-0.3,0.9-0.6,1.2-0.9
				c0.4-0.4,0.4-0.7,0-1.1c-0.4-0.4-0.9-0.7-1.4-1.1c-0.4-0.3-0.9-0.6-1.2-1c-0.4-0.4-0.3-0.7,0.2-1c0.6-0.3,1.2-0.4,1.8-0.6
				c0.4-0.1,0.9-0.3,1.3-0.4c0.5-0.2,0.6-0.6,0.4-1c-0.3-0.5-0.6-1-1-1.4c-0.3-0.4-0.7-0.8-0.9-1.3c-0.2-0.5-0.1-0.8,0.5-0.9
				c0.7-0.1,1.4,0,2,0c0.4,0,0.7,0,1.1,0c0.7-0.1,0.9-0.4,0.7-1.1c-0.1-0.5-0.3-1-0.5-1.5c-0.1-0.4-0.2-0.7-0.3-1.1
				c-0.2-1,0.1-1.3,1.1-1c0.8,0.2,1.6,0.6,2.4,0.8c0.9,0.3,1.2,0.1,1.3-0.9c0-0.7,0-1.4,0-2.2c0-0.3,0-0.5,0.1-0.8
				c0.1-0.5,0.4-0.7,0.9-0.4c0.4,0.2,0.8,0.5,1.1,0.8c0.5,0.4,0.9,0.7,1.4,1.1c0.6,0.4,0.9,0.3,1.2-0.4c0.2-0.5,0.4-1.1,0.6-1.6
				c0.1-0.3,0.2-0.6,0.3-0.8c0.2-0.4,0.2-0.9,0.7-0.9c0.4-0.1,0.7,0.3,0.9,0.7c0.4,0.6,0.8,1.3,1.3,1.9c0.7,0.9,1,0.9,1.7,0
				c0.5-0.6,0.9-1.2,1.3-1.8c0.2-0.3,0.5-0.7,1-0.7c0.5,0.1,0.6,0.5,0.7,0.9c0.2,0.7,0.4,1.4,0.6,2.1c0.4,1,0.7,1.2,1.6,0.5
				c0.6-0.4,1.2-0.9,1.8-1.3c0.3-0.2,0.7-0.6,1.1-0.3c0.4,0.2,0.4,0.7,0.4,1.1c0,0.8-0.1,1.6,0,2.5c0,0.9,0.3,1,1.2,0.8
				c0.8-0.2,1.6-0.5,2.4-0.8c1.1-0.3,1.4,0,1.1,1.1c-0.2,0.8-0.6,1.6-0.8,2.4c-0.2,0.8,0,1.2,0.9,1.2c0.9,0,1.7,0,2.6,0
				c1,0,1.2,0.5,0.6,1.3c-0.5,0.7-1,1.3-1.5,1.9c-0.7,0.9-0.5,1.2,0.5,1.6c0.6,0.2,1.2,0.4,1.8,0.6c0.3,0.1,0.5,0.2,0.7,0.3
				c0.6,0.3,0.7,0.7,0.2,1.1c-0.3,0.3-0.6,0.5-0.9,0.7c-0.4,0.3-0.9,0.6-1.3,0.9c-0.8,0.6-0.8,1,0,1.6c0.6,0.5,1.4,0.9,2,1.5
				c0.8,0.6,0.7,1.1-0.2,1.4c-0.8,0.3-1.6,0.5-2.4,0.7c-0.9,0.3-1.1,0.7-0.5,1.5c0.4,0.7,1,1.3,1.4,1.9c0.6,0.9,0.4,1.4-0.7,1.4
				c-0.8,0-1.6-0.1-2.3-0.1c-1.1,0-1.3,0.3-1,1.4c0.2,0.7,0.5,1.4,0.7,2.1c0.1,0.4,0.3,0.8,0,1.2c-0.3,0.3-0.8,0.1-1.2,0
				c-0.7-0.2-1.5-0.5-2.2-0.8c-0.9-0.3-1.2,0-1.3,0.9c-0.1,0.9,0.1,1.8,0,2.7c-0.1,0.9-0.5,1.1-1.2,0.6c-0.7-0.5-1.3-1-2-1.5
				c-0.9-0.6-1.3-0.5-1.6,0.5c-0.3,0.8-0.5,1.6-0.8,2.3c-0.3,0.9-0.8,1-1.4,0.2c-0.5-0.6-0.9-1.4-1.4-2c-0.7-0.9-1-0.9-1.7,0
				c-0.5,0.6-0.9,1.3-1.4,1.9c-0.7,0.9-1.1,0.8-1.5-0.2c-0.3-0.8-0.5-1.6-0.7-2.4c-0.3-0.9-0.7-1.1-1.5-0.5c-0.7,0.4-1.3,1-1.9,1.4
				c-0.9,0.6-1.3,0.4-1.4-0.7C1743.8,838.8,1743.8,838.4,1743.8,838C1743.8,838,1743.8,838,1743.8,838z M1767.1,822.7
				c0-7.6-6.2-13.8-13.8-13.8c-7.7,0-13.9,6.2-13.9,13.9c0,7.7,6.2,13.8,14,13.8C1760.9,836.6,1767.1,830.3,1767.1,822.7z"/>
			<path class="st75" d="M1767.1,822.7c0,7.5-6.2,13.8-13.6,13.8c-7.8,0-14-6.1-14-13.8c0-7.7,6.2-13.9,13.9-13.9
				C1760.9,808.9,1767.1,815.1,1767.1,822.7z M1742.7,822.7c0,5.9,4.7,10.6,10.6,10.6c5.8,0,10.6-4.7,10.6-10.4
				c0-6-4.6-10.8-10.5-10.8C1747.4,812.1,1742.7,816.8,1742.7,822.7z"/>
			<path class="st76" d="M1742.7,822.7c0-5.9,4.7-10.6,10.7-10.6c5.9,0,10.5,4.8,10.5,10.8c0,5.7-4.8,10.4-10.6,10.4
				C1747.4,833.3,1742.7,828.6,1742.7,822.7z"/>
		</g>
	</g>
</g>
<g id="Kitchen">
</g>
<g id="Livingroom-icons">
</g>
<g id="Livingroom">
</g>
</svg>
