<?xml version="1.0" encoding="utf-8"?>
<!-- Generator: Adobe Illustrator 24.3.0, SVG Export Plug-In . SVG Version: 6.00 Build 0)  -->
<svg version="1.1" xmlns="http://www.w3.org/2000/svg" xmlns:xlink="http://www.w3.org/1999/xlink" x="0px" y="0px"
	 viewBox="0 0 1920 1080" style="enable-background:new 0 0 1920 1080;" xml:space="preserve">
<style type="text/css">
	.st0{fill:#D8E9F0;}
	.st1{fill:#3687A4;}
	.st2{fill:#ADDDEC;}
	.st3{fill:#FFFFFF;}
	.st4{fill:#A6DEF6;}
	.st5{fill:#FBC45E;}
	.st6{fill:#E89BBE;}
	.st7{fill:#7A8EC7;}
	.st8{fill:none;stroke:#FFFFFF;stroke-width:6;stroke-miterlimit:10;}
	.st9{fill:#C1E6EC;}
	.st10{fill:#FFFFFF;stroke:#FFFFFF;stroke-width:4;stroke-miterlimit:10;}
	.st11{fill:#CBDF8C;}
	.st12{fill:none;stroke:#FFFFFF;stroke-width:2;stroke-miterlimit:10;}
	.st13{fill:#838186;stroke:#838186;stroke-width:4;stroke-miterlimit:10;}
	.st14{fill:#838186;}
	.st15{fill:#DFDFDF;}
	.st16{fill:none;stroke:#FFFFFF;stroke-width:28;stroke-miterlimit:10;}
	.st17{opacity:0.4;fill:#FFFFFF;}
	.st18{fill:url(#SVGID_1_);}
	.st19{fill:url(#SVGID_2_);}
	.st20{fill:#BFE3D3;}
	.st21{fill:#ADCEC1;}
	.st22{fill:#58C5C7;}
	.st23{fill:#00B6BE;}
	.st24{fill:#DDBCC8;}
	.st25{fill:#BCAB92;}
	.st26{fill:#D6A1B7;}
	.st27{fill:#261F44;}
	.st28{opacity:0.44;fill:#5F5F60;}
	.st29{fill:none;stroke:#998675;stroke-width:2;stroke-miterlimit:10;}
	.st30{fill:url(#SVGID_3_);}
	.st31{fill:url(#SVGID_4_);}
	.st32{fill:url(#SVGID_5_);}
	.st33{fill:url(#SVGID_6_);}
	.st34{fill:url(#SVGID_7_);}
	.st35{fill:url(#SVGID_8_);}
	.st36{fill:url(#SVGID_9_);}
	.st37{fill:url(#SVGID_10_);}
	.st38{fill:url(#SVGID_11_);}
	.st39{fill:url(#SVGID_12_);}
	.st40{fill:url(#SVGID_13_);}
	.st41{fill:url(#SVGID_14_);}
	.st42{fill:url(#SVGID_15_);}
	.st43{fill:url(#SVGID_16_);}
	.st44{fill:url(#SVGID_17_);}
	.st45{fill:url(#SVGID_18_);}
	.st46{fill:url(#SVGID_19_);}
	.st47{fill:#454289;}
	.st48{fill:#38327C;}
	.st49{fill:#E6E6E6;}
	.st50{fill:#FF4370;}
	.st51{fill:#E53C70;}
	.st52{fill:#FF6699;}
	.st53{opacity:0.23;fill:#E53C70;}
	.st54{fill:#3F4650;}
	.st55{fill:#0267B6;}
	.st56{fill:#2BB03E;}
	.st57{fill:#EA2023;}
	.st58{fill:#FBED23;}
	.st59{fill:#0E6B7A;}
	.st60{opacity:0.64;fill:url(#SVGID_20_);}
	.st61{fill:none;stroke:#FFFFFF;stroke-width:8.0256;stroke-miterlimit:10;}
	.st62{fill:none;stroke:#FF4370;stroke-width:1.3376;stroke-miterlimit:10;}
	.st63{fill:#FF83B3;}
	.st64{fill:#EBB724;}
	.st65{fill:#FFC727;}
	.st66{fill:#50ACB0;}
	.st67{fill:#FD8283;}
	.st68{fill:#F07B7C;}
	.st69{fill:#3C8185;}
	.st70{display:none;fill:#3C8185;}
	.st71{fill:#92D1DF;}
	.st72{fill:#010101;}
	.st73{fill:#FAB924;}
	.st74{fill:#76B62A;}
	.st75{fill:#FDEE40;}
	.st76{fill:#020202;}
	.st77{fill:#ABD2D0;}
	.st78{fill:#968976;}
	.st79{fill:#70675B;}
	.st80{fill:#E4DECE;}
	.st81{fill:#93B7B6;}
	.st82{fill:#C9F9F9;}
	.st83{fill:none;stroke:#FFFFFF;stroke-width:2.9103;stroke-miterlimit:10;}
	.st84{fill:#F1893A;}
	.st85{fill:#C96E31;}
	.st86{fill:#DB7838;}
	.st87{fill:#2F3E4C;}
	.st88{fill:#87A978;}
	.st89{fill:#93BD85;}
	.st90{fill:#ACDA99;}
	.st91{fill:#475362;}
	.st92{fill:#627289;}
	.st93{fill:#303846;}
	.st94{fill:#41505E;}
	.st95{fill:none;stroke:#87A978;stroke-width:1.1982;stroke-miterlimit:10;}
	.st96{fill:#B4E6A1;}
	.st97{fill:none;stroke:#87A978;stroke-width:0.8558;stroke-miterlimit:10;}
	.st98{fill:#6E8462;}
	.st99{fill-rule:evenodd;clip-rule:evenodd;fill:#F0EEE6;}
	.st100{fill:#E4E0D9;}
	.st101{fill:#FFDD83;}
	.st102{fill:#219260;}
	.st103{fill:#147798;}
	.st104{fill:#915E36;}
	.st105{fill:#FB8710;}
	.st106{fill:#CA9E64;}
	.st107{fill:#B07F48;}
	.st108{fill:#53D678;}
	.st109{fill:#5C4B51;}
	.st110{fill:#F06060;}
	.st111{fill:#F2EBBF;}
	.st112{fill:none;stroke:#5C4B51;stroke-width:3.4462;stroke-linecap:round;stroke-linejoin:round;stroke-miterlimit:10;}
	.st113{opacity:0.38;fill:none;stroke:#FFFFFF;stroke-width:7;stroke-linecap:round;stroke-linejoin:round;stroke-miterlimit:10;}
	.st114{fill:#DC9C76;}
	.st115{fill:#729C76;}
	.st116{fill:#A94B51;}
	.st117{fill:#974B51;}
	.st118{opacity:0.5;fill:#CC575E;}
	.st119{fill:#7F9C76;}
	.st120{fill:#5C4B7A;}
	.st121{fill:#F03960;}
	.st122{fill:#FFC783;}
	.st123{fill:#5C1A51;}
	.st124{fill:#52BEB2;}
	.st125{fill:#F0A660;}
	.st126{fill:#F3B562;}
	.st127{fill:#F27800;}
	.st128{fill:#613D4A;}
	.st129{fill:#004F4D;}
	.st130{fill:#007F4F;}
	.st131{fill:#00654D;}
	.st132{fill:#F59333;}
	.st133{fill:#F1ECDA;}
	.st134{fill:#88A8A7;}
	.st135{fill:url(#SVGID_21_);}
	.st136{fill:#E6E7E8;}
	.st137{fill:#D1D3D4;}
	.st138{fill:#FDBA4A;}
	.st139{fill:#FAA222;}
	.st140{fill:#D3DEBC;}
	.st141{fill:#CC883B;}
	.st142{fill-rule:evenodd;clip-rule:evenodd;fill:#919697;}
	.st143{fill-rule:evenodd;clip-rule:evenodd;fill:#36343A;}
	.st144{fill-rule:evenodd;clip-rule:evenodd;fill:#0C050D;stroke:#0C050D;stroke-width:0.235;stroke-miterlimit:22.9256;}
	.st145{fill-rule:evenodd;clip-rule:evenodd;fill:#36343A;stroke:#0C050D;stroke-width:0.235;stroke-miterlimit:22.9256;}
	.st146{fill-rule:evenodd;clip-rule:evenodd;fill:#7D8082;}
	.st147{fill-rule:evenodd;clip-rule:evenodd;fill:#5BBA47;}
	.st148{fill-rule:evenodd;clip-rule:evenodd;fill:#818081;}
	.st149{fill-rule:evenodd;clip-rule:evenodd;fill:#666264;}
	.st150{fill-rule:evenodd;clip-rule:evenodd;fill:#3B3438;}
	.st151{fill-rule:evenodd;clip-rule:evenodd;fill:#62C3D2;}
	.st152{fill-rule:evenodd;clip-rule:evenodd;fill:#A0D6E1;}
	.st153{fill-rule:evenodd;clip-rule:evenodd;fill:#00B6E8;}
	.st154{fill-rule:evenodd;clip-rule:evenodd;fill:#232938;}
	.st155{fill-rule:evenodd;clip-rule:evenodd;fill:#E5B249;}
	.st156{fill-rule:evenodd;clip-rule:evenodd;fill:#D4C2AB;}
	.st157{fill-rule:evenodd;clip-rule:evenodd;fill:#E1894A;}
	.st158{fill-rule:evenodd;clip-rule:evenodd;fill:#FFFFFF;}
	.st159{fill:#232938;}
	.st160{fill:#A9B392;}
	.st161{fill:#E5B249;}
	.st162{fill-rule:evenodd;clip-rule:evenodd;fill:#A9B392;}
	.st163{fill:#ECECEC;}
	.st164{fill:#BEC3C7;}
	.st165{fill:#DAE0E2;}
	.st166{fill:#F45A2A;}
	.st167{fill:#F67B46;}
	.st168{fill:#E73F1F;}
	.st169{fill:#E1894A;}
	.st170{fill:#0A837F;}
	.st171{fill:#1DA19F;}
	.st172{fill:#3A6B34;}
	.st173{fill:#96BCBB;}
	.st174{fill:#68858E;}
	.st175{fill:#69935F;}
	.st176{fill:#B75353;}
	.st177{fill:#E0A76E;}
	.st178{fill:#F0D1BC;}
	.st179{fill:#1D2E35;}
	.st180{fill:#272A33;}
	.st181{fill:#563B31;}
	.st182{fill:#462D23;}
	.st183{fill:#FF8D0C;}
	.st184{fill:#FFBF17;}
	.st185{fill:#FFF2EB;}
	.st186{fill:#FFD690;}
	.st187{fill:#FFE5BF;}
	.st188{fill:#F9C44E;}
	.st189{fill:#F9DCB2;}
	.st190{fill:#F9EAD7;}
	.st191{fill:#61AA6A;}
	.st192{fill:#DCD8A0;}
	.st193{fill:#F8F6D3;}
	.st194{fill:#E8E4BF;}
	.st195{fill:#F1CC5E;}
	.st196{fill:#BB8150;}
	.st197{fill:#D09059;}
	.st198{fill:#E3AA79;}
	.st199{fill:#6FC07F;}
	.st200{fill:#A56A2D;}
	.st201{fill:url(#SVGID_22_);}
	.st202{fill:#EFA68F;}
	.st203{fill:#F28B66;}
	.st204{fill-rule:evenodd;clip-rule:evenodd;fill:#999A9A;}
	.st205{fill-rule:evenodd;clip-rule:evenodd;fill:#F3C54B;}
	.st206{fill-rule:evenodd;clip-rule:evenodd;fill:#BBBABA;}
	.st207{fill-rule:evenodd;clip-rule:evenodd;fill:#009CB4;}
	.st208{fill:url(#SVGID_23_);}
	.st209{fill:#3F4E61;}
	.st210{fill:#BE6647;}
	.st211{fill:#404F5F;}
	.st212{fill:#117598;}
	.st213{opacity:0.5;fill:#FF6E86;}
</style>
<g id="Bathroom-icons">
</g>
<g id="Bathroom">
</g>
<g id="Bedroom-icons">
</g>
<g id="Bedroom">
</g>
<g id="icons">
	<g id="water_5_">
		<g id="water_3_">
			<path class="st71" d="M1643.6,445.1c8.9-0.1,16.6,7.4,16.4,16.8c-0.2,8.6-7.4,16.2-16.7,16.1c-8.8-0.1-16.3-7.3-16.2-16.6
				C1627.2,452.3,1634.5,445,1643.6,445.1z M1652.1,463.8c0-0.2,0-0.6-0.1-0.9c-0.2-1.4-0.7-2.7-1.4-4c-1.6-3.1-3.9-5.6-6.4-8
				c-0.4-0.4-1-0.4-1.4,0c-0.4,0.4-0.8,0.8-1.2,1.2c-1.9,2-3.7,4.1-5,6.5c-1.2,2.2-1.9,4.4-1.4,6.9c0.4,2.4,1.6,4.4,3.8,5.6
				c1.9,1,4,1.3,6.1,1c2-0.3,3.8-1.1,5.1-2.7C1651.5,467.9,1652,466,1652.1,463.8z"/>
			<path class="st72" d="M1652.1,463.8c0,2.2-0.5,4.1-1.9,5.6c-1.3,1.6-3.1,2.4-5.1,2.7c-2.1,0.3-4.2,0.1-6.1-1
				c-2.2-1.2-3.4-3.1-3.8-5.6c-0.4-2.5,0.2-4.8,1.4-6.9c1.3-2.4,3.1-4.5,5-6.5c0.4-0.4,0.8-0.8,1.2-1.2c0.4-0.4,1-0.4,1.4,0
				c2.5,2.4,4.8,5,6.4,8c0.7,1.2,1.2,2.5,1.4,4C1652,463.3,1652.1,463.7,1652.1,463.8z M1637.7,463.6c0.1,1.2,0.3,2.4,1,3.4
				c1.2,1.8,2.9,2.6,5,2.7c0.6,0,1.1-0.5,1.1-1c0-0.6-0.4-1-1-1.1c-0.1,0-0.2,0-0.3,0c-1.5-0.1-2.5-0.8-3.2-2.2
				c-0.3-0.6-0.4-1.3-0.4-2c0-0.5-0.3-0.9-0.8-1c-0.4-0.1-0.9,0.1-1.1,0.4C1637.7,463,1637.7,463.3,1637.7,463.6z"/>
			<path class="st71" d="M1637.7,463.6c0-0.3,0-0.6,0.2-0.9c0.3-0.4,0.7-0.5,1.1-0.4c0.5,0.1,0.8,0.5,0.8,1c0,0.7,0.1,1.4,0.4,2
				c0.6,1.3,1.7,2,3.2,2.2c0.1,0,0.2,0,0.3,0c0.6,0,1.1,0.5,1,1.1c0,0.6-0.5,1.1-1.1,1c-2.1-0.1-3.8-0.9-5-2.7
				C1638,466,1637.7,464.8,1637.7,463.6z"/>
		</g>
		<g id="water_2_">
			<path class="st71" d="M1313.6,680.1c8.9-0.1,16.6,7.4,16.4,16.8c-0.2,8.6-7.4,16.2-16.7,16.1c-8.8-0.1-16.3-7.3-16.2-16.6
				C1297.2,687.3,1304.5,680,1313.6,680.1z M1322.1,698.8c0-0.2,0-0.6-0.1-0.9c-0.2-1.4-0.7-2.7-1.4-4c-1.6-3.1-3.9-5.6-6.4-8
				c-0.4-0.4-1-0.4-1.4,0c-0.4,0.4-0.8,0.8-1.2,1.2c-1.9,2-3.7,4.1-5,6.5c-1.2,2.2-1.9,4.4-1.4,6.9c0.4,2.4,1.6,4.4,3.8,5.6
				c1.9,1,4,1.3,6.1,1c2-0.3,3.8-1.1,5.1-2.7C1321.5,702.9,1322,701,1322.1,698.8z"/>
			<path class="st72" d="M1322.1,698.8c0,2.2-0.5,4.1-1.9,5.6c-1.3,1.6-3.1,2.4-5.1,2.7c-2.1,0.3-4.2,0.1-6.1-1
				c-2.2-1.2-3.4-3.1-3.8-5.6c-0.4-2.5,0.2-4.8,1.4-6.9c1.3-2.4,3.1-4.5,5-6.5c0.4-0.4,0.8-0.8,1.2-1.2c0.4-0.4,1-0.4,1.4,0
				c2.5,2.4,4.8,5,6.4,8c0.7,1.2,1.2,2.5,1.4,4C1322,698.3,1322.1,698.7,1322.1,698.8z M1307.7,698.6c0.1,1.2,0.3,2.4,1,3.4
				c1.2,1.8,2.9,2.6,5,2.7c0.6,0,1.1-0.5,1.1-1c0-0.6-0.4-1-1-1.1c-0.1,0-0.2,0-0.3,0c-1.5-0.1-2.5-0.8-3.2-2.2
				c-0.3-0.6-0.4-1.3-0.4-2c0-0.5-0.3-0.9-0.8-1c-0.4-0.1-0.9,0.1-1.1,0.4C1307.7,698,1307.7,698.3,1307.7,698.6z"/>
			<path class="st71" d="M1307.7,698.6c0-0.3,0-0.6,0.2-0.9c0.3-0.4,0.7-0.5,1.1-0.4c0.5,0.1,0.8,0.5,0.8,1c0,0.7,0.1,1.4,0.4,2
				c0.6,1.3,1.7,2,3.2,2.2c0.1,0,0.2,0,0.3,0c0.6,0,1.1,0.5,1,1.1c0,0.6-0.5,1.1-1.1,1c-2.1-0.1-3.8-0.9-5-2.7
				C1308,701,1307.7,699.8,1307.7,698.6z"/>
		</g>
		<g id="water_1_">
			<path class="st71" d="M767.6,758.1c8.9-0.1,16.6,7.4,16.4,16.8c-0.2,8.6-7.4,16.2-16.7,16.1c-8.8-0.1-16.3-7.3-16.2-16.6
				C751.2,765.3,758.5,758,767.6,758.1z M776.1,776.8c0-0.2,0-0.6-0.1-0.9c-0.2-1.4-0.7-2.7-1.4-4c-1.6-3.1-3.9-5.6-6.4-8
				c-0.4-0.4-1-0.4-1.4,0c-0.4,0.4-0.8,0.8-1.2,1.2c-1.9,2-3.7,4.1-5,6.5c-1.2,2.2-1.9,4.4-1.4,6.9c0.4,2.4,1.6,4.4,3.8,5.6
				c1.9,1,4,1.3,6.1,1c2-0.3,3.8-1.1,5.1-2.7C775.5,780.9,776,779,776.1,776.8z"/>
			<path class="st72" d="M776.1,776.8c0,2.2-0.5,4.1-1.9,5.6c-1.3,1.6-3.1,2.4-5.1,2.7c-2.1,0.3-4.2,0.1-6.1-1
				c-2.2-1.2-3.4-3.1-3.8-5.6c-0.4-2.5,0.2-4.8,1.4-6.9c1.3-2.4,3.1-4.5,5-6.5c0.4-0.4,0.8-0.8,1.2-1.2c0.4-0.4,1-0.4,1.4,0
				c2.5,2.4,4.8,5,6.4,8c0.7,1.2,1.2,2.5,1.4,4C776,776.3,776.1,776.7,776.1,776.8z M761.7,776.6c0.1,1.2,0.3,2.4,1,3.4
				c1.2,1.8,2.9,2.6,5,2.7c0.6,0,1.1-0.5,1.1-1c0-0.6-0.4-1-1-1.1c-0.1,0-0.2,0-0.3,0c-1.5-0.1-2.5-0.8-3.2-2.2
				c-0.3-0.6-0.4-1.3-0.4-2c0-0.5-0.3-0.9-0.8-1c-0.4-0.1-0.9,0.1-1.1,0.4C761.7,776,761.7,776.3,761.7,776.6z"/>
			<path class="st71" d="M761.7,776.6c0-0.3,0-0.6,0.2-0.9c0.3-0.4,0.7-0.5,1.1-0.4c0.5,0.1,0.8,0.5,0.8,1c0,0.7,0.1,1.4,0.4,2
				c0.6,1.3,1.7,2,3.2,2.2c0.1,0,0.2,0,0.3,0c0.6,0,1.1,0.5,1,1.1c0,0.6-0.5,1.1-1.1,1c-2.1-0.1-3.8-0.9-5-2.7
				C762,779,761.7,777.8,761.7,776.6z"/>
		</g>
		<g id="water">
			<path class="st71" d="M344.6,751.1c8.9-0.1,16.6,7.4,16.4,16.8c-0.2,8.6-7.4,16.2-16.7,16.1c-8.8-0.1-16.3-7.3-16.2-16.6
				C328.2,758.3,335.5,751,344.6,751.1z M353.1,769.8c0-0.2,0-0.6-0.1-0.9c-0.2-1.4-0.7-2.7-1.4-4c-1.6-3.1-3.9-5.6-6.4-8
				c-0.4-0.4-1-0.4-1.4,0c-0.4,0.4-0.8,0.8-1.2,1.2c-1.9,2-3.7,4.1-5,6.5c-1.2,2.2-1.9,4.4-1.4,6.9c0.4,2.4,1.6,4.4,3.8,5.6
				c1.9,1,4,1.3,6.1,1c2-0.3,3.8-1.1,5.1-2.7C352.5,773.9,353,772,353.1,769.8z"/>
			<path class="st72" d="M353.1,769.8c0,2.2-0.5,4.1-1.9,5.6c-1.3,1.6-3.1,2.4-5.1,2.7c-2.1,0.3-4.2,0.1-6.1-1
				c-2.2-1.2-3.4-3.1-3.8-5.6c-0.4-2.5,0.2-4.8,1.4-6.9c1.3-2.4,3.1-4.5,5-6.5c0.4-0.4,0.8-0.8,1.2-1.2c0.4-0.4,1-0.4,1.4,0
				c2.5,2.4,4.8,5,6.4,8c0.7,1.2,1.2,2.5,1.4,4C353,769.3,353.1,769.7,353.1,769.8z M338.7,769.6c0.1,1.2,0.3,2.4,1,3.4
				c1.2,1.8,2.9,2.6,5,2.7c0.6,0,1.1-0.5,1.1-1c0-0.6-0.4-1-1-1.1c-0.1,0-0.2,0-0.3,0c-1.5-0.1-2.5-0.8-3.2-2.2
				c-0.3-0.6-0.4-1.3-0.4-2c0-0.5-0.3-0.9-0.8-1c-0.4-0.1-0.9,0.1-1.1,0.4C338.7,769,338.7,769.3,338.7,769.6z"/>
			<path class="st71" d="M338.7,769.6c0-0.3,0-0.6,0.2-0.9c0.3-0.4,0.7-0.5,1.1-0.4c0.5,0.1,0.8,0.5,0.8,1c0,0.7,0.1,1.4,0.4,2
				c0.6,1.3,1.7,2,3.2,2.2c0.1,0,0.2,0,0.3,0c0.6,0,1.1,0.5,1,1.1c0,0.6-0.5,1.1-1.1,1c-2.1-0.1-3.8-0.9-5-2.7
				C339,772,338.7,770.8,338.7,769.6z"/>
		</g>
	</g>
	<g id="light_24_">
		<g id="light_12_">
			<path class="st74" d="M439.4,103.6c8.4-0.1,15.5,6.9,15.5,15.5c0,8.6-7.1,15.6-15.7,15.5c-8.4-0.1-15.4-7.1-15.4-15.7
				C423.9,110.5,431.1,103.5,439.4,103.6z M439.1,124.2c0.9,0,1.7,0,2.6,0c0.6,0,0.6,0,0.7-0.6c0-0.1,0-0.1,0-0.2
				c0.2-1.2,0.8-2.1,1.5-3c1.2-1.6,2.1-3.2,2.3-5.3c0.1-1.5-0.1-3-1-4.2c-1.7-2.4-4.1-3.5-7-3.2c-2.6,0.3-4.5,1.7-5.6,4.1
				c-0.8,1.9-0.7,3.8,0.1,5.7c0.5,1.2,1.2,2.2,2,3.2c0.7,0.9,1.2,1.9,1.3,3.1c0,0.3,0.1,0.3,0.3,0.3
				C437.1,124.2,438.1,124.2,439.1,124.2z M439.1,126.6c0.8,0,1.6,0,2.4,0c0.9,0,0.9,0,0.9-0.9c0-0.3-0.1-0.3-0.4-0.3
				c-1.8,0-3.5,0-5.3,0c-0.9,0-0.9,0-0.9,0.9c0,0.3,0.1,0.3,0.3,0.3C437.1,126.6,438.1,126.6,439.1,126.6z M439.1,127.7
				c-1,0-2,0-2.9,0c-0.3,0-0.4,0.1-0.3,0.4c0.2,0.5,0.6,0.8,1,0.8c1.4,0,2.8,0,4.3,0c0.5,0,0.9-0.4,1.1-0.9c0.1-0.2,0-0.3-0.2-0.3
				C441.1,127.7,440.1,127.7,439.1,127.7z M439.1,129.5c-0.3,0-0.6,0-0.9,0c-0.3,0-0.3,0.1-0.3,0.3c0.1,0.5,0.6,0.9,1.2,0.9
				c0.5,0,1-0.4,1.1-0.9c0.1-0.2,0-0.3-0.2-0.3C439.7,129.5,439.4,129.5,439.1,129.5z"/>
			<path d="M439.1,124.2c-1,0-1.9,0-2.9,0c-0.2,0-0.3,0-0.3-0.3c-0.1-1.2-0.6-2.2-1.3-3.1c-0.7-1-1.5-2-2-3.2
				c-0.7-1.9-0.9-3.8-0.1-5.7c1.1-2.4,3-3.8,5.6-4.1c2.9-0.4,5.3,0.7,7,3.2c0.9,1.3,1.1,2.7,1,4.2c-0.1,2-1.1,3.7-2.3,5.3
				c-0.7,0.9-1.3,1.9-1.5,3c0,0.1,0,0.1,0,0.2c-0.1,0.6-0.1,0.6-0.7,0.6C440.8,124.2,440,124.2,439.1,124.2z M433.6,113.7
				c0,0.4,0.2,0.7,0.5,0.8c0.3,0,0.6-0.2,0.7-0.6c0.3-1.5,1.2-2.6,2.7-3.2c0.4-0.2,0.6-0.5,0.5-0.8c-0.2-0.4-0.5-0.5-0.9-0.3
				c-0.9,0.4-1.7,1-2.4,1.8C434.1,112.1,433.7,112.9,433.6,113.7z"/>
			<path d="M439.1,126.6c-1,0-1.9,0-2.9,0c-0.2,0-0.3,0-0.3-0.3c0-0.9,0-0.9,0.9-0.9c1.8,0,3.5,0,5.3,0c0.3,0,0.4,0,0.4,0.3
				c0,0.9,0,0.9-0.9,0.9C440.7,126.6,439.9,126.6,439.1,126.6z"/>
			<path d="M439.1,127.7c1,0,2,0,2.9,0c0.3,0,0.3,0.1,0.2,0.3c-0.1,0.5-0.6,0.9-1.1,0.9c-1.4,0-2.8,0-4.3,0c-0.5,0-0.9-0.3-1-0.8
				c-0.1-0.3-0.1-0.4,0.3-0.4C437.2,127.7,438.1,127.7,439.1,127.7z"/>
			<path d="M439.1,129.5c0.3,0,0.6,0,0.9,0c0.2,0,0.3,0,0.2,0.3c-0.1,0.5-0.5,0.9-1.1,0.9c-0.6,0-1.1-0.3-1.2-0.9
				c-0.1-0.2,0-0.3,0.3-0.3C438.5,129.5,438.8,129.5,439.1,129.5z"/>
			<path class="st74" d="M433.6,113.7c0.1-0.8,0.5-1.6,1-2.3c0.6-0.8,1.4-1.4,2.4-1.8c0.4-0.2,0.8,0,0.9,0.3c0.1,0.3,0,0.6-0.5,0.8
				c-1.4,0.6-2.3,1.7-2.7,3.2c-0.1,0.4-0.4,0.6-0.7,0.6C433.8,114.4,433.6,114.1,433.6,113.7z"/>
		</g>
		<g id="light_20_">
			<path class="st74" d="M1353.4,103.6c8.4-0.1,15.5,6.9,15.5,15.5c0,8.6-7.1,15.6-15.7,15.5c-8.4-0.1-15.4-7.1-15.4-15.7
				C1337.9,110.5,1345.1,103.5,1353.4,103.6z M1353.1,124.2c0.9,0,1.7,0,2.6,0c0.6,0,0.6,0,0.7-0.6c0-0.1,0-0.1,0-0.2
				c0.2-1.2,0.8-2.1,1.5-3c1.2-1.6,2.1-3.2,2.3-5.3c0.1-1.5-0.1-3-1-4.2c-1.7-2.4-4.1-3.5-7-3.2c-2.6,0.3-4.5,1.7-5.6,4.1
				c-0.8,1.9-0.7,3.8,0.1,5.7c0.5,1.2,1.2,2.2,2,3.2c0.7,0.9,1.2,1.9,1.3,3.1c0,0.3,0.1,0.3,0.3,0.3
				C1351.1,124.2,1352.1,124.2,1353.1,124.2z M1353.1,126.6c0.8,0,1.6,0,2.4,0c0.9,0,0.9,0,0.9-0.9c0-0.3-0.1-0.3-0.4-0.3
				c-1.8,0-3.5,0-5.3,0c-0.9,0-0.9,0-0.9,0.9c0,0.3,0.1,0.3,0.3,0.3C1351.1,126.6,1352.1,126.6,1353.1,126.6z M1353.1,127.7
				c-1,0-2,0-2.9,0c-0.3,0-0.4,0.1-0.3,0.4c0.2,0.5,0.6,0.8,1,0.8c1.4,0,2.8,0,4.3,0c0.5,0,0.9-0.4,1.1-0.9c0.1-0.2,0-0.3-0.2-0.3
				C1355.1,127.7,1354.1,127.7,1353.1,127.7z M1353.1,129.5c-0.3,0-0.6,0-0.9,0c-0.3,0-0.3,0.1-0.3,0.3c0.1,0.5,0.6,0.9,1.2,0.9
				c0.5,0,1-0.4,1.1-0.9c0.1-0.2,0-0.3-0.2-0.3C1353.7,129.5,1353.4,129.5,1353.1,129.5z"/>
			<path d="M1353.1,124.2c-1,0-1.9,0-2.9,0c-0.2,0-0.3,0-0.3-0.3c-0.1-1.2-0.6-2.2-1.3-3.1c-0.7-1-1.5-2-2-3.2
				c-0.7-1.9-0.9-3.8-0.1-5.7c1.1-2.4,3-3.8,5.6-4.1c2.9-0.4,5.3,0.7,7,3.2c0.9,1.3,1.1,2.7,1,4.2c-0.1,2-1.1,3.7-2.3,5.3
				c-0.7,0.9-1.3,1.9-1.5,3c0,0.1,0,0.1,0,0.2c-0.1,0.6-0.1,0.6-0.7,0.6C1354.8,124.2,1354,124.2,1353.1,124.2z M1347.6,113.7
				c0,0.4,0.2,0.7,0.5,0.8c0.3,0,0.6-0.2,0.7-0.6c0.3-1.5,1.2-2.6,2.7-3.2c0.4-0.2,0.6-0.5,0.5-0.8c-0.2-0.4-0.5-0.5-0.9-0.3
				c-0.9,0.4-1.7,1-2.4,1.8C1348.1,112.1,1347.7,112.9,1347.6,113.7z"/>
			<path d="M1353.1,126.6c-1,0-1.9,0-2.9,0c-0.2,0-0.3,0-0.3-0.3c0-0.9,0-0.9,0.9-0.9c1.8,0,3.5,0,5.3,0c0.3,0,0.4,0,0.4,0.3
				c0,0.9,0,0.9-0.9,0.9C1354.7,126.6,1353.9,126.6,1353.1,126.6z"/>
			<path d="M1353.1,127.7c1,0,2,0,2.9,0c0.3,0,0.3,0.1,0.2,0.3c-0.1,0.5-0.6,0.9-1.1,0.9c-1.4,0-2.8,0-4.3,0c-0.5,0-0.9-0.3-1-0.8
				c-0.1-0.3-0.1-0.4,0.3-0.4C1351.2,127.7,1352.1,127.7,1353.1,127.7z"/>
			<path d="M1353.1,129.5c0.3,0,0.6,0,0.9,0c0.2,0,0.3,0,0.2,0.3c-0.1,0.5-0.5,0.9-1.1,0.9c-0.6,0-1.1-0.3-1.2-0.9
				c-0.1-0.2,0-0.3,0.3-0.3C1352.5,129.5,1352.8,129.5,1353.1,129.5z"/>
			<path class="st74" d="M1347.6,113.7c0.1-0.8,0.5-1.6,1-2.3c0.6-0.8,1.4-1.4,2.4-1.8c0.4-0.2,0.8,0,0.9,0.3c0.1,0.3,0,0.6-0.5,0.8
				c-1.4,0.6-2.3,1.7-2.7,3.2c-0.1,0.4-0.4,0.6-0.7,0.6C1347.8,114.4,1347.6,114.1,1347.6,113.7z"/>
		</g>
	</g>
</g>
<g id="Kitchen">
</g>
<g id="Livingroom-icons">
</g>
<g id="Livingroom">
</g>
</svg>
