<?xml version="1.0" encoding="utf-8"?>
<!-- Generator: Adobe Illustrator 24.3.0, SVG Export Plug-In . SVG Version: 6.00 Build 0)  -->
<svg version="1.1" xmlns="http://www.w3.org/2000/svg" xmlns:xlink="http://www.w3.org/1999/xlink" x="0px" y="0px"
	 viewBox="0 0 1920 1080" style="enable-background:new 0 0 1920 1080;" xml:space="preserve">
<style type="text/css">
	.st0{fill:#D8E9F0;}
	.st1{fill:#3687A4;}
	.st2{fill:#ADDDEC;}
	.st3{opacity:0.4;fill:#FFFFFF;}
	.st4{fill:#FFFFFF;}
	.st5{fill:#A6DEF6;}
	.st6{fill:#FBC45E;}
	.st7{fill:#E89BBE;}
	.st8{fill:#7A8EC7;}
	.st9{fill:none;stroke:#FFFFFF;stroke-width:6;stroke-miterlimit:10;}
	.st10{fill:#C1E6EC;}
	.st11{fill:#FFFFFF;stroke:#FFFFFF;stroke-width:4;stroke-miterlimit:10;}
	.st12{fill:#CBDF8C;}
	.st13{fill:none;stroke:#FFFFFF;stroke-width:2;stroke-miterlimit:10;}
	.st14{fill:#838186;stroke:#838186;stroke-width:4;stroke-miterlimit:10;}
	.st15{fill:#838186;}
	.st16{fill:#DFDFDF;}
	.st17{fill:none;stroke:#FFFFFF;stroke-width:28;stroke-miterlimit:10;}
	.st18{fill:url(#SVGID_1_);}
	.st19{fill:url(#SVGID_2_);}
	.st20{fill:#BFE3D3;}
	.st21{fill:#ADCEC1;}
	.st22{fill:#58C5C7;}
	.st23{fill:#00B6BE;}
	.st24{fill:#DDBCC8;}
	.st25{fill:#BCAB92;}
	.st26{fill:#D6A1B7;}
	.st27{fill:#261F44;}
	.st28{opacity:0.44;fill:#5F5F60;}
	.st29{fill:none;stroke:#998675;stroke-width:2;stroke-miterlimit:10;}
	.st30{fill:url(#SVGID_3_);}
	.st31{fill:url(#SVGID_4_);}
	.st32{fill:url(#SVGID_5_);}
	.st33{fill:url(#SVGID_6_);}
	.st34{fill:url(#SVGID_7_);}
	.st35{fill:url(#SVGID_8_);}
	.st36{fill:url(#SVGID_9_);}
	.st37{fill:url(#SVGID_10_);}
	.st38{fill:url(#SVGID_11_);}
	.st39{fill:url(#SVGID_12_);}
	.st40{fill:url(#SVGID_13_);}
	.st41{fill:url(#SVGID_14_);}
	.st42{fill:url(#SVGID_15_);}
	.st43{fill:url(#SVGID_16_);}
	.st44{fill:url(#SVGID_17_);}
	.st45{fill:url(#SVGID_18_);}
	.st46{fill:url(#SVGID_19_);}
	.st47{fill:#454289;}
	.st48{fill:#38327C;}
	.st49{fill:#E6E6E6;}
	.st50{fill:#FF4370;}
	.st51{fill:#E53C70;}
	.st52{fill:#FF6699;}
	.st53{opacity:0.23;fill:#E53C70;}
	.st54{fill:#3F4650;}
	.st55{fill:#0267B6;}
	.st56{fill:#2BB03E;}
	.st57{fill:#EA2023;}
	.st58{fill:#FBED23;}
	.st59{fill:#0E6B7A;}
	.st60{opacity:0.64;fill:url(#SVGID_20_);}
	.st61{fill:none;stroke:#FFFFFF;stroke-width:8.0256;stroke-miterlimit:10;}
	.st62{fill:none;stroke:#FF4370;stroke-width:1.3376;stroke-miterlimit:10;}
	.st63{fill:#FF83B3;}
	.st64{fill:#EBB724;}
	.st65{fill:#FFC727;}
	.st66{fill:#50ACB0;}
	.st67{fill:#FD8283;}
	.st68{fill:#F07B7C;}
	.st69{fill:#3C8185;}
	.st70{display:none;fill:#3C8185;}
	.st71{fill:#92D1DF;}
	.st72{fill:#010101;}
	.st73{fill:#FDEE40;}
	.st74{fill:#020202;}
	.st75{fill:#76B62A;}
	.st76{fill:#FAB924;}
	.st77{fill:#F20303;}
	.st78{fill:#ABD2D0;}
	.st79{fill:#968976;}
	.st80{fill:#70675B;}
	.st81{fill:#E4DECE;}
	.st82{fill:#93B7B6;}
	.st83{fill:#C9F9F9;}
	.st84{fill:none;stroke:#FFFFFF;stroke-width:2.9103;stroke-miterlimit:10;}
	.st85{fill:#F1893A;}
	.st86{fill:#C96E31;}
	.st87{fill:#DB7838;}
	.st88{fill:#2F3E4C;}
	.st89{fill:#87A978;}
	.st90{fill:#93BD85;}
	.st91{fill:#ACDA99;}
	.st92{fill:#475362;}
	.st93{fill:#627289;}
	.st94{fill:#303846;}
	.st95{fill:#41505E;}
	.st96{fill:none;stroke:#87A978;stroke-width:1.1982;stroke-miterlimit:10;}
	.st97{fill:#B4E6A1;}
	.st98{fill:none;stroke:#87A978;stroke-width:0.8558;stroke-miterlimit:10;}
	.st99{fill:#6E8462;}
	.st100{fill-rule:evenodd;clip-rule:evenodd;fill:#F0EEE6;}
	.st101{fill:#E4E0D9;}
	.st102{fill:#FFDD83;}
	.st103{fill:#219260;}
	.st104{fill:#147798;}
	.st105{fill:#915E36;}
	.st106{fill:#FB8710;}
	.st107{fill:#CA9E64;}
	.st108{fill:#B07F48;}
	.st109{fill:#53D678;}
	.st110{fill:#5C4B51;}
	.st111{fill:#F06060;}
	.st112{fill:#F2EBBF;}
	.st113{fill:none;stroke:#5C4B51;stroke-width:3.4462;stroke-linecap:round;stroke-linejoin:round;stroke-miterlimit:10;}
	.st114{opacity:0.38;fill:none;stroke:#FFFFFF;stroke-width:7;stroke-linecap:round;stroke-linejoin:round;stroke-miterlimit:10;}
	.st115{fill:#DC9C76;}
	.st116{fill:#729C76;}
	.st117{fill:#A94B51;}
	.st118{fill:#974B51;}
	.st119{opacity:0.5;fill:#CC575E;}
	.st120{fill:#7F9C76;}
	.st121{fill:#5C4B7A;}
	.st122{fill:#F03960;}
	.st123{fill:#FFC783;}
	.st124{fill:#5C1A51;}
	.st125{fill:#52BEB2;}
	.st126{fill:#F0A660;}
	.st127{fill:#F3B562;}
	.st128{fill:#F27800;}
	.st129{fill:#613D4A;}
	.st130{fill:#004F4D;}
	.st131{fill:#007F4F;}
	.st132{fill:#00654D;}
	.st133{fill:#F59333;}
	.st134{fill:#F1ECDA;}
	.st135{fill:#88A8A7;}
	.st136{fill:url(#SVGID_21_);}
	.st137{fill:#E6E7E8;}
	.st138{fill:#D1D3D4;}
	.st139{fill:#FDBA4A;}
	.st140{fill:#FAA222;}
	.st141{fill:#D3DEBC;}
	.st142{fill:#CC883B;}
	.st143{fill-rule:evenodd;clip-rule:evenodd;fill:#919697;}
	.st144{fill-rule:evenodd;clip-rule:evenodd;fill:#36343A;}
	.st145{fill-rule:evenodd;clip-rule:evenodd;fill:#0C050D;stroke:#0C050D;stroke-width:0.235;stroke-miterlimit:22.9256;}
	.st146{fill-rule:evenodd;clip-rule:evenodd;fill:#36343A;stroke:#0C050D;stroke-width:0.235;stroke-miterlimit:22.9256;}
	.st147{fill-rule:evenodd;clip-rule:evenodd;fill:#7D8082;}
	.st148{fill-rule:evenodd;clip-rule:evenodd;fill:#5BBA47;}
	.st149{fill-rule:evenodd;clip-rule:evenodd;fill:#818081;}
	.st150{fill-rule:evenodd;clip-rule:evenodd;fill:#666264;}
	.st151{fill-rule:evenodd;clip-rule:evenodd;fill:#3B3438;}
	.st152{fill-rule:evenodd;clip-rule:evenodd;fill:#62C3D2;}
	.st153{fill-rule:evenodd;clip-rule:evenodd;fill:#A0D6E1;}
	.st154{fill-rule:evenodd;clip-rule:evenodd;fill:#00B6E8;}
	.st155{fill-rule:evenodd;clip-rule:evenodd;fill:#232938;}
	.st156{fill-rule:evenodd;clip-rule:evenodd;fill:#E5B249;}
	.st157{fill-rule:evenodd;clip-rule:evenodd;fill:#D4C2AB;}
	.st158{fill-rule:evenodd;clip-rule:evenodd;fill:#E1894A;}
	.st159{fill-rule:evenodd;clip-rule:evenodd;fill:#FFFFFF;}
	.st160{fill:#232938;}
	.st161{fill:#A9B392;}
	.st162{fill:#E5B249;}
	.st163{fill-rule:evenodd;clip-rule:evenodd;fill:#A9B392;}
	.st164{fill:#ECECEC;}
	.st165{fill:#BEC3C7;}
	.st166{fill:#DAE0E2;}
	.st167{fill:#F45A2A;}
	.st168{fill:#F67B46;}
	.st169{fill:#E73F1F;}
	.st170{fill:#E1894A;}
	.st171{fill:#0A837F;}
	.st172{fill:#1DA19F;}
	.st173{fill:#3A6B34;}
	.st174{fill:#96BCBB;}
	.st175{fill:#68858E;}
	.st176{fill:#69935F;}
	.st177{fill:#B75353;}
	.st178{fill:#E0A76E;}
	.st179{fill:#F0D1BC;}
	.st180{fill:#1D2E35;}
	.st181{fill:#272A33;}
	.st182{fill:#563B31;}
	.st183{fill:#462D23;}
	.st184{fill:#FF8D0C;}
	.st185{fill:#FFBF17;}
	.st186{fill:#FFF2EB;}
	.st187{fill:#FFD690;}
	.st188{fill:#FFE5BF;}
	.st189{fill:#F9C44E;}
	.st190{fill:#F9DCB2;}
	.st191{fill:#F9EAD7;}
	.st192{fill:#61AA6A;}
	.st193{fill:#DCD8A0;}
	.st194{fill:#F8F6D3;}
	.st195{fill:#E8E4BF;}
	.st196{fill:#F1CC5E;}
	.st197{fill:#BB8150;}
	.st198{fill:#D09059;}
	.st199{fill:#E3AA79;}
	.st200{fill:#6FC07F;}
	.st201{fill:#A56A2D;}
	.st202{fill:url(#SVGID_22_);}
	.st203{fill:#EFA68F;}
	.st204{fill:#F28B66;}
	.st205{fill-rule:evenodd;clip-rule:evenodd;fill:#999A9A;}
	.st206{fill-rule:evenodd;clip-rule:evenodd;fill:#F3C54B;}
	.st207{fill-rule:evenodd;clip-rule:evenodd;fill:#BBBABA;}
	.st208{fill-rule:evenodd;clip-rule:evenodd;fill:#009CB4;}
	.st209{fill:url(#SVGID_23_);}
	.st210{fill:#3F4E61;}
	.st211{fill:#BE6647;}
	.st212{fill:#404F5F;}
	.st213{fill:#117598;}
	.st214{opacity:0.5;fill:#FF6E86;}
</style>
<g id="Bathroom-icons">
</g>
<g id="Bathroom">
</g>
<g id="Bedroom-icons">
</g>
<g id="Bedroom">
</g>
<g id="icons">
	<g id="heat">
		<path class="st73" d="M1763.2,745.1c14.1-0.1,26,11.5,26,26c0,14.4-11.8,26.2-26.4,26c-14.1-0.1-25.9-11.8-25.8-26.3
			C1737.1,756.7,1748.9,745,1763.2,745.1z M1753.8,786C1753.8,786,1753.8,786,1753.8,786c0,0.4,0,0.8,0,1.2c0.1,1.1,0.5,1.3,1.4,0.7
			c0.7-0.4,1.3-1,1.9-1.4c0.8-0.6,1.2-0.5,1.5,0.5c0.3,0.8,0.5,1.6,0.7,2.4c0.4,1,0.8,1.1,1.5,0.2c0.5-0.6,0.9-1.3,1.4-1.9
			c0.7-0.9,1-0.9,1.7,0c0.5,0.7,0.9,1.4,1.4,2c0.6,0.8,1.1,0.7,1.4-0.2c0.3-0.8,0.5-1.6,0.8-2.3c0.4-1,0.7-1.1,1.6-0.5
			c0.7,0.5,1.3,1,2,1.5c0.7,0.5,1.1,0.3,1.2-0.6c0.1-0.9-0.1-1.8,0-2.7c0.1-0.9,0.4-1.1,1.3-0.9c0.7,0.2,1.5,0.5,2.2,0.8
			c0.4,0.1,0.8,0.3,1.2,0c0.3-0.3,0.2-0.8,0-1.2c-0.2-0.7-0.5-1.4-0.7-2.1c-0.3-1-0.1-1.4,1-1.4c0.8,0,1.6,0.1,2.3,0.1
			c1.1,0,1.3-0.5,0.7-1.4c-0.4-0.7-1-1.3-1.4-1.9c-0.6-0.8-0.4-1.2,0.5-1.5c0.8-0.3,1.6-0.5,2.4-0.7c0.9-0.3,1-0.8,0.2-1.4
			c-0.6-0.5-1.3-0.9-2-1.5c-0.8-0.6-0.8-1,0-1.6c0.4-0.3,0.9-0.6,1.3-0.9c0.3-0.2,0.6-0.4,0.9-0.7c0.5-0.5,0.4-0.8-0.2-1.1
			c-0.2-0.1-0.5-0.2-0.7-0.3c-0.6-0.2-1.2-0.4-1.8-0.6c-1-0.4-1.1-0.7-0.5-1.6c0.5-0.7,1-1.3,1.5-1.9c0.6-0.8,0.4-1.3-0.6-1.3
			c-0.9,0-1.7,0-2.6,0c-0.9,0-1.1-0.4-0.9-1.2c0.2-0.8,0.6-1.6,0.8-2.4c0.3-1.1,0-1.4-1.1-1.1c-0.8,0.2-1.6,0.5-2.4,0.8
			c-0.9,0.2-1.1,0.1-1.2-0.8c0-0.8,0-1.6,0-2.5c0-0.4,0-0.9-0.4-1.1c-0.4-0.2-0.8,0.1-1.1,0.3c-0.6,0.4-1.2,0.9-1.8,1.3
			c-0.9,0.6-1.3,0.5-1.6-0.5c-0.2-0.7-0.4-1.4-0.6-2.1c-0.1-0.4-0.2-0.9-0.7-0.9c-0.5-0.1-0.7,0.3-1,0.7c-0.4,0.6-0.8,1.2-1.3,1.8
			c-0.7,0.8-1,0.8-1.7,0c-0.5-0.6-0.9-1.3-1.3-1.9c-0.2-0.3-0.5-0.7-0.9-0.7c-0.5,0.1-0.6,0.5-0.7,0.9c-0.1,0.3-0.2,0.5-0.3,0.8
			c-0.2,0.5-0.3,1.1-0.6,1.6c-0.3,0.7-0.6,0.8-1.2,0.4c-0.5-0.3-1-0.7-1.4-1.1c-0.4-0.3-0.7-0.6-1.1-0.8c-0.5-0.2-0.8-0.1-0.9,0.4
			c-0.1,0.3-0.1,0.5-0.1,0.8c0,0.7,0,1.4,0,2.2c0,0.9-0.4,1.2-1.3,0.9c-0.8-0.2-1.6-0.6-2.4-0.8c-1-0.3-1.3,0-1.1,1
			c0.1,0.4,0.2,0.7,0.3,1.1c0.2,0.5,0.4,1,0.5,1.5c0.2,0.7,0,1-0.7,1.1c-0.4,0-0.7,0-1.1,0c-0.7,0-1.4-0.1-2,0
			c-0.6,0.1-0.7,0.4-0.5,0.9c0.2,0.5,0.5,0.9,0.9,1.3c0.3,0.5,0.7,0.9,1,1.4c0.3,0.5,0.1,0.8-0.4,1c-0.4,0.2-0.9,0.3-1.3,0.4
			c-0.6,0.2-1.2,0.3-1.8,0.6c-0.5,0.3-0.5,0.6-0.2,1c0.3,0.4,0.8,0.7,1.2,1c0.5,0.3,1,0.7,1.4,1.1c0.4,0.4,0.4,0.7,0,1.1
			c-0.4,0.4-0.8,0.6-1.2,0.9c-0.3,0.2-0.7,0.4-1,0.7c-0.3,0.2-0.7,0.5-0.6,0.9c0.1,0.4,0.5,0.5,0.8,0.7c0.5,0.2,1.1,0.3,1.6,0.5
			c0.4,0.1,0.7,0.2,1,0.4c0.4,0.2,0.5,0.5,0.3,1c-0.2,0.5-0.6,0.9-0.9,1.3c-0.4,0.5-0.8,0.9-1,1.5c-0.2,0.5-0.1,0.8,0.5,0.9
			c0.2,0,0.5,0,0.7,0c0.8,0,1.6,0,2.3,0c0.7,0,1,0.3,0.8,1.1c-0.2,0.8-0.5,1.5-0.8,2.3c-0.1,0.4-0.4,0.9,0,1.3
			c0.4,0.4,0.9,0.1,1.3,0c0.8-0.2,1.5-0.6,2.3-0.8c0.6-0.1,0.9,0.1,1,0.7C1753.9,785,1753.8,785.5,1753.8,786z"/>
		<path class="st74" d="M1753.8,786c0-0.5,0-1,0-1.5c0-0.7-0.3-0.9-1-0.7c-0.8,0.2-1.6,0.5-2.3,0.8c-0.4,0.1-0.9,0.4-1.3,0
			c-0.4-0.4-0.1-0.9,0-1.3c0.2-0.8,0.5-1.5,0.8-2.3c0.2-0.7,0-1-0.8-1.1c-0.8,0-1.6,0-2.3,0c-0.2,0-0.5,0-0.7,0
			c-0.6-0.1-0.7-0.4-0.5-0.9c0.3-0.5,0.7-1,1-1.5c0.3-0.4,0.7-0.8,0.9-1.3c0.2-0.4,0.1-0.8-0.3-1c-0.3-0.2-0.7-0.3-1-0.4
			c-0.5-0.2-1.1-0.3-1.6-0.5c-0.3-0.1-0.8-0.2-0.8-0.7c-0.1-0.5,0.3-0.7,0.6-0.9c0.3-0.3,0.7-0.5,1-0.7c0.4-0.3,0.9-0.6,1.2-0.9
			c0.4-0.4,0.4-0.7,0-1.1c-0.4-0.4-0.9-0.7-1.4-1.1c-0.4-0.3-0.9-0.6-1.2-1c-0.4-0.4-0.3-0.7,0.2-1c0.6-0.3,1.2-0.4,1.8-0.6
			c0.4-0.1,0.9-0.3,1.3-0.4c0.5-0.2,0.6-0.6,0.4-1c-0.3-0.5-0.6-1-1-1.4c-0.3-0.4-0.7-0.8-0.9-1.3c-0.2-0.5-0.1-0.8,0.5-0.9
			c0.7-0.1,1.4,0,2,0c0.4,0,0.7,0,1.1,0c0.7-0.1,0.9-0.4,0.7-1.1c-0.1-0.5-0.3-1-0.5-1.5c-0.1-0.4-0.2-0.7-0.3-1.1
			c-0.2-1,0.1-1.3,1.1-1c0.8,0.2,1.6,0.6,2.4,0.8c0.9,0.3,1.2,0.1,1.3-0.9c0-0.7,0-1.4,0-2.2c0-0.3,0-0.5,0.1-0.8
			c0.1-0.5,0.4-0.7,0.9-0.4c0.4,0.2,0.8,0.5,1.1,0.8c0.5,0.4,0.9,0.7,1.4,1.1c0.6,0.4,0.9,0.3,1.2-0.4c0.2-0.5,0.4-1.1,0.6-1.6
			c0.1-0.3,0.2-0.6,0.3-0.8c0.2-0.4,0.2-0.9,0.7-0.9c0.4-0.1,0.7,0.3,0.9,0.7c0.4,0.6,0.8,1.3,1.3,1.9c0.7,0.9,1,0.9,1.7,0
			c0.5-0.6,0.9-1.2,1.3-1.8c0.2-0.3,0.5-0.7,1-0.7c0.5,0.1,0.6,0.5,0.7,0.9c0.2,0.7,0.4,1.4,0.6,2.1c0.4,1,0.7,1.2,1.6,0.5
			c0.6-0.4,1.2-0.9,1.8-1.3c0.3-0.2,0.7-0.6,1.1-0.3c0.4,0.2,0.4,0.7,0.4,1.1c0,0.8-0.1,1.6,0,2.5c0,0.9,0.3,1,1.2,0.8
			c0.8-0.2,1.6-0.5,2.4-0.8c1.1-0.3,1.4,0,1.1,1.1c-0.2,0.8-0.6,1.6-0.8,2.4c-0.2,0.8,0,1.2,0.9,1.2c0.9,0,1.7,0,2.6,0
			c1,0,1.2,0.5,0.6,1.3c-0.5,0.7-1,1.3-1.5,1.9c-0.7,0.9-0.5,1.2,0.5,1.6c0.6,0.2,1.2,0.4,1.8,0.6c0.3,0.1,0.5,0.2,0.7,0.3
			c0.6,0.3,0.7,0.7,0.2,1.1c-0.3,0.3-0.6,0.5-0.9,0.7c-0.4,0.3-0.9,0.6-1.3,0.9c-0.8,0.6-0.8,1,0,1.6c0.6,0.5,1.4,0.9,2,1.5
			c0.8,0.6,0.7,1.1-0.2,1.4c-0.8,0.3-1.6,0.5-2.4,0.7c-0.9,0.3-1.1,0.7-0.5,1.5c0.4,0.7,1,1.3,1.4,1.9c0.6,0.9,0.4,1.4-0.7,1.4
			c-0.8,0-1.6-0.1-2.3-0.1c-1.1,0-1.3,0.3-1,1.4c0.2,0.7,0.5,1.4,0.7,2.1c0.1,0.4,0.3,0.8,0,1.2c-0.3,0.3-0.8,0.1-1.2,0
			c-0.7-0.2-1.5-0.5-2.2-0.8c-0.9-0.3-1.2,0-1.3,0.9c-0.1,0.9,0.1,1.8,0,2.7c-0.1,0.9-0.5,1.1-1.2,0.6c-0.7-0.5-1.3-1-2-1.5
			c-0.9-0.6-1.3-0.5-1.6,0.5c-0.3,0.8-0.5,1.6-0.8,2.3c-0.3,0.9-0.8,1-1.4,0.2c-0.5-0.6-0.9-1.4-1.4-2c-0.7-0.9-1-0.9-1.7,0
			c-0.5,0.6-0.9,1.3-1.4,1.9c-0.7,0.9-1.1,0.8-1.5-0.2c-0.3-0.8-0.5-1.6-0.7-2.4c-0.3-0.9-0.7-1.1-1.5-0.5c-0.7,0.4-1.3,1-1.9,1.4
			c-0.9,0.6-1.3,0.4-1.4-0.7C1753.8,786.8,1753.8,786.4,1753.8,786C1753.8,786,1753.8,786,1753.8,786z M1777.1,770.7
			c0-7.6-6.2-13.8-13.8-13.8c-7.7,0-13.9,6.2-13.9,13.9c0,7.7,6.2,13.8,14,13.8C1770.9,784.6,1777.1,778.3,1777.1,770.7z"/>
		<path class="st73" d="M1777.1,770.7c0,7.5-6.2,13.8-13.6,13.8c-7.8,0-14-6.1-14-13.8c0-7.7,6.2-13.9,13.9-13.9
			C1770.9,756.9,1777.1,763.1,1777.1,770.7z M1752.7,770.7c0,5.9,4.7,10.6,10.6,10.6c5.8,0,10.6-4.7,10.6-10.4
			c0-6-4.6-10.8-10.5-10.8C1757.4,760.1,1752.7,764.8,1752.7,770.7z"/>
		<path class="st74" d="M1752.7,770.7c0-5.9,4.7-10.6,10.7-10.6c5.9,0,10.5,4.8,10.5,10.8c0,5.7-4.8,10.4-10.6,10.4
			C1757.4,781.3,1752.7,776.6,1752.7,770.7z"/>
	</g>
	<g id="light">
		<path class="st75" d="M498.4,747.6c8.4-0.1,15.5,6.9,15.5,15.5c0,8.6-7.1,15.6-15.7,15.5c-8.4-0.1-15.4-7.1-15.4-15.7
			C482.9,754.5,490.1,747.5,498.4,747.6z M498.1,768.2c0.9,0,1.7,0,2.6,0c0.6,0,0.6,0,0.7-0.6c0-0.1,0-0.1,0-0.2
			c0.2-1.2,0.8-2.1,1.5-3c1.2-1.6,2.1-3.2,2.3-5.3c0.1-1.5-0.1-3-1-4.2c-1.7-2.4-4.1-3.5-7-3.2c-2.6,0.3-4.5,1.7-5.6,4.1
			c-0.8,1.9-0.7,3.8,0.1,5.7c0.5,1.2,1.2,2.2,2,3.2c0.7,0.9,1.2,1.9,1.3,3.1c0,0.3,0.1,0.3,0.3,0.3
			C496.1,768.2,497.1,768.2,498.1,768.2z M498.1,770.6c0.8,0,1.6,0,2.4,0c0.9,0,0.9,0,0.9-0.9c0-0.3-0.1-0.3-0.4-0.3
			c-1.8,0-3.5,0-5.3,0c-0.9,0-0.9,0-0.9,0.9c0,0.3,0.1,0.3,0.3,0.3C496.1,770.6,497.1,770.6,498.1,770.6z M498.1,771.7
			c-1,0-2,0-2.9,0c-0.3,0-0.4,0.1-0.3,0.4c0.2,0.5,0.6,0.8,1,0.8c1.4,0,2.8,0,4.3,0c0.5,0,0.9-0.4,1.1-0.9c0.1-0.2,0-0.3-0.2-0.3
			C500.1,771.7,499.1,771.7,498.1,771.7z M498.1,773.5c-0.3,0-0.6,0-0.9,0c-0.3,0-0.3,0.1-0.3,0.3c0.1,0.5,0.6,0.9,1.2,0.9
			c0.5,0,1-0.4,1.1-0.9c0.1-0.2,0-0.3-0.2-0.3C498.7,773.5,498.4,773.5,498.1,773.5z"/>
		<path d="M498.1,768.2c-1,0-1.9,0-2.9,0c-0.2,0-0.3,0-0.3-0.3c-0.1-1.2-0.6-2.2-1.3-3.1c-0.7-1-1.5-2-2-3.2
			c-0.7-1.9-0.9-3.8-0.1-5.7c1.1-2.4,3-3.8,5.6-4.1c2.9-0.4,5.3,0.7,7,3.2c0.9,1.3,1.1,2.7,1,4.2c-0.1,2-1.1,3.7-2.3,5.3
			c-0.7,0.9-1.3,1.9-1.5,3c0,0.1,0,0.1,0,0.2c-0.1,0.6-0.1,0.6-0.7,0.6C499.8,768.2,499,768.2,498.1,768.2z M492.6,757.7
			c0,0.4,0.2,0.7,0.5,0.8c0.3,0,0.6-0.2,0.7-0.6c0.3-1.5,1.2-2.6,2.7-3.2c0.4-0.2,0.6-0.5,0.5-0.8c-0.2-0.4-0.5-0.5-0.9-0.3
			c-0.9,0.4-1.7,1-2.4,1.8C493.1,756.1,492.7,756.9,492.6,757.7z"/>
		<path d="M498.1,770.6c-1,0-1.9,0-2.9,0c-0.2,0-0.3,0-0.3-0.3c0-0.9,0-0.9,0.9-0.9c1.8,0,3.5,0,5.3,0c0.3,0,0.4,0,0.4,0.3
			c0,0.9,0,0.9-0.9,0.9C499.7,770.6,498.9,770.6,498.1,770.6z"/>
		<path d="M498.1,771.7c1,0,2,0,2.9,0c0.3,0,0.3,0.1,0.2,0.3c-0.1,0.5-0.6,0.9-1.1,0.9c-1.4,0-2.8,0-4.3,0c-0.5,0-0.9-0.3-1-0.8
			c-0.1-0.3-0.1-0.4,0.3-0.4C496.2,771.7,497.1,771.7,498.1,771.7z"/>
		<path d="M498.1,773.5c0.3,0,0.6,0,0.9,0c0.2,0,0.3,0,0.2,0.3c-0.1,0.5-0.5,0.9-1.1,0.9c-0.6,0-1.1-0.3-1.2-0.9
			c-0.1-0.2,0-0.3,0.3-0.3C497.5,773.5,497.8,773.5,498.1,773.5z"/>
		<path class="st75" d="M492.6,757.7c0.1-0.8,0.5-1.6,1-2.3c0.6-0.8,1.4-1.4,2.4-1.8c0.4-0.2,0.8,0,0.9,0.3c0.1,0.3,0,0.6-0.5,0.8
			c-1.4,0.6-2.3,1.7-2.7,3.2c-0.1,0.4-0.4,0.6-0.7,0.6C492.8,758.4,492.6,758.1,492.6,757.7z"/>
	</g>
	<g id="light">
		<path class="st75" d="M555.4,661.6c8.4-0.1,15.5,6.9,15.5,15.5c0,8.6-7.1,15.6-15.7,15.5c-8.4-0.1-15.4-7.1-15.4-15.7
			C539.9,668.5,547.1,661.5,555.4,661.6z M555.1,682.2c0.9,0,1.7,0,2.6,0c0.6,0,0.6,0,0.7-0.6c0-0.1,0-0.1,0-0.2
			c0.2-1.2,0.8-2.1,1.5-3c1.2-1.6,2.1-3.2,2.3-5.3c0.1-1.5-0.1-3-1-4.2c-1.7-2.4-4.1-3.5-7-3.2c-2.6,0.3-4.5,1.7-5.6,4.1
			c-0.8,1.9-0.7,3.8,0.1,5.7c0.5,1.2,1.2,2.2,2,3.2c0.7,0.9,1.2,1.9,1.3,3.1c0,0.3,0.1,0.3,0.3,0.3
			C553.1,682.2,554.1,682.2,555.1,682.2z M555.1,684.6c0.8,0,1.6,0,2.4,0c0.9,0,0.9,0,0.9-0.9c0-0.3-0.1-0.3-0.4-0.3
			c-1.8,0-3.5,0-5.3,0c-0.9,0-0.9,0-0.9,0.9c0,0.3,0.1,0.3,0.3,0.3C553.1,684.6,554.1,684.6,555.1,684.6z M555.1,685.7
			c-1,0-2,0-2.9,0c-0.3,0-0.4,0.1-0.3,0.4c0.2,0.5,0.6,0.8,1,0.8c1.4,0,2.8,0,4.3,0c0.5,0,0.9-0.4,1.1-0.9c0.1-0.2,0-0.3-0.2-0.3
			C557.1,685.7,556.1,685.7,555.1,685.7z M555.1,687.5c-0.3,0-0.6,0-0.9,0c-0.3,0-0.3,0.1-0.3,0.3c0.1,0.5,0.6,0.9,1.2,0.9
			c0.5,0,1-0.4,1.1-0.9c0.1-0.2,0-0.3-0.2-0.3C555.7,687.5,555.4,687.5,555.1,687.5z"/>
		<path d="M555.1,682.2c-1,0-1.9,0-2.9,0c-0.2,0-0.3,0-0.3-0.3c-0.1-1.2-0.6-2.2-1.3-3.1c-0.7-1-1.5-2-2-3.2
			c-0.7-1.9-0.9-3.8-0.1-5.7c1.1-2.4,3-3.8,5.6-4.1c2.9-0.4,5.3,0.7,7,3.2c0.9,1.3,1.1,2.7,1,4.2c-0.1,2-1.1,3.7-2.3,5.3
			c-0.7,0.9-1.3,1.9-1.5,3c0,0.1,0,0.1,0,0.2c-0.1,0.6-0.1,0.6-0.7,0.6C556.8,682.2,556,682.2,555.1,682.2z M549.6,671.7
			c0,0.4,0.2,0.7,0.5,0.8c0.3,0,0.6-0.2,0.7-0.6c0.3-1.5,1.2-2.6,2.7-3.2c0.4-0.2,0.6-0.5,0.5-0.8c-0.2-0.4-0.5-0.5-0.9-0.3
			c-0.9,0.4-1.7,1-2.4,1.8C550.1,670.1,549.7,670.9,549.6,671.7z"/>
		<path d="M555.1,684.6c-1,0-1.9,0-2.9,0c-0.2,0-0.3,0-0.3-0.3c0-0.9,0-0.9,0.9-0.9c1.8,0,3.5,0,5.3,0c0.3,0,0.4,0,0.4,0.3
			c0,0.9,0,0.9-0.9,0.9C556.7,684.6,555.9,684.6,555.1,684.6z"/>
		<path d="M555.1,685.7c1,0,2,0,2.9,0c0.3,0,0.3,0.1,0.2,0.3c-0.1,0.5-0.6,0.9-1.1,0.9c-1.4,0-2.8,0-4.3,0c-0.5,0-0.9-0.3-1-0.8
			c-0.1-0.3-0.1-0.4,0.3-0.4C553.2,685.7,554.1,685.7,555.1,685.7z"/>
		<path d="M555.1,687.5c0.3,0,0.6,0,0.9,0c0.2,0,0.3,0,0.2,0.3c-0.1,0.5-0.5,0.9-1.1,0.9c-0.6,0-1.1-0.3-1.2-0.9
			c-0.1-0.2,0-0.3,0.3-0.3C554.5,687.5,554.8,687.5,555.1,687.5z"/>
		<path class="st75" d="M549.6,671.7c0.1-0.8,0.5-1.6,1-2.3c0.6-0.8,1.4-1.4,2.4-1.8c0.4-0.2,0.8,0,0.9,0.3c0.1,0.3,0,0.6-0.5,0.8
			c-1.4,0.6-2.3,1.7-2.7,3.2c-0.1,0.4-0.4,0.6-0.7,0.6C549.8,672.4,549.6,672.1,549.6,671.7z"/>
	</g>
	<g id="light">
		<path class="st75" d="M595.4,581.6c8.4-0.1,15.5,6.9,15.5,15.5c0,8.6-7.1,15.6-15.7,15.5c-8.4-0.1-15.4-7.1-15.4-15.7
			C579.9,588.5,587.1,581.5,595.4,581.6z M595.1,602.2c0.9,0,1.7,0,2.6,0c0.6,0,0.6,0,0.7-0.6c0-0.1,0-0.1,0-0.2
			c0.2-1.2,0.8-2.1,1.5-3c1.2-1.6,2.1-3.2,2.3-5.3c0.1-1.5-0.1-3-1-4.2c-1.7-2.4-4.1-3.5-7-3.2c-2.6,0.3-4.5,1.7-5.6,4.1
			c-0.8,1.9-0.7,3.8,0.1,5.7c0.5,1.2,1.2,2.2,2,3.2c0.7,0.9,1.2,1.9,1.3,3.1c0,0.3,0.1,0.3,0.3,0.3
			C593.1,602.2,594.1,602.2,595.1,602.2z M595.1,604.6c0.8,0,1.6,0,2.4,0c0.9,0,0.9,0,0.9-0.9c0-0.3-0.1-0.3-0.4-0.3
			c-1.8,0-3.5,0-5.3,0c-0.9,0-0.9,0-0.9,0.9c0,0.3,0.1,0.3,0.3,0.3C593.1,604.6,594.1,604.6,595.1,604.6z M595.1,605.7
			c-1,0-2,0-2.9,0c-0.3,0-0.4,0.1-0.3,0.4c0.2,0.5,0.6,0.8,1,0.8c1.4,0,2.8,0,4.3,0c0.5,0,0.9-0.4,1.1-0.9c0.1-0.2,0-0.3-0.2-0.3
			C597.1,605.7,596.1,605.7,595.1,605.7z M595.1,607.5c-0.3,0-0.6,0-0.9,0c-0.3,0-0.3,0.1-0.3,0.3c0.1,0.5,0.6,0.9,1.2,0.9
			c0.5,0,1-0.4,1.1-0.9c0.1-0.2,0-0.3-0.2-0.3C595.7,607.5,595.4,607.5,595.1,607.5z"/>
		<path d="M595.1,602.2c-1,0-1.9,0-2.9,0c-0.2,0-0.3,0-0.3-0.3c-0.1-1.2-0.6-2.2-1.3-3.1c-0.7-1-1.5-2-2-3.2
			c-0.7-1.9-0.9-3.8-0.1-5.7c1.1-2.4,3-3.8,5.6-4.1c2.9-0.4,5.3,0.7,7,3.2c0.9,1.3,1.1,2.7,1,4.2c-0.1,2-1.1,3.7-2.3,5.3
			c-0.7,0.9-1.3,1.9-1.5,3c0,0.1,0,0.1,0,0.2c-0.1,0.6-0.1,0.6-0.7,0.6C596.8,602.2,596,602.2,595.1,602.2z M589.6,591.7
			c0,0.4,0.2,0.7,0.5,0.8c0.3,0,0.6-0.2,0.7-0.6c0.3-1.5,1.2-2.6,2.7-3.2c0.4-0.2,0.6-0.5,0.5-0.8c-0.2-0.4-0.5-0.5-0.9-0.3
			c-0.9,0.4-1.7,1-2.4,1.8C590.1,590.1,589.7,590.9,589.6,591.7z"/>
		<path d="M595.1,604.6c-1,0-1.9,0-2.9,0c-0.2,0-0.3,0-0.3-0.3c0-0.9,0-0.9,0.9-0.9c1.8,0,3.5,0,5.3,0c0.3,0,0.4,0,0.4,0.3
			c0,0.9,0,0.9-0.9,0.9C596.7,604.6,595.9,604.6,595.1,604.6z"/>
		<path d="M595.1,605.7c1,0,2,0,2.9,0c0.3,0,0.3,0.1,0.2,0.3c-0.1,0.5-0.6,0.9-1.1,0.9c-1.4,0-2.8,0-4.3,0c-0.5,0-0.9-0.3-1-0.8
			c-0.1-0.3-0.1-0.4,0.3-0.4C593.2,605.7,594.1,605.7,595.1,605.7z"/>
		<path d="M595.1,607.5c0.3,0,0.6,0,0.9,0c0.2,0,0.3,0,0.2,0.3c-0.1,0.5-0.5,0.9-1.1,0.9c-0.6,0-1.1-0.3-1.2-0.9
			c-0.1-0.2,0-0.3,0.3-0.3C594.5,607.5,594.8,607.5,595.1,607.5z"/>
		<path class="st75" d="M589.6,591.7c0.1-0.8,0.5-1.6,1-2.3c0.6-0.8,1.4-1.4,2.4-1.8c0.4-0.2,0.8,0,0.9,0.3c0.1,0.3,0,0.6-0.5,0.8
			c-1.4,0.6-2.3,1.7-2.7,3.2c-0.1,0.4-0.4,0.6-0.7,0.6C589.8,592.4,589.6,592.1,589.6,591.7z"/>
	</g>
	<g id="light">
		<path class="st75" d="M621.4,478.6c8.4-0.1,15.5,6.9,15.5,15.5c0,8.6-7.1,15.6-15.7,15.5c-8.4-0.1-15.4-7.1-15.4-15.7
			C605.9,485.5,613.1,478.5,621.4,478.6z M621.1,499.2c0.9,0,1.7,0,2.6,0c0.6,0,0.6,0,0.7-0.6c0-0.1,0-0.1,0-0.2
			c0.2-1.2,0.8-2.1,1.5-3c1.2-1.6,2.1-3.2,2.3-5.3c0.1-1.5-0.1-3-1-4.2c-1.7-2.4-4.1-3.5-7-3.2c-2.6,0.3-4.5,1.7-5.6,4.1
			c-0.8,1.9-0.7,3.8,0.1,5.7c0.5,1.2,1.2,2.2,2,3.2c0.7,0.9,1.2,1.9,1.3,3.1c0,0.3,0.1,0.3,0.3,0.3
			C619.1,499.2,620.1,499.2,621.1,499.2z M621.1,501.6c0.8,0,1.6,0,2.4,0c0.9,0,0.9,0,0.9-0.9c0-0.3-0.1-0.3-0.4-0.3
			c-1.8,0-3.5,0-5.3,0c-0.9,0-0.9,0-0.9,0.9c0,0.3,0.1,0.3,0.3,0.3C619.1,501.6,620.1,501.6,621.1,501.6z M621.1,502.7
			c-1,0-2,0-2.9,0c-0.3,0-0.4,0.1-0.3,0.4c0.2,0.5,0.6,0.8,1,0.8c1.4,0,2.8,0,4.3,0c0.5,0,0.9-0.4,1.1-0.9c0.1-0.2,0-0.3-0.2-0.3
			C623.1,502.7,622.1,502.7,621.1,502.7z M621.1,504.5c-0.3,0-0.6,0-0.9,0c-0.3,0-0.3,0.1-0.3,0.3c0.1,0.5,0.6,0.9,1.2,0.9
			c0.5,0,1-0.4,1.1-0.9c0.1-0.2,0-0.3-0.2-0.3C621.7,504.5,621.4,504.5,621.1,504.5z"/>
		<path d="M621.1,499.2c-1,0-1.9,0-2.9,0c-0.2,0-0.3,0-0.3-0.3c-0.1-1.2-0.6-2.2-1.3-3.1c-0.7-1-1.5-2-2-3.2
			c-0.7-1.9-0.9-3.8-0.1-5.7c1.1-2.4,3-3.8,5.6-4.1c2.9-0.4,5.3,0.7,7,3.2c0.9,1.3,1.1,2.7,1,4.2c-0.1,2-1.1,3.7-2.3,5.3
			c-0.7,0.9-1.3,1.9-1.5,3c0,0.1,0,0.1,0,0.2c-0.1,0.6-0.1,0.6-0.7,0.6C622.8,499.2,622,499.2,621.1,499.2z M615.6,488.7
			c0,0.4,0.2,0.7,0.5,0.8c0.3,0,0.6-0.2,0.7-0.6c0.3-1.5,1.2-2.6,2.7-3.2c0.4-0.2,0.6-0.5,0.5-0.8c-0.2-0.4-0.5-0.5-0.9-0.3
			c-0.9,0.4-1.7,1-2.4,1.8C616.1,487.1,615.7,487.9,615.6,488.7z"/>
		<path d="M621.1,501.6c-1,0-1.9,0-2.9,0c-0.2,0-0.3,0-0.3-0.3c0-0.9,0-0.9,0.9-0.9c1.8,0,3.5,0,5.3,0c0.3,0,0.4,0,0.4,0.3
			c0,0.9,0,0.9-0.9,0.9C622.7,501.6,621.9,501.6,621.1,501.6z"/>
		<path d="M621.1,502.7c1,0,2,0,2.9,0c0.3,0,0.3,0.1,0.2,0.3c-0.1,0.5-0.6,0.9-1.1,0.9c-1.4,0-2.8,0-4.3,0c-0.5,0-0.9-0.3-1-0.8
			c-0.1-0.3-0.1-0.4,0.3-0.4C619.2,502.7,620.1,502.7,621.1,502.7z"/>
		<path d="M621.1,504.5c0.3,0,0.6,0,0.9,0c0.2,0,0.3,0,0.2,0.3c-0.1,0.5-0.5,0.9-1.1,0.9c-0.6,0-1.1-0.3-1.2-0.9
			c-0.1-0.2,0-0.3,0.3-0.3C620.5,504.5,620.8,504.5,621.1,504.5z"/>
		<path class="st75" d="M615.6,488.7c0.1-0.8,0.5-1.6,1-2.3c0.6-0.8,1.4-1.4,2.4-1.8c0.4-0.2,0.8,0,0.9,0.3c0.1,0.3,0,0.6-0.5,0.8
			c-1.4,0.6-2.3,1.7-2.7,3.2c-0.1,0.4-0.4,0.6-0.7,0.6C615.8,489.4,615.6,489.1,615.6,488.7z"/>
	</g>
	<g id="light">
		<path class="st75" d="M632.4,391.6c8.4-0.1,15.5,6.9,15.5,15.5c0,8.6-7.1,15.6-15.7,15.5c-8.4-0.1-15.4-7.1-15.4-15.7
			C616.9,398.5,624.1,391.5,632.4,391.6z M632.1,412.2c0.9,0,1.7,0,2.6,0c0.6,0,0.6,0,0.7-0.6c0-0.1,0-0.1,0-0.2
			c0.2-1.2,0.8-2.1,1.5-3c1.2-1.6,2.1-3.2,2.3-5.3c0.1-1.5-0.1-3-1-4.2c-1.7-2.4-4.1-3.5-7-3.2c-2.6,0.3-4.5,1.7-5.6,4.1
			c-0.8,1.9-0.7,3.8,0.1,5.7c0.5,1.2,1.2,2.2,2,3.2c0.7,0.9,1.2,1.9,1.3,3.1c0,0.3,0.1,0.3,0.3,0.3
			C630.1,412.2,631.1,412.2,632.1,412.2z M632.1,414.6c0.8,0,1.6,0,2.4,0c0.9,0,0.9,0,0.9-0.9c0-0.3-0.1-0.3-0.4-0.3
			c-1.8,0-3.5,0-5.3,0c-0.9,0-0.9,0-0.9,0.9c0,0.3,0.1,0.3,0.3,0.3C630.1,414.6,631.1,414.6,632.1,414.6z M632.1,415.7
			c-1,0-2,0-2.9,0c-0.3,0-0.4,0.1-0.3,0.4c0.2,0.5,0.6,0.8,1,0.8c1.4,0,2.8,0,4.3,0c0.5,0,0.9-0.4,1.1-0.9c0.1-0.2,0-0.3-0.2-0.3
			C634.1,415.7,633.1,415.7,632.1,415.7z M632.1,417.5c-0.3,0-0.6,0-0.9,0c-0.3,0-0.3,0.1-0.3,0.3c0.1,0.5,0.6,0.9,1.2,0.9
			c0.5,0,1-0.4,1.1-0.9c0.1-0.2,0-0.3-0.2-0.3C632.7,417.5,632.4,417.5,632.1,417.5z"/>
		<path d="M632.1,412.2c-1,0-1.9,0-2.9,0c-0.2,0-0.3,0-0.3-0.3c-0.1-1.2-0.6-2.2-1.3-3.1c-0.7-1-1.5-2-2-3.2
			c-0.7-1.9-0.9-3.8-0.1-5.7c1.1-2.4,3-3.8,5.6-4.1c2.9-0.4,5.3,0.7,7,3.2c0.9,1.3,1.1,2.7,1,4.2c-0.1,2-1.1,3.7-2.3,5.3
			c-0.7,0.9-1.3,1.9-1.5,3c0,0.1,0,0.1,0,0.2c-0.1,0.6-0.1,0.6-0.7,0.6C633.8,412.2,633,412.2,632.1,412.2z M626.6,401.7
			c0,0.4,0.2,0.7,0.5,0.8c0.3,0,0.6-0.2,0.7-0.6c0.3-1.5,1.2-2.6,2.7-3.2c0.4-0.2,0.6-0.5,0.5-0.8c-0.2-0.4-0.5-0.5-0.9-0.3
			c-0.9,0.4-1.7,1-2.4,1.8C627.1,400.1,626.7,400.9,626.6,401.7z"/>
		<path d="M632.1,414.6c-1,0-1.9,0-2.9,0c-0.2,0-0.3,0-0.3-0.3c0-0.9,0-0.9,0.9-0.9c1.8,0,3.5,0,5.3,0c0.3,0,0.4,0,0.4,0.3
			c0,0.9,0,0.9-0.9,0.9C633.7,414.6,632.9,414.6,632.1,414.6z"/>
		<path d="M632.1,415.7c1,0,2,0,2.9,0c0.3,0,0.3,0.1,0.2,0.3c-0.1,0.5-0.6,0.9-1.1,0.9c-1.4,0-2.8,0-4.3,0c-0.5,0-0.9-0.3-1-0.8
			c-0.1-0.3-0.1-0.4,0.3-0.4C630.2,415.7,631.1,415.7,632.1,415.7z"/>
		<path d="M632.1,417.5c0.3,0,0.6,0,0.9,0c0.2,0,0.3,0,0.2,0.3c-0.1,0.5-0.5,0.9-1.1,0.9c-0.6,0-1.1-0.3-1.2-0.9
			c-0.1-0.2,0-0.3,0.3-0.3C631.5,417.5,631.8,417.5,632.1,417.5z"/>
		<path class="st75" d="M626.6,401.7c0.1-0.8,0.5-1.6,1-2.3c0.6-0.8,1.4-1.4,2.4-1.8c0.4-0.2,0.8,0,0.9,0.3c0.1,0.3,0,0.6-0.5,0.8
			c-1.4,0.6-2.3,1.7-2.7,3.2c-0.1,0.4-0.4,0.6-0.7,0.6C626.8,402.4,626.6,402.1,626.6,401.7z"/>
	</g>
	<g id="light">
		<path class="st75" d="M722.4,372.6c8.4-0.1,15.5,6.9,15.5,15.5c0,8.6-7.1,15.6-15.7,15.5c-8.4-0.1-15.4-7.1-15.4-15.7
			C706.9,379.5,714.1,372.5,722.4,372.6z M722.1,393.2c0.9,0,1.7,0,2.6,0c0.6,0,0.6,0,0.7-0.6c0-0.1,0-0.1,0-0.2
			c0.2-1.2,0.8-2.1,1.5-3c1.2-1.6,2.1-3.2,2.3-5.3c0.1-1.5-0.1-3-1-4.2c-1.7-2.4-4.1-3.5-7-3.2c-2.6,0.3-4.5,1.7-5.6,4.1
			c-0.8,1.9-0.7,3.8,0.1,5.7c0.5,1.2,1.2,2.2,2,3.2c0.7,0.9,1.2,1.9,1.3,3.1c0,0.3,0.1,0.3,0.3,0.3
			C720.1,393.2,721.1,393.2,722.1,393.2z M722.1,395.6c0.8,0,1.6,0,2.4,0c0.9,0,0.9,0,0.9-0.9c0-0.3-0.1-0.3-0.4-0.3
			c-1.8,0-3.5,0-5.3,0c-0.9,0-0.9,0-0.9,0.9c0,0.3,0.1,0.3,0.3,0.3C720.1,395.6,721.1,395.6,722.1,395.6z M722.1,396.7
			c-1,0-2,0-2.9,0c-0.3,0-0.4,0.1-0.3,0.4c0.2,0.5,0.6,0.8,1,0.8c1.4,0,2.8,0,4.3,0c0.5,0,0.9-0.4,1.1-0.9c0.1-0.2,0-0.3-0.2-0.3
			C724.1,396.7,723.1,396.7,722.1,396.7z M722.1,398.5c-0.3,0-0.6,0-0.9,0c-0.3,0-0.3,0.1-0.3,0.3c0.1,0.5,0.6,0.9,1.2,0.9
			c0.5,0,1-0.4,1.1-0.9c0.1-0.2,0-0.3-0.2-0.3C722.7,398.5,722.4,398.5,722.1,398.5z"/>
		<path d="M722.1,393.2c-1,0-1.9,0-2.9,0c-0.2,0-0.3,0-0.3-0.3c-0.1-1.2-0.6-2.2-1.3-3.1c-0.7-1-1.5-2-2-3.2
			c-0.7-1.9-0.9-3.8-0.1-5.7c1.1-2.4,3-3.8,5.6-4.1c2.9-0.4,5.3,0.7,7,3.2c0.9,1.3,1.1,2.7,1,4.2c-0.1,2-1.1,3.7-2.3,5.3
			c-0.7,0.9-1.3,1.9-1.5,3c0,0.1,0,0.1,0,0.2c-0.1,0.6-0.1,0.6-0.7,0.6C723.8,393.2,723,393.2,722.1,393.2z M716.6,382.7
			c0,0.4,0.2,0.7,0.5,0.8c0.3,0,0.6-0.2,0.7-0.6c0.3-1.5,1.2-2.6,2.7-3.2c0.4-0.2,0.6-0.5,0.5-0.8c-0.2-0.4-0.5-0.5-0.9-0.3
			c-0.9,0.4-1.7,1-2.4,1.8C717.1,381.1,716.7,381.9,716.6,382.7z"/>
		<path d="M722.1,395.6c-1,0-1.9,0-2.9,0c-0.2,0-0.3,0-0.3-0.3c0-0.9,0-0.9,0.9-0.9c1.8,0,3.5,0,5.3,0c0.3,0,0.4,0,0.4,0.3
			c0,0.9,0,0.9-0.9,0.9C723.7,395.6,722.9,395.6,722.1,395.6z"/>
		<path d="M722.1,396.7c1,0,2,0,2.9,0c0.3,0,0.3,0.1,0.2,0.3c-0.1,0.5-0.6,0.9-1.1,0.9c-1.4,0-2.8,0-4.3,0c-0.5,0-0.9-0.3-1-0.8
			c-0.1-0.3-0.1-0.4,0.3-0.4C720.2,396.7,721.1,396.7,722.1,396.7z"/>
		<path d="M722.1,398.5c0.3,0,0.6,0,0.9,0c0.2,0,0.3,0,0.2,0.3c-0.1,0.5-0.5,0.9-1.1,0.9c-0.6,0-1.1-0.3-1.2-0.9
			c-0.1-0.2,0-0.3,0.3-0.3C721.5,398.5,721.8,398.5,722.1,398.5z"/>
		<path class="st75" d="M716.6,382.7c0.1-0.8,0.5-1.6,1-2.3c0.6-0.8,1.4-1.4,2.4-1.8c0.4-0.2,0.8,0,0.9,0.3c0.1,0.3,0,0.6-0.5,0.8
			c-1.4,0.6-2.3,1.7-2.7,3.2c-0.1,0.4-0.4,0.6-0.7,0.6C716.8,383.4,716.6,383.1,716.6,382.7z"/>
	</g>
	<g id="light">
		<path class="st75" d="M800.4,320.6c8.4-0.1,15.5,6.9,15.5,15.5c0,8.6-7.1,15.6-15.7,15.5c-8.4-0.1-15.4-7.1-15.4-15.7
			C784.9,327.5,792.1,320.5,800.4,320.6z M800.1,341.2c0.9,0,1.7,0,2.6,0c0.6,0,0.6,0,0.7-0.6c0-0.1,0-0.1,0-0.2
			c0.2-1.2,0.8-2.1,1.5-3c1.2-1.6,2.1-3.2,2.3-5.3c0.1-1.5-0.1-3-1-4.2c-1.7-2.4-4.1-3.5-7-3.2c-2.6,0.3-4.5,1.7-5.6,4.1
			c-0.8,1.9-0.7,3.8,0.1,5.7c0.5,1.2,1.2,2.2,2,3.2c0.7,0.9,1.2,1.9,1.3,3.1c0,0.3,0.1,0.3,0.3,0.3
			C798.1,341.2,799.1,341.2,800.1,341.2z M800.1,343.6c0.8,0,1.6,0,2.4,0c0.9,0,0.9,0,0.9-0.9c0-0.3-0.1-0.3-0.4-0.3
			c-1.8,0-3.5,0-5.3,0c-0.9,0-0.9,0-0.9,0.9c0,0.3,0.1,0.3,0.3,0.3C798.1,343.6,799.1,343.6,800.1,343.6z M800.1,344.7
			c-1,0-2,0-2.9,0c-0.3,0-0.4,0.1-0.3,0.4c0.2,0.5,0.6,0.8,1,0.8c1.4,0,2.8,0,4.3,0c0.5,0,0.9-0.4,1.1-0.9c0.1-0.2,0-0.3-0.2-0.3
			C802.1,344.7,801.1,344.7,800.1,344.7z M800.1,346.5c-0.3,0-0.6,0-0.9,0c-0.3,0-0.3,0.1-0.3,0.3c0.1,0.5,0.6,0.9,1.2,0.9
			c0.5,0,1-0.4,1.1-0.9c0.1-0.2,0-0.3-0.2-0.3C800.7,346.5,800.4,346.5,800.1,346.5z"/>
		<path d="M800.1,341.2c-1,0-1.9,0-2.9,0c-0.2,0-0.3,0-0.3-0.3c-0.1-1.2-0.6-2.2-1.3-3.1c-0.7-1-1.5-2-2-3.2
			c-0.7-1.9-0.9-3.8-0.1-5.7c1.1-2.4,3-3.8,5.6-4.1c2.9-0.4,5.3,0.7,7,3.2c0.9,1.3,1.1,2.7,1,4.2c-0.1,2-1.1,3.7-2.3,5.3
			c-0.7,0.9-1.3,1.9-1.5,3c0,0.1,0,0.1,0,0.2c-0.1,0.6-0.1,0.6-0.7,0.6C801.8,341.2,801,341.2,800.1,341.2z M794.6,330.7
			c0,0.4,0.2,0.7,0.5,0.8c0.3,0,0.6-0.2,0.7-0.6c0.3-1.5,1.2-2.6,2.7-3.2c0.4-0.2,0.6-0.5,0.5-0.8c-0.2-0.4-0.5-0.5-0.9-0.3
			c-0.9,0.4-1.7,1-2.4,1.8C795.1,329.1,794.7,329.9,794.6,330.7z"/>
		<path d="M800.1,343.6c-1,0-1.9,0-2.9,0c-0.2,0-0.3,0-0.3-0.3c0-0.9,0-0.9,0.9-0.9c1.8,0,3.5,0,5.3,0c0.3,0,0.4,0,0.4,0.3
			c0,0.9,0,0.9-0.9,0.9C801.7,343.6,800.9,343.6,800.1,343.6z"/>
		<path d="M800.1,344.7c1,0,2,0,2.9,0c0.3,0,0.3,0.1,0.2,0.3c-0.1,0.5-0.6,0.9-1.1,0.9c-1.4,0-2.8,0-4.3,0c-0.5,0-0.9-0.3-1-0.8
			c-0.1-0.3-0.1-0.4,0.3-0.4C798.2,344.7,799.1,344.7,800.1,344.7z"/>
		<path d="M800.1,346.5c0.3,0,0.6,0,0.9,0c0.2,0,0.3,0,0.2,0.3c-0.1,0.5-0.5,0.9-1.1,0.9c-0.6,0-1.1-0.3-1.2-0.9
			c-0.1-0.2,0-0.3,0.3-0.3C799.5,346.5,799.8,346.5,800.1,346.5z"/>
		<path class="st75" d="M794.6,330.7c0.1-0.8,0.5-1.6,1-2.3c0.6-0.8,1.4-1.4,2.4-1.8c0.4-0.2,0.8,0,0.9,0.3c0.1,0.3,0,0.6-0.5,0.8
			c-1.4,0.6-2.3,1.7-2.7,3.2c-0.1,0.4-0.4,0.6-0.7,0.6C794.8,331.4,794.6,331.1,794.6,330.7z"/>
	</g>
	<g id="light">
		<path class="st75" d="M858.4,255.6c8.4-0.1,15.5,6.9,15.5,15.5c0,8.6-7.1,15.6-15.7,15.5c-8.4-0.1-15.4-7.1-15.4-15.7
			C842.9,262.5,850.1,255.5,858.4,255.6z M858.1,276.2c0.9,0,1.7,0,2.6,0c0.6,0,0.6,0,0.7-0.6c0-0.1,0-0.1,0-0.2
			c0.2-1.2,0.8-2.1,1.5-3c1.2-1.6,2.1-3.2,2.3-5.3c0.1-1.5-0.1-3-1-4.2c-1.7-2.4-4.1-3.5-7-3.2c-2.6,0.3-4.5,1.7-5.6,4.1
			c-0.8,1.9-0.7,3.8,0.1,5.7c0.5,1.2,1.2,2.2,2,3.2c0.7,0.9,1.2,1.9,1.3,3.1c0,0.3,0.1,0.3,0.3,0.3
			C856.1,276.2,857.1,276.2,858.1,276.2z M858.1,278.6c0.8,0,1.6,0,2.4,0c0.9,0,0.9,0,0.9-0.9c0-0.3-0.1-0.3-0.4-0.3
			c-1.8,0-3.5,0-5.3,0c-0.9,0-0.9,0-0.9,0.9c0,0.3,0.1,0.3,0.3,0.3C856.1,278.6,857.1,278.6,858.1,278.6z M858.1,279.7
			c-1,0-2,0-2.9,0c-0.3,0-0.4,0.1-0.3,0.4c0.2,0.5,0.6,0.8,1,0.8c1.4,0,2.8,0,4.3,0c0.5,0,0.9-0.4,1.1-0.9c0.1-0.2,0-0.3-0.2-0.3
			C860.1,279.7,859.1,279.7,858.1,279.7z M858.1,281.5c-0.3,0-0.6,0-0.9,0c-0.3,0-0.3,0.1-0.3,0.3c0.1,0.5,0.6,0.9,1.2,0.9
			c0.5,0,1-0.4,1.1-0.9c0.1-0.2,0-0.3-0.2-0.3C858.7,281.5,858.4,281.5,858.1,281.5z"/>
		<path d="M858.1,276.2c-1,0-1.9,0-2.9,0c-0.2,0-0.3,0-0.3-0.3c-0.1-1.2-0.6-2.2-1.3-3.1c-0.7-1-1.5-2-2-3.2
			c-0.7-1.9-0.9-3.8-0.1-5.7c1.1-2.4,3-3.8,5.6-4.1c2.9-0.4,5.3,0.7,7,3.2c0.9,1.3,1.1,2.7,1,4.2c-0.1,2-1.1,3.7-2.3,5.3
			c-0.7,0.9-1.3,1.9-1.5,3c0,0.1,0,0.1,0,0.2c-0.1,0.6-0.1,0.6-0.7,0.6C859.8,276.2,859,276.2,858.1,276.2z M852.6,265.7
			c0,0.4,0.2,0.7,0.5,0.8c0.3,0,0.6-0.2,0.7-0.6c0.3-1.5,1.2-2.6,2.7-3.2c0.4-0.2,0.6-0.5,0.5-0.8c-0.2-0.4-0.5-0.5-0.9-0.3
			c-0.9,0.4-1.7,1-2.4,1.8C853.1,264.1,852.7,264.9,852.6,265.7z"/>
		<path d="M858.1,278.6c-1,0-1.9,0-2.9,0c-0.2,0-0.3,0-0.3-0.3c0-0.9,0-0.9,0.9-0.9c1.8,0,3.5,0,5.3,0c0.3,0,0.4,0,0.4,0.3
			c0,0.9,0,0.9-0.9,0.9C859.7,278.6,858.9,278.6,858.1,278.6z"/>
		<path d="M858.1,279.7c1,0,2,0,2.9,0c0.3,0,0.3,0.1,0.2,0.3c-0.1,0.5-0.6,0.9-1.1,0.9c-1.4,0-2.8,0-4.3,0c-0.5,0-0.9-0.3-1-0.8
			c-0.1-0.3-0.1-0.4,0.3-0.4C856.2,279.7,857.1,279.7,858.1,279.7z"/>
		<path d="M858.1,281.5c0.3,0,0.6,0,0.9,0c0.2,0,0.3,0,0.2,0.3c-0.1,0.5-0.5,0.9-1.1,0.9c-0.6,0-1.1-0.3-1.2-0.9
			c-0.1-0.2,0-0.3,0.3-0.3C857.5,281.5,857.8,281.5,858.1,281.5z"/>
		<path class="st75" d="M852.6,265.7c0.1-0.8,0.5-1.6,1-2.3c0.6-0.8,1.4-1.4,2.4-1.8c0.4-0.2,0.8,0,0.9,0.3c0.1,0.3,0,0.6-0.5,0.8
			c-1.4,0.6-2.3,1.7-2.7,3.2c-0.1,0.4-0.4,0.6-0.7,0.6C852.8,266.4,852.6,266.1,852.6,265.7z"/>
	</g>
	<g id="light">
		<path class="st75" d="M910.4,164.6c8.4-0.1,15.5,6.9,15.5,15.5c0,8.6-7.1,15.6-15.7,15.5c-8.4-0.1-15.4-7.1-15.4-15.7
			C894.9,171.5,902.1,164.5,910.4,164.6z M910.1,185.2c0.9,0,1.7,0,2.6,0c0.6,0,0.6,0,0.7-0.6c0-0.1,0-0.1,0-0.2
			c0.2-1.2,0.8-2.1,1.5-3c1.2-1.6,2.1-3.2,2.3-5.3c0.1-1.5-0.1-3-1-4.2c-1.7-2.4-4.1-3.5-7-3.2c-2.6,0.3-4.5,1.7-5.6,4.1
			c-0.8,1.9-0.7,3.8,0.1,5.7c0.5,1.2,1.2,2.2,2,3.2c0.7,0.9,1.2,1.9,1.3,3.1c0,0.3,0.1,0.3,0.3,0.3
			C908.1,185.2,909.1,185.2,910.1,185.2z M910.1,187.6c0.8,0,1.6,0,2.4,0c0.9,0,0.9,0,0.9-0.9c0-0.3-0.1-0.3-0.4-0.3
			c-1.8,0-3.5,0-5.3,0c-0.9,0-0.9,0-0.9,0.9c0,0.3,0.1,0.3,0.3,0.3C908.1,187.6,909.1,187.6,910.1,187.6z M910.1,188.7
			c-1,0-2,0-2.9,0c-0.3,0-0.4,0.1-0.3,0.4c0.2,0.5,0.6,0.8,1,0.8c1.4,0,2.8,0,4.3,0c0.5,0,0.9-0.4,1.1-0.9c0.1-0.2,0-0.3-0.2-0.3
			C912.1,188.7,911.1,188.7,910.1,188.7z M910.1,190.5c-0.3,0-0.6,0-0.9,0c-0.3,0-0.3,0.1-0.3,0.3c0.1,0.5,0.6,0.9,1.2,0.9
			c0.5,0,1-0.4,1.1-0.9c0.1-0.2,0-0.3-0.2-0.3C910.7,190.5,910.4,190.5,910.1,190.5z"/>
		<path d="M910.1,185.2c-1,0-1.9,0-2.9,0c-0.2,0-0.3,0-0.3-0.3c-0.1-1.2-0.6-2.2-1.3-3.1c-0.7-1-1.5-2-2-3.2
			c-0.7-1.9-0.9-3.8-0.1-5.7c1.1-2.4,3-3.8,5.6-4.1c2.9-0.4,5.3,0.7,7,3.2c0.9,1.3,1.1,2.7,1,4.2c-0.1,2-1.1,3.7-2.3,5.3
			c-0.7,0.9-1.3,1.9-1.5,3c0,0.1,0,0.1,0,0.2c-0.1,0.6-0.1,0.6-0.7,0.6C911.8,185.2,911,185.2,910.1,185.2z M904.6,174.7
			c0,0.4,0.2,0.7,0.5,0.8c0.3,0,0.6-0.2,0.7-0.6c0.3-1.5,1.2-2.6,2.7-3.2c0.4-0.2,0.6-0.5,0.5-0.8c-0.2-0.4-0.5-0.5-0.9-0.3
			c-0.9,0.4-1.7,1-2.4,1.8C905.1,173.1,904.7,173.9,904.6,174.7z"/>
		<path d="M910.1,187.6c-1,0-1.9,0-2.9,0c-0.2,0-0.3,0-0.3-0.3c0-0.9,0-0.9,0.9-0.9c1.8,0,3.5,0,5.3,0c0.3,0,0.4,0,0.4,0.3
			c0,0.9,0,0.9-0.9,0.9C911.7,187.6,910.9,187.6,910.1,187.6z"/>
		<path d="M910.1,188.7c1,0,2,0,2.9,0c0.3,0,0.3,0.1,0.2,0.3c-0.1,0.5-0.6,0.9-1.1,0.9c-1.4,0-2.8,0-4.3,0c-0.5,0-0.9-0.3-1-0.8
			c-0.1-0.3-0.1-0.4,0.3-0.4C908.2,188.7,909.1,188.7,910.1,188.7z"/>
		<path d="M910.1,190.5c0.3,0,0.6,0,0.9,0c0.2,0,0.3,0,0.2,0.3c-0.1,0.5-0.5,0.9-1.1,0.9c-0.6,0-1.1-0.3-1.2-0.9
			c-0.1-0.2,0-0.3,0.3-0.3C909.5,190.5,909.8,190.5,910.1,190.5z"/>
		<path class="st75" d="M904.6,174.7c0.1-0.8,0.5-1.6,1-2.3c0.6-0.8,1.4-1.4,2.4-1.8c0.4-0.2,0.8,0,0.9,0.3c0.1,0.3,0,0.6-0.5,0.8
			c-1.4,0.6-2.3,1.7-2.7,3.2c-0.1,0.4-0.4,0.6-0.7,0.6C904.8,175.4,904.6,175.1,904.6,174.7z"/>
	</g>
	<g id="light">
		<path class="st75" d="M964.4,252.6c8.4-0.1,15.5,6.9,15.5,15.5c0,8.6-7.1,15.6-15.7,15.5c-8.4-0.1-15.4-7.1-15.4-15.7
			C948.9,259.5,956.1,252.5,964.4,252.6z M964.1,273.2c0.9,0,1.7,0,2.6,0c0.6,0,0.6,0,0.7-0.6c0-0.1,0-0.1,0-0.2
			c0.2-1.2,0.8-2.1,1.5-3c1.2-1.6,2.1-3.2,2.3-5.3c0.1-1.5-0.1-3-1-4.2c-1.7-2.4-4.1-3.5-7-3.2c-2.6,0.3-4.5,1.7-5.6,4.1
			c-0.8,1.9-0.7,3.8,0.1,5.7c0.5,1.2,1.2,2.2,2,3.2c0.7,0.9,1.2,1.9,1.3,3.1c0,0.3,0.1,0.3,0.3,0.3
			C962.1,273.2,963.1,273.2,964.1,273.2z M964.1,275.6c0.8,0,1.6,0,2.4,0c0.9,0,0.9,0,0.9-0.9c0-0.3-0.1-0.3-0.4-0.3
			c-1.8,0-3.5,0-5.3,0c-0.9,0-0.9,0-0.9,0.9c0,0.3,0.1,0.3,0.3,0.3C962.1,275.6,963.1,275.6,964.1,275.6z M964.1,276.7
			c-1,0-2,0-2.9,0c-0.3,0-0.4,0.1-0.3,0.4c0.2,0.5,0.6,0.8,1,0.8c1.4,0,2.8,0,4.3,0c0.5,0,0.9-0.4,1.1-0.9c0.1-0.2,0-0.3-0.2-0.3
			C966.1,276.7,965.1,276.7,964.1,276.7z M964.1,278.5c-0.3,0-0.6,0-0.9,0c-0.3,0-0.3,0.1-0.3,0.3c0.1,0.5,0.6,0.9,1.2,0.9
			c0.5,0,1-0.4,1.1-0.9c0.1-0.2,0-0.3-0.2-0.3C964.7,278.5,964.4,278.5,964.1,278.5z"/>
		<path d="M964.1,273.2c-1,0-1.9,0-2.9,0c-0.2,0-0.3,0-0.3-0.3c-0.1-1.2-0.6-2.2-1.3-3.1c-0.7-1-1.5-2-2-3.2
			c-0.7-1.9-0.9-3.8-0.1-5.7c1.1-2.4,3-3.8,5.6-4.1c2.9-0.4,5.3,0.7,7,3.2c0.9,1.3,1.1,2.7,1,4.2c-0.1,2-1.1,3.7-2.3,5.3
			c-0.7,0.9-1.3,1.9-1.5,3c0,0.1,0,0.1,0,0.2c-0.1,0.6-0.1,0.6-0.7,0.6C965.8,273.2,965,273.2,964.1,273.2z M958.6,262.7
			c0,0.4,0.2,0.7,0.5,0.8c0.3,0,0.6-0.2,0.7-0.6c0.3-1.5,1.2-2.6,2.7-3.2c0.4-0.2,0.6-0.5,0.5-0.8c-0.2-0.4-0.5-0.5-0.9-0.3
			c-0.9,0.4-1.7,1-2.4,1.8C959.1,261.1,958.7,261.9,958.6,262.7z"/>
		<path d="M964.1,275.6c-1,0-1.9,0-2.9,0c-0.2,0-0.3,0-0.3-0.3c0-0.9,0-0.9,0.9-0.9c1.8,0,3.5,0,5.3,0c0.3,0,0.4,0,0.4,0.3
			c0,0.9,0,0.9-0.9,0.9C965.7,275.6,964.9,275.6,964.1,275.6z"/>
		<path d="M964.1,276.7c1,0,2,0,2.9,0c0.3,0,0.3,0.1,0.2,0.3c-0.1,0.5-0.6,0.9-1.1,0.9c-1.4,0-2.8,0-4.3,0c-0.5,0-0.9-0.3-1-0.8
			c-0.1-0.3-0.1-0.4,0.3-0.4C962.2,276.7,963.1,276.7,964.1,276.7z"/>
		<path d="M964.1,278.5c0.3,0,0.6,0,0.9,0c0.2,0,0.3,0,0.2,0.3c-0.1,0.5-0.5,0.9-1.1,0.9c-0.6,0-1.1-0.3-1.2-0.9
			c-0.1-0.2,0-0.3,0.3-0.3C963.5,278.5,963.8,278.5,964.1,278.5z"/>
		<path class="st75" d="M958.6,262.7c0.1-0.8,0.5-1.6,1-2.3c0.6-0.8,1.4-1.4,2.4-1.8c0.4-0.2,0.8,0,0.9,0.3c0.1,0.3,0,0.6-0.5,0.8
			c-1.4,0.6-2.3,1.7-2.7,3.2c-0.1,0.4-0.4,0.6-0.7,0.6C958.8,263.4,958.6,263.1,958.6,262.7z"/>
	</g>
	<g id="light">
		<path class="st75" d="M1022.4,323.6c8.4-0.1,15.5,6.9,15.5,15.5c0,8.6-7.1,15.6-15.7,15.5c-8.4-0.1-15.4-7.1-15.4-15.7
			C1006.9,330.5,1014.1,323.5,1022.4,323.6z M1022.1,344.2c0.9,0,1.7,0,2.6,0c0.6,0,0.6,0,0.7-0.6c0-0.1,0-0.1,0-0.2
			c0.2-1.2,0.8-2.1,1.5-3c1.2-1.6,2.1-3.2,2.3-5.3c0.1-1.5-0.1-3-1-4.2c-1.7-2.4-4.1-3.5-7-3.2c-2.6,0.3-4.5,1.7-5.6,4.1
			c-0.8,1.9-0.7,3.8,0.1,5.7c0.5,1.2,1.2,2.2,2,3.2c0.7,0.9,1.2,1.9,1.3,3.1c0,0.3,0.1,0.3,0.3,0.3
			C1020.1,344.2,1021.1,344.2,1022.1,344.2z M1022.1,346.6c0.8,0,1.6,0,2.4,0c0.9,0,0.9,0,0.9-0.9c0-0.3-0.1-0.3-0.4-0.3
			c-1.8,0-3.5,0-5.3,0c-0.9,0-0.9,0-0.9,0.9c0,0.3,0.1,0.3,0.3,0.3C1020.1,346.6,1021.1,346.6,1022.1,346.6z M1022.1,347.7
			c-1,0-2,0-2.9,0c-0.3,0-0.4,0.1-0.3,0.4c0.2,0.5,0.6,0.8,1,0.8c1.4,0,2.8,0,4.3,0c0.5,0,0.9-0.4,1.1-0.9c0.1-0.2,0-0.3-0.2-0.3
			C1024.1,347.7,1023.1,347.7,1022.1,347.7z M1022.1,349.5c-0.3,0-0.6,0-0.9,0c-0.3,0-0.3,0.1-0.3,0.3c0.1,0.5,0.6,0.9,1.2,0.9
			c0.5,0,1-0.4,1.1-0.9c0.1-0.2,0-0.3-0.2-0.3C1022.7,349.5,1022.4,349.5,1022.1,349.5z"/>
		<path d="M1022.1,344.2c-1,0-1.9,0-2.9,0c-0.2,0-0.3,0-0.3-0.3c-0.1-1.2-0.6-2.2-1.3-3.1c-0.7-1-1.5-2-2-3.2
			c-0.7-1.9-0.9-3.8-0.1-5.7c1.1-2.4,3-3.8,5.6-4.1c2.9-0.4,5.3,0.7,7,3.2c0.9,1.3,1.1,2.7,1,4.2c-0.1,2-1.1,3.7-2.3,5.3
			c-0.7,0.9-1.3,1.9-1.5,3c0,0.1,0,0.1,0,0.2c-0.1,0.6-0.1,0.6-0.7,0.6C1023.8,344.2,1023,344.2,1022.1,344.2z M1016.6,333.7
			c0,0.4,0.2,0.7,0.5,0.8c0.3,0,0.6-0.2,0.7-0.6c0.3-1.5,1.2-2.6,2.7-3.2c0.4-0.2,0.6-0.5,0.5-0.8c-0.2-0.4-0.5-0.5-0.9-0.3
			c-0.9,0.4-1.7,1-2.4,1.8C1017.1,332.1,1016.7,332.9,1016.6,333.7z"/>
		<path d="M1022.1,346.6c-1,0-1.9,0-2.9,0c-0.2,0-0.3,0-0.3-0.3c0-0.9,0-0.9,0.9-0.9c1.8,0,3.5,0,5.3,0c0.3,0,0.4,0,0.4,0.3
			c0,0.9,0,0.9-0.9,0.9C1023.7,346.6,1022.9,346.6,1022.1,346.6z"/>
		<path d="M1022.1,347.7c1,0,2,0,2.9,0c0.3,0,0.3,0.1,0.2,0.3c-0.1,0.5-0.6,0.9-1.1,0.9c-1.4,0-2.8,0-4.3,0c-0.5,0-0.9-0.3-1-0.8
			c-0.1-0.3-0.1-0.4,0.3-0.4C1020.2,347.7,1021.1,347.7,1022.1,347.7z"/>
		<path d="M1022.1,349.5c0.3,0,0.6,0,0.9,0c0.2,0,0.3,0,0.2,0.3c-0.1,0.5-0.5,0.9-1.1,0.9c-0.6,0-1.1-0.3-1.2-0.9
			c-0.1-0.2,0-0.3,0.3-0.3C1021.5,349.5,1021.8,349.5,1022.1,349.5z"/>
		<path class="st75" d="M1016.6,333.7c0.1-0.8,0.5-1.6,1-2.3c0.6-0.8,1.4-1.4,2.4-1.8c0.4-0.2,0.8,0,0.9,0.3c0.1,0.3,0,0.6-0.5,0.8
			c-1.4,0.6-2.3,1.7-2.7,3.2c-0.1,0.4-0.4,0.6-0.7,0.6C1016.8,334.4,1016.6,334.1,1016.6,333.7z"/>
	</g>
	<g id="light">
		<path class="st75" d="M1099.4,375.6c8.4-0.1,15.5,6.9,15.5,15.5c0,8.6-7.1,15.6-15.7,15.5c-8.4-0.1-15.4-7.1-15.4-15.7
			C1083.9,382.5,1091.1,375.5,1099.4,375.6z M1099.1,396.2c0.9,0,1.7,0,2.6,0c0.6,0,0.6,0,0.7-0.6c0-0.1,0-0.1,0-0.2
			c0.2-1.2,0.8-2.1,1.5-3c1.2-1.6,2.1-3.2,2.3-5.3c0.1-1.5-0.1-3-1-4.2c-1.7-2.4-4.1-3.5-7-3.2c-2.6,0.3-4.5,1.7-5.6,4.1
			c-0.8,1.9-0.7,3.8,0.1,5.7c0.5,1.2,1.2,2.2,2,3.2c0.7,0.9,1.2,1.9,1.3,3.1c0,0.3,0.1,0.3,0.3,0.3
			C1097.1,396.2,1098.1,396.2,1099.1,396.2z M1099.1,398.6c0.8,0,1.6,0,2.4,0c0.9,0,0.9,0,0.9-0.9c0-0.3-0.1-0.3-0.4-0.3
			c-1.8,0-3.5,0-5.3,0c-0.9,0-0.9,0-0.9,0.9c0,0.3,0.1,0.3,0.3,0.3C1097.1,398.6,1098.1,398.6,1099.1,398.6z M1099.1,399.7
			c-1,0-2,0-2.9,0c-0.3,0-0.4,0.1-0.3,0.4c0.2,0.5,0.6,0.8,1,0.8c1.4,0,2.8,0,4.3,0c0.5,0,0.9-0.4,1.1-0.9c0.1-0.2,0-0.3-0.2-0.3
			C1101.1,399.7,1100.1,399.7,1099.1,399.7z M1099.1,401.5c-0.3,0-0.6,0-0.9,0c-0.3,0-0.3,0.1-0.3,0.3c0.1,0.5,0.6,0.9,1.2,0.9
			c0.5,0,1-0.4,1.1-0.9c0.1-0.2,0-0.3-0.2-0.3C1099.7,401.5,1099.4,401.5,1099.1,401.5z"/>
		<path d="M1099.1,396.2c-1,0-1.9,0-2.9,0c-0.2,0-0.3,0-0.3-0.3c-0.1-1.2-0.6-2.2-1.3-3.1c-0.7-1-1.5-2-2-3.2
			c-0.7-1.9-0.9-3.8-0.1-5.7c1.1-2.4,3-3.8,5.6-4.1c2.9-0.4,5.3,0.7,7,3.2c0.9,1.3,1.1,2.7,1,4.2c-0.1,2-1.1,3.7-2.3,5.3
			c-0.7,0.9-1.3,1.9-1.5,3c0,0.1,0,0.1,0,0.2c-0.1,0.6-0.1,0.6-0.7,0.6C1100.8,396.2,1100,396.2,1099.1,396.2z M1093.6,385.7
			c0,0.4,0.2,0.7,0.5,0.8c0.3,0,0.6-0.2,0.7-0.6c0.3-1.5,1.2-2.6,2.7-3.2c0.4-0.2,0.6-0.5,0.5-0.8c-0.2-0.4-0.5-0.5-0.9-0.3
			c-0.9,0.4-1.7,1-2.4,1.8C1094.1,384.1,1093.7,384.9,1093.6,385.7z"/>
		<path d="M1099.1,398.6c-1,0-1.9,0-2.9,0c-0.2,0-0.3,0-0.3-0.3c0-0.9,0-0.9,0.9-0.9c1.8,0,3.5,0,5.3,0c0.3,0,0.4,0,0.4,0.3
			c0,0.9,0,0.9-0.9,0.9C1100.7,398.6,1099.9,398.6,1099.1,398.6z"/>
		<path d="M1099.1,399.7c1,0,2,0,2.9,0c0.3,0,0.3,0.1,0.2,0.3c-0.1,0.5-0.6,0.9-1.1,0.9c-1.4,0-2.8,0-4.3,0c-0.5,0-0.9-0.3-1-0.8
			c-0.1-0.3-0.1-0.4,0.3-0.4C1097.2,399.7,1098.1,399.7,1099.1,399.7z"/>
		<path d="M1099.1,401.5c0.3,0,0.6,0,0.9,0c0.2,0,0.3,0,0.2,0.3c-0.1,0.5-0.5,0.9-1.1,0.9c-0.6,0-1.1-0.3-1.2-0.9
			c-0.1-0.2,0-0.3,0.3-0.3C1098.5,401.5,1098.8,401.5,1099.1,401.5z"/>
		<path class="st75" d="M1093.6,385.7c0.1-0.8,0.5-1.6,1-2.3c0.6-0.8,1.4-1.4,2.4-1.8c0.4-0.2,0.8,0,0.9,0.3c0.1,0.3,0,0.6-0.5,0.8
			c-1.4,0.6-2.3,1.7-2.7,3.2c-0.1,0.4-0.4,0.6-0.7,0.6C1093.8,386.4,1093.6,386.1,1093.6,385.7z"/>
	</g>
	<g id="light">
		<path class="st75" d="M1190.4,391.6c8.4-0.1,15.5,6.9,15.5,15.5c0,8.6-7.1,15.6-15.7,15.5c-8.4-0.1-15.4-7.1-15.4-15.7
			C1174.9,398.5,1182.1,391.5,1190.4,391.6z M1190.1,412.2c0.9,0,1.7,0,2.6,0c0.6,0,0.6,0,0.7-0.6c0-0.1,0-0.1,0-0.2
			c0.2-1.2,0.8-2.1,1.5-3c1.2-1.6,2.1-3.2,2.3-5.3c0.1-1.5-0.1-3-1-4.2c-1.7-2.4-4.1-3.5-7-3.2c-2.6,0.3-4.5,1.7-5.6,4.1
			c-0.8,1.9-0.7,3.8,0.1,5.7c0.5,1.2,1.2,2.2,2,3.2c0.7,0.9,1.2,1.9,1.3,3.1c0,0.3,0.1,0.3,0.3,0.3
			C1188.1,412.2,1189.1,412.2,1190.1,412.2z M1190.1,414.6c0.8,0,1.6,0,2.4,0c0.9,0,0.9,0,0.9-0.9c0-0.3-0.1-0.3-0.4-0.3
			c-1.8,0-3.5,0-5.3,0c-0.9,0-0.9,0-0.9,0.9c0,0.3,0.1,0.3,0.3,0.3C1188.1,414.6,1189.1,414.6,1190.1,414.6z M1190.1,415.7
			c-1,0-2,0-2.9,0c-0.3,0-0.4,0.1-0.3,0.4c0.2,0.5,0.6,0.8,1,0.8c1.4,0,2.8,0,4.3,0c0.5,0,0.9-0.4,1.1-0.9c0.1-0.2,0-0.3-0.2-0.3
			C1192.1,415.7,1191.1,415.7,1190.1,415.7z M1190.1,417.5c-0.3,0-0.6,0-0.9,0c-0.3,0-0.3,0.1-0.3,0.3c0.1,0.5,0.6,0.9,1.2,0.9
			c0.5,0,1-0.4,1.1-0.9c0.1-0.2,0-0.3-0.2-0.3C1190.7,417.5,1190.4,417.5,1190.1,417.5z"/>
		<path d="M1190.1,412.2c-1,0-1.9,0-2.9,0c-0.2,0-0.3,0-0.3-0.3c-0.1-1.2-0.6-2.2-1.3-3.1c-0.7-1-1.5-2-2-3.2
			c-0.7-1.9-0.9-3.8-0.1-5.7c1.1-2.4,3-3.8,5.6-4.1c2.9-0.4,5.3,0.7,7,3.2c0.9,1.3,1.1,2.7,1,4.2c-0.1,2-1.1,3.7-2.3,5.3
			c-0.7,0.9-1.3,1.9-1.5,3c0,0.1,0,0.1,0,0.2c-0.1,0.6-0.1,0.6-0.7,0.6C1191.8,412.2,1191,412.2,1190.1,412.2z M1184.6,401.7
			c0,0.4,0.2,0.7,0.5,0.8c0.3,0,0.6-0.2,0.7-0.6c0.3-1.5,1.2-2.6,2.7-3.2c0.4-0.2,0.6-0.5,0.5-0.8c-0.2-0.4-0.5-0.5-0.9-0.3
			c-0.9,0.4-1.7,1-2.4,1.8C1185.1,400.1,1184.7,400.9,1184.6,401.7z"/>
		<path d="M1190.1,414.6c-1,0-1.9,0-2.9,0c-0.2,0-0.3,0-0.3-0.3c0-0.9,0-0.9,0.9-0.9c1.8,0,3.5,0,5.3,0c0.3,0,0.4,0,0.4,0.3
			c0,0.9,0,0.9-0.9,0.9C1191.7,414.6,1190.9,414.6,1190.1,414.6z"/>
		<path d="M1190.1,415.7c1,0,2,0,2.9,0c0.3,0,0.3,0.1,0.2,0.3c-0.1,0.5-0.6,0.9-1.1,0.9c-1.4,0-2.8,0-4.3,0c-0.5,0-0.9-0.3-1-0.8
			c-0.1-0.3-0.1-0.4,0.3-0.4C1188.2,415.7,1189.1,415.7,1190.1,415.7z"/>
		<path d="M1190.1,417.5c0.3,0,0.6,0,0.9,0c0.2,0,0.3,0,0.2,0.3c-0.1,0.5-0.5,0.9-1.1,0.9c-0.6,0-1.1-0.3-1.2-0.9
			c-0.1-0.2,0-0.3,0.3-0.3C1189.5,417.5,1189.8,417.5,1190.1,417.5z"/>
		<path class="st75" d="M1184.6,401.7c0.1-0.8,0.5-1.6,1-2.3c0.6-0.8,1.4-1.4,2.4-1.8c0.4-0.2,0.8,0,0.9,0.3c0.1,0.3,0,0.6-0.5,0.8
			c-1.4,0.6-2.3,1.7-2.7,3.2c-0.1,0.4-0.4,0.6-0.7,0.6C1184.8,402.4,1184.6,402.1,1184.6,401.7z"/>
	</g>
	<g id="light">
		<path class="st75" d="M1197.4,478.6c8.4-0.1,15.5,6.9,15.5,15.5c0,8.6-7.1,15.6-15.7,15.5c-8.4-0.1-15.4-7.1-15.4-15.7
			C1181.9,485.5,1189.1,478.5,1197.4,478.6z M1197.1,499.2c0.9,0,1.7,0,2.6,0c0.6,0,0.6,0,0.7-0.6c0-0.1,0-0.1,0-0.2
			c0.2-1.2,0.8-2.1,1.5-3c1.2-1.6,2.1-3.2,2.3-5.3c0.1-1.5-0.1-3-1-4.2c-1.7-2.4-4.1-3.5-7-3.2c-2.6,0.3-4.5,1.7-5.6,4.1
			c-0.8,1.9-0.7,3.8,0.1,5.7c0.5,1.2,1.2,2.2,2,3.2c0.7,0.9,1.2,1.9,1.3,3.1c0,0.3,0.1,0.3,0.3,0.3
			C1195.1,499.2,1196.1,499.2,1197.1,499.2z M1197.1,501.6c0.8,0,1.6,0,2.4,0c0.9,0,0.9,0,0.9-0.9c0-0.3-0.1-0.3-0.4-0.3
			c-1.8,0-3.5,0-5.3,0c-0.9,0-0.9,0-0.9,0.9c0,0.3,0.1,0.3,0.3,0.3C1195.1,501.6,1196.1,501.6,1197.1,501.6z M1197.1,502.7
			c-1,0-2,0-2.9,0c-0.3,0-0.4,0.1-0.3,0.4c0.2,0.5,0.6,0.8,1,0.8c1.4,0,2.8,0,4.3,0c0.5,0,0.9-0.4,1.1-0.9c0.1-0.2,0-0.3-0.2-0.3
			C1199.1,502.7,1198.1,502.7,1197.1,502.7z M1197.1,504.5c-0.3,0-0.6,0-0.9,0c-0.3,0-0.3,0.1-0.3,0.3c0.1,0.5,0.6,0.9,1.2,0.9
			c0.5,0,1-0.4,1.1-0.9c0.1-0.2,0-0.3-0.2-0.3C1197.7,504.5,1197.4,504.5,1197.1,504.5z"/>
		<path d="M1197.1,499.2c-1,0-1.9,0-2.9,0c-0.2,0-0.3,0-0.3-0.3c-0.1-1.2-0.6-2.2-1.3-3.1c-0.7-1-1.5-2-2-3.2
			c-0.7-1.9-0.9-3.8-0.1-5.7c1.1-2.4,3-3.8,5.6-4.1c2.9-0.4,5.3,0.7,7,3.2c0.9,1.3,1.1,2.7,1,4.2c-0.1,2-1.1,3.7-2.3,5.3
			c-0.7,0.9-1.3,1.9-1.5,3c0,0.1,0,0.1,0,0.2c-0.1,0.6-0.1,0.6-0.7,0.6C1198.8,499.2,1198,499.2,1197.1,499.2z M1191.6,488.7
			c0,0.4,0.2,0.7,0.5,0.8c0.3,0,0.6-0.2,0.7-0.6c0.3-1.5,1.2-2.6,2.7-3.2c0.4-0.2,0.6-0.5,0.5-0.8c-0.2-0.4-0.5-0.5-0.9-0.3
			c-0.9,0.4-1.7,1-2.4,1.8C1192.1,487.1,1191.7,487.9,1191.6,488.7z"/>
		<path d="M1197.1,501.6c-1,0-1.9,0-2.9,0c-0.2,0-0.3,0-0.3-0.3c0-0.9,0-0.9,0.9-0.9c1.8,0,3.5,0,5.3,0c0.3,0,0.4,0,0.4,0.3
			c0,0.9,0,0.9-0.9,0.9C1198.7,501.6,1197.9,501.6,1197.1,501.6z"/>
		<path d="M1197.1,502.7c1,0,2,0,2.9,0c0.3,0,0.3,0.1,0.2,0.3c-0.1,0.5-0.6,0.9-1.1,0.9c-1.4,0-2.8,0-4.3,0c-0.5,0-0.9-0.3-1-0.8
			c-0.1-0.3-0.1-0.4,0.3-0.4C1195.2,502.7,1196.1,502.7,1197.1,502.7z"/>
		<path d="M1197.1,504.5c0.3,0,0.6,0,0.9,0c0.2,0,0.3,0,0.2,0.3c-0.1,0.5-0.5,0.9-1.1,0.9c-0.6,0-1.1-0.3-1.2-0.9
			c-0.1-0.2,0-0.3,0.3-0.3C1196.5,504.5,1196.8,504.5,1197.1,504.5z"/>
		<path class="st75" d="M1191.6,488.7c0.1-0.8,0.5-1.6,1-2.3c0.6-0.8,1.4-1.4,2.4-1.8c0.4-0.2,0.8,0,0.9,0.3c0.1,0.3,0,0.6-0.5,0.8
			c-1.4,0.6-2.3,1.7-2.7,3.2c-0.1,0.4-0.4,0.6-0.7,0.6C1191.8,489.4,1191.6,489.1,1191.6,488.7z"/>
	</g>
	<g id="light">
		<path class="st75" d="M1226.4,576.6c8.4-0.1,15.5,6.9,15.5,15.5c0,8.6-7.1,15.6-15.7,15.5c-8.4-0.1-15.4-7.1-15.4-15.7
			C1210.9,583.5,1218.1,576.5,1226.4,576.6z M1226.1,597.2c0.9,0,1.7,0,2.6,0c0.6,0,0.6,0,0.7-0.6c0-0.1,0-0.1,0-0.2
			c0.2-1.2,0.8-2.1,1.5-3c1.2-1.6,2.1-3.2,2.3-5.3c0.1-1.5-0.1-3-1-4.2c-1.7-2.4-4.1-3.5-7-3.2c-2.6,0.3-4.5,1.7-5.6,4.1
			c-0.8,1.9-0.7,3.8,0.1,5.7c0.5,1.2,1.2,2.2,2,3.2c0.7,0.9,1.2,1.9,1.3,3.1c0,0.3,0.1,0.3,0.3,0.3
			C1224.1,597.2,1225.1,597.2,1226.1,597.2z M1226.1,599.6c0.8,0,1.6,0,2.4,0c0.9,0,0.9,0,0.9-0.9c0-0.3-0.1-0.3-0.4-0.3
			c-1.8,0-3.5,0-5.3,0c-0.9,0-0.9,0-0.9,0.9c0,0.3,0.1,0.3,0.3,0.3C1224.1,599.6,1225.1,599.6,1226.1,599.6z M1226.1,600.7
			c-1,0-2,0-2.9,0c-0.3,0-0.4,0.1-0.3,0.4c0.2,0.5,0.6,0.8,1,0.8c1.4,0,2.8,0,4.3,0c0.5,0,0.9-0.4,1.1-0.9c0.1-0.2,0-0.3-0.2-0.3
			C1228.1,600.7,1227.1,600.7,1226.1,600.7z M1226.1,602.5c-0.3,0-0.6,0-0.9,0c-0.3,0-0.3,0.1-0.3,0.3c0.1,0.5,0.6,0.9,1.2,0.9
			c0.5,0,1-0.4,1.1-0.9c0.1-0.2,0-0.3-0.2-0.3C1226.7,602.5,1226.4,602.5,1226.1,602.5z"/>
		<path d="M1226.1,597.2c-1,0-1.9,0-2.9,0c-0.2,0-0.3,0-0.3-0.3c-0.1-1.2-0.6-2.2-1.3-3.1c-0.7-1-1.5-2-2-3.2
			c-0.7-1.9-0.9-3.8-0.1-5.7c1.1-2.4,3-3.8,5.6-4.1c2.9-0.4,5.3,0.7,7,3.2c0.9,1.3,1.1,2.7,1,4.2c-0.1,2-1.1,3.7-2.3,5.3
			c-0.7,0.9-1.3,1.9-1.5,3c0,0.1,0,0.1,0,0.2c-0.1,0.6-0.1,0.6-0.7,0.6C1227.8,597.2,1227,597.2,1226.1,597.2z M1220.6,586.7
			c0,0.4,0.2,0.7,0.5,0.8c0.3,0,0.6-0.2,0.7-0.6c0.3-1.5,1.2-2.6,2.7-3.2c0.4-0.2,0.6-0.5,0.5-0.8c-0.2-0.4-0.5-0.5-0.9-0.3
			c-0.9,0.4-1.7,1-2.4,1.8C1221.1,585.1,1220.7,585.9,1220.6,586.7z"/>
		<path d="M1226.1,599.6c-1,0-1.9,0-2.9,0c-0.2,0-0.3,0-0.3-0.3c0-0.9,0-0.9,0.9-0.9c1.8,0,3.5,0,5.3,0c0.3,0,0.4,0,0.4,0.3
			c0,0.9,0,0.9-0.9,0.9C1227.7,599.6,1226.9,599.6,1226.1,599.6z"/>
		<path d="M1226.1,600.7c1,0,2,0,2.9,0c0.3,0,0.3,0.1,0.2,0.3c-0.1,0.5-0.6,0.9-1.1,0.9c-1.4,0-2.8,0-4.3,0c-0.5,0-0.9-0.3-1-0.8
			c-0.1-0.3-0.1-0.4,0.3-0.4C1224.2,600.7,1225.1,600.7,1226.1,600.7z"/>
		<path d="M1226.1,602.5c0.3,0,0.6,0,0.9,0c0.2,0,0.3,0,0.2,0.3c-0.1,0.5-0.5,0.9-1.1,0.9c-0.6,0-1.1-0.3-1.2-0.9
			c-0.1-0.2,0-0.3,0.3-0.3C1225.5,602.5,1225.8,602.5,1226.1,602.5z"/>
		<path class="st75" d="M1220.6,586.7c0.1-0.8,0.5-1.6,1-2.3c0.6-0.8,1.4-1.4,2.4-1.8c0.4-0.2,0.8,0,0.9,0.3c0.1,0.3,0,0.6-0.5,0.8
			c-1.4,0.6-2.3,1.7-2.7,3.2c-0.1,0.4-0.4,0.6-0.7,0.6C1220.8,587.4,1220.6,587.1,1220.6,586.7z"/>
	</g>
	<g id="light">
		<path class="st75" d="M1267.4,664.6c8.4-0.1,15.5,6.9,15.5,15.5c0,8.6-7.1,15.6-15.7,15.5c-8.4-0.1-15.4-7.1-15.4-15.7
			C1251.9,671.5,1259.1,664.5,1267.4,664.6z M1267.1,685.2c0.9,0,1.7,0,2.6,0c0.6,0,0.6,0,0.7-0.6c0-0.1,0-0.1,0-0.2
			c0.2-1.2,0.8-2.1,1.5-3c1.2-1.6,2.1-3.2,2.3-5.3c0.1-1.5-0.1-3-1-4.2c-1.7-2.4-4.1-3.5-7-3.2c-2.6,0.3-4.5,1.7-5.6,4.1
			c-0.8,1.9-0.7,3.8,0.1,5.7c0.5,1.2,1.2,2.2,2,3.2c0.7,0.9,1.2,1.9,1.3,3.1c0,0.3,0.1,0.3,0.3,0.3
			C1265.1,685.2,1266.1,685.2,1267.1,685.2z M1267.1,687.6c0.8,0,1.6,0,2.4,0c0.9,0,0.9,0,0.9-0.9c0-0.3-0.1-0.3-0.4-0.3
			c-1.8,0-3.5,0-5.3,0c-0.9,0-0.9,0-0.9,0.9c0,0.3,0.1,0.3,0.3,0.3C1265.1,687.6,1266.1,687.6,1267.1,687.6z M1267.1,688.7
			c-1,0-2,0-2.9,0c-0.3,0-0.4,0.1-0.3,0.4c0.2,0.5,0.6,0.8,1,0.8c1.4,0,2.8,0,4.3,0c0.5,0,0.9-0.4,1.1-0.9c0.1-0.2,0-0.3-0.2-0.3
			C1269.1,688.7,1268.1,688.7,1267.1,688.7z M1267.1,690.5c-0.3,0-0.6,0-0.9,0c-0.3,0-0.3,0.1-0.3,0.3c0.1,0.5,0.6,0.9,1.2,0.9
			c0.5,0,1-0.4,1.1-0.9c0.1-0.2,0-0.3-0.2-0.3C1267.7,690.5,1267.4,690.5,1267.1,690.5z"/>
		<path d="M1267.1,685.2c-1,0-1.9,0-2.9,0c-0.2,0-0.3,0-0.3-0.3c-0.1-1.2-0.6-2.2-1.3-3.1c-0.7-1-1.5-2-2-3.2
			c-0.7-1.9-0.9-3.8-0.1-5.7c1.1-2.4,3-3.8,5.6-4.1c2.9-0.4,5.3,0.7,7,3.2c0.9,1.3,1.1,2.7,1,4.2c-0.1,2-1.1,3.7-2.3,5.3
			c-0.7,0.9-1.3,1.9-1.5,3c0,0.1,0,0.1,0,0.2c-0.1,0.6-0.1,0.6-0.7,0.6C1268.8,685.2,1268,685.2,1267.1,685.2z M1261.6,674.7
			c0,0.4,0.2,0.7,0.5,0.8c0.3,0,0.6-0.2,0.7-0.6c0.3-1.5,1.2-2.6,2.7-3.2c0.4-0.2,0.6-0.5,0.5-0.8c-0.2-0.4-0.5-0.5-0.9-0.3
			c-0.9,0.4-1.7,1-2.4,1.8C1262.1,673.1,1261.7,673.9,1261.6,674.7z"/>
		<path d="M1267.1,687.6c-1,0-1.9,0-2.9,0c-0.2,0-0.3,0-0.3-0.3c0-0.9,0-0.9,0.9-0.9c1.8,0,3.5,0,5.3,0c0.3,0,0.4,0,0.4,0.3
			c0,0.9,0,0.9-0.9,0.9C1268.7,687.6,1267.9,687.6,1267.1,687.6z"/>
		<path d="M1267.1,688.7c1,0,2,0,2.9,0c0.3,0,0.3,0.1,0.2,0.3c-0.1,0.5-0.6,0.9-1.1,0.9c-1.4,0-2.8,0-4.3,0c-0.5,0-0.9-0.3-1-0.8
			c-0.1-0.3-0.1-0.4,0.3-0.4C1265.2,688.7,1266.1,688.7,1267.1,688.7z"/>
		<path d="M1267.1,690.5c0.3,0,0.6,0,0.9,0c0.2,0,0.3,0,0.2,0.3c-0.1,0.5-0.5,0.9-1.1,0.9c-0.6,0-1.1-0.3-1.2-0.9
			c-0.1-0.2,0-0.3,0.3-0.3C1266.5,690.5,1266.8,690.5,1267.1,690.5z"/>
		<path class="st75" d="M1261.6,674.7c0.1-0.8,0.5-1.6,1-2.3c0.6-0.8,1.4-1.4,2.4-1.8c0.4-0.2,0.8,0,0.9,0.3c0.1,0.3,0,0.6-0.5,0.8
			c-1.4,0.6-2.3,1.7-2.7,3.2c-0.1,0.4-0.4,0.6-0.7,0.6C1261.8,675.4,1261.6,675.1,1261.6,674.7z"/>
	</g>
	<g id="light">
		<path class="st75" d="M1327.4,745.6c8.4-0.1,15.5,6.9,15.5,15.5c0,8.6-7.1,15.6-15.7,15.5c-8.4-0.1-15.4-7.1-15.4-15.7
			C1311.9,752.5,1319.1,745.5,1327.4,745.6z M1327.1,766.2c0.9,0,1.7,0,2.6,0c0.6,0,0.6,0,0.7-0.6c0-0.1,0-0.1,0-0.2
			c0.2-1.2,0.8-2.1,1.5-3c1.2-1.6,2.1-3.2,2.3-5.3c0.1-1.5-0.1-3-1-4.2c-1.7-2.4-4.1-3.5-7-3.2c-2.6,0.3-4.5,1.7-5.6,4.1
			c-0.8,1.9-0.7,3.8,0.1,5.7c0.5,1.2,1.2,2.2,2,3.2c0.7,0.9,1.2,1.9,1.3,3.1c0,0.3,0.1,0.3,0.3,0.3
			C1325.1,766.2,1326.1,766.2,1327.1,766.2z M1327.1,768.6c0.8,0,1.6,0,2.4,0c0.9,0,0.9,0,0.9-0.9c0-0.3-0.1-0.3-0.4-0.3
			c-1.8,0-3.5,0-5.3,0c-0.9,0-0.9,0-0.9,0.9c0,0.3,0.1,0.3,0.3,0.3C1325.1,768.6,1326.1,768.6,1327.1,768.6z M1327.1,769.7
			c-1,0-2,0-2.9,0c-0.3,0-0.4,0.1-0.3,0.4c0.2,0.5,0.6,0.8,1,0.8c1.4,0,2.8,0,4.3,0c0.5,0,0.9-0.4,1.1-0.9c0.1-0.2,0-0.3-0.2-0.3
			C1329.1,769.7,1328.1,769.7,1327.1,769.7z M1327.1,771.5c-0.3,0-0.6,0-0.9,0c-0.3,0-0.3,0.1-0.3,0.3c0.1,0.5,0.6,0.9,1.2,0.9
			c0.5,0,1-0.4,1.1-0.9c0.1-0.2,0-0.3-0.2-0.3C1327.7,771.5,1327.4,771.5,1327.1,771.5z"/>
		<path d="M1327.1,766.2c-1,0-1.9,0-2.9,0c-0.2,0-0.3,0-0.3-0.3c-0.1-1.2-0.6-2.2-1.3-3.1c-0.7-1-1.5-2-2-3.2
			c-0.7-1.9-0.9-3.8-0.1-5.7c1.1-2.4,3-3.8,5.6-4.1c2.9-0.4,5.3,0.7,7,3.2c0.9,1.3,1.1,2.7,1,4.2c-0.1,2-1.1,3.7-2.3,5.3
			c-0.7,0.9-1.3,1.9-1.5,3c0,0.1,0,0.1,0,0.2c-0.1,0.6-0.1,0.6-0.7,0.6C1328.8,766.2,1328,766.2,1327.1,766.2z M1321.6,755.7
			c0,0.4,0.2,0.7,0.5,0.8c0.3,0,0.6-0.2,0.7-0.6c0.3-1.5,1.2-2.6,2.7-3.2c0.4-0.2,0.6-0.5,0.5-0.8c-0.2-0.4-0.5-0.5-0.9-0.3
			c-0.9,0.4-1.7,1-2.4,1.8C1322.1,754.1,1321.7,754.9,1321.6,755.7z"/>
		<path d="M1327.1,768.6c-1,0-1.9,0-2.9,0c-0.2,0-0.3,0-0.3-0.3c0-0.9,0-0.9,0.9-0.9c1.8,0,3.5,0,5.3,0c0.3,0,0.4,0,0.4,0.3
			c0,0.9,0,0.9-0.9,0.9C1328.7,768.6,1327.9,768.6,1327.1,768.6z"/>
		<path d="M1327.1,769.7c1,0,2,0,2.9,0c0.3,0,0.3,0.1,0.2,0.3c-0.1,0.5-0.6,0.9-1.1,0.9c-1.4,0-2.8,0-4.3,0c-0.5,0-0.9-0.3-1-0.8
			c-0.1-0.3-0.1-0.4,0.3-0.4C1325.2,769.7,1326.1,769.7,1327.1,769.7z"/>
		<path d="M1327.1,771.5c0.3,0,0.6,0,0.9,0c0.2,0,0.3,0,0.2,0.3c-0.1,0.5-0.5,0.9-1.1,0.9c-0.6,0-1.1-0.3-1.2-0.9
			c-0.1-0.2,0-0.3,0.3-0.3C1326.5,771.5,1326.8,771.5,1327.1,771.5z"/>
		<path class="st75" d="M1321.6,755.7c0.1-0.8,0.5-1.6,1-2.3c0.6-0.8,1.4-1.4,2.4-1.8c0.4-0.2,0.8,0,0.9,0.3c0.1,0.3,0,0.6-0.5,0.8
			c-1.4,0.6-2.3,1.7-2.7,3.2c-0.1,0.4-0.4,0.6-0.7,0.6C1321.8,756.4,1321.6,756.1,1321.6,755.7z"/>
	</g>
	<g id="light">
		<path class="st75" d="M1309.4,281.6c8.4-0.1,15.5,6.9,15.5,15.5c0,8.6-7.1,15.6-15.7,15.5c-8.4-0.1-15.4-7.1-15.4-15.7
			C1293.9,288.5,1301.1,281.5,1309.4,281.6z M1309.1,302.2c0.9,0,1.7,0,2.6,0c0.6,0,0.6,0,0.7-0.6c0-0.1,0-0.1,0-0.2
			c0.2-1.2,0.8-2.1,1.5-3c1.2-1.6,2.1-3.2,2.3-5.3c0.1-1.5-0.1-3-1-4.2c-1.7-2.4-4.1-3.5-7-3.2c-2.6,0.3-4.5,1.7-5.6,4.1
			c-0.8,1.9-0.7,3.8,0.1,5.7c0.5,1.2,1.2,2.2,2,3.2c0.7,0.9,1.2,1.9,1.3,3.1c0,0.3,0.1,0.3,0.3,0.3
			C1307.1,302.2,1308.1,302.2,1309.1,302.2z M1309.1,304.6c0.8,0,1.6,0,2.4,0c0.9,0,0.9,0,0.9-0.9c0-0.3-0.1-0.3-0.4-0.3
			c-1.8,0-3.5,0-5.3,0c-0.9,0-0.9,0-0.9,0.9c0,0.3,0.1,0.3,0.3,0.3C1307.1,304.6,1308.1,304.6,1309.1,304.6z M1309.1,305.7
			c-1,0-2,0-2.9,0c-0.3,0-0.4,0.1-0.3,0.4c0.2,0.5,0.6,0.8,1,0.8c1.4,0,2.8,0,4.3,0c0.5,0,0.9-0.4,1.1-0.9c0.1-0.2,0-0.3-0.2-0.3
			C1311.1,305.7,1310.1,305.7,1309.1,305.7z M1309.1,307.5c-0.3,0-0.6,0-0.9,0c-0.3,0-0.3,0.1-0.3,0.3c0.1,0.5,0.6,0.9,1.2,0.9
			c0.5,0,1-0.4,1.1-0.9c0.1-0.2,0-0.3-0.2-0.3C1309.7,307.5,1309.4,307.5,1309.1,307.5z"/>
		<path d="M1309.1,302.2c-1,0-1.9,0-2.9,0c-0.2,0-0.3,0-0.3-0.3c-0.1-1.2-0.6-2.2-1.3-3.1c-0.7-1-1.5-2-2-3.2
			c-0.7-1.9-0.9-3.8-0.1-5.7c1.1-2.4,3-3.8,5.6-4.1c2.9-0.4,5.3,0.7,7,3.2c0.9,1.3,1.1,2.7,1,4.2c-0.1,2-1.1,3.7-2.3,5.3
			c-0.7,0.9-1.3,1.9-1.5,3c0,0.1,0,0.1,0,0.2c-0.1,0.6-0.1,0.6-0.7,0.6C1310.8,302.2,1310,302.2,1309.1,302.2z M1303.6,291.7
			c0,0.4,0.2,0.7,0.5,0.8c0.3,0,0.6-0.2,0.7-0.6c0.3-1.5,1.2-2.6,2.7-3.2c0.4-0.2,0.6-0.5,0.5-0.8c-0.2-0.4-0.5-0.5-0.9-0.3
			c-0.9,0.4-1.7,1-2.4,1.8C1304.1,290.1,1303.7,290.9,1303.6,291.7z"/>
		<path d="M1309.1,304.6c-1,0-1.9,0-2.9,0c-0.2,0-0.3,0-0.3-0.3c0-0.9,0-0.9,0.9-0.9c1.8,0,3.5,0,5.3,0c0.3,0,0.4,0,0.4,0.3
			c0,0.9,0,0.9-0.9,0.9C1310.7,304.6,1309.9,304.6,1309.1,304.6z"/>
		<path d="M1309.1,305.7c1,0,2,0,2.9,0c0.3,0,0.3,0.1,0.2,0.3c-0.1,0.5-0.6,0.9-1.1,0.9c-1.4,0-2.8,0-4.3,0c-0.5,0-0.9-0.3-1-0.8
			c-0.1-0.3-0.1-0.4,0.3-0.4C1307.2,305.7,1308.1,305.7,1309.1,305.7z"/>
		<path d="M1309.1,307.5c0.3,0,0.6,0,0.9,0c0.2,0,0.3,0,0.2,0.3c-0.1,0.5-0.5,0.9-1.1,0.9c-0.6,0-1.1-0.3-1.2-0.9
			c-0.1-0.2,0-0.3,0.3-0.3C1308.5,307.5,1308.8,307.5,1309.1,307.5z"/>
		<path class="st75" d="M1303.6,291.7c0.1-0.8,0.5-1.6,1-2.3c0.6-0.8,1.4-1.4,2.4-1.8c0.4-0.2,0.8,0,0.9,0.3c0.1,0.3,0,0.6-0.5,0.8
			c-1.4,0.6-2.3,1.7-2.7,3.2c-0.1,0.4-0.4,0.6-0.7,0.6C1303.8,292.4,1303.6,292.1,1303.6,291.7z"/>
	</g>
	<g id="light">
		<path class="st75" d="M371.4,391.6c8.4-0.1,15.5,6.9,15.5,15.5c0,8.6-7.1,15.6-15.7,15.5c-8.4-0.1-15.4-7.1-15.4-15.7
			C355.9,398.5,363.1,391.5,371.4,391.6z M371.1,412.2c0.9,0,1.7,0,2.6,0c0.6,0,0.6,0,0.7-0.6c0-0.1,0-0.1,0-0.2
			c0.2-1.2,0.8-2.1,1.5-3c1.2-1.6,2.1-3.2,2.3-5.3c0.1-1.5-0.1-3-1-4.2c-1.7-2.4-4.1-3.5-7-3.2c-2.6,0.3-4.5,1.7-5.6,4.1
			c-0.8,1.9-0.7,3.8,0.1,5.7c0.5,1.2,1.2,2.2,2,3.2c0.7,0.9,1.2,1.9,1.3,3.1c0,0.3,0.1,0.3,0.3,0.3
			C369.1,412.2,370.1,412.2,371.1,412.2z M371.1,414.6c0.8,0,1.6,0,2.4,0c0.9,0,0.9,0,0.9-0.9c0-0.3-0.1-0.3-0.4-0.3
			c-1.8,0-3.5,0-5.3,0c-0.9,0-0.9,0-0.9,0.9c0,0.3,0.1,0.3,0.3,0.3C369.1,414.6,370.1,414.6,371.1,414.6z M371.1,415.7
			c-1,0-2,0-2.9,0c-0.3,0-0.4,0.1-0.3,0.4c0.2,0.5,0.6,0.8,1,0.8c1.4,0,2.8,0,4.3,0c0.5,0,0.9-0.4,1.1-0.9c0.1-0.2,0-0.3-0.2-0.3
			C373.1,415.7,372.1,415.7,371.1,415.7z M371.1,417.5c-0.3,0-0.6,0-0.9,0c-0.3,0-0.3,0.1-0.3,0.3c0.1,0.5,0.6,0.9,1.2,0.9
			c0.5,0,1-0.4,1.1-0.9c0.1-0.2,0-0.3-0.2-0.3C371.7,417.5,371.4,417.5,371.1,417.5z"/>
		<path d="M371.1,412.2c-1,0-1.9,0-2.9,0c-0.2,0-0.3,0-0.3-0.3c-0.1-1.2-0.6-2.2-1.3-3.1c-0.7-1-1.5-2-2-3.2
			c-0.7-1.9-0.9-3.8-0.1-5.7c1.1-2.4,3-3.8,5.6-4.1c2.9-0.4,5.3,0.7,7,3.2c0.9,1.3,1.1,2.7,1,4.2c-0.1,2-1.1,3.7-2.3,5.3
			c-0.7,0.9-1.3,1.9-1.5,3c0,0.1,0,0.1,0,0.2c-0.1,0.6-0.1,0.6-0.7,0.6C372.8,412.2,372,412.2,371.1,412.2z M365.6,401.7
			c0,0.4,0.2,0.7,0.5,0.8c0.3,0,0.6-0.2,0.7-0.6c0.3-1.5,1.2-2.6,2.7-3.2c0.4-0.2,0.6-0.5,0.5-0.8c-0.2-0.4-0.5-0.5-0.9-0.3
			c-0.9,0.4-1.7,1-2.4,1.8C366.1,400.1,365.7,400.9,365.6,401.7z"/>
		<path d="M371.1,414.6c-1,0-1.9,0-2.9,0c-0.2,0-0.3,0-0.3-0.3c0-0.9,0-0.9,0.9-0.9c1.8,0,3.5,0,5.3,0c0.3,0,0.4,0,0.4,0.3
			c0,0.9,0,0.9-0.9,0.9C372.7,414.6,371.9,414.6,371.1,414.6z"/>
		<path d="M371.1,415.7c1,0,2,0,2.9,0c0.3,0,0.3,0.1,0.2,0.3c-0.1,0.5-0.6,0.9-1.1,0.9c-1.4,0-2.8,0-4.3,0c-0.5,0-0.9-0.3-1-0.8
			c-0.1-0.3-0.1-0.4,0.3-0.4C369.2,415.7,370.1,415.7,371.1,415.7z"/>
		<path d="M371.1,417.5c0.3,0,0.6,0,0.9,0c0.2,0,0.3,0,0.2,0.3c-0.1,0.5-0.5,0.9-1.1,0.9c-0.6,0-1.1-0.3-1.2-0.9
			c-0.1-0.2,0-0.3,0.3-0.3C370.5,417.5,370.8,417.5,371.1,417.5z"/>
		<path class="st75" d="M365.6,401.7c0.1-0.8,0.5-1.6,1-2.3c0.6-0.8,1.4-1.4,2.4-1.8c0.4-0.2,0.8,0,0.9,0.3c0.1,0.3,0,0.6-0.5,0.8
			c-1.4,0.6-2.3,1.7-2.7,3.2c-0.1,0.4-0.4,0.6-0.7,0.6C365.8,402.4,365.6,402.1,365.6,401.7z"/>
	</g>
	<g id="el">
		<path class="st76" d="M608.6,957c0.4,14.7-12.1,28.2-28.2,28c-15.4-0.2-27.8-13.2-27.6-28.5c0.2-14.2,12.2-27.8,28.6-27.5
			C596.5,929.3,609,942.2,608.6,957z M583.2,944.4c0-2,0-4,0-6c0-1.4-0.7-2.3-1.9-2.6c-1.2-0.3-2.3,0.2-2.9,1.5
			c-3.6,7.4-7.2,14.8-10.8,22.1c-1,2.1,0.1,3.9,2.4,3.9c2.5,0,5,0,7.5,0c0.5,0,0.7,0.1,0.7,0.7c0,4,0,7.9,0,11.9c0,0.3,0,0.7,0.1,1
			c0.2,1.1,1.1,1.9,2.2,2c1.2,0.1,2-0.5,2.6-1.8c3.5-7.3,7.1-14.6,10.6-21.9c1-2-0.1-3.8-2.4-3.8c-2.5,0-5,0-7.5,0
			c-0.6,0-0.8-0.1-0.8-0.7C583.2,948.5,583.2,946.5,583.2,944.4z"/>
		<path class="st72" d="M583.2,944.4c0,2,0,4.1,0,6.1c0,0.6,0.2,0.8,0.8,0.7c2.5,0,5,0,7.5,0c2.2,0,3.3,1.8,2.4,3.8
			c-3.6,7.3-7.1,14.6-10.6,21.9c-0.7,1.3-1.4,1.9-2.6,1.8c-1.1-0.1-2-0.9-2.2-2c-0.1-0.3-0.1-0.7-0.1-1c0-4,0-7.9,0-11.9
			c0-0.6-0.1-0.7-0.7-0.7c-2.5,0-5,0-7.5,0c-2.3,0-3.4-1.8-2.4-3.9c3.6-7.4,7.2-14.8,10.8-22.1c0.6-1.3,1.7-1.8,2.9-1.5
			c1.2,0.3,1.9,1.2,1.9,2.6C583.2,940.4,583.2,942.4,583.2,944.4z"/>
	</g>
</g>
<g id="POINTS">
</g>
<g id="Kitchen">
</g>
<g id="Livingroom-icons">
</g>
<g id="Livingroom">
</g>
</svg>
