<?xml version="1.0" encoding="utf-8"?>
<!-- Generator: Adobe Illustrator 24.3.0, SVG Export Plug-In . SVG Version: 6.00 Build 0)  -->
<svg version="1.1" xmlns="http://www.w3.org/2000/svg" xmlns:xlink="http://www.w3.org/1999/xlink" x="0px" y="0px"
	 viewBox="0 0 1920 1080" style="enable-background:new 0 0 1920 1080;" xml:space="preserve">
<style type="text/css">
	.st0{fill:#D8E9F0;}
	.st1{fill:#3687A4;}
	.st2{fill:#ADDDEC;}
	.st3{fill:#FFFFFF;}
	.st4{fill:#A6DEF6;}
	.st5{fill:#FBC45E;}
	.st6{fill:#E89BBE;}
	.st7{fill:#7A8EC7;}
	.st8{fill:none;stroke:#FFFFFF;stroke-width:6;stroke-miterlimit:10;}
	.st9{fill:#C1E6EC;}
	.st10{fill:#FFFFFF;stroke:#FFFFFF;stroke-width:4;stroke-miterlimit:10;}
	.st11{fill:#CBDF8C;}
	.st12{fill:none;stroke:#FFFFFF;stroke-width:2;stroke-miterlimit:10;}
	.st13{fill:#838186;stroke:#838186;stroke-width:4;stroke-miterlimit:10;}
	.st14{fill:#838186;}
	.st15{fill:#DFDFDF;}
	.st16{fill:none;stroke:#FFFFFF;stroke-width:28;stroke-miterlimit:10;}
	.st17{opacity:0.4;fill:#FFFFFF;}
	.st18{fill:url(#SVGID_1_);}
	.st19{fill:url(#SVGID_2_);}
	.st20{fill:#BFE3D3;}
	.st21{fill:#ADCEC1;}
	.st22{fill:#58C5C7;}
	.st23{fill:#00B6BE;}
	.st24{fill:#DDBCC8;}
	.st25{fill:#BCAB92;}
	.st26{fill:#D6A1B7;}
	.st27{fill:#261F44;}
	.st28{opacity:0.44;fill:#5F5F60;}
	.st29{fill:none;stroke:#998675;stroke-width:2;stroke-miterlimit:10;}
	.st30{fill:url(#SVGID_3_);}
	.st31{fill:url(#SVGID_4_);}
	.st32{fill:url(#SVGID_5_);}
	.st33{fill:url(#SVGID_6_);}
	.st34{fill:url(#SVGID_7_);}
	.st35{fill:url(#SVGID_8_);}
	.st36{fill:url(#SVGID_9_);}
	.st37{fill:url(#SVGID_10_);}
	.st38{fill:url(#SVGID_11_);}
	.st39{fill:url(#SVGID_12_);}
	.st40{fill:url(#SVGID_13_);}
	.st41{fill:url(#SVGID_14_);}
	.st42{fill:url(#SVGID_15_);}
	.st43{fill:url(#SVGID_16_);}
	.st44{fill:url(#SVGID_17_);}
	.st45{fill:url(#SVGID_18_);}
	.st46{fill:url(#SVGID_19_);}
	.st47{fill:#454289;}
	.st48{fill:#38327C;}
	.st49{fill:#E6E6E6;}
	.st50{fill:#FF4370;}
	.st51{fill:#E53C70;}
	.st52{fill:#FF6699;}
	.st53{opacity:0.23;fill:#E53C70;}
	.st54{fill:#3F4650;}
	.st55{fill:#0267B6;}
	.st56{fill:#2BB03E;}
	.st57{fill:#EA2023;}
	.st58{fill:#FBED23;}
	.st59{fill:#0E6B7A;}
	.st60{opacity:0.64;fill:url(#SVGID_20_);}
	.st61{fill:none;stroke:#FFFFFF;stroke-width:8.0256;stroke-miterlimit:10;}
	.st62{fill:none;stroke:#FF4370;stroke-width:1.3376;stroke-miterlimit:10;}
	.st63{fill:#FF83B3;}
	.st64{fill:#EBB724;}
	.st65{fill:#FFC727;}
	.st66{fill:#50ACB0;}
	.st67{fill:#FD8283;}
	.st68{fill:#F07B7C;}
	.st69{fill:#3C8185;}
	.st70{display:none;fill:#3C8185;}
	.st71{fill:#92D1DF;}
	.st72{fill:#010101;}
	.st73{fill:#FAB924;}
	.st74{fill:#76B62A;}
	.st75{fill:#FDEE40;}
	.st76{fill:#020202;}
	.st77{fill:#ABD2D0;}
	.st78{fill:#968976;}
	.st79{fill:#70675B;}
	.st80{fill:#E4DECE;}
	.st81{fill:#93B7B6;}
	.st82{fill:#C9F9F9;}
	.st83{fill:none;stroke:#FFFFFF;stroke-width:2.9103;stroke-miterlimit:10;}
	.st84{fill:#F1893A;}
	.st85{fill:#C96E31;}
	.st86{fill:#DB7838;}
	.st87{fill:#2F3E4C;}
	.st88{fill:#87A978;}
	.st89{fill:#93BD85;}
	.st90{fill:#ACDA99;}
	.st91{fill:#475362;}
	.st92{fill:#627289;}
	.st93{fill:#303846;}
	.st94{fill:#41505E;}
	.st95{fill:none;stroke:#87A978;stroke-width:1.1982;stroke-miterlimit:10;}
	.st96{fill:#B4E6A1;}
	.st97{fill:none;stroke:#87A978;stroke-width:0.8558;stroke-miterlimit:10;}
	.st98{fill:#6E8462;}
	.st99{fill-rule:evenodd;clip-rule:evenodd;fill:#F0EEE6;}
	.st100{fill:#E4E0D9;}
	.st101{fill:#FFDD83;}
	.st102{fill:#219260;}
	.st103{fill:#147798;}
	.st104{fill:#915E36;}
	.st105{fill:#FB8710;}
	.st106{fill:#CA9E64;}
	.st107{fill:#B07F48;}
	.st108{fill:#53D678;}
	.st109{fill:#5C4B51;}
	.st110{fill:#F06060;}
	.st111{fill:#F2EBBF;}
	.st112{fill:none;stroke:#5C4B51;stroke-width:3.4462;stroke-linecap:round;stroke-linejoin:round;stroke-miterlimit:10;}
	.st113{opacity:0.38;fill:none;stroke:#FFFFFF;stroke-width:7;stroke-linecap:round;stroke-linejoin:round;stroke-miterlimit:10;}
	.st114{fill:#DC9C76;}
	.st115{fill:#729C76;}
	.st116{fill:#A94B51;}
	.st117{fill:#974B51;}
	.st118{opacity:0.5;fill:#CC575E;}
	.st119{fill:#7F9C76;}
	.st120{fill:#5C4B7A;}
	.st121{fill:#F03960;}
	.st122{fill:#FFC783;}
	.st123{fill:#5C1A51;}
	.st124{fill:#52BEB2;}
	.st125{fill:#F0A660;}
	.st126{fill:#F3B562;}
	.st127{fill:#F27800;}
	.st128{fill:#613D4A;}
	.st129{fill:#004F4D;}
	.st130{fill:#007F4F;}
	.st131{fill:#00654D;}
	.st132{fill:#F59333;}
	.st133{fill:#F1ECDA;}
	.st134{fill:#88A8A7;}
	.st135{fill:url(#SVGID_21_);}
	.st136{fill:#E6E7E8;}
	.st137{fill:#D1D3D4;}
	.st138{fill:#FDBA4A;}
	.st139{fill:#FAA222;}
	.st140{fill:#D3DEBC;}
	.st141{fill:#CC883B;}
	.st142{fill-rule:evenodd;clip-rule:evenodd;fill:#919697;}
	.st143{fill-rule:evenodd;clip-rule:evenodd;fill:#36343A;}
	.st144{fill-rule:evenodd;clip-rule:evenodd;fill:#0C050D;stroke:#0C050D;stroke-width:0.235;stroke-miterlimit:22.9256;}
	.st145{fill-rule:evenodd;clip-rule:evenodd;fill:#36343A;stroke:#0C050D;stroke-width:0.235;stroke-miterlimit:22.9256;}
	.st146{fill-rule:evenodd;clip-rule:evenodd;fill:#7D8082;}
	.st147{fill-rule:evenodd;clip-rule:evenodd;fill:#5BBA47;}
	.st148{fill-rule:evenodd;clip-rule:evenodd;fill:#818081;}
	.st149{fill-rule:evenodd;clip-rule:evenodd;fill:#666264;}
	.st150{fill-rule:evenodd;clip-rule:evenodd;fill:#3B3438;}
	.st151{fill-rule:evenodd;clip-rule:evenodd;fill:#62C3D2;}
	.st152{fill-rule:evenodd;clip-rule:evenodd;fill:#A0D6E1;}
	.st153{fill-rule:evenodd;clip-rule:evenodd;fill:#00B6E8;}
	.st154{fill-rule:evenodd;clip-rule:evenodd;fill:#232938;}
	.st155{fill-rule:evenodd;clip-rule:evenodd;fill:#E5B249;}
	.st156{fill-rule:evenodd;clip-rule:evenodd;fill:#D4C2AB;}
	.st157{fill-rule:evenodd;clip-rule:evenodd;fill:#E1894A;}
	.st158{fill-rule:evenodd;clip-rule:evenodd;fill:#FFFFFF;}
	.st159{fill:#232938;}
	.st160{fill:#A9B392;}
	.st161{fill:#E5B249;}
	.st162{fill-rule:evenodd;clip-rule:evenodd;fill:#A9B392;}
	.st163{fill:#ECECEC;}
	.st164{fill:#BEC3C7;}
	.st165{fill:#DAE0E2;}
	.st166{fill:#F45A2A;}
	.st167{fill:#F67B46;}
	.st168{fill:#E73F1F;}
	.st169{fill:#E1894A;}
	.st170{fill:#0A837F;}
	.st171{fill:#1DA19F;}
	.st172{fill:#3A6B34;}
	.st173{fill:#96BCBB;}
	.st174{fill:#68858E;}
	.st175{fill:#69935F;}
	.st176{fill:#B75353;}
	.st177{fill:#E0A76E;}
	.st178{fill:#F0D1BC;}
	.st179{fill:#1D2E35;}
	.st180{fill:#272A33;}
	.st181{fill:#563B31;}
	.st182{fill:#462D23;}
	.st183{fill:#FF8D0C;}
	.st184{fill:#FFBF17;}
	.st185{fill:#FFF2EB;}
	.st186{fill:#FFD690;}
	.st187{fill:#FFE5BF;}
	.st188{fill:#F9C44E;}
	.st189{fill:#F9DCB2;}
	.st190{fill:#F9EAD7;}
	.st191{fill:#61AA6A;}
	.st192{fill:#DCD8A0;}
	.st193{fill:#F8F6D3;}
	.st194{fill:#E8E4BF;}
	.st195{fill:#F1CC5E;}
	.st196{fill:#BB8150;}
	.st197{fill:#D09059;}
	.st198{fill:#E3AA79;}
	.st199{fill:#6FC07F;}
	.st200{fill:#A56A2D;}
	.st201{fill:url(#SVGID_22_);}
	.st202{fill:#EFA68F;}
	.st203{fill:#F28B66;}
	.st204{fill-rule:evenodd;clip-rule:evenodd;fill:#999A9A;}
	.st205{fill-rule:evenodd;clip-rule:evenodd;fill:#F3C54B;}
	.st206{fill-rule:evenodd;clip-rule:evenodd;fill:#BBBABA;}
	.st207{fill-rule:evenodd;clip-rule:evenodd;fill:#009CB4;}
	.st208{fill:url(#SVGID_23_);}
	.st209{fill:#3F4E61;}
	.st210{fill:#BE6647;}
	.st211{fill:#404F5F;}
	.st212{fill:#117598;}
	.st213{opacity:0.5;fill:#FF6E86;}
</style>
<g id="Bathroom-icons">
</g>
<g id="Bathroom">
</g>
<g id="Bedroom-icons">
</g>
<g id="Bedroom">
</g>
<g id="icons">
	<g id="el_8_">
		<g id="el_3_">
			<path class="st73" d="M581.6,666c0.4,14.7-12.1,28.2-28.2,28c-15.4-0.2-27.8-13.2-27.6-28.5c0.2-14.2,12.2-27.8,28.6-27.5
				C569.5,638.3,582,651.2,581.6,666z M556.2,653.4c0-2,0-4,0-6c0-1.4-0.7-2.3-1.9-2.6c-1.2-0.3-2.3,0.2-2.9,1.5
				c-3.6,7.4-7.2,14.8-10.8,22.1c-1,2.1,0.1,3.9,2.4,3.9c2.5,0,5,0,7.5,0c0.5,0,0.7,0.1,0.7,0.7c0,4,0,7.9,0,11.9c0,0.3,0,0.7,0.1,1
				c0.2,1.1,1.1,1.9,2.2,2c1.2,0.1,2-0.5,2.6-1.8c3.5-7.3,7.1-14.6,10.6-21.9c1-2-0.1-3.8-2.4-3.8c-2.5,0-5,0-7.5,0
				c-0.6,0-0.8-0.1-0.8-0.7C556.2,657.5,556.2,655.5,556.2,653.4z"/>
			<path class="st72" d="M556.2,653.4c0,2,0,4.1,0,6.1c0,0.6,0.2,0.8,0.8,0.7c2.5,0,5,0,7.5,0c2.2,0,3.3,1.8,2.4,3.8
				c-3.6,7.3-7.1,14.6-10.6,21.9c-0.7,1.3-1.4,1.9-2.6,1.8c-1.1-0.1-2-0.9-2.2-2c-0.1-0.3-0.1-0.7-0.1-1c0-4,0-7.9,0-11.9
				c0-0.6-0.1-0.7-0.7-0.7c-2.5,0-5,0-7.5,0c-2.3,0-3.4-1.8-2.4-3.9c3.6-7.4,7.2-14.8,10.8-22.1c0.6-1.3,1.7-1.8,2.9-1.5
				c1.2,0.3,1.9,1.2,1.9,2.6C556.2,649.4,556.2,651.4,556.2,653.4z"/>
		</g>
		<g id="el_2_">
			<path class="st73" d="M404.7,679.5c0.2,6-4.9,11.5-11.6,11.4c-6.3-0.1-11.4-5.4-11.3-11.6c0.1-5.8,5-11.4,11.7-11.2
				C399.7,668.2,404.8,673.5,404.7,679.5z M394.3,674.4c0-0.8,0-1.7,0-2.5c0-0.5-0.3-0.9-0.8-1c-0.5-0.1-0.9,0.1-1.2,0.6
				c-1.5,3-2.9,6-4.4,9.1c-0.4,0.9,0,1.6,1,1.6c1,0,2,0,3,0c0.3,0,0.3,0.1,0.3,0.3c0,1.6,0,3.2,0,4.8c0,0.1,0,0.3,0,0.4
				c0.1,0.5,0.5,0.9,1,0.8c0.5,0,0.8-0.3,1-0.7c1.4-3,2.9-6,4.4-9c0.4-0.8-0.1-1.6-1-1.6c-1,0-2.1,0-3.1,0c-0.2,0-0.3-0.1-0.3-0.3
				C394.3,676.1,394.3,675.2,394.3,674.4z"/>
			<path class="st72" d="M394.3,674.4c0,0.9,0,1.7,0,2.6c0,0.2,0,0.3,0.3,0.3c1,0,2.1,0,3.1,0c0.9,0,1.4,0.8,1,1.6
				c-1.5,3-2.9,6-4.4,9c-0.2,0.4-0.5,0.7-1,0.7c-0.5,0-0.9-0.3-1-0.8c0-0.1,0-0.3,0-0.4c0-1.6,0-3.2,0-4.8c0-0.3,0-0.4-0.3-0.3
				c-1,0-2,0-3,0c-1,0-1.4-0.7-1-1.6c1.5-3,2.9-6,4.4-9.1c0.2-0.5,0.7-0.7,1.2-0.6c0.5,0.1,0.8,0.5,0.8,1
				C394.3,672.7,394.3,673.5,394.3,674.4z"/>
		</g>
		<g id="el_1_">
			<path class="st73" d="M155.6,870.6c0.2,6-4.9,11.5-11.5,11.5c-6.3-0.1-11.4-5.4-11.3-11.6c0.1-5.8,5-11.4,11.7-11.2
				C150.7,859.3,155.8,864.5,155.6,870.6z M145.3,865.4c0-0.8,0-1.6,0-2.5c0-0.6-0.3-1-0.8-1.1c-0.5-0.1-0.9,0.1-1.2,0.6
				c-1.5,3-2.9,6-4.4,9.1c-0.4,0.8,0,1.6,1,1.6c1,0,2,0,3.1,0c0.2,0,0.3,0.1,0.3,0.3c0,1.6,0,3.2,0,4.9c0,0.1,0,0.3,0,0.4
				c0.1,0.5,0.5,0.8,0.9,0.8c0.5,0,0.8-0.2,1.1-0.7c1.5-3,2.9-6,4.4-9c0.4-0.8-0.1-1.6-1-1.6c-1,0-2,0-3.1,0c-0.2,0-0.3,0-0.3-0.3
				C145.3,867.1,145.3,866.3,145.3,865.4z"/>
			<path class="st72" d="M145.3,865.4c0,0.8,0,1.7,0,2.5c0,0.3,0.1,0.3,0.3,0.3c1,0,2,0,3.1,0c0.9,0,1.4,0.7,1,1.6
				c-1.5,3-2.9,6-4.4,9c-0.3,0.6-0.6,0.8-1.1,0.7c-0.5,0-0.8-0.4-0.9-0.8c0-0.1,0-0.3,0-0.4c0-1.6,0-3.2,0-4.9
				c0-0.2-0.1-0.3-0.3-0.3c-1,0-2,0-3.1,0c-0.9,0-1.4-0.7-1-1.6c1.5-3,2.9-6,4.4-9.1c0.2-0.5,0.7-0.7,1.2-0.6
				c0.5,0.1,0.8,0.5,0.8,1.1C145.3,863.8,145.3,864.6,145.3,865.4z"/>
		</g>
		<g id="el">
			<path class="st73" d="M1504.7,437.5c0.2,6-4.9,11.5-11.6,11.4c-6.3-0.1-11.4-5.4-11.3-11.6c0.1-5.8,5-11.4,11.7-11.2
				C1499.7,426.2,1504.8,431.5,1504.7,437.5z M1494.3,432.4c0-0.8,0-1.7,0-2.5c0-0.5-0.3-0.9-0.8-1c-0.5-0.1-0.9,0.1-1.2,0.6
				c-1.5,3-2.9,6-4.4,9.1c-0.4,0.9,0,1.6,1,1.6c1,0,2,0,3,0c0.3,0,0.3,0.1,0.3,0.3c0,1.6,0,3.2,0,4.8c0,0.1,0,0.3,0,0.4
				c0.1,0.5,0.5,0.9,1,0.8c0.5,0,0.8-0.3,1-0.7c1.4-3,2.9-6,4.4-9c0.4-0.8-0.1-1.6-1-1.6c-1,0-2.1,0-3.1,0c-0.2,0-0.3-0.1-0.3-0.3
				C1494.3,434.1,1494.3,433.2,1494.3,432.4z"/>
			<path class="st72" d="M1494.3,432.4c0,0.9,0,1.7,0,2.6c0,0.2,0,0.3,0.3,0.3c1,0,2.1,0,3.1,0c0.9,0,1.4,0.8,1,1.6
				c-1.5,3-2.9,6-4.4,9c-0.2,0.4-0.5,0.7-1,0.7c-0.5,0-0.9-0.3-1-0.8c0-0.1,0-0.3,0-0.4c0-1.6,0-3.2,0-4.8c0-0.3,0-0.4-0.3-0.3
				c-1,0-2,0-3,0c-1,0-1.4-0.7-1-1.6c1.5-3,2.9-6,4.4-9.1c0.2-0.5,0.7-0.7,1.2-0.6c0.5,0.1,0.8,0.5,0.8,1
				C1494.3,430.7,1494.3,431.5,1494.3,432.4z"/>
		</g>
	</g>
	<g id="light_24_">
		<g id="light_1_">
			<path class="st74" d="M677.4,234.6c8.4-0.1,15.5,6.9,15.5,15.5c0,8.6-7.1,15.6-15.7,15.5c-8.4-0.1-15.4-7.1-15.4-15.7
				C661.9,241.5,669.1,234.5,677.4,234.6z M677.1,255.2c0.9,0,1.7,0,2.6,0c0.6,0,0.6,0,0.7-0.6c0-0.1,0-0.1,0-0.2
				c0.2-1.2,0.8-2.1,1.5-3c1.2-1.6,2.1-3.2,2.3-5.3c0.1-1.5-0.1-3-1-4.2c-1.7-2.4-4.1-3.5-7-3.2c-2.6,0.3-4.5,1.7-5.6,4.1
				c-0.8,1.9-0.7,3.8,0.1,5.7c0.5,1.2,1.2,2.2,2,3.2c0.7,0.9,1.2,1.9,1.3,3.1c0,0.3,0.1,0.3,0.3,0.3
				C675.1,255.2,676.1,255.2,677.1,255.2z M677.1,257.6c0.8,0,1.6,0,2.4,0c0.9,0,0.9,0,0.9-0.9c0-0.3-0.1-0.3-0.4-0.3
				c-1.8,0-3.5,0-5.3,0c-0.9,0-0.9,0-0.9,0.9c0,0.3,0.1,0.3,0.3,0.3C675.1,257.6,676.1,257.6,677.1,257.6z M677.1,258.7
				c-1,0-2,0-2.9,0c-0.3,0-0.4,0.1-0.3,0.4c0.2,0.5,0.6,0.8,1,0.8c1.4,0,2.8,0,4.3,0c0.5,0,0.9-0.4,1.1-0.9c0.1-0.2,0-0.3-0.2-0.3
				C679.1,258.7,678.1,258.7,677.1,258.7z M677.1,260.5c-0.3,0-0.6,0-0.9,0c-0.3,0-0.3,0.1-0.3,0.3c0.1,0.5,0.6,0.9,1.2,0.9
				c0.5,0,1-0.4,1.1-0.9c0.1-0.2,0-0.3-0.2-0.3C677.7,260.5,677.4,260.5,677.1,260.5z"/>
			<path d="M677.1,255.2c-1,0-1.9,0-2.9,0c-0.2,0-0.3,0-0.3-0.3c-0.1-1.2-0.6-2.2-1.3-3.1c-0.7-1-1.5-2-2-3.2
				c-0.7-1.9-0.9-3.8-0.1-5.7c1.1-2.4,3-3.8,5.6-4.1c2.9-0.4,5.3,0.7,7,3.2c0.9,1.3,1.1,2.7,1,4.2c-0.1,2-1.1,3.7-2.3,5.3
				c-0.7,0.9-1.3,1.9-1.5,3c0,0.1,0,0.1,0,0.2c-0.1,0.6-0.1,0.6-0.7,0.6C678.8,255.2,678,255.2,677.1,255.2z M671.6,244.7
				c0,0.4,0.2,0.7,0.5,0.8c0.3,0,0.6-0.2,0.7-0.6c0.3-1.5,1.2-2.6,2.7-3.2c0.4-0.2,0.6-0.5,0.5-0.8c-0.2-0.4-0.5-0.5-0.9-0.3
				c-0.9,0.4-1.7,1-2.4,1.8C672.1,243.1,671.7,243.9,671.6,244.7z"/>
			<path d="M677.1,257.6c-1,0-1.9,0-2.9,0c-0.2,0-0.3,0-0.3-0.3c0-0.9,0-0.9,0.9-0.9c1.8,0,3.5,0,5.3,0c0.3,0,0.4,0,0.4,0.3
				c0,0.9,0,0.9-0.9,0.9C678.7,257.6,677.9,257.6,677.1,257.6z"/>
			<path d="M677.1,258.7c1,0,2,0,2.9,0c0.3,0,0.3,0.1,0.2,0.3c-0.1,0.5-0.6,0.9-1.1,0.9c-1.4,0-2.8,0-4.3,0c-0.5,0-0.9-0.3-1-0.8
				c-0.1-0.3-0.1-0.4,0.3-0.4C675.2,258.7,676.1,258.7,677.1,258.7z"/>
			<path d="M677.1,260.5c0.3,0,0.6,0,0.9,0c0.2,0,0.3,0,0.2,0.3c-0.1,0.5-0.5,0.9-1.1,0.9c-0.6,0-1.1-0.3-1.2-0.9
				c-0.1-0.2,0-0.3,0.3-0.3C676.5,260.5,676.8,260.5,677.1,260.5z"/>
			<path class="st74" d="M671.6,244.7c0.1-0.8,0.5-1.6,1-2.3c0.6-0.8,1.4-1.4,2.4-1.8c0.4-0.2,0.8,0,0.9,0.3c0.1,0.3,0,0.6-0.5,0.8
				c-1.4,0.6-2.3,1.7-2.7,3.2c-0.1,0.4-0.4,0.6-0.7,0.6C671.8,245.4,671.6,245.1,671.6,244.7z"/>
		</g>
		<g id="light">
			<path class="st74" d="M1790.4,368.6c8.4-0.1,15.5,6.9,15.5,15.5c0,8.6-7.1,15.6-15.7,15.5c-8.4-0.1-15.4-7.1-15.4-15.7
				C1774.9,375.5,1782.1,368.5,1790.4,368.6z M1790.1,389.2c0.9,0,1.7,0,2.6,0c0.6,0,0.6,0,0.7-0.6c0-0.1,0-0.1,0-0.2
				c0.2-1.2,0.8-2.1,1.5-3c1.2-1.6,2.1-3.2,2.3-5.3c0.1-1.5-0.1-3-1-4.2c-1.7-2.4-4.1-3.5-7-3.2c-2.6,0.3-4.5,1.7-5.6,4.1
				c-0.8,1.9-0.7,3.8,0.1,5.7c0.5,1.2,1.2,2.2,2,3.2c0.7,0.9,1.2,1.9,1.3,3.1c0,0.3,0.1,0.3,0.3,0.3
				C1788.1,389.2,1789.1,389.2,1790.1,389.2z M1790.1,391.6c0.8,0,1.6,0,2.4,0c0.9,0,0.9,0,0.9-0.9c0-0.3-0.1-0.3-0.4-0.3
				c-1.8,0-3.5,0-5.3,0c-0.9,0-0.9,0-0.9,0.9c0,0.3,0.1,0.3,0.3,0.3C1788.1,391.6,1789.1,391.6,1790.1,391.6z M1790.1,392.7
				c-1,0-2,0-2.9,0c-0.3,0-0.4,0.1-0.3,0.4c0.2,0.5,0.6,0.8,1,0.8c1.4,0,2.8,0,4.3,0c0.5,0,0.9-0.4,1.1-0.9c0.1-0.2,0-0.3-0.2-0.3
				C1792.1,392.7,1791.1,392.7,1790.1,392.7z M1790.1,394.5c-0.3,0-0.6,0-0.9,0c-0.3,0-0.3,0.1-0.3,0.3c0.1,0.5,0.6,0.9,1.2,0.9
				c0.5,0,1-0.4,1.1-0.9c0.1-0.2,0-0.3-0.2-0.3C1790.7,394.5,1790.4,394.5,1790.1,394.5z"/>
			<path d="M1790.1,389.2c-1,0-1.9,0-2.9,0c-0.2,0-0.3,0-0.3-0.3c-0.1-1.2-0.6-2.2-1.3-3.1c-0.7-1-1.5-2-2-3.2
				c-0.7-1.9-0.9-3.8-0.1-5.7c1.1-2.4,3-3.8,5.6-4.1c2.9-0.4,5.3,0.7,7,3.2c0.9,1.3,1.1,2.7,1,4.2c-0.1,2-1.1,3.7-2.3,5.3
				c-0.7,0.9-1.3,1.9-1.5,3c0,0.1,0,0.1,0,0.2c-0.1,0.6-0.1,0.6-0.7,0.6C1791.8,389.2,1791,389.2,1790.1,389.2z M1784.6,378.7
				c0,0.4,0.2,0.7,0.5,0.8c0.3,0,0.6-0.2,0.7-0.6c0.3-1.5,1.2-2.6,2.7-3.2c0.4-0.2,0.6-0.5,0.5-0.8c-0.2-0.4-0.5-0.5-0.9-0.3
				c-0.9,0.4-1.7,1-2.4,1.8C1785.1,377.1,1784.7,377.9,1784.6,378.7z"/>
			<path d="M1790.1,391.6c-1,0-1.9,0-2.9,0c-0.2,0-0.3,0-0.3-0.3c0-0.9,0-0.9,0.9-0.9c1.8,0,3.5,0,5.3,0c0.3,0,0.4,0,0.4,0.3
				c0,0.9,0,0.9-0.9,0.9C1791.7,391.6,1790.9,391.6,1790.1,391.6z"/>
			<path d="M1790.1,392.7c1,0,2,0,2.9,0c0.3,0,0.3,0.1,0.2,0.3c-0.1,0.5-0.6,0.9-1.1,0.9c-1.4,0-2.8,0-4.3,0c-0.5,0-0.9-0.3-1-0.8
				c-0.1-0.3-0.1-0.4,0.3-0.4C1788.2,392.7,1789.1,392.7,1790.1,392.7z"/>
			<path d="M1790.1,394.5c0.3,0,0.6,0,0.9,0c0.2,0,0.3,0,0.2,0.3c-0.1,0.5-0.5,0.9-1.1,0.9c-0.6,0-1.1-0.3-1.2-0.9
				c-0.1-0.2,0-0.3,0.3-0.3C1789.5,394.5,1789.8,394.5,1790.1,394.5z"/>
			<path class="st74" d="M1784.6,378.7c0.1-0.8,0.5-1.6,1-2.3c0.6-0.8,1.4-1.4,2.4-1.8c0.4-0.2,0.8,0,0.9,0.3c0.1,0.3,0,0.6-0.5,0.8
				c-1.4,0.6-2.3,1.7-2.7,3.2c-0.1,0.4-0.4,0.6-0.7,0.6C1784.8,379.4,1784.6,379.1,1784.6,378.7z"/>
		</g>
	</g>
	<g id="heat_2_">
		<g id="heat">
			<path class="st75" d="M1011.1,737.5c14.1-0.1,26,11.5,26,26c0,14.4-11.8,26.2-26.4,26c-14.1-0.1-25.9-11.8-25.8-26.3
				C985.1,749.1,996.9,737.3,1011.1,737.5z M1001.8,778.3C1001.8,778.3,1001.8,778.3,1001.8,778.3c0,0.4,0,0.8,0,1.2
				c0.1,1.1,0.5,1.3,1.4,0.7c0.7-0.4,1.3-1,1.9-1.4c0.8-0.6,1.2-0.5,1.5,0.5c0.3,0.8,0.5,1.6,0.7,2.4c0.4,1,0.8,1.1,1.5,0.2
				c0.5-0.6,0.9-1.3,1.4-1.9c0.7-0.9,1-0.9,1.7,0c0.5,0.7,0.9,1.4,1.4,2c0.6,0.8,1.1,0.7,1.4-0.2c0.3-0.8,0.5-1.6,0.8-2.3
				c0.4-1,0.7-1.1,1.6-0.5c0.7,0.5,1.3,1,2,1.5c0.7,0.5,1.1,0.3,1.2-0.6c0.1-0.9-0.1-1.8,0-2.7c0.1-0.9,0.4-1.1,1.3-0.9
				c0.7,0.2,1.5,0.5,2.2,0.8c0.4,0.1,0.8,0.3,1.2,0c0.3-0.3,0.2-0.8,0-1.2c-0.2-0.7-0.5-1.4-0.7-2.1c-0.3-1-0.1-1.4,1-1.4
				c0.8,0,1.6,0.1,2.3,0.1c1.1,0,1.3-0.5,0.7-1.4c-0.4-0.7-1-1.3-1.4-1.9c-0.6-0.8-0.4-1.2,0.5-1.5c0.8-0.3,1.6-0.5,2.4-0.7
				c0.9-0.3,1-0.8,0.2-1.4c-0.6-0.5-1.3-0.9-2-1.5c-0.8-0.6-0.8-1,0-1.6c0.4-0.3,0.9-0.6,1.3-0.9c0.3-0.2,0.6-0.4,0.9-0.7
				c0.5-0.5,0.4-0.8-0.2-1.1c-0.2-0.1-0.5-0.2-0.7-0.3c-0.6-0.2-1.2-0.4-1.8-0.6c-1-0.4-1.1-0.7-0.5-1.6c0.5-0.7,1-1.3,1.5-1.9
				c0.6-0.8,0.4-1.3-0.6-1.3c-0.9,0-1.7,0-2.6,0c-0.9,0-1.1-0.4-0.9-1.2c0.2-0.8,0.6-1.6,0.8-2.4c0.3-1.1,0-1.4-1.1-1.1
				c-0.8,0.2-1.6,0.5-2.4,0.8c-0.9,0.2-1.1,0.1-1.2-0.8c0-0.8,0-1.6,0-2.5c0-0.4,0-0.9-0.4-1.1c-0.4-0.2-0.8,0.1-1.1,0.3
				c-0.6,0.4-1.2,0.9-1.8,1.3c-0.9,0.6-1.3,0.5-1.6-0.5c-0.2-0.7-0.4-1.4-0.6-2.1c-0.1-0.4-0.2-0.9-0.7-0.9c-0.5-0.1-0.7,0.3-1,0.7
				c-0.4,0.6-0.8,1.2-1.3,1.8c-0.7,0.8-1,0.8-1.7,0c-0.5-0.6-0.9-1.3-1.3-1.9c-0.2-0.3-0.5-0.7-0.9-0.7c-0.5,0.1-0.6,0.5-0.7,0.9
				c-0.1,0.3-0.2,0.5-0.3,0.8c-0.2,0.5-0.3,1.1-0.6,1.6c-0.3,0.7-0.6,0.8-1.2,0.4c-0.5-0.3-1-0.7-1.4-1.1c-0.4-0.3-0.7-0.6-1.1-0.8
				c-0.5-0.2-0.8-0.1-0.9,0.4c-0.1,0.3-0.1,0.5-0.1,0.8c0,0.7,0,1.4,0,2.2c0,0.9-0.4,1.2-1.3,0.9c-0.8-0.2-1.6-0.6-2.4-0.8
				c-1-0.3-1.3,0-1.1,1c0.1,0.4,0.2,0.7,0.3,1.1c0.2,0.5,0.4,1,0.5,1.5c0.2,0.7,0,1-0.7,1.1c-0.4,0-0.7,0-1.1,0c-0.7,0-1.4-0.1-2,0
				c-0.6,0.1-0.7,0.4-0.5,0.9c0.2,0.5,0.5,0.9,0.9,1.3c0.3,0.5,0.7,0.9,1,1.4c0.3,0.5,0.1,0.8-0.4,1c-0.4,0.2-0.9,0.3-1.3,0.4
				c-0.6,0.2-1.2,0.3-1.8,0.6c-0.5,0.3-0.5,0.6-0.2,1c0.3,0.4,0.8,0.7,1.2,1c0.5,0.3,1,0.7,1.4,1.1c0.4,0.4,0.4,0.7,0,1.1
				c-0.4,0.4-0.8,0.6-1.2,0.9c-0.3,0.2-0.7,0.4-1,0.7c-0.3,0.2-0.7,0.5-0.6,0.9c0.1,0.4,0.5,0.5,0.8,0.7c0.5,0.2,1.1,0.3,1.6,0.5
				c0.4,0.1,0.7,0.2,1,0.4c0.4,0.2,0.5,0.5,0.3,1c-0.2,0.5-0.6,0.9-0.9,1.3c-0.4,0.5-0.8,0.9-1,1.5c-0.2,0.5-0.1,0.8,0.5,0.9
				c0.2,0,0.5,0,0.7,0c0.8,0,1.6,0,2.3,0c0.7,0,1,0.3,0.8,1.1c-0.2,0.8-0.5,1.5-0.8,2.3c-0.1,0.4-0.4,0.9,0,1.3
				c0.4,0.4,0.9,0.1,1.3,0c0.8-0.2,1.5-0.6,2.3-0.8c0.6-0.1,0.9,0.1,1,0.7C1001.8,777.4,1001.8,777.9,1001.8,778.3z"/>
			<path class="st76" d="M1001.8,778.3c0-0.5,0-1,0-1.5c0-0.7-0.3-0.9-1-0.7c-0.8,0.2-1.6,0.5-2.3,0.8c-0.4,0.1-0.9,0.4-1.3,0
				c-0.4-0.4-0.1-0.9,0-1.3c0.2-0.8,0.5-1.5,0.8-2.3c0.2-0.7,0-1-0.8-1.1c-0.8,0-1.6,0-2.3,0c-0.2,0-0.5,0-0.7,0
				c-0.6-0.1-0.7-0.4-0.5-0.9c0.3-0.5,0.7-1,1-1.5c0.3-0.4,0.7-0.8,0.9-1.3c0.2-0.4,0.1-0.8-0.3-1c-0.3-0.2-0.7-0.3-1-0.4
				c-0.5-0.2-1.1-0.3-1.6-0.5c-0.3-0.1-0.8-0.2-0.8-0.7c-0.1-0.5,0.3-0.7,0.6-0.9c0.3-0.3,0.7-0.5,1-0.7c0.4-0.3,0.9-0.6,1.2-0.9
				c0.4-0.4,0.4-0.7,0-1.1c-0.4-0.4-0.9-0.7-1.4-1.1c-0.4-0.3-0.9-0.6-1.2-1c-0.4-0.4-0.3-0.7,0.2-1c0.6-0.3,1.2-0.4,1.8-0.6
				c0.4-0.1,0.9-0.3,1.3-0.4c0.5-0.2,0.6-0.6,0.4-1c-0.3-0.5-0.6-1-1-1.4c-0.3-0.4-0.7-0.8-0.9-1.3c-0.2-0.5-0.1-0.8,0.5-0.9
				c0.7-0.1,1.4,0,2,0c0.4,0,0.7,0,1.1,0c0.7-0.1,0.9-0.4,0.7-1.1c-0.1-0.5-0.3-1-0.5-1.5c-0.1-0.4-0.2-0.7-0.3-1.1
				c-0.2-1,0.1-1.3,1.1-1c0.8,0.2,1.6,0.6,2.4,0.8c0.9,0.3,1.2,0.1,1.3-0.9c0-0.7,0-1.4,0-2.2c0-0.3,0-0.5,0.1-0.8
				c0.1-0.5,0.4-0.7,0.9-0.4c0.4,0.2,0.8,0.5,1.1,0.8c0.5,0.4,0.9,0.7,1.4,1.1c0.6,0.4,0.9,0.3,1.2-0.4c0.2-0.5,0.4-1.1,0.6-1.6
				c0.1-0.3,0.2-0.6,0.3-0.8c0.2-0.4,0.2-0.9,0.7-0.9c0.4-0.1,0.7,0.3,0.9,0.7c0.4,0.6,0.8,1.3,1.3,1.9c0.7,0.9,1,0.9,1.7,0
				c0.5-0.6,0.9-1.2,1.3-1.8c0.2-0.3,0.5-0.7,1-0.7c0.5,0.1,0.6,0.5,0.7,0.9c0.2,0.7,0.4,1.4,0.6,2.1c0.4,1,0.7,1.2,1.6,0.5
				c0.6-0.4,1.2-0.9,1.8-1.3c0.3-0.2,0.7-0.6,1.1-0.3c0.4,0.2,0.4,0.7,0.4,1.1c0,0.8-0.1,1.6,0,2.5c0,0.9,0.3,1,1.2,0.8
				c0.8-0.2,1.6-0.5,2.4-0.8c1.1-0.3,1.4,0,1.1,1.1c-0.2,0.8-0.6,1.6-0.8,2.4c-0.2,0.8,0,1.2,0.9,1.2c0.9,0,1.7,0,2.6,0
				c1,0,1.2,0.5,0.6,1.3c-0.5,0.7-1,1.3-1.5,1.9c-0.7,0.9-0.5,1.2,0.5,1.6c0.6,0.2,1.2,0.4,1.8,0.6c0.3,0.1,0.5,0.2,0.7,0.3
				c0.6,0.3,0.7,0.7,0.2,1.1c-0.3,0.3-0.6,0.5-0.9,0.7c-0.4,0.3-0.9,0.6-1.3,0.9c-0.8,0.6-0.8,1,0,1.6c0.6,0.5,1.4,0.9,2,1.5
				c0.8,0.6,0.7,1.1-0.2,1.4c-0.8,0.3-1.6,0.5-2.4,0.7c-0.9,0.3-1.1,0.7-0.5,1.5c0.4,0.7,1,1.3,1.4,1.9c0.6,0.9,0.4,1.4-0.7,1.4
				c-0.8,0-1.6-0.1-2.3-0.1c-1.1,0-1.3,0.3-1,1.4c0.2,0.7,0.5,1.4,0.7,2.1c0.1,0.4,0.3,0.8,0,1.2c-0.3,0.3-0.8,0.1-1.2,0
				c-0.7-0.2-1.5-0.5-2.2-0.8c-0.9-0.3-1.2,0-1.3,0.9c-0.1,0.9,0.1,1.8,0,2.7c-0.1,0.9-0.5,1.1-1.2,0.6c-0.7-0.5-1.3-1-2-1.5
				c-0.9-0.6-1.3-0.5-1.6,0.5c-0.3,0.8-0.5,1.6-0.8,2.3c-0.3,0.9-0.8,1-1.4,0.2c-0.5-0.6-0.9-1.4-1.4-2c-0.7-0.9-1-0.9-1.7,0
				c-0.5,0.6-0.9,1.3-1.4,1.9c-0.7,0.9-1.1,0.8-1.5-0.2c-0.3-0.8-0.5-1.6-0.7-2.4c-0.3-0.9-0.7-1.1-1.5-0.5c-0.7,0.4-1.3,1-1.9,1.4
				c-0.9,0.6-1.3,0.4-1.4-0.7C1001.7,779.2,1001.8,778.8,1001.8,778.3C1001.8,778.3,1001.8,778.3,1001.8,778.3z M1025.1,763.1
				c0-7.6-6.2-13.8-13.8-13.8c-7.7,0-13.9,6.2-13.9,13.9c0,7.7,6.2,13.8,14,13.8C1018.9,776.9,1025.1,770.6,1025.1,763.1z"/>
			<path class="st75" d="M1025.1,763.1c0,7.5-6.2,13.8-13.6,13.8c-7.8,0-14-6.1-14-13.8c0-7.7,6.2-13.9,13.9-13.9
				C1018.8,749.2,1025.1,755.4,1025.1,763.1z M1000.6,763.1c0,5.9,4.7,10.6,10.6,10.6c5.8,0,10.6-4.7,10.6-10.4
				c0-6-4.6-10.8-10.5-10.8C1005.4,752.5,1000.6,757.2,1000.6,763.1z"/>
			<path class="st76" d="M1000.6,763.1c0-5.9,4.7-10.6,10.7-10.6c5.9,0,10.5,4.8,10.5,10.8c0,5.7-4.8,10.4-10.6,10.4
				C1005.4,773.7,1000.6,768.9,1000.6,763.1z"/>
		</g>
	</g>
</g>
<g id="Kitchen">
</g>
<g id="Livingroom-icons">
</g>
<g id="Livingroom">
	<g>
		<g>
			<linearGradient id="SVGID_1_" gradientUnits="userSpaceOnUse" x1="-141.8714" y1="369.8292" x2="-141.8714" y2="516">
				<stop  offset="0.3947" style="stop-color:#FFFFA7"/>
				<stop  offset="0.8021" style="stop-color:#FFFFE6;stop-opacity:0.327"/>
				<stop  offset="1" style="stop-color:#FFFFFF;stop-opacity:0"/>
			</linearGradient>
			<polygon class="st18" points="-192.9,379.4 -299.7,516 16,516 -118.1,369.8 			"/>
		</g>
	</g>
</g>
</svg>
