<?xml version="1.0" encoding="utf-8"?>
<!-- Generator: Adobe Illustrator 24.3.0, SVG Export Plug-In . SVG Version: 6.00 Build 0)  -->
<svg version="1.1" xmlns="http://www.w3.org/2000/svg" xmlns:xlink="http://www.w3.org/1999/xlink" x="0px" y="0px"
	 viewBox="0 0 1920 1080" style="enable-background:new 0 0 1920 1080;" xml:space="preserve">
<style type="text/css">
	.st0{fill:#D8E9F0;}
	.st1{fill:#3687A4;}
	.st2{fill:#ADDDEC;}
	.st3{fill:#DDBCC8;}
	.st4{fill:#BCAB92;}
	.st5{fill:#D6A1B7;}
	.st6{fill:#ABD2D0;}
	.st7{fill:#968976;}
	.st8{fill:#D3DEBC;}
	.st9{fill:#CC883B;}
	.st10{fill-rule:evenodd;clip-rule:evenodd;fill:#919697;}
	.st11{fill-rule:evenodd;clip-rule:evenodd;fill:#36343A;}
	.st12{fill-rule:evenodd;clip-rule:evenodd;fill:#0C050D;stroke:#0C050D;stroke-width:0.235;stroke-miterlimit:22.9256;}
	.st13{fill-rule:evenodd;clip-rule:evenodd;fill:#36343A;stroke:#0C050D;stroke-width:0.235;stroke-miterlimit:22.9256;}
	.st14{fill-rule:evenodd;clip-rule:evenodd;fill:#7D8082;}
	.st15{fill-rule:evenodd;clip-rule:evenodd;fill:#5BBA47;}
	.st16{fill-rule:evenodd;clip-rule:evenodd;fill:#818081;}
	.st17{fill-rule:evenodd;clip-rule:evenodd;fill:#666264;}
	.st18{fill-rule:evenodd;clip-rule:evenodd;fill:#3B3438;}
	.st19{fill-rule:evenodd;clip-rule:evenodd;fill:#62C3D2;}
	.st20{fill-rule:evenodd;clip-rule:evenodd;fill:#A0D6E1;}
	.st21{fill-rule:evenodd;clip-rule:evenodd;fill:#00B6E8;}
	.st22{fill-rule:evenodd;clip-rule:evenodd;fill:#232938;}
	.st23{fill-rule:evenodd;clip-rule:evenodd;fill:#E5B249;}
	.st24{fill-rule:evenodd;clip-rule:evenodd;fill:#D4C2AB;}
	.st25{fill-rule:evenodd;clip-rule:evenodd;fill:#E1894A;}
	.st26{fill-rule:evenodd;clip-rule:evenodd;fill:#FFFFFF;}
	.st27{fill:#232938;}
	.st28{fill:#A9B392;}
	.st29{fill:#E5B249;}
	.st30{fill:#EBB724;}
	.st31{fill:#FFC727;}
	.st32{fill:#50ACB0;}
	.st33{fill:#FD8283;}
	.st34{fill:#F07B7C;}
	.st35{fill:#3C8185;}
	.st36{display:none;fill:#3C8185;}
	.st37{fill-rule:evenodd;clip-rule:evenodd;fill:#A9B392;}
	.st38{fill:#ECECEC;}
	.st39{fill:#BEC3C7;}
	.st40{fill:#DAE0E2;}
	.st41{fill:#F45A2A;}
	.st42{fill:#F67B46;}
	.st43{fill:#E73F1F;}
	.st44{fill:#E1894A;}
	.st45{fill:#0A837F;}
	.st46{fill:#1DA19F;}
	.st47{fill:#FFFFFF;}
	.st48{fill:#3A6B34;}
	.st49{fill:#96BCBB;}
	.st50{fill:#68858E;}
	.st51{fill:#69935F;}
	.st52{fill:#B75353;}
	.st53{fill:#E0A76E;}
	.st54{fill:#F0D1BC;}
	.st55{fill:#1D2E35;}
	.st56{fill:#272A33;}
	.st57{fill:#563B31;}
	.st58{fill:#462D23;}
	.st59{fill:#FF8D0C;}
	.st60{fill:#FFBF17;}
	.st61{fill:#FFF2EB;}
	.st62{fill:#FFD690;}
	.st63{fill:#FFE5BF;}
	.st64{fill:#F9C44E;}
	.st65{fill:#F9DCB2;}
	.st66{fill:#F9EAD7;}
	.st67{fill:#61AA6A;}
	.st68{fill:#DCD8A0;}
	.st69{fill:#F8F6D3;}
	.st70{fill:#E8E4BF;}
	.st71{fill:#F1CC5E;}
	.st72{fill:#BB8150;}
	.st73{fill:#D09059;}
	.st74{fill:#E3AA79;}
	.st75{fill:#6FC07F;}
	.st76{fill:#A56A2D;}
	.st77{fill-rule:evenodd;clip-rule:evenodd;fill:#999A9A;}
	.st78{fill-rule:evenodd;clip-rule:evenodd;fill:#F3C54B;}
	.st79{fill-rule:evenodd;clip-rule:evenodd;fill:#BBBABA;}
	.st80{fill-rule:evenodd;clip-rule:evenodd;fill:#009CB4;}
	.st81{fill:url(#SVGID_1_);}
	.st82{fill:url(#SVGID_2_);}
	.st83{fill:#EFA68F;}
	.st84{fill:#F28B66;}
</style>
<g id="Bathroom-icons">
</g>
<g id="Bathroom">
</g>
<g id="Bedroom-icons">
</g>
<g id="Bedroom">
</g>
<g id="Kitchen-icons">
</g>
<g id="Kitchen">
</g>
<g id="Livingroom-icons">
</g>
<g id="Livingroom">
	<rect x="0" y="0" class="st8" width="1920" height="1080"/>
	<rect x="0" y="911.5" class="st9" width="1920" height="168.5"/>
	<g>
		<path class="st10" d="M1477.6,396h32.2c4.3,0,7.9,3.5,7.9,7.8v98.6c0,1.9-1.6,3.5-3.5,3.5h-40.9c-1.9,0-3.5-1.6-3.5-3.5v-98.6
			C1469.7,399.5,1473.2,396,1477.6,396z"/>
		<path class="st11" d="M1480.2,401.2h26.6c3.6,0,6.5,2.9,6.5,6.5V486c0,1.6-1.3,2.9-2.9,2.9h-33.8c-1.6,0-2.9-1.3-2.9-2.9v-78.3
			C1473.7,404.2,1476.6,401.2,1480.2,401.2z"/>
		<path class="st12" d="M1493.4,441.6c8,0,14.5-6.5,14.5-14.5c0-8-6.5-14.5-14.5-14.5c-8,0-14.5,6.5-14.5,14.5
			C1478.9,435.1,1485.4,441.6,1493.4,441.6z"/>
		<path class="st13" d="M1493.4,436.1c5,0,9-4,9-9s-4-9-9-9c-4.9,0-9,4-9,9S1488.5,436.1,1493.4,436.1z"/>
		<path class="st12" d="M1493.6,475.3c5.6,0,10.2-4.6,10.2-10.2c0-5.6-4.6-10.2-10.2-10.2c-5.6,0-10.2,4.6-10.2,10.2
			C1483.5,470.8,1488,475.3,1493.6,475.3z"/>
		<path class="st13" d="M1493.6,470.6c3,0,5.5-2.5,5.5-5.5s-2.5-5.5-5.5-5.5s-5.5,2.5-5.5,5.5
			C1488.2,468.2,1490.6,470.6,1493.6,470.6z"/>
	</g>
	<g>
		<path class="st10" d="M376.9,650h32.2c4.3,0,7.9,3.5,7.9,7.8v98.6c0,1.9-1.6,3.5-3.5,3.5h-40.9c-1.9,0-3.5-1.6-3.5-3.5v-98.6
			C369,653.5,372.5,650,376.9,650z"/>
		<path class="st11" d="M379.4,655.2h26.6c3.6,0,6.5,2.9,6.5,6.5V740c0,1.6-1.3,2.9-2.9,2.9h-33.8c-1.6,0-2.9-1.3-2.9-2.9v-78.3
			C373,658.2,375.9,655.2,379.4,655.2z"/>
		<path class="st11" d="M386.4,750.7c0,3.2,2.5,5.7,5.7,5.7c3.2,0,5.7-2.6,5.7-5.7c0-3.2-2.5-5.7-5.7-5.7
			C389,744.9,386.4,747.5,386.4,750.7z"/>
		<path class="st14" d="M388.8,750.7c0,1.9,1.5,3.4,3.3,3.4c1.9,0,3.4-1.5,3.4-3.3c0-1.9-1.5-3.4-3.3-3.4
			C390.3,747.3,388.8,748.8,388.8,750.7z"/>
		<path class="st15" d="M375,751.4c0,0.9,0.7,1.6,1.6,1.6c0.9,0,1.6-0.7,1.6-1.6c0-0.9-0.7-1.6-1.6-1.6
			C375.7,749.8,375,750.5,375,751.4z"/>
		<path class="st12" d="M392.8,695.6c8,0,14.5-6.5,14.5-14.5c0-8-6.5-14.5-14.5-14.5c-8,0-14.5,6.5-14.5,14.5
			C378.2,689.1,384.8,695.6,392.8,695.6z"/>
		<path class="st13" d="M392.8,690.1c5,0,9-4,9-9c0-5-4-9-9-9c-5,0-9,4-9,9C383.8,686,387.8,690.1,392.8,690.1z"/>
		<path class="st12" d="M393,729.3c5.6,0,10.2-4.6,10.2-10.2c0-5.6-4.6-10.2-10.2-10.2c-5.6,0-10.2,4.6-10.2,10.2
			C382.8,724.8,387.3,729.3,393,729.3z"/>
		<path class="st13" d="M393,724.6c3,0,5.5-2.5,5.5-5.5s-2.5-5.5-5.5-5.5c-3,0-5.5,2.5-5.5,5.5S389.9,724.6,393,724.6z"/>
		<path class="st11" d="M402.9,750.7c0,2,1.6,3.5,3.5,3.5c2,0,3.5-1.6,3.5-3.5c0-1.9-1.6-3.5-3.5-3.5
			C404.5,747.1,402.9,748.7,402.9,750.7z"/>
		<path class="st14" d="M404.4,750.7c0,1.1,0.9,2.1,2.1,2.1c1.1,0,2.1-0.9,2.1-2.1c0-1.1-0.9-2.1-2.1-2.1
			C405.3,748.6,404.4,749.5,404.4,750.7z"/>
	</g>
	<g>
		<path class="st10" d="M122.9,518h40.2c4.3,0,7.9,3.5,7.9,7.8v382.6c0,1.9-1.6,3.5-3.5,3.5h-48.9c-1.9,0-3.5-1.6-3.5-3.5V525.8
			C115,521.5,118.5,518,122.9,518z"/>
		<path class="st11" d="M125.4,522.2h35.6c3.6,0,6.5,2.9,6.5,6.5V892c0,1.6-1.3,2.9-2.9,2.9h-42.8c-1.6,0-2.9-1.3-2.9-2.9V528.7
			C119,525.2,121.9,522.2,125.4,522.2z"/>
		<path class="st11" d="M136.4,902.7c0,3.2,2.5,5.7,5.7,5.7c3.2,0,5.7-2.6,5.7-5.7c0-3.2-2.5-5.7-5.7-5.7
			C139,896.9,136.4,899.5,136.4,902.7z"/>
		<path class="st14" d="M138.8,902.7c0,1.9,1.5,3.4,3.3,3.4c1.9,0,3.4-1.5,3.4-3.3c0-1.9-1.5-3.4-3.3-3.4
			C140.3,899.3,138.8,900.8,138.8,902.7z"/>
		<path class="st15" d="M125,903.4c0,0.9,0.7,1.6,1.6,1.6c0.9,0,1.6-0.7,1.6-1.6c0-0.9-0.7-1.6-1.6-1.6
			C125.7,901.8,125,902.5,125,903.4z"/>
		<path class="st11" d="M152.9,902.7c0,2,1.6,3.5,3.5,3.5c2,0,3.5-1.6,3.5-3.5c0-1.9-1.6-3.5-3.5-3.5
			C154.5,899.1,152.9,900.7,152.9,902.7z"/>
		<path class="st14" d="M154.4,902.7c0,1.1,0.9,2.1,2.1,2.1c1.1,0,2.1-0.9,2.1-2.1c0-1.1-0.9-2.1-2.1-2.1
			C155.3,900.6,154.4,901.5,154.4,902.7z"/>
	</g>
	<g id="tv">
		<g>
			<path class="st16" d="M440.4,714.5c1.2,0,2.2-1.8,2.2-4s-1-4-2.2-4c-1.2,0-2.2,1.8-2.2,4C438.3,712.8,439.3,714.5,440.4,714.5z"
				/>
			<path class="st16" d="M440.8,725.2c1.2,0,2.2-1.8,2.2-4c0-2.2-1-4-2.2-4c-1.2,0-2.2,1.8-2.2,4
				C438.6,723.4,439.6,725.2,440.8,725.2z"/>
			<path class="st16" d="M440.8,735.9c1.2,0,2.2-1.8,2.2-4c0-2.2-1-4-2.2-4c-1.2,0-2.2,1.8-2.2,4
				C438.6,734.1,439.6,735.9,440.8,735.9z"/>
			<path class="st17" d="M501.6,723.1h54h0.8h54c-1.2,11.7,2.6,25.5,22.9,33.5h-76.8h-0.8h-76.8C499,748.5,502.8,734.7,501.6,723.1z
				"/>
			<path class="st18" d="M447.8,595h217c3.7,0,6.7,3,6.7,6.7v136c0,3.7-3,6.7-6.7,6.7h-217c-3.7,0-6.7-3-6.7-6.7v-136
				C441.1,598,444.1,595,447.8,595z"/>
			<path class="st19" d="M448.4,600.9h214.5c0.3,0,0.5,0.2,0.5,0.5v133.7c0,0.3-0.2,0.5-0.5,0.5H448.4c-0.3,0-0.5-0.2-0.5-0.5V601.4
				C447.9,601.1,448.1,600.9,448.4,600.9z"/>
			<path class="st20" d="M448.3,600.9h214.6c3.8,0-32.5,37.4-102.2,83.5c-55,36.3-113.1,52.2-112.8,50.7V601.4
				C447.9,601.1,448.1,600.9,448.3,600.9z"/>
			<path class="st18" d="M476.4,748.9h163.3c3.3,0,6,2.7,6,6v3.7c0,1.3-1,2.3-2.3,2.3H472.3c-1.1,0-1.9-0.9-1.9-1.9v-4.1
				C470.4,751.6,473.1,748.9,476.4,748.9z"/>
			<rect x="523.4" y="738.3" class="st21" width="65.1" height="3.4"/>
		</g>
	</g>
	<g id="tv-shelf">
		<path class="st22" d="M366.4,913.3L366.4,913.3c-4.4-0.5-7.5-4.5-7-8.9l5.2-44.8c0.5-4.4,4.5-7.5,8.9-7l0,0c4.4,0.5,7.5,4.5,7,8.9
			l-5.2,44.8C374.8,910.7,370.8,913.8,366.4,913.3z"/>
		<path class="st22" d="M407.4,913.3L407.4,913.3c-4.4-0.5-7.5-4.5-7-8.9l5.2-44.8c0.5-4.4,4.5-7.5,8.9-7l0,0c4.4,0.5,7.5,4.5,7,8.9
			l-5.2,44.8C415.8,910.7,411.8,913.8,407.4,913.3z"/>
		<path class="st22" d="M737.9,913.1L737.9,913.1c-4.4,0.7-8.5-2.2-9.2-6.6l-7.3-44.5c-0.7-4.4,2.2-8.5,6.6-9.2l0,0
			c4.4-0.7,8.5,2.2,9.2,6.6l7.3,44.5C745.2,908.3,742.3,912.4,737.9,913.1z"/>
		<path class="st22" d="M779.9,913.1L779.9,913.1c-4.4,0.7-8.5-2.2-9.2-6.6l-7.3-44.5c-0.7-4.4,2.2-8.5,6.6-9.2l0,0
			c4.4-0.7,8.5,2.2,9.2,6.6l7.3,44.5C787.2,908.3,784.3,912.4,779.9,913.1z"/>
		<rect x="343.5" y="760.5" class="st23" width="389" height="100"/>
		<rect x="742" y="760" class="st24" width="46.5" height="101"/>
		<rect x="732" y="760" class="st25" width="10" height="101"/>
		<rect x="357" y="772" class="st26" width="108" height="78"/>
		<rect x="485" y="772" class="st26" width="108" height="78"/>
		<rect x="613" y="772" class="st26" width="108" height="78"/>
		<circle class="st27" cx="411" cy="811" r="10"/>
		<circle class="st27" cx="539" cy="811" r="10"/>
		<circle class="st27" cx="667" cy="811" r="10"/>
	</g>
	<rect x="977" y="536" class="st28" width="211" height="17"/>
	<rect x="969" y="527" class="st29" width="211" height="17"/>
	<rect x="1152" y="347" class="st28" width="211" height="17"/>
	<g>
		<g>
			<path class="st30" d="M1298.9,246.9c0.6,0,1.4,0,2.4,0c2,0,4.7-0.2,7.3-0.3c1.3-0.1,2.6-0.1,3.9-0.2c1.2,0,2.4-0.1,3.4-0.1
				c0.5,0,0.9,0,1.3,0c0.4,0,0.7,0.1,1,0.1c0.3,0,0.4,0.1,0.6,0.1c0.1,0,0.2,0,0.2,0l0.1,0c0.2,0,0.4-0.1,0.5-0.2
				c0.1-0.2,0-0.5-0.2-0.5c0,0-0.1,0-0.2-0.1c-0.2-0.1-0.4-0.2-0.7-0.3c-0.3-0.1-0.7-0.2-1.1-0.3c-0.4-0.1-0.9-0.2-1.4-0.2
				c-1-0.1-2.2-0.2-3.5-0.2c-0.6,0-1.3,0-1.9,0c-0.7,0-1.3,0-2,0.1c-2.7,0.1-5.4,0.4-7.3,0.7c-1,0.1-1.8,0.3-2.4,0.4
				c-0.5,0.1-0.8,0.1-0.9,0.2c0,0,0,0,0,0l0,0c-0.2,0-0.3,0.2-0.3,0.4c0,0.2,0.2,0.4,0.4,0.4c0,0,0,0,0,0
				C1298,246.9,1298.3,246.9,1298.9,246.9z"/>
			<g>
				<path class="st31" d="M1199.8,239.7c-1.9-4.9-25.5-4.9-25.5-0.9c0,0,0.6,80,5.3,100c7.4-0.1,15.6-0.2,24.3-0.2
					C1203.8,319.4,1201.6,244.3,1199.8,239.7z M1193.6,273.9c-0.1,0.1-0.1,0.1-0.2,0.1l-0.4,0c0,0,0,0-0.1,0c0,0,0,0-0.1,0
					c-0.2,0-0.4,0-0.8,0c-0.7,0.1-1.7,0.1-2.6,0.2c-1,0.1-2,0.1-2.7,0.1c-0.8,0-1.3-0.1-1.3-0.1c-0.2,0-0.4-0.3-0.3-0.5
					c0-0.1,0.1-0.3,0.2-0.3c0,0,0.5-0.2,1.2-0.4c0.7-0.2,1.7-0.4,2.8-0.5c0.5,0,1,0,1.5,0c0.5,0,0.9,0.1,1.4,0.2
					c0.2,0,0.4,0.1,0.6,0.2c0.2,0.1,0.3,0.2,0.4,0.2c0.1,0.1,0.2,0.2,0.3,0.2c0.1,0.1,0.1,0.1,0.1,0.1
					C1193.8,273.5,1193.8,273.7,1193.6,273.9z M1196.4,265.5c-0.1,0.2-0.2,0.3-0.4,0.3l-0.2,0c0,0,0,0-0.1,0c-0.1,0-0.2,0-0.4,0
					c-0.4,0-1,0.1-1.8,0.1c-1.5,0.1-3.5,0.2-5.5,0.3c-2,0.1-4,0.1-5.5,0c-0.8,0-1.4-0.1-1.8-0.1c-0.4,0-0.7-0.1-0.7-0.1
					c-0.2,0-0.4-0.2-0.4-0.5c0-0.2,0.2-0.3,0.3-0.4c0,0,0.2-0.1,0.7-0.1c0.4-0.1,1.1-0.2,1.8-0.3c1.5-0.2,3.5-0.3,5.5-0.4
					c2-0.1,4,0,5.5,0.1c0.8,0.1,1.4,0.2,1.9,0.3c0.2,0,0.4,0.1,0.6,0.1c0.1,0,0.2,0.1,0.2,0.1C1196.4,265,1196.5,265.3,1196.4,265.5
					z"/>
				<path class="st32" d="M1296.4,338.7c0.1,0,0.2,0,0.3,0c0,0,0.1-0.1,0.1-0.1c0.2-0.3,0.2-0.6,0.2-0.8
					c-0.3-1.2-10.8-21.2-21.6-41.3c-6.4-12-21.7-40.1-23.9-42.3c-2.4-2.4-11.8,1.2-16.7,4.7c-2.2,1.6-3.2,3-2.7,4
					c0.1,0.2,10.9,21.4,22.2,42.2c8.5,15.6,15,26.9,19.5,33.6c0.1,0,0.2,0,0.2,0C1281.6,338.6,1289.2,338.6,1296.4,338.7z
					 M1277.6,335.9c0,0,0.7-0.5,1.7-1c1-0.6,2.4-1.3,3.9-1.9c1.4-0.6,2.9-1.1,4.1-1.4c1.1-0.3,1.9-0.5,1.9-0.5
					c0.3,0,0.5,0.1,0.6,0.4c0,0.2,0,0.4-0.2,0.5c0,0-0.7,0.5-1.7,1c-1,0.6-2.4,1.3-3.9,1.9c-1.4,0.6-2.9,1.1-4.1,1.4
					c-1.1,0.3-1.9,0.5-1.9,0.5c-0.3,0-0.5-0.1-0.5-0.4C1277.4,336.2,1277.4,336,1277.6,335.9z M1254.6,271.8c0,0-0.1,0.1-0.4,0.3
					c-0.3,0.2-0.6,0.5-1.1,0.7c-0.9,0.6-2.1,1.3-3.4,1.8c-1.3,0.6-2.6,1.1-3.6,1.4c-0.5,0.2-0.9,0.3-1.2,0.4
					c-0.3,0.1-0.5,0.1-0.5,0.1c-0.3,0.1-0.5-0.1-0.6-0.3c0-0.2,0-0.3,0.1-0.5l0,0c0,0,0.1-0.1,0.4-0.3c0.3-0.2,0.6-0.4,1.1-0.7
					c0.9-0.6,2.1-1.2,3.4-1.8c1.3-0.6,2.5-1.1,3.5-1.4c0.5-0.2,0.9-0.3,1.2-0.4c0.3-0.1,0.4-0.1,0.4-0.1l0,0
					c0.3-0.1,0.5,0.1,0.6,0.3C1254.8,271.5,1254.7,271.7,1254.6,271.8z M1254.5,264.4c0,0-0.1,0-0.2,0.1c-0.1,0.1-0.3,0.2-0.4,0.3
					c-0.4,0.3-0.9,0.6-1.6,1c-1.3,0.8-3.1,1.8-5,2.7c-1.9,0.9-3.7,1.7-5.2,2.2c-0.7,0.3-1.3,0.5-1.8,0.6c-0.4,0.1-0.7,0.2-0.7,0.2
					c-0.2,0.1-0.5-0.1-0.6-0.3c-0.1-0.2,0-0.4,0.2-0.5l0,0c0,0,0.2-0.2,0.6-0.4c0.4-0.2,0.9-0.6,1.6-1c1.3-0.8,3.1-1.7,5-2.6
					c1.8-0.9,3.7-1.7,5.2-2.3c0.7-0.3,1.3-0.5,1.7-0.7c0.4-0.1,0.6-0.2,0.6-0.2l0.1,0c0.2-0.1,0.5,0,0.6,0.3
					C1254.8,264,1254.7,264.2,1254.5,264.4z"/>
				<path class="st33" d="M1232.7,334.4c-0.4,0.2-1.6,0.7-3.4,1.1c-1.1,0.3-2.4,0.6-3.7,0.8c-1.4,0.2-2.9,0.3-4.4,0.3
					c-3,0-5.9-0.4-8.1-0.8c-1.1-0.2-2-0.5-2.6-0.6c-0.3-0.1-0.5-0.1-0.7-0.2c0,0-0.1,0,0,0c0.1,0,0.1-0.1,0.1-0.1c0,0-0.1,0-0.1,0
					l0,0c-0.1,0-0.1,0.1-0.2,0.1c0.2,1.3,0.4,2.5,0.6,3.5c7.2,0,14.7,0,22.3,0C1232.6,337.5,1232.7,336.1,1232.7,334.4z"/>
				<path class="st33" d="M1209.9,334.2c0.2,0,0.5,0,0.8,0c0.6,0.1,1.5,0.2,2.6,0.3c2.2,0.2,5,0.5,7.9,0.4c2.9,0,5.7-0.3,7.8-0.7
					c1.1-0.2,2-0.3,2.6-0.5c0.6-0.1,1-0.2,1-0.2l0,0c0,0,0.1,0,0.1,0c0.2-14.8-0.4-50.2-1.7-69.3c0,0,0,0-0.1,0l0,0c0,0-0.4,0-1,0
					c-0.3,0-0.7,0-1.2-0.1c-0.4,0-0.9,0-1.5,0c-1.1,0-2.4,0-3.8-0.1c-1.4,0-2.8,0-4.3,0c-2.9,0-5.9,0-8.1-0.1
					c-2.2,0-3.7-0.1-3.7-0.1c0,0,0,0,0,0c-0.6,19.2,0,54.2,2.3,70.3c0,0,0.1,0,0.1,0C1209.8,334.2,1209.8,334.2,1209.9,334.2z
					 M1225.9,293.7c0,0.2-0.2,0.3-0.4,0.3l-0.1,0c0,0-0.2,0-0.5,0.1c-0.3,0-0.8,0.1-1.4,0.1c-1.1,0.1-2.6,0.2-4.1,0.2
					c-1.5,0-3,0-4.1-0.1c-0.3,0-0.5,0-0.8,0c-0.2,0-0.4,0-0.5,0c-0.1,0-0.2,0-0.3,0c-0.1,0-0.1,0-0.1,0l-0.4,0
					c-0.2,0-0.4-0.1-0.4-0.4c0-0.2,0.1-0.4,0.4-0.4c0.1,0,0.1,0,0.2,0c0,0,0.1-0.1,0.5-0.2c0.2-0.1,0.4-0.1,0.6-0.1
					c0.2-0.1,0.5-0.1,0.8-0.1c1.1-0.2,2.7-0.3,4.2-0.3c1.5,0,3,0.1,4.2,0.2c0.6,0.1,1,0.2,1.4,0.2c0.2,0,0.3,0.1,0.4,0.1
					c0.1,0,0.1,0,0.1,0C1225.9,293.2,1226,293.4,1225.9,293.7z M1211.4,286.3c0.1,0,0.2,0,0.2,0.1c0,0,0.2-0.1,0.7-0.2
					c0.2,0,0.5-0.1,0.8-0.2c0.3-0.1,0.6-0.1,1-0.2c1.4-0.2,3.4-0.3,5.3-0.3c1.9,0,3.8,0.1,5.3,0.2c0.7,0.1,1.3,0.2,1.7,0.2
					c0.2,0,0.4,0.1,0.5,0.1c0.1,0,0.2,0,0.2,0c0.3,0.1,0.4,0.3,0.4,0.6c0,0.2-0.2,0.3-0.4,0.4l0,0c0,0-0.2,0-0.6,0.1
					c-0.4,0-1,0.1-1.7,0.2c-1.4,0.1-3.3,0.2-5.3,0.2c-1.9,0-3.8,0-5.2-0.1c-0.7,0-1.3-0.1-1.7-0.1c-0.2,0-0.3,0-0.4,0
					c-0.1,0-0.2,0-0.2,0l-0.4,0c-0.3,0-0.5-0.2-0.5-0.5C1211,286.5,1211.2,286.3,1211.4,286.3z"/>
				<path class="st33" d="M1211,262.7c2.2-0.2,5.2-0.3,8.2-0.3c3,0,5.9,0.2,8.2,0.5c0.6,0.1,1.1,0.2,1.5,0.2
					c0.4,0.1,0.8,0.1,1.2,0.2c0.5,0.1,0.8,0.2,0.9,0.2c-0.5-6.4-1-10.8-1.7-11.8c0,0-20.6-3.8-21.2,1.4c-0.3,2.2-0.5,5.7-0.6,10.1
					c0.1,0,0.4-0.1,1-0.1C1209,262.9,1209.9,262.7,1211,262.7z"/>
				<path class="st30" d="M1196.2,265c0,0-0.1,0-0.2-0.1c-0.1-0.1-0.4-0.1-0.6-0.1c-0.5-0.1-1.1-0.2-1.9-0.3
					c-1.5-0.1-3.5-0.2-5.5-0.1c-2,0.1-4,0.2-5.5,0.4c-0.7,0.1-1.4,0.2-1.8,0.3c-0.4,0.1-0.7,0.1-0.7,0.1c-0.2,0-0.3,0.2-0.3,0.4
					c0,0.2,0.1,0.4,0.4,0.5c0,0,0.3,0,0.7,0.1c0.4,0,1.1,0.1,1.8,0.1c1.5,0.1,3.5,0.1,5.5,0c2-0.1,4-0.2,5.5-0.3
					c0.7,0,1.4-0.1,1.8-0.1c0.2,0,0.4,0,0.4,0c0.1,0,0.1,0,0.1,0l0.2,0c0.2,0,0.3-0.1,0.4-0.3C1196.5,265.3,1196.4,265,1196.2,265z"
					/>
				<path class="st30" d="M1193.5,273.3c-0.1-0.1-0.2-0.2-0.3-0.2c-0.1-0.1-0.3-0.2-0.4-0.2c-0.2-0.1-0.4-0.1-0.6-0.2
					c-0.4-0.1-0.9-0.2-1.4-0.2c-0.5,0-1,0-1.5,0c-1,0.1-2,0.3-2.8,0.5c-0.7,0.2-1.2,0.4-1.2,0.4c-0.1,0.1-0.2,0.2-0.2,0.3
					c0,0.2,0.1,0.4,0.3,0.5c0,0,0.5,0.1,1.3,0.1c0.7,0,1.7,0,2.7-0.1c1-0.1,1.9-0.2,2.6-0.2c0.3,0,0.6,0,0.8,0c0.1,0,0.1,0,0.1,0
					c0,0,0.1,0,0.1,0l0.4,0c0.1,0,0.1,0,0.2-0.1C1193.8,273.7,1193.8,273.5,1193.5,273.3C1193.6,273.4,1193.6,273.4,1193.5,273.3z"
					/>
				<path class="st34" d="M1211,264c2.2,0,5.2,0.1,8.1,0.1c1.5,0,2.9,0,4.3,0c1.4,0,2.7,0,3.8,0.1c0.5,0,1.1,0,1.5,0
					c0.4,0,0.8,0,1.2,0.1c0.6,0,1,0,1,0l0,0c0,0,0,0,0.1,0c0.2,0,0.3-0.1,0.3-0.3c0.1-0.2-0.1-0.5-0.3-0.5c0,0,0,0-0.1,0
					c-0.1,0-0.5-0.1-0.9-0.2c-0.3-0.1-0.7-0.1-1.2-0.2c-0.4-0.1-1-0.2-1.5-0.2c-2.2-0.3-5.2-0.5-8.2-0.5c-3,0-5.9,0.1-8.2,0.3
					c-1.1,0.1-2,0.2-2.7,0.3c-0.6,0.1-0.9,0.1-1,0.1c0,0,0,0,0,0l0,0c-0.2,0-0.3,0.2-0.3,0.4c0,0.2,0.1,0.4,0.4,0.4c0,0,0,0,0,0
					C1207.4,263.9,1208.8,264,1211,264z"/>
				<path class="st34" d="M1225.6,293.1c0,0-0.1,0-0.1,0c-0.1,0-0.2-0.1-0.4-0.1c-0.3-0.1-0.8-0.2-1.4-0.2c-1.1-0.1-2.7-0.2-4.2-0.2
					c-1.5,0-3,0.1-4.2,0.3c-0.3,0-0.5,0.1-0.8,0.1c-0.2,0-0.4,0.1-0.6,0.1c-0.4,0.1-0.5,0.2-0.5,0.2c-0.1,0-0.1,0-0.2,0
					c-0.2,0-0.4,0.2-0.4,0.4c0,0.2,0.2,0.4,0.4,0.4l0.4,0c0,0,0,0,0.1,0c0.1,0,0.2,0,0.3,0c0.2,0,0.3,0,0.5,0c0.2,0,0.5,0,0.8,0
					c1.1,0.1,2.6,0.1,4.1,0.1c1.5,0,3-0.1,4.1-0.2c0.6-0.1,1-0.1,1.4-0.1c0.3,0,0.5-0.1,0.5-0.1l0.1,0c0.2,0,0.3-0.1,0.4-0.3
					C1226,293.4,1225.9,293.2,1225.6,293.1z"/>
				<path class="st34" d="M1211.5,287.2l0.4,0c0,0,0.1,0,0.2,0c0.1,0,0.3,0,0.4,0c0.4,0,1,0.1,1.7,0.1c1.4,0.1,3.3,0.1,5.2,0.1
					c1.9,0,3.8-0.1,5.3-0.2c0.7-0.1,1.3-0.1,1.7-0.2c0.4,0,0.6-0.1,0.6-0.1l0,0c0.2,0,0.4-0.2,0.4-0.4c0.1-0.3-0.1-0.5-0.4-0.6
					c0,0-0.1,0-0.2,0c-0.1,0-0.3-0.1-0.5-0.1c-0.4-0.1-1-0.2-1.7-0.2c-1.4-0.2-3.4-0.3-5.3-0.2c-1.9,0-3.8,0.1-5.3,0.3
					c-0.4,0-0.7,0.1-1,0.2c-0.3,0.1-0.6,0.1-0.8,0.2c-0.5,0.1-0.7,0.2-0.7,0.2c-0.1,0-0.2-0.1-0.2-0.1c-0.3,0-0.5,0.2-0.5,0.5
					C1211,287,1211.2,287.2,1211.5,287.2z"/>
				<path class="st34" d="M1209.9,334.9C1209.9,334.9,1209.9,334.9,1209.9,334.9C1210,334.9,1209.9,335,1209.9,334.9
					C1209.8,335,1209.9,335,1209.9,334.9c0.1,0.1,0.3,0.2,0.6,0.2c0.6,0.1,1.5,0.4,2.6,0.6c2.2,0.5,5.1,0.9,8.1,0.8
					c1.5,0,3-0.1,4.4-0.3c1.4-0.2,2.7-0.5,3.7-0.8c1.8-0.5,3-1,3.4-1.1c0.1,0,0.1-0.1,0.1-0.1c0.2-0.1,0.3-0.3,0.2-0.5
					c0-0.2-0.2-0.3-0.4-0.3c0,0-0.1,0-0.1,0l0,0c0,0-0.4,0.1-1,0.2c-0.6,0.1-1.5,0.3-2.6,0.5c-2.1,0.3-5,0.6-7.8,0.7
					c-2.9,0.1-5.7-0.2-7.9-0.4c-1.1-0.1-2-0.2-2.6-0.3c-0.3,0-0.6,0-0.8,0c-0.1,0,0,0-0.2,0c0,0-0.1,0-0.1,0c-0.1,0-0.1,0.1-0.2,0.1
					c0,0-0.1,0.1-0.1,0.1c-0.2,0.1-0.2,0.4,0,0.5c0.1,0.1,0.2,0.2,0.4,0.1C1209.8,335,1209.8,335,1209.9,334.9L1209.9,334.9z"/>
				<path class="st31" d="M1323.4,333.6c0,0-0.1,0-0.2,0c-0.2,0-0.4,0.1-0.7,0.1c-0.6,0.1-1.5,0.2-2.5,0.3c-2.1,0.2-4.9,0.3-7.6,0.4
					c-2.8,0.1-5.6,0-7.7,0c-1,0-1.9-0.1-2.5-0.1c-0.6,0-1-0.1-1-0.1c-0.2,0-0.4-0.2-0.4-0.4c0-0.2,0.2-0.3,0.3-0.4c0,0,0.3,0,1-0.1
					c0.6-0.1,1.5-0.2,2.5-0.2c2.1-0.2,4.9-0.3,7.6-0.4c2.8-0.1,5.6-0.1,7.6,0c2.1,0.1,3.4,0.1,3.4,0.1l0.1,0c0,0,0,0,0,0
					c0.6-24.6-2.5-85.4-4.4-91.3c-1.4-4.3-20-6.3-20.9,0.1c-0.1,0.7-0.2,2.3-0.2,4.6c0.1,0,0.4-0.1,0.9-0.2c0.6-0.1,1.4-0.3,2.4-0.4
					c2-0.3,4.7-0.6,7.3-0.7c0.7,0,1.3,0,2-0.1c0.7,0,1.3,0,1.9,0c1.3,0,2.5,0.1,3.5,0.2c0.5,0.1,1,0.1,1.4,0.2
					c0.4,0.1,0.8,0.2,1.1,0.3c0.3,0.1,0.5,0.2,0.7,0.3c0.2,0.1,0.2,0.1,0.2,0.1c0.2,0.1,0.3,0.3,0.2,0.5c-0.1,0.2-0.3,0.3-0.5,0.2
					l-0.1,0c0,0-0.1,0-0.2,0c-0.1,0-0.3-0.1-0.6-0.1c-0.3,0-0.6-0.1-1-0.1c-0.4,0-0.8,0-1.3,0c-1,0-2.1,0-3.4,0.1
					c-1.2,0.1-2.6,0.1-3.9,0.2c-2.7,0.1-5.3,0.2-7.3,0.3c-1,0-1.8,0-2.4,0c-0.6,0-0.9,0-0.9,0c0,0,0,0,0,0
					c-0.3,18.8,0.9,77.8,3.2,91.8c7.9,0,15.3,0.1,22,0.1C1323.3,337.4,1323.3,335.6,1323.4,333.6z M1314.7,279.8
					c0,0.2-0.2,0.3-0.3,0.3c0,0-0.6,0.2-1.4,0.3c-0.8,0.1-2,0.2-3.1,0.2c-1.1,0-2.3-0.1-3.1-0.2c-0.9-0.1-1.4-0.3-1.4-0.3
					c-0.2-0.1-0.4-0.3-0.3-0.5c0-0.1,0.2-0.3,0.3-0.3c0,0,0.6-0.2,1.4-0.3c0.8-0.1,2-0.2,3.1-0.2c1.1,0,2.3,0,3.1,0.2
					c0.9,0.1,1.4,0.2,1.4,0.2C1314.6,279.3,1314.7,279.5,1314.7,279.8z M1304,273.2c0-0.2,0.2-0.3,0.3-0.3c0,0,0.7-0.2,1.7-0.3
					c1-0.1,2.4-0.2,3.8-0.3c1.4,0,2.8,0,3.8,0.1c1,0.1,1.7,0.2,1.7,0.2c0.2,0,0.4,0.3,0.3,0.5c0,0.2-0.2,0.3-0.3,0.3
					c0,0-0.7,0.2-1.7,0.3c-1,0.1-2.4,0.2-3.8,0.2c-1.4,0-2.8,0-3.8-0.2c-1-0.1-1.7-0.3-1.7-0.3C1304.1,273.7,1304,273.5,1304,273.2z
					"/>
				<path class="st30" d="M1323.3,332.7c0,0-1.4,0-3.4-0.1c-2.1,0-4.9-0.1-7.6,0c-2.8,0.1-5.6,0.2-7.6,0.4c-1,0.1-1.9,0.2-2.5,0.2
					c-0.6,0.1-1,0.1-1,0.1c-0.2,0-0.3,0.2-0.3,0.4c0,0.2,0.1,0.4,0.4,0.4c0,0,0.3,0,1,0.1c0.6,0,1.5,0.1,2.5,0.1
					c2.1,0.1,4.9,0.1,7.7,0c2.8-0.1,5.6-0.2,7.6-0.4c1-0.1,1.9-0.2,2.5-0.3c0.3,0,0.5-0.1,0.7-0.1c0.1,0,0.1,0,0.2,0
					c0.1,0,0.1,0,0.1,0c0.2,0,0.3-0.2,0.3-0.4C1323.8,332.9,1323.7,332.7,1323.3,332.7C1323.4,332.7,1323.4,332.7,1323.3,332.7
					L1323.3,332.7z"/>
				<path class="st30" d="M1304.3,273.7c0,0,0.7,0.2,1.7,0.3c1,0.1,2.4,0.2,3.8,0.2c1.4,0,2.8-0.1,3.8-0.2c1-0.1,1.7-0.3,1.7-0.3
					c0.2,0,0.3-0.2,0.3-0.3c0-0.2-0.1-0.5-0.3-0.5c0,0-0.7-0.1-1.7-0.2c-1-0.1-2.4-0.2-3.8-0.1c-1.4,0-2.8,0.1-3.8,0.3
					c-1,0.1-1.7,0.3-1.7,0.3c-0.1,0-0.3,0.2-0.3,0.3C1304,273.5,1304.1,273.7,1304.3,273.7z"/>
				<path class="st30" d="M1314.4,279.2c0,0-0.6-0.1-1.4-0.2c-0.9-0.1-2-0.2-3.1-0.2c-1.1,0-2.3,0.1-3.1,0.2
					c-0.8,0.1-1.4,0.3-1.4,0.3c-0.1,0-0.2,0.1-0.3,0.3c-0.1,0.2,0.1,0.5,0.3,0.5c0,0,0.6,0.2,1.4,0.3c0.9,0.1,2,0.2,3.1,0.2
					c1.1,0,2.3-0.1,3.1-0.2c0.8-0.1,1.4-0.3,1.4-0.3c0.1,0,0.3-0.2,0.3-0.3C1314.7,279.5,1314.6,279.3,1314.4,279.2z"/>
				<path class="st35" d="M1254.1,263.5L1254.1,263.5c-0.1,0-0.3,0.1-0.7,0.2c-0.4,0.2-1,0.4-1.7,0.7c-1.4,0.6-3.3,1.4-5.2,2.3
					c-1.8,0.9-3.7,1.8-5,2.6c-0.7,0.4-1.2,0.7-1.6,1c-0.4,0.2-0.6,0.4-0.6,0.4l0,0c-0.1,0.1-0.2,0.3-0.2,0.5
					c0.1,0.2,0.3,0.4,0.6,0.3c0,0,0.3-0.1,0.7-0.2c0.4-0.2,1-0.3,1.8-0.6c1.4-0.5,3.3-1.3,5.2-2.2c1.9-0.9,3.7-1.9,5-2.7
					c0.7-0.4,1.2-0.8,1.6-1c0.2-0.1,0.3-0.2,0.4-0.3c0.1-0.1,0.2-0.1,0.2-0.1c0.2-0.1,0.2-0.3,0.2-0.5
					C1254.6,263.6,1254.3,263.5,1254.1,263.5z"/>
				<path class="st35" d="M1254.2,271L1254.2,271c0,0-0.2,0.1-0.5,0.1c-0.3,0.1-0.7,0.2-1.2,0.4c-1,0.3-2.3,0.8-3.5,1.4
					c-1.3,0.6-2.5,1.3-3.4,1.8c-0.4,0.3-0.8,0.5-1.1,0.7c-0.3,0.2-0.4,0.3-0.4,0.3l0,0c-0.1,0.1-0.2,0.3-0.1,0.5
					c0.1,0.3,0.3,0.4,0.6,0.3c0,0,0.2,0,0.5-0.1c0.3-0.1,0.7-0.2,1.2-0.4c1-0.3,2.3-0.8,3.6-1.4c1.3-0.6,2.5-1.3,3.4-1.8
					c0.4-0.3,0.8-0.5,1.1-0.7c0.3-0.2,0.4-0.3,0.4-0.3c0.1-0.1,0.2-0.3,0.1-0.5C1254.7,271.1,1254.4,270.9,1254.2,271z"/>
				<path class="st35" d="M1277.9,336.7c0,0,0.8-0.1,1.9-0.5c1.1-0.3,2.6-0.8,4.1-1.4c1.4-0.6,2.9-1.3,3.9-1.9c1-0.6,1.7-1,1.7-1
					c0.1-0.1,0.2-0.3,0.2-0.5c0-0.3-0.3-0.4-0.6-0.4c0,0-0.8,0.1-1.9,0.5c-1.1,0.3-2.6,0.8-4.1,1.4c-1.4,0.6-2.9,1.3-3.9,1.9
					c-1,0.6-1.7,1-1.7,1c-0.1,0.1-0.2,0.3-0.2,0.5C1277.4,336.6,1277.7,336.8,1277.9,336.7z"/>
				<path class="st36" d="M1360,339c-1.2,0-15.8-0.1-36.9-0.2c-6.8,0-14.2-0.1-22-0.1c-1.5,0-3,0-4.5,0c-0.1,0-0.2,0-0.3,0
					c-7.2,0-14.8-0.1-22.4-0.1c-0.1,0-0.2,0-0.2,0c-13.5,0-27.5-0.1-41.1-0.1c-7.6,0-15.1,0-22.3,0c-2.1,0-4.2,0-6.3,0
					c-8.8,0-17,0.1-24.3,0.2c-21,0.3-35.1,0.7-35.1,1.6c0,0-1.2,11.5,0.4,12.7c1.5,1.1,218,2.9,219.1-0.6
					C1365.1,348.9,1364.6,339,1360,339z"/>
			</g>
		</g>
	</g>
	<rect x="1144" y="338" class="st29" width="211" height="17"/>
	<rect x="1447" y="514" class="st28" width="108" height="17"/>
	<rect x="1440" y="506" class="st29" width="108" height="17"/>
	<rect x="173.9" y="91.9" class="st37" width="304.1" height="203.1"/>
	<rect x="162" y="79" class="st23" width="304.1" height="203.1"/>
	<rect x="821.3" y="139.5" class="st37" width="147.7" height="198.5"/>
	<rect x="806" y="126" class="st23" width="147.7" height="198.5"/>
	<rect x="481.3" y="419.8" class="st37" width="153.6" height="110.2"/>
	<rect x="472" y="411" class="st23" width="153.6" height="110.2"/>
	<g id="radiator">
		<path class="st38" d="M1191.7,886.5H935.2c-2.4,0-4.4-2-4.4-4.4v-6.7c0-2.4,2-4.4,4.4-4.4h256.4c2.4,0,4.4,2,4.4,4.4v6.7
			C1196,884.6,1194.1,886.5,1191.7,886.5z"/>
		<path class="st39" d="M1185.8,890.2H942.5c-3.2,0-5.8-2.6-5.8-5.8V874c0-3.2,2.6-5.8,5.8-5.8h243.3c3.2,0,5.8,2.6,5.8,5.8v10.4
			C1191.6,887.6,1189,890.2,1185.8,890.2z"/>
		<path class="st39" d="M1194.2,702.4h-262c-2.4,0-4.4-2-4.4-4.4v-6.7c0-2.4,2-4.4,4.4-4.4h262c2.4,0,4.4,2,4.4,4.4v6.7
			C1198.6,700.5,1196.6,702.4,1194.2,702.4z"/>
		<path class="st38" d="M1187.6,706.1H938.8c-3.2,0-5.8-2.6-5.8-5.8v-10.4c0-3.2,2.6-5.8,5.8-5.8h248.8c3.2,0,5.8,2.6,5.8,5.8v10.4
			C1193.4,703.5,1190.8,706.1,1187.6,706.1z"/>
		<path class="st39" d="M1180.3,710.5H945.8c-3.2,0-5.8-2.6-5.8-5.8v-19.2c0-3.2,2.6-5.8,5.8-5.8h234.5c3.2,0,5.8,2.6,5.8,5.8v19.2
			C1186.1,707.9,1183.5,710.5,1180.3,710.5z"/>
		<g>
			<rect x="948.1" y="676" class="st40" width="32.6" height="223"/>
			<path class="st40" d="M974.9,899h-21c-4.2,0-7.7-3.4-7.7-7.7v-25c0-4.2,3.4-7.7,7.7-7.7h21c4.2,0,7.7,3.4,7.7,7.7v25
				C982.6,895.6,979.1,899,974.9,899z"/>
			<rect x="987.3" y="676" class="st40" width="32.6" height="223"/>
			<path class="st40" d="M1014.1,899h-21c-4.2,0-7.7-3.4-7.7-7.7v-25c0-4.2,3.4-7.7,7.7-7.7h21c4.2,0,7.7,3.4,7.7,7.7v25
				C1021.8,895.6,1018.4,899,1014.1,899z"/>
			<rect x="1027.7" y="676" class="st40" width="32.6" height="223"/>
			<path class="st40" d="M1054.5,899h-21c-4.2,0-7.7-3.4-7.7-7.7v-25c0-4.2,3.4-7.7,7.7-7.7h21c4.2,0,7.7,3.4,7.7,7.7v25
				C1062.1,895.6,1058.7,899,1054.5,899z"/>
			<rect x="1068" y="676" class="st40" width="32.6" height="223"/>
			<path class="st40" d="M1094.8,899h-21c-4.2,0-7.7-3.4-7.7-7.7v-25c0-4.2,3.4-7.7,7.7-7.7h21c4.2,0,7.7,3.4,7.7,7.7v25
				C1102.5,895.6,1099.1,899,1094.8,899z"/>
			<rect x="1106.9" y="676" class="st40" width="32.6" height="223"/>
			<path class="st40" d="M1133.7,899h-21c-4.2,0-7.7-3.4-7.7-7.7v-25c0-4.2,3.4-7.7,7.7-7.7h21c4.2,0,7.7,3.4,7.7,7.7v25
				C1141.4,895.6,1137.9,899,1133.7,899z"/>
			<rect x="1146.5" y="676" class="st40" width="32.6" height="223"/>
			<path class="st40" d="M1173.3,899h-21c-4.2,0-7.7-3.4-7.7-7.7v-25c0-4.2,3.4-7.7,7.7-7.7h21c4.2,0,7.7,3.4,7.7,7.7v25
				C1181,895.6,1177.5,899,1173.3,899z"/>
		</g>
		<g>
			<path class="st39" d="M993.7,707.5h-19c-4.6,0-8.3-3.7-8.3-8.3v-8c0-4.6,3.7-8.3,8.3-8.3h19c4.6,0,8.3,3.7,8.3,8.3v8
				C1002,703.8,998.3,707.5,993.7,707.5z"/>
			<path class="st39" d="M1033.3,707.5h-19c-4.6,0-8.3-3.7-8.3-8.3v-8c0-4.6,3.7-8.3,8.3-8.3h19c4.6,0,8.3,3.7,8.3,8.3v8
				C1041.6,703.8,1037.9,707.5,1033.3,707.5z"/>
			<path class="st39" d="M1073.3,707.5h-19c-4.6,0-8.3-3.7-8.3-8.3v-8c0-4.6,3.7-8.3,8.3-8.3h19c4.6,0,8.3,3.7,8.3,8.3v8
				C1081.6,703.8,1077.9,707.5,1073.3,707.5z"/>
			<path class="st39" d="M1113.3,707.5h-19c-4.6,0-8.3-3.7-8.3-8.3v-8c0-4.6,3.7-8.3,8.3-8.3h19c4.6,0,8.3,3.7,8.3,8.3v8
				C1121.6,703.8,1117.8,707.5,1113.3,707.5z"/>
			<path class="st39" d="M1152.9,707.5h-19c-4.6,0-8.3-3.7-8.3-8.3v-8c0-4.6,3.7-8.3,8.3-8.3h19c4.6,0,8.3,3.7,8.3,8.3v8
				C1161.2,703.8,1157.5,707.5,1152.9,707.5z"/>
			<path class="st39" d="M1176.5,707.5h-3.5c-4.1,0-7.4-3.3-7.4-7.4v-9.8c0-4.1,3.3-7.4,7.4-7.4h3.5c4.1,0,7.4,3.3,7.4,7.4v9.8
				C1183.9,704.2,1180.6,707.5,1176.5,707.5z"/>
			<path class="st39" d="M954.6,707.5h-3.5c-4.1,0-7.4-3.3-7.4-7.4v-9.8c0-4.1,3.3-7.4,7.4-7.4h3.5c4.1,0,7.4,3.3,7.4,7.4v9.8
				C962,704.2,958.7,707.5,954.6,707.5z"/>
		</g>
	</g>
	<g>
		<path class="st41" d="M1206.8,888h421.4c21.9,0,39.8-17.9,39.8-39.8V678.8c0-21.9-17.9-39.8-39.8-39.8h-421.4
			c-21.9,0-39.8,17.9-39.8,39.8v169.4C1167,870.1,1184.9,888,1206.8,888z"/>
		<path class="st42" d="M1387,793h-220V675.9c0-20.3,16.6-36.9,36.9-36.9h146.2c20.3,0,36.9,16.6,36.9,36.9V793z"/>
		<path class="st43" d="M1186.9,912h-59.8c-24.8,0-45.1-20.3-45.1-45.1v-65.8c0-24.8,20.3-45.1,45.1-45.1h59.8
			c24.8,0,45.1,20.3,45.1,45.1v65.8C1232,891.7,1211.7,912,1186.9,912z"/>
		<path class="st42" d="M1607,793h-220V675.9c0-20.3,16.6-36.9,36.9-36.9h146.2c20.3,0,36.9,16.6,36.9,36.9V793z"/>
		<path class="st41" d="M1553.2,845H1167v-53h386.2c11.5,0,20.8,9.4,20.8,20.8v11.3C1574,835.6,1564.6,845,1553.2,845z"/>
		<path class="st41" d="M1661.9,912h-65.8c-24.8,0-45.1-20.3-45.1-45.1v-65.8c0-24.8,20.3-45.1,45.1-45.1h65.8
			c24.8,0,45.1,20.3,45.1,45.1v65.8C1707,891.7,1686.7,912,1661.9,912z"/>
		<path class="st42" d="M1511.2,845h-356.3c-11.5,0-20.8-9.4-20.8-20.8v-3.3c0-11.5,9.4-20.8,20.8-20.8h356.3
			c11.5,0,20.8,9.4,20.8,20.8v3.3C1532,835.6,1522.6,845,1511.2,845z"/>
		<path class="st42" d="M1127.3,909.9h-2.7c-22.4,0-40.7-18.3-40.7-40.7v-70.6c0-22.4,18.3-40.7,40.7-40.7h2.7
			c22.4,0,40.7,18.3,40.7,40.7v70.6C1168,891.6,1149.7,909.9,1127.3,909.9z"/>
		<path class="st41" d="M1126.4,897h-2.9c-16.3,0-29.6-13.3-29.6-29.6v-69.9c0-16.3,13.3-29.6,29.6-29.6h2.9
			c16.3,0,29.6,13.3,29.6,29.6v69.9C1156,883.7,1142.7,897,1126.4,897z"/>
		<polygon class="st41" points="1350.6,715.4 1359,720 1350.6,724.6 1346,733 1341.4,724.6 1333,720 1341.4,715.4 1346,707 		"/>
		<polygon class="st41" points="1283.6,693.4 1292,698 1283.6,702.6 1279,711 1274.4,702.6 1266,698 1274.4,693.4 1279,685 		"/>
		<polygon class="st41" points="1215.6,715.4 1224,720 1215.6,724.6 1211,733 1206.4,724.6 1198,720 1206.4,715.4 1211,707 		"/>
		<polygon class="st42" points="1129.6,828.4 1138,833 1129.6,837.6 1125,846 1120.4,837.6 1112,833 1120.4,828.4 1125,820 		"/>
		<polygon class="st41" points="1428.6,715.4 1437,720 1428.6,724.6 1424,733 1419.4,724.6 1411,720 1419.4,715.4 1424,707 		"/>
		<polygon class="st41" points="1496.6,693.4 1505,698 1496.6,702.6 1492,711 1487.4,702.6 1479,698 1487.4,693.4 1492,685 		"/>
		<polygon class="st41" points="1563.6,715.4 1572,720 1563.6,724.6 1559,733 1554.4,724.6 1546,720 1554.4,715.4 1559,707 		"/>
		<path class="st44" d="M1192,797l-35-74l23-1c11,0,24-1.9,31.9,5.4l38.5,35.6c7.9,7.3,8.4,19.6,1.1,27.5l-1.5,1.6
			C1242.8,799.9,1208,796,1192,797z"/>
		<path class="st29" d="M1182,791.5l-38.5-35.6c-7.9-7.3-8.4-19.6-1.1-27.5v0c3.9-4.2,9.2-6.3,14.6-6.2c4.6,0.1,9.2,1.8,12.9,5.1
			l38.5,35.6c7.9,7.3,8.4,19.6,1.1,27.5l0,0C1202.3,798.3,1189.9,798.8,1182,791.5z"/>
		<path class="st45" d="M1543.5,725.9l-35.3,73.8l23,1.1c11,0,24,2,31.9-5.2l38.7-35.4c7.9-7.2,8.4-19.6,1.2-27.5l-1.5-1.6
			C1594.3,723.3,1559.5,727,1543.5,725.9z"/>
		<path class="st46" d="M1533.5,731.4l-38.7,35.4c-7.9,7.2-8.5,19.6-1.3,27.5v0c3.9,4.2,9.2,6.4,14.6,6.3c4.6,0,9.2-1.7,12.9-5.1
			l38.7-35.4c7.9-7.2,8.5-19.6,1.3-27.5v0C1553.8,724.7,1541.4,724.2,1533.5,731.4z"/>
		<path class="st42" d="M1594.3,911.3h-2.7c-22.4,0-40.7-18.3-40.7-40.7v-74c0-22.4,18.3-40.7,40.7-40.7h2.7
			c22.4,0,40.7,18.3,40.7,40.7v74C1635,893,1616.7,911.3,1594.3,911.3z"/>
		<path class="st41" d="M1594.4,899h-2.9c-16.3,0-29.6-13.3-29.6-29.6v-69.9c0-16.3,13.3-29.6,29.6-29.6h2.9
			c16.3,0,29.6,13.3,29.6,29.6v69.9C1624,885.7,1610.7,899,1594.4,899z"/>
		<polygon class="st42" points="1597.6,830.4 1606,835 1597.6,839.6 1593,848 1588.4,839.6 1580,835 1588.4,830.4 1593,822 		"/>
	</g>
	<rect x="172.4" y="89" class="st47" width="283.1" height="184"/>
	<rect x="482.1" y="422" class="st47" width="135.4" height="91.4"/>
	<rect x="818.1" y="136" class="st47" width="122.9" height="177"/>
	<g>
		<g>
			<g>
				<g id="XMLID_2_">
					<g>
						<g>
							<g>
								<path class="st48" d="M250.2,203.5l-19.6,2.7c0,0-5.5-10.8,1-19.9c0.3-0.4,0.9-0.3,1.2,0.1l7.5,8.2c0.6,0.6,1.6,0.2,1.6-0.7
									l-0.4-6.7c-0.1-0.9,1.1-1.3,1.6-0.6C245,189.5,250.2,203.5,250.2,203.5z M230,198.2c-0.4,3.2,5.5,0.6,5.3-2
									C235,193.8,230.4,195.1,230,198.2z"/>
							</g>
						</g>
						<g>
							<g>
								<path class="st48" d="M228.8,206.3l-16.5-2c0,0,4.5-7.2,5.3-7.8c0.8-0.6-9.1,1.2-9.4-4.1c-0.3-5.4,9-4.4,10.3,0.8
									c0,0,2.3-9.2,5.6-8.1c3.3,1,0.7,8.5-3.5,9.7C220.6,194.7,224.9,196.4,228.8,206.3z"/>
							</g>
						</g>
					</g>
				</g>
			</g>
			<g id="XMLID_1_">
				<g>
					<g>
						<g>
							<path class="st49" d="M253.8,203.2l-0.4,1.7c-1.9,0.2-3.4,1.8-3.4,3.8c0,1.2,0.5,2.2,1.3,2.9c0.1,0.4,2.1,11.5-18.7,9.2
								c-13.6-1.5-17.7-5.5-18.9-8.2l-0.5-1.9c0-0.5,0-0.7,0-0.7c0.8-0.6,1.3-1.6,1.3-2.7c0-1-0.4-1.8-1-2.5
								C213.6,204.9,233.7,210.1,253.8,203.2z"/>
						</g>
					</g>
					<g>
						<g>
							<path class="st50" d="M253.8,212.6c0,0,0.1,3.9-3.6,7.1l1.6-7.6C252.5,212.4,253.1,212.6,253.8,212.6z"/>
						</g>
					</g>
					<g>
						<g>
							<path class="st51" d="M353.1,175.3c3-1.1,5.8-2.8,8.4-4.7c-1.4,1.1-0.1,3.1,0,3.3c-0.5-0.1-1.1-0.2-1.7-0.3
								c-4.3-0.4-17.7,13.8-26.7,24c0.1-3.9,0.4-7.7,0.7-10.9l0.6,0c0,0,11.3-1.1,12.3-9.7C349,176.6,351.1,176.1,353.1,175.3z"/>
						</g>
					</g>
					<g>
						<g>
							<path class="st50" d="M213.8,212.7l1.1,4.4c-3.2-3.2-3.8-6.2-3.8-6.2c0.8,0,1.4-0.2,2-0.6l0.2,0.6
								C213.3,211.3,213.4,212,213.8,212.7z"/>
						</g>
					</g>
					<g>
						<g>
							<path class="st50" d="M253.8,204.9c2.1,0,3.8,1.7,3.8,3.8c0,2.1-1.7,3.8-3.8,3.8c-0.7,0-1.4-0.2-1.9-0.5l0.3-1.2
								c0.5,0.4,1,0.6,1.7,0.6c1.5,0,2.7-1.2,2.7-2.7c0-1.5-1.2-2.7-2.7-2.7c-0.2,0-0.4,0-0.6,0.1l0.3-1.2
								C253.6,205,253.7,204.9,253.8,204.9z"/>
						</g>
					</g>
					<g>
						<g>
							<path class="st50" d="M207.6,207.4c0-1.9,1.6-3.5,3.5-3.5c0.1,0,0.3,0,0.4,0l0.4,1.4c-0.2-0.1-0.5-0.1-0.8-0.1
								c-1.2,0-2.2,1-2.2,2.2c0,1.2,1,2.2,2.2,2.2c0.7,0,1.3-0.3,1.7-0.8l0.4,1.4c-0.6,0.4-1.3,0.6-2,0.6
								C209.2,210.9,207.6,209.3,207.6,207.4z"/>
						</g>
					</g>
					<g>
						<g>
							<path class="st50" d="M213.6,204.9c0.6,0.6,1,1.5,1,2.5c0,1.1-0.5,2.1-1.3,2.7c-0.1,0-0.1,0.1-0.2,0.1l-0.4-1.4
								c0.3-0.4,0.5-0.9,0.5-1.4c0-1-0.6-1.8-1.4-2.1l-0.4-1.4C212.3,204,213,204.4,213.6,204.9z"/>
						</g>
					</g>
					<g>
						<g>
							<path class="st52" d="M327.3,233.6l3.9,7.4c-1.6,0.2-2.9,0.2-3.8,0.2c-0.9-1.7-2-3.9-3.4-6.6c-1.7-3.3-3.8-7.4-6.3-12.3
								c1.1-0.4,2.2-0.8,3.2-1.2L327.3,233.6z"/>
						</g>
					</g>
					<g>
						<g>
							<path class="st53" d="M370.9,148.2c-0.2-0.4-0.3-0.8-0.5-1.1c-0.8-2.1-1.4-4.3-2.1-6.4c-0.5-1.5-1-2.9-1.7-4.3
								c-1.2-2.4-2.7-4.7-4.5-6.6c-0.6-0.7-1.2-1.3-1.9-1.9c-0.1-0.1-0.3-0.2-0.4-0.3c-1.4-1.2-3-2.2-4.6-3.1c0,0-0.1,0-0.1,0
								l-0.1,0.3c-8.1,1.3-19.9,15-21.1,16l0.1,1c0,0,4,6.1-2.4,10c-11.2,6.8-20.7-0.6-24.4-3.7c0,0,0,0,0,0c0,0,0,0,0,0l0-0.1
								c-0.4-0.1-0.8-0.2-1.3-0.4c1.5,7.5,5,14.5,10.7,20.2l0.1,0.1c0.3,0.3,0.7,0.6,1,0.9c0.4,0.3,0.8,0.7,1.2,1
								c4.4,3.6,9.7,5.9,15.1,7c0.4,0.1,0.8,0.2,1.2,0.2c2.8,0.5,5.6,0.6,8.4,0.4c1-0.1,2.1-0.2,3.1-0.4c2.2-0.4,4.3-0.9,6.3-1.7
								c3-1.1,5.8-2.8,8.4-4.7c8.5-6.2,14.8-15.1,15.9-18.2C374.3,152.7,372.1,151,370.9,148.2z M328.8,165.4
								c-0.3-0.1-0.7-0.2-1-0.4c0.7-1.1,0.6-2.3,0.3-3.3l0.3,0c0,0,0.3-0.1,0.8-0.4c1.9-0.8,6.7-2.7,6.7,0.4
								C335.8,165.2,333.2,166.9,328.8,165.4z M338.3,154.5c-1.7,0.5-2.8-5.8-0.7-5.8C340.2,148.8,340,154,338.3,154.5z
								 M349.5,157.8c-3.1,0.9-3.9,2-6.1,3.9c-2.2,1.9-2.3-14.9,7.8-10C355.9,154,352.6,156.9,349.5,157.8z"/>
						</g>
					</g>
					<g>
						<g>
							<path class="st53" d="M421.6,173.5c29.5,62.4-28.4,61.7-28.4,61.7c2.8-8.1-0.4-15.6-4.3-21.1c-0.4-0.6-0.8-1.1-1.3-1.7
								c-2.4-3.6-4.1-7.9-5.1-12.6c-1.9-9.6-1-20.6,2.3-29.5c2.9-8,8.3-11.3,11.7-16.6l-2.3,12.2l7.6-7v20.9l9.7-18.8l4.9,8.7
								l0.9-5.9C418.6,166.9,420,170.1,421.6,173.5z"/>
						</g>
					</g>
					<g>
						<g>
							<path class="st50" d="M417.4,163.8l-0.9,5.9l-4.9-8.7l-9.7,18.8v-20.9l-7.6,7l2.3-12.2c2.5-3.9,3.9-8.9,2.6-17.6
								c-3.2-20.4,14.9-26.5,15.3-26.6C414.1,109.8,401.1,123.5,417.4,163.8z"/>
						</g>
					</g>
					<g>
						<g>
							<path class="st53" d="M388.8,214.1c3.9,5.5,7.1,13,4.3,21.1c-5.4,15.8-32.2,18.3-51.8,17.8c0.2-1,2.4-15.1-3-14.2
								c4.9-2.6,9.6-7.1,13.3-11.4h0c5-5.7,8.4-11,8.4-11l-0.2-0.6c12.4-4.5,18.1-9.1,20-11l0,0c0,0,4,2.9,7.8,7.7
								C388,213,388.4,213.5,388.8,214.1z"/>
						</g>
					</g>
					<g>
						<g>
							<path class="st48" d="M381.2,200.1c0.1,0.9,0,2.1-0.7,3.8c0,0-0.2,0.3-0.8,0.9c-1.9,1.9-7.6,6.5-20,11
								c-5.9,2.1-13.2,4.2-22.4,5.9l-0.1,0.1c-0.1-0.2-0.2-0.4-0.4-0.7c-0.3-0.6-0.6-1.3-0.9-2l0.2-0.1c0,0,31.5-4.4,40.2-21
								C376.4,198,380.7,197,381.2,200.1z"/>
						</g>
					</g>
					<g>
						<g>
							<path class="st50" d="M380.7,103.3c0,0-0.6,5.7-1.7,13.1l-0.5-7l-2.5,4.1l-0.7-2.9l-5,1C377.5,105.9,380.7,103.3,380.7,103.3
								z"/>
						</g>
					</g>
					<g>
						<g>
							<path class="st53" d="M378.5,109.4l0.5,7v0c-1.8,11.9-4.8,27.9-8.6,30.6c-0.8-2.1-1.4-4.3-2.1-6.4c7.6-3.1,6-26.1,6-26.1
								c-4.2,3.5-12.3,14.5-12.2,15.2c-0.6-0.7-1.2-1.3-1.9-1.9c-0.1-0.1-0.3-0.2-0.4-0.3c0.3-1.1,3.6-10.5,10.4-15.9l5-1l0.7,2.9
								L378.5,109.4z"/>
						</g>
					</g>
					<g>
						<g>
							<path class="st54" d="M374.4,114.5c0,0,1.6,23-6,26.1c-0.5-1.5-1-2.9-1.7-4.3c-1.2-2.4-2.7-4.7-4.5-6.6
								C362.1,129,370.2,118,374.4,114.5z"/>
						</g>
					</g>
					<g>
						<g>
							<path class="st51" d="M366.3,184.4c1,4.6,10.1,13.6,10.1,13.6c-8.7,16.6-40.2,21-40.2,21l-0.2,0.1c-0.9-2.2-1.5-4.6-2-7.3
								C344.2,203.8,364.4,187.6,366.3,184.4z"/>
						</g>
					</g>
					<g>
						<g>
							<path class="st48" d="M361.5,173.8c5.5,1.4,7.2,6.6,4.8,10.6c-1.9,3.2-22.1,19.4-32.3,27.4c-0.8-4.5-0.9-9.5-0.8-14.2
								c9-10.2,22.3-24.5,26.7-24C360.5,173.6,361,173.7,361.5,173.8C361.5,173.8,361.5,173.8,361.5,173.8z"/>
						</g>
					</g>
					<g>
						<g>
							<path class="st53" d="M359.8,215.6l0.2,0.6c0,0-3.4,5.3-8.4,11h0c-7.1,1.7-11.6-0.9-14.3-5.7l0.1-0.1
								C346.6,219.8,353.9,217.7,359.8,215.6z"/>
						</g>
					</g>
					<g>
						<g>
							<path class="st50" d="M335.6,121.8c0.8-0.2,1.6-0.3,2.4-0.4c5.8-0.8,11.9,0.3,17.1,3l-0.1,0.3c-8.1,1.3-19.9,15-21.1,16
								c0,0-7.5-13.4-2.4-17.6v0C332.8,122.6,334.2,122.1,335.6,121.8z"/>
						</g>
					</g>
					<g>
						<g>
							<path class="st54" d="M351.6,227.4c-3.8,4.3-8.4,8.8-13.3,11.4c-1.4,0.7-2.8,1.3-4.2,1.7c-0.3-7.4-5.6-7.8-5.8-7.9
								c1.9-1.9,6.1-6.4,8.5-11.5l0.2-0.1c0.1,0.2,0.2,0.4,0.4,0.7C340.1,226.5,344.5,229.1,351.6,227.4z"/>
						</g>
					</g>
					<g>
						<g>
							<path class="st52" d="M351.1,151.7c4.8,2.3,1.4,5.3-1.7,6.1c-3.1,0.9-3.9,2-6.1,3.9C341.1,163.6,341,146.7,351.1,151.7z"/>
						</g>
					</g>
					<g>
						<g>
							<path class="st48" d="M343.7,177.4c1-0.1,2.1-0.2,3.1-0.4c-1,8.6-12.3,9.7-12.3,9.7l-0.6,0c0.2-1.8,0.4-3.4,0.6-4.8
								C334.9,182,340,183.9,343.7,177.4z"/>
						</g>
					</g>
					<g>
						<g>
							<path class="st53" d="M335.3,177c2.8,0.5,5.6,0.6,8.4,0.4c-3.7,6.5-8.8,4.7-9.2,4.5C334.9,178.9,335.3,177,335.3,177z"/>
						</g>
					</g>
					<g>
						<g>
							<path class="st48" d="M338.3,238.8c5.5-0.9,3.2,13.2,3,14.2c-9.2-0.2-16.8-1.1-20-1.6c4-13.2-3.4-20-3.4-20
								c0.3-0.5,0.7-0.8,1.1-0.8c1.6-0.1,2.9,2.1,3.8,4.5c1,2.6,1.6,5.5,1.6,5.5s0,0.7,2.8,0.7c1.7,3.3,2.5,4.8,2.5,4.8l3.2-1.5
								l-1.8-3.5c0.2,0,0.3,0,0.5-0.1c0.8-0.1,1.6-0.2,2.4-0.5C335.5,240.1,336.9,239.5,338.3,238.8z"/>
						</g>
					</g>
					<g>
						<g>
							<path class="st55" d="M337.5,148.8c2.7,0,2.4,5.2,0.7,5.8C336.6,155,335.5,148.7,337.5,148.8z"/>
						</g>
					</g>
					<g>
						<g>
							<path class="st48" d="M334.6,181.9c-0.2,1.4-0.4,3-0.6,4.8c-0.3,3.2-0.6,7-0.7,10.9c-3.7,4.3-6.7,7.8-8,9.4
								c0.5-4.3-6.1-4.3-6.1-4.3l15-25.8v0c0.4,0.1,0.8,0.2,1.2,0.2C335.4,177,335,178.9,334.6,181.9z"/>
						</g>
					</g>
					<g>
						<g>
							<path class="st55" d="M307.2,148C307.2,148,307.2,148,307.2,148C307.2,148,307.2,148,307.2,148L307.2,148
								c0.9,0.1,1.8-0.1,2.6-0.7l0.2,0c2.5,1.7,4,3.6,8.8,4.2c0.5,0.1,1.1,0.1,1.7,0.1c10,0.3,13.6-10,13.6-10s4,6.1-2.4,10
								C320.4,158.4,310.9,151.1,307.2,148z"/>
						</g>
					</g>
					<g>
						<g>
							<path class="st53" d="M333.9,140.7l0.1,1c0,0-3.6,10.3-13.6,10c-0.6,0-1.2-0.1-1.7-0.1c-0.8-5.3-0.6-10.6,1.1-15.4
								c1.1-3.1,2.8-6.1,5.2-8.7c0.9-0.9,1.8-1.8,2.2-2.2c1.4-0.9,2.8-1.6,4.3-2.2v0C326.4,127.2,333.9,140.7,333.9,140.7z
								 M323.9,151.2c1.7-0.5,1.9-5.7-0.7-5.8C321.1,145.5,322.2,151.7,323.9,151.2z"/>
						</g>
					</g>
					<g>
						<g>
							<path class="st52" d="M328.3,161.7c0,0,7.5-3.8,7.5,0c0,3.8-3,5.5-8,3.3c0.7-1.1,0.6-2.3,0.3-3.3L328.3,161.7z"/>
						</g>
					</g>
					<g>
						<g>
							<path class="st48" d="M333.2,197.6c-0.1,4.7,0.1,9.7,0.8,14.2c-3.5,2.7-5.8,4.5-5.8,4.5l-0.2-0.1c0.1-0.3,0.2-0.5,0.2-0.8
								c0.1-2.4-1.6-7.1-3.8-7.7c0,0,0.2-0.3,0.7-0.8C326.5,205.4,329.5,201.8,333.2,197.6z"/>
						</g>
					</g>
					<g>
						<g>
							<path class="st53" d="M335.7,121.8c-1.4,0.3-2.7,0.7-4.1,1.2c-1.5,0.6-3,1.3-4.3,2.2c-0.4,0.4-1.3,1.3-2.2,2.2
								c-1.7-4-4.1-8.3-6.7-12.2l1.1-5.7l3.8,4.1l0.3-3.5C327.6,112.9,331.8,116.7,335.7,121.8z"/>
						</g>
					</g>
					<g>
						<g>
							<path class="st48" d="M331.2,241.1l1.8,3.5l-3.2,1.5c0,0-0.8-1.6-2.5-4.8C328.3,241.3,329.5,241.2,331.2,241.1z"/>
						</g>
					</g>
					<g>
						<g>
							<path class="st51" d="M334.1,240.5c-0.8,0.2-1.6,0.4-2.4,0.5c-0.2,0-0.3,0-0.5,0.1l-3.9-7.4c0,0,0.4-0.3,1-0.9
								C328.4,232.7,333.8,233.1,334.1,240.5z"/>
						</g>
					</g>
					<g>
						<g>
							<path class="st54" d="M308.1,220.3c-1.5-2.1-2.1-4.8-1.9-6.4c0.3-1.8,2.9-2.8,5.3-3.4c2.1-0.5,4.1-0.7,4.1-0.7
								s-2.2-0.5-2-2.3c0-0.4,0.2-0.8,0.5-1.2c0,0,7.6,1.6,10,1.6c0.1,0,0.3,0,0.4,0c2.2,0.5,3.9,5.3,3.8,7.7c0,0.3-0.1,0.5-0.2,0.8
								c-0.7,1.6-3.3,3.3-7.3,4.9c-1,0.4-2,0.8-3.2,1.2c-0.5,0.2-1,0.3-1.5,0.5C312.3,224,309.7,222.5,308.1,220.3z"/>
						</g>
					</g>
					<g>
						<g>
							<path class="st51" d="M323.9,234.6c1.4,2.7,2.5,4.9,3.4,6.6c-2.8,0-2.8-0.7-2.8-0.7s-0.6-2.8-1.6-5.5L323.9,234.6z"/>
						</g>
					</g>
					<g>
						<g>
							<path class="st53" d="M319.1,202.6c0,0,6.6,0.1,6.1,4.3c-0.4,0.5-0.7,0.8-0.7,0.8c-0.1,0-0.3,0-0.4,0c-2.4,0-10-1.6-10-1.6
								c-0.3,0.5-0.4,0.9-0.5,1.2l-0.8-1.5c-0.7-2,0.8-2.7,0.8-2.7l3.9,2L319.1,202.6z"/>
						</g>
					</g>
					<g>
						<g>
							<path class="st55" d="M323.2,145.5c2.7,0,2.4,5.2,0.7,5.8C322.2,151.7,321.1,145.5,323.2,145.5z"/>
						</g>
					</g>
					<g>
						<g>
							<path class="st50" d="M323.5,110.2l-0.3,3.5l-3.8-4.1l-1.1,5.7c-3.9-5.6-8.4-10.4-12.3-12.3C306,103,314.2,103.8,323.5,110.2
								z"/>
						</g>
					</g>
					<g>
						<g>
							<path class="st48" d="M317.2,248c-1.2-3-1.4-7.4-0.9-11.1c0.3-2.4,0.9-4.5,1.7-5.5c0,0,7.4,6.8,3.4,20
								c-0.4-0.1-0.7-0.1-1-0.2C318.9,250.9,317.9,249.7,317.2,248z"/>
						</g>
					</g>
					<g>
						<g>
							<path class="st54" d="M318.3,115.3c2.7,3.9,5,8.1,6.7,12.2c-2.4,2.6-4.1,5.5-5.2,8.7C322.6,123.1,306,103,306,103
								C309.9,104.9,314.4,109.6,318.3,115.3z"/>
						</g>
					</g>
					<g>
						<g>
							<path class="st51" d="M317.2,248c-3.7-0.3-4.9,0.8-6.6,0.5c4-13.2-4-20.1-4-20.1c0.3-0.5,0.7-0.8,1.1-0.8
								c3.3-0.2,6.6,9.7,6.6,9.7s0.2-0.7,2.1-0.4C315.8,240.6,316,245,317.2,248z"/>
						</g>
					</g>
					<g>
						<g>
							<path class="st52" d="M312.9,205.9l0.8,1.5c-0.2,1.7,2,2.3,2,2.3s-1.9,0.2-4.1,0.7c-0.4-0.8-0.8-1.5-1.2-2.3
								c-18.4-35.9-43.3-84.5-45.8-88.5c-3.9-6.3-2.8-12.1-2.8-12.1L312.9,205.9z"/>
						</g>
					</g>
					<g>
						<g>
							<path class="st53" d="M311.6,210.4c-2.4,0.6-5.1,1.7-5.3,3.4c-0.2,1.6,0.3,4.3,1.9,6.4c-0.2-0.1-4.1-1.6-4-5.6
								c0.1-4.1,6.3-6.6,6.3-6.6C310.8,208.9,311.2,209.6,311.6,210.4z"/>
						</g>
					</g>
					<g>
						<g>
							<path class="st51" d="M306.6,228.4c0,0,8.1,7,4,20.1C303.1,248.5,304,232,306.6,228.4z"/>
						</g>
					</g>
					<g>
						<g>
							<path class="st55" d="M306,147.5c-3.3-1.5-5.9-6.2-2.8-5.8c0.3,0,9,3.1,7.2,5.1c-0.2,0.2-0.4,0.4-0.6,0.5
								c-0.8,0.6-1.7,0.7-2.6,0.6C306.8,147.8,306.4,147.7,306,147.5C306,147.5,306,147.5,306,147.5z"/>
						</g>
					</g>
					<g>
						<g>
							<path class="st49" d="M261.1,246.2c-8.6,0.1-15.5,1.1-15.5,2.3c0,1.3,7.3,2.3,16.4,2.3c9,0,16.4-1,16.4-2.3
								c0-1.3-7.3-2.3-16.4-2.3C261.7,246.2,261.4,246.2,261.1,246.2z M261.1,243.9c0.3,0,0.6,0,0.9,0c18.1,0,32.8,2.1,32.8,4.6
								c0,2.6-14.7,4.6-32.8,4.6s-32.8-2.1-32.8-4.6C229.2,246,243.4,244,261.1,243.9z"/>
						</g>
					</g>
					<g>
						<g>
							<path class="st49" d="M261.1,246.2c0.3,0,0.6,0,0.9,0c9,0,16.4,1,16.4,2.3c0,1.3-7.3,2.3-16.4,2.3c-9,0-16.4-1-16.4-2.3
								C245.6,247.3,252.5,246.3,261.1,246.2z"/>
						</g>
					</g>
					<g>
						<g>
							<path class="st50" d="M254.2,201.5l-0.4,1.8c-20.1,6.9-40.3,1.7-40.3,1.7c-0.5-0.5-1.3-0.9-2.1-1l-0.4-1.6
								c0,0,12.7,2.6,20.1,2.6C238.5,204.9,254.2,201.5,254.2,201.5z"/>
						</g>
					</g>
					<g>
						<g>
							<path class="st50" d="M251.3,211.7c-0.8-0.7-1.3-1.7-1.3-2.9c0-2,1.5-3.6,3.4-3.8l-0.3,1.2c-1.2,0.3-2.1,1.3-2.1,2.6
								c0,0.9,0.4,1.6,1,2.1l-0.3,1.2C251.7,212,251.5,211.8,251.3,211.7z"/>
						</g>
					</g>
					<g>
						<g>
							<path class="st50" d="M251.9,212.1l-1.6,7.6c-2.8,2.5-7.7,4.5-16.5,4.2c-10.1-0.4-15.8-3.6-18.9-6.8l-1.1-4.4
								c1.2,2.7,5.3,6.7,18.9,8.2c20.8,2.2,18.8-8.9,18.7-9.2C251.5,211.8,251.7,212,251.9,212.1z"/>
						</g>
					</g>
					<g>
						<g>
							<path class="st49" d="M250.2,219.5l-3.9,18.7c-9.5,3.9-25.7,1.2-25.7,1.2l-5.9-22.1c3.2,3.1,8.9,6.3,19,6.6
								C242.5,224.1,247.4,222,250.2,219.5z"/>
						</g>
					</g>
				</g>
				<g>
					<g>
						<g>
							<path class="st55" d="M328.8,165.4c0,0.1-0.1,0.1-0.1,0.2c-1.4,2.2-4.5,3.5-9.7,4.1c-0.4-0.3-0.8-0.6-1.2-1
								c-0.3-0.3-0.7-0.6-1-0.9l-0.1-0.1c0.3,0,0.7-0.1,1-0.1c6.3-0.6,8.4-2.1,9.2-3.2c0.4-0.7,0.5-1.4,0.2-2.4
								c-0.4-1.1-1.2-2-1.2-2c-0.4-0.4-0.4-1.1,0-1.6c0.4-0.4,1.1-0.4,1.5,0c0,0,1.1,1.2,1.7,2.8c0,0,0,0,0,0
								C329.5,162.8,329.4,164.2,328.8,165.4z"/>
						</g>
					</g>
					<g>
						<g>
							<path class="st55" d="M260,248.5c0-9.3,0-130.7,0-140c0-0.5,0.4-1,0.9-1.1c0.7-0.1,1.3,0.4,1.3,1.1v140.1
								c0,0.7-0.6,1.2-1.3,1.1C260.3,249.5,260,249,260,248.5z"/>
						</g>
					</g>
				</g>
			</g>
		</g>
	</g>
	<g>
		<g>
			<g>
				<path class="st53" d="M593.7,486.6c-0.3-4.5-2.7-1.1-2.7-1.1c-2.4-11.1-13.3-12.3-13.3-12.3l0,0c-1-1.2-3.3-2.2-6.1-3.1
					c-0.7-0.2-1.5-0.4-2.2-0.7c-5.9-1.6-12.6-2.5-12.6-2.5l-0.1-0.2c1.6-1.1,2.7-2.5,3.4-3.6v0c2-0.3,4-3.5,2.2-3.3
					c-0.1,0-0.7,0.2-1.4,0.6c-0.7-0.2-2.5-1.4-1.5-7.1c0.4-2.3-0.1-4.2-1.2-5.8c0.3-0.6,0.2-0.8,0.2-1.5c-0.2-2.3-1.4-4.2-1.6-6.5
					c-0.2-2.1,0.9-8.5,1.3-10.3c-1.6,1.3-2.9,2.5-3.9,3.5c-6.6,6.6-4.2,8.9-4.2,8.9l0,0.2c-6.5-1.3-10.9,0.1-13.8,3.1
					c-0.7-0.8-1.6-1.5-2.6-2c-5-2.6-12-0.8-13.8-0.3c-0.3,0.1-0.4,0.1-0.4,0.1c1.6,0.8,3.1,1.7,4.6,2.6c1.2,0.7,2.3,1.4,3.4,2.3
					c2.2,1.7,3.3,4.4,5.5,6.1c0,1,0,2.1-0.1,3.1c-0.1,1.3-0.4,2.1-1,3.2c-0.1,0.2-1,2.1-1.3,1.9c0.2,0.1,4.6,3.1,8.4,5
					c0,0-1.9,2.8-3.2,4.4c-0.3,0.3-1,0.9-2,1.6c-0.7,0.6-1.5,1.2-2.4,2c-2.6,2.5-5.4,6.2-4.9,10.9c-3.9-0.9-1.4-19.6-6.6-22
					c-0.3-0.1-0.6-0.3-0.9-0.4c-11.9-6-10.2-17.5-10.1-18c-0.1,0.7-0.4,1.3-0.6,2c-0.5,1.7-0.9,3.5-1.3,5.3c-0.9,4.1-1.5,8.5-1,12.8
					c0.4,3.8,1.9,7,3.9,10.1c0.3,0.5,0.7,1.1,1,1.6c1.7,2.5,3.6,5,6.2,6.7c3,2.1,6.3,3.8,9.9,4c0.4,1.3,1,2.7,2,4.2
					c-2.3-0.4-4.5-0.9-6.7-1.5c-6.6-7.9-11.3-4.9-12.9,1.5c-1.5,6.4,11.3,10.6,11,4.9c-0.5-7.9-7.9-4.1-7-2.5
					c0.9,1.6,4.6-0.5,4.9,0.5c0.6,2.4-6.6,2.8-6.7-0.7c-0.1-3.5,6.4-4.8,9.4-1.8c2.2,2.2,3.9,8.1,3.9,8.1s8.7,2.2,18.2,2.2
					c19.1,0,46.4-2.3,48.4-3.8C594,497.1,594,491.1,593.7,486.6z M568.7,473.3c1.2,0.2,2,0.4,2.1,0.4c0,0,0,0,0,0l0.8,0.3
					c-0.5,0.4-1,1-1.4,1.7c-1.6-1-4.9-2.1-8.6-3.2C563,472.3,566.4,472.8,568.7,473.3z M565.1,493c-0.4-0.6-0.7-1.4-1-2.3
					c-1-3.2-1.6-7.5-3.1-10.2c-2.1-3.6-6.5-1.8-7.8-1.1c0.7-0.4,0.9-0.8,1.3-2.2l0-0.1c0.2,0,0.3,0,0.5,0.1c0.8,0.1,1.6,0.2,2.4,0.3
					c4.5,0.5,8.7,0.7,11.2,0.4c0,0,14.2,6.4,17.8,11.8C586.5,489.8,577.5,491.8,565.1,493z M552.9,479.6c0,0,0.1-0.1,0.3-0.2
					C553.1,479.5,553,479.6,552.9,479.6z M552.7,493.8c0.6-0.9,1.5-2.2,2.3-3.6c0,0,0,0,0,0c0.5-0.9,0.9-1.9,1.3-2.9
					c0.9,0.1,3.8,5,3.8,5c-0.1,0-0.2,0-0.3-0.1c-0.6-0.2-0.7,0.4-0.6,1.3C557,493.7,554.9,493.8,552.7,493.8z M548.9,488.7
					c-0.1,0.4-0.5,1.3-0.8,2.5c-0.2,0.8-0.5,1.8-0.6,2.7c-0.8,0-1.6,0-2.3,0C546.7,492.6,548,490.9,548.9,488.7z M590.4,487.6
					L590.4,487.6l-1.6,0.9c-2.6-6.7-19-9.9-18.6-10.9c0.4-0.1,0.7-0.3,0.9-0.6c0.1-0.3,0-0.6-0.3-0.9v0c0.2-0.6,0.9-1.4,1.8-1.8
					l0.2,0.3c0.6,0.3,3.1,1.2,4.5-0.1l0-0.1c2.2,0.5,4.8,1.5,7,3.1c3.7,2.8,6.1,7.8,6.6,8.8C590.8,486.8,590.6,487.2,590.4,487.6z"
					/>
			</g>
			<g id="XMLID_3_">
				<g>
					<path class="st54" d="M555.2,433.8c1.5-2.5,2.9-4.5,2.9-4.5c-0.4,1.9-1.5,8.3-1.3,10.3c0.2,2.3,1.4,4.2,1.6,6.5
						c0.1,0.7,0.1,0.9-0.2,1.5c-1.6-2.5-4.3-4.2-6.3-5.2C550.6,441.8,553,437.4,555.2,433.8z"/>
					<g>
						<path class="st51" d="M539.5,473.1c-1.3-2.9,2.8-4.7,2.8-4.7c-1-0.2-2.2-0.7-3.5-1.4c0,0-1.9,2.8-3.2,4.4
							c-0.3,0.3-1,0.9-2,1.6c0,0.1-0.7,1.6,0.7,3.5c0.4,0.6,1,1.3,1.9,1.9c0.5,0.4,1.1,0.8,1.8,1.2c1.2,0.7,2.7,1.3,4.6,2
							c2-0.9,4.2-1.7,6.4-2c1.3-0.2,2.6-0.1,3.8,0.2l0.1-0.2c0,0,0,0,0,0c0,0,0.1-0.1,0.3-0.2c0,0,0,0,0,0c0.7-0.4,0.9-0.8,1.3-2.2
							l0-0.1C547.2,476.1,540.1,474.5,539.5,473.1z"/>
						<path class="st51" d="M571.6,470.1c-0.7-0.2-1.5-0.4-2.2-0.7l0,0.1c0,0-0.2,0.2-0.5,0.6c-0.3,0.4-0.6,1-0.7,1.5
							c-0.1,0.5,0.1,1.1,0.7,1.5l0,0c1.2,0.2,2,0.4,2.1,0.4c-0.1-0.1-0.5-0.7-0.6-1.5c0-0.5,0.1-1.1,0.8-1.7
							C571.2,470.4,571.3,470.3,571.6,470.1z"/>
						<path class="st51" d="M555.2,472.1c-0.6,0.8-1.2,1.9-1.2,3c0,0.7,0.3,1.4,1,2.1c0.8,0.1,1.6,0.2,2.4,0.3l0,0
							c-0.7-0.7-1-1.5-1.1-2.2c-0.1-0.8,0.3-1.6,0.7-2.2c0.6-0.9,1.3-1.4,1.3-1.4c-0.8-0.2-1.5-0.4-2.3-0.6
							C556,471.1,555.6,471.5,555.2,472.1z"/>
						<path class="st51" d="M555.3,470.9c0.1-2.5-0.1-3.2-0.1-3.2c-1.6,0.9-3.5,1.4-5.9,1.4l0,0.1c1.6,0.5,3.3,1,4.7,1.3
							C554.4,470.7,554.9,470.8,555.3,470.9z"/>
					</g>
					<g>
						<path class="st52" d="M551.8,495c0,0,0.4-0.4,0.9-1.2c0.6-0.9,1.5-2.2,2.3-3.6c-1.2,1.7-6.3,1-6.9,1c-0.2,0.8-0.5,1.8-0.6,2.7
							c-0.2,1.3-0.2,2.6,0.2,3.5c2.4,0.2,4.8,0.3,7.2,0.4c0.6-0.4,0.8-0.9,0.7-1.3C553.3,496.5,551.8,495,551.8,495z"/>
						<path class="st52" d="M570.4,495c-0.3-0.3-0.4,0.8-3.7-0.5c-0.7-0.3-1.2-0.8-1.6-1.5c-0.4-0.6-0.7-1.4-1-2.3
							c0,0-2.6,1.7-4.1,1.5c-0.1,0-0.2,0-0.3-0.1c-0.6-0.2-0.7,0.4-0.6,1.3c0.2,1.2,0.9,3.1,2,4.4c2.5,0,4.9,0,7.2-0.1
							C569.8,496.6,570.5,495.2,570.4,495z"/>
						<path class="st52" d="M550.1,458.8c-0.2-0.2-0.5-0.4-0.7-0.5c0,0,0,0,0,0c-0.7-0.4-1.7-0.5-2.8,0c-2.5,1.1-1.2,2.4,0.4,2.9
							c1.6,0.5,3.2,1.2,4.4,2.1C552,463.9,551.8,460.5,550.1,458.8z"/>
					</g>
					<g>
						<path class="st48" d="M556.8,467l-0.1-0.2c-0.4,0.3-0.9,0.6-1.4,0.9c0,0,0.2,0.7,0.1,3.2c-0.4-0.1-0.9-0.2-1.3-0.3
							c-1.4-0.3-3.1-0.9-4.7-1.3c-2.8-0.8-5.5-1.5-7-0.9c0,0-4.1,1.8-2.8,4.7c0.6,1.4,7.7,3.1,15,4.1c0.2,0,0.3,0,0.5,0.1
							c-0.7-0.6-1-1.4-1-2.1c0-1.1,0.6-2.3,1.2-3c0.4-0.6,0.8-1,0.8-1c0.7,0.2,1.5,0.4,2.3,0.6c1.1,0.3,2.3,0.6,3.4,0.9
							c1.3-0.3,4.8,0.3,7,0.7l0,0c-0.6-0.5-0.7-1-0.7-1.5c0.1-0.6,0.4-1.1,0.7-1.5c0.3-0.4,0.5-0.6,0.5-0.6l0-0.1
							C563.4,467.9,556.8,467,556.8,467z"/>
						<path class="st48" d="M536.2,478.5c-0.9-0.7-1.5-1.3-1.9-1.9c-1.4-1.9-0.8-3.4-0.7-3.5c-0.7,0.6-1.5,1.2-2.4,2l0,0
							c0,0,0.2,1.6,1.3,3.3c0.5,0.8,1.1,1.6,1.9,2.3c0.8,0.7,1.8,1.2,3.1,1.5c1,0.3,2.2,0.4,3.6,0.2c0.5-0.3,1-0.5,1.6-0.8
							c-1.9-0.6-3.4-1.3-4.6-2C537.3,479.2,536.7,478.9,536.2,478.5z"/>
					</g>
					<path class="st54" d="M529.1,445c1.9,0.8,3.7,1.8,4.9,3c-1,1.7-1.2,3.8-1.2,5.8c-2.2-1.7-3.3-4.4-5.5-6.1
						c-1.1-0.8-2.2-1.6-3.4-2.3c-1.5-0.9-3-1.8-4.6-2.6c0,0,0.1,0,0.4-0.1l0,0.1C521.5,442.6,525.6,443.5,529.1,445z"/>
					<g>
						<path class="st53" d="M573,474.1c-0.1,0.1-0.3,0.1-0.4,0.2l0.2,0.3c0.6,0.3,3.1,1.2,4.5-0.1l0-0.1
							C575.2,474,573.4,474,573,474.1z"/>
						<path class="st53" d="M577.6,473.2c-1-1.2-3.3-2.2-6.1-3.1c-0.2,0.1-0.4,0.3-0.5,0.4c-0.6,0.6-0.8,1.2-0.8,1.7
							c0,0.8,0.5,1.4,0.6,1.5c0,0,0,0,0,0l0.8,0.3C574.2,472,577.5,473.2,577.6,473.2z"/>
						<path class="st53" d="M553.2,479.5C553.2,479.5,553.2,479.5,553.2,479.5c-0.1,0.1-0.2,0.1-0.3,0.2c0,0,0,0,0,0l-0.1,0.2
							c0.5,0.1,0.9,0.3,1.3,0.5c2.9,1.4,3,4.2,2.1,6.9c0.9,0.1,3.8,5,3.8,5c1.5,0.2,4.1-1.5,4.1-1.5c-1-3.2-1.6-7.5-3.1-10.2
							C558.9,477,554.5,478.8,553.2,479.5z"/>
						<path class="st53" d="M555.2,433.8l-2.6,1.3l1.6-2.4c-6.6,6.6-4.2,8.9-4.2,8.9l0,0.2c0.6,0.1,1.3,0.3,1.9,0.4
							C550.6,441.8,553,437.4,555.2,433.8z"/>
						<path class="st53" d="M533.5,443.1l-4,0.8l1.9,1.2h-2.3c1.9,0.8,3.7,1.8,4.9,3c0,0,7.1,2.7,2.1-3
							C535.3,444.2,534.5,443.6,533.5,443.1z"/>
						<path class="st53" d="M519.6,464c-0.3-0.1-0.6-0.3-0.9-0.4l-2.2-0.1l1,2.3l-1.8-0.7l1.8,3.3l-4.6-1c0,0,1.4,5.4,1.3,5.6
							c-0.1,0.2-5.8-5-5.8-5s1.1,7,1.1,7.9c0.3,0.5,0.7,1.1,1,1.6c1.7,2.5,3.6,5,6.2,6.7c3,2.1,6.3,3.8,9.9,4
							c-0.2-0.7-0.3-1.4-0.4-2C522.4,485.1,524.9,466.4,519.6,464z"/>
					</g>
					<g>
						<path class="st49" d="M593.7,486.7c-0.3-4.5-2.7-1.1-2.7-1.1c-2.4-11.1-13.3-12.3-13.3-12.3l0,0c-0.1,0-3.4-1.3-6,0.8
							c-0.5,0.4-1,1-1.4,1.7c0.2,0.2,0.4,0.3,0.6,0.5c0.2-0.6,0.9-1.4,1.8-1.8c0.1-0.1,0.3-0.1,0.4-0.2c0.4-0.2,2.2-0.2,4.3,0.3
							c2.2,0.5,4.8,1.5,7,3.1c3.7,2.8,6.1,7.8,6.6,8.8c-0.1,0.3-0.3,0.7-0.4,1.2h0l-1.6,0.9c-2.6-6.7-19-9.9-18.6-10.9
							c-0.4,0.1-0.9,0.2-1.6,0.3c0,0,14.2,6.4,17.8,11.8c0,0-9,2.1-21.4,3.3c0.4,0.7,1,1.3,1.6,1.5c3.3,1.3,3.4,0.2,3.7,0.5
							c0.2,0.2-0.6,1.5-2.1,2.7c-2.3,0.1-4.7,0.2-7.2,0.1c-1-1.3-1.8-3.2-2-4.4c-2.1,0.1-4.2,0.2-6.4,0.3c-0.5,0.7-0.9,1.2-0.9,1.2
							s1.6,1.5,3.7,1.5c0.1,0.3-0.1,0.8-0.7,1.3c-2.4-0.1-4.8-0.2-7.2-0.4c-0.4-0.9-0.3-2.2-0.2-3.5c-0.8,0-1.6,0-2.3,0
							c-1.7,1.4-3.6,2.2-5.5,2.7c-3.4-0.5-6.5-1-9.1-1.7c-0.1-0.1-0.3-0.3-0.4-0.4c-0.6-0.7-1.1-1.4-1.5-2.1
							c-2.3-0.4-4.5-0.9-6.7-1.5c-6.6-7.9-11.3-4.9-12.9,1.5c-1.5,6.4,11.3,10.6,11,4.9c-0.5-7.9-7.9-4.1-7-2.5
							c0.9,1.6,4.6-0.5,4.9,0.5c0.6,2.4-6.6,2.8-6.7-0.7c-0.1-3.5,6.4-4.8,9.4-1.8c2.2,2.2,3.9,8.1,3.9,8.1s8.7,2.2,18.2,2.2
							c19.1,0,46.4-2.3,48.4-3.8C593.9,497.1,594,491.2,593.7,486.7z"/>
						<path class="st56" d="M555,458.8c0.9,1.4,2.8,2.3,4.1,2.6c-0.6,0.4-0.9,0.9-0.6,1.2c0.5,0.5,1,0.7,1.5,0.6
							c2-0.3,4-3.5,2.2-3.3c-0.1,0-0.7,0.2-1.4,0.6c-0.2,0.1-0.4,0.2-0.6,0.3c-2.7-2.5-6.1-8.9-6.1-8.9S553.1,456,555,458.8z"/>
						<path class="st56" d="M557.8,456.2c0.9-0.3,1-3-0.4-3C556.3,453.1,556.9,456.4,557.8,456.2z"/>
						<path class="st50" d="M558.1,429.3c-1.6,1.3-2.9,2.5-3.9,3.5l-1.6,2.4l2.6-1.3C556.7,431.3,558.1,429.3,558.1,429.3z"/>
						<path class="st50" d="M541,445c0.3,0,0.6,0,1,0c0.6,0,1.3,0,1.9,0c1.6,0.1,3.3,0.3,4.8,0.9c2.4,0.9,5.4,4.9,5.5,5.1
							c-0.1-0.2-1.8-6.7-2.2-6.9c-2.5-1-5.7-1.8-8.3-1.1c-1,0.3-2.1,0.7-2.9,1.5C540.3,444.8,540.4,445,541,445z"/>
						<path class="st56" d="M549.3,458.2C549.3,458.2,549.3,458.2,549.3,458.2c0.3,0.1,0.5,0.3,0.7,0.5l0,0c1.3,0,1.6-3.7-0.1-3.8
							C548.7,455,548.7,457.6,549.3,458.2z"/>
						<path class="st50" d="M529.1,445.1h2.3l-1.9-1.2l4-0.8c-5-2.6-12-0.8-13.8-0.3l0,0.1C521.5,442.7,525.6,443.5,529.1,445.1z"/>
						<path class="st50" d="M508.4,467.9c0,0,5.8,5.3,5.8,5c0.1-0.2-1.3-5.6-1.3-5.6l4.6,1l-1.8-3.3l1.8,0.7l-1-2.3l2.2,0.1
							c-11.9-6-10.2-17.5-10.1-18c-0.1,0.7-0.4,1.3-0.6,2c-0.5,1.7-0.9,3.5-1.3,5.3c-0.9,4.1-1.5,8.5-1,12.8c0.4,3.8,1.9,7,3.9,10.1
							C509.5,474.9,508.4,467.9,508.4,467.9z"/>
					</g>
				</g>
			</g>
			<g>
				<path class="st56" d="M553.6,466.3c-0.7,0-1.5-0.1-2.1-0.3c-1-0.3-1.7-0.8-2.1-1.5c-0.3-0.6-0.3-1.3-0.1-2
					c0.1-0.2,0.3-0.4,0.6-0.3c0.2,0.1,0.4,0.3,0.3,0.6c-0.2,0.5-0.2,1,0,1.3c0.3,0.6,1,0.9,1.5,1.1c1.3,0.4,2.8,0.4,4.1-0.1
					c0.7-0.2,1.3-0.6,1.8-1l0.1-0.1c0.8-0.6,1-0.8,1-0.9c0-0.2,0.2-0.4,0.4-0.4c0.3,0,0.5,0.1,0.5,0.4c0.1,0.4-0.3,0.9-1.4,1.7
					l-0.1,0.1c-0.6,0.5-1.3,0.9-2.1,1.1C555.3,466.2,554.5,466.3,553.6,466.3z M558.8,463.1C558.8,463.1,558.8,463.1,558.8,463.1
					C558.8,463.1,558.8,463.1,558.8,463.1z M558.8,463L558.8,463L558.8,463z"/>
			</g>
		</g>
	</g>
	<g>
		<path class="st57" d="M891.9,227.8c1.3-1.8,2.1-4,2.1-6.4c0-2.6-0.9-5-2.5-6.9c0.1-0.5,0.2-1.1,0.2-1.7v-0.3c0-2.6-1.3-5-3.3-6.6
			c-1.8-1.5-4-2.2-6.3-2.2c-0.9,0-1.8,0.1-2.7,0.4c-0.6,0.2-1.3,0.5-1.9,0.8c-4.7-5.9-7.6-12.7-7.7-12.8c-0.1-0.3-0.6-0.5-0.9-0.4
			c-0.3,0.1-0.5,0.6-0.4,0.9c0.1,0.3,3.1,7,7.8,13c-1.6,1-2.8,2.5-3.5,4.3c-0.3,0.8-0.5,1.7-0.5,2.6v0.2v0v0.1c0,1.2,0.3,2.4,1,3.4
			c-0.1,0.2-0.2,0.4-0.3,0.7l-0.6-0.9c-0.6-1-1.5-1.7-2.3-1.9c0-0.6-0.1-1.4-0.4-2.1l-1.4-2.9c-0.5-1-1.3-1.7-2-1.8
			c-0.1-0.3-0.3-0.7-0.5-0.9l-1.1-1.1c-0.4-0.4-0.9-0.6-1.3-0.5l0,0c0,0,0,0,0,0c0,0,0,0,0,0l0,0c-0.1,0.4,0.1,0.9,0.6,1.3l1.1,1.1
			c0.3,0.3,0.6,0.4,0.9,0.5c-0.2,0.7-0.1,1.7,0.4,2.6l1.4,2.9c0.4,0.8,1,1.4,1.5,1.7c-0.1,0.7,0.2,1.6,0.8,2.5l2.1,3.3
			c0,0.2,0,0.4,0,0.6c0,2,0.5,3.9,1.5,5.5c-3.8,2.3-6.5,6-7.5,10.5c-0.4-0.2-0.9-0.2-1.3-0.1c-0.5-0.2-1.3-0.2-2.1-0.1l-3,0.6
			c-0.8,0.1-1.4,0.4-1.9,0.8c-0.2,0-0.3,0-0.5,0.1l-1.2,0.3c-0.4,0.1-0.8,0.4-0.8,0.7l0,0c0,0,0,0,0,0c0,0,0,0,0,0l0,0
			c0.2,0.2,0.7,0.3,1.1,0.1l1.2-0.3c0.1,0,0.2-0.1,0.2-0.1c0.5,0.2,1.2,0.2,2,0.1l3-0.6c0.5-0.1,0.9-0.2,1.3-0.4
			c0.2,0.4,0.5,0.8,1,1l0.6,0.3c0,0.4,0,0.7,0,1.1c0,1,0.2,2.1,0.4,3.2c-0.3,0.3-0.6,0.7-0.9,1.1l-1.4,2.7c-0.4,0.8-0.5,1.6-0.4,2.2
			c-0.2,0.1-0.4,0.4-0.6,0.7l-0.7,1.3c-0.2,0.5-0.3,1-0.1,1.2l0,0c0,0,0,0,0,0c0,0,0,0,0,0l0,0c0.3,0,0.7-0.4,1-0.8l0.7-1.3
			c0.1-0.2,0.2-0.5,0.2-0.7c0.6-0.2,1.3-0.8,1.8-1.7l1.1-2.2c3.3,8.1,12,16.8,15.8,16.8c4.1,0,15.5-13.5,15.5-22.5
			C898.3,235.5,895.8,230.7,891.9,227.8z"/>
		<path class="st58" d="M909.5,239.6L909.5,239.6c-0.1-0.3-0.4-0.6-0.8-0.7l-1.2-0.3c-0.2-0.1-0.3-0.1-0.5-0.1
			c-0.4-0.3-1.1-0.6-1.9-0.8l-3-0.6c-0.8-0.2-1.6-0.1-2.1,0.1c-0.5-0.1-1-0.1-1.4,0.2l-0.4,0.2c-0.8-4-3-7.5-6.2-9.8
			c1.3-1.8,2.1-4,2.1-6.4c0-0.3,0-0.7,0-1l1.9-2.9c0.6-0.9,0.8-1.8,0.8-2.5c0.6-0.3,1.1-0.9,1.5-1.7l1.4-2.9
			c0.5-0.9,0.6-1.9,0.4-2.6c0.3-0.1,0.6-0.2,0.9-0.5l1.1-1.1c0.4-0.4,0.6-0.9,0.6-1.3l0,0c0,0,0,0,0,0c0,0,0,0,0,0l0,0
			c-0.3-0.1-0.8,0.1-1.3,0.5l-1.1,1.1c-0.3,0.3-0.5,0.6-0.5,0.9c-0.7,0.1-1.5,0.8-2,1.8l-1.4,2.9c-0.3,0.7-0.5,1.4-0.4,2.1
			c-0.8,0.2-1.7,0.9-2.3,1.9l-0.4,0.6c-0.4-0.8-0.9-1.6-1.4-2.2c0.1-0.5,0.2-1.1,0.2-1.7v-0.3c0-2.6-1.3-5-3.3-6.6
			c-0.3-0.2-0.5-0.4-0.8-0.6c4.5-5.8,7.3-12.2,7.4-12.5c0.1-0.3,0-0.7-0.4-0.9c-0.3-0.1-0.7,0-0.9,0.4c0,0.1-2.9,6.6-7.4,12.4
			c-1.3-0.6-2.8-0.9-4.2-0.9c-0.5,0-0.9,0-1.4,0.1v58.9c0,0,0.1,0,0.1,0.1l2,5c0.1,0.3,0.5,0.3,0.6,0l2.2-5.6l-0.1,0
			c4.4-3,10.8-11.4,12.4-18.4c0,0,0.1,0,0.1,0.1c-0.1,0.6,0,1.3,0.4,2l1.4,2.7c0.4,0.9,1.1,1.5,1.8,1.7c0,0.2,0.1,0.5,0.2,0.7
			l0.7,1.3c0.2,0.5,0.6,0.8,1,0.8l0,0c0,0,0,0,0,0c0,0,0,0,0,0l0,0c0.2-0.3,0.2-0.7-0.1-1.2l-0.7-1.3c-0.2-0.3-0.4-0.5-0.6-0.7
			c0.2-0.6,0-1.4-0.4-2.1l-1.4-2.7c-0.3-0.6-0.8-1.1-1.3-1.4c0.2-0.6,0.2-1.5-0.1-2.4l-0.5-1.3l1.1-0.5c0.5-0.2,0.8-0.6,1-1
			c0.4,0.2,0.8,0.3,1.3,0.4l3,0.6c0.8,0.2,1.5,0.1,2-0.1c0.1,0,0.2,0.1,0.2,0.1l1.2,0.3C908.8,239.9,909.2,239.8,909.5,239.6
			L909.5,239.6C909.5,239.6,909.5,239.6,909.5,239.6C909.5,239.6,909.5,239.6,909.5,239.6z"/>
		<path class="st59" d="M888.4,218.6c-1-4-1.3-10.5-1.4-13.8c2.9,1.3,5,4.5,5,7.9v0C891.9,215.2,890.5,217.5,888.4,218.6z"/>
		<path class="st59" d="M875.7,218.9c1-4,1.3-10.5,1.4-13.8c-2.9,1.3-5,4.5-5,7.9v0C872.2,215.5,873.6,217.7,875.7,218.9z"/>
		<g>
			<path class="st60" d="M888.8,213.3c-0.3-1.5-0.4-3.3-0.5-4.8c0-0.7,0.8-1.1,1.3-0.6c0.9,0.8,1.4,2,1.4,3.3l0,0
				c0,0.9-0.3,1.8-0.9,2.4C889.7,214.2,888.9,214,888.8,213.3z"/>
			<path class="st61" d="M889.3,212c-0.1-0.7-0.2-1.5-0.2-2.2c0-0.3,0.4-0.5,0.6-0.3c0.4,0.4,0.6,0.9,0.6,1.5l0,0
				c0,0.4-0.2,0.8-0.4,1.1C889.7,212.4,889.3,212.3,889.3,212z"/>
		</g>
		<g>
			<path class="st60" d="M875.5,213.3c0.3-1.5,0.4-3.3,0.5-4.8c0-0.7-0.8-1.1-1.3-0.6c-0.9,0.8-1.4,2-1.4,3.3l0,0
				c0,0.9,0.3,1.8,0.9,2.4C874.6,214.2,875.4,214,875.5,213.3z"/>
			<path class="st61" d="M875.1,212c0.1-0.7,0.2-1.5,0.2-2.2c0-0.3-0.4-0.5-0.6-0.3c-0.4,0.4-0.6,0.9-0.6,1.5l0,0
				c0,0.4,0.2,0.8,0.4,1.1C874.6,212.4,875,212.3,875.1,212z"/>
		</g>
		<g>
			<path class="st60" d="M891.2,256.6c1-1.2,1.9-2.5,2.8-3.9h-23.6c0.9,1.4,2,2.7,3,3.9H891.2z"/>
			<path class="st60" d="M866.7,245.6c0.5,1.3,1.1,2.6,1.8,3.9h27.4c0.7-1.3,1.2-2.6,1.6-3.9H866.7z"/>
			<path class="st60" d="M865.8,240.8c0,0.5,0,1,0.1,1.6h32.3c0.1-0.5,0.1-1.1,0.1-1.6c0-0.8-0.1-1.6-0.2-2.3h-32.2
				C865.8,239.2,865.8,240,865.8,240.8z"/>
			<path class="st60" d="M868.9,231.2c-0.9,1.2-1.6,2.5-2.1,3.9h30.5c-0.5-1.4-1.2-2.7-2.1-3.9H868.9z"/>
		</g>
		<g>
			<path class="st62" d="M881.7,224.5c0,0,14.6,11.2,21.3,12.8s14.5,1.3,16.8-3.2c0,0,3-5.9-2-9.6
				C912.8,220.8,881.7,224.5,881.7,224.5z"/>
			<path class="st63" d="M883,224.3c0,0,46.2-24.5,50-15c3.8,9.5-7.6,20.2-26.4,17.8C887.9,224.8,883,224.3,883,224.3z"/>
		</g>
		<g>
			<path class="st64" d="M880.7,252.7h-10.3c0.9,1.4,2,2.7,3,3.9h7.2V252.7z"/>
			<path class="st64" d="M866.7,245.6c0.5,1.3,1.1,2.6,1.8,3.9h12.2v-3.9H866.7z"/>
			<path class="st64" d="M865.9,238.5c-0.1,0.8-0.2,1.5-0.2,2.3c0,0.5,0,1,0.1,1.6h14.8v-3.9H865.9z"/>
			<path class="st64" d="M880.7,231.2h-11.8c-0.9,1.2-1.6,2.5-2.1,3.9h13.9V231.2z"/>
		</g>
		<path class="st65" d="M880.6,224.5c0,0-14.6,11.2-21.3,12.8c-6.7,1.7-14.5,1.3-16.8-3.2c0,0-3-5.9,2-9.6
			C849.5,220.8,880.6,224.5,880.6,224.5z"/>
		<path class="st66" d="M879.6,224.3c0,0-46.2-24.5-50-15c-3.8,9.5,7.6,20.2,26.4,17.8C874.7,224.8,879.6,224.3,879.6,224.3z"/>
	</g>
	<g>
		<path class="st67" d="M1065.9,477.6c-0.2-8.6-5-19.3-20.1-20.1c-15.1-0.8-26.8,2.6-20.5,5.7c6.3,3.1,14.1,7.1,17.3,15.5
			c3.1,8.2,12.2,15.9,16.8,7.6v7.1h2.1v-8C1063.3,485,1066,483.3,1065.9,477.6z"/>
		<rect x="1069" y="461.3" class="st67" width="2.1" height="32.2"/>
		<g>
			<g>
				<path class="st68" d="M1076.6,457.8c0.2-1.2,0.5-2.2,0.8-3.1c2.4-3.1,2.5-7.9,1.6-11.7c-0.3-1.2-0.7-2.3-1.2-3.2
					c-2.5-4.8-7.5-23.4-8.9-19.3c-1.4,4.1-4.1,11-7,17.6c-3.8,8.9-2.3,13.8,0.3,16.5c0.1,0.3,0.1,0.5,0.1,0.8c0.3,1.8,0.6,3.3,1,4.6
					c1,3.8,2.4,5.6,6.3,5.9c1.2,0.1,2.3-0.1,3.2-0.6C1074.6,464.2,1075.9,461.8,1076.6,457.8z"/>
			</g>
			<path class="st69" d="M1069,457.8c0,0-14.9-1.1-7-19.6c2.9-6.6,5.6-13.5,7-17.6c1.3-4,6.4,14.6,8.9,19.3
				C1080.8,445.7,1081.1,458.8,1069,457.8z"/>
			<path class="st70" d="M1073.6,454.5c-1.3,0.9-3.3,1.6-4.8,1.1c-2.5-0.8-5.2-2.3-6-4.9c-0.7-2.1-0.1-4.6,0.4-6.7
				c0.5-2.2,1.1-4.4,2-6.5c0.6-1.3,1.2-2.6,1.9-3.9c0.6-1,1.4-2.1,2.7-2.1C1072.8,431.5,1081.2,449.2,1073.6,454.5z"/>
			<path class="st71" d="M1071.4,455.5c-0.5,0.2-1.1,0.3-1.8,0.3c0,0-0.3-0.1-0.9-0.3c0,0-2.4-6.3-5.5-12.2c-2-3.9-4.4-7.8-6.6-9.5
				c-5.2-4.2,1.8-4.5,7.7,5.6c0.3,0.6,0.7,1.2,1,1.8C1070.2,450.9,1071.2,454.4,1071.4,455.5z"/>
			<path class="st71" d="M1073.6,454.5c-0.5,0.3-1,0.6-1.6,0.8c0,0-0.4-12.7,1.5-17.1C1075.4,433.8,1073.1,450.3,1073.6,454.5z"/>
		</g>
		<path class="st67" d="M1095.9,457.6c-15.1,0.8-19.9,11.5-20.1,20.1c-0.1,5.4,2.3,7.2,4.2,7.8v8h2.1v-7.7c4.6,9.2,14,1.3,17.1-7.1
			c3.2-8.4,11-12.4,17.3-15.5C1122.8,460.2,1111.1,456.8,1095.9,457.6z"/>
		<g>
			<polygon class="st72" points="1084.4,526.8 1055.8,526.8 1050.9,498.4 1089.3,498.4 			"/>
			<polygon class="st73" points="1052,505.1 1055.8,526.8 1084.4,526.8 1088.1,505.1 			"/>
			<rect x="1049.3" y="492.2" class="st74" width="41.5" height="8.8"/>
		</g>
		<path class="st75" d="M1093.4,466.7c7.5-4.3,16.4-6.6,24.8-5.3c-0.2-2.4-10.1-4.5-22.3-3.9c-15.1,0.8-19.9,11.5-20.1,20.1
			c-0.2,7.1,4.3,8,5.8,8.1C1083.5,478.1,1086.5,470.8,1093.4,466.7z"/>
		<path class="st75" d="M1048.3,466.7c-7.5-4.3-16.4-6.6-24.8-5.3c0.2-2.4,10.1-4.5,22.3-3.9c15.1,0.8,19.9,11.5,20.1,20.1
			c0.2,7.1-4.3,8-5.8,8.1C1058.2,478.1,1055.2,470.8,1048.3,466.7z"/>
	</g>
	<path class="st28" d="M582,329h-28c-7.2,0-13-5.9-13-13l0,0c0-7.1,5.8-13,13-13h28c7.2,0,13,5.9,13,13l0,0
		C595,323.1,589.2,329,582,329z"/>
	<path class="st28" d="M550,363h-28c-7.2,0-13-5.9-13-13l0,0c0-7.1,5.8-13,13-13h28c7.2,0,13,5.9,13,13l0,0
		C563,357.1,557.2,363,550,363z"/>
	<path class="st28" d="M616,363h-28c-7.2,0-13-5.9-13-13l0,0c0-7.1,5.8-13,13-13h28c7.2,0,13,5.9,13,13l0,0
		C629,357.1,623.2,363,616,363z"/>
	<path class="st28" d="M1720,241h-28c-7.2,0-13-5.8-13-13v0c0-7.1,5.8-13,13-13h28c7.2,0,13,5.8,13,13v0
		C1733,235.2,1727.2,241,1720,241z"/>
	<path class="st28" d="M1688,275h-28c-7.2,0-13-5.9-13-13l0,0c0-7.2,5.8-13,13-13h28c7.2,0,13,5.8,13,13l0,0
		C1701,269.1,1695.2,275,1688,275z"/>
	<path class="st28" d="M1754,275h-28c-7.2,0-13-5.9-13-13l0,0c0-7.2,5.8-13,13-13h28c7.2,0,13,5.8,13,13l0,0
		C1767,269.1,1761.2,275,1754,275z"/>
	<path class="st28" d="M1291,510h28c7.2,0,13,5.8,13,13l0,0c0,7.2-5.8,13-13,13h-28c-7.2,0-13-5.8-13-13l0,0
		C1278,515.8,1283.8,510,1291,510z"/>
	<path class="st28" d="M1323,476h28c7.2,0,13,5.9,13,13l0,0c0,7.1-5.8,13-13,13h-28c-7.2,0-13-5.9-13-13l0,0
		C1310,481.9,1315.8,476,1323,476z"/>
	<path class="st28" d="M1418,300h28c7.2,0,13,5.9,13,13l0,0c0,7.1-5.8,13-13,13h-28c-7.2,0-13-5.9-13-13l0,0
		C1405,305.9,1410.8,300,1418,300z"/>
	<path class="st28" d="M1621,540h28c7.2,0,13,5.8,13,13l0,0c0,7.2-5.8,13-13,13h-28c-7.2,0-13-5.8-13-13l0,0
		C1608,545.8,1613.8,540,1621,540z"/>
	<path class="st28" d="M1257,476h28c7.2,0,13,5.9,13,13l0,0c0,7.1-5.8,13-13,13h-28c-7.2,0-13-5.9-13-13l0,0
		C1244,481.9,1249.8,476,1257,476z"/>
	<path class="st28" d="M795,372h28c7.2,0,13,5.9,13,13l0,0c0,7.1-5.8,13-13,13h-28c-7.2,0-13-5.9-13-13l0,0
		C782,377.9,787.8,372,795,372z"/>
	<path class="st28" d="M1063,202h-28c-7.2,0-13-5.8-13-13v0c0-7.1,5.8-13,13-13h28c7.2,0,13,5.8,13,13v0
		C1076,196.2,1070.2,202,1063,202z"/>
	<path class="st28" d="M1096,236h-28c-7.2,0-13-5.8-13-13v0c0-7.1,5.8-13,13-13h28c7.2,0,13,5.8,13,13v0
		C1109,230.2,1103.2,236,1096,236z"/>
	<path class="st28" d="M128,397h-28c-7.1,0-13-5.9-13-13l0,0c0-7.1,5.8-13,13-13h28c7.1,0,13,5.9,13,13l0,0
		C141,391.1,135.2,397,128,397z"/>
	<path class="st28" d="M161,431h-28c-7.1,0-13-5.9-13-13l0,0c0-7.1,5.8-13,13-13h28c7.1,0,13,5.9,13,13l0,0
		C174,425.1,168.2,431,161,431z"/>
	<path class="st28" d="M863,571h28c7.2,0,13,5.8,13,13l0,0c0,7.2-5.8,13-13,13h-28c-7.2,0-13-5.8-13-13l0,0
		C850,576.8,855.8,571,863,571z"/>
	<path class="st28" d="M356,560h28c7.1,0,13,5.8,13,13l0,0c0,7.2-5.9,13-13,13h-28c-7.1,0-13-5.8-13-13l0,0
		C343,565.8,348.9,560,356,560z"/>
	<path class="st28" d="M899,537h28c7.2,0,13,5.8,13,13l0,0c0,7.2-5.8,13-13,13h-28c-7.2,0-13-5.8-13-13l0,0
		C886,542.8,891.8,537,899,537z"/>
	<rect x="1651" y="974" class="st76" width="72" height="7"/>
	<rect x="1593" y="974" class="st76" width="36" height="7"/>
	<rect x="1175" y="1032" transform="matrix(-1 -1.224647e-16 1.224647e-16 -1 2494 2071)" class="st76" width="144" height="7"/>
	<rect x="1340" y="1032" transform="matrix(-1 -1.224647e-16 1.224647e-16 -1 2752 2071)" class="st76" width="72" height="7"/>
	<rect x="841" y="981" class="st76" width="72" height="7"/>
	<rect x="904" y="1008" class="st76" width="72" height="7"/>
	<rect x="1359" y="951" class="st76" width="72" height="7"/>
	<rect x="622" y="1011" class="st76" width="72" height="7"/>
	<rect x="388" y="1011" class="st76" width="219" height="7"/>
	<rect x="174" y="982" class="st76" width="72" height="7"/>
	<rect x="84" y="958" class="st76" width="126" height="7"/>
	<g>
		<g>
			<g>
				<rect x="1742.9" y="434.7" class="st77" width="4.3" height="130.5"/>
				<path class="st78" d="M1744.9,575.9c5,0,9.1-4.1,9.1-9.1c0-5-4.1-9.1-9.1-9.1c-5,0-9.1,4.1-9.1,9.1
					C1735.7,571.8,1739.9,575.9,1744.9,575.9z"/>
			</g>
			<rect x="1785" y="413.9" class="st79" width="12.3" height="474.1"/>
			<rect x="1780.8" y="568.4" class="st79" width="20.2" height="319.6"/>
			<path class="st80" d="M1789.3,892.4c12.7,0,23-10.3,23-23c0-12.7-10.3-23-23-23s-23,10.3-23,23
				C1766.3,882,1776.7,892.4,1789.3,892.4z"/>
			<path class="st79" d="M1789.1,912h-59.3c0-23,26.6-41.6,59.3-41.6c32.8,0,59.3,18.6,59.3,41.6H1789.1z"/>
			<linearGradient id="SVGID_1_" gradientUnits="userSpaceOnUse" x1="1798.1287" y1="369.8292" x2="1798.1287" y2="516">
				<stop  offset="0.3947" style="stop-color:#FFFFA7"/>
				<stop  offset="0.8021" style="stop-color:#FFFFE6;stop-opacity:0.327"/>
				<stop  offset="1" style="stop-color:#FFFFFF;stop-opacity:0"/>
			</linearGradient>
			<polygon class="st81" points="1747.1,379.4 1640.3,516 1956,516 1821.9,369.8 			"/>
			<polygon class="st80" points="1736.2,326 1845.7,326 1902.5,444.8 1687.1,444.8 			"/>
			<path class="st80" d="M1790.5,586.3c12.7,0,23-5.9,23-13c0-7.2-10.3-13-23-13s-23,5.9-23,13
				C1767.4,580.4,1777.8,586.3,1790.5,586.3z"/>
		</g>
	</g>
	<linearGradient id="SVGID_2_" gradientUnits="userSpaceOnUse" x1="677.1287" y1="237.8292" x2="677.1287" y2="346">
		<stop  offset="0.3947" style="stop-color:#FFFFA7"/>
		<stop  offset="0.8021" style="stop-color:#FFFFE6;stop-opacity:0.327"/>
		<stop  offset="1" style="stop-color:#FFFFFF;stop-opacity:0"/>
	</linearGradient>
	<polygon class="st82" points="639.3,244.9 560.3,346 793.9,346 694.7,237.8 	"/>
	<g>
		<rect x="667.3" class="st83" width="12" height="192.2"/>
		<rect x="673.3" class="st84" width="6.4" height="192.2"/>
		<path class="st42" d="M673.2,207c-37,0-67,30-67,67h134C740.2,237.1,710.2,207,673.2,207z"/>
		<path class="st41" d="M633.9,274h106.3c0-27.7-16.8-51.4-40.7-61.7C664.8,213,636.6,239.9,633.9,274z"/>
		<circle class="st84" cx="673.5" cy="196.2" r="10.9"/>
		<path class="st83" d="M684.1,193.6c-1-4-4.1-7.1-8.1-8.1c-2.6,0.8-4.6,3.3-4.6,6.2c0,3.6,2.9,6.5,6.5,6.5
			C680.8,198.2,683.3,196.3,684.1,193.6z"/>
	</g>
</g>
</svg>
