<?xml version="1.0" encoding="utf-8"?>
<!-- Generator: Adobe Illustrator 24.3.0, SVG Export Plug-In . SVG Version: 6.00 Build 0)  -->
<svg version="1.1" xmlns="http://www.w3.org/2000/svg" xmlns:xlink="http://www.w3.org/1999/xlink" x="0px" y="0px"
	 viewBox="0 0 288 315" style="enable-background:new 0 0 288 315;" xml:space="preserve">
<style type="text/css">
	.st0{fill:#D8E9F0;}
	.st1{fill:#3687A4;}
	.st2{fill:#ADDDEC;}
	.st3{opacity:0.4;fill:#FFFFFF;}
	.st4{fill:#FFFFFF;}
	.st5{fill:#A6DEF6;}
	.st6{fill:#FBC45E;}
	.st7{fill:#E89BBE;}
	.st8{fill:#7A8EC7;}
	.st9{fill:none;stroke:#FFFFFF;stroke-width:6;stroke-miterlimit:10;}
	.st10{fill:#C1E6EC;}
	.st11{fill:#FFFFFF;stroke:#FFFFFF;stroke-width:4;stroke-miterlimit:10;}
	.st12{fill:#CBDF8C;}
	.st13{fill:none;stroke:#FFFFFF;stroke-width:2;stroke-miterlimit:10;}
	.st14{fill:#838186;stroke:#838186;stroke-width:4;stroke-miterlimit:10;}
	.st15{fill:#838186;}
	.st16{fill:#DFDFDF;}
	.st17{fill:none;stroke:#FFFFFF;stroke-width:28;stroke-miterlimit:10;}
	.st18{fill:url(#SVGID_1_);}
	.st19{fill:url(#SVGID_2_);}
	.st20{fill:#BFE3D3;}
	.st21{fill:#ADCEC1;}
	.st22{fill:#58C5C7;}
	.st23{fill:#00B6BE;}
	.st24{fill:#DDBCC8;}
	.st25{fill:#BCAB92;}
	.st26{fill:#D6A1B7;}
	.st27{fill:#261F44;}
	.st28{opacity:0.44;fill:#5F5F60;}
	.st29{fill:none;stroke:#998675;stroke-width:2;stroke-miterlimit:10;}
	.st30{fill:url(#SVGID_3_);}
	.st31{fill:url(#SVGID_4_);}
	.st32{fill:url(#SVGID_5_);}
	.st33{fill:url(#SVGID_6_);}
	.st34{fill:url(#SVGID_7_);}
	.st35{fill:url(#SVGID_8_);}
	.st36{fill:url(#SVGID_9_);}
	.st37{fill:url(#SVGID_10_);}
	.st38{fill:url(#SVGID_11_);}
	.st39{fill:url(#SVGID_12_);}
	.st40{fill:url(#SVGID_13_);}
	.st41{fill:url(#SVGID_14_);}
	.st42{fill:url(#SVGID_15_);}
	.st43{fill:url(#SVGID_16_);}
	.st44{fill:url(#SVGID_17_);}
	.st45{fill:url(#SVGID_18_);}
	.st46{fill:url(#SVGID_19_);}
	.st47{fill:#454289;}
	.st48{fill:#38327C;}
	.st49{fill:#E6E6E6;}
	.st50{fill:#FF4370;}
	.st51{fill:#E53C70;}
	.st52{fill:#FF6699;}
	.st53{opacity:0.23;fill:#E53C70;}
	.st54{fill:#3F4650;}
	.st55{fill:#0267B6;}
	.st56{fill:#2BB03E;}
	.st57{fill:#EA2023;}
	.st58{fill:#FBED23;}
	.st59{fill:#0E6B7A;}
	.st60{opacity:0.64;fill:url(#SVGID_20_);}
	.st61{fill:none;stroke:#FFFFFF;stroke-width:8.0256;stroke-miterlimit:10;}
	.st62{fill:none;stroke:#FF4370;stroke-width:1.3376;stroke-miterlimit:10;}
	.st63{fill:#FF83B3;}
	.st64{fill:#EBB724;}
	.st65{fill:#FFC727;}
	.st66{fill:#50ACB0;}
	.st67{fill:#FD8283;}
	.st68{fill:#F07B7C;}
	.st69{fill:#3C8185;}
	.st70{display:none;fill:#3C8185;}
	.st71{fill:#92D1DF;}
	.st72{fill:#010101;}
	.st73{fill:#FDEE40;}
	.st74{fill:#020202;}
	.st75{fill:#76B62A;}
	.st76{fill:#FAB924;}
	.st77{fill:#F20303;}
	.st78{fill:#ABD2D0;}
	.st79{fill:#968976;}
	.st80{fill:#70675B;}
	.st81{fill:#E4DECE;}
	.st82{fill:#93B7B6;}
	.st83{fill:#C9F9F9;}
	.st84{fill:none;stroke:#FFFFFF;stroke-width:2.9103;stroke-miterlimit:10;}
	.st85{fill:#F1893A;}
	.st86{fill:#C96E31;}
	.st87{fill:#DB7838;}
	.st88{fill:#2F3E4C;}
	.st89{fill:#87A978;}
	.st90{fill:#93BD85;}
	.st91{fill:#ACDA99;}
	.st92{fill:#475362;}
	.st93{fill:#627289;}
	.st94{fill:#303846;}
	.st95{fill:#41505E;}
	.st96{fill:none;stroke:#87A978;stroke-width:1.1982;stroke-miterlimit:10;}
	.st97{fill:#B4E6A1;}
	.st98{fill:none;stroke:#87A978;stroke-width:0.8558;stroke-miterlimit:10;}
	.st99{fill:#6E8462;}
	.st100{fill-rule:evenodd;clip-rule:evenodd;fill:#F0EEE6;}
	.st101{fill:#E4E0D9;}
	.st102{fill:#FFDD83;}
	.st103{fill:#219260;}
	.st104{fill:#147798;}
	.st105{fill:#915E36;}
	.st106{fill:#FB8710;}
	.st107{fill:#CA9E64;}
	.st108{fill:#B07F48;}
	.st109{fill:#53D678;}
	.st110{fill:#5C4B51;}
	.st111{fill:#F06060;}
	.st112{fill:#F2EBBF;}
	.st113{fill:none;stroke:#5C4B51;stroke-width:3.4462;stroke-linecap:round;stroke-linejoin:round;stroke-miterlimit:10;}
	.st114{opacity:0.38;fill:none;stroke:#FFFFFF;stroke-width:7;stroke-linecap:round;stroke-linejoin:round;stroke-miterlimit:10;}
	.st115{fill:#DC9C76;}
	.st116{fill:#729C76;}
	.st117{fill:#A94B51;}
	.st118{fill:#974B51;}
	.st119{opacity:0.5;fill:#CC575E;}
	.st120{fill:#7F9C76;}
	.st121{fill:#5C4B7A;}
	.st122{fill:#F03960;}
	.st123{fill:#FFC783;}
	.st124{fill:#5C1A51;}
	.st125{fill:#52BEB2;}
	.st126{fill:#F0A660;}
	.st127{fill:#F3B562;}
	.st128{fill:#F27800;}
	.st129{fill:#613D4A;}
	.st130{fill:#004F4D;}
	.st131{fill:#007F4F;}
	.st132{fill:#00654D;}
	.st133{fill:#F59333;}
	.st134{fill:#F1ECDA;}
	.st135{fill:#88A8A7;}
	.st136{fill:url(#SVGID_21_);}
	.st137{fill:#E6E7E8;}
	.st138{fill:#D1D3D4;}
	.st139{fill:#FDBA4A;}
	.st140{fill:#FAA222;}
	.st141{fill:#D3DEBC;}
	.st142{fill:#CC883B;}
	.st143{fill-rule:evenodd;clip-rule:evenodd;fill:#919697;}
	.st144{fill-rule:evenodd;clip-rule:evenodd;fill:#36343A;}
	.st145{fill-rule:evenodd;clip-rule:evenodd;fill:#0C050D;stroke:#0C050D;stroke-width:0.235;stroke-miterlimit:22.9256;}
	.st146{fill-rule:evenodd;clip-rule:evenodd;fill:#36343A;stroke:#0C050D;stroke-width:0.235;stroke-miterlimit:22.9256;}
	.st147{fill-rule:evenodd;clip-rule:evenodd;fill:#7D8082;}
	.st148{fill-rule:evenodd;clip-rule:evenodd;fill:#5BBA47;}
	.st149{fill-rule:evenodd;clip-rule:evenodd;fill:#818081;}
	.st150{fill-rule:evenodd;clip-rule:evenodd;fill:#666264;}
	.st151{fill-rule:evenodd;clip-rule:evenodd;fill:#3B3438;}
	.st152{fill-rule:evenodd;clip-rule:evenodd;fill:#62C3D2;}
	.st153{fill-rule:evenodd;clip-rule:evenodd;fill:#A0D6E1;}
	.st154{fill-rule:evenodd;clip-rule:evenodd;fill:#00B6E8;}
	.st155{fill-rule:evenodd;clip-rule:evenodd;fill:#232938;}
	.st156{fill-rule:evenodd;clip-rule:evenodd;fill:#E5B249;}
	.st157{fill-rule:evenodd;clip-rule:evenodd;fill:#D4C2AB;}
	.st158{fill-rule:evenodd;clip-rule:evenodd;fill:#E1894A;}
	.st159{fill-rule:evenodd;clip-rule:evenodd;fill:#FFFFFF;}
	.st160{fill:#232938;}
	.st161{fill:#A9B392;}
	.st162{fill:#E5B249;}
	.st163{fill-rule:evenodd;clip-rule:evenodd;fill:#A9B392;}
	.st164{fill:#ECECEC;}
	.st165{fill:#BEC3C7;}
	.st166{fill:#DAE0E2;}
	.st167{fill:#F45A2A;}
	.st168{fill:#F67B46;}
	.st169{fill:#E73F1F;}
	.st170{fill:#E1894A;}
	.st171{fill:#0A837F;}
	.st172{fill:#1DA19F;}
	.st173{fill:#3A6B34;}
	.st174{fill:#96BCBB;}
	.st175{fill:#68858E;}
	.st176{fill:#69935F;}
	.st177{fill:#B75353;}
	.st178{fill:#E0A76E;}
	.st179{fill:#F0D1BC;}
	.st180{fill:#1D2E35;}
	.st181{fill:#272A33;}
	.st182{fill:#563B31;}
	.st183{fill:#462D23;}
	.st184{fill:#FF8D0C;}
	.st185{fill:#FFBF17;}
	.st186{fill:#FFF2EB;}
	.st187{fill:#FFD690;}
	.st188{fill:#FFE5BF;}
	.st189{fill:#F9C44E;}
	.st190{fill:#F9DCB2;}
	.st191{fill:#F9EAD7;}
	.st192{fill:#61AA6A;}
	.st193{fill:#DCD8A0;}
	.st194{fill:#F8F6D3;}
	.st195{fill:#E8E4BF;}
	.st196{fill:#F1CC5E;}
	.st197{fill:#BB8150;}
	.st198{fill:#D09059;}
	.st199{fill:#E3AA79;}
	.st200{fill:#6FC07F;}
	.st201{fill:#A56A2D;}
	.st202{fill:url(#SVGID_22_);}
	.st203{fill:#EFA68F;}
	.st204{fill:#F28B66;}
	.st205{fill-rule:evenodd;clip-rule:evenodd;fill:#999A9A;}
	.st206{fill-rule:evenodd;clip-rule:evenodd;fill:#F3C54B;}
	.st207{fill-rule:evenodd;clip-rule:evenodd;fill:#BBBABA;}
	.st208{fill-rule:evenodd;clip-rule:evenodd;fill:#009CB4;}
	.st209{fill:url(#SVGID_23_);}
	.st210{fill:#3F4E61;}
	.st211{fill:#BE6647;}
	.st212{fill:#404F5F;}
	.st213{fill:#117598;}
	.st214{opacity:0.5;fill:#FF6E86;}
</style>
<g id="Bathroom-icons">
</g>
<g id="Bathroom">
</g>
<g id="Bedroom-icons">
</g>
<g id="Bedroom">
</g>
<g id="icons">
</g>
<g id="POINTS">
	<g>
		<path class="st73" d="M142.4,314.5C63,313.6-1,246.3,0.1,167.8C1.2,94.5,63.1,24.5,147.3,26c78.2,1.5,142.4,67.8,140.6,144.2
			C290,245.9,225.5,315.5,142.4,314.5z"/>
		<path class="st74" d="M91.1,256c0-2.7,0.1-5.5,0-8.2c-0.2-3.7-1.9-4.8-5.5-4.1c-4.5,0.9-8.6,3-13,4.2c-2.3,0.7-5.1,2.2-7.1,0
			c-2.1-2.1-0.6-4.8,0.2-7.1c1.3-4.2,3-8.4,4.2-12.7c1.1-4-0.1-5.6-4.2-5.9c-4.3-0.3-8.7-0.1-13-0.1c-1.4,0-2.8,0-4.1-0.2
			c-3.2-0.6-4-2.3-2.7-5.2c1.4-3,3.6-5.5,5.7-8.1c1.8-2.2,3.6-4.4,4.9-7c1.2-2.4,0.7-4.2-1.7-5.4c-1.9-0.9-3.8-1.6-5.7-2.2
			c-3-1-6.1-1.8-9.2-2.9c-1.9-0.7-4.2-1.3-4.6-3.7c-0.4-2.6,1.7-3.8,3.4-5.2c1.8-1.4,3.8-2.6,5.7-3.9c2.4-1.6,4.8-3.1,6.9-5.1
			c2-2,2-3.9,0-5.9c-2.4-2.4-5.2-4.1-7.9-6c-2.3-1.6-4.8-3.1-6.7-5.3c-2-2.4-1.6-4,1.1-5.5c3.1-1.7,6.7-2.3,10.1-3.4
			c2.4-0.8,4.8-1.5,7.1-2.4c2.8-1.1,3.4-3.1,2-5.8c-1.5-2.9-3.6-5.3-5.5-7.8c-1.7-2.3-3.6-4.5-4.7-7.1c-1.3-3-0.4-4.5,2.8-5.2
			c3.8-0.8,7.5-0.2,11.3-0.1c2.1,0.1,4.1,0.2,6.2-0.1c4.1-0.5,5.2-2,4.1-6.1c-0.7-2.9-1.8-5.7-2.7-8.5c-0.6-2-1.4-3.9-1.9-5.9
			c-1.3-5.4,0.4-7.2,5.8-5.6c4.5,1.3,8.8,3.1,13.3,4.5c5.1,1.6,6.8,0.4,7.1-4.9c0.2-4-0.1-8,0-12c0-1.5,0.1-3,0.5-4.4
			c0.7-3,2.1-3.7,5-2.5c2.3,1,4.3,2.7,6.3,4.2c2.6,2,5.2,4.2,8,6c3.4,2.2,5.2,1.6,6.7-2c1.2-2.9,2.1-6,3.1-9.1
			c0.5-1.5,0.9-3.1,1.5-4.6c0.8-2.1,1.4-4.8,4-5.1c2.4-0.3,3.8,1.9,5,3.6c2.5,3.4,4.7,7.1,7.2,10.4c3.6,4.8,5.6,4.8,9.3,0.1
			c2.5-3.3,4.7-6.7,7.2-10c1.4-1.8,2.7-4.1,5.3-3.7c2.8,0.4,3.2,3,3.9,5.1c1.3,3.9,2.2,7.9,3.6,11.8c2,5.8,4,6.5,9,3
			c3.4-2.3,6.6-5,10-7.3c1.8-1.3,3.9-3.1,6.2-1.8c2.3,1.2,2.1,3.9,2.1,6.2c0,4.6-0.4,9.1-0.1,13.7c0.3,4.9,1.7,5.8,6.5,4.5
			c4.5-1.2,8.9-3,13.4-4.2c6-1.7,7.8,0.2,6,6.2c-1.3,4.5-3.2,8.8-4.5,13.3c-1.4,4.6-0.1,6.4,4.8,6.6c4.8,0.2,9.6-0.1,14.4,0.1
			c5.6,0.2,6.8,2.6,3.6,7.2c-2.5,3.7-5.5,7-8.1,10.7c-3.6,5.1-3.1,6.9,2.7,9c3.3,1.2,6.7,2.1,10.1,3.2c1.4,0.5,2.8,0.9,4.2,1.6
			c3.4,1.7,3.7,3.8,1,6.4c-1.6,1.5-3.4,2.7-5.1,4c-2.4,1.7-5,3.3-7.3,5.1c-4.5,3.5-4.5,5.5,0,9.1c3.6,2.8,7.5,5.2,11.1,8.1
			c4.3,3.4,3.9,6.1-1.3,8c-4.4,1.6-9,2.6-13.4,4.2c-5.2,1.8-5.8,3.8-2.8,8.4c2.5,3.7,5.4,7.1,7.9,10.8c3.4,5.1,2.2,7.6-3.9,7.9
			c-4.3,0.2-8.7-0.3-13-0.3c-6,0-7.4,1.8-5.7,7.7c1.2,3.9,2.6,7.8,3.8,11.7c0.7,2.2,1.7,4.6-0.2,6.5c-1.9,1.9-4.4,0.7-6.5,0
			c-4.1-1.3-8.1-3-12.3-4.3c-4.8-1.5-6.5-0.2-7,4.8c-0.5,5,0.6,10.1-0.1,15.1c-0.7,4.8-2.6,5.9-6.6,3.2c-3.9-2.6-7.5-5.7-11.3-8.4
			c-5.1-3.6-7-3-9.1,2.8c-1.5,4.3-2.6,8.8-4.3,13c-1.9,5-4.5,5.4-7.8,1.2c-2.8-3.6-5.2-7.6-7.9-11.2c-3.7-4.9-5.8-4.9-9.5,0
			c-2.6,3.4-4.9,7.2-7.6,10.6c-3.8,4.7-6.4,4.3-8.4-1.4c-1.5-4.3-2.5-8.8-4-13.1c-1.9-5.3-3.7-5.9-8.4-2.7
			c-3.7,2.5-7.1,5.4-10.8,7.9c-5.2,3.4-7.4,2.3-7.8-3.9c-0.1-2.3,0-4.6,0-6.9C91,256,91.1,256,91.1,256z M220.5,171
			c0-42.3-34.6-77-76.8-76.9c-42.5,0.1-77,34.6-77,77.1c0,42.7,34.7,76.7,78.1,76.7C186.1,248,220.5,213,220.5,171z"/>
		<path class="st74" d="M84.7,171c0-32.7,26.4-58.8,59.3-58.8c32.7,0,58.5,26.5,58.5,60c0,31.6-26.8,57.9-59,57.8
			C111,230,84.7,203.6,84.7,171z"/>
	</g>
</g>
<g id="Kitchen">
</g>
<g id="Livingroom-icons">
</g>
<g id="Livingroom">
</g>
</svg>
