<?xml version="1.0" encoding="utf-8"?>
<!-- Generator: Adobe Illustrator 24.3.0, SVG Export Plug-In . SVG Version: 6.00 Build 0)  -->
<svg version="1.1" id="Layer_1" xmlns="http://www.w3.org/2000/svg" xmlns:xlink="http://www.w3.org/1999/xlink" x="0px" y="0px"
	 viewBox="0 0 1920 1080" style="enable-background:new 0 0 1920 1080;" xml:space="preserve">
<style type="text/css">
	.st0{fill:#F7AAA7;}
	.st1{fill:#995E5C;}
	.st2{fill:#ED1C24;}
</style>
<image style="display:none;overflow:visible;" width="800" height="540" id="bedroom" xlink:href="bedroom.jpg"  transform="matrix(2.4 0 0 2.4 0 -84)">
</image>
<image style="display:none;overflow:visible;" width="1160" height="772" id="livingroom" xlink:href="livingroom.png"  transform="matrix(1.6529 0 0 1.6529 0 -84)">
</image>
<image style="display:none;overflow:visible;" width="1000" height="780" id="kitchen" xlink:href="kitchen.jpg"  transform="matrix(1.9182 0 0 1.9182 0 -84)">
</image>
<image style="display:none;overflow:visible;" width="626" height="400" id="bathroom" xlink:href="bathroom.jpg"  transform="matrix(3.0671 0 0 3.0671 0 -36.93)">
</image>
<image style="overflow:visible;" width="1920" height="1080" xlink:href="bathroom.png" >
</image>
<image style="overflow:visible;" width="663" height="662" id="el_3_" xlink:href="el.png"  transform="matrix(8.968174e-02 0 0 8.968174e-02 1628.0691 424.1057)">
</image>
<image style="overflow:visible;" width="662" height="662" id="light_1_" xlink:href="lys.png"  transform="matrix(0.12 0 0 0.12 1534.2358 74.2019)">
</image>
<image style="overflow:visible;" width="662" height="662" id="water_2_" xlink:href="vand.png"  transform="matrix(0.1131 0 0 0.1131 162.3161 705.518)">
</image>
<image style="overflow:visible;" width="662" height="662" id="water_3_" xlink:href="vand.png"  transform="matrix(0.1131 0 0 0.1131 1687.5281 556.2845)">
</image>
<image style="overflow:visible;" width="662" height="662" id="water_4_" xlink:href="vand.png"  transform="matrix(0.1131 0 0 0.1131 616.4625 780.3989)">
</image>
<image style="overflow:visible;" width="662" height="662" id="water_1_" xlink:href="vand.png"  transform="matrix(0.1131 0 0 0.1131 1218.2814 668.0775)">
</image>
</svg>
