<svg id="Layer_1" data-name="Layer 1" xmlns="http://www.w3.org/2000/svg" viewBox="0 0 1920 1080"><defs><style>.cls-1{fill:#91d1df;}.cls-2{fill:#76b629;}.cls-3{fill:#75b629;}</style></defs><path class="cls-1" d="M1256.26,680.54a26.21,26.21,0,1,1-26.27,25.9A26.19,26.19,0,0,1,1256.26,680.54Z"/><path d="M1269.8,710.54c0,3.68-.93,6.85-3.37,9.39a12.48,12.48,0,0,1-7.21,3.74,15.17,15.17,0,0,1-11.22-2,11.86,11.86,0,0,1-5.19-8.35,16.56,16.56,0,0,1,2.34-11.06,51.68,51.68,0,0,1,7.94-10.38c.62-.62,1.25-1.29,1.87-1.87a1.59,1.59,0,0,1,2.28-.05,54,54,0,0,1,10,12.46,19.43,19.43,0,0,1,2.39,6.69A4.41,4.41,0,0,1,1269.8,710.54Z"/><path class="cls-1" d="M1246.91,710.12c0-1.35.78-2.18,1.87-2.07a1.67,1.67,0,0,1,1.51,1.61,7.82,7.82,0,0,0,.67,3.27,5.91,5.91,0,0,0,5.09,3.47,2,2,0,0,1,.52.05,1.77,1.77,0,0,1,1.66,1.77,1.73,1.73,0,0,1-1.77,1.66,9.23,9.23,0,0,1-8.14-4.67A10,10,0,0,1,1246.91,710.12Z"/><path class="cls-1" d="M647.81,809.05A26.21,26.21,0,1,1,621.55,835,26.19,26.19,0,0,1,647.81,809.05Z"/><path d="M661.36,839.05c-.05,3.68-.94,6.85-3.38,9.39a12.48,12.48,0,0,1-7.21,3.74,15.19,15.19,0,0,1-11.21-2,11.87,11.87,0,0,1-5.19-8.36c-.68-4,.41-7.63,2.33-11.06a51.73,51.73,0,0,1,7.95-10.38c.62-.62,1.24-1.29,1.86-1.87a1.6,1.6,0,0,1,2.29,0,53.7,53.7,0,0,1,10,12.46,19,19,0,0,1,2.39,6.69A4.22,4.22,0,0,1,661.36,839.05Z"/><path class="cls-1" d="M638.47,838.63c0-1.35.78-2.18,1.87-2.07a1.66,1.66,0,0,1,1.5,1.61,8,8,0,0,0,.68,3.27,5.89,5.89,0,0,0,5.08,3.47,1.66,1.66,0,0,1,.52.06,1.75,1.75,0,0,1,1.66,1.76,1.72,1.72,0,0,1-1.76,1.66,9.24,9.24,0,0,1-8.15-4.67A10.07,10.07,0,0,1,638.47,838.63Z"/><path class="cls-1" d="M1648.71,593.86a26.21,26.21,0,1,1-26.26,25.9A26.19,26.19,0,0,1,1648.71,593.86Z"/><path d="M1662.26,623.86c0,3.68-.94,6.85-3.37,9.39a12.54,12.54,0,0,1-7.22,3.74,15.19,15.19,0,0,1-11.21-2,11.83,11.83,0,0,1-5.19-8.35,16.56,16.56,0,0,1,2.34-11.06,51.31,51.31,0,0,1,7.94-10.38c.62-.62,1.24-1.3,1.87-1.87a1.59,1.59,0,0,1,2.28,0,53.49,53.49,0,0,1,10,12.46,18.89,18.89,0,0,1,2.39,6.69A4.16,4.16,0,0,1,1662.26,623.86Z"/><path class="cls-1" d="M1639.37,623.44c0-1.35.78-2.18,1.87-2.08a1.68,1.68,0,0,1,1.5,1.61,8,8,0,0,0,.68,3.27,5.9,5.9,0,0,0,5.09,3.48,2,2,0,0,1,.51,0,1.77,1.77,0,0,1,1.67,1.77,1.74,1.74,0,0,1-1.77,1.66,9.26,9.26,0,0,1-8.15-4.67A10.09,10.09,0,0,1,1639.37,623.44Z"/><path class="cls-1" d="M199.13,706.75a26.21,26.21,0,1,1-26.26,25.9A26.19,26.19,0,0,1,199.13,706.75Z"/><path d="M212.68,736.75c-.05,3.69-.94,6.85-3.37,9.39a12.54,12.54,0,0,1-7.22,3.74,15.14,15.14,0,0,1-11.21-2,11.85,11.85,0,0,1-5.19-8.36,16.41,16.41,0,0,1,2.34-11A51,51,0,0,1,196,718.07c.62-.63,1.24-1.3,1.86-1.87a1.58,1.58,0,0,1,2.29-.05,53.44,53.44,0,0,1,10,12.45,19,19,0,0,1,2.39,6.7A4.14,4.14,0,0,1,212.68,736.75Z"/><path class="cls-1" d="M189.79,736.34c0-1.35.78-2.18,1.87-2.08a1.67,1.67,0,0,1,1.5,1.61,8,8,0,0,0,.68,3.27,5.9,5.9,0,0,0,5.08,3.48,2,2,0,0,1,.52,0,1.75,1.75,0,0,1,1.66,1.76,1.72,1.72,0,0,1-1.76,1.66,9.24,9.24,0,0,1-8.15-4.67A10.06,10.06,0,0,1,189.79,736.34Z"/><path class="cls-2" d="M349.25,82.37c14.71,0,26.67,12.71,26.62,28.34-.05,16-12.34,28.41-26.89,28.3s-26.47-12.83-26.41-28.52C322.62,95,334.59,82.37,349.25,82.37Zm-.48,37.48H353c.42,0,.85.11,1.16-.12s.05-.72.11-1.06a.44.44,0,0,1,.05-.22,11.86,11.86,0,0,1,2-4.71,35.28,35.28,0,0,0,3.06-5c1.69-3.86,2.11-7.78.37-11.76a12.06,12.06,0,0,0-21.88-.5c-1.9,3.69-1.64,7.5-.26,11.31a30.2,30.2,0,0,0,3.37,5.88,11.88,11.88,0,0,1,2.16,5.61c.05.5.21.56.63.56Zm0,4.31h4.11c1.48,0,1.43,0,1.48-1.57,0-.5-.16-.56-.58-.56h-9.07c-1.53,0-1.53,0-1.48,1.63,0,.44.16.56.53.56C345.4,124.1,347.08,124.16,348.77,124.16Zm0,2.13h-5.06c-.53,0-.58.22-.48.67a2,2,0,0,0,1.85,1.46h7.28a1.94,1.94,0,0,0,1.84-1.63c.11-.45.05-.56-.42-.56C352.15,126.29,350.46,126.29,348.77,126.29Zm0,3.19a13,13,0,0,1-1.53,0c-.53,0-.58.23-.42.62a2,2,0,0,0,3.9-.11c.1-.4.1-.56-.37-.56A7.6,7.6,0,0,1,348.72,129.48Z"/><path d="M348.77,119.85h-5c-.37,0-.58-.06-.63-.56a10.77,10.77,0,0,0-2.16-5.61,25.5,25.5,0,0,1-3.38-5.88c-1.37-3.81-1.58-7.62.27-11.31a12.06,12.06,0,0,1,21.88.5c1.74,4,1.32,7.9-.37,11.76a36.23,36.23,0,0,1-3.06,5,11.86,11.86,0,0,0-2,4.71.4.4,0,0,1-.06.22c-.05.39.16.9-.1,1.06a2.63,2.63,0,0,1-1.16.12Zm-9.49-19.11c0,.79.32,1.29.84,1.4s1.06-.39,1.16-1a7.8,7.8,0,0,1,4.59-5.93c.69-.34,1-.84.79-1.4a1.11,1.11,0,0,0-1.58-.62,9.3,9.3,0,0,0-4.32,3.75A9.41,9.41,0,0,0,339.28,100.74Z"/><path d="M348.77,124.16h-5.06c-.42,0-.53-.11-.53-.56,0-1.63-.05-1.63,1.48-1.63h9.07c.42,0,.58.12.58.57,0,1.56,0,1.56-1.48,1.56C351.51,124.16,350.14,124.16,348.77,124.16Z"/><path d="M348.77,126.29h5.06c.42,0,.53.11.42.56a2,2,0,0,1-1.84,1.62h-7.28a2,2,0,0,1-1.84-1.45c-.16-.45-.11-.68.47-.68C345.4,126.29,347.08,126.29,348.77,126.29Z"/><path d="M348.72,129.48a13.88,13.88,0,0,0,1.58,0c.47,0,.47.17.37.56a2,2,0,0,1-1.9,1.63,2.07,2.07,0,0,1-2-1.52c-.11-.44-.11-.67.42-.61S348.24,129.48,348.72,129.48Z"/><path class="cls-3" d="M339.28,100.74a10.06,10.06,0,0,1,1.48-3.81,9.54,9.54,0,0,1,4.32-3.75,1.11,1.11,0,0,1,1.58.62c.21.56-.1,1.06-.79,1.4a8,8,0,0,0-4.59,5.93,1.17,1.17,0,0,1-1.16,1C339.6,102,339.28,101.53,339.28,100.74Z"/><path class="cls-2" d="M1573.76,82.37c14.71,0,26.68,12.71,26.63,28.34-.06,16-12.34,28.41-26.9,28.3s-26.46-12.83-26.41-28.52C1547.13,95,1559.1,82.37,1573.76,82.37Zm-.48,37.48h4.27c.43,0,.85.11,1.16-.12s.06-.72.11-1.06a.44.44,0,0,1,0-.22,12,12,0,0,1,2-4.71,36.17,36.17,0,0,0,3-5c1.69-3.86,2.11-7.78.37-11.76a12.06,12.06,0,0,0-21.88-.5c-1.9,3.69-1.63,7.5-.26,11.31a30.2,30.2,0,0,0,3.37,5.88,11.78,11.78,0,0,1,2.16,5.61c.06.5.22.56.64.56Zm0,4.31h4.12c1.47,0,1.42,0,1.47-1.57,0-.5-.16-.56-.58-.56h-9.07c-1.53,0-1.53,0-1.47,1.63,0,.44.16.56.52.56C1569.91,124.1,1571.6,124.16,1573.28,124.16Zm0,2.13h-5.06c-.53,0-.58.22-.47.67a2,2,0,0,0,1.84,1.46h7.28a1.93,1.93,0,0,0,1.84-1.63c.11-.45.06-.56-.42-.56C1576.66,126.29,1575,126.29,1573.28,126.29Zm0,3.19a13,13,0,0,1-1.53,0c-.53,0-.58.23-.42.62a2,2,0,0,0,3.9-.11c.11-.4.11-.56-.37-.56A7.58,7.58,0,0,1,1573.23,129.48Z"/><path d="M1573.28,119.85h-5c-.36,0-.58-.06-.63-.56a10.68,10.68,0,0,0-2.16-5.61,25.1,25.1,0,0,1-3.37-5.88c-1.38-3.81-1.59-7.62.26-11.31a12.06,12.06,0,0,1,21.88.5c1.74,4,1.32,7.9-.37,11.76a35.28,35.28,0,0,1-3.06,5,11.86,11.86,0,0,0-2,4.71.46.46,0,0,1,0,.22c-.06.39.16.9-.11,1.06a2.62,2.62,0,0,1-1.16.12Zm-9.49-19.11c0,.79.32,1.29.85,1.4s1-.39,1.16-1a7.81,7.81,0,0,1,4.58-5.93c.69-.34,1-.84.79-1.4a1.11,1.11,0,0,0-1.58-.62,9.3,9.3,0,0,0-4.32,3.75A9.41,9.41,0,0,0,1563.79,100.74Z"/><path d="M1573.28,124.16h-5.06c-.42,0-.53-.11-.53-.56,0-1.63,0-1.63,1.48-1.63h9.07c.42,0,.58.12.58.57,0,1.56,0,1.56-1.48,1.56C1576,124.16,1574.65,124.16,1573.28,124.16Z"/><path d="M1573.28,126.29h5.07c.42,0,.52.11.42.56a2,2,0,0,1-1.85,1.62h-7.27a2,2,0,0,1-1.85-1.45c-.16-.45-.11-.68.47-.68C1569.91,126.29,1571.6,126.29,1573.28,126.29Z"/><path d="M1573.23,129.48a13.88,13.88,0,0,0,1.58,0c.48,0,.48.17.37.56a2,2,0,0,1-1.9,1.63,2.07,2.07,0,0,1-2-1.52c-.11-.44-.11-.67.42-.61S1572.76,129.48,1573.23,129.48Z"/><path class="cls-3" d="M1563.79,100.74a10.06,10.06,0,0,1,1.48-3.81,9.59,9.59,0,0,1,4.32-3.75,1.11,1.11,0,0,1,1.58.62c.22.56-.1,1.06-.79,1.4a8,8,0,0,0-4.58,5.93,1.19,1.19,0,0,1-1.16,1C1564.11,102,1563.79,101.53,1563.79,100.74Z"/></svg>