<?xml version="1.0" encoding="utf-8"?>
<!-- Generator: Adobe Illustrator 24.3.0, SVG Export Plug-In . SVG Version: 6.00 Build 0)  -->
<svg version="1.1" id="Layer_1" xmlns="http://www.w3.org/2000/svg" xmlns:xlink="http://www.w3.org/1999/xlink" x="0px" y="0px"
	 viewBox="0 0 595.3 841.9" style="enable-background:new 0 0 595.3 841.9;" xml:space="preserve">
<style type="text/css">
	.st0{fill:#FEFEFE;}
	.st1{fill:#76B629;}
	.st2{fill:#75B629;}
</style>
<g>
	<path class="st0" d="M218,421.2c0-26.1,0-52.2,0-78.3c0-0.8,0.2-1,1-1c52.3,0,104.6,0,156.9,0c0.8,0,1,0.2,1,1
		c0,52.3,0,104.6,0,156.9c0,0.8-0.2,1-1,1c-52.3,0-104.6,0-156.9,0c-0.8,0-1-0.2-1-1C218,473.6,218,447.4,218,421.2z M297.3,369.9
		c-27.9,0-50.6,22.5-50.6,50.2c0,28,22.5,50.7,50.1,50.9c27.5,0.2,50.9-21.9,51-50.5C347.9,392.5,325.2,369.9,297.3,369.9z"/>
	<path class="st1" d="M297.3,369.9c27.9,0,50.6,22.7,50.5,50.6c-0.1,28.6-23.4,50.7-51,50.5c-27.6-0.2-50.2-22.9-50.1-50.9
		C246.8,392.4,269.5,369.9,297.3,369.9z M296.4,436.8c2.7,0,5.4,0,8.1,0c0.8,0,1.6,0.2,2.2-0.2c0.5-0.3,0.1-1.3,0.2-1.9
		c0-0.1,0-0.2,0.1-0.4c0.5-3.1,2-5.8,3.8-8.4c2-2.9,4.3-5.7,5.8-8.9c3.2-6.9,4-13.9,0.7-21c-4-8.6-14.1-14.3-24.2-12.7
		c-7.6,1.2-13.6,5-17.3,11.8c-3.6,6.6-3.1,13.4-0.5,20.2c1.5,3.9,4.1,7.1,6.4,10.5c2.1,3,3.8,6.3,4.1,10c0.1,0.9,0.4,1,1.2,1
		C290,436.8,293.2,436.8,296.4,436.8z M296.4,444.5c2.6,0,5.2,0,7.8,0c2.8,0,2.7,0,2.8-2.8c0-0.9-0.3-1-1.1-1c-5.7,0-11.5,0-17.2,0
		c-2.9,0-2.9,0-2.8,2.9c0,0.8,0.3,1,1,1C290,444.4,293.2,444.5,296.4,444.5z M296.4,448.3c-3.2,0-6.4,0-9.6,0c-1,0-1.1,0.4-0.9,1.2
		c0.5,1.5,1.9,2.6,3.5,2.6c4.6,0,9.2,0,13.8,0c1.7,0,3.1-1.2,3.5-2.9c0.2-0.8,0.1-1-0.8-1C302.8,448.3,299.6,448.3,296.4,448.3z
		 M296.3,454c-1,0-1.9,0.1-2.9,0c-1-0.1-1.1,0.4-0.8,1.1c0.5,1.7,2,2.8,3.8,2.7c1.8,0,3.2-1.2,3.6-2.9c0.2-0.7,0.2-1-0.7-1
		C298.3,454.1,297.3,454,296.3,454z"/>
	<path d="M296.4,436.8c-3.2,0-6.3,0-9.5,0c-0.7,0-1.1-0.1-1.2-1c-0.2-3.8-1.9-7-4.1-10c-2.4-3.4-5-6.6-6.4-10.5
		c-2.6-6.8-3-13.6,0.5-20.2c3.7-6.8,9.7-10.6,17.3-11.8c10.1-1.5,20.3,4.1,24.2,12.7c3.3,7.1,2.5,14.1-0.7,21
		c-1.5,3.2-3.8,6-5.8,8.9c-1.8,2.6-3.3,5.3-3.8,8.4c0,0.1,0,0.2-0.1,0.4c-0.1,0.7,0.3,1.6-0.2,1.9c-0.6,0.3-1.5,0.2-2.2,0.2
		C301.8,436.8,299.1,436.8,296.4,436.8z M278.4,402.7c0,1.4,0.6,2.3,1.6,2.5c1,0.2,2-0.7,2.2-1.8c1.1-5.1,4-8.6,8.7-10.6
		c1.3-0.6,1.9-1.5,1.5-2.5c-0.5-1.2-1.7-1.6-3-1.1c-3.4,1.4-6.2,3.6-8.2,6.7C279.7,398,278.8,400.3,278.4,402.7z"/>
	<path d="M296.4,444.5c-3.2,0-6.4,0-9.6,0c-0.8,0-1-0.2-1-1c0-2.9-0.1-2.9,2.8-2.9c5.7,0,11.5,0,17.2,0c0.8,0,1.1,0.2,1.1,1
		c0,2.8,0,2.8-2.8,2.8C301.6,444.5,299,444.5,296.4,444.5z"/>
	<path d="M296.4,448.3c3.2,0,6.4,0,9.6,0c0.8,0,1,0.2,0.8,1c-0.5,1.7-1.8,2.8-3.5,2.9c-4.6,0-9.2,0-13.8,0c-1.6,0-3-1.1-3.5-2.6
		c-0.3-0.8-0.2-1.2,0.9-1.2C290,448.3,293.2,448.3,296.4,448.3z"/>
	<path d="M296.3,454c1,0,2,0.1,3,0c0.9-0.1,0.9,0.3,0.7,1c-0.4,1.7-1.8,2.9-3.6,2.9c-1.8,0-3.3-1.1-3.8-2.7
		c-0.2-0.8-0.2-1.2,0.8-1.1C294.4,454.1,295.4,454,296.3,454z"/>
	<path class="st2" d="M278.4,402.7c0.4-2.3,1.3-4.6,2.8-6.8c2.1-3.1,4.8-5.3,8.2-6.7c1.3-0.5,2.5-0.1,3,1.1c0.4,1-0.2,1.9-1.5,2.5
		c-4.7,2.1-7.6,5.6-8.7,10.6c-0.2,1.1-1.3,1.9-2.2,1.8C279,405,278.4,404.1,278.4,402.7z"/>
</g>
</svg>
