<?xml version="1.0" encoding="utf-8"?>
<!-- Generator: Adobe Illustrator 24.3.0, SVG Export Plug-In . SVG Version: 6.00 Build 0)  -->
<svg version="1.1" id="Snif_underskrift_xA0_Image_1_"
	 xmlns="http://www.w3.org/2000/svg" xmlns:xlink="http://www.w3.org/1999/xlink" x="0px" y="0px" viewBox="0 0 4032 2287"
	 style="enable-background:new 0 0 4032 2287;" xml:space="preserve">
<style type="text/css">
	.st0{fill:#FFFFFF;}
</style>
<g>
	<path class="st0" d="M2477.4,1226c-18.2,1.7-34.9,3.4-51.7,4.9c-8.3,0.7-16.6,2-24.8,1.7c-8.4-0.4-16.2,2.6-24.8,2.4
		c-17.1-0.3-34.2,1.7-51.3,3.3c-11.5,1-22.9,3.2-34.4,4.3c-13.7,1.3-27.4,1.8-41.1,3c-13.5,1.2-27.1-2.1-40.5,3.3
		c-6,2.4-9.6,6.2-10.9,11.5c-1.3,5-1.7,10.9-0.5,15.8c1.9,7.6,3.3,17.2,10.8,20.5c13.8,6.1,27.5,12.7,44.2,9.3
		c17.9-3.6,36.5-4.5,54.8-5.9c22.5-1.8,45-2.9,67.6-4.3c6.1-0.4,12.8,0.6,18.3-1.6c12.7-4.9,26.1-2.8,39-5.2
		c9.3-1.7,18.9-2.6,28.3-3.4c2.6-0.2,6.3,0.7,7.7,2.5c1.4,1.8,0.9,5.4,0.5,8.1c-0.3,1.8-2.3,3.3-2.7,5.1c-2.7,13-5.2,26-7.7,39
		c-2.2,11.6-4.6,23.1-6.4,34.7c-1.4,8.4-2.1,17-3.2,25.5c-0.2,1.6-0.7,3.2-1.3,4.7c-3.5,9.1-3.8,18.7-3.8,28.3
		c0,2.6,0.5,5.7-0.6,7.8c-4.9,9.6-4.1,20-5.5,30.1c-1.1,7.5-2.5,15-3.8,22.4c-1.4,8.1-4.5,16.3-3.9,24.2c1,14.6-5,28.1-5,42.4
		c0,6.3-1,12.6-1.7,18.8c-3.1,29.7-6.6,59.4-9.2,89.1c-1.7,19.8-2.3,39.7-3.3,59.6c-0.8,18.2-1.6,36.4-2,54.6
		c-0.4,17.3-0.4,34.6-0.7,51.9c-0.2,8.6-1.5,17.2-1,25.8c1.4,25.2,3.2,50.3,5.1,75.4c1.2,15.9,2.4,31.7,4.3,47.5
		c0.9,7.8,3.3,15.5,5.3,23.2c1.6,6,3.3,12,5.3,18c4,11.7,6.4,24.4,21.2,28.6c14.6,4.1,19.8,1.9,27.9-10.7c6.4-10,1.8-18.4-1.6-27.2
		c-3.6-9.2-9.5-17.9-11.1-27.4c-3.5-19.5-5.6-39.3-6.8-59c-2-33.3-3.1-66.7-3.9-100.1c-0.4-17.3,0.6-34.5,0.8-51.8
		c0.3-20.9,0.1-41.7,0.9-62.6c0.5-14.1,2.4-28.2,3.5-42.3c0.8-11.5,0.8-23.1,1.9-34.6c2-21,4.6-41.9,6.9-62.9
		c1.3-11.5,2-23.1,3.8-34.5c3.7-23.4,9.5-46.6,10.2-70.4c0.1-3.3-0.7-6.8,0.1-9.9c4.3-17.1,6.6-34.4,8.6-51.9
		c2.1-18.8,6-37.3,9.1-56c1.1-6.8,1.9-13.7,3.1-20.6c2.2-11.9,4.4-23.8,6.9-35.6c1-4.7,2.3-9.8,5-13.7c2.5-3.7,7.2-2.4,11.2-1.3
		c0.3,0.1,0.7,0,1-0.1c12.3-4.5,25.3-3.7,38-4.9c18.7-1.8,37.4-2.6,56.2-4c20.5-1.6,41-3.4,61.5-5.1c5.9-0.5,11.9-0.6,17.8-0.9
		c12.9-0.6,25.8-1.3,38.7-1.8c11.9-0.5,23.9-0.5,35.8-1.2c9.9-0.6,19.7-2.6,29.6-3.1c12.1-0.6,24.4,0.3,36.5-0.7
		c9.8-0.9,19.4-3.8,29.1-5.7c2.8-0.6,5.7-1.3,8.5-1.1c7.6,0.5,15.2,1.4,22-3.5c1-0.7,2.8-1.1,3.8-0.7c7.2,2.8,13.3-2.2,19.7-2.4
		c1.1-5.2,2.1-9.8,3.1-14.4c-3.3-0.8-6-1.4-9.1-2.2c2.4-3.6,4.4-6.5,7-10.4c-9-1.7-16.6-3.6-24.4-4.4c-10.7-1-21.6,0.9-31.9-3.8
		c-2.2-1-5.2-0.2-7.9,0c-5,0.4-10.1,2.1-14.8,1.4c-22.9-3.6-45.7,0.1-68.5-0.4c-24.2-0.5-48.5,0.9-72.7,1.4
		c-6.9,0.1-13.8-0.3-20.6,0.1c-12.6,0.6-25.3,2.8-37.7,2c-22.3-1.4-44.3,3.6-66.5,2.9c-1.3,0-2.6,0.6-3.9,0.6
		c-14.5,1-29.1,2.2-43.6,2.9c-5.6,0.3-7.5-2-6.6-7.2c1.2-6.5,3-12.9,4.5-19.3c1.6-6.7,4.2-13.4,4.3-20.1c0-4.4,0.2-8.2,2-12.2
		c1.6-3.6,3-7.5,3.5-11.4c1.6-15.2,8.2-29.4,8.4-44.9c0-2.5,1.5-5.1,2.2-7.6c0.9-3.1,1.6-6.3,2.6-9.4c4.1-12.1-0.8-25.9,7.4-37.3
		c0.9-1.3,0.2-3.8,0.3-5.8c0-1.9-0.3-3.9,0.2-5.8c3.1-12.4,7.6-24.5,9-37.4c0.9-8.1,4.1-15.9,6.1-23.8c2.2-8.3,4.5-16.6,6.4-25.1
		c2.6-11.9,5.9-23.9,6.7-35.9c0.5-8.3,1.1-16.2,4-24.1c2.7-7.5,3.3-15.9,7-22.7c3.7-7,4.4-14.2,6.3-21.4
		c3.8-14.3,5.9-29.1,13.7-42.2c1.5-2.5,1.9-5.6,2.8-8.4c3.4-10.7,5.7-21.9,10.4-32.1c3.1-6.6,5.5-13.4,7.8-20.2
		c2.5-7.5,4.6-15.1,7.3-22.5c2-5.6,4.8-10.9,7-16.4c5.9-14.4,12.8-28.3,20.5-41.9c7.5-13.3,15.3-26.4,22.9-39.5
		c5.1-8.9,9.8-18.1,15.3-26.7c5.3-8.4,11.4-16.3,17.1-24.4c6.4-9.2,12.4-18.7,19.1-27.6c7.3-9.7,14.5-19.7,23.1-28.1
		c5.5-5.4,12.2-9.4,15.7-16.6c0.2-0.4,1.2-0.4,1.8-0.7c8.1-3.4,14.5-8.7,20.1-15.6c3.4-4.2,8.3-7.4,12.9-10.6
		c9.1-6.4,18.6-12.3,27.7-18.7c2.7-1.9,5.1-3.9,8.1-5.5c5.6-3.1,11.6-4.5,17.4-6.8c9.2-3.6,18-8.7,27.5-10.4
		c15.2-2.8,30.8-3.5,46.3-4.8c4.9-0.4,10.5-1.2,14.8,0.5c5.4,2.1,9.1,0.3,13.3-3.2c3.6,7.7,8.8,11.1,16.6,11.5
		c3.5,0.2,6.9,3,10.3,4.8c4.6,2.5,9.2,7.6,13.6,7.4c8.1-0.2,11.1,4,14.5,9.7c1,1.7,3.6,2.5,5.4,3.8c4.1,3,8.2,6,12.9,9.5
		c0.6-0.2,2.3-0.7,2.9-0.9c4.5,5.2,8.3,9.5,12,14c1.9,2.3,3.5,4.8,5.1,7.3c3.7,6,8.1,10,15.4,6.8c3.8,6.4-3.7,7-4.5,9.4
		c2.7,6.6,4.9,12,7.2,17.5c1.8-0.4,3.7-0.9,7.2-1.7c-2.4,3.6-3.9,5.6-5.6,8.2c3.1,5,6.2,9.9,9.4,15.1c0.6,5.6,1.1,11.9,2.1,18.2
		c0.7,4.2,0.9,9.5,3.5,12.2c7.4,7.5-1.1,15.8,2.4,23.1c-5.8,4.4-4.1,10.6-4.1,16.5c7,5.5,11.3,12.6,12.7,21.3c0.5,3,1.1,5.8,4.1,5.6
		c2.1-0.1,5.3-2.3,5.7-4.1c1.8-7.4,7.6-13.1,7.8-21.3c0.2-8.5,2.6-17,3.4-25.5c1-10.5,0.5-21.3,2-31.7c1.6-11-6.6-19.8-5.7-30.5
		c0.1-1.2-1.9-2.5-2.8-3.8c-0.9-1.3-1.8-2.7-2.3-4.2c-2.3-6.4-4.2-13-6.8-19.3c-1.2-2.8-5-5.2-5-7.8c-0.3-8-5.2-13.7-9.2-19.4
		c-4-5.8-6.2-15-15.3-14.4c-1.6-4.7-2.1-9.5-4.7-12.9c-4.4-6-9.5-11.9-15.3-16.6c-10-8-20.8-14.9-31.2-22.4
		c-10.2-7.5-22.4-10.9-33.7-16.2c-12.3-5.8-25.1-9.6-38.4-11.6c-11.1-1.7-22.3-3.3-33.5-3.5c-14.9-0.3-29.6,1.6-44.3,4.8
		c-18,3.9-34.7,10.9-50.7,19.2c-12.2,6.4-23.2,15.2-34.9,22.6c-6.9,4.4-14.8,7.4-17.7,16.2c-0.3,0.9-2.2,1.6-3.4,1.8
		c-9.2,1.1-13.4,7.1-15.6,15.3c-7.8-1.3-12.2,4.3-15.7,9.3c-7,10.1-17.4,17.3-22.9,28.9c-3.1,6.5-9.8,11.4-14.7,17.1
		c-3.8,4.4-7.5,9.1-11.2,13.6c-3.5,4.3-8.3,8-10.1,12.9c-2.1,5.8-5.7,10.2-8.8,15.2c-6.2,10-12.4,20-17.7,30.5
		c-2.2,4.4-1.8,10.2-8.2,11.7c-0.6,0.1-0.6,2.5-1.2,3.6c-1.9,3.8-3.9,7.6-5.9,11.4c-6.5,11.7-14.5,22.9-19.3,35.3
		c-6.4,16.7-11.8,33.7-23,48c-0.9,1.2-1.1,3-1.6,4.5c-3.3,11-4.7,23.1-10.5,32.6c-6.8,11-7.3,23.5-12.7,34.6
		c-3,6.1-3.1,13.6-5.1,20.2c-2,6.6-0.5,14.3-6.8,19.7c-1.3,1.1-0.2,5.1-0.4,7.7c-0.2,2.2-0.1,5.1-1.4,6.5c-6.6,6.8-9,15.9-10,24.2
		c-1.2,9.3-4.3,17.7-7.3,26.2c-2.5,7.2-4.6,13.8-0.1,20.5c-9.3,11.2-13.2,24-15.7,37.5c-1.5,8.5-2.1,17.2-4.6,25.3
		c-1.9,5.9-1.2,10.1,3,14.4c-2.6,4-6.9,7.7-7.2,11.7c-0.7,8.6-3.2,16-7.6,23.2c-1.2,1.9-1.4,4.4-1.7,6.7c-1.2,8.1-2.6,16.2-3.3,24.4
		c-0.5,6.2-4.2,12.5,0.1,17.3c-3,5.9-6.4,10.6-7.9,15.8c-1.8,6.3-2.1,13-2.7,19.6c-0.6,6.4,0.7,13.2-4.6,18.4
		c2.9,9.5-3.4,17.1-5.5,25.6c-0.6,2.5-2,5.3-1.5,7.6c2.5,11,0.3,21.3-3.6,31.4c-1.2,3-2,6.2-2.5,9.4
		C2487.3,1198.7,2485,1213.4,2477.4,1226z M1004.5,637.8c17.9-1.4,29.9-6,41.2-15.2c4.4-3.5,8.2-8,13.1-10.7
		c8.9-5,14.8-12.3,19.2-20.9c6.5-13,17.1-23.5,22.2-37.3c0.3-0.9,0.9-1.8,1.6-2.5c7.9-7.8,11.2-18,14.8-28
		c3.5-9.6,6.5-19.4,9.7-29.2c1.4-4,3.6-7.8,4.3-12c2.1-11.7,4.1-23.5,5.3-35.3c0.7-6.8,0.7-13.9-0.3-20.7c-1.3-9.4-3.7-18.7-5.9-28
		c-3.1-13.2-5.2-26.7-12.8-38.5c-4.3-6.7-6.9-14.5-11.4-20.9c-5.5-7.9-12.3-14.8-18.3-22.3c-8.1-10.2-17.2-19.4-27.2-28
		c-14.5-12.4-30.5-22.2-47.4-30.7c-3.5-1.8-7.4-2.8-10.9-4.5c-7.2-3.4-14.4-6.7-21.3-10.6c-7-4-12.9-10.5-22-9.7
		c-17.3-8-35.7-12-54.4-14.5c-14.2-1.9-28.4-4.8-42.6-4.8c-25.6,0-51.6-2.3-76.4,6.8c-14.3-0.4-26.5,7.5-40.2,9.7
		c-17,2.7-31.2,13.5-47.8,18.1c-9.4,2.6-17.6,9.3-26.9,12.8c-13.6,5.1-24.8,13.9-36.4,21.9c-6.6,4.6-12.9,9.9-19.4,14.8
		c-9.4,7.2-18,15.6-26.3,24c-9.2,9.4-18.1,19.2-26.5,29.2c-9.1,10.8-18.6,21.5-26.1,33.3c-10,15.7-18.8,32.4-25.7,49.8
		c-7.5,18.8-13,38.3-16.3,58.2c-4,24-4.7,48-2.8,72.5c1.8,23.5,9.6,45.4,16,67.5c3.9,13.4,11.5,26,18.6,38.3
		c10.8,18.9,22.5,37.2,34.1,55.6c2.8,4.5,5.8,10,10.1,12.1c8.3,4.1,11.7,11.2,15.4,18.6c1.2,2.3,3.1,4.2,4.5,6.5
		c6.4,10,16.7,16.1,24.4,24.7c15.6,17.6,33,33.2,50.1,49.3c8.6,8.1,18.4,14.9,26.4,23.7c4.2,4.6,10,7.5,14.7,11.6
		c10.7,9.4,21.1,19.2,31.9,28.4c7.3,6.3,15.2,11.8,22.6,17.9c10.7,8.8,21.3,17.7,31.8,26.7c11.8,10.1,23.5,20.3,35.3,30.5
		c1.5,1.3,3.2,2.3,4.8,3.5c8.7,6.4,17.6,12.5,25.9,19.4c8.4,6.9,16.2,14.5,24.3,21.8c9.1,8.1,18.4,16,27.4,24.3
		c10.5,9.6,20.8,19.4,31,29.3c2.8,2.7,4.4,7.6,7.6,8.9c9.5,3.8,14.4,12.6,22,18.4c8,6.2,16.9,11.7,20.6,22c0.4,1.2,1.7,2,2.6,3
		c13.2,13.9,26.4,27.8,39.5,41.7c5.7,6,11.8,11.6,16.8,18.1c7.9,10.1,15.2,20.8,22.5,31.4c9.3,13.6,18.8,27,26.3,41.8
		c5.2,10.3,11.9,19.9,14.8,31.3c0.5,2.2,2.2,4.1,3.4,6.1c1.9,3.5,4.6,6.7,5.6,10.4c4.6,16.9,12.8,32.8,14.4,50.6
		c0.4,4.5,2.3,8.9,3.5,13.4c0.9,3.5,2.1,7,2.3,10.5c0.8,12.2,1.5,24.5,1.6,36.8c0.1,10.2,0.4,20.5-1.1,30.6
		c-2.4,15.7-6.6,31.1-9.2,46.8c-1.8,11.2-4.5,21.9-9.8,32.1c-5,9.6-8,20.3-13.2,29.8c-12.9,23.9-26.1,47.6-44.1,68.3
		c-6.2,7.1-10.2,16.5-17.2,22.6c-13.5,11.7-22.9,27.2-37.6,37.8c-9.3,6.7-16.9,15.7-25.8,23.1c-9.1,7.5-17.9,15.3-28.4,21.1
		c-7.1,3.9-13.5,9.2-20.1,14.1c-1.8,1.4-3,3.5-4.6,5.2c-1.5,1.7-2.9,3.7-4.7,5.1c-9.7,7.4-19.3,15.1-29.5,21.9
		c-19.3,12.7-38.9,24.9-58.5,37.3c-8.4,5.3-16.6,10.9-25.4,15.4c-18.6,9.5-37.6,18.4-56.4,27.6c-2.7,1.3-5.1,3.1-7.9,4
		c-11.6,3.8-23.1,7.7-34.9,10.8c-7,1.9-14.3,3.5-21.5,3.4c-8.6,0-17.4-1.8-23.4-9c-4.6-5.5-8.7-11.5-12.7-17.5
		c-3.6-5.6-6.5-5.8-10-0.3c-3.1,4.8-4.7,9.7-5,15.7c-0.3,5.6,1.1,10,3.1,15c3.6,9.4,10.7,15.9,16.4,23.6c2.9,3.9,5.9,8.4,10,10.7
		c4.4,2.5,10.3,2,15,4.2c10.1,4.5,20.3,3,30.5,1.5c2.6-0.4,5.3-0.5,7.9-1c7.1-1.2,14.6-1.6,21.3-3.9c14.6-4.9,28.9-10.6,43.5-15.4
		c18.1-5.9,35-15.8,52.2-24.2c2.5-1.2,4.3-5.2,6.7-5.5c11.7-1.7,20.6-8.8,30-14.9c13.1-8.4,26-17.2,38.9-25.8
		c4.4-2.9,8.7-6,12.9-9.1c3.5-2.6,6.7-5.4,10.2-7.9c15-10.8,30.5-21,45-32.4c18.4-14.5,37.1-28.8,53.1-46.3
		c13.4-14.7,28-28.2,41.6-42.8c6.3-6.8,10.8-15.4,17.4-21.8c18.3-17.9,30.3-40,42-62.1c10.5-19.9,18.4-41.2,26.9-62
		c3.7-9.1,6.8-18.6,8.7-28.3c4-19.1,7-38.4,10.4-57.6c0.2-1,0.2-2,0.2-3c-0.2-13-0.4-25.9-0.8-38.9c-0.3-7.8-0.8-15.7-1.7-23.5
		c-0.5-4.6-2.3-9-3.1-13.5c-3.3-17.8-4.8-36-12.7-52.8c-4.6-9.8-7.1-20.6-11.6-30.5c-6.8-15.1-14.4-29.8-21.9-44.5
		c-4.1-8-8.2-16-13.2-23.4c-9.5-14.3-19.4-28.5-29.7-42.2c-11.7-15.7-23-31.8-36.4-45.9c-13.6-14.4-25.7-30.3-41-43.3
		c-12.8-10.8-23.7-23.8-35.8-35.5c-7.1-6.9-15.2-12.9-22.4-19.7c-8.8-8.4-16.8-17.7-26-25.7c-19.1-16.8-38.8-33-58.2-49.5
		c-13.8-11.7-27.7-23.4-41.5-35.2c-10.9-9.2-21.6-18.6-32.6-27.7c-10.2-8.4-20.9-16.2-31-24.6c-15.5-12.8-30.9-25.8-46-39.1
		c-15.6-13.8-30.5-28.2-46.1-42c-23.2-20.5-43.8-43.5-64.5-66.4c-9.7-10.8-17.8-23-27.1-34.2c-9.5-11.6-17.6-23.9-23.8-37.7
		c-5.6-12.4-12.3-24.3-17.6-36.8c-5.8-13.7-8.8-28.2-11.2-42.9c-0.4-2.6-0.2-5.3-0.3-8c-0.1-2,0-4-0.2-6c-2.1-17.1-0.3-34.1,2.2-51
		c2.3-15.3,6.2-30.3,9.5-45.3c0.5-2.2,1.7-4.3,2.8-6.3c2-3.7,4.2-7.2,6.1-10.9c2.4-4.7,4.1-9.8,6.8-14.3c7.2-12,14.6-23.9,22.1-35.8
		c3.3-5.3,6.7-10.6,10.7-15.3c7.7-8.9,15.9-17.5,24-26.1c4.1-4.3,7.9-9.1,12.8-12.2c12.7-8.2,25.3-16.3,36.4-26.5
		c4.6-4.2,9.4-8.6,14.9-11.5c8.1-4.2,16.6-7.5,25.3-10.4c12-4,22-13.1,35.2-14.2c0.6,0,1.1-0.7,1.6-1.1c6.5-5.3,14.8-6.5,22.4-9.2
		c9.6-3.4,19.6-5.7,29.4-8.4c15-4.1,30-8,45.7-7.6c4.3,0.1,8.6-0.3,13-0.3c11.6,0.1,23.2-0.1,34.7,0.6c6.6,0.4,13,2.4,19.6,3.2
		c11.1,1.4,22.4,0.6,32.8,6.1c2.5,1.3,5.8,1,8.7,1.6c2.6,0.5,5.3,0.9,7.7,1.9c6.3,2.7,12.2,6.9,18.8,8.5c15.1,3.6,28.2,11.2,41.1,19
		c10.2,6.1,19,14.5,28.5,21.6c18.4,13.6,33.2,29.9,40.7,52c0.4,1.2,1.1,2.5,2,3.3c4.7,4.1,5.5,9.6,6.6,15.2c0.6,3.2,1.7,6.4,2.5,9.6
		c0.9,3.8,1.8,7.6,2.4,11.4c0.5,3.3,0.3,6.6,0.6,9.9c1.2,11.9,0.3,23.8-2.3,35.2c-2.6,11.5-8.1,22.4-10.6,33.9
		c-3,14-10,26.1-17.7,37.3c-5.9,8.5-9.8,17.8-15.2,26.5c-9.1,14.5-17.6,29.4-26.5,44.1c-5.7,9.4-11.7,18.5-17.4,27.9
		C1006.6,631,1006,633.8,1004.5,637.8z M2158.8,1456.4c0.8,0.5,1.6,1.1,2.4,1.6c-0.2,2.9-0.3,5.7-0.8,8.5
		c-1.4,8.8-2.9,17.5-4.5,26.3c-0.4,2.3-0.8,4.6-1.7,6.7c-3.3,6.9-6.7,13.7-10.2,20.4c-2.8,5.3-3,17.2,0.1,20c3,2.8,6.4,5.2,9.3,8.3
		c2.6,2.7,8.5,2.5,13,3.2c1.8,0.3,3.8-0.4,5.6-1.1c2.4-0.9,4.7-2,7-3.3c3.7-2,8.4-3.4,10.7-6.5c5.4-7.4,11.3-15.1,14.1-23.7
		c4.6-14,9.7-28.1,11.1-43.1c0.6-6.4,3.3-12.9,6.1-18.8c3.7-7.8,2.5-16.8,7.1-24.6c1.9-3.1,1-9.7-1.2-13
		c-3.7-5.5-7.8-11.1-11.6-16.6c-6.8-9.6-14.6-13.4-25.5-11.9c-3.7,0.5-7.4,1.9-11,3.1c-2.4,0.9-4.7,2.3-7.1,3.3
		c-7,2.9-14.1,5.5-21,8.6c-8.4,3.8-16.7,7.3-24.8,12.1c-10.4,6.2-21.9,10.6-32.6,16.5c-22,12.1-43.7,24.4-65,37.7
		c-18.8,11.7-38.2,22.5-57.6,33.1c-20.3,11.1-41,21.3-61.4,32.1c-12.7,6.7-25.9,12-40.1,14.7c-6.4,1.2-13.1,3.5-18.8-2.5
		c-0.9-0.9-3.2-1-4.7-0.8c-5.5,0.4-9.8-2-13.2-5.7c-9.9-10.9-21.1-20.4-28-34.1c-6.3-12.6-14.6-24.1-18.3-38
		c-1.7-6.3-3.3-12.9-6.2-18.7c-5.7-11.5-8.5-23.8-9.6-36.2c-2.2-22.4-3-44.9-4-67.3c-0.9-18.8-1.4-37.5-1.8-56.3
		c-0.1-4.8,0.6-9.6,1-15.8c-1.7-3-4.9-7.4-6.9-12.2c-7-17.2-21.7-19.7-37.5-19.7c-3.2,0-6.8,2.4-9.5,4.6
		c-5.4,4.2-10.2,9.3-15.5,13.5c-10.2,8.1-21.5,15-29.5,25.6c-2.1,2.8-5.3,4.8-7.8,7.4c-8.9,8.9-18.9,17.1-26.2,27.2
		c-5.8,8-13.1,14.4-19.2,21.9c-14,17.1-29,33.5-42.8,50.9c-7.8,9.8-14.9,20.2-23.5,29.4c-3.9,4.1-7.2,8.7-10.7,13.1
		c-4,4.8-8,9.5-11.9,14.4c-3.7,4.6-7.1,9.5-10.8,14.1c-8.9,11.2-17.9,22.2-26.9,33.3c-0.1-19.1,1.3-37.1,2.8-55.2
		c1.2-15.2,2.9-30.4,3.6-45.6c0.9-21.1,1.9-42.3,1.2-63.4c-0.4-11.8-0.1-23.6-3-35.5c-1.8-7.5-6.6-12.7-9.8-18.9
		c-8.6-16.8-23.1-26.7-41.9-29.8c-4.9-0.8-9.9-1.6-14.8-2c-8-0.5-16.3-2.2-23.8-0.6c-13.8,2.9-27.7,6.2-39.9,13.8
		c-4.4,2.7-5.5,5.8-2,9.2c4.7,4.6,9.7,9.1,17.3,7.8c2.2-0.4,4.7,0,6.8,0.7c17.3,6.3,34.7,12.2,52.9,15.4c4.8,0.8,7.3,3.5,9,9
		c3.5,11.1,3.3,22.2,3.1,33.4c-0.3,14.2-1.3,28.3-1.7,42.5c-0.2,9.5,0.5,19,0.2,28.5c-0.5,11.9-1.5,23.8-2.5,35.6
		c-0.9,9.9-1.3,20-3.3,29.7c-1.7,8-2.3,16.1-3,24.1c-1.2,13.9-1,27.9-2.7,41.6c-1.8,14.1-1.6,27.6,5.3,40.4c0.6,1.1,1.1,2.8,0.7,3.8
		c-2.4,6.4,3.3,10.6,6.3,11.9c9.1,3.9,18.4,9.7,28.6,6.4c2.5-3.3,4.6-6.1,6.7-8.9c3.3-4.5,8.2-8.5,9.7-13.5
		c3.3-11.2,10.8-19.8,16.2-29.6c6.7-12.1,15.3-22.8,24.3-33.5c12.5-14.8,22.7-31.3,34.6-46.6c17-21.8,34.6-43.2,51.9-64.8
		c3.9-4.8,7.2-10.1,11.1-14.8c5.5-6.6,11.2-13,17-19.3c8.8-9.7,17.3-19.8,26.9-28.7c7.7-7.1,16.2-13.3,23.5-21
		c5.1-5.4,11-11.4,20-11.7c0.4,1.8,1,3.1,1,4.3c-0.1,5.2-0.7,10.4-0.4,15.6c0.8,13.8,2.1,27.6,3.2,41.3c1,13.2,1.9,26.4,3,39.5
		c1.4,17.7,7.1,34.4,11.9,51.2c4.7,16.3,11.8,31.5,19.2,46.5c2.9,5.9,6.6,11.3,9.9,17c2.8,4.9,4.8,10.3,8.3,14.6
		c9.5,11.7,19.5,23,29.4,34.4c1.3,1.5,2.8,3.1,4.6,3.7c5.8,2.2,10.4,6.4,15.5,9.5c18.7,11.2,37.8,15.3,58.9,8.2
		c7.8-2.6,16.1-4.1,23.7-7.2c12.2-5.1,24.3-10.4,35.7-17c6.9-4,13.6-7.4,21.3-9.5c2.6-0.7,4.7-3.4,7.1-5.1c2.9-2,5.7-4.4,8.9-5.8
		c12.3-5.2,25.2-9.3,37.1-15.2c11.8-5.9,22.8-13.4,34-20.3c6.9-4.3,14.3-8.1,20.4-13.4c4.6-4,9.5-6.9,14.9-9.5
		c9.7-4.8,19.2-10,28.9-14.7C2128.9,1470.1,2143.9,1463.3,2158.8,1456.4z M2241.9,942.9c5.1-8.9,9.8-17,15.1-26.3
		c-1-2.7-3.8-6.8-3.6-10.7c0.7-11.8-10.5-18-12.3-28.4c-7.3-5.6-14.5-11.4-22.1-16.5c-2-1.3-5.8-0.8-8.4,0
		c-4.7,1.5-7.1,5.4-8.2,10.3c-1,4.1-1.4,9.3-4.1,11.9c-3.5,3.4-3.6,7.1-3.4,10.8c0.4,6.4,2.1,12.8,2.6,19.2
		c0.6,7.5,1.4,14.4,9.9,17.5c2.3,0.8,3.8,3.6,5.8,5.4c1.1,1,2.1,2.5,3.5,3C2225.2,942.1,2233.9,944.9,2241.9,942.9z"/>
	<path d="M2477.4,1226c7.6-12.6,9.9-27.3,12.1-42c0.5-3.2,1.3-6.4,2.5-9.4c3.9-10.2,6.1-20.4,3.6-31.4c-0.5-2.3,0.9-5.1,1.5-7.6
		c2.1-8.5,8.3-16,5.5-25.6c5.3-5.2,4-12,4.6-18.4c0.6-6.6,0.9-13.3,2.7-19.6c1.5-5.3,4.9-10,7.9-15.8c-4.3-4.8-0.6-11.1-0.1-17.3
		c0.7-8.2,2.1-16.3,3.3-24.4c0.3-2.3,0.6-4.8,1.7-6.7c4.4-7.2,6.9-14.7,7.6-23.2c0.3-4,4.6-7.7,7.2-11.7c-4.3-4.3-4.9-8.6-3-14.4
		c2.6-8.1,3.1-16.9,4.6-25.3c2.4-13.4,6.3-26.3,15.7-37.5c-4.4-6.7-2.4-13.4,0.1-20.5c3-8.5,6.1-16.9,7.3-26.2
		c1-8.2,3.4-17.4,10-24.2c1.3-1.3,1.1-4.2,1.4-6.5c0.2-2.6-0.9-6.6,0.4-7.7c6.3-5.4,4.8-13.1,6.8-19.7c2-6.7,2.1-14.1,5.1-20.2
		c5.5-11.1,6-23.6,12.7-34.6c5.8-9.4,7.2-21.6,10.5-32.6c0.5-1.5,0.7-3.3,1.6-4.5c11.2-14.4,16.5-31.3,23-48
		c4.8-12.4,12.8-23.5,19.3-35.3c2.1-3.7,4-7.5,5.9-11.4c0.6-1.2,0.6-3.5,1.2-3.6c6.5-1.5,6-7.3,8.2-11.7
		c5.3-10.5,11.6-20.5,17.7-30.5c3.1-5,6.6-9.5,8.8-15.2c1.8-4.9,6.6-8.6,10.1-12.9c3.7-4.5,7.3-9.2,11.2-13.6
		c4.9-5.7,11.6-10.5,14.7-17.1c5.5-11.6,15.9-18.7,22.9-28.9c3.5-5,7.9-10.6,15.7-9.3c2.2-8.2,6.4-14.2,15.6-15.3
		c1.2-0.1,3.1-0.9,3.4-1.8c2.8-8.8,10.8-11.8,17.7-16.2c11.7-7.4,22.7-16.3,34.9-22.6c16-8.3,32.7-15.2,50.7-19.2
		c14.7-3.2,29.4-5.1,44.3-4.8c11.2,0.2,22.4,1.8,33.5,3.5c13.3,2,26.1,5.8,38.4,11.6c11.3,5.3,23.4,8.7,33.7,16.2
		c10.3,7.6,21.2,14.4,31.2,22.4c5.8,4.7,10.9,10.5,15.3,16.6c2.5,3.4,3.1,8.2,4.7,12.9c9-0.6,11.3,8.6,15.3,14.4
		c3.9,5.7,8.9,11.4,9.2,19.4c0.1,2.6,3.9,5,5,7.8c2.6,6.3,4.5,12.9,6.8,19.3c0.5,1.5,1.4,2.9,2.3,4.2c0.9,1.3,2.9,2.6,2.8,3.8
		c-0.9,10.7,7.3,19.5,5.7,30.5c-1.5,10.5-1,21.2-2,31.7c-0.8,8.5-3.2,17-3.4,25.5c-0.2,8.2-5.9,13.9-7.8,21.3
		c-0.5,1.8-3.7,4-5.7,4.1c-3,0.2-3.6-2.6-4.1-5.6c-1.4-8.6-5.8-15.8-12.7-21.3c0-5.9-1.7-12.1,4.1-16.5c-3.4-7.3,5-15.7-2.4-23.1
		c-2.6-2.7-2.8-8-3.5-12.2c-1-6.3-1.5-12.6-2.1-18.2c-3.2-5.1-6.2-10-9.4-15.1c1.7-2.5,3.1-4.6,5.6-8.2c-3.5,0.8-5.5,1.3-7.2,1.7
		c-2.2-5.5-4.5-10.9-7.2-17.5c0.9-2.4,8.3-3,4.5-9.4c-7.3,3.2-11.8-0.9-15.4-6.8c-1.5-2.5-3.2-5-5.1-7.3c-3.6-4.5-7.5-8.8-12-14
		c-0.6,0.2-2.4,0.7-2.9,0.9c-4.7-3.5-8.7-6.5-12.9-9.5c-1.8-1.3-4.4-2.1-5.4-3.8c-3.3-5.6-6.4-9.9-14.5-9.7c-4.5,0.1-9-4.9-13.6-7.4
		c-3.3-1.8-6.8-4.6-10.3-4.8c-7.8-0.4-13.1-3.8-16.6-11.5c-4.2,3.5-7.9,5.3-13.3,3.2c-4.4-1.7-9.9-0.9-14.8-0.5
		c-15.5,1.3-31.1,2-46.3,4.8c-9.5,1.7-18.4,6.8-27.5,10.4c-5.8,2.2-11.7,3.7-17.4,6.8c-3,1.6-5.4,3.6-8.1,5.5
		c-9.1,6.5-18.6,12.3-27.7,18.7c-4.6,3.2-9.4,6.4-12.9,10.6c-5.6,6.9-12,12.1-20.1,15.6c-0.6,0.3-1.6,0.2-1.8,0.7
		c-3.5,7.2-10.2,11.3-15.7,16.6c-8.7,8.4-15.9,18.4-23.1,28.1c-6.7,8.9-12.7,18.4-19.1,27.6c-5.7,8.2-11.8,16-17.1,24.4
		c-5.5,8.7-10.2,17.8-15.3,26.7c-7.6,13.2-15.4,26.3-22.9,39.5c-7.6,13.6-14.6,27.5-20.5,41.9c-2.2,5.5-5,10.8-7,16.4
		c-2.7,7.4-4.7,15-7.3,22.5c-2.3,6.8-4.7,13.6-7.8,20.2c-4.7,10.1-7,21.3-10.4,32.1c-0.9,2.8-1.3,5.9-2.8,8.4
		c-7.8,13-9.9,27.9-13.7,42.2c-1.9,7.2-2.6,14.5-6.3,21.4c-3.7,6.8-4.3,15.3-7,22.7c-2.8,7.9-3.4,15.8-4,24.1
		c-0.8,12.1-4.1,24-6.7,35.9c-1.8,8.4-4.2,16.7-6.4,25.1c-2.1,7.9-5.3,15.7-6.1,23.8c-1.4,13-5.9,25-9,37.4
		c-0.5,1.8-0.1,3.8-0.2,5.8c0,2,0.7,4.5-0.3,5.8c-8.2,11.3-3.3,25.2-7.4,37.3c-1,3.1-1.7,6.3-2.6,9.4c-0.7,2.5-2.2,5.1-2.2,7.6
		c-0.2,15.5-6.8,29.7-8.4,44.9c-0.4,3.9-1.8,7.8-3.5,11.4c-1.8,4-2,7.8-2,12.2c-0.1,6.7-2.7,13.4-4.3,20.1
		c-1.5,6.4-3.3,12.8-4.5,19.3c-0.9,5.2,1,7.5,6.6,7.2c14.6-0.7,29.1-1.9,43.6-2.9c1.3-0.1,2.6-0.7,3.9-0.6
		c22.2,0.7,44.1-4.4,66.5-2.9c12.5,0.8,25.1-1.4,37.7-2c6.9-0.3,13.8,0.1,20.6-0.1c24.2-0.5,48.5-1.9,72.7-1.4
		c22.8,0.5,45.7-3.2,68.5,0.4c4.8,0.7,9.9-0.9,14.8-1.4c2.6-0.2,5.7-1,7.9,0c10.3,4.8,21.3,2.8,31.9,3.8c7.8,0.7,15.4,2.7,24.4,4.4
		c-2.6,3.9-4.5,6.7-7,10.4c3.1,0.7,5.8,1.4,9.1,2.2c-1,4.6-2,9.2-3.1,14.4c-6.5,0.2-12.5,5.2-19.7,2.4c-1-0.4-2.8,0-3.8,0.7
		c-6.8,4.9-14.4,4-22,3.5c-2.8-0.2-5.7,0.5-8.5,1.1c-9.7,1.9-19.3,4.8-29.1,5.7c-12.1,1.1-24.3,0.1-36.5,0.7
		c-9.9,0.5-19.7,2.5-29.6,3.1c-11.9,0.8-23.9,0.8-35.8,1.2c-12.9,0.5-25.8,1.2-38.7,1.8c-5.9,0.3-11.9,0.4-17.8,0.9
		c-20.5,1.6-41,3.5-61.5,5.1c-18.7,1.4-37.5,2.2-56.2,4c-12.7,1.2-25.7,0.5-38,4.9c-0.3,0.1-0.7,0.2-1,0.1c-4-1-8.7-2.3-11.2,1.3
		c-2.6,3.9-3.9,9-5,13.7c-2.6,11.8-4.8,23.7-6.9,35.6c-1.2,6.8-2,13.7-3.1,20.6c-3.1,18.6-7,37.2-9.1,56
		c-1.9,17.5-4.3,34.8-8.6,51.9c-0.8,3.1,0,6.6-0.1,9.9c-0.7,23.9-6.5,47-10.2,70.4c-1.8,11.4-2.5,23-3.8,34.5
		c-2.3,21-4.9,41.9-6.9,62.9c-1.1,11.5-1.1,23.1-1.9,34.6c-1,14.1-2.9,28.2-3.5,42.3c-0.8,20.8-0.6,41.7-0.9,62.6
		c-0.3,17.3-1.3,34.6-0.8,51.8c0.8,33.4,1.9,66.8,3.9,100.1c1.2,19.7,3.4,39.5,6.8,59c1.7,9.5,7.6,18.2,11.1,27.4
		c3.4,8.8,8,17.3,1.6,27.2c-8.1,12.6-13.3,14.8-27.9,10.7c-14.7-4.2-17.2-16.9-21.2-28.6c-2-5.9-3.8-11.9-5.3-18
		c-2-7.7-4.4-15.4-5.3-23.2c-1.9-15.8-3.1-31.7-4.3-47.5c-1.9-25.1-3.8-50.3-5.1-75.4c-0.5-8.6,0.8-17.2,1-25.8
		c0.3-17.3,0.3-34.6,0.7-51.9c0.5-18.2,1.2-36.4,2-54.6c0.9-19.9,1.5-39.8,3.3-59.6c2.6-29.7,6.1-59.4,9.2-89.1
		c0.7-6.3,1.7-12.6,1.7-18.8c-0.1-14.3,6-27.8,5-42.4c-0.6-7.9,2.5-16.1,3.9-24.2c1.3-7.5,2.7-14.9,3.8-22.4
		c1.4-10.1,0.6-20.6,5.5-30.1c1.1-2.1,0.5-5.2,0.6-7.8c0.1-9.6,0.3-19.2,3.8-28.3c0.6-1.5,1.1-3.1,1.3-4.7c1.1-8.5,1.8-17,3.2-25.5
		c1.9-11.6,4.2-23.2,6.4-34.7c2.5-13,5-26,7.7-39c0.4-1.8,2.4-3.3,2.7-5.1c0.4-2.7,0.9-6.3-0.5-8.1c-1.4-1.8-5.1-2.7-7.7-2.5
		c-9.5,0.8-19,1.7-28.3,3.4c-12.9,2.4-26.2,0.3-39,5.2c-5.5,2.1-12.2,1.2-18.3,1.6c-22.5,1.4-45.1,2.6-67.6,4.3
		c-18.3,1.4-36.9,2.3-54.8,5.9c-16.7,3.4-30.4-3.2-44.2-9.3c-7.6-3.4-9-12.9-10.8-20.5c-1.2-5-0.8-10.8,0.5-15.8
		c1.4-5.3,5-9.1,10.9-11.5c13.3-5.4,27-2.1,40.5-3.3c13.7-1.2,27.4-1.7,41.1-3c11.5-1.1,22.9-3.3,34.4-4.3
		c17.1-1.5,34.2-3.6,51.3-3.3c8.5,0.1,16.3-2.8,24.8-2.4c8.2,0.3,16.6-0.9,24.8-1.7C2442.5,1229.3,2459.3,1227.7,2477.4,1226z
		 M3122.1,613.3c3.3-0.5,5.5-2,3.5-6.5C3124.1,609.7,3123.1,611.5,3122.1,613.3z M2820.4,441.5c0.4-0.1,0.8-0.2,1.2-0.3
		c-0.4-2.3-0.8-4.6-1.1-6.9c-0.7,0.2-1.3,0.3-2,0.5C2819.1,437,2819.7,439.2,2820.4,441.5z M3122.2,583.7c0,0.4,0,0.8,0,1.2
		c1.8,0,3.7,0,5.5,0c0-0.4,0-0.8,0-1.2C3125.9,583.7,3124,583.7,3122.2,583.7z M2774.4,483.1c-1-0.5-2-1.3-2.3-1.1
		c-0.6,0.5-1.2,1.5-1.3,2.3c0,0.5,1.1,0.9,1.7,1.4C2773.2,484.9,2773.7,484.2,2774.4,483.1z"/>
	<path d="M1004.5,637.8c1.5-3.9,2-6.8,3.5-9.1c5.7-9.4,11.7-18.5,17.4-27.9c8.9-14.7,17.4-29.6,26.5-44.1c5.4-8.6,9.4-18,15.2-26.5
		c7.7-11.2,14.7-23.3,17.7-37.3c2.5-11.5,8-22.4,10.6-33.9c2.6-11.5,3.5-23.4,2.3-35.2c-0.3-3.3-0.2-6.6-0.6-9.9
		c-0.6-3.8-1.5-7.6-2.4-11.4c-0.8-3.2-1.9-6.4-2.5-9.6c-1-5.6-1.9-11.2-6.6-15.2c-0.9-0.8-1.6-2.1-2-3.3
		c-7.4-22.1-22.3-38.4-40.7-52c-9.6-7.1-18.4-15.5-28.5-21.6c-12.9-7.7-26-15.4-41.1-19c-6.6-1.6-12.5-5.7-18.8-8.5
		c-2.4-1-5.1-1.4-7.7-1.9c-2.9-0.6-6.2-0.3-8.7-1.6c-10.4-5.4-21.7-4.7-32.8-6.1c-6.6-0.8-13-2.9-19.6-3.2
		c-11.6-0.7-23.2-0.5-34.7-0.6c-4.3,0-8.6,0.4-13,0.3c-15.7-0.4-30.7,3.5-45.7,7.6c-9.8,2.7-19.8,5-29.4,8.4
		c-7.6,2.7-15.8,3.9-22.4,9.2c-0.5,0.4-1,1-1.6,1.1c-13.2,1.1-23.2,10.2-35.2,14.2c-8.6,2.9-17.2,6.2-25.3,10.4
		c-5.5,2.8-10.3,7.2-14.9,11.5c-11.1,10.3-23.8,18.4-36.4,26.5c-4.9,3.1-8.7,7.9-12.8,12.2c-8.1,8.6-16.3,17.2-24,26.1
		c-4.1,4.7-7.4,10-10.7,15.3c-7.5,11.8-14.9,23.7-22.1,35.8c-2.7,4.5-4.4,9.6-6.8,14.3c-1.9,3.7-4.1,7.3-6.1,10.9
		c-1.1,2-2.3,4.1-2.8,6.3c-3.3,15.1-7.2,30.1-9.5,45.3c-2.5,16.8-4.3,33.8-2.2,51c0.2,2,0.2,4,0.2,6c0.1,2.7-0.2,5.4,0.3,8
		c2.4,14.6,5.4,29.2,11.2,42.9c5.3,12.5,12.1,24.4,17.6,36.8c6.2,13.7,14.2,26.1,23.8,37.7c9.2,11.2,17.4,23.4,27.1,34.2
		c20.6,22.9,41.2,45.9,64.5,66.4c15.6,13.7,30.5,28.2,46.1,42c15.1,13.3,30.5,26.2,46,39.1c10.2,8.4,20.8,16.2,31,24.6
		c11,9.1,21.7,18.5,32.6,27.7c13.8,11.7,27.7,23.4,41.5,35.2c19.4,16.5,39.1,32.7,58.2,49.5c9.1,8,17.1,17.3,26,25.7
		c7.2,6.8,15.2,12.8,22.4,19.7c12.1,11.7,23,24.7,35.8,35.5c15.3,13,27.4,28.8,41,43.3c13.3,14.2,24.7,30.3,36.4,45.9
		c10.3,13.8,20.1,27.9,29.7,42.2c5,7.4,9.1,15.4,13.2,23.4c7.5,14.7,15.1,29.5,21.9,44.5c4.5,9.9,7,20.7,11.6,30.5
		c7.9,16.8,9.4,35,12.7,52.8c0.8,4.6,2.6,9,3.1,13.5c0.9,7.8,1.4,15.6,1.7,23.5c0.5,12.9,0.6,25.9,0.8,38.9c0,1,0,2-0.2,3
		c-3.4,19.2-6.4,38.5-10.4,57.6c-2,9.6-5,19.2-8.7,28.3c-8.5,20.9-16.4,42.2-26.9,62c-11.7,22.1-23.7,44.2-42,62.1
		c-6.6,6.4-11,15-17.4,21.8c-13.6,14.5-28.2,28.1-41.6,42.8c-16,17.5-34.7,31.8-53.1,46.3c-14.5,11.4-30,21.6-45,32.4
		c-3.5,2.5-6.7,5.4-10.2,7.9c-4.2,3.1-8.5,6.2-12.9,9.1c-12.9,8.7-25.8,17.4-38.9,25.8c-9.4,6.1-18.3,13.1-30,14.9
		c-2.4,0.4-4.1,4.3-6.7,5.5c-17.3,8.4-34.1,18.3-52.2,24.2c-14.7,4.8-29,10.5-43.5,15.4c-6.8,2.3-14.2,2.7-21.3,3.9
		c-2.6,0.4-5.3,0.6-7.9,1c-10.3,1.5-20.4,3-30.5-1.5c-4.7-2.1-10.7-1.6-15-4.2c-4.1-2.3-7-6.8-10-10.7c-5.7-7.7-12.8-14.2-16.4-23.6
		c-1.9-5.1-3.4-9.4-3.1-15c0.3-6,1.8-10.8,5-15.7c3.6-5.5,6.4-5.3,10,0.3c3.9,6,8.1,12,12.7,17.5c6,7.2,14.8,9,23.4,9
		c7.2,0,14.5-1.6,21.5-3.4c11.7-3.2,23.3-7,34.9-10.8c2.8-0.9,5.2-2.7,7.9-4c18.8-9.2,37.8-18.1,56.4-27.6
		c8.8-4.5,17-10.1,25.4-15.4c19.6-12.3,39.2-24.5,58.5-37.3c10.2-6.7,19.7-14.4,29.5-21.9c1.8-1.4,3.2-3.4,4.7-5.1
		c1.5-1.7,2.7-3.9,4.6-5.2c6.6-4.9,13-10.2,20.1-14.1c10.5-5.8,19.4-13.6,28.4-21.1c8.9-7.3,16.5-16.4,25.8-23.1
		c14.7-10.6,24.1-26.1,37.6-37.8c7-6.1,11-15.4,17.2-22.6c18-20.7,31.2-44.4,44.1-68.3c5.2-9.5,8.2-20.2,13.2-29.8
		c5.3-10.2,8-20.8,9.8-32.1c2.5-15.7,6.8-31.1,9.2-46.8c1.5-10,1.2-20.4,1.1-30.6c-0.1-12.3-0.8-24.5-1.6-36.8
		c-0.2-3.6-1.5-7.1-2.3-10.5c-1.1-4.5-3.1-8.9-3.5-13.4c-1.6-17.8-9.9-33.7-14.4-50.6c-1-3.7-3.7-7-5.6-10.4c-1.1-2-2.8-3.9-3.4-6.1
		c-2.9-11.4-9.6-21-14.8-31.3c-7.5-14.8-17-28.2-26.3-41.8c-7.3-10.6-14.6-21.2-22.5-31.4c-5-6.5-11.1-12.1-16.8-18.1
		c-13.2-13.9-26.4-27.8-39.5-41.7c-0.9-1-2.2-1.8-2.6-3c-3.7-10.3-12.5-15.8-20.6-22c-7.5-5.8-12.4-14.6-22-18.4
		c-3.2-1.3-4.8-6.2-7.6-8.9c-10.2-9.9-20.5-19.7-31-29.3c-9-8.2-18.3-16.1-27.4-24.3c-8.1-7.2-15.9-14.9-24.3-21.8
		c-8.3-6.8-17.3-13-25.9-19.4c-1.6-1.2-3.3-2.2-4.8-3.5c-11.8-10.1-23.5-20.4-35.3-30.5c-10.5-9-21.1-17.9-31.8-26.7
		c-7.4-6.1-15.3-11.6-22.6-17.9c-10.8-9.3-21.2-19.1-31.9-28.4c-4.7-4.1-10.6-7.1-14.7-11.6c-8-8.8-17.8-15.6-26.4-23.7
		c-17.1-16.1-34.5-31.7-50.1-49.3c-7.7-8.6-18.1-14.7-24.4-24.7c-1.4-2.2-3.3-4.1-4.5-6.5c-3.7-7.4-7.1-14.4-15.4-18.6
		c-4.3-2.1-7.3-7.6-10.1-12.1c-11.6-18.4-23.3-36.8-34.1-55.6c-7.1-12.3-14.6-24.8-18.6-38.3c-6.5-22.1-14.2-43.9-16-67.5
		c-1.9-24.4-1.2-48.5,2.8-72.5c3.3-19.9,8.8-39.4,16.3-58.2c7-17.4,15.7-34.1,25.7-49.8c7.6-11.8,17-22.5,26.1-33.3
		c8.5-10.1,17.3-19.8,26.5-29.2c8.3-8.5,16.9-16.8,26.3-24c6.5-5,12.8-10.2,19.4-14.8c11.6-8.1,22.8-16.8,36.4-21.9
		c9.2-3.5,17.4-10.2,26.9-12.8c16.6-4.6,30.8-15.3,47.8-18.1c13.7-2.2,26-10.1,40.2-9.7c24.9-9.1,50.8-6.9,76.4-6.8
		c14.2,0,28.4,2.9,42.6,4.8c18.7,2.5,37.1,6.5,54.4,14.5c9.2-0.9,15,5.7,22,9.7c6.9,3.9,14.1,7.2,21.3,10.6
		c3.6,1.7,7.4,2.8,10.9,4.5c16.9,8.5,32.8,18.3,47.4,30.7c10,8.6,19.1,17.7,27.2,28c6,7.5,12.8,14.5,18.3,22.3
		c4.5,6.5,7.1,14.3,11.4,20.9c7.6,11.8,9.7,25.3,12.8,38.5c2.2,9.3,4.5,18.6,5.9,28c1,6.8,1,13.9,0.3,20.7
		c-1.3,11.8-3.2,23.6-5.3,35.3c-0.7,4.1-3,7.9-4.3,12c-3.3,9.7-6.2,19.5-9.7,29.2c-3.6,10-6.9,20.2-14.8,28
		c-0.7,0.7-1.3,1.6-1.6,2.5c-5.1,13.8-15.7,24.3-22.2,37.3c-4.4,8.7-10.3,16-19.2,20.9c-4.8,2.7-8.7,7.1-13.1,10.7
		C1034.5,631.7,1022.4,636.3,1004.5,637.8z"/>
	<path d="M2158.8,1456.4c-14.9,6.9-29.8,13.6-44.6,20.7c-9.7,4.7-19.2,9.9-28.9,14.7c-5.3,2.6-10.3,5.5-14.9,9.5
		c-6.1,5.3-13.5,9.1-20.4,13.4c-11.3,6.9-22.2,14.4-34,20.3c-12,5.9-24.8,10-37.1,15.2c-3.2,1.3-6,3.8-8.9,5.8
		c-2.4,1.7-4.5,4.4-7.1,5.1c-7.6,2.1-14.4,5.5-21.3,9.5c-11.4,6.6-23.5,11.9-35.7,17c-7.6,3.2-15.9,4.6-23.7,7.2
		c-21.1,7.1-40.1,3-58.9-8.2c-5.2-3.1-9.7-7.3-15.5-9.5c-1.8-0.7-3.3-2.3-4.6-3.7c-9.9-11.4-19.9-22.7-29.4-34.4
		c-3.5-4.3-5.5-9.8-8.3-14.6c-3.2-5.7-7-11.1-9.9-17c-7.4-15.1-14.6-30.3-19.2-46.5c-4.9-16.9-10.5-33.6-11.9-51.2
		c-1.1-13.2-2-26.4-3-39.5c-1.1-13.8-2.3-27.5-3.2-41.3c-0.3-5.2,0.3-10.4,0.4-15.6c0-1.3-0.6-2.5-1-4.3c-9,0.3-14.9,6.3-20,11.7
		c-7.3,7.7-15.8,13.9-23.5,21c-9.6,8.9-18.1,19-26.9,28.7c-5.8,6.3-11.5,12.7-17,19.3c-3.9,4.7-7.3,10-11.1,14.8
		c-17.3,21.6-34.9,43-51.9,64.8c-11.9,15.3-22.2,31.9-34.6,46.6c-9,10.6-17.7,21.4-24.3,33.5c-5.4,9.8-12.9,18.4-16.2,29.6
		c-1.5,5-6.3,9.1-9.7,13.5c-2.1,2.8-4.2,5.6-6.7,8.9c-10.3,3.3-19.5-2.5-28.6-6.4c-3-1.3-8.7-5.5-6.3-11.9c0.4-1-0.1-2.7-0.7-3.8
		c-6.9-12.8-7.1-26.2-5.3-40.4c1.8-13.8,1.6-27.8,2.7-41.6c0.7-8.1,1.3-16.1,3-24.1c2-9.7,2.4-19.8,3.3-29.7
		c1-11.9,2.1-23.7,2.5-35.6c0.4-9.5-0.4-19-0.2-28.5c0.4-14.2,1.4-28.3,1.7-42.5c0.2-11.2,0.4-22.3-3.1-33.4c-1.7-5.4-4.2-8.1-9-9
		c-18.2-3.1-35.6-9-52.9-15.4c-2.1-0.8-4.6-1.1-6.8-0.7c-7.6,1.3-12.6-3.1-17.3-7.8c-3.5-3.5-2.4-6.5,2-9.2
		c12.3-7.6,26.2-10.9,39.9-13.8c7.6-1.6,15.9,0.1,23.8,0.6c5,0.3,9.9,1.1,14.8,2c18.8,3.1,33.3,13,41.9,29.8
		c3.2,6.2,8,11.4,9.8,18.9c2.9,11.9,2.7,23.8,3,35.5c0.7,21.1-0.3,42.3-1.2,63.4c-0.7,15.2-2.4,30.4-3.6,45.6
		c-1.5,18.1-2.9,36.1-2.8,55.2c9-11.1,18-22.2,26.9-33.3c3.7-4.6,7.1-9.5,10.8-14.1c3.9-4.9,8-9.6,11.9-14.4
		c3.6-4.4,6.9-9,10.7-13.1c8.6-9.2,15.7-19.5,23.5-29.4c13.7-17.4,28.8-33.7,42.8-50.9c6.1-7.5,13.4-13.9,19.2-21.9
		c7.3-10.1,17.3-18.2,26.2-27.2c2.5-2.5,5.7-4.6,7.8-7.4c8.1-10.7,19.3-17.5,29.5-25.6c5.4-4.3,10.1-9.3,15.5-13.5
		c2.8-2.2,6.3-4.6,9.5-4.6c15.7,0,30.4,2.5,37.5,19.7c2,4.8,5.2,9.2,6.9,12.2c-0.4,6.3-1.1,11.1-1,15.8c0.5,18.8,0.9,37.6,1.8,56.3
		c1,22.5,1.9,45,4,67.3c1.2,12.4,4,24.7,9.6,36.2c2.9,5.8,4.5,12.4,6.2,18.7c3.7,13.9,12,25.4,18.3,38c6.9,13.8,18.1,23.3,28,34.1
		c3.4,3.8,7.8,6.1,13.2,5.7c1.6-0.1,3.8-0.1,4.7,0.8c5.7,6,12.3,3.7,18.8,2.5c14.1-2.7,27.3-8,40.1-14.7
		c20.4-10.8,41.1-21.1,61.4-32.1c19.5-10.6,38.9-21.4,57.6-33.1c21.3-13.3,43-25.6,65-37.7c10.8-5.9,22.2-10.3,32.6-16.5
		c8.1-4.8,16.4-8.3,24.8-12.1c6.9-3.1,14-5.7,21-8.6c2.4-1,4.6-2.5,7.1-3.3c3.6-1.3,7.2-2.6,11-3.1c11-1.5,18.8,2.3,25.5,11.9
		c3.8,5.4,7.9,11,11.6,16.6c2.2,3.3,3,9.8,1.2,13c-4.6,7.8-3.3,16.7-7.1,24.6c-2.8,5.9-5.6,12.4-6.1,18.8
		c-1.4,15.1-6.5,29.1-11.1,43.1c-2.8,8.5-8.6,16.3-14.1,23.7c-2.3,3.1-7,4.5-10.7,6.5c-2.2,1.2-4.6,2.4-7,3.3
		c-1.8,0.7-3.8,1.3-5.6,1.1c-4.5-0.7-10.5-0.4-13-3.2c-2.9-3.1-6.3-5.5-9.3-8.3c-3.1-2.8-2.8-14.7-0.1-20c3.5-6.7,7-13.5,10.2-20.4
		c1-2,1.3-4.4,1.7-6.7c1.6-8.7,3.1-17.5,4.5-26.3c0.5-2.8,0.5-5.7,0.8-8.5C2160.3,1457.5,2159.6,1457,2158.8,1456.4z"/>
	<path d="M2241.9,942.9c-8,2-16.7-0.8-25.2-3.9c-1.3-0.5-2.4-1.9-3.5-3c-1.9-1.8-3.5-4.5-5.8-5.4c-8.5-3.1-9.3-10-9.9-17.5
		c-0.5-6.4-2.2-12.8-2.6-19.2c-0.3-3.7-0.1-7.3,3.4-10.8c2.7-2.6,3.2-7.8,4.1-11.9c1.1-4.9,3.5-8.7,8.2-10.3c2.6-0.8,6.4-1.3,8.4,0
		c7.7,5.1,14.8,10.9,22.1,16.5c1.8,10.4,13,16.6,12.3,28.4c-0.2,3.9,2.6,8,3.6,10.7C2251.6,925.9,2247,934,2241.9,942.9z"/>
	<path class="st0" d="M3122.1,613.3c1-1.8,2-3.7,3.5-6.5C3127.6,611.3,3125.4,612.8,3122.1,613.3z"/>
	<path class="st0" d="M2820.4,441.5c-0.6-2.3-1.3-4.5-1.9-6.8c0.7-0.2,1.3-0.3,2-0.5c0.4,2.3,0.8,4.6,1.1,6.9
		C2821.2,441.3,2820.8,441.4,2820.4,441.5z"/>
	<path class="st0" d="M3122.2,583.7c1.8,0,3.7,0,5.5,0c0,0.4,0,0.8,0,1.2c-1.8,0-3.7,0-5.5,0
		C3122.2,584.5,3122.2,584.1,3122.2,583.7z"/>
	<path class="st0" d="M2774.4,483.1c-0.8,1.1-1.3,1.8-1.8,2.5c-0.6-0.5-1.8-1-1.7-1.4c0-0.8,0.6-1.7,1.3-2.3
		C2772.4,481.8,2773.5,482.6,2774.4,483.1z"/>
</g>
</svg>
