<?xml version="1.0" encoding="utf-8"?>
<!-- Generator: Adobe Illustrator 24.3.0, SVG Export Plug-In . SVG Version: 6.00 Build 0)  -->
<svg version="1.1" id="Layer_1" xmlns="http://www.w3.org/2000/svg" xmlns:xlink="http://www.w3.org/1999/xlink" x="0px" y="0px"
	 viewBox="0 0 595.3 841.9" style="enable-background:new 0 0 595.3 841.9;" xml:space="preserve">
<style type="text/css">
	.st0{fill:#FEFEFE;}
	.st1{fill:#FAB923;}
</style>
<path class="st0" d="M226.9,271.2c0-52.6,0-105.2,0-157.8c0-0.9,0.2-1.1,1.1-1.1c52.3,0,104.6,0,156.9,0c0.9,0,1.1,0.2,1.1,1.1
	c0,52.2,0,104.5,0,156.7c0,0.9-0.2,1.1-1.1,1.1C332.2,271.2,279.6,271.2,226.9,271.2z M307.5,139.4c-27.6,0-50.1,22-50.6,49.6
	c-0.5,28.4,22.2,51.1,49.9,51.5c28.4,0.3,50.8-22.3,51.2-49.6C358.4,162.3,335.4,139.4,307.5,139.4z"/>
<path class="st1" d="M307.5,139.4c27.9,0,51,22.9,50.5,51.5c-0.5,27.3-22.9,50-51.2,49.6c-27.7-0.3-50.4-23.1-49.9-51.5
	C257.3,161.5,279.9,139.4,307.5,139.4z M311.9,167.2c0-3.7,0-7.3,0-11c0-2.4-1.3-4.1-3.4-4.6c-2.2-0.5-4.1,0.4-5.2,2.6
	c-6.5,13.3-13,26.7-19.5,40c-1.9,3.8,0.1,7.1,4.4,7.1c4.5,0,9,0,13.5,0c0.9,0,1.2,0.2,1.2,1.2c0,7.1,0,14.3,0,21.4
	c0,0.6,0,1.1,0.1,1.7c0.4,2.4,2.4,4,4.8,3.8c2-0.2,3.1-1.5,4-3.2c6.4-13.2,12.8-26.4,19.3-39.7c1.7-3.5-0.3-6.9-4.2-6.9
	c-4.6,0-9.1,0-13.7,0c-1.2,0-1.4-0.4-1.3-1.4C311.9,174.6,311.9,170.9,311.9,167.2z"/>
<path d="M311.9,167.2c0,3.7,0,7.3,0,11c0,1,0.2,1.4,1.3,1.4c4.5-0.1,9.1,0,13.7,0c3.9,0,5.9,3.3,4.2,6.9
	c-6.4,13.2-12.9,26.4-19.3,39.7c-0.8,1.7-1.9,3-4,3.2c-2.4,0.2-4.5-1.4-4.8-3.8c-0.1-0.5-0.1-1.1-0.1-1.7c0-7.1,0-14.3,0-21.4
	c0-1-0.3-1.2-1.2-1.2c-4.5,0-9,0-13.5,0c-4.3,0-6.2-3.3-4.4-7.1c6.5-13.3,13-26.6,19.5-40c1.1-2.2,3-3.1,5.2-2.6
	c2.1,0.5,3.4,2.2,3.4,4.6C311.9,159.9,311.9,163.5,311.9,167.2z"/>
</svg>
