<?xml version="1.0" encoding="utf-8"?>
<!-- Generator: Adobe Illustrator 24.3.0, SVG Export Plug-In . SVG Version: 6.00 Build 0)  -->
<svg version="1.1" id="Layer_1" xmlns="http://www.w3.org/2000/svg" xmlns:xlink="http://www.w3.org/1999/xlink" x="0px" y="0px"
	 viewBox="0 0 595.3 841.9" style="enable-background:new 0 0 595.3 841.9;" xml:space="preserve">
<style type="text/css">
	.st0{fill:#FEFEFE;}
	.st1{fill:#91D1DF;}
</style>
<g>
	<path class="st0" d="M376.9,421.3c0,26.2,0,52.3,0,78.5c0,0.8-0.2,1-1,1c-52.3,0-104.6,0-156.9,0c-0.8,0-1-0.2-1-1
		c0-52.3,0-104.6,0-156.9c0-0.8,0.2-1,1-1c52.3,0,104.6,0,156.9,0c0.8,0,1,0.2,1,1C376.9,369,376.9,395.2,376.9,421.3z"/>
	<path class="st1" d="M297.4,369.9c27.3-0.4,51.1,22.6,50.5,51.5c-0.5,26.8-22.9,49.8-51.2,49.5c-26.7-0.3-50.2-22.1-49.9-51.1
		C247.1,391.9,270.1,369.6,297.4,369.9z"/>
	<path d="M323.5,427.7c-0.1,7.1-1.8,13.2-6.5,18.1c-3.8,4-8.5,6.3-13.9,7.2c-7.7,1.3-15,0.4-21.6-3.9c-5.8-3.8-8.8-9.3-10-16.1
		c-1.3-7.7,0.8-14.7,4.5-21.3c4.1-7.4,9.5-13.9,15.3-20c1.2-1.2,2.4-2.5,3.6-3.6c1.3-1.3,3.1-1.3,4.4-0.1c7.4,7.2,14.2,14.9,19.2,24
		c2.2,4,4,8.3,4.6,12.9C323.5,426,323.5,427.1,323.5,427.7z"/>
	<path class="st1" d="M279.4,426.9c0-2.6,1.5-4.2,3.6-4c1.6,0.2,2.8,1.4,2.9,3.1c0.1,2.2,0.3,4.3,1.3,6.3c2,4.1,5.3,6.3,9.8,6.7
		c0.3,0,0.6,0,1,0.1c1.9,0.2,3.2,1.6,3.2,3.4c-0.1,1.8-1.5,3.2-3.4,3.2c-6.8-0.2-12.2-3.1-15.7-9
		C280.3,433.7,279.4,430.2,279.4,426.9z"/>
</g>
</svg>
