<?xml version="1.0" encoding="utf-8"?>
<!-- Generator: Adobe Illustrator 24.3.0, SVG Export Plug-In . SVG Version: 6.00 Build 0)  -->
<svg version="1.1" id="Layer_1" xmlns="http://www.w3.org/2000/svg" xmlns:xlink="http://www.w3.org/1999/xlink" x="0px" y="0px"
	 viewBox="0 0 66.7 84.3" style="enable-background:new 0 0 66.7 84.3;" xml:space="preserve">
<style type="text/css">
	.st0{fill:#FFFFFF;}
	.st1{fill:#F07E31;}
	.st2{fill:#FAC18A;}
	.st3{fill:#6A471E;}
	.st4{fill:#CCCCCC;}
</style>
<g>
	<path class="st0" d="M7.6,22.4l0.6,13l-6,13L5,51.6l-4,8.5l4.1,3L5.9,70c0,0,3,7.7,3.4,8c0.4,0.3,9.3,6.3,9.3,6.3L31,83.5l4.2-1.8
		l4.9-1.5l3.3-1.2c0,0-1.8-4.1-1.3-4c0.6,0.1,5.8,0,5.8,0s2.2-8.7,2.5-8.6c0.3,0,12.8,0.7,12.8,0.7l3.5-6.6l-8.9-6.7
		c0,0-3.4-8.6-3.5-8.9c0-0.3,0-12.3,0-12.3s2.1-11.7,2-11.8c1.3-4,3.6-11.2,4-12.4c0.4-1.6-2.5-3.8-2.5-3.8L43,13.8l0,0
		c0,0-7.1,5.4-7.7,6c-0.7,0.6-10.8,1-10.8,1l-4.3-5.5C18.4,12.6,15.5,8,15.5,8l-6-6.6c0,0-2.4,5.3-2.6,5.6
		C6.8,7.3,7.3,17.5,7.6,22.4L7.6,22.4z"/>
	<path class="st1" d="M50.1,45.1c-0.4-4.6-0.9-9.3-2.8-13.5s-5.5-7.9-10.1-8.8c-1.1-0.2-2.3-0.2-3.4-0.3c-5.7-0.1-15.6-0.3-18.2,6.3
		c-0.6,1.6-0.6,3.5-0.5,5.2c0.1,1.6-0.6,3-0.7,4.6c-0.1,1.8,0.4,3.5,1.2,5.1c1.7,3,4.8,4.9,7.3,7.2c2,1.9,3.3,3.7,5.7,5.1
		c2.5,1.5,5.3,2.6,8.1,3.4c3.6,1.1,7.3,1.8,11.1,2.3c4.8,0.7,13.2,2.6,8.6-5.1c-1.6-2.7-2.8-5.5-4-8.4c-0.5-1.2-0.9-2.4-1.4-3.6
		c-0.9-2.2-1.8-4.4-2.8-6.6c-3.3-7-8.8-13.9-16.4-15.1c-2.2-0.4-4.6-0.2-6.8,0.1c-0.2,0-0.5,0.1-0.7,0.1"/>
	<path class="st1" d="M19.1,66.6c1.4,0.8,3.1,0.9,4.8,1c1.9,0.1,3.8,0.2,5.7,0.3c1.5,0.1,3.1,0.2,4.4,1c2.3,1.4,2.8,4.8,1.6,7.3
		c-1.2,2.4-3.7,4-6.3,4.8c-4.4,1.4-9.4,0.8-13.5-1.5s-7.1-6.3-8.2-10.8c-0.3-1.2-0.5-2.6-0.1-3.8c0.3-0.9,0.8-1.7,1-2.7
		s-0.2-2.1-1.1-2.4c-0.6-0.2-1.3,0.2-1.9,0c-1.5-0.3-1.3-2.6-0.7-4c0.8-2,1.6-3.9,2.5-5.9c0.2-0.5,0.4-1,0.3-1.5
		c-0.1-0.5-0.3-0.9-0.4-1.3c-0.2-1.4,1.4-2.6,2.7-2.7c1.7-0.1,1.7,0.8,2.7,2.2C16.7,52.4,12.2,62.9,19.1,66.6z"/>
	<path class="st2" d="M50.3,32.2c0.8-1.3,1-3.3,1.3-4.7c0.5-2.2,1.1-4.4,1.6-6.7c0.4-1.8,0.9-3.6,1-5.5c0.1-1.4,0.1-2.9-0.1-4.3
		c-1.7,1.9-2.7,4.1-4,6.3c-1.6,2.8-3.9,5.1-5.4,7.8C44.4,25.8,44,26.4,44,27c-0.1,1.2,0.8,2.3,1.7,3.1c1,0.8,2.1,1.4,2.8,2.3
		c0.1,0.2,0.3,0.4,0.4,0.5c0.3,0.2,0.8,0,1-0.3C50.1,32.5,50.2,32.3,50.3,32.2z"/>
	<path class="st3" d="M42.4,29.5C42.4,29.5,42.4,29.5,42.4,29.5c0.9,0.2,1.8,0.1,2.4-0.5c0.4-0.4,0.6-1,0.8-1.6
		c0.5-1.5,1.2-2.9,1.9-4.3c2.2-4,5.4-7.5,7.3-11.7c0.2-0.4,0.3-0.9,0-1.2c-0.3-0.3-0.9-0.1-1.3,0.2c-1.7,1.1-3.2,2.5-4.9,3.5
		c-1.8,1.1-3.7,2.2-5.5,3.3c-2.1,1.4-3.8,3.4-6.2,4.3c-2.4,0.9-5.2,0.5-7.8,0.7c-1.4,0.1-2.7,0.4-4,0.8C24.6,23.1,24,23.5,24,24
		c1.4,0.2,2.8-0.2,4.2-0.5c1.8-0.4,3.6-0.4,5.4-0.2c0.6,0.1,1.2,0.2,1.7,0.4c0.5,0.2,0.9,0.6,1.3,1C38.5,26.5,39.6,28.9,42.4,29.5z"
		/>
	<path class="st2" d="M10.9,8.4c-1.1,0.7-1.3,2.1-1.4,3.4c-0.4,7,2,14,1.8,21c0,1.5-0.2,3,0,4.5s0.9,3,2.2,3.8
		c1.2-0.4,1.4-2,1.5-3.2c0.1-3.1,0.3-6.7,2.3-9.3c1.5-1.9,4.8-3,4.2-6c-0.5-2.7-3.1-6-4.5-8.4C16.4,13.5,12.3,7.6,10.9,8.4z"/>
	<path class="st3" d="M16.7,19.6c1.8,3,4.3,5.8,7.7,6.6c0.1-0.7-0.3-1.4-0.8-2c-0.9-1.2-1.8-2.4-2.6-3.7c-0.9-1.3-1.8-2.5-2.9-3.6
		c-0.5-0.5-1.1-0.9-1.5-1.5c-1.4-1.6-1.6-3.9-2.9-5.6C13,9,11.3,7.6,10.4,8.7c-0.6,0.8,1,1.4,1.5,2C14,13.2,15,16.8,16.7,19.6z"/>
	<path class="st4" d="M36.9,61.7c0.2,0,0.5,0,0.7-0.1c2.3-0.4,4.5,0.1,6.8,0.9c0.7,0.2,1.5,0.6,1.8,1.3c1.7,4.9-11.1,1.1-12.5,0.6
		c-1.3-0.4-3-0.9-3.7-2.2C31.5,61.1,35,61.9,36.9,61.7z"/>
	<g>
		<g>
			<path d="M10.5,64.3c-0.2-1.9-0.5-3.8-0.7-5.7c0-0.3-0.3-0.5-0.6-0.4c-1.4,0.3-2.8,0.6-4.2,0.9c0.2,0.2,0.4,0.4,0.6,0.6
				C6.7,56,8.2,52.4,10.1,49c0.2-0.3,0-0.6-0.3-0.7c-1.1-0.5-2.3-0.6-3.5-0.5c0,0.3,0.1,0.6,0.1,0.9c0.6-0.2,0.8-0.9,1.1-1.4
				c0.4-1,0.8-1.9,1.2-2.9c1-2.7,2.3-5.4,3-8.2c0.2-0.6-0.7-0.8-0.9-0.2c-0.7,2.5-1.8,4.9-2.7,7.3c-0.3,0.8-0.6,1.7-0.9,2.5
				c-0.1,0.3-0.6,2-1,2.1c-0.5,0.2-0.4,1,0.1,0.9c1.1-0.1,2.2,0.1,3.2,0.5c-0.1-0.2-0.2-0.5-0.3-0.7C7.4,52,5.8,55.7,4.7,59.5
				C4.6,59.8,5,60.1,5.3,60c1.4-0.3,2.8-0.6,4.2-0.9c-0.2-0.1-0.4-0.3-0.6-0.4c0.2,1.9,0.5,3.8,0.7,5.7
				C9.7,64.9,10.6,64.9,10.5,64.3L10.5,64.3z"/>
		</g>
	</g>
	<g>
		<g>
			<path d="M24.6,23.7c2.9-1.1,6-1.4,9-0.8c3,0.6,5.7,2.1,8.3,3.7c0.5,0.3,1-0.5,0.5-0.8c-2.7-1.7-5.6-3.3-8.8-3.8
				c-3.1-0.6-6.3-0.3-9.2,0.8C23.8,23,24,23.9,24.6,23.7L24.6,23.7z"/>
		</g>
	</g>
	<g>
		<g>
			<path d="M36.2,22.7c6.3-4.1,12.6-8.3,18.9-12.4c-0.2-0.1-0.5-0.3-0.7-0.4c0.2,5-1.2,9.8-2.5,14.6c-1.2,4.7-1.9,9.4-1.1,14.3
				c0.1,0.6,1,0.3,0.9-0.2c-1.6-9.9,4-18.8,3.6-28.6c0-0.3-0.4-0.6-0.7-0.4c-6.3,4.1-12.6,8.3-18.9,12.4
				C35.3,22.2,35.7,23,36.2,22.7L36.2,22.7z"/>
		</g>
	</g>
	<g>
		<g>
			<path d="M39.5,36.7c1.3,5.4,5.6,9.9,9.4,13.7c4,4.1,8.5,7.8,13.3,10.9c0.5,0.3,1-0.5,0.5-0.8c-4.6-3.1-8.9-6.6-12.8-10.5
				c-3.8-3.8-8.2-8.3-9.5-13.6C40.3,35.9,39.4,36.1,39.5,36.7L39.5,36.7z"/>
		</g>
	</g>
	<g>
		<path class="st0" d="M33,44.8c0.6-1.3,0.1-2.8-0.6-3.9c-0.7-1.1-2.5-1.7-3.7-1.8c-2-0.1-3.9,1.5-4.2,3.4c-0.1,0.6,0,1.2,0.3,1.8
			c0.6,1.4,1.9,2.4,3.4,2.7c1.5,0.3,3.1-0.3,4.1-1.4C32.6,45.4,32.9,45.1,33,44.8z"/>
		<g>
			<path d="M33.4,45c0.8-1.8,0-4.3-1.6-5.4c-1.4-0.9-3.3-1.3-4.9-0.7c-1.7,0.7-3,2.4-2.8,4.3c0.2,1.9,1.8,3.6,3.7,4.1
				C29.9,48,32.4,47,33.4,45c0.3-0.5-0.5-1-0.8-0.5c-0.7,1.4-2.4,2.2-4,2.1c-1.5-0.1-2.9-1.2-3.4-2.6c-0.6-1.5,0.2-3.1,1.5-3.9
				c1.2-0.7,2.7-0.6,3.9,0c0.8,0.3,1.3,0.8,1.6,1.5c0.5,0.9,0.7,2,0.3,3C32.4,45.1,33.2,45.6,33.4,45z"/>
		</g>
	</g>
	<g>
		<g>
			<path d="M30.5,42.5c-0.5,0.1-0.9,0.5-1.1,1c-0.2,0.5-0.1,1.1,0.3,1.5c0.1,0.2,0.4,0.2,0.6,0.1c1.3-0.6,1.4-2.7,0.2-3.4
				c-0.3-0.2-0.6,0-0.8,0.2c-0.2,0.1-0.3,0.3-0.5,0.5c-0.2,0.4-0.3,0.9,0,1.3c0.2,0.4,0.7,0.7,1.2,0.5c0.4-0.1,0.7-0.5,0.7-0.9
				c0-0.2-0.1-0.5-0.2-0.6c-0.1-0.2-0.4-0.2-0.6-0.2c-0.1,0.1-0.2,0.1-0.3,0.2c-0.4,0.4-0.5,0.9-0.2,1.4c0.1,0.2,0.4,0.3,0.6,0.2
				c0.2-0.1,0.3-0.4,0.2-0.6c0,0,0,0,0-0.1c0,0.1,0,0.1,0,0c0,0,0,0,0,0c0,0,0,0,0,0c0,0,0-0.2,0-0.1c0,0.1,0,0,0-0.1
				c0-0.1,0,0.1,0,0c0,0,0,0,0-0.1c0,0,0,0.1,0,0c0,0,0,0,0,0c0,0,0,0,0,0c0,0,0.1-0.1,0.1-0.1c-0.2,0-0.3,0-0.5,0
				c-0.1,0-0.1-0.1,0,0c0,0,0,0,0,0c0,0,0.1,0.1,0,0c0,0,0,0.1,0,0c0-0.1,0,0,0,0c0,0.1,0-0.1,0,0c0,0,0,0.1,0,0.1c0,0,0.1-0.1,0,0
				c0,0,0,0,0,0.1c0,0,0.1-0.1,0,0c-0.1,0.1,0.1-0.1,0,0c-0.1,0,0.1,0,0,0c-0.1,0,0,0,0,0c0,0,0,0-0.1,0c0,0,0,0,0.1,0c0,0,0,0,0,0
				c0,0,0,0,0,0c0,0,0,0-0.1,0c0,0,0,0,0,0c0,0,0,0,0,0c0,0,0,0-0.1-0.1c0.1,0.1,0,0,0,0c0,0,0-0.1,0,0c0,0.1,0,0,0-0.1
				c0-0.1,0,0,0,0c0,0,0-0.1,0-0.1c0-0.1,0,0.1,0,0c0,0,0-0.1,0-0.1c0,0,0,0.1,0,0c0,0,0-0.1,0.1-0.1c0-0.1,0,0,0,0c0,0,0,0,0.1-0.1
				c0,0,0,0,0.1-0.1c0.1-0.1-0.1,0,0,0C30.2,42.5,30.3,42.4,30.5,42.5c-0.2-0.1-0.4-0.1-0.6-0.1c0,0,0,0,0.1,0c0.1,0-0.1-0.1,0,0
				c0,0,0.1,0.1,0.1,0.1c0.1,0.1-0.1-0.1,0,0c0,0,0,0,0,0.1c0,0,0.1,0.1,0.1,0.2c0-0.1,0-0.1,0,0c0,0,0,0,0,0c0,0,0,0.1,0,0.1
				c0,0.1,0,0.1,0,0.2c0,0.1,0-0.1,0,0c0,0,0,0.1,0,0.1c0,0.1,0,0.1,0,0.2c0,0,0,0.1,0,0.1c0,0.1,0-0.1,0,0c0,0.1,0,0.1,0,0.2
				c0,0,0,0.1,0,0.1c0,0-0.1,0.1,0,0c0-0.1,0,0,0,0c0,0,0,0.1,0,0.1c0,0-0.1,0.1-0.1,0.1c0-0.1,0-0.1,0,0c0,0,0,0,0,0
				c0,0,0,0-0.1,0.1c0,0,0,0-0.1,0.1c-0.1,0.1,0.1,0,0,0c-0.1,0-0.1,0.1-0.2,0.1c0.2,0,0.4,0,0.6,0.1c0.1,0.1,0,0,0,0c0,0,0,0,0-0.1
				c0,0,0,0,0,0c0,0,0-0.1,0-0.1c0-0.1,0,0.1,0,0c0,0,0-0.2,0-0.2c0,0.1,0,0.1,0,0c0,0,0,0,0-0.1c0,0,0-0.1,0-0.1c0,0,0,0,0-0.1
				c0,0.1,0,0.1,0,0c0,0,0-0.1,0.1-0.1c0,0,0-0.1,0.1-0.1c0,0.1,0,0.1,0,0c0,0,0,0,0,0c0,0,0.1-0.1,0.1-0.1c-0.1,0-0.1,0,0,0
				c0,0,0,0,0.1,0c0,0,0,0,0.1,0c0,0,0,0,0,0c0,0,0.1,0,0.1,0c0.2-0.1,0.4-0.3,0.3-0.6C31,42.6,30.7,42.4,30.5,42.5L30.5,42.5z"/>
		</g>
	</g>
	<g>
		<path class="st0" d="M45,40.2c-0.8,1.7,0.4,4,2.2,4.5c1.1,0.3,2.4-0.1,3.1-1c0.7-0.9,0.9-2.2,0.3-3.2c-0.3-0.5-0.8-1.1-1.4-1.3
			c-0.4-0.2-0.9-0.3-1.4-0.4c-0.3-0.1-0.6-0.1-0.8-0.1C46.2,38.8,45.3,39.5,45,40.2z"/>
		<g>
			<path d="M44.5,40.1c-0.5,1.2-0.2,2.6,0.5,3.6c0.8,1.1,2.1,1.7,3.5,1.5c1.5-0.2,2.6-1.4,2.8-2.9c0.2-1.6-0.8-3.1-2.3-3.7
				c-0.8-0.3-1.9-0.6-2.8-0.3c-0.7,0.3-1.4,0.9-1.8,1.6c-0.1,0.2-0.1,0.5,0.2,0.6c0.2,0.1,0.5,0.1,0.6-0.2c0.2-0.5,0.7-0.9,1.2-1.2
				c0.6-0.3,1.2-0.1,1.8,0.1c1.2,0.3,2.2,1.3,2.2,2.6c0,1.1-0.9,2-2,2.3c-1,0.2-2-0.1-2.6-0.9c-0.7-0.8-0.9-2-0.5-3
				c0.1-0.2-0.1-0.5-0.3-0.6C44.8,39.7,44.6,39.9,44.5,40.1z"/>
		</g>
	</g>
	<g>
		<g>
			<path d="M60.6,62.7c-2.4,1.1-5.3,1-7.9,0.7c-3-0.3-5.9-0.9-8.8-1.6c-2.9-0.7-5.9-1.4-8.7-2.7c-3.3-1.5-6.3-3.5-9-5.9
				c-0.5-0.4-1.1,0.3-0.7,0.7c2.9,2.5,6.1,4.6,9.6,6.2c2.8,1.2,5.8,2,8.8,2.7c3,0.7,6,1.3,9.1,1.6c2.7,0.2,5.5,0.2,8-0.9
				C61.6,63.2,61.1,62.4,60.6,62.7L60.6,62.7z"/>
		</g>
	</g>
	<g>
		<g>
			<path d="M23.7,53.4c0.8,1.8,1.4,3.7,2.4,5.4c0.9,1.5,2.2,3.1,3.9,3.6c0.9,0.2,2,0.2,2.9,0.1c1.1,0,2.2-0.1,3.4-0.2
				c2.3-0.2,4.3-0.3,6.5,0.3c0.6,0.1,0.8-0.8,0.2-0.9c-1.8-0.4-3.5-0.6-5.4-0.4c-2.1,0.2-4.2,0.4-6.3,0.3c-4.2-0.1-5.5-5.5-6.9-8.6
				C24.3,52.4,23.5,52.9,23.7,53.4L23.7,53.4z"/>
		</g>
	</g>
	<g>
		<g>
			<path d="M12.9,38.1c-1.6-5.1-2.3-10.4-2.7-15.7c-0.2-2.6-0.3-5.1-0.4-7.7c-0.1-2.6-0.2-5.1,0.7-7.6C10.3,7.2,10,7.3,9.8,7.4
				c3.8,3.3,6.6,7.4,9.2,11.7c2.2,3.4,4.5,7.5,8.8,8.4c0.6,0.1,0.8-0.8,0.2-0.9c-4.5-1-6.9-5.8-9.1-9.4c-2.4-3.8-5-7.5-8.5-10.5
				c-0.3-0.2-0.7-0.1-0.8,0.2C8.8,9.2,8.8,11.6,8.9,14c0.1,2.8,0.2,5.6,0.4,8.4c0.4,5.4,1.1,10.8,2.7,16
				C12.2,38.9,13.1,38.7,12.9,38.1L12.9,38.1z"/>
		</g>
	</g>
	<g>
		<g>
			<path d="M23.6,37.1c1.5-1.2,3.4-1.5,5.2-0.9c1.7,0.6,3.1,1.9,4.5,3.2c0.4,0.4,1.1-0.2,0.7-0.7c-1.5-1.4-3.1-2.9-5.2-3.5
				c-2-0.6-4.2-0.1-5.8,1.3C22.5,36.9,23.2,37.5,23.6,37.1L23.6,37.1z"/>
		</g>
	</g>
	<g>
		<g>
			<path d="M34.3,39.1c-1.1-1.5-2.1-3.1-3.2-4.5c-1.1-1.3-2.3-2.5-3.7-3.4c-0.1-0.1-0.3-0.1-0.5,0c-2.4,1.3-5,2.9-5.3,5.9
				c-0.1,0.6,0.9,0.6,0.9,0c0.2-2.6,2.8-4,4.9-5.1c-0.2,0-0.3,0-0.5,0c2.9,1.9,4.7,4.8,6.7,7.5C33.8,40,34.6,39.6,34.3,39.1
				L34.3,39.1z"/>
		</g>
	</g>
	<g>
		<g>
			<path d="M22.6,34.9c-0.3,0.7-0.5,1.5-0.4,2.4c0,0.2,0.1,0.3,0.3,0.4c0.2,0.1,0.4,0,0.5-0.1c0.4-0.4,0.6-0.9,0.7-1.5
				c0-0.2-0.1-0.5-0.3-0.6c-0.2-0.1-0.5,0.1-0.6,0.3c0,0.1,0,0.2-0.1,0.3c0,0.1,0,0.1,0,0.1c0,0,0,0.1,0,0c0-0.1,0,0,0,0
				c0,0.1-0.1,0.2-0.2,0.3c0,0-0.1,0.1-0.1,0.1c0,0.1,0,0,0,0c0,0-0.1,0.1-0.1,0.1c0.3,0.1,0.5,0.2,0.8,0.3c0-0.2,0-0.4,0-0.5
				c0-0.1,0-0.2,0-0.2c0,0,0-0.2,0-0.1c0,0,0-0.1,0-0.1c0-0.2,0.1-0.3,0.1-0.5c0-0.1,0.1-0.2,0.1-0.3c0,0,0-0.1,0-0.1
				c0,0,0.1-0.2,0-0.1c0.1-0.1,0.1-0.2,0-0.4c0-0.1-0.1-0.2-0.2-0.3C23,34.6,22.7,34.7,22.6,34.9L22.6,34.9z"/>
		</g>
	</g>
	<g>
		<g>
			<path d="M24.3,33c-0.4,1.1-0.8,2.2-1.3,3.3c-0.2,0.4,0.5,0.8,0.8,0.5c0.5-0.6,0.9-1.2,1.1-1.9c0.2-0.6-0.7-0.8-0.9-0.2
				c-0.2,0.6-0.4,1.1-0.8,1.5c0.3,0.2,0.5,0.3,0.8,0.5c0.4-1.1,0.8-2.2,1.3-3.3c0.1-0.2-0.1-0.5-0.3-0.6
				C24.6,32.7,24.4,32.8,24.3,33L24.3,33z"/>
		</g>
	</g>
	<g>
		<g>
			<path d="M24.7,33.4c-0.2,0.5-0.4,0.9-0.6,1.4c0,0.1,0,0.3,0,0.4c0.1,0.1,0.1,0.1,0.2,0.2c0.2,0.1,0.5,0,0.6-0.2
				c0.2-0.3,0.4-0.7,0.6-1c0.1-0.2,0.1-0.5-0.2-0.6c-0.2-0.1-0.5-0.1-0.6,0.2c-0.2,0.3-0.4,0.7-0.6,1c0.3,0.1,0.6,0.2,0.8,0.4
				c0.2-0.5,0.4-0.9,0.6-1.4c0-0.1,0-0.3,0-0.4c-0.1-0.1-0.2-0.2-0.3-0.2c-0.1,0-0.3,0-0.4,0C24.9,33.2,24.8,33.3,24.7,33.4
				L24.7,33.4z"/>
		</g>
	</g>
	<g>
		<g>
			<path d="M25.2,32.9c-0.6,0.8-1.1,1.6-1.5,2.4c-0.1,0.2-0.1,0.4,0.1,0.6c0.2,0.1,0.4,0.1,0.6,0c0.2-0.2,0.5-0.5,0.7-0.7
				c0.2-0.2,0.2-0.5,0-0.7c-0.2-0.2-0.5-0.2-0.7,0c-0.2,0.2-0.5,0.5-0.7,0.7c0.2,0.2,0.5,0.4,0.7,0.6c0.2-0.4,0.4-0.8,0.6-1.2
				c0.1-0.2,0.2-0.4,0.4-0.6c0.1-0.1,0.1-0.2,0.2-0.3c0,0,0.1-0.1,0.1-0.1c0,0,0,0,0.1-0.1c0,0,0,0,0,0c0.1-0.1,0.1-0.2,0.1-0.3
				c0-0.1-0.1-0.2-0.1-0.3C25.7,32.8,25.4,32.7,25.2,32.9L25.2,32.9z"/>
		</g>
	</g>
	<g>
		<g>
			<path d="M26.6,32.8c-0.5,0.5-0.9,1-1.2,1.7c-0.1,0.2-0.1,0.4,0.1,0.6c0.1,0.1,0.1,0.1,0.2,0.1c0.1,0,0.3,0,0.4,0
				c0.4-0.3,0.7-0.6,0.9-1c0.1-0.2,0.1-0.5-0.2-0.6c-0.2-0.1-0.5-0.1-0.6,0.2c0,0.1-0.1,0.1-0.1,0.2c0,0,0,0,0,0.1c0,0,0.1-0.1,0,0
				c0,0-0.1,0.1-0.1,0.1c-0.1,0.1-0.1,0.1-0.2,0.2c0,0-0.1,0.1-0.1,0.1c0,0,0,0-0.1,0c0,0,0,0,0.1,0c0,0,0,0,0,0
				c0.2,0.2,0.4,0.4,0.6,0.6c0.1-0.3,0.3-0.6,0.5-0.8c0,0,0-0.1,0.1-0.1c0,0,0,0,0-0.1c0,0-0.1,0.1,0,0c0.1-0.1,0.1-0.1,0.2-0.2
				c0.1-0.1,0.2-0.2,0.3-0.4c0.2-0.2,0.2-0.5,0-0.7C27.1,32.7,26.8,32.6,26.6,32.8L26.6,32.8z"/>
		</g>
	</g>
	<g>
		<g>
			<path d="M27.1,32.8c-0.3,0.4-0.5,0.8-0.8,1.2c0,0.1-0.1,0.2-0.1,0.2c0,0.1,0,0.2,0.1,0.3c0.1,0.1,0.3,0.2,0.5,0.2
				c0.2-0.1,0.3-0.2,0.5-0.3c0.1-0.1,0.2-0.3,0.3-0.5c0-0.1,0-0.3,0-0.4c-0.1-0.1-0.2-0.2-0.3-0.2c-0.1,0-0.3,0-0.4,0
				c-0.1,0.1-0.2,0.2-0.2,0.3c0,0,0,0,0,0c0,0,0-0.1,0-0.1c0,0.1-0.1,0.1-0.1,0.2c0,0,0-0.1,0.1-0.1c0,0.1-0.1,0.1-0.1,0.1
				c0,0,0.1,0,0.1-0.1c-0.1,0-0.1,0.1-0.2,0.1c0,0,0.1,0,0.1,0c0,0,0,0,0,0c0.2,0.2,0.3,0.5,0.5,0.7c0.3-0.4,0.5-0.8,0.8-1.2
				c0.1-0.1,0.1-0.2,0-0.4c0-0.1-0.1-0.2-0.2-0.3C27.5,32.5,27.3,32.6,27.1,32.8L27.1,32.8z"/>
		</g>
	</g>
	<g>
		<g>
			<path d="M27.4,32.8c-0.4,0.6-0.7,1.2-1.1,1.8c-0.1,0.2-0.1,0.5,0.1,0.6c0.2,0.1,0.4,0.1,0.6,0c0.2-0.2,0.3-0.3,0.5-0.5
				c0.1-0.1,0.2-0.2,0.3-0.2c0,0,0,0,0.1-0.1c0,0-0.1,0.1,0,0c0.1,0,0.1-0.1,0.2-0.1c0.1-0.1,0.2-0.2,0.2-0.3c0-0.1,0-0.3,0-0.4
				c-0.1-0.2-0.4-0.3-0.6-0.2c-0.4,0.3-0.8,0.7-1.2,1c0.2,0.2,0.5,0.4,0.7,0.6c0.4-0.6,0.7-1.2,1.1-1.8c0.1-0.2,0.1-0.5-0.2-0.6
				C27.8,32.5,27.5,32.6,27.4,32.8L27.4,32.8z"/>
		</g>
	</g>
	<g>
		<g>
			<path d="M27.4,33.7c-0.1,0.4-0.2,0.9-0.4,1.3c-0.1,0.2,0,0.4,0.2,0.5c0.1,0,0.2,0.1,0.2,0.1c0.1,0,0.2-0.1,0.3-0.1
				c0.4-0.3,0.8-0.6,1.2-0.9c0.1-0.1,0.1-0.2,0.1-0.3c0-0.1-0.1-0.2-0.1-0.3c-0.1-0.1-0.2-0.1-0.3-0.1c0,0-0.1,0-0.1,0
				c-0.1,0-0.1,0.1-0.2,0.1c-0.4,0.3-0.8,0.6-1.2,0.9c0.3,0.2,0.5,0.3,0.8,0.5c0.1-0.4,0.2-0.9,0.4-1.3c0.1-0.2-0.1-0.5-0.3-0.6
				C27.7,33.3,27.4,33.4,27.4,33.7L27.4,33.7z"/>
		</g>
	</g>
	<g>
		<g>
			<path d="M28.6,34c-0.2,0.3-0.3,0.7-0.5,1c-0.1,0.2-0.1,0.4,0.1,0.6c0.2,0.1,0.4,0.1,0.6,0c0.3-0.3,0.6-0.5,0.8-0.8
				c-0.3-0.2-0.5-0.3-0.8-0.5c0,0.1,0,0.2-0.1,0.3c0,0,0,0.1,0,0.1c0,0.1,0,0.1,0,0c0,0,0,0,0,0.1c-0.1,0.2-0.2,0.3-0.3,0.5
				c-0.2,0.3,0.1,0.7,0.4,0.7c0.3,0,0.6-0.2,0.8-0.4c0.1-0.1-0.1,0,0,0c0,0,0,0,0.1,0c0.1,0-0.1,0,0,0c0,0-0.1,0-0.1,0c0,0,0,0,0,0
				c0,0-0.1,0-0.1,0c0,0,0,0,0,0c0,0,0,0,0,0c0,0,0,0,0,0c0-0.1,0,0,0,0.1c0,0,0,0.1,0,0.1c0.3,0.7,0.8,1.2,1.5,1.4
				c0.2,0.1,0.5-0.1,0.6-0.3c0.1-0.2-0.1-0.5-0.3-0.6c-0.1,0-0.1,0-0.2-0.1c0.1,0,0,0,0,0c0,0-0.1,0-0.1-0.1c0,0-0.1,0-0.1-0.1
				c0,0-0.1-0.1,0,0c-0.1,0-0.1-0.1-0.2-0.2c0,0-0.1-0.1-0.1-0.1c-0.1-0.1,0,0.1,0,0c0-0.1-0.1-0.1-0.1-0.2c0,0,0-0.1,0,0
				c0,0,0-0.1,0-0.1c0-0.1-0.1-0.2-0.1-0.3c-0.2-0.4-0.7-0.5-1-0.3c-0.1,0.1-0.2,0.2-0.3,0.3c-0.1,0.1,0,0,0,0c0,0,0,0-0.1,0
				c-0.1,0.1,0,0,0,0c-0.1,0,0.1,0,0,0c0.1,0.2,0.3,0.5,0.4,0.7c0.3-0.4,0.4-0.8,0.6-1.2c0.1-0.5-0.4-0.8-0.8-0.5
				c-0.3,0.3-0.6,0.5-0.8,0.8c0.2,0.2,0.5,0.4,0.7,0.6c0.2-0.3,0.3-0.7,0.5-1c0.1-0.2,0.1-0.5-0.2-0.6C29.1,33.8,28.7,33.8,28.6,34
				L28.6,34z"/>
		</g>
	</g>
	<g>
		<g>
			<path d="M45.6,36.9c0.2-0.7,0.9-1.2,1.6-1.2c0.7,0,1.4,0.5,1.6,1.1c0.1,0.2,0.3,0.4,0.6,0.3c0.2-0.1,0.4-0.3,0.3-0.6
				c-0.4-1.1-1.4-1.8-2.5-1.8c-1.1,0-2.1,0.8-2.5,1.8c-0.1,0.2,0.1,0.5,0.3,0.6C45.3,37.3,45.5,37.1,45.6,36.9L45.6,36.9z"/>
		</g>
	</g>
	<g>
		<g>
			<path d="M45.4,38.1c0.6-1.1,1.9-1.8,3.1-1.7c0.3,0,0.5-0.2,0.5-0.5c0-0.3-0.2-0.4-0.5-0.5c-1.6-0.1-3.2,0.8-3.9,2.1
				C44.3,38.2,45.1,38.6,45.4,38.1L45.4,38.1z"/>
		</g>
	</g>
	<g>
		<g>
			<path d="M14.7,75.2c4,1.8,7,5.8,11.5,6.3c2.1,0.2,3.6-0.6,5.4-1.6c2.3-1.3,4.8-2.1,7.4-2.3c0.3,0,0.6-0.3,0.4-0.6
				c-0.4-1.2-0.7-2.3-0.7-3.5c-0.1,0.1-0.2,0.3-0.3,0.4c2.5-0.8,5.1-1.5,7.7-1.9c0.2,0,0.3-0.3,0.3-0.4c0.1-2.8,0.4-5.6,0.9-8.3
				c0.1-0.6-0.8-0.8-0.9-0.2c-0.6,2.8-0.9,5.7-1,8.6c0.1-0.1,0.2-0.3,0.3-0.4c-2.6,0.4-5.2,1.1-7.7,1.9c-0.2,0.1-0.3,0.2-0.3,0.4
				c0,1.3,0.2,2.6,0.7,3.8c0.1-0.2,0.3-0.4,0.4-0.6c-2.1,0.2-4.1,0.7-6,1.5c-2,0.9-3.8,2.5-6,2.5c-4.7,0-7.9-4.4-11.9-6.2
				C14.6,74.1,14.1,74.9,14.7,75.2L14.7,75.2z"/>
		</g>
	</g>
	<g>
		<g>
			<path d="M51.2,15.2c-2,3.2-3.8,6.5-5.5,9.9c-0.6,1.2-1.7,2.9-1,4.3c0.5,1,2.1,1.2,2.4,2.2c0.2,0.6,1.1,0.3,0.9-0.2
				c-0.3-1-1.2-1.3-1.9-1.9c-0.8-0.6-0.8-1.3-0.4-2.2c0.4-0.9,0.8-1.7,1.2-2.5c1.5-3.1,3.2-6.1,5.1-9.1
				C52.3,15.1,51.5,14.7,51.2,15.2L51.2,15.2z"/>
		</g>
	</g>
	<g>
		<g>
			<path d="M61.4,60.4c-0.5,0.5-0.9,1.2-1.2,1.9c0,0.1,0,0.2,0,0.2c0,0.1,0.1,0.2,0.2,0.2c0.2,0.1,0.3,0.1,0.5,0
				c0.5-0.2,0.8-0.6,1.1-1c0.1-0.2,0-0.5-0.2-0.6c-0.2-0.1-0.5,0-0.6,0.2c0,0,0,0,0,0.1c-0.1,0.1,0.1-0.1,0,0c0,0-0.1,0.1-0.1,0.1
				c-0.1,0.1-0.1,0.1-0.2,0.2c0,0,0,0-0.1,0c-0.1,0.1,0.1-0.1,0,0c0,0-0.1,0.1-0.1,0.1c-0.1,0.1-0.2,0.1-0.3,0.2
				c0.2,0.2,0.5,0.3,0.7,0.5c0,0,0,0.1,0,0c0,0,0,0,0-0.1c0,0,0-0.1,0-0.1c0-0.1,0.1-0.1,0.1-0.2c0.1-0.1,0.2-0.3,0.3-0.4
				c0-0.1,0.1-0.1,0.1-0.2c0,0,0-0.1,0.1-0.1c0,0-0.1,0.1,0,0c0,0,0,0,0-0.1c0.1-0.1,0.2-0.3,0.3-0.4c0.2-0.2,0.2-0.5,0-0.7
				C61.9,60.2,61.6,60.2,61.4,60.4L61.4,60.4z"/>
		</g>
	</g>
	<g>
		<g>
			<path d="M61.9,60.8c-0.2,0.3-0.5,0.7-0.7,1c-0.1,0.2-0.1,0.4,0,0.5c0.1,0.2,0.3,0.2,0.5,0.2c0.2,0,0.3-0.1,0.5-0.1
				c-0.2-0.1-0.4-0.3-0.6-0.4c0,0.2,0,0.3,0,0.5c0,0.2,0.2,0.5,0.5,0.5c0.2,0,0.5-0.2,0.5-0.5c0-0.2,0-0.3,0-0.5
				c0-0.3-0.3-0.5-0.6-0.4c-0.2,0-0.3,0.1-0.5,0.1c0.2,0.2,0.3,0.5,0.5,0.7c0.2-0.3,0.5-0.7,0.7-1c0.1-0.2,0-0.5-0.2-0.6
				C62.3,60.5,62.1,60.6,61.9,60.8L61.9,60.8z"/>
		</g>
	</g>
	<g>
		<g>
			<path d="M60.9,60.4c0.6,0.9,1.5,1.5,2.5,1.8c0.2,0.1,0.5-0.1,0.6-0.3c0.1-0.3-0.1-0.5-0.3-0.6c-0.1,0-0.2-0.1-0.3-0.1
				c0,0-0.1,0-0.1,0c0.1,0,0,0,0,0c0,0-0.1,0-0.1-0.1c-0.2-0.1-0.4-0.2-0.6-0.4c0,0,0,0-0.1,0c0,0-0.1,0,0,0c0,0-0.1-0.1-0.1-0.1
				c-0.1-0.1-0.2-0.1-0.2-0.2c-0.1-0.1-0.2-0.2-0.2-0.2c0,0-0.1-0.1-0.1-0.1c0,0,0,0.1,0,0c0,0,0-0.1-0.1-0.1
				c-0.1-0.2-0.4-0.3-0.6-0.2C60.9,59.9,60.8,60.2,60.9,60.4L60.9,60.4z"/>
		</g>
	</g>
	<g>
		<g>
			<path d="M62,61.2c0.2,0.1,0.4,0.2,0.6,0.3c0,0-0.1,0-0.1-0.1c0.2,0.1,0.3,0.3,0.5,0.5c0,0,0-0.1-0.1-0.1C62.9,62,63,62,63,62.1
				c0.1,0.1,0.2,0.2,0.3,0.2c0.1,0,0.3,0,0.4,0c0.2-0.1,0.3-0.4,0.2-0.6c-0.3-0.5-0.8-1-1.4-1.2c-0.1-0.1-0.2-0.1-0.4,0
				c-0.1,0-0.2,0.1-0.3,0.2c-0.1,0.1-0.1,0.2,0,0.4C61.8,61.1,61.9,61.2,62,61.2L62,61.2z"/>
		</g>
	</g>
	<path class="st3" d="M14.8,30.7c0.2,0.8,0.6,1.7,1.4,1.8c0.2,0,0.3,0,0.5-0.1c0.1-0.1,0.2-0.2,0.2-0.3c0.8-1.8,0.3-3.8-0.3-5.7
		c-0.9-2.8-2.1-5.6-3.4-8.3c-0.2-0.5-0.5-0.9-0.9-1.1c-0.8,1.4,0.5,5.2,0.8,6.8C13.6,26.1,14.2,28.4,14.8,30.7z"/>
	<g>
		<g>
			<path d="M16.1,32.2c0.1,0.4,0,0.8-0.3,0.3c-0.1-0.2-0.2-0.7-0.3-0.9c-0.2-0.7-0.4-1.4-0.6-2.1c-0.3-1.4-0.7-2.8-1-4.1
				c-0.6-2.8-1.1-5.7-1.5-8.5c-0.1-0.6-1-0.3-0.9,0.2c0.6,4,1.3,8,2.3,11.9c0.2,1,0.5,1.9,0.7,2.9c0.2,0.6,0.3,1.3,0.9,1.7
				c0.4,0.3,0.9,0.3,1.3-0.1c0.4-0.4,0.3-1,0.2-1.5C16.9,31.3,16,31.6,16.1,32.2L16.1,32.2z"/>
		</g>
	</g>
	<g>
		<g>
			<path d="M48.5,41.5c-0.4,0.2-0.7,0.6-0.8,1c0,0.2,0,0.3,0.1,0.5c0.1,0.1,0.3,0.2,0.5,0.1c0.1,0,0.2-0.1,0.3-0.1
				c0.1-0.1,0.2-0.2,0.3-0.3c0.1-0.1,0.2-0.3,0.2-0.4c0-0.2,0-0.4,0-0.6c-0.1-0.2-0.2-0.4-0.3-0.5c0,0-0.1,0-0.1-0.1
				c-0.1,0-0.1-0.1-0.2-0.1c-0.1,0-0.2,0-0.3,0.1c-0.2,0.2-0.4,0.4-0.4,0.7c0,0.2,0.1,0.5,0.3,0.6c0.2,0.2,0.5,0.3,0.8,0.2
				c0.2,0,0.5-0.2,0.5-0.4c0-0.1,0.1-0.1,0.1-0.2c0-0.1,0-0.1,0-0.2c0-0.1-0.1-0.2-0.2-0.3c-0.1-0.1-0.2-0.1-0.4,0
				c-0.1,0-0.2,0.1-0.3,0.2c0,0,0,0.1,0,0.1c0,0,0-0.1,0.1-0.1c0,0,0,0-0.1,0.1c0,0,0.1,0,0.1-0.1c0,0-0.1,0-0.1,0c0,0,0.1,0,0.1,0
				c0,0-0.1,0-0.1,0c0,0,0.1,0,0.1,0c0,0-0.1,0-0.1,0c0,0,0.1,0,0.1,0c0,0-0.1,0-0.1,0c0,0,0.1,0,0.1,0c0,0-0.1,0-0.1,0
				c0,0,0.1,0,0.1,0.1c0,0,0,0-0.1-0.1c0,0,0,0.1,0.1,0.1c0,0,0,0,0-0.1c0,0,0,0.1,0,0.1c0,0,0-0.1,0-0.1c0,0,0,0.1,0,0.1
				c0,0,0-0.1,0-0.1c0,0,0,0.1,0,0.1c0,0,0-0.1,0-0.1c0,0,0,0.1,0,0.1c0,0,0-0.1,0.1-0.1c0,0,0,0.1-0.1,0.1c0,0,0,0,0.1-0.1
				c0,0-0.1,0-0.1,0.1c0,0,0,0,0,0c-0.2,0-0.4,0-0.6-0.1c0,0,0.1,0.1,0.1,0.1c0,0,0-0.1-0.1-0.1c0,0,0.1,0.1,0.1,0.1
				c0,0,0-0.1,0-0.1c0,0,0,0.1,0,0.2c0,0,0-0.1,0-0.1c0,0.1,0,0.1,0,0.2c0,0,0-0.1,0-0.1c0,0.1,0,0.1-0.1,0.2c0,0,0-0.1,0-0.1
				c0,0,0,0.1-0.1,0.1c0,0,0-0.1,0.1-0.1c0,0-0.1,0.1-0.1,0.1c0,0,0.1,0,0.1-0.1c0,0-0.1,0-0.1,0.1c0,0,0.1,0,0.1,0c0,0,0,0,0,0
				c0.2,0.2,0.4,0.4,0.6,0.6c0-0.1,0-0.1,0.1-0.2c0,0,0,0.1,0,0.1c0-0.1,0.1-0.2,0.1-0.2c0,0,0,0.1-0.1,0.1c0.1-0.1,0.1-0.1,0.2-0.2
				c0,0-0.1,0-0.1,0.1c0.1,0,0.1-0.1,0.2-0.1c0.1,0,0.2-0.2,0.2-0.3c0-0.1,0-0.3,0-0.4c-0.1-0.1-0.2-0.2-0.3-0.2
				C48.7,41.4,48.6,41.5,48.5,41.5L48.5,41.5z"/>
		</g>
	</g>
	<g>
		<g>
			<path d="M49.1,41.1c0-0.1-0.1-0.1-0.1-0.2c-0.1-0.1-0.1-0.1-0.2-0.2c-0.1,0-0.2-0.1-0.2-0.1c-0.1,0-0.1,0-0.2,0c0,0,0,0-0.1,0
				c-0.1,0-0.1,0-0.2,0c-0.1,0-0.1,0-0.2,0.1c0,0,0,0-0.1,0c-0.1,0.1-0.2,0.1-0.2,0.2c-0.1,0.1-0.1,0.2-0.1,0.3c0,0.1,0,0.2,0.1,0.3
				c0.1,0.1,0.1,0.2,0.3,0.2c0.1,0,0.2,0.1,0.3,0.1c0.1,0,0.1,0,0.2,0c0.1,0,0.1,0,0.2-0.1c0.1,0,0.1-0.1,0.1-0.1
				c0-0.1,0.1-0.1,0.1-0.2c0-0.1,0-0.1,0-0.2c0-0.1-0.1-0.2-0.2-0.3c0,0-0.1,0-0.1,0c-0.1,0-0.2,0-0.2,0c0,0,0,0,0,0
				c0,0,0.1,0,0.1,0c0,0,0,0,0,0c0,0,0.1,0,0.1,0c0,0,0,0,0,0c0,0,0.1,0,0.1,0c0,0,0,0,0,0c0,0,0.1,0,0.1,0.1c0,0,0,0,0,0
				c0,0,0,0.1,0.1,0.1c0,0,0,0,0-0.1c0,0,0,0.1,0,0.1c0,0,0,0,0-0.1c0,0,0,0.1,0,0.1c0,0,0,0,0,0c0,0,0,0.1,0,0.1c0,0,0,0,0,0
				c0,0,0,0.1,0,0.1c0,0,0,0,0,0c0,0,0,0.1-0.1,0.1c0,0,0,0,0,0c0,0-0.1,0-0.1,0.1c0,0,0,0,0.1,0c0,0-0.1,0-0.1,0c0,0,0.1,0,0.1,0
				c0,0-0.1,0-0.1,0c0,0,0.1,0,0.1,0c0,0-0.1,0-0.1,0c0,0,0.1,0,0.1,0c0,0-0.1,0-0.1,0c0,0,0.1,0,0.1,0.1c0,0-0.1,0-0.1-0.1
				c0,0,0.1,0,0.1,0.1c0,0,0-0.1-0.1-0.1c0,0,0,0,0,0.1c0,0.1,0.1,0.1,0.1,0.1c0,0,0.1,0.1,0.2,0.1c0.1,0,0.1,0,0.2,0
				c0.1,0,0.1,0,0.2-0.1c0.1-0.1,0.2-0.2,0.2-0.3c0,0,0-0.1,0-0.1C49.1,41.3,49.1,41.2,49.1,41.1L49.1,41.1z"/>
		</g>
	</g>
	<g>
		<g>
			<path d="M48,42.5c0.1,0,0.2-0.1,0.3-0.1c-0.2-0.1-0.3-0.1-0.5-0.2c0,0,0,0,0,0c0,0,0-0.1,0-0.1c0,0,0,0,0,0c0,0,0-0.1,0-0.1
				c0,0,0,0,0,0c0,0,0-0.1,0-0.1c0,0,0,0,0,0c0,0,0-0.1,0-0.1c0,0,0,0,0,0c0,0,0-0.1,0.1-0.1c0,0,0,0,0,0c0,0,0.1,0,0.1-0.1
				c0,0,0,0,0,0c0,0,0.1,0,0.1,0c0,0,0,0,0,0c0,0,0.1,0,0.1,0c0,0,0,0,0,0c0,0,0.1,0,0.1,0c0,0,0,0,0,0c0,0,0.1,0,0.1,0c0,0,0,0,0,0
				c0,0,0.1,0,0.1,0.1c0,0,0,0,0,0c0,0,0,0.1,0.1,0.1c0,0,0,0,0,0c0,0,0,0.1,0,0.1c0,0,0,0,0,0c0,0,0,0.1,0,0.1c0,0,0-0.1,0-0.1
				c0,0,0,0.1,0,0.1c0-0.1,0-0.1,0-0.2c0-0.1,0-0.1,0-0.2c0-0.1,0-0.1,0-0.2c0,0,0,0,0,0c0,0,0-0.1-0.1-0.1c0-0.1-0.1-0.1-0.1-0.1
				c0,0-0.1-0.1-0.2-0.1c-0.1,0-0.1,0-0.2,0c-0.1,0-0.1,0-0.2,0.1c-0.1,0.1-0.2,0.2-0.2,0.3c0,0,0,0.1,0,0.1c0,0.1,0,0.2,0.1,0.2
				c0,0,0,0,0,0c0,0,0-0.1,0-0.1c0,0,0,0,0,0c0,0,0-0.1,0-0.1c0,0,0,0.1,0,0.1c0,0,0-0.1,0-0.1c0,0,0,0.1,0,0.1c0,0.1,0,0.2,0,0.2
				c0,0,0,0,0,0.1c0,0.1,0,0.1,0,0.2c0,0.1,0.1,0.3,0.3,0.3c0.2,0.1,0.4,0.1,0.6,0c0,0,0.1-0.1,0.1-0.1c0,0,0,0,0,0
				c0.1-0.1,0.1-0.1,0.1-0.2c0-0.1,0-0.3-0.1-0.4c0,0,0-0.1-0.1-0.1c0,0-0.1-0.1-0.1-0.1c0,0-0.1,0-0.1,0c-0.1,0-0.1,0-0.2,0
				c-0.1,0-0.2,0.1-0.3,0.1c-0.1,0-0.2,0.1-0.3,0.2c0,0.1-0.1,0.1-0.1,0.2c0,0.1,0,0.1,0,0.2c0,0.1,0.1,0.2,0.2,0.3
				C47.8,42.6,47.9,42.6,48,42.5L48,42.5z"/>
		</g>
	</g>
	<g>
		<g>
			<path d="M48.4,41.8C48.4,41.8,48.4,41.8,48.4,41.8C48.4,41.8,48.3,41.8,48.4,41.8C48.3,41.8,48.3,41.8,48.4,41.8
				c0,0,0-0.1-0.1-0.1C48.3,41.7,48.3,41.7,48.4,41.8c0-0.1-0.1-0.1-0.1-0.2c0,0,0,0,0,0.1c0,0,0-0.1,0-0.1c0,0,0,0,0,0.1
				c0,0,0-0.1,0-0.1c0,0,0,0,0,0c0,0.1-0.1,0.1-0.1,0.2C48.3,41.7,48.3,41.8,48.4,41.8c0,0.1,0,0.2,0,0.2c0,0.1,0.1,0.1,0.1,0.1
				c0,0,0.1,0,0.1,0c0.1,0,0.2,0,0.2,0c0,0,0.1,0,0.1,0c0.1,0,0.1-0.1,0.2-0.2c0,0,0-0.1,0.1-0.1c0,0,0,0,0,0c0-0.1,0-0.1,0-0.2
				c0,0,0,0,0,0c0-0.1,0-0.1,0-0.2c0,0,0,0,0,0c0,0,0-0.1-0.1-0.1c0,0,0,0,0,0c0,0-0.1-0.1-0.1-0.1c0,0,0,0,0,0c0,0-0.1-0.1-0.1-0.1
				c-0.1,0-0.1,0-0.2,0c-0.1,0-0.1,0-0.2,0c-0.1,0-0.1,0.1-0.1,0.1c0,0,0,0.1-0.1,0.1c0,0.1-0.1,0.2-0.1,0.2c0,0,0,0.1,0,0.1
				C48.3,41.7,48.3,41.7,48.4,41.8L48.4,41.8z"/>
		</g>
	</g>
	<g>
		<g>
			<path d="M60.3,60.8c-0.1,0.1-0.1,0.1-0.2,0.2c0.1-0.1,0,0,0,0.1c0,0,0,0.1-0.1,0.1c-0.1,0.1-0.2,0.3-0.4,0.4
				c-0.3,0.3-0.5,0.5-0.8,0.8c-0.1,0.1-0.2,0.3-0.1,0.5c0,0.2,0.2,0.3,0.3,0.3c0.4,0.1,0.6-0.1,0.9-0.3c0.2-0.2,0.5-0.3,0.7-0.5
				c-0.2-0.2-0.4-0.5-0.6-0.7c-0.2,0.2-0.4,0.4-0.6,0.6c-0.1,0.1-0.2,0.4-0.1,0.6c0.1,0.2,0.3,0.2,0.5,0.2c0.1,0,0.2,0,0.4-0.1
				c-0.2-0.2-0.4-0.4-0.6-0.6c0,0.1,0,0.1-0.1,0.2c-0.1,0.3,0.2,0.6,0.4,0.6c0.3,0,0.5-0.1,0.7-0.3c0.1-0.1,0.1-0.2,0.1-0.4
				c0-0.1-0.1-0.3-0.2-0.3c-0.2-0.1-0.3-0.1-0.5,0c0,0-0.1,0-0.1,0c0,0,0.2,0,0.2,0c0.1,0,0.1,0.1,0.1,0.2c0,0,0,0,0,0.1
				c0,0,0,0,0,0c0,0,0,0,0,0c0-0.1,0,0.1,0,0c0,0,0,0,0.1-0.1c0.1-0.1,0.2-0.2,0.3-0.3c0.3-0.4,0.7-0.7,1-1.1
				c0.1-0.1,0.2-0.4,0.1-0.6c-0.1-0.2-0.3-0.3-0.5-0.2c-0.2,0.1-0.4,0.1-0.6,0.2c-0.2,0.1-0.4,0.3-0.3,0.6c0.1,0.2,0.3,0.4,0.6,0.3
				c0.2-0.1,0.4-0.1,0.6-0.2c-0.2-0.3-0.3-0.5-0.5-0.8c-0.4,0.4-0.8,0.9-1.2,1.3c-0.2,0.3-0.5,0.6-0.3,0.9c0.1,0.2,0.2,0.4,0.4,0.4
				c0.1,0,0.2,0,0.3,0c0,0,0.1,0,0.1,0c0.1,0,0,0-0.2-0.1c0-0.2-0.1-0.5-0.1-0.7c0,0,0,0.1,0,0.1c0,0,0.1-0.1,0,0c0,0,0.1,0,0,0
				c-0.1,0,0.1,0,0,0c0.1,0.2,0.3,0.4,0.4,0.6c0-0.1,0-0.1,0.1-0.2c0.1-0.2,0-0.3-0.1-0.5c-0.1-0.1-0.3-0.1-0.5-0.1
				c-0.1,0-0.2,0-0.4,0.1c0.2,0.3,0.3,0.5,0.5,0.8c0.2-0.2,0.4-0.4,0.6-0.6c0.2-0.2,0.2-0.4,0-0.6c-0.1-0.2-0.4-0.2-0.6-0.1
				c-0.2,0.1-0.4,0.3-0.6,0.4c-0.1,0.1-0.2,0.1-0.3,0.2c0,0-0.1,0.1-0.1,0.1c0.1,0,0.1,0,0,0c0,0,0.1,0,0.1,0
				c0.1,0.3,0.1,0.5,0.2,0.8c0.6-0.5,1.2-1.1,1.6-1.7c0.1-0.2,0-0.5-0.2-0.6C60.7,60.5,60.5,60.6,60.3,60.8L60.3,60.8z"/>
		</g>
	</g>
	<g>
		<g>
			<path d="M60.9,63.5c1-0.2,2-0.7,2.8-1.4c0.2-0.2,0.2-0.5,0-0.7c-0.2-0.2-0.5-0.2-0.7,0c0,0,0,0,0,0c0,0,0,0-0.1,0.1
				c0,0-0.1,0.1-0.1,0.1c-0.1,0.1-0.2,0.1-0.3,0.2c-0.2,0.1-0.4,0.2-0.6,0.3c0,0-0.1,0-0.1,0.1c0,0-0.2,0.1-0.1,0
				c-0.1,0-0.2,0.1-0.3,0.1c-0.2,0.1-0.5,0.1-0.7,0.2c-0.2,0.1-0.4,0.3-0.3,0.6C60.4,63.4,60.6,63.6,60.9,63.5L60.9,63.5z"/>
		</g>
	</g>
	<g>
		<g>
			<path d="M25.2,34.7C25.2,34.7,25.2,34.6,25.2,34.7c-0.4,0.2,0.2,0.9,0.6,0.6c0.5-0.4,0.9-0.8,1.2-1.4c0.2-0.4-0.2-0.9-0.6-0.6
				c-0.2,0.1-0.4,0.2-0.6,0.4c0.2,0.2,0.4,0.5,0.6,0.7c0.5-0.6,0.8-1.3,0.9-2c0-0.4-0.4-0.5-0.7-0.4c-0.8,0.3-1.5,0.7-2.1,1.3
				c-0.5,0.5-0.9,1.1-1.5,1.3c-0.3,0.1-0.4,0.4-0.3,0.7c0.3,0.5,1,0.4,1.5,0.1c0.6-0.4,1.2-0.9,1.8-1.4c0.5-0.4,1.1-0.6,1.7-0.3
				c0.5,0.3,0.9,0.8,1.5,1c0.3,0.1,0.7-0.2,0.6-0.6c-0.3-1-1.1-1.6-2.1-1.8c-0.2,0-0.4,0.2-0.4,0.3c-0.1,0.2,0,0.4,0.2,0.5
				c0,0,0.1,0.1,0.1,0.1c0.5,0.3,1-0.5,0.5-0.8c0,0-0.1-0.1-0.1-0.1c-0.1,0.3-0.2,0.6-0.2,0.9c0.6,0.1,1.1,0.5,1.2,1.1
				c0.2-0.2,0.4-0.4,0.6-0.6c-0.5-0.1-0.8-0.7-1.3-0.9c-0.5-0.3-1.2-0.4-1.8-0.2c-0.6,0.2-1.1,0.6-1.6,1c-0.3,0.2-0.6,0.4-0.9,0.7
				c-0.1,0.1-0.2,0.2-0.3,0.2c-0.2,0.1-0.1,0,0,0.1c-0.1,0.2-0.2,0.5-0.3,0.7c0.8-0.2,1.3-0.8,1.8-1.3c0.6-0.7,1.3-1,2.1-1.4
				c-0.2-0.1-0.5-0.3-0.7-0.4c0,0.5-0.2,1-0.6,1.4c-0.3,0.4,0.1,1,0.6,0.7c0.2-0.1,0.4-0.2,0.6-0.4c-0.2-0.2-0.4-0.4-0.6-0.6
				c-0.2,0.4-0.5,0.8-0.9,1c0.2,0.2,0.4,0.5,0.6,0.7c0.2-0.1,0.3-0.3,0.2-0.6c0-0.2-0.2-0.5-0.5-0.5C25.4,34.2,25.1,34.5,25.2,34.7
				L25.2,34.7z"/>
		</g>
	</g>
	<g>
		<g>
			<path d="M27.5,32.2c-0.1,0,0,0,0,0.1c0,0,0,0.1,0,0.1c0,0.1,0,0.1,0,0c-0.2,0-0.5,0.1-0.7,0.1c0.7,0.8,1.4,1.6,2.1,2.4
				c0.6,0.7,1.2,1.3,2.1,1.6c0.6,0.2,0.8-0.7,0.2-0.9c-0.8-0.2-1.3-0.9-1.8-1.5c-0.7-0.8-1.3-1.5-2-2.3c-0.2-0.2-0.6-0.1-0.7,0.1
				c-0.2,0.3-0.1,0.9,0.3,1c0.2,0.1,0.5,0.1,0.6-0.2C27.7,32.7,27.7,32.4,27.5,32.2L27.5,32.2z"/>
		</g>
	</g>
	<g>
		<g>
			<path d="M24.4,35.8c1-0.2,2-0.5,3-0.7c0.2-0.1,0.4-0.3,0.3-0.6c-0.1-0.2-0.3-0.4-0.6-0.3c-1,0.2-2,0.5-3,0.7
				c-0.2,0.1-0.4,0.3-0.3,0.6C23.9,35.8,24.1,35.9,24.4,35.8L24.4,35.8z"/>
		</g>
	</g>
	<g>
		<g>
			<path d="M45,38.2c0-0.2,0.1-0.4,0.2-0.5c0,0,0,0.1,0,0.1c0.1-0.2,0.2-0.4,0.3-0.5c0,0,0,0.1-0.1,0.1c0.1-0.1,0.2-0.3,0.4-0.4
				c0.1-0.1,0.1-0.2,0.1-0.3c0-0.1-0.1-0.2-0.1-0.3c-0.1-0.1-0.2-0.1-0.3-0.1c-0.1,0-0.2,0.1-0.3,0.1c-0.5,0.4-0.8,1-0.9,1.6
				c0,0.1,0,0.2,0,0.4c0.1,0.1,0.2,0.2,0.3,0.2C44.7,38.6,45,38.4,45,38.2L45,38.2z"/>
		</g>
	</g>
</g>
</svg>
