<?xml version="1.0" encoding="utf-8"?>
<!-- Generator: Adobe Illustrator 24.3.0, SVG Export Plug-In . SVG Version: 6.00 Build 0)  -->
<svg version="1.1" id="Layer_1" xmlns="http://www.w3.org/2000/svg" xmlns:xlink="http://www.w3.org/1999/xlink" x="0px" y="0px"
	 viewBox="0 0 595.3 841.9" style="enable-background:new 0 0 595.3 841.9;" xml:space="preserve">
<style type="text/css">
	.st0{fill:#FEFEFE;}
	.st1{fill:#FEEF3F;}
</style>
<g>
	<path class="st0" d="M376.9,421.3c0,26.2,0,52.3,0,78.5c0,0.8-0.2,1-1,1c-52.3,0-104.6,0-156.9,0c-0.8,0-1-0.2-1-1
		c0-52.3,0-104.6,0-156.9c0-0.8,0.2-1,1-1c52.3,0,104.6,0,156.9,0c0.8,0,1,0.2,1,1C376.9,369,376.9,395.2,376.9,421.3z M297.2,369.9
		c-27.1-0.2-50.4,22-50.4,50.2c-0.1,27.9,22.5,50.5,50,50.8c27.5,0.2,51.1-21.8,51.1-50.5C347.9,391.4,324,369.5,297.2,369.9z"/>
	<path class="st1" d="M297.2,369.9c26.8-0.4,50.7,21.5,50.6,50.5c0,28.6-23.6,50.7-51.1,50.5c-27.5-0.2-50-22.9-50-50.8
		C246.8,391.9,270.1,369.6,297.2,369.9z M279.3,449.1C279.3,449.1,279.3,449.1,279.3,449.1c0,1-0.1,2.1,0,3.1c0.1,1.3,0.8,1.7,2,1.1
		c0.7-0.4,1.4-0.9,2.1-1.4c0.9-0.6,1.7-1.3,2.6-1.9c1.4-0.8,2-0.6,2.6,0.8c0.5,1.3,0.8,2.7,1.3,4.1c0.3,0.9,0.4,2.1,1.5,2.2
		c1.1,0.2,1.6-0.9,2.2-1.7c0.9-1.2,1.6-2.6,2.7-3.7c0.9-0.9,1.4-0.9,2.3,0c1,1.1,1.7,2.4,2.6,3.6c0.6,0.8,1.1,2,2.2,1.8
		c1.2-0.2,1.3-1.5,1.6-2.4c0.4-1.1,0.7-2.3,1.1-3.4c0.7-2,1.4-2.2,3.1-1c0.6,0.4,1.1,0.8,1.6,1.2c0.8,0.6,1.6,1.2,2.4,1.8
		c1.4,0.8,2,0.5,2.3-1.1c0.3-1.8-0.1-3.5,0-5.3c0.2-1.8,0.7-2.3,2.5-1.7c1.5,0.5,3,1.1,4.5,1.5c2,0.6,2.7-0.1,2.1-2.1
		c-0.4-1.5-1-2.9-1.4-4.4c-0.6-1.9-0.1-2.6,2-2.6c1.6,0,3.2,0.2,4.8,0.1c1.9-0.1,2.3-0.9,1.3-2.6c-0.9-1.3-1.9-2.6-2.8-3.9
		c-1.1-1.7-0.9-2.3,1-3c1.5-0.5,3.1-0.9,4.7-1.5c1.7-0.6,1.9-1.6,0.4-2.7c-1.2-1-2.6-1.8-3.9-2.8c-1.6-1.3-1.6-2,0-3.2
		c1.3-1,2.7-1.8,3.9-2.8c1.5-1.2,1.4-2.1-0.5-2.8c-1.3-0.5-2.7-0.8-4-1.3c-2.6-0.9-2.8-1.5-1.2-3.7c0.9-1.2,1.9-2.3,2.7-3.5
		c0.9-1.4,0.5-2.3-1.2-2.4c-1.8-0.1-3.5,0-5.3,0c-1.6-0.1-2.1-0.7-1.6-2.3c0.5-1.6,1.2-3.2,1.6-4.9c0.5-1.9-0.1-2.5-2-2
		c-1.7,0.5-3.3,1.1-5,1.6c-1.4,0.4-1.9,0-2.1-1.4c-0.2-1.8,0.2-3.5,0.1-5.3c-0.1-2-0.9-2.5-2.6-1.4c-1.2,0.8-2.4,1.8-3.6,2.6
		c-2,1.4-2.7,1.2-3.4-1.1c-0.5-1.4-0.8-2.8-1.3-4.2c-0.7-1.9-1.6-2.1-2.9-0.5c-1,1.2-1.8,2.6-2.8,3.9c-1.2,1.5-1.9,1.6-3.1,0
		c-1-1.3-1.8-2.6-2.7-3.9c-1.3-1.7-2.2-1.5-2.9,0.4c-0.5,1.4-0.9,2.9-1.4,4.3c-0.7,2.1-1.4,2.3-3.2,1c-1.2-0.9-2.4-1.9-3.6-2.7
		c-1.7-1.2-2.6-0.7-2.7,1.3c-0.1,1.3,0,2.6,0,3.8c0,3.1-0.6,3.4-3.5,2.4c-1.4-0.5-2.7-1-4.1-1.4c-1.4-0.4-2,0.2-1.7,1.7
		c0.2,0.8,0.5,1.6,0.7,2.4c0.3,1.1,0.7,2.1,1,3.2c0.3,1.2-0.1,1.7-1.3,1.9c-0.7,0.1-1.5,0.1-2.3,0c-1.3,0-2.6-0.3-3.9,0
		c-1.2,0.2-1.5,0.8-1,1.9c0.3,0.6,0.7,1.2,1.1,1.7c0.7,1,1.5,1.9,2.1,2.9c1,1.5,0.8,2.2-1,2.9c-0.9,0.3-1.8,0.5-2.6,0.8
		c-0.9,0.3-1.9,0.5-2.7,0.9c-1,0.6-1.1,1.1-0.4,2c0.5,0.5,1,0.9,1.6,1.3c1,0.8,2.1,1.4,3.1,2.2c1.3,1,1.3,1.7,0,2.8
		c-0.7,0.6-1.4,1-2.1,1.5c-0.7,0.5-1.5,1-2.2,1.6c-1.2,1-1.1,1.9,0.4,2.5c1.1,0.5,2.3,0.8,3.5,1.2c3.5,1.1,3.8,1.7,1.4,4.6
		c-0.8,1-1.7,2-2.3,3.2c-0.6,1.2-0.3,1.8,1,2c0.4,0.1,0.8,0.1,1.2,0.1c1.4,0,2.7-0.1,4.1,0c2,0.1,2.5,0.7,1.9,2.6
		c-0.4,1.3-1,2.6-1.4,3.9c-0.3,0.8-0.8,1.7,0,2.5c0.7,0.7,1.6,0.2,2.4,0c1.5-0.4,3-1.1,4.5-1.5c1.3-0.3,1.9,0.1,2,1.5
		C279.4,447.2,279.3,448.2,279.3,449.1z"/>
	<path d="M279.3,449.1c0-0.9,0-1.8,0-2.8c-0.1-1.3-0.6-1.8-2-1.5c-1.6,0.3-3,1-4.5,1.5c-0.8,0.2-1.7,0.7-2.4,0
		c-0.8-0.7-0.3-1.7,0-2.5c0.4-1.3,1-2.6,1.4-3.9c0.6-2,0.2-2.6-1.9-2.6c-1.4,0-2.7,0-4.1,0c-0.4,0-0.8,0-1.2-0.1
		c-1.3-0.2-1.6-0.8-1-2c0.6-1.2,1.5-2.1,2.3-3.2c2.3-2.9,2.1-3.6-1.4-4.6c-1.2-0.4-2.4-0.7-3.5-1.2c-1.5-0.6-1.6-1.5-0.4-2.5
		c0.7-0.6,1.5-1.1,2.2-1.6c0.7-0.5,1.5-1,2.1-1.5c1.3-1.1,1.3-1.7,0-2.8c-1-0.8-2.1-1.5-3.1-2.2c-0.5-0.4-1.1-0.8-1.6-1.3
		c-0.8-0.9-0.6-1.4,0.4-2c0.8-0.5,1.8-0.7,2.7-0.9c0.9-0.3,1.8-0.5,2.6-0.8c1.8-0.6,2-1.3,1-2.9c-0.7-1-1.4-1.9-2.1-2.9
		c-0.4-0.5-0.8-1.1-1.1-1.7c-0.5-1.1-0.2-1.6,1-1.9c1.3-0.3,2.6,0,3.9,0c0.8,0,1.5,0.1,2.3,0c1.2-0.2,1.6-0.7,1.3-1.9
		c-0.3-1.1-0.7-2.1-1-3.2c-0.2-0.8-0.5-1.6-0.7-2.4c-0.3-1.4,0.3-2,1.7-1.7c1.4,0.4,2.7,0.9,4.1,1.4c2.9,1,3.5,0.7,3.5-2.4
		c0-1.3-0.1-2.6,0-3.8c0.1-2.1,1-2.5,2.7-1.3c1.2,0.9,2.4,1.9,3.6,2.7c1.8,1.3,2.5,1.1,3.2-1c0.5-1.4,0.9-2.9,1.4-4.3
		c0.7-1.9,1.7-2.1,2.9-0.4c1,1.3,1.8,2.7,2.7,3.9c1.2,1.5,1.9,1.5,3.1,0c1-1.3,1.8-2.6,2.8-3.9c1.2-1.6,2.2-1.4,2.9,0.5
		c0.5,1.4,0.8,2.8,1.3,4.2c0.8,2.3,1.4,2.5,3.4,1.1c1.2-0.9,2.3-1.8,3.6-2.6c1.7-1.1,2.5-0.6,2.6,1.4c0.1,1.8-0.3,3.5-0.1,5.3
		c0.2,1.5,0.6,1.8,2.1,1.4c1.7-0.5,3.3-1.1,5-1.6c1.9-0.5,2.5,0.1,2,2c-0.5,1.6-1.2,3.2-1.6,4.9c-0.5,1.6,0,2.2,1.6,2.3
		c1.8,0.1,3.5,0,5.3,0c1.7,0.1,2.1,0.9,1.2,2.4c-0.8,1.2-1.8,2.3-2.7,3.5c-1.6,2.2-1.4,2.8,1.2,3.7c1.3,0.4,2.7,0.8,4,1.3
		c1.8,0.7,2,1.6,0.5,2.8c-1.2,1-2.6,1.8-3.9,2.8c-1.7,1.2-1.7,2,0,3.2c1.3,1,2.6,1.8,3.9,2.8c1.5,1.2,1.3,2.1-0.4,2.7
		c-1.5,0.6-3.1,0.9-4.7,1.5c-1.9,0.7-2.1,1.3-1,3c0.9,1.3,1.9,2.5,2.8,3.9c1.1,1.6,0.7,2.4-1.3,2.6c-1.6,0.1-3.2-0.1-4.8-0.1
		c-2,0-2.5,0.6-2,2.6c0.4,1.5,1,2.9,1.4,4.4c0.6,2-0.1,2.7-2.1,2.1c-1.5-0.5-3-1.1-4.5-1.5c-1.8-0.5-2.3-0.1-2.5,1.7
		c-0.2,1.8,0.2,3.5,0,5.3c-0.2,1.6-0.9,2-2.3,1.1c-0.8-0.5-1.6-1.2-2.4-1.8c-0.5-0.4-1.1-0.8-1.6-1.2c-1.8-1.2-2.4-1-3.1,1
		c-0.4,1.1-0.7,2.3-1.1,3.4c-0.3,0.9-0.4,2.3-1.6,2.4c-1.1,0.1-1.6-1-2.2-1.8c-0.9-1.2-1.5-2.5-2.6-3.6c-0.9-0.9-1.4-1-2.3,0
		c-1.1,1.1-1.8,2.5-2.7,3.7c-0.6,0.7-1.1,1.8-2.2,1.7c-1.1-0.2-1.2-1.4-1.5-2.2c-0.5-1.4-0.8-2.8-1.3-4.1c-0.5-1.5-1.2-1.7-2.6-0.8
		c-0.9,0.6-1.7,1.3-2.6,1.9c-0.7,0.5-1.4,1-2.1,1.4c-1.2,0.6-1.9,0.2-2-1.1C279.3,451.2,279.3,450.1,279.3,449.1
		C279.3,449.1,279.3,449.1,279.3,449.1z M324.4,419.6c0-14.8-11.9-26.8-26.7-26.9c-14.6-0.1-26.9,12-26.9,26.4
		c-0.1,15.3,11.9,27,26.2,27.2C312.3,446.5,324.4,434.6,324.4,419.6z"/>
	<path class="st1" d="M324.4,419.6c0,15-12.1,26.9-27.5,26.7c-14.2-0.2-26.2-11.9-26.2-27.2c0.1-14.5,12.3-26.5,26.9-26.4
		C312.5,392.8,324.5,404.8,324.4,419.6z M277.1,419.5c0,11.4,9.2,20.6,20.5,20.6c11.2,0,20.6-9.2,20.6-20.2c0-11.7-9-20.9-20.4-20.9
		C286.3,399,277.1,408.1,277.1,419.5z"/>
	<path d="M277.1,419.5c0-11.4,9.2-20.5,20.7-20.5c11.4,0,20.4,9.3,20.4,20.9c0,11-9.4,20.2-20.6,20.2
		C286.3,440.1,277.1,430.9,277.1,419.5z"/>
</g>
</svg>
