<?xml version="1.0" encoding="utf-8"?>
<!-- Generator: Adobe Illustrator 24.3.0, SVG Export Plug-In . SVG Version: 6.00 Build 0)  -->
<svg version="1.1" id="Tillykke" xmlns="http://www.w3.org/2000/svg" xmlns:xlink="http://www.w3.org/1999/xlink" x="0px" y="0px"
	 viewBox="0 0 1409 792" style="enable-background:new 0 0 1409 792;" xml:space="preserve">
<style type="text/css">
	.st0{fill:#666666;}
	.st1{fill:#333333;}
	.st2{fill:none;}
	.st3{fill:#FFFFFF;}
	.st4{font-family:'Futura-CondensedExtraBold';}
	.st5{font-size:161px;}
	.st6{font-family:'Futura-Medium';}
	.st7{font-size:50px;}
	.st8{font-family:'Futura-CondensedMedium';}
	.st9{font-size:100px;}
	.st10{display:none;fill:#4A4A49;stroke:#C6C6C6;stroke-width:7.3996;stroke-miterlimit:10;}
	.st11{display:none;}
	.st12{display:inline;fill:#C6C6C6;}
	.st13{fill:#F07E31;}
	.st14{fill:#FAC18A;}
	.st15{fill:#6A471E;}
	.st16{fill:#CCCCCC;}
	.st17{display:inline;fill:#FFFFFF;}
</style>
<g>
	<path class="st0" d="M107.9,747.5c-17,0-33-6.7-45.1-18.8C50.7,716.6,44,700.5,44,683.6V108c0-17,6.7-33,18.8-45.1
		C74.9,50.8,91,44.1,107.9,44.1h1193.2c17,0,33,6.7,45.1,18.8C1358.3,75,1365,91,1365,108v575.6c0,17-6.7,33-18.8,45.1
		c-12.1,12.1-28.2,18.8-45.1,18.8H107.9z"/>
	<path class="st1" d="M1301.1,88.1c10.8,0,19.9,9.1,19.9,19.9v575.6c0,10.8-9.1,19.9-19.9,19.9H107.9c-10.8,0-19.9-9.1-19.9-19.9
		V108c0-10.8,9.1-19.9,19.9-19.9H1301.1 M1301.1,0.1H107.9C48.6,0.1,0,48.6,0,108v575.6c0,59.4,48.6,107.9,107.9,107.9h1193.2
		c59.4,0,107.9-48.6,107.9-107.9V108C1409,48.6,1360.4,0.1,1301.1,0.1L1301.1,0.1z"/>
</g>
<rect x="117" y="122.7" class="st2" width="1176" height="182.6"/>
<text transform="matrix(1 0 0 1 367.3163 255.4443)" class="st3 st4 st5">TILLYKKE!</text>
<rect x="196" y="592.7" class="st2" width="629" height="104.4"/>
<text transform="matrix(1 0 0 1 414.2597 633.9033)" class="st3 st6 st7">DU HAR </text>
<text transform="matrix(1 0 0 1 663.4389 646.9883)" class="st3 st8 st9">10 </text>
<text transform="matrix(1 0 0 1 815.767 634.9312)" class="st3 st6 st7">POINTS</text>
<g>
	<g id="snif_1_">
		<circle class="st10" cx="732.3" cy="394" r="262.7"/>
		<g class="st11">
			<path class="st12" d="M627.8,562.9c1.5,3.9-1.5,8.1-5.2,11.9c-1.5,1.3-4.9,4.7-6.8,6.1c-4.5,3.9-9.4,8.6-13.7,10.1
				c-1.3-1.5-2.8-0.2-4.1-0.9c-0.4,0-0.8,0.1-0.8,0.5c-1.6-0.3-2.9-1-4.9-1.3c-0.8-0.3-1.6,0.1-2-0.3c-0.8-0.3-1.7-1.5-2.9-1.8
				c-0.8-0.3-1.6-0.3-2.4-0.6c-0.4,0-2.8-0.6-2.9-1.4c-1.6-0.3-2.9-1.8-4.1-1.7c-0.1-0.8-0.5-1.6-1.6-0.7c0-0.4-0.5-1.2-0.9-1.5
				l0.4-0.4c-1.9-4.3-2.1-7.8-2.8-11.8c-0.4-0.4,0-0.4-0.8-0.7c0.7-0.8,0.3-1.2,0.7-2c1.1-1.7,2.3-1.8,3.5-1.8c0.4,0,0.4-0.4,0-0.4
				c0.4,0,0.8,0.3,1.2,0.3l0.7-0.8c3.2,0.2,6.6,2.8,9.8,2.5c1.7,1.5,3.7,2.1,5.3,1.6c1.3,1.1,2.4,0.6,3.3,1.4c0.4,0,0.4-0.4,1.2-0.5
				c1.3,1.1,2.4,0.2,3.6,0.6c0.4-0.4-0.5-0.8,0.3-1.2c1.5-0.9,4.9-4.7,6.4-6.4c0.4,0.4,0.4-0.4,0.8,0.3l1.1-1.3
				c-5.4-2.4-10.2-2.5-15.6-6.1c-2,0.5-3.3-2.2-4.2-3.3l0.4-0.4c-1.3-1.5-1-3.1-2.3-5c1.1-0.9-0.5-1.6-0.2-2.4
				c0.8-0.1,0.4-0.4,1.1-0.9c0.4-0.4-0.5-0.8-0.1-0.8c-0.4,0-0.8-0.3-1.2-0.7c0-0.4,0.3-0.8,0.3-1.2c-0.1-0.8,0.4,0,0.8-0.1
				c0-0.4-0.1-0.8-0.5-1.2c0.3-0.8,0.3-1.2,1.1-1.7c8.9,7.4,18.4,6.3,26.7,11.4c0.4,0,2.6-2.6,3-2.2c0.3-1.6,2.3-1.8,2.6-3.4
				c-0.5-1.2-2.5-2.2-3.4-2.6c-4.2-2.9-9.2-6.6-13.7-7.5c-0.5-0.8-1.5-4.9-1.5-4.9l-1.2,0.1c0,0-0.2,2.6-0.1,4l-0.8,0.1
				c-0.2-3-0.6-3.4-1.1-4.1c-0.4,0,0,0.4-1.9,0.5l-0.1-0.8c1.5-0.9,1.9,0.3,2.3-0.6c0-0.4-0.8-0.7-0.1-1.2c-1.2-0.3-2.1-1.1-2.2-2.6
				c0.4,0-0.4,0.4,0.5,0.8c0.3-1.2,0.3-0.8,0.7-1.6c-0.4-0.4-0.4,0.4-0.8-0.3c0.4,0,0.4-0.4,0-0.4c0.4-0.4,0.5,0.8,0.8-0.1
				c-0.8-0.3-0.1-1.6-1.3-1.9c0.4-0.4,0.7-1.6,1.9-1.3c0-0.4-0.5-0.8-0.5-1.2c0.4,0,1.2,0.3,1.6-0.5c0.4-0.4,0.4-0.4-0.5-0.8
				c1.2-0.1,0.8-0.5,0.7-1.2c0.4,0.4,1.2,0.7,2,0.7c1.7,1.1,2.9,2.2,4.5,2.1c4.6,3.7,14.2,8.2,14.2,8.2l0-0.4c0,0,2.5,2.6,4.2,2.5
				l0,0.4c2.3-0.6,3.6,1.4,4.5,2.1c0.4,0.4,0.4-0.4,0.4,0c0.4,0.4,0,0.4,0,0.4l1.6,0.7c0.8,0.7,2.1,2.3,2.6,3.4
				c1.2,0.7,1.7,1.9,1.8,3.1c0.4,0.4,0.8-0.1,0.8,0.7c1.4,3.1,2.8,6.6,2.3,9.8C638.4,554.1,631.2,560.2,627.8,562.9z"/>
			<path class="st12" d="M534.4,480.4c3.6-1.9,8-3.4,10-5.6c4.8-2.8,13.9-8,19.9-11.3c2-1,4-2.3,5.2-2.4c0.8-0.1,1.3,0.7,2.1,0.3
				c0.5,0.8,1.2-0.1,0.5,0.8c1.7,0.7,2.6,2.3,4,3.5c1.7,0.7,1.6-0.5,2.6,1.5c2.2,1.9,3.3,6,4.4,9.6l-0.8,0.5c0.5,0.8,0.4,0,0.5,0.8
				c-0.4,0.4-0.4,0-0.4-0.4c-3.7,6.4-14.5,17.5-19.5,23.2c-6.6,5.8-13.2,12.9-16.9,18.9c1.3,0.7,2.8-1.8,3.7-0.3
				c2.8-1.8,7.6-3.8,8.7-6.4c3.6-1.1,5.9-4.5,10.3-6.1c3.1-3.5,14-7.6,17.9-10.7c0.5,0.8,0.8-0.5,0.9,0.8c0-0.4,0.4-0.9,0.4-0.9
				c1.6-1.3,2.8-1,4-1.5c0.9,0.4,1.7,1.1,3.3,0.6c2.3,2.7,4,3.9,6.2,5.8c0,0,0,0.4-0.4,0.4c1.4,2,1.1,3.6,3.2,4.3
				c-0.4,0.4-0.7,1.3,0.1,2.1c-1.2,0.9-2.4,1-2.7,2.7c-0.5-0.8-0.8,0.1-0.9-1.2c-6.8,3.8-19,12-25.3,17c-0.8,0.5-0.4,0-0.8,0.5
				c-3.1,2.7-7.6,3.8-10.3,6.5c-0.4,0.9-0.4-0.4-0.9-0.4c-0.8,0.1-0.4,0.4-0.8,0.9c-1.3-0.3-4,2.3-5.2,2.8c-0.4-0.4-0.4-0.4-0.4-0.4
				c-4.8,2-10.9,3.2-15.2,1c-1.2,0.5-2.1-0.7-3.8-1.4c-1.3-0.3-2.1-0.7-3-1c-3.5-2.2-5.4-6.7-8.2-11c1.7,0.3-0.4-0.4,0.7-1.3
				c-0.9-1.2-1-2.4-0.6-2.9c-0.4,0-0.9-0.4-0.9-0.8c0-0.4-0.1-0.8-0.1-0.8c-0.5-0.8,0.4,0,0.4,0c0.4-0.4,0.4-0.9-0.5-0.8
				c-0.1-1.2-0.1-1.6-0.2-2.9c2.3-3,6.5-7.9,7.9-11.3c2.4-1,1.5-3,3.5-4c0,0,0-0.4,0.4-0.4c-0.4,0.4-0.8,0.5-1.2,0.5
				c-2.1-0.7-12,6.2-14,7.1c-2.4,0.6-4.2-1-6.3-0.8c-0.9-0.4-0.9-1.2-2.2-2.3c-0.4-0.4-0.9-0.4-1.3-0.3c-0.4-0.4-0.5-0.8-0.9-1.2
				c0,0,0,0-0.4,0l-0.4,0c0,0,0.7-1.7-0.5-0.8c-0.1-0.8-0.6-2-0.6-2.9c0.3-1.3,1.4-3.4,1.8-3.8c0.4,0,2-1.4,3.9-2.7
				c1.2-0.9,2.4-1.4,3.6-2.3l-0.4,0c2.8-1.4,8.4-4.3,9.1-5.6C530.4,482.8,532.8,481.8,534.4,480.4z"/>
			<path class="st12" d="M545.5,456.4c-1.8,4.3-6.2,5.4-12,5.8c-2.1,0.1-7,0.5-9.5,0.2c-6.2,0-12.8,0.5-17.9-1.3
				c-0.1-2.1-1.8-1.9-2.7-3.5c-0.4,0-0.9-0.4-1.3-0.3c-0.9-1.2-1.8-2.8-2.8-4.4c-0.5-0.8-1.3-0.7-1.3-1.6c-0.5-0.8-0.2-2.5-1.1-3.6
				c-0.5-0.8-0.9-1.2-1.4-2.4c0-0.4-1.8-2.4-1.4-2.8c-0.9-1.2-1-3.2-1.9-4c0.4-0.9,0.7-1.7-0.5-1.6c0.4-0.4,0.4-0.9,0.3-1.7l1.2-0.1
				c1.4-4.8,3.7-8,6-12c0-0.4,0.4-0.5-0.1-1.3c1.3-0.1,1.2-0.9,2-1.4c2.1-0.6,3,0.2,4.3,1c0.4,0,0.4,0,0.4-0.5
				c0.5,0.4,0.5,0.8,0.9,1.2l0.3,0c0,0,3.4,8.7,5.9,10.6c0.6,2.4,1.5,3.9,2.7,5c0.1,1.6,1.3,1.9,1.8,3.5c0.4,0.4,0.4,0,0.8,0.3
				c0.1,1.6,1.7,1.9,2.6,2.6c0.4,0-0.1-0.8,0.8-0.5c1.6,0.3,6.8-0.5,9.1-1c0,0.4,0.8-0.1,0.5,0.8l1.6-0.5c-2.4-5.4-6.2-8.8-7.8-14.7
				c-1.7-1.1-1.3-7.3-1.3-7.3l0.6,0c-0.1-2.1,1.4-3.4,1.3-5.5c1.2-0.1,0.7-1.3,1.5-1.8c0.9,0.4,0.4,0,1.7,0.3c0.4,0-0.1-0.8,0.4-0.9
				c-0.4,0-0.5-0.8-0.5-1.2c0.4,0,0.8-0.5,1.2-0.9c0.4-0.4,0.4,0.4,0.9,0.4s0.4-0.4,0.3-1.3c0.8-0.5,1.2-0.9,2-0.6
				c2,11.4,10.3,17.5,13.4,26.8c0.4,0.4,3.7-0.3,3.8,0.6c1.6-1.3,2.9,0.2,4.5-0.7c0.7-1.3-0.3-3.7-1.1-4.5
				c-1.6-5.3-2.8-11.4-5.6-14.9c0.4-0.9-0.1-1.2-0.1-1.6c-0.4,0-0.4-0.4-0.9-0.8c-0.1-0.8,0.3-1.3,0.7-1.3c0-0.4-0.4,0-0.4-0.4
				c0.8-0.9,0.7-1.3,0.7-2.5c0-0.4,0,0.4-0.8,0.1c0-0.4,0.4-0.4,0.4-0.9c0.4-0.4,0.5,0.8,0.9,0.4c0.4-0.4-0.5-1.2,0.8-0.9
				c-0.9-1.2-0.6-2.4,0.2-3.3c0.4,0.4-0.4,0,0.1,0.8c1.2-0.5,0.8-0.5,1.6-0.9c0-0.4-0.8,0.1-0.5-0.8c0.4,0,0.4,0,0.4-0.4
				c0.4,0,0.1,0.8,0.9,0.4c-0.5-0.8,0.7-1.3,0.2-2.5c0.8-0.1,2-1,2.5-0.2c0.4,0,0.4-0.9,0.3-1.3c0.4,0.4,0.5,1.2,1.7,0.7
				c0.4,0,0.4,0,0.4-0.9c0.9,0.8,1.3,0.3,1.6-0.5c0.1,0.8,0.5,1.6,1.3,1.6c0.6,2,1.1,3.6,2,4.8c1.2,6.1,4,10.5,5.2,15.8
				c0.4,0,0.4,0,0.4-0.4c0.5,1.6,0.7,4.1,2.4,5.2c0,0.4,0,0.4-0.4,0.4c2.1,0.7,1.5,3.2,2,4.4c0,0.4,0.4,0,0.4,0.4
				c0,0.4-0.4,0-0.4,0.4l0.5,1.6c0.1,1.2,0.2,3.3-0.1,4.1c0.5,1.6,0.2,2.5-0.6,3.3c0,0.4,0.4,0.4,0.1,0.8c-1,3.4-2,7.2-4.7,9.4
				C559.6,456.7,549.7,456.5,545.5,456.4z"/>
			<path class="st12" d="M565.1,356.1c1.2,0.3,1.9-0.9,3.2-0.6c-1.5,0.9-1.8,2.9-0.6,3.2l-1.2-0.5l-0.8,0.1c1,2.5,1.9,4,0.7,4.5
				c-1.1,0.9-0.1-0.8-0.8,0.1l0.9,1.1c-2.3,1-4.6,2.3-7.3,4.5c-0.3,2-3.4,2.6-5.3,4.8l-1.1,1.9l-0.4,0c0,0-0.8-0.2-0.8,0.2
				c-2.3,1-2.6,3-4.9,3.9l-0.4,0.2l2-0.1c0.9,0.9,1.7,1.3,1.7,1.7c4.3-0.7,8.8,0.2,13.2,0.7c-1.2-0.3-0.3,1.2,0,0
				c-0.3,1.2-0.3,1.2,0.9,1.1c0,0.4,0.1,0.8,0.5,1.2l0.4,0.4c-0.3,1.2-1.1,0.9-1.5,2.1l0.3-0.8c-1.1,0.9-1.1,2.1-2.6,3
				c1.5-0.9,1.2,0.3,2,0.3c0.4,0,0.4,0,0.4,0.4c0.4,0,0.4,0.4,0.5,1.2c-0.4-0.4-0.8-0.7-0.8-0.7s0,0-0.4,0.4l0.9,1.1
				c0,0.4,0.1,0.8,0.5,1.2l0.4,0.4c-3.2,0.6-1.4,2.9-2,5.3c-0.9-1.5-1.5,2.1-2.3,1.8c-0.4,0-0.8,0.1-1.2,0.5l-0.4,0.4
				c-7.7-1.1-17.7-1.2-24.1-2l-1.2-0.3c-6.5-2-13.7-1.9-20.6-2.6c-5.3-2-10.6-3.7-15.3-2.2c-0.4,0-0.8-0.3-0.4-0.8l0-0.4l-2.9-0.2
				c0.3-1.2-0.6-3.2,0.5-4.4c0.3-2-1.2-5.9-3-9.4l0.5-4.4c0.6-3.2-0.4-5.6,1-8.9c1.5-2.1,0.5-4,1.6-5.3l0.3-1.2
				c1.5-2.1,1.7-4.9,5.5-6.8c-1.2-0.3,0.3-1.2,0.3-2c2,0.3,2.3-2.1,4.7-1.9c0.3-2,3.5-1.4,5-3.5c0.9,1.5,3.2,0.6,4.3-0.7
				c2.9,1.8,11.2,4.8,11.2,4.8l0.1,0.8l-0.4,0.4l-0.3,1.2c2.3-1,1.7,1.5,4.1,1.7l-0.3,1.2c0.9,1.1,2.9,1.4,2.6,3.4
				c1,2.3,3,2.6,5.1,4.1l0.5,2c2,0.3,2.6-3,4.6-2.7c1.5-2.1,3.5-1.8,3.7-3.8c3.2-0.6,5.8-3.6,8.1-4.5c1.8-2.9,3.7-3.8,5.2-5.9
				c1.2,0.3,0.2-2.4,2.8-1.8l0.1,1.2c1.5-0.9,1.9,0.3,3.2,0.6c-0.3,1.2-1.5,2.1-0.6,3.2c-0.4,0-0.4,0.4-0.7,0.8
				c-0.4,0.4-0.3,1.2,0.1,1.6c0.3-1.2,1.2-0.1,2.1,1.5C566.6,354,565.4,354.1,565.1,356.1z M524.2,377.1c-0.9-1.5-0.7-4.3-2.7-4.6
				c-1-2.3-3-3.4-4.8-5.3c-2.1-1.5-3.8-3.7-5.9-5.2c-3.2-0.6-5.8,2.4-8.2,3.3l-0.3,1.2c-2.7,1.8-2.3,7.3-1.3,9.7
				c5.6,0.8,10,0.1,14,0.7c3.2,0.6,6.1,2,9.7,1.3c0,0-0.4,0-0.4-0.4C524.3,377.9,524.3,377.5,524.2,377.1c0.4,0,0.4,0,0.4,0
				c0.4,0,0.4-0.4-0.5-1.2L524.2,377.1z M538.1,364.2l-0.9-1.1l-0.3,1.2L538.1,364.2z M558.6,366.8c-0.4,0-0.8,0.5-0.7,0.8
				c0.4,0,0.8-0.1,1.2-0.5c0,0,0-0.4,0.4-0.4C559,366.8,558.6,366.8,558.6,366.8z M561.1,390.6l-0.4,0c-0.4,0-0.8,0.5-0.7,0.8
				c1.1-0.9,0,0,1.2,0.3L561.1,390.6z M561.4,366.4c0,0,0-0.4,0.4-0.4c-0.8,0.1-0.8,0.1-1.1,0.9C560.6,366.8,561,366.4,561.4,366.4z
				 M560.9,346.8c1.2,0.3,1.5-0.9,0.3-1.2L560.9,346.8z M566.4,358c0,0-0.4,0-0.4-0.4C566,357.7,566,358.1,566.4,358
				c-0.3,0.8,0.1,0.8,0.5,0.8C566.8,358.4,566.8,358,566.4,358z"/>
			<path class="st12" d="M591.7,302.1c-0.3,0.8,0.1,1.1-0.3,1.5c0,0,0,0,0.4-0.4c0.4,0,0,0.4-0.3,0.8c1.3,1.8-0.4,5.4-0.3,6.5
				c-1.1,0.8-1.3,2.8-3.2,3.7l0.1,2.1c-1.6,1.8-4,2.4-5.1,5c-0.4,0-0.4,0.9-0.8,0.1c0,0.4,0.4,0.4,0.4,0.4c-0.4,0.4-0.8,0.9-1.6,0.5
				l-0.7,2.1c-2.4,1.4-4.7,4.5-7.6,5.6c-0.4,0.4,0,0.4-0.4,0.9c-2.1,0.1-3.5,3.6-6.1,2.5c-0.8,0.5,0.1,0.8-0.3,1.3
				c-0.4-0.4-0.4,0-0.9-0.4c0.1,1.3-1.2,0.5-1.6,1.4c-0.4,0.4,0.9,0.4,0.1,0.8c-1.7-0.3-2.1,0.6-3.8,0.3c0,0.4-0.4,0.4,0.5,0.8
				c-1.7-0.3-3.1-2.3-4.7-0.5c-0.9-0.8-1.7-0.7-2.1,0.6c-0.5-1.2-2.5-0.2-3-1.5c-0.8,0.1-1.3,0.1-2.1-0.7c-0.4,0-0.8,0.5-1.2,0.5
				c-6.1-2.5-11.2-4.3-16.1-8.2c-1.7-0.3-3.9-2.3-4.8-3c-6.2-4.6-8.1-7.9-11-13.1c0.8-0.5-0.1-0.8,0.3-1.3c-1.8-2-1.1-4.5-3-6.5
				c0.7-2.1-0.6-3.3-0.4-5.4c0,0,0-0.4-0.4-0.4c0.7-2.1,0.2-2.5-0.3-3.8c0.2-2.5,0.9-4.7,1.2-7.2c1.8-4.3,3.7-7.4,6-10.1
				c3.9-4.5,8.8-6.1,13.2-9.3c3.1,1.9,4.9-2,8.4-0.1c-0.4,0.4,0.1,0.8,0.1,1.3c0.8-0.9,1.6-0.5,2.5-1c0.5,1.2,1.3,1.2,2.2,1.1
				c-1.6,1.4-1,3.9-3,5.3c-2.4,1.4-5.1,5-7.5,6.8c-0.8,0.9-2,2.2-1,4.3c-1.4,4.3,0.9,6.7,0.3,10.5c1.3,1.2,1,2,1.5,3.3
				c1.7,0.7,1.4,2.4,2.7,3.2c0.5,0.8,0.4-0.4,1.3,0.3c1.5,3.7,3.4,1,5.3,4.3c3,0.6,5.3,3,8.7,4c0.4,0.4,0.5,0.8,0.9,1.2
				c2.9-0.6,4.4,2.6,6.8,1.2c1.3,0.8,2.7,2.3,3.9,1c1.3,1.2,3,1.5,3.8,0.6c0.8-0.1,0.1,0.8,0.5,0.8c2-2.2,2.2-5.2,2.8-7.8
				c0-0.4-0.4-0.4-0.4-0.4c-0.1-0.8-0.2-2.8-0.2-2.8s-2.3-9.8-6.8-10.7c-1.2-0.3-2.8-0.6-4.5-0.9c-1.9,2.1-0.9,4.5-3.2,6.2
				c0.8,0.3,0.5,1.2-0.3,2c-2.9-1-5.3,2.8-5.3,2.8l-0.1-1c-0.4,0-0.8,0.1-1.1,0.5c-0.4-0.4,0.3-1.2,0.7-1.6
				c-0.4-0.7,0.3-0.8,0.3-1.5c-0.1-1.1-0.1-1.9-0.2-3c0.1-4.2,3.3-8.3,6.1-11.5c1.5,0.3,2.1-2.4,3.7-2.2c1.4-2,3.7-1.8,5.6-2.7
				l0.8,0.3c2.6-1.3,5.5,1.5,8.5,1.7c-0.4,0.4,1.2,0.3,1.6,1c0,0.4-0.4,0.4,0,0.4c0.4,0.7,0.8-0.1,1.1-0.1c0.5,1.1,2.8,1.3,2.8,2.5
				c2.7,0.6,3.4,4.4,5.8,6.1c-0.4,0.4,0.1,0.8-0.3,1.2c2,0.6,0.6,3.8,2.5,2.9c0,0.4,0.1,0.8,0.8,0.7c-0.7,0.4,0.2,2.7,1.3,2.6
				c0.4-0.4-0.1-0.8-0.1-1.1C591.2,300.3,590.9,301.8,591.7,302.1z"/>
			<path class="st12" d="M556.2,236.5c0.4-0.4-0.1-0.8,0.3-1.2c2.2-2.9,5-3.5,7.7-3.7c1.8,2.3,4.9,1.3,5.8,3.6
				c3.2,0.6,2.3,5,4.4,6.5c-0.4,0.4-0.7,1.2-1.1,0.9c-0.3,0.8,0.1,1.2,0.1,1.6c-1.9,2.1-3.3,3.8-6.1,4.4c-1.2,0.5-2.7,1-3.9,1.9
				c-3.2-0.6-5.7-2-8.7-4.6c-0.1-0.8-0.4,0.4-0.8-0.3c0.3-1.6-2.1-2.3-2.6-2.6c-0.4-0.4,0-0.4,0.4-0.4c-0.4-0.4-0.9-1.1-0.9-1.5
				c1.1-1.3,1-2.9,2.9-4.2C554.3,237.8,555,235.8,556.2,236.5z M576,251.7c1.1-0.9,2.3-1.4,3.5-1c0.4,0,0.4,0,0.4-0.4
				c4.4,0.5,9,3,13.6,6.7c-0.4,0,1.3,1.1,1.7,1.5c1.7,1.5,3.4,3.4,5.1,4.5c1.9,3.9,10.6,9.3,12.5,13.1c-1.1,0.9-0.7,2-2.2,2.5
				c0.8,0.7,0.4,0,0.9,1.1c-1.2,0.1-3.1,1.8-4.3,1.5c0,0.4-0.3,1.2,0.1,1.6c-0.3,1.6-2.3,2.1-3.8,3.1c-1.6,0.5-1.9,0.9-2.8,0.2
				c-0.4,0.4-1.2,0.5-0.7,1.6c-0.8,0.1-1.2,0.1-1.6,0.5c-0.5-1.2-1.2-0.3-2-0.3c0-0.4-1.2-0.7-0.5-1.2c0-0.4-0.4,0-0.8,0.1
				c-3.9-4.1-10.9-13.2-15.6-17.3l-0.4,0c-1.4-2.7-5.5-4.8-6.9-7.9c-2,0.1-2.2-2.6-3.4-3c0.3-0.8,0.8-0.5,1.1-1.3
				c-0.5-0.8-0.4,0-1.2-0.3C571.4,254.1,573.6,251.5,576,251.7z"/>
			<path class="st12" d="M685.6,194.2c0-0.4,0.4-0.4,0.3-0.8c-0.4-0.4-0.1-0.8-0.5-1.6c0.4-0.4,0.1,0.8,0.8,0.3c0.4,0,0-0.4,0.3-0.8
				c-1.2,0.5-0.4,0,0-0.4c-0.4-0.4-0.4-0.5-0.4-0.5l0.4,0c0,0,1.8-9.1,2.3-13.6c1.6-0.1,0.2-2.4,1.8-2.5c2-6.1,6.6-9.2,11.1-13.1
				c1.2-0.1,2.4-0.2,3.1-1c0.5,0.8,2.8-0.6,3.2,0.6c1.2-0.1,2-0.5,2.8,0.2c0.4,0,0-0.4,0.4-0.4c0,0.4,0.8-0.1,0.5,0.8
				c1.2-0.1,2.4-0.2,2.4-0.6c0.8,0.3,1.6,0.3,2.4,0.2c0.9,1.5,2.2,3,4.2,3.7c0.1,0.8,0.5,1.6,1.3,1.5c0.1,1.2,0.5,1.6,1.3,1.5
				c0.1,1.2,2.5,1.4,1.8,2.3c1.3,1.9,2.4,5.8,3.3,7.8c0,0.4-0.4,0-0.4,0.4c1.3,1.1,1.1,4.7,2.8,5.8c0,0.4,0,0.4-0.4,0.4
				c0.9,1.9,1.9,3.9,2.5,7c-0.4,0-0.4-0.4-0.4-0.4c0.8,0.7,1.3,1.9,1.4,3.5c2.1,2.3,0.8,6.3,3,9c-0.7,1.2,1.1,3.9-0.1,4.8
				c0.8,0.7,2.1,7.1,3,8.2c-0.7,2,1.5,4.3,1.6,6.1l-0.8,0.1c1.3,1.3,0.2,3.4-0.5,4.2c-0.8,0.5-0.1-0.8-0.8-0.3
				c-0.4,0.4,0.4,0.4,0.5,1.2c-0.4-0.4-0.8-0.7-1.2-0.3c0-0.4,0.4-0.4,0.3-0.8c0-0.4-0.8,0.1-1.2,0.1c-0.3,0.8,0.4,0.4,0.5,0.8
				c-1.5,0.9-0.3,1.2-1.9,1.7c-0.4-0.4-0.5-0.8-0.5-1.2c-0.3,0.8-0.4,0.4-1.2,0.1c0,0.4-0.3,1.2-0.3,1.6c0.4,0,0.7-0.8,1.2-0.1
				c0.1,0.8-1.2,0.1-1.1,0.9c-1.2,0.1-1.2-0.7-2.5-1c0.4-0.4,0.3-1.6-0.5-2c-0.4,0.4-0.8,0.5-1.5,0.9c0.5,0.8,1.2,0.3,1.7,1.1
				c0,0.4-1.5,1.3-0.3,1.2c-0.4,0.4-1.2,0.5-1.5,0.9c0-0.4,0.8-0.1,0.3-0.8c-0.4,0.4-1.2,0.5,0.1,0l0,0.4c-3.2,1-5-1.7-5.7-0.8
				c-0.4,0,0-0.4-0.1-0.8c-2.1-1.1-2.4-5.8-3.3-7c0.4-0.4,0.3-0.8-0.1-1.2c0.4,0,0.4,0,0.4-0.4c-1.5-5.1-2.9-13-4-18.1
				c-3.1,1.4-5,3.1-8.1,4.1c-1.2,0.5-3.1,1.8-4.3,1.9c-1.5,2.1,0.8,5.9-0.6,8.4c1.2,0.7,0.5,1.2,0.1,2c-0.2,2.8,0.1,7.2-1.8,8.9
				c0,0.4,0.4,0.4,0.4,0.4c-0.4-0.4,0.1,0.8-0.8,0.5c0.5,2-1.8,2.5-2.1,3.7c-0.5-0.8-0.8,0.5-0.8-0.3c-0.4,0.4-1.6,0.1-1.5,0.9
				c-1.6-0.7-2.7,1-4-0.1c-0.3,0.8-1.2,0.1-1.6,0.5c-0.1-1.2-2.8,0.6-3.3-1c0.1,1.2-0.4-0.4-0.8,0.5c-0.4,0-0.1-1.2,0.3-1.2
				c0-0.4-0.8,0.5-0.8-0.3c0.3-0.8,0.7-0.8,1.5-1.3c-0.7-4-3.9-12.1-3.9-12.1l-0.2-2.8l2.7-0.6c0-0.4,0.3-0.8,0.3-1.2
				c-0.1-1.2-1.4-2.7-0.2-3.6c-0.5-0.8-1-2.3-0.2-2.8c-0.8-0.7-0.1-2-0.6-3.2c0.7-0.8-0.2-2.4,0.6-2.8c-0.8-0.3,0.3-1.2-0.5-1.2
				c0.4-0.4,0-0.4-0.1-1.8l0.9-0.1l-0.2-3c-0.9-0.3-0.9-0.7-0.1-0.4C686.1,195.3,686,194.5,685.6,194.2z M703.8,185
				c0.2,3.2-0.4,5.2-1.5,8.1c0.4,0,0.5,1.2,0.9,1.5c3.1-1.4,6.1-3.6,9.7-4.6c0-0.4,0.4-0.4,0.3-0.8c-2.3-4.6-3.1-10.2-5.4-14.8
				c-0.3,1.2-1.9,1.7-1.3,3.7C705,179.7,705.2,183.3,703.8,185z"/>
			<path class="st12" d="M790.7,242.2c-0.8-0.4-1.2,0.5-2,0.1c0,0,0,0,0.4,0.4c0,0.4-0.4,0-0.8,0.1c-1.5,1.7-5.7,0.8-6.9,1.3
				c-1.3-1.1-3.3-0.6-4.7-2.5c0,0-0.4,0-0.4,0.4c-2.1-1.1-3.1-3.5-5.6-4.1c0-0.4-0.8-0.4-0.5-0.8c-0.4,0,0,0.4-0.4,0.4
				c-0.4-0.4-0.8-0.4-0.9-1.2l-1.7-0.7c-2.2-1.9-5.1-3.3-6.9-6.1c-0.4-0.4-0.4,0-0.8,0.1c-0.5-2-4.3-2.6-3.6-5.5
				c-0.8-0.4-0.8,0.5-1.2,0.1c0.4-0.4,0-0.4,0.4-0.8c-1.2,0.1-0.9-1.2-1.7-1.1c-0.4-0.4,0.1,0.8-0.8,0.5c-0.1-1.6-1-2-1.1-3.6
				c-0.4,0-0.8-0.4-0.8,0.5c-0.1-1.6,1.4-3.4-0.3-4.5c0.4-0.8,0.3-1.7-0.9-1.6c0.8-0.9-0.6-2.4,1-2.9c-0.5-0.8-0.5-1.2-0.2-2.4
				c-0.4-0.4-0.9-0.8-0.9-1.2c1.2-6.2,1.7-11.6,4.2-17c-0.1-1.6,0.9-4.2,2.1-5c2.8-7.1,5.5-9.4,10.1-13.4c0.8,0.4,0.8-0.5,1.2-0.1
				c1.5-2.1,3.9-2.3,5.4-4.5c2.1,0.3,3.2-1.4,4.8-1.6l0.4-0.4c2.1,0.3,2.4-0.2,3.6-1.1c2.4-0.2,4.5-0.3,7.3-0.5
				c4.6,0.9,7.9,1.9,10.9,3.8c5.1,2.5,7.8,6.8,11.3,10.3c-1,3.3,2.7,3.9,1.7,7.6c-0.4,0-0.8,0.1-1.2,0.5c0.9,0.8,0.9,1.6,1.4,2
				c-1.2,0.5-0.7,1.3-0.6,2.5c-1.7-1.1-4.1-0.1-5.4-1.7c-2.2-1.9-6-3.7-8.1-5.6c-0.9-0.8-2.6-1.5-4.5-0.1c-4.5-0.5-6,2.4-10,2.7
				c-0.7,1.3-2,1.4-2.7,2.2c-0.3,2.1-1.9,1.8-2.7,3c-0.4,0.8,0.4,0.4,0.1,1.2c-3.1,2.3-0.6,3.3-2.9,5.9c0.2,3.3-1.6,5.8-1.9,8.7
				c-0.3,1.2-0.7,1.3-1.1,1.7c1,2.4-1.3,4.6,0,6.5c-0.7,1.7-1.4,3-0.1,4.1c-0.7,1.7-0.6,3.3,0.3,4.1c0.1,0.8-0.8,0.1-0.4,0.8
				c2.6,1.5,5.4,0.9,8.2,0.7c0.4,0,0.4-0.4,0.4-0.4c0.4-0.4,1.6-0.1,2.4-0.6c3.1-2.3,9.1-4.7,9.2-9.6c-0.1-1.2-0.3-4.4-0.4-6.1
				c-2.6-1.1-4.7-0.1-7.4-2.1c-0.4,0.9-1.2,0.5-2.1,0.1c0.2-3.4-3.7-4.5-4.8-7c0.4-0.5,0.9-0.1,0.8-0.5c-0.5-0.4-0.1-0.9-0.9-0.8
				c0.4-0.5,1.3,0.3,1.7,0.3c0.4-0.9,0.9-0.1,1.7-0.1c1.3-0.1,2.1-0.6,3.4-1.1c4.7-0.7,9.9,1.5,14,3.8c0.1,1.7,3.1,1.9,3.2,3.6
				c2.6,1.1,2.8,3.7,4.6,5.3l-0.4,0.9c1.9,2.4-0.4,6,0.2,9.8c-0.5-0.4,0.1,1.3-0.7,2.2c-0.4,0-0.4,0-0.4,0c-0.4,0.9,0.1,0.9,0.5,1.2
				c-1.2,0.5-0.7,3-1.9,3.6c0.2,3.4-3.9,5-5.1,7.6c-0.4,0-1,0.1-1.4,0.1c0.2,2.4-3.6,1.5-2.2,3.4c-0.4,0.4-0.8,0.1-0.8,0.9
				c-0.9-0.8-2.8,1-2.3,1.8c0.4,0.4,0.8-0.5,1.2-0.5C792.3,240.9,790.7,241.4,790.7,242.2z"/>
			<path class="st12" d="M824.9,227.1c-1.5-3.9,1.1-8.1,4.4-11.9c1.5-1.3,4.8-5.1,6.4-6.4c4.5-3.9,9-9,13.2-10.9
				c1.7,1.5,2.8,0.2,4,0.5c0.4,0,0.8-0.5,0.8-0.5c1.6,0.3,2.8,0.6,4.9,0.9c0.8,0.3,1.6-0.1,2,0.3c1.2,0.3,1.7,1.5,2.9,1.8
				c0.8,0.3,1.6,0.3,2.4,0.6c0.4,0,2.8,0.6,2.9,1.4c1.6-0.1,2.9,1.8,4.1,1.3c0.5,0.8,0.9,1.5,1.6,0.7c0,0.4,0.5,1.2,0.9,1.5
				l-0.4,0.4c1.9,3.9,2.5,7.8,3.6,11.7c0.4,0.4,0,0.4,0.8,0.7c-0.7,0.8-0.3,1.2-0.7,2c-1.1,1.7-2.3,1.8-3.5,1.8
				c-0.4,0-0.4,0.4,0,0.4c-0.4,0-0.8-0.3-1.2-0.3l-0.3,0.8c-3.2,0.2-6.9-2.3-10.1-2.1c-2.1-1.5-3.7-2.1-5.3-1.6
				c-1.3-1.1-2.4-0.6-3.7-1.3c-0.4,0-0.4,0.4-1.2,0.5c-1.3-1.1-2.4-0.2-3.6-0.2c-0.4,0.4,0.5,0.8-0.3,1.2c-1.5,0.9-4.8,5.1-5.9,6.8
				c-0.4-0.4-0.4,0.4-0.8,0.1l-1.1,1.3c5.4,2.4,10.5,2.1,15.9,5.3c2-0.5,3.3,2.2,4.6,3.3l-0.3,0.8c1.7,1.5,1.4,3.1,2.7,4.6
				c-1.1,0.9,0.5,1.6,0.2,2.4c-0.8,0.1-0.4,0.4-1.1,0.9c-0.4,0.4,0.5,0.8,0.1,0.8c0.4,0,0.8,0.3,1.2,0.3c0,0.4-0.3,0.8-0.3,1.2
				c0.1,0.8-0.4,0-0.8,0.1c0,0.4,0.1,0.8,0.5,1.2c-0.3,0.8-0.3,1.2-1.1,1.7c-8.9-7-18.8-5.5-27.1-10.2c-0.4,0-2.2,2.5-3,2.2
				c-0.3,1.6-2.3,1.8-2.6,3.4c0.5,1.2,2.5,2.2,3.8,2.5c4.6,2.9,9.2,6.2,14.1,7c0.5,0.8,1.2,0.7,1.1-1.1l1.2-0.1
				c0.6,2.5,0.6,3.3,0.7,4l0.8-0.1c0.1,1,0.5,1.3,0.9,2.1c0.4,0,0-0.4,0.4-0.4c0,0.4,0,0.4,0.5,0.8c0.1,0.8-0.4-0.4-0.8,0.5
				c0,0.4,0.8,0.7,0.1,1.2c1.2,0.3,2.1,1.1,2.1,2.3c-0.4,0,0.4-0.4-0.5-0.8c-0.3,1.2-0.3,0.8-0.7,1.6c0.4,0.4,0.4-0.4,0.8,0.3
				c-0.4,0-0.4,0.4,0,0.4c0,0.4-0.5-0.8-0.8,0.1c0.8,0.3,0.1,1.6,1.3,1.9c-0.3,0.8-0.7,1.6-1.5,1.7c0,0.4,0.5,0.8,0.5,1.2
				c-0.4,0-1.2-0.3-1.6,0.5c-0.4,0.4-0.4,0.4,0.5,0.8c-1.2,0.1-0.8,0.5-0.7,1.2c-0.8-0.3-1.2-0.7-2-0.3c-1.7-1.1-3.3-1.8-4.5-2.1
				c-5-3.3-9.5-4.6-14-7.8l0,0.4c-1.3-0.7-3-2.6-4.1-2.1l0-0.4c-2.8,1-4.2-1.3-5.4-1.6c-0.4-0.4-0.4,0.4-0.4,0c-0.4-0.4,0-0.4,0-0.4
				l-1.6-0.7c-0.8-0.7-2.1-1.9-2.6-3.4c-1.2-0.7-1.7-1.9-1.8-2.7c-0.4-0.4-0.8,0.1-0.8-0.3c-1.4-3.1-3.2-6.2-2.7-9.8
				C814.3,236.6,821.5,230.1,824.9,227.1z"/>
			<path class="st12" d="M919.2,302.9c-3.4,2.2-7.3,3.7-9.6,6.2c-4.6,3.1-13,8.1-18.4,11.6c-1.9,0.9-3.4,2.6-5,2.3
				c-0.8,0.1-1.2-0.7-2,0.1c-0.5-0.8-1.2,0.1-0.8-0.7c-1.6-0.7-2.5-2.2-3.8-3.3c-2-0.7-1.5,0.9-2.5-1.4c-2.1-1.9-3.2-5.8-4.6-8.9
				l0.8-0.5c-0.5-0.8-0.4,0-0.5-0.8c0.4-0.4,0.4,0,0.4,0.4c3.2-6.2,13.2-17.7,17.6-23.2c6-6,12.3-12.8,15.5-19
				c-1.2-0.3-2.7,1.8-3.6,0.6c-2.7,1.8-7.3,4.1-8.3,6.6c-3.5,1.4-5.7,4.4-10,6.3c-3,3.4-13.1,7.7-16.8,11.1
				c-0.5-0.8-0.8,0.5-1.2-0.3c0,0.4-0.3,0.8-0.3,0.8c-1.1,1.3-2.7,1-3.9,1.5c-0.8-0.3-2.1-1.1-3.2-0.6c-2.1-2.3-4.2-3.3-6.3-5.2
				c0,0,0-0.4,0.4-0.4c-1.3-1.9-1.4-3.5-3.1-4.2c0.4-0.4,0.7-1.2-0.1-2c1.1-1.3,2.3-1,2.2-2.5c0.5,0.8,0.8-0.1,0.8,0.7
				c6.1-4,17.9-12.4,23.6-17.6c0.8-0.5,0.4,0,0.8-0.5c3-2.6,7.3-4.1,9.9-7.1c0.3-0.8,0.4,0.4,0.8,0.3c0.8-0.1,0.4-0.4,0.7-0.8
				c1.2,0.3,3.8-2.3,5-3.1c0.4,0.4,0.4,0.4,0.4,0.4c4.6-2.3,10.1-3.9,14.7-1.8c1.2-0.5,2,0.7,3.7,1c1.2,0.3,2.4,0.6,2.9,1
				c3.3,2.2,5.6,6,8.3,10.2c-1.6-0.3,0.4,0.4-0.7,1.2c0.9,1.1,1.3,1.9,0.6,2.8c0.4,0,0.8,0.3,0.8,0.7c0,0.4,0.1,0.8,0.1,0.8
				c0.5,0.8-0.4,0-0.4,0c-0.4,0.4-0.3,0.8,0.5,0.8c0.5,1.2,0.1,1.6,0.2,2.8c-2.2,3.3-5.9,8-7.2,11.3c-2.3,1-1.4,2.9-3.3,4.2
				c0,0,0,0.4-0.4,0.4c0.4-0.4,0.8-0.5,1.2-0.5c2,0.3,11.1-6.7,13.1-7.3c2.4-0.6,4,0.5,6,0.4c0.8,0.3,1.3,1.1,2.1,1.9
				c0.4,0.4,0.8,0.3,1.2,0.3c0.4,0.4,0.5,0.8,0.9,1.1c0,0,0,0,0.4,0c0,0,0,0,0.4,0c0,0-0.7,1.6,0.5,0.8c0.1,0.8,0.5,2,0.6,2.8
				c-0.3,1.2-1.4,3.3-1.7,3.7c-0.4,0-1.9,1.3-3.8,2.7c-1.1,0.9-2.3,1.8-3.4,2.6l0.4,0c-2.7,1.4-7.7,4.5-8.8,5.8
				C922.6,300.6,920.3,301.6,919.2,302.9z"/>
			<path class="st12" d="M968.9,369c-1.6,0.5-1.4,2.5-2.6,3.4c-0.8,0.5-0.8-0.3-1.2-0.3c-0.7,0.9-1.9,1.7-2.4,0.2
				c-0.8,0.1-0.3,1.2-1.5,0.9c0.2-3.2-0.2-8.4-2.4-11.5c-0.1-1.6-0.9-1.9-1.8-3.1c-1.5-3.9-2.1-7.1-4.3-9.4
				c-4.3,2.3-6.7,2.5-10.9,4.8c-1.3-0.7-1.9,0.9-3.6,0.6c0.1,0.8-1.2,0.5-0.7,1.7c-0.4-0.4-1.7-0.7-2,0.1c-0.4-0.4-1.2,0.1-1.3-0.7
				c-1.9,0.9-5,2.8-6.3,2c-1.1,0.9-3.6,1-5.5,2.4c-0.4,0.4-0.8-0.3-1.2-0.3c-2.3,1.8-7.8,2.9-11.1,3.2c-0.7,1.3-3.2,1-5.9,2
				c-1.6,0.5-3.6,1-4.4,0.7c-1.1,0.9-2,0.1-3.6,0.6c0.3-1.2-0.8-0.3-1.3-0.7c-0.1-0.8-0.1-1.6-0.2-2.4c-0.8,0.1-0.9-0.7-1.7-0.7
				c-0.5-1.2-0.1-1.6,0.6-2.5c0.8-0.5,0.4,0.4,0.8,0.3c0.7-0.9-2.2-2.3-1.4-2.7c0.3-0.8-0.8,0.1-0.8-0.3c-0.1-0.8-0.1-1.2,0.3-1.6
				c-0.9-1.1-1.1-4,0.5-4.5c-0.5-0.8,0.3-0.8,0.3-1.6c2.7-2.2,9.9-3.1,12.6-3.7c6-0.4,12.3-2.4,17.8-4c4.3-1.5,11.5-2.4,16.2-4.3
				c0.8-0.5,1.1-1.3,2.4-0.6c1.1-0.9,3.2-1,5.1-1.6c0.4-0.4-0.1-0.8,0.7-0.9c-0.8-0.3-0.8-0.3-0.9-0.7c-0.1-0.8,0.7-1.3-0.1-1.6
				c-0.4-0.4,0.4-0.4,0.3-1.2c-1.4-2.7-0.8-5.6-1.3-8c0.4-0.4,0.8-0.5,1.5-0.9c0-0.4-0.1-0.8-0.1-1.6c0.4,0,0.4-0.4,0.8-0.5
				c-0.4-0.4-0.1-0.8-0.1-1.2c0.8-0.1,1.1-1.7,2.3-1c1.1-0.9,1-2.5,2.6-2.6c0.3-0.8-0.4-0.4-0.1-1.2c1.6,0.3,2.3-1.4,4.4-1.1
				c0,0.4-0.8,0.5,0.1,0.8c1.2-0.1-0.5-1.2,0.7-1.3c0.9,0.7,1.3,1.9,1.8,3.5c-0.3,1.2-0.6,2.5-0.1,4c-0.7,1.3-0.2,2.8-0.9,4.1
				l0.6,3.2c0,0.4,0.4,0,0.4,0.4c3.4,9,7.5,16.4,10.9,25c1.3,1.5,2.6,3.4,2.4,5.5c-0.3,0.8-1.5,1.7-0.6,3.3
				c-0.8,0.5-0.7,1.3-0.6,2.5c-1.5,1.3-1.8,3.7-3.3,5.5C968.5,369,968.9,369.4,968.9,369z"/>
		</g>
		<g>
			<path class="st3" d="M623.8,290.2l5.9,51.5l-20.4,53.3l11.6,12L607.3,442l17.1,10.8l5,26.8c0,0,14,29.8,15.7,30.9
				c1.7,1.1,38.7,22.6,38.7,22.6l49.1-6.5l16.2-8.3l19.1-7.3l12.8-5.7c0,0-8.3-15.8-6.2-15.6c2.4,0.2,23.1-1.6,23.1-1.6
				s6.4-35.2,7.6-34.9s51.1-0.7,51.1-0.7l12.1-27.2l-37.2-24.3c0,0-15.8-33.3-16.3-34.5c-0.1-1.2-3.3-48.9-3.3-48.9
				s5.2-47.1,4.8-47.5c4.1-16.3,11.3-45.5,12.6-50.4c1.2-6.5-11-14.4-11-14.4l-56.4,41l0,0c0,0-26.8,23.4-29,25.9
				c-2.6,2.6-42.7,6.9-42.7,6.9l-18.6-20.7c-7.5-10.3-20.3-27.8-20.3-27.8l-25.6-24.6c0,0-8.1,21.7-8.8,23
				C616.2,230.4,621.3,270.4,623.8,290.2L623.8,290.2z"/>
			<path class="st13" d="M797.3,369.2c-2.8-18.2-6.1-36.7-14.8-52.9c-8.7-16.2-24-29.9-42.5-32.3c-4.4-0.5-9.2-0.2-13.6-0.3
				c-22.7,1.1-62.1,3-70.7,29.9c-2,6.5-1.4,14.1-0.6,20.8c0.8,6.3-1.6,12.1-1.5,18.5c0.1,7.2,2.5,13.8,6.1,20
				c7.6,11.5,20.4,18.2,31,26.7c8.5,7,14.1,13.8,24,18.8c10.3,5.3,21.8,8.9,33.1,11.3c14.6,3.4,29.5,5.2,44.8,6.2
				c19.3,1.5,53.2,6.8,32.8-22.6c-7.1-10.3-12.6-21.1-18.2-32.3c-2.3-4.6-4.2-9.3-6.5-13.9c-4.2-8.5-8.3-17-12.9-25.5
				c-15-27-38.7-52.9-69.3-55.6c-8.9-1-18.3,0.4-27,2.2c-0.8,0.1-2,0.5-2.8,0.6"/>
			<path class="st13" d="M679.8,463.1c5.8,2.8,12.6,2.7,19.4,2.7c7.6-0.1,15.2-0.2,22.8-0.3c6,0,12.4,0,17.8,2.8
				c9.5,4.9,12.4,18.3,8.3,28.6c-4.1,9.9-13.6,16.9-23.8,20.8c-17.1,6.8-37.2,5.7-54.1-2.3c-16.9-8-29.9-23.1-35.5-40.7
				c-1.5-4.7-2.7-10.2-1.4-15.1c1-3.7,2.7-7,3.3-11c0.5-4-1.4-8.3-5-9.2c-2.4-0.6-5.1,1.1-7.6,0.5c-6-0.8-5.9-10-3.9-15.7
				c2.6-8.2,5.3-15.9,8.4-24.1c0.7-2,1.3-4.1,0.8-6s-1.4-3.5-1.9-5.1c-1.2-5.5,4.9-10.7,10-11.5c6.7-0.9,7,2.7,11.3,8
				C666,407.2,651.4,450.2,679.8,463.1z"/>
			<path class="st14" d="M794.6,317.9c2.8-5.4,3.1-13.4,3.9-19c1.4-8.9,3.2-17.8,4.6-27.1c1.1-7.3,2.6-14.6,2.5-22.1
				c0-5.6-0.4-11.6-1.6-17.1c-6.3,8-9.6,17-14.2,26.1c-5.6,11.6-14.1,21.3-19.4,32.5c-1,2.5-2.1,4.9-2.3,7.3
				c-0.1,4.8,3.8,8.9,7.6,11.9c4.2,2.9,8.7,5,11.8,8.4c0.5,0.8,1.3,1.5,1.7,1.9c1.2,0.7,3.2-0.2,3.9-1.5
				C793.9,318.7,794.3,318.3,794.6,317.9z"/>
			<path class="st15" d="M762.1,309.1C762.5,309.1,762.5,309.1,762.1,309.1c3.6,0.6,7.2-0.1,9.4-2.6c1.5-1.7,2.1-4.1,2.8-6.6
				c1.6-6.1,4-11.9,6.4-17.6c7.7-16.5,19.5-31.3,25.9-48.5c0.7-1.6,1-3.7-0.3-4.8c-1.3-1.1-3.6-0.2-5.1,1.1
				c-6.5,4.8-12.1,10.8-18.5,15.2c-6.9,4.9-14.1,9.7-21,14.6c-8,6.1-14.2,14.5-23.5,18.8c-9.3,4.2-20.5,3.4-30.8,4.9
				c-5.5,0.8-10.6,2.3-15.7,4.3c-1.9,0.9-4.2,2.3-4.1,4.7c5.6,0.4,11.1-1.5,16.6-3.1c7.1-2.1,14.2-2.6,21.4-2.2
				c2.4,0.2,4.8,0.5,6.9,1.1c2,0.7,3.7,2.1,5.4,3.6C746.2,298.6,751.2,307.8,762.1,309.1z"/>
			<path class="st14" d="M631.5,233.8c-4.2,3.1-4.6,8.7-4.7,13.9c0.3,27.9,11.7,55.1,12.8,83c0.4,6,0,12,1.2,17.9
				c1.2,5.9,4.4,11.7,9.8,14.5c4.7-1.9,5-8.3,5.1-13.1c-0.4-12.4-0.6-26.7,6.6-37.6c5.5-8,18.3-13.2,15.1-25
				c-2.7-10.6-13.9-23-20.2-32.2C654.8,252.6,636.5,229.9,631.5,233.8z"/>
			<path class="st15" d="M657.6,276.8c8,11.4,18.7,21.9,32.4,24.2c0.2-2.8-1.6-5.5-3.7-7.7c-3.9-4.5-7.8-9.1-11.3-14
				c-3.9-4.9-7.8-9.5-12.5-13.5c-2.1-1.9-4.6-3.3-6.4-5.6c-6-6-7.4-15.1-13-21.5c-2.2-2.6-9.7-8.1-13-3.5c-2.2,3.3,4.4,5.3,6.5,7.6
				C645.1,251.6,650.1,266.1,657.6,276.8z"/>
			<path class="st16" d="M749.3,438.8c0.8-0.1,2-0.1,2.8-0.6c9-2.2,17.9-0.8,27.3,1.8c2.8,0.6,6.1,2,7.5,4.7
				c8.1,19-43.9,7.4-49.6,5.7c-5.3-1.2-12.2-2.8-15.3-7.8C727.6,437.8,741.8,440.1,749.3,438.8z"/>
			<g>
				<g>
					<path d="M645,456.2c-1.3-7.5-3-15-4.3-22.5c-0.1-1.2-1.3-1.9-2.5-1.4c-5.5,1.6-11,3.1-16.5,4.7c0.8,0.7,1.7,1.5,2.5,2.2
						c3.4-15,8.4-29.7,15-43.8c0.7-1.2-0.2-2.4-1.4-2.7c-4.5-1.7-9.3-1.8-14.1-1c0.1,1.2,0.6,2.4,0.6,3.6c2.3-1,2.9-3.8,4-5.9
						c1.3-4.1,2.7-7.8,4-11.9c3.3-11,7.7-22.1,9.7-33.4c0.6-2.4-3-3-3.6-0.6c-2.1,10.1-5.8,20-8.8,29.8c-1,3.3-1.9,6.9-2.9,10.2
						c-0.3,1.2-1.8,8.1-3.4,8.6c-1.9,0.9-1.3,4.1,0.6,3.6c4.3-0.7,8.8-0.2,12.9,1.1c-0.5-0.8-0.9-1.9-1.4-2.7
						c-6.6,14-12,29.2-15.4,44.6c-0.3,1.6,1,2.3,2.5,2.2c5.5-1.6,11-3.1,16.5-4.7c-0.8-0.3-1.7-1.1-2.5-1.4c1.3,7.5,3,15,4.3,22.5
						C642,458.8,645.5,458.6,645,456.2L645,456.2z"/>
				</g>
			</g>
			<g>
				<g>
					<path d="M689.7,291c11.2-5.2,23.5-7.2,35.6-5.6c12.1,1.6,23.2,6.8,34,12.5c2.1,1.1,3.8-2.3,1.8-3.3c-11.2-6-23.2-11.6-36-12.7
						c-12.5-1.6-25.1,0.5-36.4,5.7C686.4,288.4,687.8,291.9,689.7,291L689.7,291z"/>
				</g>
			</g>
			<g>
				<g>
					<path d="M736,283.9c24-18,47.9-36.4,71.8-54.4c-0.8-0.3-2.1-1.1-2.9-1.4c2.1,19.8-2.1,39.3-6,58.7c-3.5,19-5,37.9-0.5,57.2
						c0.6,2.4,4.1,0.9,3.5-1c-9-38.9,10.9-75.8,6.6-114.7c-0.1-1.2-1.8-2.3-2.9-1.4c-24,18-47.9,36.4-71.8,54.4
						C731.9,282.1,734.1,285.2,736,283.9L736,283.9z"/>
				</g>
			</g>
			<g>
				<g>
					<path d="M752.9,338.7c6.6,21.1,24.9,37.9,41.1,52c17,15.2,35.9,28.7,55.8,39.8c2.1,1.1,3.8-2.3,1.8-3.3
						c-19.1-11.1-37.2-23.9-53.7-38.3c-16.1-14.1-34.8-30.8-41.4-51.5C755.9,335.3,752.3,336.3,752.9,338.7L752.9,338.7z"/>
				</g>
			</g>
			<g>
				<path class="st3" d="M729.2,372.6c2-5.3-0.4-11.2-3.4-15.3c-3.1-4.2-10.4-6.1-15.2-6.2c-8,0.1-15.1,7-15.8,14.7
					c-0.2,2.4,0.3,4.8,1.7,7.1c2.8,5.4,8.2,9,14.2,9.8c6,0.8,12.2-2,15.9-6.7C727.8,375.1,728.5,373.9,729.2,372.6z"/>
				<g>
					<path d="M730.9,373.3c2.7-7.4-1.2-17.1-7.8-21c-5.8-3.2-13.5-4.3-19.7-1.5c-6.6,3.2-11.3,10.4-10,17.9
						c1.3,7.5,8.1,13.8,15.8,15.3C717.7,385.8,727.4,381.5,730.9,373.3c1.1-2.1-2.3-3.8-3.3-1.8c-2.4,5.8-9,9.4-15.3,9.4
						c-6,0-11.9-4-14.2-9.4c-2.8-5.8,0-12.4,4.9-15.9c4.6-3.1,10.6-3.1,15.5-1c3.3,1,5.4,2.8,6.8,5.5c2.2,3.4,3.3,7.8,2,11.9
						C726.5,374,729.8,375.4,730.9,373.3z"/>
				</g>
			</g>
			<g>
				<g>
					<path d="M718.3,364.2c-2,0.5-3.4,2.2-4.1,4.3c-0.7,2-0.1,4.4,1.6,5.9c0.5,0.8,1.6,0.7,2.4,0.2c5-2.7,4.8-11.1-0.1-13.6
						c-1.2-0.7-2.4,0.2-3.1,1c-0.8,0.5-1.1,1.3-1.9,2.1c-0.7,1.6-1,3.7,0.3,5.2c0.9,1.5,3,2.6,4.9,1.7c1.6-0.5,2.6-2.2,2.5-3.8
						c-0.1-0.8-0.5-2-1-2.3c-0.5-0.8-1.6-0.7-2.4-0.6c-0.4,0.4-0.8,0.5-1.1,0.9c-1.5,1.7-1.7,3.7-0.4,5.6c0.5,0.8,1.7,1.1,2.4,0.6
						c0.8-0.5,1.1-1.7,1.1-2.5l0-0.4l0,0l0,0l0,0l0-0.4l0-0.4l0,0l0-0.4l0,0l0,0l0,0l0,0.6l-2,0.1c0,0-0.5-1.4-0.1-1l0,0l2.1-0.1
						l0,0l0,0l0,0l0,0.4c0,0-1.7-0.3,0,0l0,0.4c0,0-1.7-0.3-2.1,0.1s-0.3-3.8-0.3-3.8l0,0l0,0l-0.4,0l0.4,0l0,0l0,0l-0.4,0l0,0l0,0
						c0,0,0.3,3.8-0.2,3.4c0.4,0.4-1.1,0.1-1.1,0.1l0,0l0-0.4l0,0l0-0.4l0,0l0-0.4l0,0c1.1-0.1,4-0.7,4-0.7l-4,0.3
						c0,0,1.5-0.1,1.9-0.5c0,0,0,0,0.4-0.4c0.4-0.4-0.4,0,0,0C717.5,364.2,717.8,363.8,718.3,364.2c-0.8-0.3-1.6-0.3-2.4,0l0.4,0
						c0,0-0.4-0.6,0-0.2l0.4,0.4c0.4,0.4-1.5,0.1-1.5,0.1l0,0.4c1.5-0.1,1.9,0.3,0.1,0.8l0,0l0,0l0,0.4l0.1,0.8l0,0l0,0.4l0.1,0.8
						l0,0.4l0,0l0.1,0.8l0,0.4c0,0,1.5,0.3,0,0l0,0l0,0.4l0,0.4l0,0l0,0c0,0,1.5-0.1,1.1,0.3c0,0,0,0-0.4,0.4c-0.4,0.4,0.4,0,0,0
						s-0.4,0.4-0.8,0.5c0.8-0.1,1.6-0.1,2.4,0.2c0.4,0.4-2.3,0.2-2.3,0.2l0-0.4l0,0l0-0.4l0,0l-0.1-0.8l0,0l0-0.4l0-0.4l0-0.4l0,0
						c2.3-0.2,2.3-0.6,2.7-0.6c0,0,0-0.4,1.2-0.5l0,0l0,0l-0.8-4.1l0,0l0.4,0l0.4,0l0,0l0.4,0c1,3.3,1.8,2.5,1.3,1.3
						C720.2,364,719.4,363.7,718.3,364.2L718.3,364.2z"/>
				</g>
			</g>
			<g>
				<path class="st3" d="M775.3,351.1c-2.7,7,2.7,15.8,10,17.3c4.5,0.9,9.5-1,12.1-4.8c2.5-3.8,3-9,0.3-12.8
					c-1.3-1.9-3.5-4.2-5.9-4.8c-1.6-0.7-3.7-1-5.7-1.2c-1.2-0.3-2.4-0.2-3.2-0.2C780.1,345.2,776.3,348.3,775.3,351.1z"/>
				<g>
					<path d="M773.7,350.8c-1.7,4.9-0.1,10.4,3,14.2c3.5,4.2,8.8,6.2,14.3,5c5.9-1.2,10-6.3,10.4-12.3c0.4-6.4-4-12.1-10.1-14.1
						c-3.3-1-7.7-1.9-11.2-0.4c-2.7,1.4-5.3,4-6.7,6.8c-0.3,0.8-0.3,2,1,2.3c0.8,0.3,2,0.3,2.3-1c0.7-2,2.5-3.8,4.5-5.1
						c2.3-1.4,4.7-0.7,7.2-0.1c4.9,0.9,9.1,4.6,9.4,9.7c0.3,4.4-3,8.2-7.3,9.7c-3.9,1.1-8,0.1-10.6-2.9c-3-3-4.1-7.7-2.8-11.8
						c0.3-0.8-0.5-2-1.4-2.3C774.8,349.2,774,349.6,773.7,350.8z"/>
				</g>
			</g>
			<g>
				<g>
					<path d="M843.4,436c-9.2,5-20.8,5.4-31.2,4.9c-12-0.4-23.7-2-35.4-4s-23.8-4-35.3-8.4c-13.5-5.1-26-12.2-37.4-21
						c-2.1-1.5-4.3,1.5-2.6,3c12.2,9.2,25.5,16.7,39.8,22.1c11.5,4,23.6,6.4,35.7,8.4c12.1,2,24.2,3.6,36.6,3.9
						c10.8,0.1,21.9-0.7,31.6-5.7C847.9,438.1,845.7,435.1,843.4,436L843.4,436z"/>
				</g>
			</g>
			<g>
				<g>
					<path d="M694.5,409.3c3.7,6.9,6.6,14.3,11,20.8c4,5.7,9.6,11.7,16.5,13.3c3.6,0.6,8,0.3,11.6-0.4c4.4-0.3,8.7-1,13.5-1.7
						c9.1-1.4,17-2.3,25.9-0.6c2.4,0.2,3-3.4,0.6-3.6c-7.3-1.1-14.1-1.4-21.6-0.1c-8.3,1.4-16.6,2.7-25,2.9
						c-16.7,0.7-23.4-20.4-29.8-32.3C696.3,405.2,693.2,407.4,694.5,409.3L694.5,409.3z"/>
				</g>
			</g>
			<g>
				<g>
					<path d="M647.5,351.4c-7.7-19.9-11.9-40.7-15-61.7c-1.5-10.3-2.6-20.2-3.7-30.5c-1.1-10.3-2.2-20.2,0.7-30.4
						c-1.2,0.5-2,0.5-3.1,1c16,12.1,28.2,27.7,39.7,44.1c9.7,12.9,19.9,28.6,37.3,31c2.4,0.2,3-3.4,0.6-3.6
						c-18.2-2.8-29-21.2-38.7-34.9c-10.6-14.5-21.9-28.5-36.6-39.5c-1.2-0.7-2.8-0.2-3.1,1c-2.6,9.4-2.3,18.9-1.3,28.5
						c1.2,11.1,2.3,22.2,3.8,33.3c3,21.4,7.3,42.7,15,62.9C644.9,354.7,648.4,353.7,647.5,351.4L647.5,351.4z"/>
				</g>
			</g>
			<g>
				<g>
					<path d="M689.8,344.5c5.6-5.2,13.1-6.9,20.4-5c6.9,1.9,12.8,6.7,18.8,11.5c1.7,1.5,4.3-1.1,2.6-3c-6.3-5.2-13.1-10.7-21.6-12.5
						c-8.1-1.8-16.7,0.7-22.7,6.7C685.3,343.6,687.9,346.2,689.8,344.5L689.8,344.5z"/>
				</g>
			</g>
			<g>
				<g>
					<path d="M732.7,347.4c-4.8-5.7-9.2-11.8-13.9-17c-4.7-4.9-9.8-9.3-15.6-12.5c-0.4-0.4-1.2-0.3-2,0.1
						c-9.2,5.8-19.1,12.9-19.5,24.9c-0.2,2.4,3.7,2.1,3.6-0.2c0.1-10.4,10.1-16.7,18.1-21.6c-0.8,0.1-1.2,0.1-2,0.1
						c12,6.8,20,17.8,28.7,28C731,351.5,734,349.3,732.7,347.4L732.7,347.4z"/>
				</g>
			</g>
			<g>
				<g>
					<path d="M684.8,336.1c-1,2.9-1.6,6.1-0.9,9.7c0.1,0.8,0.5,1.2,1.3,1.5c0.8,0.3,1.6-0.1,2-0.5c1.5-1.7,2.1-3.7,2.4-6.2
						c-0.1-0.8-0.5-2-1.4-2.3s-2,0.5-2.3,1.4c0,0.4-4.2,1.5-4.2,1.5l0,0.4l0,0l0,0c3.9,0.1,3.6,0.6,3.2,1l0.9,0.3l0,0l-1.6,0.5
						c1.2,0.3,5.7,0.8,5.7,0.8l-0.1-2l-0.1-0.8l0-0.4l0-0.4c-2.5-0.6-2.1-1.1-2.2-1.8c0-0.4,2-1.3,2-1.3l0-0.4c0,0-1.3-0.7-1.7-0.3
						c0.4-0.4,0.3-0.8-0.1-1.6c0-0.4-0.5-0.8-0.9-1.1C686.7,334.7,685.1,334.8,684.8,336.1L684.8,336.1z"/>
				</g>
			</g>
			<g>
				<g>
					<path d="M691.4,328c-1.3,4.5-2.6,9-4.3,13.5c-0.7,1.6,2.2,3,3.3,1.8c1.8-2.5,3.3-5,3.9-7.9c0.6-2.4-3-3-3.6-0.6
						c-0.6,2.4-1.3,4.5-2.8,6.2c1.2,0.7,2.1,1.1,3.3,1.8c1.3-4.5,2.6-9,4.3-13.5c0.3-0.8-0.5-2-1.4-2.3
						C692.5,326.4,691.4,327.2,691.4,328L691.4,328z"/>
				</g>
			</g>
			<g>
				<g>
					<path d="M693.1,329.5c-0.7,2-1.3,3.7,0.1,5.6l0.1,1.6c0,0-1.6,0.5-1.2,0.9c0.8,0.3,2-0.1,2.3-1c0.7-1.2,1.4-2.9,2.1-4.1
						c0.3-0.8,0.3-2-1-2.3c-0.8-0.3-2-0.3-2.3,1c-0.7,1.2-1.4,2.9-2.1,4.1c1.2,0.3,2.4,0.6,3.3,1.4c0.7-2,1.3-3.7,2.5-5.8l-0.1-1.6
						c-0.9-0.3-1.3-0.7-1.7,0.3l-1.6,0.1C693.5,328.7,693.5,329.1,693.1,329.5L693.1,329.5z"/>
				</g>
			</g>
			<g>
				<g>
					<path d="M695,327.4c-2.2,3.3-3.9,6.7-5.3,9.9c-0.3,0.8-0.3,1.6,0.6,2.4c0.8,0.3,1.6,0.3,2.4-0.2c0.7-0.8,1.9-2.1,2.6-3
						s0.7-2-0.2-2.8c-0.8-0.7-2-0.7-2.8,0.2c-0.7,0.8-1.9,2.1-2.6,3c0.8,0.7,2.1,1.5,2.9,2.2c0.7-1.6,1.4-3.3,2.1-4.9
						c0.3-0.8,0.7-1.6,1.4-2.5c0.4-0.4,0.3-0.8,0.7-1.2l0.4-0.4c0,0,0,0,0.4-0.4l0,0c0.4-0.4,0.3-0.8,0.3-1.2c0-0.4-0.5-0.8-0.5-1.2
						C697,326.9,695.7,326.5,695,327.4L695,327.4z"/>
				</g>
			</g>
			<g>
				<g>
					<path d="M700.5,326.6c-1.9,2.1-3.3,4.2-4.3,7.1c-0.3,0.8-0.3,1.6,0.6,2.4c0.4,0.4,0.4,0.4,0.9,1.4l1.6-0.1
						c1.4-2.3,2.6-3.6,3.2-5.2c0.3-0.8,0.3-2-1-2.3c-0.8-0.3-2-0.3-2.3,1c0,0.4-0.4,0.4-2.3,1l0,0.4c0,0,2.3-0.6,1.9-0.1l-0.4,0.4
						c-0.4,0.4-0.4,0.4-0.7,0.8l-0.4,0.2l-0.4,0l0.4,0l0,0c0,0,1.7,1.7,2.6,2.4c0.3-1.2,1-2.5,1.8-3.3c0,0,0-0.4-0.7-0.3l0-0.4
						c0,0,0.7,0.3,1.1-0.1c0.4-0.4,0.4-0.4,0.7-0.8s0.7-0.8,1.1-1.7c0.7-0.8,0.7-2-0.2-2.8C702.1,325.7,700.9,325.8,700.5,326.6
						L700.5,326.6z"/>
				</g>
			</g>
			<g>
				<g>
					<path d="M702.5,326.5c-1.1,1.7-1.8,3.3-2.9,5c0,0.4-0.3,0.8-0.3,0.8c0,0.4,0.1,0.8,0.5,1.2c0.4,0.4,1.2,0.7,2,0.7
						c0.8-0.5,1.1-0.9,1.9-1.3c0.4-0.4,0.7-1.2,1.1-2.1l-0.1-1.6c-0.5-0.4-0.9-0.7-1.3-0.1l-1.6,0.1c-0.4-0.2-0.8,0.2-1.1,0.7l0,0
						l0-0.4c0.3,0.4-0.1,0.4,0,0.8c0,0,0-0.4,0.4-0.4c0,0.4-0.4,0.4-0.4,0.4s0.4,0,0.4-0.4c-0.4,0-0.4,0.4-0.6,3.5l0.4,0l0,0
						c0.6-2.3,1.1-1.1,2-0.4c1.1-1.7,1.8-3.3,2.9-5c0.4-0.4,0.3-0.8-0.1-1.6c0-0.4-0.5-0.8-0.9-1.1
						C704,325.2,702.9,325.7,702.5,326.5L702.5,326.5z"/>
				</g>
			</g>
			<g>
				<g>
					<path d="M705,326.3c-1.4,2.5-2.5,5-3.9,7.5c-0.3,0.8-0.3,2,0.6,2.4c0.8,0.3,1.6,0.3,2.4-0.2c0.7-0.8,1.1-1.3,1.9-2.1
						c0.4-0.4,0.7-0.8,1.1-0.9c0,0,0,0,0.4-0.4c0,0-0.4,0.4,0,0c0.4,0,0.4-0.4,0.8-0.5c0.4-0.4,0.7-0.8,0.7-1.2
						c0-0.4-0.1-1.2-0.1-1.6c-0.5-0.8-1.7-1.1-2.4-0.6c-1.5,1.3-3,3-4.5,4.3c0.8,0.7,2.1,1.5,2.9,2.2c1.4-2.5,2.5-5,3.9-7.5
						c0.3-0.8,0.3-2-1-2.3C706.5,325,705.3,325.5,705,326.3L705,326.3z"/>
				</g>
			</g>
			<g>
				<g>
					<path d="M703.4,328.2c-0.3,1.6-0.6,3.6-1.2,5.3c-0.3,0.8,0.1,1.6,0.9,1.9c0.4,0,0.8,0.3,0.8,0.3c0.4,0,0.8-0.5,1.2-0.5
						c1.5-1.3,3-2.6,4.5-3.9c0.4-0.4,0.3-0.8,0.3-1.2c0-0.4-0.5-0.8-0.5-1.2c-0.4-0.4-0.8-0.3-1.2-0.3l-0.4,0
						c-0.4,0-0.4,0.4-0.8,0.5c-1.5,1.3-3,2.6-4.5,3.9c1.2,0.7,2.1,1.1,3.3,1.8c0.3-1.6,0.6-3.6,1.2-5.3c0.3-0.8-0.5-2-1.4-2.3
						C704.6,327,703.8,327.4,703.4,328.2L703.4,328.2z"/>
				</g>
			</g>
			<g>
				<g>
					<path d="M708.8,330.8c-0.7,1.2-1,2.9-1.7,4.1c-0.3,0.8-0.3,1.6,0.6,2.4c0.8,0.3,1.6,0.3,2.4-0.2c1.1-1.3,2.3-2.1,3-3.4
						c-1.2-0.7-2.1-1.1-3.3-1.8c0,0.4-0.6,1.2-0.6,1.2l0,0.4l0,0l0,0.4c0,0.8-0.4,1.2-0.7,2c-0.7,1.2,0.6,2.8,1.8,2.7
						c1.2-0.1,2.3-1,3.1-1.8c0.4-0.4,0-0.6,0-0.6l0.4,0l0,0l-0.4,0l0,0l0.1,0l0,0.6l0,0l0,0l0,0.4l0,0.4c0.9,2.7,3,4.6,5.9,5.2
						c0.8,0.3,2-0.5,2.3-1.4c0.3-0.8-0.5-2-1.4-2.3c-0.4,0-0.8,0.7-0.8,0.7l0,0c0,0-0.5-1-0.5-1.4c0,0-0.4,0-0.4-0.4
						c0,0-0.4-0.4,0,0c-0.4,0-0.4-0.4-0.8-0.7l-0.4-0.4c-0.4-0.4,0,0.4,0,0s-0.4-0.4,0-0.8l0,0l0-0.4c-0.5-0.4-0.9-0.7-1-1.1
						c-0.9-1.5-2.9-1.8-4.1-0.9c-0.4,0.4-0.7,0.8-1.1,1.3s0.1,1.4,0.1,1.4l-0.4,0l0,0l0,0c0.4-0.6,1.2,0.5,1.7,1.3
						c1.1-1.7,1.4-3.3,2.1-4.9c0.3-2-1.8-3.1-3.3-1.8c-1.1,1.3-2.3,2.1-3,3.4c0.8,0.7,2.1,1.5,2.9,2.2c0.7-1.2,1-2.9,1.7-4.1
						c0.3-0.8,0.3-2-1-2.3C710.3,329.5,709.2,330,708.8,330.8L708.8,330.8z"/>
				</g>
			</g>
			<g>
				<g>
					<path d="M776.8,337.8c0.6-2.8,3.3-5,6-5.2c2.8-0.2,5.7,1.6,6.7,3.9c0.5,0.8,1.3,1.5,2.5,1c0.8-0.5,1.5-1.3,1-2.5
						c-1.9-4.3-6.1-6.8-10.4-6.5s-8.1,3.7-9.5,7.8c-0.3,0.8,0.5,2,1.4,2.3C775.7,339.5,776.9,338.6,776.8,337.8L776.8,337.8z"/>
				</g>
			</g>
			<g>
				<g>
					<path d="M776.7,342.6c2.1-4.5,7.1-7.7,11.9-7.6c1.2-0.1,1.9-0.9,1.9-2.1c-0.1-1.2-0.9-1.5-2.1-1.9c-6.4,0-12.5,4-14.9,9.4
						C772.4,342.9,775.7,344.7,776.7,342.6L776.7,342.6z"/>
				</g>
			</g>
			<g>
				<g>
					<path d="M664.2,498.1c16.4,6.1,29.4,21.2,47.4,22c8.4,0.2,14.2-3.4,21-7.8c8.8-5.8,18.5-9.6,28.8-11.1c1.2-0.1,2.3-1.4,1.4-2.5
						c-1.9-4.7-3.4-9-3.7-13.7c-0.4,0.4-0.7,1.2-1.1,1.7c9.7-3.9,19.9-7.3,30.1-9.6c0.8-0.1,1.1-1.3,1.1-1.7
						c-0.4-11.2,0.1-22.4,1.3-33.3c0.2-2.4-3.4-3-3.6-0.6c-1.6,11.3-2,22.9-1.7,34.5c0.4-0.4,0.7-1.2,1.1-1.7
						c-10.2,2.3-20.4,5.8-30.1,9.6c-0.8,0.5-1.1,0.9-1.1,1.7c0.3,5.2,1.5,10.3,3.8,14.9c0.3-0.8,1.1-1.7,1.4-2.5
						c-8.3,1.4-16.1,3.9-23.5,7.6c-7.7,4.1-14.4,11-23.2,11.6c-18.7,1.3-32.6-15.4-49-21.5C663.9,494.1,662.1,497.4,664.2,498.1
						L664.2,498.1z"/>
				</g>
			</g>
			<g>
				<g>
					<path d="M793.6,250c-7.1,13.3-13.4,26.9-19.2,40.9c-2.1,4.9-6,12-2.8,17.4c2.3,3.8,8.7,4.2,10.1,8.1c1,2.3,4.5,0.9,3.5-1
						c-1.5-3.9-5.1-4.8-8.1-7c-3.3-2.2-3.5-5-2.2-8.6c1.3-3.7,2.7-7,4.1-10.3c5.1-12.7,11.1-25.1,17.8-37.6
						C798,249.3,794.7,247.9,793.6,250L793.6,250z"/>
				</g>
			</g>
			<g>
				<g>
					<path d="M846.4,427c-1.9,2.1-6.6,8-6.6,8l0.1,0.8c0,0,2.8,0.6,3.2,0.6c0.8,0.3,1.2,0.3,2-0.1c1.9-0.9,3-2.6,4.1-4.3
						c0.3-0.8-0.1-2-1-2.3c-0.8-0.3-2,0.1-0.7,0.8l0,0.4c0,0-1.3-0.3-1.7,0.1l-0.4,0.4c-0.4,0.4-0.8-0.1-0.8-0.1l-0.4,0
						c0,0,0.4,0.5,0.1,1l-0.4,0.4c-0.4,0.4-0.8,0.5-1.1,0.9c0.8,0.7,2.1,1.1,1,1.9l0,0l0-0.4l0-0.4c1.9-0.5,2.3-0.6,2.3-1
						c0.4-0.4,0.7-1.2,1.1-1.7c0-0.4,0.4-0.4,0.3-0.8c0,0,0-0.4,0.4-0.4l-0.3,0l0-0.4c0,0,1-1.3,1.4-1.7c0.7-0.8,0.7-2-0.2-2.8
						C848.3,426.1,847.1,426.2,846.4,427L846.4,427z"/>
				</g>
			</g>
			<g>
				<g>
					<path d="M848.5,428.5c-0.7,1.2-1.8,2.9-2.5,4.2c-0.3,0.8-0.3,1.6,0.1,2c0.5,0.8,1.2,0.7,2,0.7c0.8-0.1,1.2-0.5,2-0.5
						c-0.8-0.3-1.7-1.1-2.5-1.4c0.1,0.8,0.1,1.2,0.1,2c0.1,0.8,0.9,1.9,2.1,1.9c0.8-0.1,1.9-0.9,1.9-2.1c-0.1-0.8-0.1-1.2-0.1-2
						c-0.1-1.2-1.3-1.9-2.5-1.4c-0.8,0.1-1.2,0.5-2,0.5c0.8,0.7,1.3,1.9,2.2,2.6c0.7-1.2,1.8-2.9,2.5-4.2c0.3-0.8-0.1-2-1-2.3
						C850,427.2,848.9,427.7,848.5,428.5L848.5,428.5z"/>
				</g>
			</g>
			<g>
				<g>
					<path d="M844.4,427.2c2.6,3.4,6.4,5.6,10.4,6.5c0.8,0.3,2-0.5,2.3-1.4c0.3-1.2-0.5-2-1.4-2.3c-0.4,0-0.8-0.3-1.2,0.7l-0.4,0
						l0,0c-0.1-1-0.5-1-0.5-1.4c-0.8-0.3-1.6-0.7-2.6-2.4l-0.4,0l0,0l-0.4,0.6c-0.4-0.4-0.8-0.3-0.8-0.7c-0.4-0.4-0.8-0.7-0.8-0.7
						l-1.5-0.3l0,0c1.1-0.1,1.1-0.5,0.7-0.4c-0.5-0.8-1.7-1.1-2.4-0.6C844.2,425.2,843.5,426.4,844.4,427.2L844.4,427.2z"/>
				</g>
			</g>
			<g>
				<g>
					<path d="M849,431.1c0.8,0.3,1.6,0.7,2.5,1c0,0-0.4,0-0.4-0.4c0.8,0.3,1.3,1.1,2.1,1.9c0,0,0-0.4-0.4-0.4
						c0.4,0.4,0.4,0.4,0.8,0.7c0.4,0.4,0.8,0.7,1.2,0.7c0.4,0,1.2-0.1,1.6-0.1c0.8-0.5,1.1-1.7,0.6-2.4c-1.3-1.9-3.5-3.8-5.9-4.4
						c-0.4-0.4-0.8-0.3-1.6,0.1c-0.4,0-0.8,0.5-1.1,0.9c-0.4,0.4-0.3,0.8,0.1,1.6C848.2,430.7,848.6,431.1,849,431.1L849,431.1z"/>
				</g>
			</g>
			<path class="st15" d="M653,321c1,3.1,2.8,6.6,6.1,6.8c0.8-0.1,1.2-0.1,2-0.5c0.4-0.4,0.7-0.8,0.7-1.2c2.7-7.4,0.2-15.2-2.7-22.6
				c-4.3-10.9-9.9-21.7-15.8-32.1c-0.9-1.9-2.2-3.4-3.9-4.1c-2.8,5.8,3.4,20.5,5,26.8C647,303.5,649.6,312.5,653,321z"/>
			<g>
				<g>
					<path d="M658.6,327c0.5,1.6,0.2,3.2-1.1,1.3c-0.5-0.8-1-2.7-1.4-3.5c-1-2.7-2-5.5-3-8.2c-1.6-5.5-3.5-10.9-5.1-16
						c-3.1-11-5.9-22.4-8.3-33.4c-0.6-2.4-4.1-0.9-3.5,1c3.5,15.7,7.3,31.5,12.3,46.7c1.1,3.9,2.5,7.4,3.6,11.3c1,2.3,1.5,5.1,4,6.5
						c1.7,1.1,3.7,1,5.1-0.7c1.5-1.7,0.9-4.1,0.4-6C661.2,323.3,657.7,324.7,658.6,327L658.6,327z"/>
				</g>
			</g>
			<g>
				<g>
					<path d="M790,355.3c-1.5,0.9-2.6,2.6-2.9,4.2c0.1,0.8,0.1,1.2,0.5,2c0.4,0.4,1.2,0.7,2,0.3c0.4,0,0.8-0.5,1.2-0.5
						c0.4-0.4,0.7-0.8,1.1-1.3c0.4-0.4,2.8-1.8,2.8-1.8l-0.2-2.4c0,0-3-1.4-3.4-1.8c0,0-0.4,0-0.4-0.4c-0.4,0-0.4-0.4-0.8-0.3
						s-0.8,0.1-1.2,0.5c-0.7,0.8-1.5,1.7-1.4,2.9c0.1,0.8,0.5,2,1.4,2.3c0.8,0.7,2.1,1.1,3.2,0.6c0.8-0.1,1.9-0.9,1.9-1.7
						c0-0.4,0.8-0.9,0.8-0.9l-0.1-0.8c0,0-0.9-0.7-1.4-1.1c-0.4-0.4-0.8-0.3-1.6,0.1c-0.4,0-0.8,0.5-1.1,0.9l0,0.4
						c-0.1,0-0.1-0.4,0.3-0.4c0,0,0,0-0.4,0.4l0.3-1.4l-0.4,0l0.4,0l-0.4,0l0.4,0l-0.4,0l0.4,0l-0.4,0l0.4,0l-0.4,0
						c0.1,1,0.5,0.9,0.5,1.3c0,0,0,0-0.4-0.4c0,0,0,0.4-3.9,0.7l0-0.4l0,0.4l0-0.4l0,0.4l0-0.4l0,0.4l0-0.4l0,0.4
						c4.3-0.3,4.3-0.7,4.7-0.7c0,0,0,0.4-0.4,0.4c0,0,0,0,0.4-0.4c0,0-0.4,0-0.4,0.4l0,0c-0.8,0.1-1.6,0.1-2.4-0.2l0.4,0.4
						c0,0,0-0.4-0.4-0.4l2.1,0.3l0-0.4l0.1,0.8l0-0.4l0.1,0.8l0-0.4c-1.6,0.5-1.6,0.5,0.1,0.8l0-0.4c-2.1,0.1-2,0.5-2.4,0.6
						c0,0,0-0.4,0.4-0.4l-0.4,0.4c0,0,0.4,0,0.4-0.4l-0.3,1.8l0.4,0l0,0c0.8-0.7,1.6,0.1,2.5,0.8c0-0.4,0-0.4-0.4-0.8l0,0.4
						c0.7-0.4,1.1-0.9,1.1-0.9s0,0.4-0.4,0.4c0.4-0.4,0.4-0.4,0.7-0.8c0,0-0.4,0-0.4,0.4c0.4,0,0.4-0.4,0.8-0.5s-2-1.1-2-1.1
						l-0.1-1.6c0,0,1.9-0.9,1.5-0.9C790.7,354.9,790.3,354.9,790,355.3L790,355.3z"/>
				</g>
			</g>
			<g>
				<g>
					<path d="M791.9,353.6c0-0.4-0.4-0.4-0.5-0.8c-0.4-0.4-0.4-0.4-0.8-0.7c-0.4,0-0.9-0.9-0.9-0.9l-0.8,0.1l-0.4,0l-0.8,0.1
						c-0.4,0.6-0.5,4-0.5,4l-0.4,0c0,0-1-2.6-0.5-2.2l0.1,1.6c-0.4,0.4-0.4,0.8,0,1.2c0.4,0.4,0.5,0.8,1.2,0.7
						c0.4,0,0.8,0.3,1.1-1.5l0.8-0.1c0.5,1.7,0.5,1.7,0.9,1.3c0.4,0,0.4-0.4,0.4-0.4c0-0.4-0.4-0.8-0.4-0.8l-0.1-0.8
						c0,0,0.3-0.8-0.3-3.4l-0.4,0l-0.8,0.1l0,0l0.4,0l0,0l0.4,0l0,0l0.4,0l0,0c0.1,2.2,0.5,2.1,0.6,2.5l0,0c0,0,0,0.4-0.3,0.4l0-0.4
						l0,0.4l0-0.4l0,0.4l0,0l0,0.4l0,0l0,0.4l0,0c0.7,0,0.7,0.3,0.3,0.4l0,0c0,0-0.4,0-0.4-0.2l0.4,0l-0.4,0l0.4,0l-0.4,0l0.4,0
						l-0.4,0l0.4,0l-0.4,0c0,0.6,0.4,0.5,0.5,0.9c0,0-0.4,0-0.4-0.4c0,0,0.4,0,0.4,0.4l3.6-0.6l0,0.4l-3.6,0.6c0,0,0.4,0.4,0.7-1.4
						l0.8-0.1c0.5,1.7,0.5,1.7,0.9,1.3c0.4-0.4,0.7-0.8,1.2-1.3l0-0.4C792.3,354.4,792.3,354,791.9,353.6L791.9,353.6z"/>
				</g>
			</g>
			<g>
				<g>
					<path d="M788.3,359.4c0.4,0,0.8-0.5,1.2-0.5c-0.8-0.3-2.8-0.6-2.8-0.6l0,0l0-0.4l0,0l0-0.4l0,0l0-0.4l0,0l0-0.4l0,0
						c0.7,0,0.7-0.4,1.1-0.5l0,0c0,0,0.4,0,0.1-5l0,0l0.4,0l0,0l0.4,0l0,0l0.4,0l0,0l0.4,0l0,0c0.3,4.6,0.7,4.5,0.7,4.9l0,0
						c0,0,0,0.4,0.5,0.4l0,0l0,0.4l0,0l0,0.4l0-0.4l0,0.4l-0.1-0.8l-0.1-0.8l-0.1-0.8l0,0c-0.1,0-0.1-0.4-0.5-0.4
						c0-0.4-0.4-0.4-0.4-0.4l-0.7,1.1l-0.8,0.1c0,0-0.5-1.4-0.9-1c-0.8,0.1-1.2,0.5-4.6,1.1l0,0.4c3.5,0.2,3.6,0.6,4,0.5l0,0l0-0.4
						l0,0l0-0.4l0,0.4l0-0.4l0,0.4l0.1,0.8l0,0.4l0.1,0.8c-0.1,0.4,0.4,1.2,1.2,1.1c0.8,0.3,1.6,0.3,2.4-0.2l0.4-0.4l0,0
						c0.4-0.4,0.4-0.4,0.3-0.8s-0.1-1.2-0.5-1.6c0,0,0-0.4-0.4-0.4l-0.4-0.5l-0.4,0l-0.8,0.1c-0.4,0.2-0.8,0.6-1.2,0.7
						c-0.4,0-0.8,0.5-1.1,0.9c0,0.4-0.4,0.4-3.4,1l0.1,0.8c3.1,0.2,3.6,0.6,4,0.9C787.1,359.5,787.9,359.9,788.3,359.4L788.3,359.4z
						"/>
				</g>
			</g>
			<g>
				<g>
					<path d="M786.6,356.8L786.6,356.8L786.6,356.8L786.6,356.8c2.7-0.2,2.7-0.6,2.3-0.6c0.4,0,0.4,0,0.4,0.4c0-0.4-0.4-0.4,1.2-0.9
						l0,0.4l0-0.4l0,0.4l0-0.4l0,0c-1.6,0.5-2,0.5-2,0.9C788.8,356.2,786.6,356.8,786.6,356.8l0.1,0.8l3.2,1.6l0.4,0l0.8-0.1l0.4,0
						c0.3-1.4,0.3-1.8,0.6-2.3c0,0,0-0.4-1.5-0.3l0,0l-0.1-0.8l0,0l-0.1-0.8l0,0c1.9-0.1,1.9-0.5,1.5-0.5l0,0l-0.4-0.4l0,0l-0.3,1
						l-0.8,0.1l-0.8,0.1c-0.5-1.4-0.5-1-0.5-1s0,0.4-0.4,0.4c0,0.4-0.3,0.8-2.3,1l0,0.4c2.3,0.2,2.7,0.2,2.8,0.6L786.6,356.8z"/>
				</g>
			</g>
			<g>
				<g>
					<path d="M842.1,428.9c-0.4,0.4-0.4,0.4-0.7,0.8c0.4-0.4,0,0,0,0.4c0,0,0,0.4-0.4,0.4c-0.4,0.4-0.7,1.2-1.5,1.7
						c-1.1,1.3-1.9,2.1-3,3.4c-0.4,0.4-0.7,1.2-0.3,2c0.1,0.8,0.9,1.1,1.3,1.1c1.6,0.3,2.4-0.6,3.5-1.4c0.7-0.8,1.9-1.3,2.6-2.2
						c-0.8-0.7-1.7-1.9-2.6-2.6c-0.7,0.8-1.5,1.7-2.2,2.5c-0.4,0.4-0.7,1.6-0.2,2.4c0.5,0.8,1.2,0.7,2,0.7c0.4,0,0.8-0.1,1.6-0.5
						c-0.8-0.7-1.7-1.5-2.5-2.2c0,0.4,0,0.4-0.3,0.8c-0.3,1.2,1,2.3,1.8,2.3c1.2-0.1,2-0.5,2.7-1.4c0.4-0.4,0.3-0.8,0.3-1.6
						c0-0.4-0.5-1.2-0.9-1.1c-0.8-0.3-1.9,1.1-1.9,1.1l-0.4,0l0.8-0.1c0.3-1,0.4-0.6-1.9-0.1l0,0.4l0,0l0,0l0,0c0,0,2.3-0.2,2.7-0.6
						c0.4-0.4,0.7-0.8,1.1-1.3c1.1-1.7,2.6-3,3.7-4.6c0.4-0.4,0.7-1.6,0.2-2.4c-0.5-0.8-1.3-1.1-2-0.7s-1.6,0.5-2.3,1
						c-0.8,0.5-1.5,1.3-1,2.5c0.5,0.8,1.3,1.5,2.5,1c0.8-0.5,1.6-0.5,2.3-1c-0.9-1.1-1.3-1.9-2.2-3c-1.5,1.7-2.9,3.8-4.4,5.5
						c-0.7,1.2-1.8,2.5-1,3.7c0.5,0.8,0.9,1.5,1.8,3.7l1.2-0.1l0.4,0c0.2-2.2-0.1-2.2-1-2.6c-0.1-0.8-2.1-2.7-2.1-2.7l0,0.4
						c0,0,1.9-0.5,1.6,0.9l0,0l0,0c0.4-0.2,1.2,0.5,1.7,1.3c0-0.4,0-0.4,0.3-0.8c0.3-0.8-0.1-1.2-0.5-2c-0.4-0.4-1.2-0.3-2-0.3
						c-0.4,0-0.8,0.1-1.6,0.5c0.9,1.1,1.3,1.9,2.2,3c0.7-0.8,1.5-1.7,2.2-2.5c0.7-0.8,0.7-1.6-0.2-2.4c-0.5-0.8-1.6-0.7-2.4-0.2
						c-0.8,0.5-1.5,1.3-2.3,1.8c-0.4,0.4-0.8,0.5-1.1,0.9l-0.3,1l0,0l0.4,0c0.4,0.5,0.5,1.3,1,2.5c2.3-2.1,4.5-4.7,5.9-7.2
						c0.3-0.8-0.1-2-1-2.3C843.6,427.6,842.4,428.1,842.1,428.9L842.1,428.9z"/>
				</g>
			</g>
			<g>
				<g>
					<path d="M844.8,439.5c3.9-1.1,7.8-3.3,10.8-6.3c0.7-0.8,0.7-2-0.2-2.8c-0.8-0.7-2-0.7-2.8,0.2l0,0c0,0,0,0-0.4,0.4l-0.4,0.4
						c-0.4,0.4-0.8,0.5-1.1,0.9c-0.8,0.5-1.5,0.9-2.3,1.4c0,0-0.4,0-0.4,0.4c0,0-0.8,0.5-0.4,0c-0.4,0-0.8,0.5-1.2,0.5
						c-0.8,0.5-2,0.5-2.7,1c-0.8,0.5-1.5,1.3-1,2.5C842.8,439.3,844,440,844.8,439.5L844.8,439.5z"/>
				</g>
			</g>
			<g>
				<g>
					<path d="M693.2,334.7C693.2,334.7,693.1,334.3,693.2,334.7c-1.5,0.9,1,3.5,2.5,2.2c1.9-1.7,3.4-3.4,4.4-5.9
						c0.7-1.6-1-3.5-2.5-2.2c-0.8,0.5-1.5,0.9-2.3,1.8c0.8,0.7,1.7,1.9,2.6,2.6c1.8-2.5,2.8-5.4,3-8.2c-0.1-1.6-1.7-1.9-2.9-1.4
						c-3.1,1.4-5.8,3.2-8,5.7c-1.9,2.1-3.3,4.6-5.6,5.6c-1.2,0.5-1.5,1.7-1,2.9c1.3,1.9,4.1,1.3,6,0c2.3-1.8,4.5-3.9,6.8-6.1
						c1.9-1.7,4.2-2.7,6.7-1.6c2.1,1.1,3.8,2.9,6.2,3.6c1.2,0.3,2.7-1,2.2-2.5c-1.5-3.9-4.8-6.1-8.8-6.6c-0.8,0.1-1.5,0.9-1.5,1.3
						c-0.3,0.8,0.1,1.6,0.9,1.9l0.4,0.4c2.1,1.1,3.8-2.3,1.8-3.3l-0.4-0.4c-0.3,1.2-0.6,2.4-0.6,3.6c2.4,0.2,4.5,1.7,5.1,4.1
						c0.7-0.8,1.5-1.7,2.2-2.5c-2-0.3-3.4-2.6-5.4-3.2c-2.1-1.1-4.9-1.3-7.2-0.3s-4.2,2.7-6.1,4.4c-1.1,0.9-2.3,1.8-3.4,3
						c-0.4,0.4-0.7,0.8-1.1,0.9c-0.8,0.5-0.4,0,0,0.4c-0.3,0.8-0.7,2-1,2.9c3.1-1,5-3.5,6.8-5.7c2.2-2.9,4.9-4.3,8-6.1
						c-0.8-0.3-2.1-1.1-2.9-1.4c0.1,2-0.5,4-2,5.7c-1.1,1.7,0.7,4,2.6,2.6c0.8-0.5,1.5-0.9,2.3-1.8c-0.8-0.7-1.7-1.5-2.5-2.2
						c-0.7,1.6-1.8,3.3-3.3,4.2c0.8,0.7,1.7,1.9,2.6,2.6c0.8-0.5,1.1-1.3,0.6-2.4c-0.1-0.8-0.9-1.9-2.1-1.9
						C693.8,332.7,693.1,333.5,693.2,334.7L693.2,334.7z"/>
				</g>
			</g>
			<g>
				<g>
					<path d="M704.4,324c-0.4,0,0,0,0,0.4l0,0.4c0,0.4,0,0.4,0,0c-0.8,0.1-2,0.5-2.8,0.6c3,3,6,6,9,9c2.6,2.6,5.1,4.8,8.8,5.8
						c2.4,0.6,3-3,0.6-3.6c-3.2-0.6-5.4-3.2-7.6-5.5c-3-3-5.6-5.6-8.6-8.6c-0.8-0.7-2.4-0.2-2.8,0.6c-0.7,1.2-0.2,3.6,1.5,3.9
						c0.8,0.3,2,0.3,2.3-1C705.8,325.9,705.3,324.3,704.4,324L704.4,324z"/>
				</g>
			</g>
			<g>
				<g>
					<path d="M692.6,339.1c3.9-1.1,7.8-2.5,11.7-3.6c0.8-0.5,1.5-1.3,1-2.5c-0.5-0.8-1.3-1.5-2.5-1c-3.9,1.1-7.8,2.5-11.7,3.6
						c-0.8,0.5-1.5,1.3-1,2.5C690.6,338.9,691.4,339.6,692.6,339.1L692.6,339.1z"/>
				</g>
			</g>
			<g>
				<g>
					<path d="M775.2,343.1c-0.1-0.8,0.3-1.6,2.3-2.2l0,0.4c-1.3-0.7-1-1.5-0.6-2c0,0,0,0.4-0.4,0.4c0.4-0.4,0.7-1.2,1.5-1.7
						c0.4-0.4,0.3-0.8,0.3-1.2c0-0.4-0.5-0.8-0.5-1.2c-0.4-0.4-0.8-0.3-1.2-0.3c-0.4,0-0.8,0.5-1.2,0.5c-1.9,1.7-2.9,4.2-1.9,6.5
						l0.1,1.6c-0.8,0.5-0.4,0.8,0,0.8C774.1,344.4,775.2,343.9,775.2,343.1L775.2,343.1z"/>
				</g>
			</g>
		</g>
		<g class="st11">
			<path class="st17" d="M743,551.1c0,0.4,0.4,0,0.8,0.3c0-0.4,0.7-1.2-0.1-0.8c1.2-0.5,8.4-6.2,8.9-4.6c3.6-0.6,6,0.8,8.9,1.8
				c0.8,0.3,1.6-0.1,2.4,0.2c0.4,0,0.8,0.7,1.2,0.7c0.4,0.4,0.8-0.1,1.2-0.1c0.8,0.3,1.3,1.1,2.1,1.5c1.2,0.7,2.4,0.6,3.3,1.4l0-0.2
				c1.7,1.1-2.7,7-1.8,8.1c-0.8-0.3-0.3,0.8-1.6,0.5c0.1,0.8,0.1,1.6,0.1,1.6c-1.2,0.1-2,0.1-1.9,0.9c-4.1-0.9-5.5,1.2-9,2.2
				c-0.3,2-2.6,2.6-2.5,5c-3.1,1.4-2.8,5.4-2.6,9.4c4.1,1.3,10.5,1.3,14.6,3c1.6,0.3,2.9,1.8,4.1,2.1c0.4,0.4,0.8-0.1,1.2,0.3
				c0.4,0.4,0.8,0.7,1.3,1.1c0.4,0.4,0.8-0.1,1.2,0.3c0.4,0.4,0.9,1.1,1.7,1.9c0.4,0-2.4,0.2-2.4,0.2l0.1,2.2c2.4,0.6,4,0.9,4.4,1.7
				c0.9,1.1-0.1,3.2-0.1,3.2s0.1,2,0.2,2.4c1.1,0.3,0.9,1.8,1.6,1.7c0,0.7-0.5,3,0.3,4c-0.6,1.9-0.1,4.4-0.7,6.7
				c-0.3,1.5-0.9,3.4-2.3,3.8c0,0.4-0.3,0.8-0.3,1.1c-1.8,0.9-2,3.5-4.5,4c-1.4,0.8-1.6,3.1-3.8,3.2c-1.7,2-6.5,1.9-8.2,3.9
				c-1.1,0.1-2.6-0.2-2.2,0.9c-1.5,0.1-2.9,0.2-3.2,1.3c-0.7,0-0.8-0.7-1.1,0.1c-0.7,0.4,0-0.7-0.8-0.3c-2.1,1.3-5.5,1.1-7.3,0.5
				c-0.4,0,0-0.4-0.4-0.7c-1.8,1.2-2.7-1.7-4.5-0.4c-0.4-0.3,0-0.4,0-0.7c-0.3,1.5-1.9-1.3-2.2,0.1c0-0.7-1.5-0.6-0.8-1.1
				c-0.4,0-1.1-0.3-1.1,0.4c-2-2.8-5.4-3.7-7.1-6.9c-0.7,0-0.8-0.3-1.1-0.3c-0.8-0.3,0.1,1.1-1.1,0.8c-0.1-1.5-1.2-1.8-0.6-2.9
				c-0.4-0.3-0.8-0.7-1.2-0.7c-0.1-2.2,2.3-3.8,0.7-5.6c2.2-0.9,2.7-3.1,4.5-4l0,0.1c0.8-0.1,0.7-0.8,1.1-0.9
				c0.1,0.8,1.2,0.7,2.4,0.6c0,0.4,0.8,0.7,0.1,1.2c0.8-0.1,1.7,1.1,2.9,1.4c0.4,0,0.4-0.4,0.7-0.8c-0.1-0.8-0.9-1.1-1.3-1.9
				c0-0.4,1.2,0.3,1.6-0.5c1.7,1.9,4.1,2.1,6.2,2.8c0.2,2.4,2.5,1.8,3.5,3.8c3.2,0.2,3.9-1.9,6.7-2c1.2-0.5,1.1-1.7,2.3-2.1
				c1.5-1.3,4.3-1.1,4.5-3.9c-0.8-0.7-0.6-2.4-0.7-4c-1.8-2.3-4.7-4.1-7.6-5.5c-2,0.5-3.2-0.6-4.9-0.9c-2-0.3-4.4-0.5-6.1-1.2
				c-0.8-0.3-1.3-1.1-1.7-1.5c-0.4-0.4-0.8,0.1-1.2-0.3c-1.6-0.3-2.1-1.9-3-2.6c-1.2-0.7-3.4-3.4-4.3-4.9c0-0.4,0.4-0.4,0.4-0.4
				c-0.1-0.8-0.9-1.1-1.3-1.9c-0.5-1.6-1.6-5.9-0.9-7.9c0,0,0.8-0.1,0.8-0.5c0.3-1.6-0.6-2.8,0.1-4.8c0.4,0,0.4,0,0.8-0.5
				c0.4-5.2,4.2-8.3,6-12.4c0.8-0.5,2-0.5,1.9-1.7c1.6-0.1,2.3-1.4,3.5-1.8C743.6,549.4,742.5,550.7,743,551.1z M731.6,607.8
				c1.2-0.1,0.5,1.6,1.7,1.1c0.3-0.8-0.5-1.6-0.2-2.8c-0.4-0.4-1.2-0.3-1.6,0.1L731.6,607.8z"/>
			<path class="st17" d="M853.4,539.8c2.1,3.9,3.5,9,5.8,11.2c2.9,5.4,7.6,15.5,10.9,22c0.9,2.3,2.5,4.2,2.2,5.8
				c0.1,0.8-1,1.3-0.2,2.4c-0.7,0.4,0.1,1.2-0.7,0.8c-0.6,1.6-2.3,3-3.7,4.2c-0.6,2,0.5,2-1.6,2.5c-2,2.1-6.3,3.2-9.5,4.2l-0.4-0.8
				c-0.7,0.4,0,0.4-1.1,0.5c-0.4-0.4,0-0.4,0.3-0.8c-6.4-4-17.5-16.8-23.3-22.4c-5.6-7.2-12.6-15.1-19.1-19.1
				c-0.6,1.2,1.7,3.1,0.3,4.4c1.7,3.1,3.8,8.5,6.1,10c1,4.3,4.5,6.9,5.9,12c3.5,3.4,7.2,15.5,10.4,20.1c-0.7,0.4,0.4,0.8-0.6,1.2
				c0.4,0,0.8,0.3,0.8,0.3c1.2,1.5,0.9,3.1,1.4,4.7c-0.6,1.2-1.3,2.1-0.8,3.7c-2.7,2.6-3.7,4.2-5.7,6.8c0,0-0.4,0-0.4-0.4
				c-2.1,1.3-3.6,1-4.5,3.1c-0.4-0.4-1.1-0.7-1.8,0.1c-1.2-1.1-0.9-2.7-2.4-3c0.7-0.4,0.3-0.8,1-1.3c-3.8-7.3-12-21.6-16.8-28.4
				c-0.4-0.8-0.1-0.8-0.4-1.2c-2.4-3.4-3.8-8.5-6.6-11.5c-0.8-0.7,0.7-0.4,0.3-0.8c-0.1-0.8-0.8-0.3-0.8-0.7
				c0.6-1.2-2.1-4.7-2.9-5.8c0.3-0.4,0.3-0.4,0.7-0.8c-2.2-5.4-3.4-12.2-0.8-16.7c-0.5-1.6,0.6-2,1.5-4.1c0.3-1.2,0.6-2.4,1.2-3.3
				c2.3-3.8,6.9-6.1,11.4-8.8c-0.3,1.6,0.3-0.4,1.1,0.7c1.4-0.9,2.1-0.9,2.9-0.6c0-0.4,0.3-0.8,1-0.9c0.4,0,0.7,0,0.7,0
				c0.7-0.4,0,0.4-0.3,0.4c0.4,0.4,0.8,0.3,1.1-0.5c1.1-0.1,1.8-0.1,2.9-0.2c3.1,2.6,8.1,7.4,11.5,9.2c0.9,2.7,3,1.8,4.3,4.1
				l0.4,0.4c-0.4-0.4-0.4-0.8-0.5-1.6c0.6-2.4-6.3-13.2-6.9-15.9c-0.5-2.8,0.8-4.4,1-6.9c0.7-0.8,1.4-1.3,2.4-2.6
				c0.3-0.4,0.3-1.2,0.6-1.2c0.3-0.4,1.1-0.5,1.4-0.9c0,0,0,0,0-0.4l0-0.4c0.4,0,1.9,1.1,0.7-0.4c1.1-0.1,2.1-0.5,3.2-0.6
				c1.1,0.7,3.4,1.8,3.8,2.1c0,0.4,1.2,2.3,2.5,4.6c0.8,1.1,1.6,2.7,2.5,4.2l0-0.4c1.3,3.1,4.3,9.3,5.4,10.4
				C850.9,535.6,851.9,538.3,853.4,539.8z"/>
			<path class="st17" d="M846.3,496.9c0.4-0.4-0.1-0.8,0.3-1.2c2.6-3.4,5.7-4.4,8.9-4.6c2.2,2.6,5.6,0.8,6.6,3.5
				c3.6,0.6,3.2,5.4,5.7,7.2c-0.4,0.4-0.7,1.2-1.5,1.3c-0.3,0.8,0.1,1.2,0.1,2c-2.2,2.9-3.7,4.6-6.4,5.6c-1.5,0.9-3.1,1.4-4.6,2.3
				c-3.6-0.6-6.9-1.9-10.3-4.9c-0.1-0.8-0.4,0.4-0.8-0.3c-0.1-2-2.5-2.2-3-2.6c-0.4-0.4,0-0.4,0.3-0.8c-0.5-0.8-0.9-1.1-0.9-1.5
				c1.5-1.7,1.4-3.3,3.3-5C844.4,498.3,845,496.2,846.3,496.9z M870.1,512.7c1.5-1.3,2.7-1.8,3.9-1.1c0.4,0,0.4,0,0.4-0.4
				c5.2,0.4,10.6,2.9,15.7,6.9c-0.4,0,1.7,1.5,2.1,1.5c2.1,1.9,3.8,3.7,5.9,4.8c2.3,4.2,12.7,9.9,15,14.6c-1.5,0.9-0.7,2-2.2,2.9
				c1.2,0.7,0.8-0.1,1.3,1.1c-1.6,0.1-3.4,2.2-5.1,1.9c0.1,0.8-0.7,1.2,0.5,2c-0.3,2-2.2,2.5-4.2,3.5c-1.6,0.5-2.3,1.4-3.2,0.6
				c-0.4,0.4-1.1,0.9-0.7,1.6c-0.8,0.1-1.2,0.1-1.9,0.9c-0.9-1.1-1.2-0.7-2.4-0.2c0-0.4-1.2-0.7-0.5-1.2c-0.1-0.8-0.4,0-1.2,0.1
				c-4.7-4.5-13-14.7-18.9-19.1l-0.4,0c-1.8-3.1-6.7-5.1-8.6-8.6c-2.4,0.2-2.6-3-4.2-3.3c0.7-0.8,0.8-0.5,1.1-1.7
				c-0.5-1.2-0.8,0.1-1.2-0.3C865.2,515.9,867.3,512.9,870.1,512.7z"/>
			<path class="st17" d="M875.3,439.9c1.2-0.5,2.4-0.2,3.5-1.4c0.4,0,1.2,0.7,1.6-0.1c0.8,0.3,0.8,0.3,1.6,0.7
				c0.7-0.8-0.8-0.3-0.5-1.2c0.8,0.7,0.8-0.1,1.2-0.5c1.6,0.3,2.8-0.6,3.9-1.1c1.2,0.3,1.2,0.7,2.5,1.4c0.1,1.6,0.6,2.8,1.1,3.9
				c-1.2,5.7-4.9,9.5-4.3,13.9c-1,2.9-0.4,5.6-1.1,7.7c0.9,1.9-0.1,4,0.4,5.6c2-0.1,4.9,1.7,6.9,1.5c1.6,0.7,5.8,2.8,9,3.8
				c0-5.2,2.7-12.6,0.1-16.8c0.7-1.6,0.6-2.8,0.6-3.6c0.7-0.8,1.1-1.7,2.3-1.8c0.7-1.6,1.1-1.7,2.6-3c0.4,0.4,0.5,0.8,1.3,1.1
				c-0.5-1.6,0.3-2,1.4-3.3c1.6,0.3,0.1,2,1.8,2.3c-0.1-0.8,0.3-1.6-0.6-2.4c2,0.3,2.3-1.4,3-2.2c0.4-0.4,0.5,0.8,0.1,1.6
				c1.2,0.3,0.8-0.5,1.9-1.3c0.4,0.4,0.8,0.7,1.6,0.3c-0.1-0.8,0.3-1.6,0.7-2c0.4,0,1.6-0.1,0.8,0.7c0.4,0.4,0.7-1.2,1.2-0.5
				c-0.3,0.8-0.7,1.6,0.9,1.9c-0.3,1.6-0.2,2.4-0.1,4c0,0.4-0.4,0-0.8,0.5c-0.4,0.4,0.5,0.8,0.1,1.2c-1.4,2.9,0.3,5.2-1.4,8.5
				c0.9,1.1,0.2,3.2-0.5,4.4c1,2.7-1.2,6.5-1.3,9.7c0,0.4,0.4,0.4,0.8,0.7c-1.4,2.9-1.3,4.5-1.9,6.9c2-0.1,2.5,1.8,3.7,1.3
				c0.4,0.4,0.1,0.8,0.8,0.7c2.4-0.2,4.1,1.3,6.9,2.3c0,0.4,0.1,0.8,0.1,0.8c0.4,0.4,0.8,0.3,0.8-0.5c0.8,0.3,0.5,0.8,1.3,1.1
				c0.4-0.4,0.4-0.4,0.4-0.4s0,0.4,0.5,1.2c3.6-0.2,2.8,0.2,6,0.4c1,2.3,4.5,0.9,5.8,2.8c-0.7,1.2-1.4,3.3-3,2.2
				c-0.7,1.2,0.9,1.1,1.3,1.9l-0.3,1.2c0.8,0.3,0.8-0.1,1.6-0.5c0.1,1.2,0.8,0.3,1.3,1.1c-0.8,0.1-1.6,0.5-2.3,1.4
				c-0.5-1.2-0.8,0.5-2,0.1c0.5,2,1.7,1.5,2.9,2.2c-0.4,0.4-1.1,0.9-1.9,0.9c-0.8,0.1-0.1-0.8-0.5-1.2c-0.7,0.8-0.7,0.8-0.7,2
				c-0.9-1.1-1.3-1.5-2.9-2.2c-0.8,0.5-0.3,1.2-1.1,2.1c0.5,0.8,2.9,2.2,3.3,1c0.1,0.8-0.6,2.4-1.8,2.5c-0.3,0.8,0.1,0.8,0.5,1.2
				c-0.6,2.4-2.6,2.2-3.8,3.5c-0.8,0.1-0.9-1.5-1.2-0.3c-0.9-1.1-2.4-0.2-3.6-0.6c-2-0.7-4.5-2.1-7-3.1c-3.3-1.4,2.4-0.6-1.3-1.1
				c-0.8-0.7-4.5-1.3-5.4-3.2c-0.4,0-0.8,0.1-1.2,0.5c-1.7-1.1-3.7-1.3-4.6-2.5c-0.4,0-0.4,0.4,0,0.4c-13.1-4.7-22.7-10.1-34.2-15.7
				c-0.8,0.5-1.6,0.5-2.4,0.6c-1.3-1.5-4-0.1-5.6,0.4c-0.4-0.4-0.1-0.8-0.5-0.8c-0.8,0.5-0.7,0.8-1.9,0.9c0-0.4,0-0.4,0.3-0.8
				c-0.8,0.5-1.2-0.7-2.5-1c0.3-0.8-0.5-1.2-0.5-2c-0.1-0.8,0.8-0.1,0.7-0.8c-0.1-1.2-0.8,0.5-1.2,0.1c-1-2.3,1.9-7.7,4.2-9.1
				c1.3-4.1-0.1-8,0.8-12.4c-0.1-1.2,1.1-2.1,0.6-3.2c1.8-2.9,0.8-5.3,1.5-8.1c-1.4-2.3,1.3-3.7,2.9-4.6c1.5-1.3,2.6-3.4,3.8-3.1
				c-0.5-1.2,0,0.4,0.8,0.3C875.7,440.6,874.9,440.3,875.3,439.9z M910.9,448.6c-0.4,0-0.5-0.8-0.8-0.3c0.4,0,0,0.4-0.4,0.4
				C910.6,449.1,911,449,910.9,448.6z"/>
		</g>
	</g>
</g>
</svg>
