<svg xmlns="http://www.w3.org/2000/svg" xmlns:xlink="http://www.w3.org/1999/xlink" viewBox="0 0 1920 1080"><defs><style>.cls-1{fill:#d8e9f0;}.cls-2{fill:#3687a4;}.cls-3{fill:#adddec;}.cls-12,.cls-4,.cls-5{fill:#fff;}.cls-4{opacity:0.4;}.cls-6{fill:#a6def6;}.cls-7{fill:#fbc45e;}.cls-8{fill:#e89bbe;}.cls-9{fill:#7a8ec7;}.cls-10,.cls-14,.cls-18{fill:none;}.cls-10,.cls-12,.cls-14,.cls-18{stroke:#fff;}.cls-10,.cls-12,.cls-14,.cls-15,.cls-18{stroke-miterlimit:10;}.cls-10{stroke-width:6px;}.cls-11{fill:#c1e6ec;}.cls-12,.cls-15{stroke-width:4px;}.cls-13{fill:#cbdf8c;}.cls-14{stroke-width:2px;}.cls-15,.cls-16{fill:#838186;}.cls-15{stroke:#838186;}.cls-17{fill:#dfdfdf;}.cls-18{stroke-width:28px;}.cls-19{fill:#bfe3d3;}.cls-20{fill:#adcec1;}.cls-21{fill:url(#linear-gradient);}.cls-22{fill:#58c5c7;}.cls-23{fill:#00b6be;}.cls-24{fill:url(#linear-gradient-2);}</style><linearGradient id="linear-gradient" x1="1324.04" y1="120.83" x2="1324.04" y2="229" gradientUnits="userSpaceOnUse"><stop offset="0.39" stop-color="#ffffa7"/><stop offset="0.53" stop-color="#ffffbc" stop-opacity="0.76"/><stop offset="0.76" stop-color="#ffffe0" stop-opacity="0.36"/><stop offset="0.92" stop-color="#fffff6" stop-opacity="0.1"/><stop offset="1" stop-color="#fff" stop-opacity="0"/></linearGradient><linearGradient id="linear-gradient-2" x1="416.04" y1="120.83" x2="416.04" xlink:href="#linear-gradient"/></defs><g id="Bathroom"><rect class="cls-1" width="1920" height="1079"/><rect class="cls-2" x="-0.5" y="911.5" width="1920" height="168"/><g id="tiles"><rect class="cls-3" x="14" y="784.55" width="114.45" height="114.45"/><rect class="cls-3" x="140.82" y="784.55" width="114.45" height="114.45"/><rect class="cls-3" x="267.65" y="784.55" width="114.45" height="114.45"/><rect class="cls-3" x="394.47" y="784.55" width="114.45" height="114.45"/><rect class="cls-3" x="521.29" y="784.55" width="114.45" height="114.45"/><rect class="cls-3" x="648.11" y="784.55" width="114.45" height="114.45"/><rect class="cls-3" x="774.94" y="784.55" width="114.45" height="114.45"/><rect class="cls-3" x="901.76" y="784.55" width="114.45" height="114.45"/><rect class="cls-3" x="1028.58" y="784.55" width="114.45" height="114.45"/><rect class="cls-3" x="1155.41" y="784.55" width="114.45" height="114.45"/><rect class="cls-3" x="1282.23" y="784.55" width="114.45" height="114.45"/><rect class="cls-3" x="1409.05" y="784.55" width="114.45" height="114.45"/><rect class="cls-3" x="1536.9" y="784.55" width="114.45" height="114.45"/><rect class="cls-3" x="1663.73" y="784.55" width="114.45" height="114.45"/><rect class="cls-3" x="1790.55" y="784.55" width="114.45" height="114.45"/><rect class="cls-3" x="15" y="657.55" width="114.45" height="114.45"/><rect class="cls-3" x="141.82" y="657.55" width="114.45" height="114.45"/><rect class="cls-3" x="268.65" y="657.55" width="114.45" height="114.45"/><rect class="cls-3" x="395.47" y="657.55" width="114.45" height="114.45"/><rect class="cls-3" x="522.29" y="657.55" width="114.45" height="114.45"/><rect class="cls-3" x="649.11" y="657.55" width="114.45" height="114.45"/><rect class="cls-3" x="775.94" y="657.55" width="114.45" height="114.45"/><rect class="cls-3" x="902.76" y="657.55" width="114.45" height="114.45"/><rect class="cls-3" x="1029.58" y="657.55" width="114.45" height="114.45"/><rect class="cls-3" x="1156.41" y="657.55" width="114.45" height="114.45"/><rect class="cls-3" x="1283.23" y="657.55" width="114.45" height="114.45"/><rect class="cls-3" x="1410.05" y="657.55" width="114.45" height="114.45"/><rect class="cls-3" x="1537.9" y="657.55" width="114.45" height="114.45"/><rect class="cls-3" x="1664.73" y="657.55" width="114.45" height="114.45"/><rect class="cls-3" x="1791.55" y="657.55" width="114.45" height="114.45"/><rect class="cls-3" x="15" y="530.55" width="114.45" height="114.45"/><rect class="cls-3" x="141.82" y="530.55" width="114.45" height="114.45"/><rect class="cls-3" x="268.65" y="530.55" width="114.45" height="114.45"/><rect class="cls-3" x="395.47" y="530.55" width="114.45" height="114.45"/><rect class="cls-3" x="522.29" y="530.55" width="114.45" height="114.45"/><rect class="cls-3" x="649.11" y="530.55" width="114.45" height="114.45"/><rect class="cls-3" x="775.94" y="530.55" width="114.45" height="114.45"/><rect class="cls-3" x="902.76" y="530.55" width="114.45" height="114.45"/><rect class="cls-3" x="1029.58" y="530.55" width="114.45" height="114.45"/><rect class="cls-3" x="1156.41" y="530.55" width="114.45" height="114.45"/><rect class="cls-3" x="1283.23" y="530.55" width="114.45" height="114.45"/><rect class="cls-3" x="1410.05" y="530.55" width="114.45" height="114.45"/><rect class="cls-3" x="1537.9" y="530.55" width="114.45" height="114.45"/><rect class="cls-3" x="1664.73" y="530.55" width="114.45" height="114.45"/><rect class="cls-3" x="1791.55" y="530.55" width="114.45" height="114.45"/><rect class="cls-3" x="15" y="403.55" width="114.45" height="114.45"/><rect class="cls-3" x="141.82" y="403.55" width="114.45" height="114.45"/><rect class="cls-3" x="268.65" y="403.55" width="114.45" height="114.45"/><rect class="cls-3" x="395.47" y="403.55" width="114.45" height="114.45"/><rect class="cls-3" x="522.29" y="403.55" width="114.45" height="114.45"/><rect class="cls-3" x="649.11" y="403.55" width="114.45" height="114.45"/><rect class="cls-3" x="775.94" y="403.55" width="114.45" height="114.45"/><rect class="cls-3" x="902.76" y="403.55" width="114.45" height="114.45"/><rect class="cls-3" x="1029.58" y="403.55" width="114.45" height="114.45"/><rect class="cls-3" x="1156.41" y="403.55" width="114.45" height="114.45"/><rect class="cls-3" x="1283.23" y="403.55" width="114.45" height="114.45"/><rect class="cls-3" x="1410.05" y="403.55" width="114.45" height="114.45"/><rect class="cls-3" x="1537.9" y="403.55" width="114.45" height="114.45"/><rect class="cls-3" x="1664.73" y="403.55" width="114.45" height="114.45"/><rect class="cls-3" x="1791.55" y="403.55" width="114.45" height="114.45"/></g></g><g id="Bedroom-icons"><path class="cls-4" d="M1440.15,219V946h372V219Z"/><ellipse class="cls-5" cx="1260.5" cy="459.5" rx="91.69" ry="130.5"/><ellipse class="cls-6" cx="1260.5" cy="458" rx="81.5" ry="116"/><circle class="cls-7" cx="1052.5" cy="448.5" r="27.5"/><circle class="cls-8" cx="1024.5" cy="493.5" r="27.5"/><circle class="cls-9" cx="1080.5" cy="493.5" r="27.5"/><path class="cls-5" d="M1211.35,648h100.8v-2.47a5.43,5.43,0,0,0-5.43-5.43h-89.93a5.43,5.43,0,0,0-5.44,5.43Z"/><rect class="cls-6" x="569" y="81" width="351" height="440"/><rect class="cls-10" x="974" y="74" width="155" height="455.28"/><line class="cls-10" x1="974" y1="227" x2="1129" y2="227"/><line class="cls-10" x1="974" y1="377" x2="1129" y2="377"/><path class="cls-5" d="M559,74V533H929V74Zm19,104L706.94,90h59.44L578,216.23ZM913,514H858.67L913,467.74Zm0-73.32L817.43,514H789.32L913,416.69Zm0-153L586.42,514H578v-5.42L913,266.51Zm0-31.24L578,498.06V454.6L913,206.48Zm0-60.79L578,439.85V424.07L913,172.29Zm0-34.94-335,250V370.32L913,119.65Z"/><polygon class="cls-11" points="706.94 90 578 177.99 578 90 706.94 90"/><polygon class="cls-11" points="913 90 913 119.65 578 370.32 578 216.23 766.38 90 913 90"/><polygon class="cls-11" points="913 160.74 913 172.29 578 424.07 578 410.69 913 160.74"/><polygon class="cls-11" points="913 195.68 913 206.48 578 454.6 578 439.85 913 195.68"/><polygon class="cls-11" points="913 256.47 913 266.51 578 508.58 578 498.06 913 256.47"/><polygon class="cls-11" points="913 287.71 913 416.69 789.32 514 586.42 514 913 287.71"/><polygon class="cls-11" points="913 440.68 913 467.74 858.67 514 817.43 514 913 440.68"/><line class="cls-12" x1="220" y1="224" x2="438" y2="224"/><path class="cls-13" d="M239,219H418a0,0,0,0,1,0,0V408.68A12.32,12.32,0,0,1,405.68,421H251.32A12.32,12.32,0,0,1,239,408.68V219A0,0,0,0,1,239,219Z"/><line class="cls-14" x1="239" y1="394" x2="418" y2="394"/><line class="cls-14" x1="418" y1="401" x2="239" y2="401"/><circle class="cls-5" cx="219" cy="224" r="8"/><circle class="cls-5" cx="438" cy="224" r="8"/><line class="cls-15" x1="268" y1="525" x2="390" y2="525"/><circle class="cls-16" cx="268" cy="525" r="8"/><circle class="cls-16" cx="390" cy="525" r="8"/><path class="cls-5" d="M615,907v23a10,10,0,0,1-10,10,10,10,0,0,1-10-10V907a10,10,0,0,1,20,0Z"/><path class="cls-5" d="M892,907v23a10,10,0,0,1-20,0V907a10,10,0,0,1,20,0Z"/><path class="cls-5" d="M612.07,899.93A10,10,0,0,1,615,907v17H595V907a10,10,0,0,1,17.07-7.07Z"/><path class="cls-5" d="M892,907v17H872V907a10,10,0,0,1,20,0Z"/><path class="cls-5" d="M892,924h3.84q-1.9,1.39-3.84,2.72a174.07,174.07,0,0,1-17,10.41,10,10,0,0,1-3-7.13V907a10,10,0,0,1,20,0Z"/><path class="cls-5" d="M612.07,899.93A10,10,0,0,1,615,907v23a9.9,9.9,0,0,1-1.74,5.63A182,182,0,0,1,595.16,924l-.16-.11V907a10,10,0,0,1,17.07-7.07Z"/><polygon class="cls-17" points="691 1066 1296.04 1066 1246.04 978.19 746 978.19 691 1066"/><path class="cls-18" d="M1440,219V946h372V219Z"/><path class="cls-16" d="M1670.5,567.5a8.93,8.93,0,0,1-3.5,7.11,8.56,8.56,0,0,1-2,1.18,8.9,8.9,0,0,1-3.5.71,8.64,8.64,0,0,1-2.5-.36,8.28,8.28,0,0,1-2-.86,3.76,3.76,0,0,1-.5-.31,9,9,0,0,1,2.5-16.11,8.64,8.64,0,0,1,2.5-.36,8.79,8.79,0,0,1,3,.5h0a9.07,9.07,0,0,1,6,8.5Z"/><circle class="cls-16" cx="1684" cy="568" r="9"/><path class="cls-16" d="M1616,532a5,5,0,0,1-5,5h-18a5,5,0,1,1,0-10h18A5,5,0,0,1,1616,532Z"/><g id="vand_group"><polygon class="cls-5" points="1234 631 1234 640.1 1241.3 640.1 1241.3 631 1246.04 631 1246 628 1228.55 628 1228.55 631 1234 631"/><polygon class="cls-5" points="1284 631 1284 640.1 1291.3 640.1 1291.3 631 1296.04 631 1296 628 1278.55 628 1278.55 631 1284 631"/><g id="bathroom_vand"><path class="cls-5" d="M1145,648h230.87S1272,797,1145,648Z"/><path class="cls-5" d="M1297,946h-70s16.55-165.56,14.26-231.78h40.11S1284,874,1297,946Z"/><polygon class="cls-5" points="1258 631 1258 640.1 1265.3 640.1 1265.3 631 1270.04 617 1270 614 1252.55 614 1252.55 617 1258 631"/></g><g id="bathroom_vand-2" data-name="bathroom_vand"><path class="cls-5" d="M354.07,940H304s11.85-118.57,10.21-166H342.9S344.76,888.43,354.07,940Z"/><path class="cls-5" d="M326.5,849.5c-74,2-80-74.5-80-74.5H280c-32.77-48.34-34-114.12-33.37-136.32a12,12,0,0,1,7.62-10.85c28-11.05,61.82-11.58,69.94-11.54,0,0,39.64-1.54,71.85,10.79a12,12,0,0,1,7.73,10.77c.85,22.2.27,88-32,136.65l33.47-.33s-4.7,76.6-78.72,75.33"/></g><g id="bathroom_vand-3" data-name="bathroom_vand"><rect class="cls-5" x="484" y="720" width="524" height="24" rx="12"/><path class="cls-5" d="M992,744v15.22c-13.52,71-48.94,130.39-96.16,164.78H892V907a10,10,0,0,0-20,0v17H615V907a10,10,0,0,0-20,0v16.89C544.53,887.05,507.56,821.61,496.46,744Z"/></g><g id="bathroom_vand-4" data-name="bathroom_vand"><circle class="cls-16" cx="1601" cy="448" r="18.5"/><rect class="cls-16" x="1594" y="463" width="16" height="42"/><path class="cls-16" d="M1666,564v98a34,34,0,0,1-68,0V537h10V659a25,25,0,0,0,50,0V573C1657.83,573,1665.83,563.86,1666,564Z"/><path class="cls-16" d="M1684,596a5,5,0,0,1-5-5V573a5,5,0,1,1,10,0v18A5,5,0,0,1,1684,596Z"/></g></g><rect class="cls-5" x="1419" y="892" width="415" height="77"/><rect class="cls-19" x="401.56" y="-0.36" width="15.45" height="45.11"/><rect class="cls-20" x="409.56" y="-0.36" width="7.39" height="45.11"/><g id="lys_group"><g id="bathroom_lys"><polygon class="cls-21" points="1286.26 127.88 1207.25 229 1440.84 229 1341.6 120.83 1286.26 127.88"/><rect class="cls-19" x="1311.87" y="-0.36" width="15.45" height="45.11"/><rect class="cls-20" x="1319.88" y="-0.36" width="7.39" height="45.11"/><polygon class="cls-22" points="1319.54 35.85 1319.54 161 1260.21 161 1293.46 35.85 1319.54 35.85"/><polygon class="cls-23" points="1319.54 35.85 1319.54 161 1378.87 161 1345.68 35.85 1319.54 35.85"/></g><g id="bathroom_lys-2" data-name="bathroom_lys"><polygon class="cls-24" points="378.26 127.88 299.25 229 532.84 229 433.6 120.83 378.26 127.88"/><polygon class="cls-22" points="409.28 35.85 409.28 161 349.95 161 383.14 35.85 409.28 35.85"/><polygon class="cls-23" points="409.28 35.85 409.28 161 468.61 161 435.37 35.85 409.28 35.85"/></g></g></g></svg>