<svg xmlns="http://www.w3.org/2000/svg" xmlns:xlink="http://www.w3.org/1999/xlink" viewBox="0 0 1920 1080"><defs><style>.cls-1{fill:#ddbcc8;}.cls-2{fill:#bcab92;}.cls-3{fill:#d6a1b7;}.cls-4{fill:#261f44;}.cls-5{fill:#5f5f60;opacity:0.44;}.cls-21,.cls-22,.cls-6{fill:none;stroke-miterlimit:10;}.cls-6{stroke:#998675;stroke-width:2px;}.cls-7{fill:#454289;}.cls-8{fill:#38327c;}.cls-9{fill:#fff;}.cls-10{fill:#e6e6e6;}.cls-11{fill:#f69;}.cls-12{fill:#ff4370;}.cls-13,.cls-40{fill:#e53c70;}.cls-13{opacity:0.23;}.cls-14{fill:#3f4650;}.cls-15{fill:#0267b6;}.cls-16{fill:#2bb03e;}.cls-17{fill:#ea2023;}.cls-18{fill:#fbed23;}.cls-19{fill:#0e6b7a;}.cls-20{opacity:0.64;fill:url(#linear-gradient);}.cls-21{stroke:#fff;stroke-width:8.03px;}.cls-22{stroke:#ff4370;stroke-width:1.34px;}.cls-23{fill:url(#radial-gradient);}.cls-24{fill:url(#radial-gradient-2);}.cls-25{fill:url(#radial-gradient-3);}.cls-26{fill:url(#radial-gradient-4);}.cls-27{fill:url(#radial-gradient-5);}.cls-28{fill:url(#radial-gradient-6);}.cls-29{fill:url(#radial-gradient-7);}.cls-30{fill:url(#radial-gradient-8);}.cls-31{fill:url(#radial-gradient-9);}.cls-32{fill:url(#radial-gradient-10);}.cls-33{fill:url(#radial-gradient-11);}.cls-34{fill:url(#radial-gradient-12);}.cls-35{fill:url(#radial-gradient-13);}.cls-36{fill:url(#radial-gradient-14);}.cls-37{fill:url(#radial-gradient-15);}.cls-38{fill:url(#radial-gradient-16);}.cls-39{fill:url(#radial-gradient-17);}.cls-41{fill:#ff83b3;}.cls-42{fill:#ebb724;}.cls-43{fill:#ffc727;}.cls-44{fill:#50acb0;}.cls-45{fill:#fd8283;}.cls-46{fill:#f07b7c;}.cls-47{fill:#3c8185;}.cls-48{fill:#ececec;}.cls-49{fill:#bec3c7;}.cls-50{fill:#dae0e2;}.cls-51{fill:#004f4d;}.cls-52{fill:#007f4f;}.cls-53{fill:#00654d;}.cls-54{fill:#f59333;}</style><linearGradient id="linear-gradient" x1="1602.3" y1="300.96" x2="1602.3" y2="536.38" gradientUnits="userSpaceOnUse"><stop offset="0" stop-color="#becdec"/><stop offset="0.2" stop-color="#a1a7dc"/><stop offset="0.22" stop-color="#9da2da"/><stop offset="0.39" stop-color="#807cca"/><stop offset="0.52" stop-color="#6e65c1"/><stop offset="0.6" stop-color="#685cbd"/><stop offset="0.95" stop-color="#5848b4"/></linearGradient><radialGradient id="radial-gradient" cx="904" cy="236" r="26" gradientUnits="userSpaceOnUse"><stop offset="0" stop-color="#ffff9b"/><stop offset="0.22" stop-color="#ffff9a" stop-opacity="0.76"/><stop offset="0.6" stop-color="#ff9" stop-opacity="0.36"/><stop offset="0.87" stop-color="#ffff98" stop-opacity="0.1"/><stop offset="1" stop-color="#ffff98" stop-opacity="0"/></radialGradient><radialGradient id="radial-gradient-2" cx="960" cy="323" xlink:href="#radial-gradient"/><radialGradient id="radial-gradient-3" cx="1018" cy="391" xlink:href="#radial-gradient"/><radialGradient id="radial-gradient-4" cx="1093" cy="443" xlink:href="#radial-gradient"/><radialGradient id="radial-gradient-5" cx="1186" cy="459" xlink:href="#radial-gradient"/><radialGradient id="radial-gradient-6" cx="1196" cy="546" xlink:href="#radial-gradient"/><radialGradient id="radial-gradient-7" cx="1222" cy="644" xlink:href="#radial-gradient"/><radialGradient id="radial-gradient-8" cx="1263" cy="729" xlink:href="#radial-gradient"/><radialGradient id="radial-gradient-9" cx="1323" cy="813" xlink:href="#radial-gradient"/><radialGradient id="radial-gradient-10" cx="1514" cy="323" gradientTransform="matrix(-1, 0, 0, 1, 2368, 0)" xlink:href="#radial-gradient"/><radialGradient id="radial-gradient-11" cx="1572" cy="391" gradientTransform="matrix(-1, 0, 0, 1, 2368, 0)" xlink:href="#radial-gradient"/><radialGradient id="radial-gradient-12" cx="1647" cy="443" gradientTransform="matrix(-1, 0, 0, 1, 2368, 0)" xlink:href="#radial-gradient"/><radialGradient id="radial-gradient-13" cx="1740" cy="459" gradientTransform="matrix(-1, 0, 0, 1, 2368, 0)" xlink:href="#radial-gradient"/><radialGradient id="radial-gradient-14" cx="1750" cy="546" gradientTransform="matrix(-1, 0, 0, 1, 2368, 0)" xlink:href="#radial-gradient"/><radialGradient id="radial-gradient-15" cx="1776" cy="644" gradientTransform="matrix(-1, 0, 0, 1, 2368, 0)" xlink:href="#radial-gradient"/><radialGradient id="radial-gradient-16" cx="1817" cy="729" gradientTransform="matrix(-1, 0, 0, 1, 2368, 0)" xlink:href="#radial-gradient"/><radialGradient id="radial-gradient-17" cx="1877" cy="813" gradientTransform="matrix(-1, 0, 0, 1, 2368, 0)" xlink:href="#radial-gradient"/></defs><g id="Bedroom"><rect class="cls-1" x="1" width="1920" height="1079"/><rect class="cls-2" x="0.5" y="911.5" width="1920" height="168"/><rect class="cls-3" x="1" y="877" width="1920" height="34"/><g id="wall"><rect class="cls-3" x="40" width="21" height="912"/><rect class="cls-3" x="284" width="21" height="912"/><rect class="cls-3" x="406" y="-1" width="21" height="912"/><rect class="cls-3" x="528" y="-1" width="21" height="912"/><rect class="cls-3" x="650" y="-1" width="21" height="912"/><rect class="cls-3" x="772" y="-1" width="21" height="912"/><rect class="cls-3" x="894" y="-1" width="21" height="912"/><rect class="cls-3" x="1016" y="-1" width="21" height="912"/><rect class="cls-3" x="1138" y="-1" width="21" height="912"/><rect class="cls-3" x="1260" y="-1" width="21" height="912"/><rect class="cls-3" x="1382" y="-1" width="21" height="912"/><rect class="cls-3" x="1504" y="-1" width="21" height="912"/><rect class="cls-3" x="1626" y="-1" width="21" height="912"/><rect class="cls-3" x="1748" y="-1" width="21" height="912"/><rect class="cls-3" x="1870" y="-1" width="21" height="912"/><rect class="cls-3" x="162" width="21" height="912"/></g><rect class="cls-4" x="285.82" y="49.82" width="17.7" height="440.66" transform="translate(564.82 -24.52) rotate(90)"/><rect class="cls-5" x="286.15" y="86.15" width="17.7" height="402" transform="translate(582.15 -7.85) rotate(90)"/><rect class="cls-4" x="94.82" y="266.82" width="9.18" height="47.18" transform="translate(198.82 580.82) rotate(180)"/><path class="cls-6" d="M906,225s101,247,280,234c0,0,2,336,276,445"/><path class="cls-6" d="M908,225S807,472,628,459c0,0-2,336-276,445"/><rect class="cls-4" x="486.82" y="266.82" width="9.18" height="47.18" transform="translate(982.82 580.82) rotate(180)"/><path class="cls-7" d="M625.22,779.26H905.68a0,0,0,0,1,0,0V910.59a0,0,0,0,1,0,0H625.22A14.18,14.18,0,0,1,611,896.41v-103A14.18,14.18,0,0,1,625.22,779.26Z"/><path class="cls-7" d="M643.74,617.63H905.68a0,0,0,0,1,0,0v144.8a0,0,0,0,1,0,0H629.56a0,0,0,0,1,0,0V631.81A14.18,14.18,0,0,1,643.74,617.63Z"/><path class="cls-8" d="M919.86,779.26h280.47a0,0,0,0,1,0,0V910.59a0,0,0,0,1,0,0H919.86a14.18,14.18,0,0,1-14.18-14.18v-103a14.18,14.18,0,0,1,14.18-14.18Z" transform="translate(2106.01 1689.86) rotate(-180)"/><path class="cls-8" d="M905.68,617.63h276.12a0,0,0,0,1,0,0v144.8a0,0,0,0,1,0,0H919.86a14.18,14.18,0,0,1-14.18-14.18V617.63a0,0,0,0,1,0,0Z" transform="translate(2087.49 1380.06) rotate(-180)"/><path class="cls-4" d="M1154,749H654.05a21.54,21.54,0,0,0-17.47,8.93l-15.44,21.37h565.72l-15.44-21.37A21.54,21.54,0,0,0,1154,749Z"/><rect class="cls-4" x="584.1" y="772.53" width="26.94" height="178.47"/><rect class="cls-4" x="1196.96" y="772.53" width="26.94" height="178.47"/><rect class="cls-9" x="649.76" y="718.65" width="250.87" height="30.31" rx="15.15"/><ellipse class="cls-9" cx="775.2" cy="703.5" rx="125.43" ry="25.26"/><rect class="cls-10" x="910.73" y="718.65" width="250.87" height="30.31" rx="15.15"/><ellipse class="cls-10" cx="1036.17" cy="703.5" rx="125.43" ry="25.26"/><circle class="cls-4" cx="229" cy="929" r="14"/><circle class="cls-4" cx="54" cy="929" r="14"/><rect class="cls-11" x="21.18" y="514" width="241.65" height="415"/><rect class="cls-12" x="40.44" y="531.51" width="203.12" height="89.3"/><rect class="cls-12" x="40.44" y="627.82" width="203.12" height="89.3"/><rect class="cls-12" x="40.44" y="724.13" width="203.12" height="89.3"/><rect class="cls-12" x="40.44" y="820.43" width="203.12" height="89.3"/><rect class="cls-13" x="142" y="514" width="120.82" height="415"/><rect class="cls-9" x="101.73" y="573.54" width="82.3" height="5.25"/><circle class="cls-9" cx="106.1" cy="576.16" r="6.13"/><circle class="cls-9" cx="179.65" cy="576.16" r="6.13"/><rect class="cls-9" x="101.73" y="669.84" width="82.3" height="5.25"/><circle class="cls-9" cx="106.1" cy="672.47" r="6.13"/><circle class="cls-9" cx="179.65" cy="672.47" r="6.13"/><rect class="cls-9" x="101.73" y="766.15" width="82.3" height="5.25"/><circle class="cls-9" cx="106.1" cy="768.78" r="6.13"/><circle class="cls-9" cx="179.65" cy="768.78" r="6.13"/><rect class="cls-9" x="101.73" y="862.46" width="82.3" height="5.25"/><circle class="cls-9" cx="106.1" cy="865.09" r="6.13"/><circle class="cls-9" cx="179.65" cy="865.09" r="6.13"/><circle class="cls-4" cx="1547" cy="929" r="14"/><circle class="cls-4" cx="1372" cy="929" r="14"/><rect class="cls-11" x="1339.18" y="645" width="241.65" height="284"/><rect class="cls-12" x="1358.44" y="664" width="203.12" height="53.12"/><rect class="cls-12" x="1358.44" y="724.13" width="203.12" height="89.3"/><rect class="cls-12" x="1358.44" y="820.43" width="203.12" height="89.3"/><rect class="cls-13" x="1460" y="645" width="120.82" height="284"/><rect class="cls-9" x="1419.73" y="678.84" width="82.3" height="5.25"/><circle class="cls-9" cx="1424.1" cy="681.47" r="6.13"/><circle class="cls-9" cx="1497.65" cy="681.47" r="6.13"/><rect class="cls-9" x="1419.73" y="741.15" width="82.3" height="5.25"/><circle class="cls-9" cx="1424.1" cy="743.78" r="6.13"/><circle class="cls-9" cx="1497.65" cy="743.78" r="6.13"/><rect class="cls-9" x="1419.73" y="838.46" width="82.3" height="5.25"/><circle class="cls-9" cx="1424.1" cy="841.09" r="6.13"/><circle class="cls-9" cx="1497.65" cy="841.09" r="6.13"/><g id="el_group"><circle class="cls-9" cx="555.82" cy="1006.18" r="18.82"/><circle class="cls-9" cx="603.22" cy="1006.18" r="18.82"/><rect class="cls-9" x="539.79" y="991.54" width="80.85" height="23.7" rx="8.5"/><rect class="cls-14" x="552.33" y="995.73" width="5.58" height="22.3"/><rect class="cls-14" x="552.33" y="995.73" width="5.58" height="22.3" transform="translate(1562 451.76) rotate(90)"/><rect class="cls-14" x="576.03" y="1006.88" width="1.39" height="4.18" transform="translate(1585.7 432.24) rotate(90)"/><rect class="cls-14" x="583" y="1006.88" width="1.39" height="4.18" transform="translate(1592.67 425.27) rotate(90)"/><circle class="cls-15" cx="598.34" cy="1001.3" r="4.18"/><circle class="cls-16" cx="609.49" cy="1001.3" r="4.18"/><circle class="cls-17" cx="609.49" cy="1012.45" r="4.18"/><circle class="cls-18" cx="598.34" cy="1012.45" r="4.18"/></g><polygon class="cls-19" points="1505.12 529.38 1505.12 457.69 1510.94 457.86 1510.94 433.38 1533.43 433.38 1533.43 529.38 1544.55 529.38 1544.55 422.75 1551.22 422.75 1551.65 404.22 1566.78 404.22 1566.19 422.1 1574.91 422.1 1574.91 529.38 1588.28 529.38 1588.28 422.75 1596.72 422.1 1596.72 411.36 1608.35 411.36 1608.35 529.38 1621.63 529.38 1621.63 371.86 1625.96 371.86 1625.96 357.66 1644.19 357.66 1644.7 307.37 1647.38 307.37 1647.38 357.66 1651.97 357.66 1651.97 371.43 1659.24 371.44 1659.24 529.38 1665.89 529.38 1665.89 433.51 1685.41 433.51 1685.41 457.59 1694.13 457.59 1694.13 529.38 1505.12 529.38"/><rect class="cls-20" x="1501.98" y="300.96" width="200.64" height="235.42"/><rect class="cls-21" x="1497.97" y="295.61" width="201.98" height="236.76"/><rect class="cls-9" x="1497.97" y="386.56" width="201.98" height="12.04"/><rect class="cls-12" x="1493.96" y="288.92" width="210" height="12.04"/><rect class="cls-11" x="1493.96" y="222.04" width="210" height="66.88"/><rect class="cls-9" x="1485.93" y="529.69" width="224.72" height="16.05"/><rect class="cls-12" x="1484" y="210" width="232" height="14.71" rx="5.24"/><rect class="cls-12" x="1596.95" y="300.96" width="5.35" height="76.24"/><circle class="cls-22" cx="1599.63" cy="383.89" r="7.36"/><g id="lys_group"><g id="lights-bed"><circle id="bedroom_lys" class="cls-23" cx="904" cy="236" r="26"/><circle id="bedroom_lys-2" data-name="bedroom_lys" class="cls-24" cx="960" cy="323" r="26"/><circle id="bedroom_lys-3" data-name="bedroom_lys" class="cls-25" cx="1018" cy="391" r="26"/><circle id="bedroom_lys-4" data-name="bedroom_lys" class="cls-26" cx="1093" cy="443" r="26"/><circle id="bedroom_lys-5" data-name="bedroom_lys" class="cls-27" cx="1186" cy="459" r="26"/><circle id="bedroom_lys-6" data-name="bedroom_lys" class="cls-28" cx="1196" cy="546" r="26"/><circle id="bedroom_lys-7" data-name="bedroom_lys" class="cls-29" cx="1222" cy="644" r="26"/><circle id="bedroom_lys-8" data-name="bedroom_lys" class="cls-30" cx="1263" cy="729" r="26"/><circle id="bedroom_lys-9" data-name="bedroom_lys" class="cls-31" cx="1323" cy="813" r="26"/><circle id="bedroom_lys-10" data-name="bedroom_lys" class="cls-32" cx="854" cy="323" r="26"/><circle id="bedroom_lys-11" data-name="bedroom_lys" class="cls-33" cx="796" cy="391" r="26"/><circle id="bedroom_lys-12" data-name="bedroom_lys" class="cls-34" cx="721" cy="443" r="26"/><circle id="bedroom_lys-13" data-name="bedroom_lys" class="cls-35" cx="628" cy="459" r="26"/><circle id="bedroom_lys-14" data-name="bedroom_lys" class="cls-36" cx="618" cy="546" r="26"/><circle id="bedroom_lys-15" data-name="bedroom_lys" class="cls-37" cx="592" cy="644" r="26"/><circle id="bedroom_lys-16" data-name="bedroom_lys" class="cls-38" cx="551" cy="729" r="26"/><circle id="bedroom_lys-17" data-name="bedroom_lys" class="cls-39" cx="491" cy="813" r="26"/></g><g id="lamp2"><rect class="cls-4" x="363.36" y="494.52" width="7.66" height="399.48"/><polygon class="cls-12" points="367.18 354.16 367.18 499.52 298.25 499.52 336.81 354.16 367.18 354.16"/><polygon class="cls-40" points="367.18 354.16 367.18 499.52 436.04 499.52 397.49 354.16 367.18 354.16"/><path class="cls-4" d="M296,915h21s9.13-12.87,28-19c10.46-3.4,26.67-4.49,40-1,10.73,2.81,21.62,9.07,33,20h21v14H296Z"/></g><g id="lamp1"><rect class="cls-12" x="1300.91" width="8.16" height="277.25"/><path class="cls-11" d="M1304.91,296.84a88.11,88.11,0,0,0-88.1,88.1h176.25A88.16,88.16,0,0,0,1304.91,296.84Z"/><path class="cls-41" d="M1253.21,385h139.85a88.21,88.21,0,0,0-53.51-81.08A88.12,88.12,0,0,0,1253.21,385Z"/><circle class="cls-12" cx="1305.27" cy="282.45" r="14.39"/><path class="cls-11" d="M1319.24,279.13a14.43,14.43,0,0,0-10.64-10.64,8.51,8.51,0,1,0,10.64,10.64Z"/></g></g><path class="cls-42" d="M256.34,169.33l2.42,0c2-.05,4.65-.17,7.3-.29l3.89-.17c1.24-.05,2.39-.07,3.37-.08l1.33,0,1,.09.59.11.21,0,.12,0a.43.43,0,0,0,.46-.24.41.41,0,0,0-.21-.54l-.24-.11a6.63,6.63,0,0,0-.71-.29l-1.08-.26c-.41-.07-.88-.16-1.39-.21-1-.12-2.2-.19-3.46-.21-.64,0-1.29,0-1.95,0l-2,.06c-2.68.13-5.35.41-7.34.7-1,.13-1.82.3-2.4.39l-.86.17,0,0h0a.4.4,0,0,0,0,.79h1Z"/><path class="cls-43" d="M157.21,162.08c-1.86-4.9-25.49-4.88-25.45-.93,0,0,.63,80,5.32,100,7.37-.09,15.59-.15,24.34-.19C161.27,241.81,159,166.74,157.21,162.08Zm-6.14,34.19a.32.32,0,0,1-.2.1l-.38,0h-.19a5.87,5.87,0,0,0-.77,0l-2.62.22c-1,.06-2,.08-2.71.05a12.12,12.12,0,0,1-1.26-.11.42.42,0,0,1-.34-.49.4.4,0,0,1,.23-.31,8.55,8.55,0,0,1,1.21-.44,14.14,14.14,0,0,1,2.76-.46,12.71,12.71,0,0,1,1.51,0,7.7,7.7,0,0,1,1.35.19,4.12,4.12,0,0,1,.56.16,2.59,2.59,0,0,1,.44.21,1.76,1.76,0,0,1,.31.24l.1.1A.33.33,0,0,1,151.07,196.27Zm2.78-8.38a.42.42,0,0,1-.38.28h-.75c-.41,0-1,.06-1.77.1-1.48.1-3.48.21-5.47.27s-4,.06-5.51,0c-.75,0-1.38-.07-1.82-.09l-.69-.06a.41.41,0,0,1-.36-.46.4.4,0,0,1,.32-.35l.68-.13c.44-.06,1.06-.17,1.81-.26,1.5-.19,3.5-.35,5.51-.41a51,51,0,0,1,5.55.12,16.63,16.63,0,0,1,1.86.26,2.64,2.64,0,0,1,.57.14l.21.08A.39.39,0,0,1,153.85,187.89Z"/><path class="cls-44" d="M253.81,261.07h.26l.1-.12a1.08,1.08,0,0,0,.15-.83c-.33-1.17-10.84-21.23-21.62-41.29-6.45-12-21.68-40.12-23.89-42.31-2.4-2.37-11.8,1.15-16.67,4.71-2.21,1.62-3.17,3-2.69,4,.1.21,10.87,21.41,22.16,42.18q12.75,23.44,19.53,33.61h.23C239.06,261,246.59,261,253.81,261.07ZM235,258.31a17.62,17.62,0,0,1,1.69-1,42.55,42.55,0,0,1,7.93-3.3,18.75,18.75,0,0,1,1.92-.48.49.49,0,0,1,.56.39.5.5,0,0,1-.2.49s-.65.45-1.69,1a41.36,41.36,0,0,1-7.94,3.29,18.06,18.06,0,0,1-1.92.46.46.46,0,0,1-.35-.83ZM212.06,194.2s-.15.14-.4.33a12.08,12.08,0,0,1-1,.75,29,29,0,0,1-3.37,1.85,31,31,0,0,1-3.55,1.4c-.5.17-.93.28-1.22.35L202,199a.48.48,0,0,1-.56-.35.47.47,0,0,1,.14-.45l0,0,.38-.3c.26-.19.62-.45,1.06-.72a31.53,31.53,0,0,1,3.36-1.82c1.26-.59,2.55-1.1,3.53-1.44.49-.17.91-.29,1.19-.38l.44-.13h0a.49.49,0,0,1,.6.34A.5.5,0,0,1,212.06,194.2Zm-.1-7.43-.16.12c-.11.08-.26.2-.45.32-.38.25-.92.62-1.58,1-1.33.8-3.15,1.77-5,2.66s-3.74,1.68-5.19,2.22c-.71.28-1.34.47-1.76.62l-.67.21a.46.46,0,0,1-.57-.31.44.44,0,0,1,.16-.49h0l.59-.4c.4-.24.93-.61,1.6-1,1.33-.79,3.14-1.75,5-2.63s3.73-1.7,5.17-2.26c.71-.28,1.33-.48,1.74-.65l.63-.22,0,0a.47.47,0,0,1,.45.82Z"/><path class="cls-45" d="M190.13,256.84a28.94,28.94,0,0,1-3.37,1.14,32.75,32.75,0,0,1-3.74.76,34,34,0,0,1-4.36.33,35.59,35.59,0,0,1-8.11-.84c-1.08-.23-2-.5-2.58-.64l-.66-.16s-.11,0,0,0a.14.14,0,0,0,.11-.1l-.05,0,0,0a.36.36,0,0,1-.19.08c.2,1.32.4,2.48.62,3.5,7.18,0,14.65,0,22.26,0C190.06,259.9,190.1,258.53,190.13,256.84Z"/><path class="cls-45" d="M167.33,256.57a4.84,4.84,0,0,1,.81,0l2.63.29a65,65,0,0,0,7.87.42,53.74,53.74,0,0,0,7.83-.68c1.06-.18,1.95-.33,2.56-.46s1-.2,1-.2h.13c.21-14.83-.37-50.17-1.74-69.31l-.07,0h0l-1,0c-.31,0-.7-.05-1.15-.05l-1.5,0-3.75-.06-4.32,0c-2.94,0-5.88,0-8.1-.06s-3.69-.12-3.69-.12h0c-.58,19.23,0,54.22,2.26,70.33l.11,0A1,1,0,0,1,167.33,256.57Zm16-40.51a.42.42,0,0,1-.36.31h-.06l-.48.05-1.36.12c-1.13.09-2.63.16-4.14.16s-3-.05-4.12-.11l-.76,0-.55,0a1.2,1.2,0,0,0-.32,0h-.14l-.37,0a.4.4,0,0,1-.44-.37.41.41,0,0,1,.37-.44.32.32,0,0,1,.17,0,1.9,1.9,0,0,1,.55-.21l.64-.15.79-.14A29.91,29.91,0,0,1,177,215a32.07,32.07,0,0,1,4.17.23c.57.06,1.05.15,1.39.22l.4.09.14,0A.42.42,0,0,1,183.36,216.06Zm-14.51-7.4a.6.6,0,0,1,.24.05,3.7,3.7,0,0,1,.69-.22l.8-.15c.3-.06.63-.11,1-.16a46.91,46.91,0,0,1,5.29-.33,48.27,48.27,0,0,1,5.29.25c.72.07,1.32.17,1.75.24a3.27,3.27,0,0,1,.51.1l.18,0a.48.48,0,0,1-.06.94h-.05l-.63.06-1.72.16c-1.43.1-3.35.18-5.25.2s-3.82-.05-5.25-.13L170,209.6a2.22,2.22,0,0,0-.43,0h-.18l-.44,0a.47.47,0,0,1-.5-.45A.49.49,0,0,1,168.85,208.66Z"/><path class="cls-45" d="M168.43,185.06c2.22-.2,5.19-.34,8.16-.34a69.08,69.08,0,0,1,8.17.47c.55.06,1.06.16,1.51.23s.84.15,1.16.22.77.16.91.2c-.47-6.41-1-10.84-1.7-11.82,0,0-20.6-3.77-21.24,1.41-.27,2.18-.48,5.68-.62,10.06.08,0,.42-.07,1-.14S167.33,185.16,168.43,185.06Z"/><path class="cls-42" d="M153.61,187.38l-.21-.07a3.34,3.34,0,0,0-.57-.15,17,17,0,0,0-1.86-.25,48.62,48.62,0,0,0-5.55-.12c-2,.06-4,.22-5.51.4-.75.09-1.37.2-1.81.27l-.68.12a.41.41,0,0,0-.32.35.41.41,0,0,0,.36.46l.69.06c.44,0,1.07.08,1.82.1,1.51,0,3.51,0,5.51,0s4-.17,5.47-.27c.74,0,1.36-.1,1.77-.1h.75a.41.41,0,0,0,.38-.27A.4.4,0,0,0,153.61,187.38Z"/><path class="cls-42" d="M151,195.7a1.76,1.76,0,0,0-.31-.24,2.59,2.59,0,0,0-.44-.21,4.12,4.12,0,0,0-.56-.16,7.57,7.57,0,0,0-1.35-.19,12.71,12.71,0,0,0-1.51,0,14.14,14.14,0,0,0-2.76.46,7.27,7.27,0,0,0-1.21.44.4.4,0,0,0-.23.31.42.42,0,0,0,.34.49,12.12,12.12,0,0,0,1.26.11c.75,0,1.74,0,2.71-.05l2.62-.22a5.87,5.87,0,0,1,.77,0h.19l.38,0a.32.32,0,0,0,.2-.1.33.33,0,0,0,0-.47Z"/><path class="cls-46" d="M168.48,186.42c2.22,0,5.16.05,8.1.06l4.32,0,3.75.06,1.5,0c.45,0,.84,0,1.15.05l1,0h0l.07,0a.41.41,0,0,0,.35-.3.42.42,0,0,0-.31-.51l-.1,0c-.14,0-.45-.11-.91-.2s-.71-.15-1.16-.22-1-.17-1.51-.23a69.08,69.08,0,0,0-8.17-.47c-3,0-5.94.14-8.16.35-1.1.09-2,.21-2.67.29s-.9.12-1,.13h0a.41.41,0,0,0-.34.38.41.41,0,0,0,.36.42h0S166.27,186.37,168.48,186.42Z"/><path class="cls-46" d="M183.06,215.54l-.14,0-.41-.09a13.45,13.45,0,0,0-1.38-.22A32.07,32.07,0,0,0,177,215a30.17,30.17,0,0,0-4.19.28l-.78.14-.64.15a1.9,1.9,0,0,0-.55.21.32.32,0,0,0-.17,0,.41.41,0,0,0,.07.81l.37,0h.14a1.2,1.2,0,0,1,.32,0l.55,0,.76,0c1.12.07,2.62.13,4.12.12s3-.07,4.14-.16l1.35-.12.49-.05H183a.42.42,0,0,0,.06-.83Z"/><path class="cls-46" d="M168.9,209.61l.44,0h.18a2.22,2.22,0,0,1,.43,0l1.68.11c1.43.08,3.34.13,5.25.13s3.82-.1,5.25-.2l1.72-.16.63-.06h.05a.48.48,0,0,0,.06-.94l-.18,0a3.27,3.27,0,0,0-.51-.1c-.43-.07-1-.17-1.75-.24a48.27,48.27,0,0,0-5.29-.25,46.91,46.91,0,0,0-5.29.33c-.36,0-.69.1-1,.16l-.8.15a3.7,3.7,0,0,0-.69.22.6.6,0,0,0-.24-.05.49.49,0,0,0-.45.5A.47.47,0,0,0,168.9,209.61Z"/><path class="cls-46" d="M167.35,257.34l.05,0a.14.14,0,0,1-.11.1c-.09,0,0,0,0,0l.66.16c.61.14,1.5.41,2.58.64a35.59,35.59,0,0,0,8.11.84,34,34,0,0,0,4.36-.33,32.75,32.75,0,0,0,3.74-.76,28.94,28.94,0,0,0,3.37-1.14l.13-.06a.43.43,0,0,0,.25-.46.42.42,0,0,0-.37-.34H190s-.36.06-1,.2-1.5.28-2.56.46a53.74,53.74,0,0,1-7.83.68,65,65,0,0,1-7.87-.42l-2.63-.29a4.79,4.79,0,0,0-.81,0,1,1,0,0,0-.2,0l-.11,0a.54.54,0,0,0-.17.08l0,.05a.39.39,0,0,0-.05.54.41.41,0,0,0,.38.15.36.36,0,0,0,.19-.08Z"/><path class="cls-43" d="M280.83,256l-.18,0a6.45,6.45,0,0,1-.73.11c-.61.08-1.48.19-2.52.28-2.09.18-4.87.33-7.65.4s-5.57.05-7.66,0c-1,0-1.91-.09-2.52-.12s-1-.08-1-.08a.4.4,0,0,1-.36-.44.39.39,0,0,1,.34-.36l1-.12c.6-.05,1.47-.15,2.51-.23,2.09-.17,4.86-.31,7.64-.38s5.57-.06,7.65,0l3.43.1h.08c.58-24.63-2.49-85.4-4.41-91.35-1.39-4.33-20-6.35-20.87.11-.09.69-.16,2.3-.2,4.61l.86-.17c.58-.09,1.41-.26,2.4-.39,2-.29,4.66-.57,7.34-.7l2-.06c.66,0,1.31,0,1.94,0,1.27,0,2.46.09,3.47.21.51,0,1,.14,1.39.21l1.08.26a6.63,6.63,0,0,1,.71.29l.24.11a.41.41,0,0,1,.21.54.43.43,0,0,1-.46.24l-.12,0-.21,0-.59-.11-1-.09-1.33,0c-1,0-2.13,0-3.37.08l-3.89.17c-2.65.12-5.3.24-7.3.29l-2.42,0h-1c-.26,18.81.91,77.85,3.17,91.77l22,.12C280.69,259.78,280.78,258,280.83,256Zm-8.71-53.81a.45.45,0,0,1-.3.31,11.53,11.53,0,0,1-1.41.28,24.64,24.64,0,0,1-3.11.24,23.86,23.86,0,0,1-3.11-.17,11.39,11.39,0,0,1-1.42-.25.41.41,0,0,1-.3-.51.42.42,0,0,1,.29-.3,10.32,10.32,0,0,1,1.41-.29,22.9,22.9,0,0,1,3.11-.24,24.15,24.15,0,0,1,3.11.15,11.39,11.39,0,0,1,1.42.25A.43.43,0,0,1,272.12,202.17Zm-10.68-6.52a.38.38,0,0,1,.3-.31,17.17,17.17,0,0,1,1.74-.3,37.72,37.72,0,0,1,7.66-.11c1.05.1,1.75.24,1.75.24a.43.43,0,0,1,.33.51.42.42,0,0,1-.32.33,15.83,15.83,0,0,1-1.74.29,36.9,36.9,0,0,1-3.83.25c-1.39,0-2.78-.05-3.83-.15a16.85,16.85,0,0,1-1.75-.25A.42.42,0,0,1,261.44,195.65Z"/><path class="cls-42" d="M280.78,255.13l-3.43-.1c-2.08-.05-4.87-.05-7.65,0s-5.55.21-7.64.38c-1,.07-1.91.18-2.51.23l-1,.12a.39.39,0,0,0-.34.36.4.4,0,0,0,.36.44s.35,0,1,.08,1.48.09,2.52.12c2.09.08,4.88.1,7.66,0s5.56-.22,7.65-.4c1-.09,1.91-.2,2.52-.28a6.45,6.45,0,0,0,.73-.11l.18,0,.09,0a.42.42,0,0,0,.34-.39.41.41,0,0,0-.4-.43h-.08Z"/><path class="cls-42" d="M261.75,196.14a14.06,14.06,0,0,0,1.75.25,36.4,36.4,0,0,0,3.83.16,36.9,36.9,0,0,0,3.83-.25,15.83,15.83,0,0,0,1.74-.29.42.42,0,0,0,.32-.33.43.43,0,0,0-.33-.51s-.7-.14-1.75-.24a37.72,37.72,0,0,0-7.66.11,17.17,17.17,0,0,0-1.74.3.38.38,0,0,0-.3.31A.4.4,0,0,0,261.75,196.14Z"/><path class="cls-42" d="M271.81,201.63a12.89,12.89,0,0,0-1.42-.24,24.15,24.15,0,0,0-3.11-.15,22.9,22.9,0,0,0-3.11.24,10.32,10.32,0,0,0-1.41.29.42.42,0,0,0,0,.81,11.39,11.39,0,0,0,1.42.25,22.35,22.35,0,0,0,3.11.16,23,23,0,0,0,3.11-.23,11.53,11.53,0,0,0,1.41-.28.47.47,0,0,0,.3-.31A.44.44,0,0,0,271.81,201.63Z"/><path class="cls-47" d="M211.51,186l0,0-.63.22c-.41.17-1,.37-1.74.65-1.44.56-3.32,1.37-5.17,2.26s-3.66,1.84-5,2.63c-.67.38-1.2.75-1.6,1l-.59.4h0a.44.44,0,0,0-.16.49.46.46,0,0,0,.57.31l.67-.21c.42-.15,1.05-.34,1.76-.62,1.45-.54,3.34-1.34,5.19-2.22s3.67-1.86,5-2.66c.66-.39,1.2-.76,1.58-1,.19-.12.34-.24.45-.32l.16-.12a.47.47,0,0,0-.45-.82Z"/><path class="cls-47" d="M211.59,193.38h0l-.44.13c-.28.09-.7.21-1.19.38-1,.34-2.27.85-3.53,1.44a31.53,31.53,0,0,0-3.36,1.82c-.44.27-.8.53-1.06.72l-.38.3,0,0a.46.46,0,0,0,.42.79l.47-.11c.29-.07.72-.18,1.22-.35a31,31,0,0,0,3.55-1.4,29,29,0,0,0,3.37-1.85,12.08,12.08,0,0,0,1-.75c.25-.19.4-.33.4-.33a.5.5,0,0,0,.13-.48A.49.49,0,0,0,211.59,193.38Z"/><path class="cls-47" d="M235.36,259.14a18.06,18.06,0,0,0,1.92-.46,41.36,41.36,0,0,0,7.94-3.29,17.92,17.92,0,0,0,1.69-1,.5.5,0,0,0,.2-.49.49.49,0,0,0-.56-.39,18.75,18.75,0,0,0-1.92.48,42.55,42.55,0,0,0-7.93,3.3,19.39,19.39,0,0,0-1.69,1,.46.46,0,0,0,.35.83Z"/><g id="varm_group"><rect class="cls-48" x="1644.84" y="897.12" width="265.18" height="15.4" rx="4.37"/><rect class="cls-49" x="1650.71" y="894.19" width="254.91" height="22.01" rx="5.81"/><rect class="cls-49" x="1641.9" y="713" width="270.68" height="15.4" rx="4.37"/><rect class="cls-48" x="1647.04" y="710.07" width="260.41" height="22.01" rx="5.81"/><rect class="cls-49" x="1654.01" y="705.67" width="246.11" height="30.81" rx="5.81"/><rect class="cls-50" x="1662.08" y="702" width="32.64" height="223"/><rect class="cls-50" x="1660.24" y="884.65" width="36.31" height="40.35" rx="7.66"/><rect class="cls-50" x="1701.32" y="702" width="32.64" height="223"/><rect class="cls-50" x="1699.49" y="884.65" width="36.31" height="40.35" rx="7.66"/><rect class="cls-50" x="1741.67" y="702" width="32.64" height="223"/><rect class="cls-50" x="1739.83" y="884.65" width="36.31" height="40.35" rx="7.66"/><rect class="cls-50" x="1782.01" y="702" width="32.64" height="223"/><rect class="cls-50" x="1780.18" y="884.65" width="36.31" height="40.35" rx="7.66"/><rect class="cls-50" x="1820.89" y="702" width="32.64" height="223"/><rect class="cls-50" x="1819.06" y="884.65" width="36.31" height="40.35" rx="7.66"/><rect class="cls-50" x="1860.5" y="702" width="32.64" height="223"/><rect class="cls-50" x="1858.67" y="884.65" width="36.31" height="40.35" rx="7.66"/><rect class="cls-49" x="1680.41" y="708.97" width="35.58" height="24.57" rx="8.3"/><rect class="cls-49" x="1720.03" y="708.97" width="35.58" height="24.57" rx="8.3"/><rect class="cls-49" x="1760" y="708.97" width="35.58" height="24.57" rx="8.3"/><rect class="cls-49" x="1799.98" y="708.97" width="35.58" height="24.57" rx="8.3"/><rect class="cls-49" x="1839.6" y="708.97" width="35.58" height="24.57" rx="8.3"/><rect class="cls-49" x="1879.57" y="708.97" width="18.34" height="24.57" rx="7.4"/><rect class="cls-49" x="1657.67" y="708.97" width="18.34" height="24.57" rx="7.4"/></g></g><g id="Kitchen"><path class="cls-51" d="M415.3,250c.09-.51,8.58-51.41,19-59.49l-.61-.79c-10.76,8.32-19.06,58-19.41,60.12Z"/><path class="cls-51" d="M433,198.11c-4.87,1.59-7.41,6.52-7.41,6.52s5.37,2.35,10.25.76,7.39-6.51,7.39-6.51S437.89,196.52,433,198.11Z"/><path class="cls-51" d="M428.07,215.22c-4.86,1.59-7.39,6.52-7.39,6.52s5.37,2.34,10.24.75,7.39-6.51,7.39-6.51S433,213.63,428.07,215.22Z"/><path class="cls-51" d="M424.23,232.36c-4.86,1.59-7.39,6.51-7.39,6.51s5.37,2.35,10.23.77,7.4-6.52,7.4-6.52S429.11,230.77,424.23,232.36Z"/><path class="cls-51" d="M427.6,193.07c1.7,4.51-.91,9.41-.91,9.41s-5.33-2.42-7-6.93.91-9.41.91-9.41S425.92,188.56,427.6,193.07Z"/><path class="cls-51" d="M439.1,189.18c-2.33,2.21-6.16,2.23-6.16,2.23a8.48,8.48,0,0,1,2.28-5.71c2.32-2.2,6.15-2.24,6.15-2.24A8.51,8.51,0,0,1,439.1,189.18Z"/><path class="cls-51" d="M434.67,187.08a6.08,6.08,0,0,1-1.35,4.18,6.49,6.49,0,0,1-2.5-3.73,6.13,6.13,0,0,1,1.34-4.19A6.48,6.48,0,0,1,434.67,187.08Z"/><path class="cls-51" d="M418.43,209.7c3.53,3.47,3.33,8.93,3.33,8.93s-5.93-.19-9.46-3.67S409,206,409,206,414.89,206.21,418.43,209.7Z"/><path class="cls-51" d="M414.75,223.88c3.44,3.57,3.08,9,3.08,9s-5.92-.35-9.34-3.93-3.09-9-3.09-9S411.32,220.3,414.75,223.88Z"/><path class="cls-52" d="M408.1,252.32c0-.43-3.66-43.23,3.11-51.91l-.65-.51c-7,8.93-3.44,50.72-3.28,52.49Z"/><path class="cls-52" d="M411.72,206.86c-3.6,2.28-4.63,6.78-4.63,6.78s4.81.79,8.42-1.49,4.62-6.78,4.62-6.78S415.32,204.57,411.72,206.86Z"/><path class="cls-52" d="M411.25,221.67c-3.59,2.28-4.62,6.78-4.62,6.78s4.81.79,8.41-1.49,4.63-6.78,4.63-6.78S414.86,219.39,411.25,221.67Z"/><path class="cls-52" d="M411.68,236.29c-3.6,2.28-4.62,6.77-4.62,6.77s4.81.8,8.41-1.48,4.63-6.79,4.63-6.79S415.29,234,411.68,236.29Z"/><path class="cls-52" d="M406.31,203.91c2.3,3.28,1.2,7.77,1.2,7.77s-4.79-.85-7.08-4.14-1.2-7.78-1.2-7.78S404,200.62,406.31,203.91Z"/><path class="cls-52" d="M414.79,198.4a8.53,8.53,0,0,1-4.52,3.07,7.08,7.08,0,0,1,.67-5.08,8.54,8.54,0,0,1,4.5-3.07A7.08,7.08,0,0,1,414.79,198.4Z"/><path class="cls-52" d="M410.78,197.61a5.06,5.06,0,0,1-.23,3.66,5.39,5.39,0,0,1-2.78-2.5,5.06,5.06,0,0,1,.22-3.65A5.39,5.39,0,0,1,410.78,197.61Z"/><path class="cls-52" d="M402.33,219.21c3.57,2.07,4.53,6.52,4.53,6.52s-4.82,1.07-8.38-1-4.54-6.53-4.54-6.53S398.76,217.12,402.33,219.21Z"/><path class="cls-52" d="M402.29,231.4c3.51,2.18,4.34,6.65,4.34,6.65s-4.85.93-8.34-1.25-4.36-6.64-4.36-6.64S398.78,229.22,402.29,231.4Z"/><path class="cls-53" d="M401.16,249.76c-.08-.57-7.66-56.64-18.84-65.85l.69-.85c11.52,9.49,18.92,64.23,19.23,66.55Z"/><path class="cls-53" d="M383.5,192.34c5.29,1.91,7.9,7.39,7.9,7.39s-6,2.4-11.25.49-7.88-7.39-7.88-7.39S378.22,190.43,383.5,192.34Z"/><path class="cls-53" d="M388.34,211.25c5.28,1.91,7.89,7.4,7.89,7.4s-6,2.39-11.25.48-7.88-7.39-7.88-7.39S383.05,209.34,388.34,211.25Z"/><path class="cls-53" d="M392,230.17c5.28,1.9,7.88,7.39,7.88,7.39s-6,2.4-11.24.49-7.89-7.4-7.89-7.4S386.68,228.26,392,230.17Z"/><path class="cls-53" d="M389.61,187c-2,4.88.69,10.34.69,10.34s5.91-2.47,7.92-7.36-.68-10.33-.68-10.33S391.61,182.12,389.61,187Z"/><path class="cls-53" d="M377.15,182.34c2.48,2.5,6.68,2.65,6.68,2.65a9.3,9.3,0,0,0-2.31-6.33c-2.47-2.49-6.67-2.66-6.67-2.66S374.68,179.87,377.15,182.34Z"/><path class="cls-53" d="M382.07,180.19a6.69,6.69,0,0,0,1.34,4.63,7.11,7.11,0,0,0,2.87-4,6.72,6.72,0,0,0-1.33-4.64A7.11,7.11,0,0,0,382.07,180.19Z"/><path class="cls-53" d="M399.1,205.53c-4,3.69-4,9.68-4,9.68s6.51,0,10.5-3.7,4-9.68,4-9.68S403.1,201.83,399.1,205.53Z"/><path class="cls-53" d="M402.65,221.19C398.76,225,399,231,399,231s6.5-.19,10.37-4S413,217.2,413,217.2,406.54,217.39,402.65,221.19Z"/><polygon class="cls-54" points="419.34 261 394.7 261 387.66 245.04 426.38 245.04 419.34 261"/></g></svg>