<?xml version="1.0" encoding="utf-8"?>
<!-- Generator: Adobe Illustrator 24.3.0, SVG Export Plug-In . SVG Version: 6.00 Build 0)  -->
<svg version="1.1" xmlns="http://www.w3.org/2000/svg" xmlns:xlink="http://www.w3.org/1999/xlink" x="0px" y="0px"
	 viewBox="0 0 1920 1080" style="enable-background:new 0 0 1920 1080;" xml:space="preserve">
<style type="text/css">
	.st0{fill:#D8E9F0;}
	.st1{fill:#3687A4;}
	.st2{fill:#ADDDEC;}
	.st3{opacity:0.4;fill:#FFFFFF;}
	.st4{fill:#FFFFFF;}
	.st5{fill:#A6DEF6;}
	.st6{fill:#FBC45E;}
	.st7{fill:#E89BBE;}
	.st8{fill:#7A8EC7;}
	.st9{fill:none;stroke:#FFFFFF;stroke-width:6;stroke-miterlimit:10;}
	.st10{fill:#C1E6EC;}
	.st11{fill:#FFFFFF;stroke:#FFFFFF;stroke-width:4;stroke-miterlimit:10;}
	.st12{fill:#CBDF8C;}
	.st13{fill:none;stroke:#FFFFFF;stroke-width:2;stroke-miterlimit:10;}
	.st14{fill:#838186;stroke:#838186;stroke-width:4;stroke-miterlimit:10;}
	.st15{fill:#838186;}
	.st16{fill:#DFDFDF;}
	.st17{fill:none;stroke:#FFFFFF;stroke-width:28;stroke-miterlimit:10;}
	.st18{fill:#BFE3D3;}
	.st19{fill:#ADCEC1;}
	.st20{fill:url(#SVGID_1_);}
	.st21{fill:#58C5C7;}
	.st22{fill:#00B6BE;}
	.st23{fill:url(#SVGID_2_);}
	.st24{fill:#DDBCC8;}
	.st25{fill:#BCAB92;}
	.st26{fill:#D6A1B7;}
	.st27{fill:#261F44;}
	.st28{opacity:0.44;fill:#5F5F60;}
	.st29{fill:none;stroke:#998675;stroke-width:2;stroke-miterlimit:10;}
	.st30{fill:#454289;}
	.st31{fill:#38327C;}
	.st32{fill:#E6E6E6;}
	.st33{fill:#FF6699;}
	.st34{fill:#FF4370;}
	.st35{opacity:0.23;fill:#E53C70;}
	.st36{fill:#3F4650;}
	.st37{fill:#0267B6;}
	.st38{fill:#2BB03E;}
	.st39{fill:#EA2023;}
	.st40{fill:#FBED23;}
	.st41{fill:#0E6B7A;}
	.st42{opacity:0.64;fill:url(#SVGID_3_);}
	.st43{fill:none;stroke:#FFFFFF;stroke-width:8.0256;stroke-miterlimit:10;}
	.st44{fill:none;stroke:#FF4370;stroke-width:1.3376;stroke-miterlimit:10;}
	.st45{fill:url(#bedroom_x5F_lys_17_);}
	.st46{fill:url(#bedroom_x5F_lys_18_);}
	.st47{fill:url(#bedroom_x5F_lys_19_);}
	.st48{fill:url(#bedroom_x5F_lys_20_);}
	.st49{fill:url(#bedroom_x5F_lys_21_);}
	.st50{fill:url(#bedroom_x5F_lys_22_);}
	.st51{fill:url(#bedroom_x5F_lys_23_);}
	.st52{fill:url(#bedroom_x5F_lys_24_);}
	.st53{fill:url(#bedroom_x5F_lys_25_);}
	.st54{fill:url(#bedroom_x5F_lys_26_);}
	.st55{fill:url(#bedroom_x5F_lys_27_);}
	.st56{fill:url(#bedroom_x5F_lys_28_);}
	.st57{fill:url(#bedroom_x5F_lys_29_);}
	.st58{fill:url(#bedroom_x5F_lys_30_);}
	.st59{fill:url(#bedroom_x5F_lys_31_);}
	.st60{fill:url(#bedroom_x5F_lys_32_);}
	.st61{fill:url(#bedroom_x5F_lys_33_);}
	.st62{fill:#E53C70;}
	.st63{fill:#FF83B3;}
	.st64{fill:#EBB724;}
	.st65{fill:#FFC727;}
	.st66{fill:#50ACB0;}
	.st67{fill:#FD8283;}
	.st68{fill:#F07B7C;}
	.st69{fill:#3C8185;}
	.st70{display:none;fill:#3C8185;}
	.st71{fill:#ECECEC;}
	.st72{fill:#BEC3C7;}
	.st73{fill:#DAE0E2;}
	.st74{fill:#92D1DF;}
	.st75{fill:#010101;}
	.st76{fill:#FDEE40;}
	.st77{fill:#020202;}
	.st78{fill:#76B62A;}
	.st79{fill:#FAB924;}
	.st80{fill:#F20303;}
	.st81{fill:#ABD2D0;}
	.st82{fill:#968976;}
	.st83{fill:#70675B;}
	.st84{fill:#E4DECE;}
	.st85{fill:#93B7B6;}
	.st86{fill:#C9F9F9;}
	.st87{fill:none;stroke:#FFFFFF;stroke-width:2.9103;stroke-miterlimit:10;}
	.st88{fill:#F1893A;}
	.st89{fill:#C96E31;}
	.st90{fill:#DB7838;}
	.st91{fill:#2F3E4C;}
	.st92{fill:#FFDD83;}
	.st93{fill:#219260;}
	.st94{fill:#147798;}
	.st95{fill:#915E36;}
	.st96{fill:#FB8710;}
	.st97{fill:#CA9E64;}
	.st98{fill:#B07F48;}
	.st99{fill:#53D678;}
	.st100{fill:#5C4B51;}
	.st101{fill:#F06060;}
	.st102{fill:#F2EBBF;}
	.st103{fill:none;stroke:#5C4B51;stroke-width:3.4462;stroke-linecap:round;stroke-linejoin:round;stroke-miterlimit:10;}
	.st104{opacity:0.38;fill:none;stroke:#FFFFFF;stroke-width:7;stroke-linecap:round;stroke-linejoin:round;stroke-miterlimit:10;}
	.st105{fill:#5C4B7A;}
	.st106{fill:#F03960;}
	.st107{fill:#FFC783;}
	.st108{fill:#5C1A51;}
	.st109{fill:#52BEB2;}
	.st110{fill:#F0A660;}
	.st111{fill:#F3B562;}
	.st112{fill:#87A978;}
	.st113{fill:#93BD85;}
	.st114{fill:#ACDA99;}
	.st115{fill:#475362;}
	.st116{fill:#627289;}
	.st117{fill:#303846;}
	.st118{fill:#41505E;}
	.st119{fill:none;stroke:#87A978;stroke-width:1.1982;stroke-miterlimit:10;}
	.st120{fill:#B4E6A1;}
	.st121{fill:none;stroke:#87A978;stroke-width:0.8558;stroke-miterlimit:10;}
	.st122{fill:#6E8462;}
	.st123{fill-rule:evenodd;clip-rule:evenodd;fill:#F0EEE6;}
	.st124{fill:#E4E0D9;}
	.st125{fill:#DC9C76;}
	.st126{fill:#729C76;}
	.st127{fill:#A94B51;}
	.st128{fill:#974B51;}
	.st129{opacity:0.5;fill:#CC575E;}
	.st130{fill:#7F9C76;}
	.st131{fill:#F27800;}
	.st132{fill:#613D4A;}
	.st133{fill:#004F4D;}
	.st134{fill:#007F4F;}
	.st135{fill:#00654D;}
	.st136{fill:#F59333;}
	.st137{fill:#F1ECDA;}
	.st138{fill:#88A8A7;}
	.st139{fill:url(#SVGID_4_);}
	.st140{fill:#E6E7E8;}
	.st141{fill:#D1D3D4;}
	.st142{fill:#FDBA4A;}
	.st143{fill:#FAA222;}
	.st144{fill:#D3DEBC;}
	.st145{fill:#CC883B;}
	.st146{fill-rule:evenodd;clip-rule:evenodd;fill:#919697;}
	.st147{fill-rule:evenodd;clip-rule:evenodd;fill:#36343A;}
	.st148{fill-rule:evenodd;clip-rule:evenodd;fill:#0C050D;stroke:#0C050D;stroke-width:0.235;stroke-miterlimit:22.9256;}
	.st149{fill-rule:evenodd;clip-rule:evenodd;fill:#36343A;stroke:#0C050D;stroke-width:0.235;stroke-miterlimit:22.9256;}
	.st150{fill-rule:evenodd;clip-rule:evenodd;fill:#7D8082;}
	.st151{fill-rule:evenodd;clip-rule:evenodd;fill:#5BBA47;}
	.st152{fill-rule:evenodd;clip-rule:evenodd;fill:#818081;}
	.st153{fill-rule:evenodd;clip-rule:evenodd;fill:#666264;}
	.st154{fill-rule:evenodd;clip-rule:evenodd;fill:#3B3438;}
	.st155{fill-rule:evenodd;clip-rule:evenodd;fill:#62C3D2;}
	.st156{fill-rule:evenodd;clip-rule:evenodd;fill:#A0D6E1;}
	.st157{fill-rule:evenodd;clip-rule:evenodd;fill:#00B6E8;}
	.st158{fill-rule:evenodd;clip-rule:evenodd;fill:#232938;}
	.st159{fill-rule:evenodd;clip-rule:evenodd;fill:#E5B249;}
	.st160{fill-rule:evenodd;clip-rule:evenodd;fill:#D4C2AB;}
	.st161{fill-rule:evenodd;clip-rule:evenodd;fill:#E1894A;}
	.st162{fill-rule:evenodd;clip-rule:evenodd;fill:#FFFFFF;}
	.st163{fill:#232938;}
	.st164{fill:#A9B392;}
	.st165{fill:#E5B249;}
	.st166{fill-rule:evenodd;clip-rule:evenodd;fill:#A9B392;}
	.st167{fill:#F45A2A;}
	.st168{fill:#F67B46;}
	.st169{fill:#E73F1F;}
	.st170{fill:#E1894A;}
	.st171{fill:#0A837F;}
	.st172{fill:#1DA19F;}
	.st173{fill:#3A6B34;}
	.st174{fill:#96BCBB;}
	.st175{fill:#68858E;}
	.st176{fill:#69935F;}
	.st177{fill:#B75353;}
	.st178{fill:#E0A76E;}
	.st179{fill:#F0D1BC;}
	.st180{fill:#1D2E35;}
	.st181{fill:#272A33;}
	.st182{fill:#563B31;}
	.st183{fill:#462D23;}
	.st184{fill:#FF8D0C;}
	.st185{fill:#FFBF17;}
	.st186{fill:#FFF2EB;}
	.st187{fill:#FFD690;}
	.st188{fill:#FFE5BF;}
	.st189{fill:#F9C44E;}
	.st190{fill:#F9DCB2;}
	.st191{fill:#F9EAD7;}
	.st192{fill:#61AA6A;}
	.st193{fill:#DCD8A0;}
	.st194{fill:#F8F6D3;}
	.st195{fill:#E8E4BF;}
	.st196{fill:#F1CC5E;}
	.st197{fill:#BB8150;}
	.st198{fill:#D09059;}
	.st199{fill:#E3AA79;}
	.st200{fill:#6FC07F;}
	.st201{fill:#A56A2D;}
	.st202{fill:url(#SVGID_5_);}
	.st203{fill:#EFA68F;}
	.st204{fill:#F28B66;}
	.st205{fill-rule:evenodd;clip-rule:evenodd;fill:#999A9A;}
	.st206{fill-rule:evenodd;clip-rule:evenodd;fill:#F3C54B;}
	.st207{fill-rule:evenodd;clip-rule:evenodd;fill:#BBBABA;}
	.st208{fill-rule:evenodd;clip-rule:evenodd;fill:#009CB4;}
	.st209{fill:url(#SVGID_6_);}
	.st210{fill:#3F4E61;}
	.st211{fill:#BE6647;}
	.st212{fill:#404F5F;}
	.st213{fill:#117598;}
	.st214{opacity:0.5;fill:#FF6E86;}
</style>
<g id="Bathroom-icons">
</g>
<g id="Bathroom">
</g>
<g id="Bedroom-icons">
</g>
<g id="Bedroom">
</g>
<g id="icons">
	<g id="heat">
		<path class="st76" d="M1637.6,398.2c20.3-0.2,37.4,16.5,37.4,37.4c0,20.6-17,37.6-37.9,37.4c-20.2-0.2-37.2-17-37-37.8
			C1600.2,414.9,1617.2,398,1637.6,398.2z M1624.2,457C1624.2,457,1624.2,457,1624.2,457c0,0.6-0.1,1.2,0,1.8c0.1,1.6,0.7,1.9,2,1
			c1-0.6,1.8-1.4,2.8-2c1.2-0.8,1.7-0.7,2.2,0.7c0.4,1.1,0.7,2.3,1,3.4c0.5,1.5,1.2,1.6,2.2,0.4c0.7-0.9,1.3-1.8,2-2.7
			c1-1.3,1.5-1.3,2.5,0c0.7,0.9,1.3,2,2,2.9c0.9,1.1,1.5,1,2-0.3c0.4-1.1,0.7-2.3,1.1-3.4c0.5-1.5,1-1.6,2.3-0.7
			c1,0.7,1.9,1.5,2.9,2.2c1,0.7,1.5,0.4,1.7-0.8c0.2-1.3-0.1-2.6,0-3.9c0.1-1.3,0.6-1.6,1.8-1.3c1.1,0.3,2.1,0.8,3.2,1.1
			c0.5,0.2,1.2,0.5,1.7,0c0.5-0.5,0.2-1.1,0-1.7c-0.3-1-0.7-2-1-3c-0.4-1.5-0.1-2,1.5-2c1.1,0,2.3,0.1,3.4,0.1c1.6-0.1,1.9-0.7,1-2
			c-0.6-1-1.4-1.8-2-2.8c-0.8-1.2-0.6-1.7,0.7-2.2c1.1-0.4,2.3-0.7,3.5-1.1c1.3-0.5,1.5-1.2,0.3-2.1c-0.9-0.7-1.9-1.4-2.9-2.1
			c-1.2-0.9-1.2-1.5,0-2.3c0.6-0.5,1.3-0.9,1.9-1.3c0.5-0.3,0.9-0.6,1.3-1c0.7-0.7,0.6-1.2-0.3-1.7c-0.3-0.2-0.7-0.3-1.1-0.4
			c-0.9-0.3-1.8-0.5-2.6-0.8c-1.5-0.5-1.6-1-0.7-2.3c0.7-0.9,1.4-1.8,2.1-2.8c0.8-1.2,0.5-1.8-0.9-1.9c-1.2,0-2.5,0-3.7,0
			c-1.3-0.1-1.6-0.5-1.3-1.7c0.3-1.2,0.8-2.3,1.2-3.4c0.5-1.6,0-2-1.5-1.6c-1.2,0.3-2.3,0.8-3.5,1.1c-1.2,0.3-1.6,0.1-1.7-1.2
			c-0.1-1.2,0-2.4,0-3.5c0-0.6,0.1-1.3-0.5-1.6c-0.6-0.3-1.1,0.1-1.6,0.5c-0.9,0.6-1.7,1.3-2.6,1.9c-1.3,0.9-1.8,0.7-2.3-0.8
			c-0.3-1-0.6-2-0.9-3.1c-0.2-0.5-0.3-1.2-1-1.3c-0.7-0.1-1,0.5-1.4,1c-0.6,0.9-1.2,1.8-1.9,2.6c-0.9,1.2-1.5,1.2-2.4,0
			c-0.7-0.9-1.2-1.8-1.9-2.7c-0.3-0.5-0.7-1-1.3-0.9c-0.7,0.1-0.8,0.8-1,1.3c-0.2,0.4-0.2,0.8-0.4,1.2c-0.3,0.8-0.5,1.6-0.8,2.3
			c-0.4,0.9-0.9,1.1-1.7,0.5c-0.7-0.5-1.4-1-2.1-1.5c-0.5-0.4-1-0.8-1.6-1.1c-0.7-0.3-1.1-0.1-1.3,0.6c-0.1,0.4-0.1,0.8-0.1,1.1
			c0,1,0.1,2.1,0,3.1c-0.1,1.4-0.5,1.7-1.8,1.3c-1.2-0.4-2.3-0.8-3.4-1.2c-1.4-0.4-1.8,0-1.5,1.4c0.1,0.5,0.3,1,0.5,1.5
			c0.2,0.7,0.5,1.5,0.7,2.2c0.3,1,0,1.4-1.1,1.6c-0.5,0.1-1.1,0-1.6,0c-1,0-1.9-0.2-2.9,0c-0.8,0.2-1,0.6-0.7,1.3
			c0.3,0.7,0.8,1.3,1.2,1.8c0.5,0.7,1,1.3,1.4,2c0.4,0.7,0.2,1.2-0.5,1.5c-0.6,0.2-1.2,0.4-1.8,0.6c-0.9,0.3-1.8,0.4-2.6,0.9
			c-0.7,0.4-0.8,0.8-0.3,1.4c0.5,0.6,1.1,1,1.7,1.4c0.7,0.5,1.4,0.9,2.1,1.5c0.5,0.5,0.5,1,0,1.5c-0.5,0.5-1.2,0.9-1.8,1.3
			c-0.5,0.3-1,0.6-1.5,1c-0.4,0.3-1,0.7-0.9,1.3c0.1,0.6,0.7,0.8,1.2,0.9c0.8,0.3,1.6,0.5,2.4,0.7c0.5,0.2,1,0.4,1.5,0.6
			c0.6,0.3,0.8,0.8,0.4,1.4c-0.3,0.7-0.8,1.2-1.3,1.8c-0.5,0.7-1.1,1.3-1.5,2.1c-0.3,0.8-0.1,1.2,0.7,1.3c0.3,0.1,0.7,0.1,1.1,0.1
			c1.1,0,2.3,0,3.4,0c1.1,0.1,1.4,0.5,1.1,1.5c-0.3,1.1-0.8,2.2-1.1,3.3c-0.2,0.6-0.6,1.3,0,1.8c0.5,0.6,1.2,0.2,1.8,0
			c1.1-0.3,2.2-0.9,3.4-1.1c0.9-0.2,1.4,0.1,1.4,1.1C1624.2,455.6,1624.2,456.3,1624.2,457z"/>
		<path class="st77" d="M1624.2,457c0-0.7,0-1.4,0-2.1c-0.1-0.9-0.5-1.2-1.4-1.1c-1.2,0.2-2.2,0.8-3.4,1.1c-0.6,0.2-1.3,0.6-1.8,0
			c-0.5-0.6-0.1-1.2,0-1.8c0.3-1.1,0.8-2.2,1.1-3.3c0.3-1,0-1.5-1.1-1.5c-1.1-0.1-2.2,0-3.4,0c-0.4,0-0.7,0-1.1-0.1
			c-0.8-0.2-1-0.6-0.7-1.3c0.4-0.8,0.9-1.4,1.5-2.1c0.5-0.6,0.9-1.1,1.3-1.8c0.3-0.6,0.2-1.1-0.4-1.4c-0.5-0.2-1-0.4-1.5-0.6
			c-0.8-0.3-1.6-0.5-2.4-0.7c-0.5-0.2-1.1-0.3-1.2-0.9c-0.1-0.7,0.4-1,0.9-1.3c0.5-0.4,1-0.7,1.5-1c0.6-0.4,1.2-0.8,1.8-1.3
			c0.5-0.5,0.5-1,0-1.5c-0.6-0.6-1.3-1.1-2.1-1.5c-0.6-0.4-1.3-0.8-1.7-1.4c-0.5-0.6-0.4-1,0.3-1.4c0.8-0.5,1.7-0.6,2.6-0.9
			c0.6-0.2,1.2-0.4,1.8-0.6c0.7-0.3,0.9-0.8,0.5-1.5c-0.4-0.7-0.9-1.4-1.4-2c-0.4-0.6-0.9-1.2-1.2-1.8c-0.3-0.8-0.1-1.2,0.7-1.3
			c1-0.2,1.9,0,2.9,0c0.5,0,1.1,0,1.6,0c1.1-0.1,1.3-0.5,1.1-1.6c-0.2-0.7-0.5-1.5-0.7-2.2c-0.2-0.5-0.4-1-0.5-1.5
			c-0.3-1.4,0.1-1.9,1.5-1.4c1.2,0.3,2.3,0.8,3.4,1.2c1.3,0.4,1.8,0.1,1.8-1.3c0-1,0-2.1,0-3.1c0-0.4,0-0.8,0.1-1.1
			c0.2-0.8,0.5-1,1.3-0.6c0.6,0.3,1.1,0.7,1.6,1.1c0.7,0.5,1.3,1.1,2.1,1.5c0.9,0.6,1.3,0.4,1.7-0.5c0.3-0.8,0.5-1.6,0.8-2.3
			c0.1-0.4,0.2-0.8,0.4-1.2c0.2-0.5,0.4-1.2,1-1.3c0.6-0.1,1,0.5,1.3,0.9c0.6,0.9,1.2,1.8,1.9,2.7c0.9,1.2,1.5,1.2,2.4,0
			c0.6-0.8,1.2-1.7,1.9-2.6c0.3-0.5,0.7-1.1,1.4-1c0.7,0.1,0.8,0.8,1,1.3c0.3,1,0.6,2,0.9,3.1c0.5,1.5,1,1.7,2.3,0.8
			c0.9-0.6,1.7-1.3,2.6-1.9c0.5-0.3,1-0.8,1.6-0.5c0.6,0.3,0.5,1,0.5,1.6c0,1.2-0.1,2.4,0,3.5c0.1,1.3,0.4,1.5,1.7,1.2
			c1.2-0.3,2.3-0.8,3.5-1.1c1.5-0.4,2,0,1.5,1.6c-0.3,1.2-0.8,2.3-1.2,3.4c-0.4,1.2,0,1.7,1.3,1.7c1.2,0,2.5,0,3.7,0
			c1.4,0.1,1.8,0.7,0.9,1.9c-0.6,1-1.4,1.8-2.1,2.8c-0.9,1.3-0.8,1.8,0.7,2.3c0.9,0.3,1.7,0.6,2.6,0.8c0.4,0.1,0.7,0.2,1.1,0.4
			c0.9,0.4,1,1,0.3,1.7c-0.4,0.4-0.9,0.7-1.3,1c-0.6,0.4-1.3,0.8-1.9,1.3c-1.2,0.9-1.2,1.4,0,2.3c0.9,0.7,1.9,1.4,2.9,2.1
			c1.1,0.9,1,1.6-0.3,2.1c-1.1,0.4-2.3,0.7-3.5,1.1c-1.3,0.5-1.5,1-0.7,2.2c0.6,1,1.4,1.8,2,2.8c0.9,1.3,0.6,2-1,2
			c-1.1,0-2.2-0.1-3.4-0.1c-1.6,0-1.9,0.5-1.5,2c0.3,1,0.7,2,1,3c0.2,0.6,0.4,1.2,0,1.7c-0.5,0.5-1.1,0.2-1.7,0
			c-1.1-0.3-2.1-0.8-3.2-1.1c-1.2-0.4-1.7-0.1-1.8,1.3c-0.1,1.3,0.2,2.6,0,3.9c-0.2,1.2-0.7,1.5-1.7,0.8c-1-0.7-1.9-1.5-2.9-2.2
			c-1.3-0.9-1.8-0.8-2.3,0.7c-0.4,1.1-0.7,2.3-1.1,3.4c-0.5,1.3-1.2,1.4-2,0.3c-0.7-0.9-1.3-2-2-2.9c-0.9-1.3-1.5-1.3-2.5,0
			c-0.7,0.9-1.3,1.9-2,2.7c-1,1.2-1.6,1.1-2.2-0.4c-0.4-1.1-0.7-2.3-1-3.4c-0.5-1.4-1-1.5-2.2-0.7c-1,0.6-1.8,1.4-2.8,2
			c-1.4,0.9-1.9,0.6-2-1C1624.1,458.2,1624.2,457.6,1624.2,457C1624.2,457,1624.2,457,1624.2,457z M1657.7,435
			c0-11-9-19.9-19.9-19.9c-11,0-19.9,9-19.9,20c0,11,9,19.8,20.2,19.8C1648.8,454.9,1657.7,445.9,1657.7,435z"/>
		<path class="st76" d="M1657.7,435c0,10.8-8.9,19.9-19.6,19.9c-11.2,0-20.2-8.8-20.2-19.8c0-11,8.9-19.9,19.9-20
			C1648.7,415.1,1657.7,424.1,1657.7,435z M1622.5,435c0,8.4,6.8,15.3,15.2,15.3c8.3,0,15.2-6.8,15.3-15c0-8.7-6.7-15.5-15.1-15.5
			C1629.4,419.8,1622.5,426.5,1622.5,435z"/>
		<path class="st77" d="M1622.5,435c0-8.5,6.8-15.2,15.3-15.2c8.4,0,15.1,6.9,15.1,15.5c0,8.2-6.9,15-15.3,15
			C1629.3,450.3,1622.5,443.4,1622.5,435z"/>
	</g>
	<g id="light">
		<path class="st78" d="M464.4,942.6c17.7-0.2,32.6,14.4,32.6,32.5c0,18.1-14.8,32.7-32.9,32.5c-17.7-0.1-32.4-14.8-32.3-32.8
			C432,956.9,447,942.4,464.4,942.6z M463.8,985.7c1.8,0,3.7,0,5.5,0c1.3,0,1.3,0,1.4-1.2c0-0.1,0-0.3,0.1-0.4
			c0.4-2.4,1.7-4.4,3.1-6.3c2.5-3.3,4.5-6.8,4.8-11.1c0.2-3.2-0.3-6.2-2.1-8.9c-3.6-5.1-8.5-7.4-14.7-6.6c-5.4,0.7-9.4,3.6-11.7,8.6
			c-1.8,4-1.4,8,0.1,12c1,2.5,2.6,4.6,4.1,6.8c1.4,2,2.5,4.1,2.7,6.5c0,0.6,0.3,0.6,0.7,0.6C459.7,985.7,461.8,985.7,463.8,985.7z
			 M463.7,990.7c1.7,0,3.4,0,5.1,0c1.8,0,1.8,0,1.8-1.8c0-0.6-0.2-0.7-0.7-0.7c-3.7,0-7.4,0-11.1,0c-1.8,0-1.8,0-1.8,1.9
			c0,0.5,0.2,0.6,0.7,0.6C459.7,990.7,461.7,990.7,463.7,990.7z M463.8,993.1c-2.1,0-4.1,0-6.2,0c-0.7,0-0.8,0.2-0.6,0.8
			c0.3,0.9,1.2,1.7,2.2,1.7c3,0,6,0,8.9,0c1.1,0,2-0.8,2.3-1.8c0.1-0.5,0.1-0.7-0.5-0.6C468,993.2,465.9,993.1,463.8,993.1z
			 M463.8,996.9c-0.6,0-1.2,0-1.9,0c-0.5,0-0.7,0.2-0.6,0.7c0.3,1.1,1.3,1.9,2.5,1.8c1.1,0,2-0.8,2.3-1.9c0.1-0.5-0.1-0.6-0.5-0.5
			C465.1,996.9,464.4,996.9,463.8,996.9z"/>
		<path d="M463.8,985.7c-2,0-4.1,0-6.1,0c-0.4,0-0.7,0-0.7-0.6c-0.1-2.5-1.3-4.6-2.7-6.5c-1.5-2.2-3.2-4.2-4.1-6.8
			c-1.5-4-1.9-8-0.1-12c2.3-5,6.3-7.9,11.7-8.6c6.2-0.8,11.1,1.5,14.7,6.6c1.8,2.6,2.4,5.7,2.1,8.9c-0.3,4.3-2.3,7.8-4.8,11.1
			c-1.4,1.9-2.7,3.9-3.1,6.3c0,0.1-0.1,0.3-0.1,0.4c-0.1,1.2-0.1,1.2-1.4,1.2C467.4,985.7,465.6,985.7,463.8,985.7z M452.2,963.7
			c0,0.9,0.4,1.5,1.1,1.6c0.6,0.1,1.2-0.4,1.4-1.2c0.7-3.2,2.6-5.5,5.6-6.8c0.9-0.4,1.3-1,1-1.6c-0.3-0.7-1.1-1-1.9-0.6
			c-2,0.8-3.6,2.1-4.9,3.8C453.3,960.4,452.5,962.1,452.2,963.7z"/>
		<path d="M463.7,990.7c-2,0-4.1,0-6.1,0c-0.5,0-0.7-0.1-0.7-0.6c0-1.9,0-1.9,1.8-1.9c3.7,0,7.4,0,11.1,0c0.6,0,0.8,0.1,0.7,0.7
			c0,1.8,0,1.8-1.8,1.8C467.1,990.7,465.4,990.7,463.7,990.7z"/>
		<path d="M463.8,993.1c2.1,0,4.1,0,6.2,0c0.5,0,0.6,0.1,0.5,0.6c-0.3,1.1-1.2,1.8-2.3,1.8c-3,0-6,0-8.9,0c-1,0-1.8-0.7-2.2-1.7
			c-0.2-0.6-0.1-0.8,0.6-0.8C459.7,993.2,461.8,993.1,463.8,993.1z"/>
		<path d="M463.8,996.9c0.6,0,1.3,0,1.9,0c0.4,0,0.6,0.1,0.5,0.5c-0.2,1.1-1.2,1.9-2.3,1.9c-1.2,0-2.3-0.7-2.5-1.8
			c-0.1-0.5,0-0.7,0.6-0.7C462.6,996.9,463.2,996.9,463.8,996.9z"/>
		<path class="st78" d="M452.2,963.7c0.3-1.7,1-3.4,2.1-4.9c1.3-1.7,3-3,4.9-3.8c0.8-0.4,1.6-0.1,1.9,0.6c0.3,0.6-0.1,1.2-1,1.6
			c-3,1.3-4.9,3.6-5.6,6.8c-0.2,0.7-0.8,1.3-1.4,1.2C452.7,965.2,452.2,964.7,452.2,963.7z"/>
	</g>
	<g id="light">
		<path class="st78" d="M123.6,798.6c15.1-0.2,27.7,12.2,27.7,27.7c0,15.4-12.6,27.8-28,27.7c-15-0.1-27.6-12.6-27.4-27.9
			C96,810.8,108.7,798.4,123.6,798.6z M123,835.3c1.6,0,3.1,0,4.7,0c1.1,0,1.1,0,1.2-1c0-0.1,0-0.2,0.1-0.3c0.3-2.1,1.4-3.7,2.6-5.4
			c2.1-2.8,3.8-5.8,4.1-9.4c0.2-2.7-0.3-5.3-1.8-7.6c-3-4.3-7.2-6.3-12.5-5.6c-4.6,0.6-8,3-9.9,7.3c-1.5,3.4-1.2,6.8,0.1,10.2
			c0.8,2.1,2.2,3.9,3.5,5.7c1.2,1.7,2.1,3.5,2.3,5.6c0,0.5,0.2,0.5,0.6,0.5C119.6,835.3,121.3,835.3,123,835.3z M123,839.5
			c1.4,0,2.9,0,4.3,0c1.5,0,1.5,0,1.5-1.5c0-0.5-0.2-0.6-0.6-0.6c-3.1,0-6.3,0-9.4,0c-1.6,0-1.6,0-1.5,1.6c0,0.4,0.2,0.5,0.6,0.5
			C119.5,839.5,121.3,839.5,123,839.5z M123.1,841.6c-1.7,0-3.5,0-5.2,0c-0.6,0-0.7,0.2-0.5,0.7c0.3,0.8,1,1.4,1.9,1.4
			c2.5,0,5.1,0,7.6,0c0.9,0,1.7-0.7,1.9-1.6c0.1-0.4,0-0.6-0.4-0.6C126.6,841.6,124.8,841.6,123.1,841.6z M123,844.8
			c-0.5,0-1.1,0-1.6,0c-0.5,0-0.6,0.1-0.5,0.6c0.2,0.9,1.1,1.6,2.2,1.6c1,0,1.7-0.7,1.9-1.6c0.1-0.4-0.1-0.5-0.4-0.5
			C124.1,844.8,123.6,844.8,123,844.8z"/>
		<path d="M123,835.3c-1.7,0-3.5,0-5.2,0c-0.4,0-0.6,0-0.6-0.5c-0.1-2.1-1.1-3.9-2.3-5.6c-1.3-1.8-2.7-3.6-3.5-5.7
			c-1.3-3.4-1.6-6.8-0.1-10.2c1.9-4.3,5.3-6.7,9.9-7.3c5.3-0.7,9.5,1.3,12.5,5.6c1.6,2.2,2,4.8,1.8,7.6c-0.3,3.6-2,6.6-4.1,9.4
			c-1.2,1.6-2.3,3.3-2.6,5.4c0,0.1,0,0.2-0.1,0.3c-0.1,1-0.1,1-1.2,1C126.1,835.3,124.6,835.3,123,835.3z M113.2,816.6
			c0,0.8,0.4,1.3,0.9,1.3c0.5,0.1,1.1-0.4,1.2-1c0.6-2.7,2.2-4.7,4.7-5.8c0.8-0.3,1.1-0.8,0.8-1.4c-0.3-0.6-0.9-0.9-1.6-0.6
			c-1.7,0.7-3.1,1.8-4.2,3.3C114.1,813.7,113.4,815.2,113.2,816.6z"/>
		<path d="M123,839.5c-1.7,0-3.5,0-5.2,0c-0.4,0-0.6-0.1-0.6-0.5c0-1.6,0-1.6,1.5-1.6c3.1,0,6.3,0,9.4,0c0.5,0,0.6,0.1,0.6,0.6
			c0,1.5,0,1.5-1.5,1.5C125.9,839.5,124.4,839.5,123,839.5z"/>
		<path d="M123.1,841.6c1.7,0,3.5,0,5.2,0c0.5,0,0.5,0.1,0.4,0.6c-0.3,0.9-1,1.6-1.9,1.6c-2.5,0-5.1,0-7.6,0c-0.8,0-1.6-0.6-1.9-1.4
			c-0.2-0.5-0.1-0.7,0.5-0.7C119.6,841.6,121.3,841.6,123.1,841.6z"/>
		<path d="M123,844.8c0.5,0,1.1,0,1.6,0c0.4,0,0.5,0,0.4,0.5c-0.2,0.9-1,1.6-1.9,1.6c-1,0-1.9-0.6-2.2-1.6c-0.1-0.4,0-0.6,0.5-0.6
			C122,844.8,122.5,844.8,123,844.8z"/>
		<path class="st78" d="M113.2,816.6c0.2-1.4,0.9-2.9,1.8-4.1c1.1-1.5,2.5-2.5,4.2-3.3c0.7-0.3,1.4-0.1,1.6,0.6
			c0.2,0.5-0.1,1.1-0.8,1.4c-2.6,1.1-4.1,3.1-4.7,5.8c-0.1,0.6-0.7,1.1-1.2,1C113.6,817.9,113.2,817.4,113.2,816.6z"/>
	</g>
	<g id="light">
		<path class="st78" d="M162.6,589.6c15.6-0.2,28.7,12.7,28.7,28.7c0,15.9-13,28.8-29,28.7c-15.6-0.1-28.5-13-28.4-29
			C134,602.2,147.2,589.4,162.6,589.6z M162,627.6c1.6,0,3.2,0,4.8,0c1.1,0,1.1,0,1.2-1.1c0-0.1,0-0.2,0.1-0.3
			c0.3-2.1,1.5-3.9,2.7-5.6c2.2-2.9,3.9-6,4.2-9.8c0.2-2.8-0.3-5.5-1.9-7.8c-3.1-4.5-7.5-6.5-13-5.8c-4.8,0.6-8.3,3.1-10.3,7.6
			c-1.6,3.5-1.2,7.1,0.1,10.6c0.8,2.2,2.3,4,3.6,6c1.2,1.7,2.2,3.6,2.3,5.8c0,0.5,0.2,0.5,0.6,0.5
			C158.4,627.6,160.2,627.6,162,627.6z M162,632c1.5,0,3,0,4.5,0c1.6,0,1.6,0,1.6-1.6c0-0.5-0.2-0.6-0.7-0.6c-3.3,0-6.5,0-9.8,0
			c-1.6,0-1.6,0-1.6,1.6c0,0.5,0.2,0.6,0.6,0.6C158.4,632,160.2,632,162,632z M162.1,634.2c-1.8,0-3.6,0-5.4,0
			c-0.6,0-0.7,0.2-0.5,0.7c0.3,0.8,1.1,1.5,1.9,1.5c2.6,0,5.3,0,7.9,0c1,0,1.7-0.7,2-1.6c0.1-0.4,0-0.6-0.4-0.6
			C165.7,634.2,163.9,634.2,162.1,634.2z M162,637.4c-0.5,0-1.1,0-1.6,0c-0.5,0-0.6,0.1-0.5,0.6c0.2,1,1.1,1.6,2.2,1.6
			c1,0,1.8-0.7,2-1.7c0.1-0.4-0.1-0.5-0.4-0.5C163.1,637.4,162.6,637.4,162,637.4z"/>
		<path d="M162,627.6c-1.8,0-3.6,0-5.4,0c-0.4,0-0.6,0-0.6-0.5c-0.1-2.2-1.1-4-2.3-5.8c-1.3-1.9-2.8-3.7-3.6-6
			c-1.3-3.5-1.7-7.1-0.1-10.6c2-4.4,5.5-6.9,10.3-7.6c5.4-0.7,9.8,1.3,13,5.8c1.6,2.3,2.1,5,1.9,7.8c-0.3,3.8-2,6.8-4.2,9.8
			c-1.2,1.7-2.4,3.4-2.7,5.6c0,0.1,0,0.2-0.1,0.3c-0.1,1.1-0.1,1.1-1.2,1.1C165.2,627.6,163.6,627.6,162,627.6z M151.8,608.2
			c0,0.8,0.4,1.3,0.9,1.4c0.5,0.1,1.1-0.4,1.2-1c0.6-2.8,2.3-4.8,4.9-6c0.8-0.3,1.1-0.9,0.9-1.4c-0.3-0.7-1-0.9-1.7-0.6
			c-1.7,0.7-3.2,1.9-4.4,3.4C152.7,605.3,152.1,606.8,151.8,608.2z"/>
		<path d="M162,632c-1.8,0-3.6,0-5.4,0c-0.4,0-0.6-0.1-0.6-0.6c0-1.6,0-1.6,1.6-1.6c3.3,0,6.5,0,9.8,0c0.5,0,0.7,0.1,0.7,0.6
			c0,1.6,0,1.6-1.6,1.6C165,632,163.5,632,162,632z"/>
		<path d="M162.1,634.2c1.8,0,3.6,0,5.4,0c0.5,0,0.6,0.1,0.4,0.6c-0.3,0.9-1,1.6-2,1.6c-2.6,0-5.3,0-7.9,0c-0.9,0-1.6-0.6-1.9-1.5
			c-0.2-0.5-0.1-0.7,0.5-0.7C158.4,634.2,160.2,634.2,162.1,634.2z"/>
		<path d="M162,637.4c0.6,0,1.1,0,1.7,0c0.4,0,0.5,0,0.4,0.5c-0.2,1-1,1.7-2,1.7c-1.1,0-2-0.6-2.2-1.6c-0.1-0.4,0-0.6,0.5-0.6
			C160.9,637.5,161.5,637.4,162,637.4z"/>
		<path class="st78" d="M151.8,608.2c0.2-1.5,0.9-3,1.9-4.3c1.1-1.5,2.6-2.6,4.4-3.4c0.7-0.3,1.4-0.1,1.7,0.6
			c0.2,0.6-0.1,1.1-0.9,1.4c-2.6,1.2-4.3,3.2-4.9,6c-0.1,0.7-0.7,1.1-1.2,1C152.2,609.6,151.8,609,151.8,608.2z"/>
	</g>
	<g id="light">
		<path class="st78" d="M312.4,272.6c13.4-0.2,24.6,10.9,24.6,24.6c0,13.6-11.2,24.6-24.8,24.5c-13.3-0.1-24.4-11.2-24.3-24.8
			C288,283.4,299.3,272.4,312.4,272.6z M311.9,305.2c1.4,0,2.8,0,4.1,0c0.9,0,0.9,0,1-0.9c0-0.1,0-0.2,0.1-0.3
			c0.3-1.8,1.3-3.3,2.3-4.8c1.9-2.5,3.4-5.1,3.6-8.4c0.2-2.4-0.2-4.7-1.6-6.7c-2.7-3.9-6.4-5.6-11.1-5c-4.1,0.5-7.1,2.7-8.8,6.5
			c-1.3,3-1.1,6,0.1,9c0.7,1.9,2,3.5,3.1,5.1c1.1,1.5,1.9,3.1,2,4.9c0,0.4,0.2,0.5,0.5,0.4C308.9,305.1,310.4,305.2,311.9,305.2z
			 M311.9,308.9c1.3,0,2.6,0,3.8,0c1.4,0,1.3,0,1.4-1.3c0-0.5-0.1-0.5-0.6-0.5c-2.8,0-5.6,0-8.4,0c-1.4,0-1.4,0-1.4,1.4
			c0,0.4,0.1,0.5,0.5,0.5C308.9,308.9,310.4,308.9,311.9,308.9z M312,310.7c-1.6,0-3.1,0-4.7,0c-0.5,0-0.6,0.2-0.4,0.6
			c0.2,0.7,0.9,1.3,1.6,1.3c2.2,0,4.5,0,6.7,0c0.8,0,1.5-0.6,1.7-1.4c0.1-0.4,0-0.5-0.4-0.5C315.1,310.8,313.5,310.7,312,310.7z
			 M311.9,313.5c-0.5,0-0.9,0-1.4,0c-0.4,0-0.5,0.1-0.4,0.5c0.2,0.8,1,1.4,1.9,1.4c0.9,0,1.5-0.6,1.7-1.5c0.1-0.4,0-0.4-0.4-0.4
			C312.9,313.6,312.4,313.5,311.9,313.5z"/>
		<path d="M311.9,305.2c-1.5,0-3.1,0-4.6,0c-0.3,0-0.5,0-0.5-0.4c-0.1-1.9-1-3.4-2-4.9c-1.1-1.6-2.4-3.2-3.1-5.1
			c-1.1-3-1.4-6.1-0.1-9c1.7-3.8,4.7-5.9,8.8-6.5c4.7-0.6,8.4,1.1,11.1,5c1.4,2,1.8,4.3,1.6,6.7c-0.2,3.2-1.7,5.9-3.6,8.4
			c-1.1,1.4-2,2.9-2.3,4.8c0,0.1,0,0.2-0.1,0.3c-0.1,0.9-0.1,0.9-1,0.9C314.7,305.2,313.3,305.2,311.9,305.2z M303.2,288.6
			c0,0.7,0.3,1.1,0.8,1.2c0.5,0.1,0.9-0.3,1.1-0.9c0.5-2.4,1.9-4.1,4.2-5.1c0.7-0.3,0.9-0.7,0.7-1.2c-0.2-0.6-0.8-0.8-1.5-0.5
			c-1.5,0.6-2.8,1.6-3.7,2.9C304,286,303.4,287.3,303.2,288.6z"/>
		<path d="M311.9,308.9c-1.5,0-3.1,0-4.6,0c-0.4,0-0.5-0.1-0.5-0.5c0-1.4,0-1.4,1.4-1.4c2.8,0,5.6,0,8.4,0c0.4,0,0.6,0.1,0.6,0.5
			c0,1.3,0,1.3-1.4,1.3C314.5,308.9,313.2,308.9,311.9,308.9z"/>
		<path d="M312,310.7c1.6,0,3.1,0,4.7,0c0.4,0,0.5,0.1,0.4,0.5c-0.2,0.8-0.9,1.4-1.7,1.4c-2.2,0-4.5,0-6.7,0c-0.7,0-1.4-0.5-1.6-1.3
			c-0.2-0.4-0.1-0.6,0.4-0.6C308.9,310.8,310.4,310.7,312,310.7z"/>
		<path d="M311.9,313.5c0.5,0,1,0,1.5,0c0.3,0,0.4,0,0.4,0.4c-0.2,0.8-0.9,1.4-1.7,1.5c-0.9,0-1.7-0.5-1.9-1.4
			c-0.1-0.4,0-0.5,0.4-0.5C311,313.6,311.5,313.5,311.9,313.5z"/>
		<path class="st78" d="M303.2,288.6c0.2-1.3,0.8-2.5,1.6-3.7c1-1.3,2.2-2.3,3.7-2.9c0.6-0.3,1.2-0.1,1.5,0.5
			c0.2,0.5-0.1,0.9-0.7,1.2c-2.3,1-3.7,2.7-4.2,5.1c-0.1,0.6-0.6,0.9-1.1,0.9C303.6,289.7,303.2,289.3,303.2,288.6z"/>
	</g>
	<g id="light">
		<path class="st78" d="M161.9,473.6c12.9-0.1,23.7,10.5,23.7,23.7c0,13.1-10.8,23.8-23.9,23.7c-12.9-0.1-23.6-10.8-23.5-23.9
			C138.3,484,149.2,473.4,161.9,473.6z M161.4,505c1.3,0,2.7,0,4,0c0.9,0,0.9,0,1-0.9c0-0.1,0-0.2,0-0.3c0.3-1.8,1.2-3.2,2.2-4.6
			c1.8-2.4,3.3-5,3.5-8.1c0.2-2.3-0.2-4.5-1.6-6.5c-2.6-3.7-6.2-5.4-10.7-4.8c-3.9,0.5-6.9,2.6-8.5,6.2c-1.3,2.9-1,5.8,0.1,8.7
			c0.7,1.8,1.9,3.3,3,4.9c1,1.4,1.8,3,1.9,4.8c0,0.4,0.2,0.4,0.5,0.4C158.4,505,159.9,505,161.4,505z M161.4,508.6
			c1.2,0,2.5,0,3.7,0c1.3,0,1.3,0,1.3-1.3c0-0.4-0.1-0.5-0.5-0.5c-2.7,0-5.4,0-8.1,0c-1.3,0-1.3,0-1.3,1.4c0,0.4,0.1,0.5,0.5,0.5
			C158.4,508.6,159.9,508.6,161.4,508.6z M161.4,510.4c-1.5,0-3,0-4.5,0c-0.5,0-0.6,0.2-0.4,0.6c0.2,0.7,0.9,1.2,1.6,1.2
			c2.2,0,4.3,0,6.5,0c0.8,0,1.4-0.6,1.7-1.3c0.1-0.4,0-0.5-0.4-0.5C164.4,510.4,162.9,510.4,161.4,510.4z M161.4,513.1
			c-0.4,0-0.9,0-1.3,0c-0.4,0-0.5,0.1-0.4,0.5c0.2,0.8,0.9,1.4,1.8,1.3c0.8,0,1.5-0.6,1.7-1.4c0.1-0.4,0-0.4-0.4-0.4
			C162.3,513.1,161.9,513.1,161.4,513.1z"/>
		<path d="M161.4,505c-1.5,0-3,0-4.4,0c-0.3,0-0.5,0-0.5-0.4c-0.1-1.8-0.9-3.3-1.9-4.8c-1.1-1.6-2.3-3.1-3-4.9
			c-1.1-2.9-1.4-5.8-0.1-8.7c1.6-3.7,4.6-5.7,8.5-6.2c4.5-0.6,8.1,1.1,10.7,4.8c1.3,1.9,1.7,4.1,1.6,6.5c-0.2,3.1-1.7,5.6-3.5,8.1
			c-1,1.4-2,2.8-2.2,4.6c0,0.1,0,0.2,0,0.3c-0.1,0.9-0.1,0.9-1,0.9C164.1,505,162.7,505,161.4,505z M153,489c0,0.7,0.3,1.1,0.8,1.1
			c0.5,0.1,0.9-0.3,1-0.9c0.5-2.3,1.9-4,4.1-5c0.6-0.3,0.9-0.7,0.7-1.2c-0.2-0.5-0.8-0.7-1.4-0.5c-1.4,0.6-2.7,1.5-3.6,2.8
			C153.7,486.6,153.2,487.8,153,489z"/>
		<path d="M161.4,508.6c-1.5,0-3,0-4.4,0c-0.3,0-0.5-0.1-0.5-0.5c0-1.4,0-1.4,1.3-1.4c2.7,0,5.4,0,8.1,0c0.4,0,0.5,0.1,0.5,0.5
			c0,1.3,0,1.3-1.3,1.3C163.8,508.6,162.6,508.6,161.4,508.6z"/>
		<path d="M161.4,510.4c1.5,0,3,0,4.5,0c0.4,0,0.5,0.1,0.4,0.5c-0.2,0.8-0.8,1.3-1.7,1.3c-2.2,0-4.3,0-6.5,0c-0.7,0-1.3-0.5-1.6-1.2
			c-0.1-0.4-0.1-0.6,0.4-0.6C158.5,510.4,160,510.4,161.4,510.4z"/>
		<path d="M161.4,513.1c0.5,0,0.9,0,1.4,0c0.3,0,0.4,0,0.4,0.4c-0.2,0.8-0.8,1.4-1.7,1.4c-0.9,0-1.6-0.5-1.8-1.3
			c-0.1-0.4,0-0.5,0.4-0.5C160.5,513.1,161,513.1,161.4,513.1z"/>
		<path class="st78" d="M153,489c0.2-1.2,0.7-2.4,1.5-3.5c0.9-1.3,2.1-2.2,3.6-2.8c0.6-0.3,1.2-0.1,1.4,0.5c0.2,0.5-0.1,0.9-0.7,1.2
			c-2.2,1-3.6,2.6-4.1,5c-0.1,0.5-0.6,0.9-1,0.9C153.3,490.1,153,489.7,153,489z"/>
	</g>
	<g id="light">
		<path class="st78" d="M851.9,817.6c19.1-0.2,35.1,15.5,35.1,35c0,19.4-15.9,35.2-35.4,35c-19-0.1-34.9-15.9-34.7-35.4
			C817,833,833.1,817.4,851.9,817.6z M851.2,864c2,0,3.9,0,5.9,0c1.4,0,1.4,0,1.5-1.3c0-0.1,0-0.3,0.1-0.4c0.4-2.6,1.8-4.7,3.3-6.8
			c2.7-3.6,4.8-7.3,5.1-11.9c0.2-3.5-0.3-6.7-2.3-9.6c-3.8-5.5-9.2-8-15.8-7.1c-5.8,0.8-10.2,3.8-12.6,9.2
			c-1.9,4.3-1.5,8.6,0.1,12.9c1,2.7,2.8,4.9,4.5,7.3c1.5,2.1,2.7,4.4,2.9,7.1c0,0.6,0.3,0.6,0.8,0.6C846.9,864,849,864,851.2,864z
			 M851.2,869.4c1.8,0,3.7,0,5.5,0c2,0,1.9,0,1.9-1.9c0-0.6-0.2-0.8-0.8-0.8c-4,0-8,0-11.9,0c-2,0-2,0-2,2c0,0.6,0.2,0.7,0.7,0.7
			C846.8,869.4,849,869.4,851.2,869.4z M851.3,872c-2.2,0-4.4,0-6.6,0c-0.8,0-0.8,0.3-0.6,0.9c0.4,1,1.3,1.8,2.3,1.8
			c3.2,0,6.4,0,9.6,0c1.2,0,2.1-0.8,2.5-2c0.2-0.5,0.1-0.7-0.5-0.7C855.7,872,853.5,872,851.3,872z M851.2,876c-0.7,0-1.3,0-2,0
			c-0.6,0-0.7,0.2-0.6,0.7c0.3,1.2,1.4,2,2.7,2c1.2,0,2.2-0.9,2.5-2.1c0.1-0.5-0.1-0.6-0.5-0.6C852.6,876,851.9,876,851.2,876z"/>
		<path d="M851.2,864c-2.2,0-4.4,0-6.6,0c-0.5,0-0.7,0-0.8-0.6c-0.2-2.7-1.4-4.9-2.9-7.1c-1.6-2.3-3.4-4.6-4.5-7.3
			c-1.6-4.3-2-8.6-0.1-12.9c2.4-5.4,6.8-8.5,12.6-9.2c6.7-0.9,12,1.6,15.8,7.1c2,2.8,2.5,6.1,2.3,9.6c-0.3,4.6-2.5,8.4-5.1,11.9
			c-1.5,2.1-2.9,4.2-3.3,6.8c0,0.1-0.1,0.3-0.1,0.4c-0.1,1.3-0.1,1.3-1.5,1.3C855.2,864,853.2,864,851.2,864z M838.8,840.4
			c0,1,0.5,1.6,1.1,1.7c0.7,0.1,1.3-0.5,1.5-1.3c0.7-3.5,2.8-5.9,6-7.3c1-0.4,1.4-1.1,1.1-1.8c-0.3-0.8-1.2-1.1-2.1-0.7
			c-2.1,0.9-3.9,2.3-5.3,4.1C839.9,836.7,839.1,838.5,838.8,840.4z"/>
		<path d="M851.2,869.4c-2.2,0-4.4,0-6.6,0c-0.5,0-0.7-0.1-0.7-0.7c0-2,0-2,2-2c4,0,8,0,11.9,0c0.6,0,0.8,0.1,0.8,0.8
			c0,1.9,0,1.9-1.9,1.9C854.8,869.4,853,869.4,851.2,869.4z"/>
		<path d="M851.3,872c2.2,0,4.4,0,6.6,0c0.6,0,0.7,0.2,0.5,0.7c-0.3,1.1-1.3,2-2.5,2c-3.2,0-6.4,0-9.6,0c-1.1,0-2-0.8-2.3-1.8
			c-0.2-0.6-0.1-0.9,0.6-0.9C846.9,872.1,849.1,872,851.3,872z"/>
		<path d="M851.2,876c0.7,0,1.4,0,2.1,0c0.5,0,0.6,0.1,0.5,0.6c-0.3,1.2-1.2,2-2.5,2.1c-1.3,0-2.4-0.8-2.7-2c-0.1-0.5,0-0.8,0.6-0.7
			C849.9,876.1,850.6,876,851.2,876z"/>
		<path class="st78" d="M838.8,840.4c0.3-1.8,1.1-3.6,2.3-5.2c1.4-1.9,3.2-3.2,5.3-4.1c0.9-0.4,1.7-0.1,2.1,0.7
			c0.3,0.7-0.1,1.3-1.1,1.8c-3.2,1.4-5.3,3.9-6,7.3c-0.2,0.8-0.8,1.4-1.5,1.3C839.3,842,838.8,841.3,838.8,840.4z"/>
	</g>
	<g id="light">
		<path class="st78" d="M87.4,295.6c15.5-0.2,28.6,12.6,28.6,28.5c0,15.8-13,28.7-28.8,28.5c-15.5-0.1-28.4-13-28.3-28.8
			C59,308.2,72.1,295.4,87.4,295.6z M86.9,333.4c1.6,0,3.2,0,4.8,0c1.1,0,1.1,0,1.2-1.1c0-0.1,0-0.2,0.1-0.3
			c0.3-2.1,1.5-3.9,2.7-5.5c2.2-2.9,3.9-6,4.2-9.7c0.2-2.8-0.3-5.5-1.9-7.8c-3.1-4.5-7.5-6.5-12.9-5.8c-4.7,0.6-8.3,3.1-10.3,7.5
			c-1.6,3.5-1.2,7,0.1,10.5c0.8,2.2,2.3,4,3.6,5.9c1.2,1.7,2.2,3.6,2.3,5.7c0,0.5,0.2,0.5,0.6,0.5C83.3,333.4,85.1,333.4,86.9,333.4
			z M86.8,337.8c1.5,0,3,0,4.5,0c1.6,0,1.6,0,1.6-1.6c0-0.5-0.2-0.6-0.7-0.6c-3.2,0-6.5,0-9.7,0c-1.6,0-1.6,0-1.6,1.6
			c0,0.5,0.2,0.6,0.6,0.6C83.3,337.8,85.1,337.8,86.8,337.8z M86.9,339.9c-1.8,0-3.6,0-5.4,0c-0.6,0-0.7,0.2-0.5,0.7
			c0.3,0.8,1,1.5,1.9,1.5c2.6,0,5.2,0,7.8,0c1,0,1.7-0.7,2-1.6c0.1-0.4,0-0.6-0.4-0.6C90.5,340,88.7,339.9,86.9,339.9z M86.9,343.2
			c-0.5,0-1.1,0-1.6,0c-0.5,0-0.6,0.1-0.5,0.6c0.2,1,1.1,1.6,2.2,1.6c1,0,1.8-0.7,2-1.7c0.1-0.4-0.1-0.5-0.4-0.5
			C88,343.2,87.4,343.2,86.9,343.2z"/>
		<path d="M86.9,333.4c-1.8,0-3.6,0-5.3,0c-0.4,0-0.6,0-0.6-0.5c-0.1-2.2-1.1-4-2.3-5.7c-1.3-1.9-2.8-3.7-3.6-5.9
			c-1.3-3.5-1.7-7-0.1-10.5c2-4.4,5.5-6.9,10.3-7.5c5.4-0.7,9.8,1.3,12.9,5.8c1.6,2.3,2.1,5,1.9,7.8c-0.3,3.8-2,6.8-4.2,9.7
			c-1.2,1.7-2.4,3.4-2.7,5.5c0,0.1,0,0.2-0.1,0.3c-0.1,1.1-0.1,1.1-1.2,1.1C90.1,333.4,88.5,333.4,86.9,333.4z M76.7,314.1
			c0,0.8,0.4,1.3,0.9,1.4c0.5,0.1,1.1-0.4,1.2-1c0.6-2.8,2.3-4.8,4.9-6c0.8-0.3,1.1-0.9,0.9-1.4c-0.3-0.7-1-0.9-1.7-0.6
			c-1.7,0.7-3.2,1.8-4.3,3.4C77.6,311.2,77,312.7,76.7,314.1z"/>
		<path d="M86.8,337.8c-1.8,0-3.6,0-5.3,0c-0.4,0-0.6-0.1-0.6-0.6c0-1.6,0-1.6,1.6-1.6c3.2,0,6.5,0,9.7,0c0.5,0,0.7,0.1,0.7,0.6
			c0,1.6,0,1.6-1.6,1.6C89.8,337.8,88.3,337.8,86.8,337.8z"/>
		<path d="M86.9,339.9c1.8,0,3.6,0,5.4,0c0.5,0,0.6,0.1,0.4,0.6c-0.3,0.9-1,1.6-2,1.6c-2.6,0-5.2,0-7.8,0c-0.9,0-1.6-0.6-1.9-1.5
			c-0.2-0.5-0.1-0.7,0.5-0.7C83.3,340,85.1,339.9,86.9,339.9z"/>
		<path d="M86.9,343.2c0.6,0,1.1,0,1.7,0c0.4,0,0.5,0,0.4,0.5c-0.2,1-1,1.7-2,1.7c-1.1,0-2-0.6-2.2-1.6c-0.1-0.4,0-0.6,0.5-0.6
			C85.8,343.2,86.3,343.2,86.9,343.2z"/>
		<path class="st78" d="M76.7,314.1c0.2-1.5,0.9-2.9,1.9-4.3c1.1-1.5,2.6-2.6,4.3-3.4c0.7-0.3,1.4-0.1,1.7,0.6
			c0.2,0.6-0.1,1.1-0.9,1.4c-2.6,1.2-4.3,3.1-4.9,6c-0.1,0.6-0.7,1.1-1.2,1C77.1,315.5,76.7,315,76.7,314.1z"/>
	</g>
	<g id="light">
		<path class="st78" d="M1200.4,968.6c14.4-0.2,26.6,11.7,26.6,26.5c0,14.7-12.1,26.6-26.8,26.5c-14.4-0.1-26.4-12.1-26.3-26.8
			C1174,980.3,1186.2,968.4,1200.4,968.6z M1199.9,1003.8c1.5,0,3,0,4.5,0c1,0,1,0,1.1-1c0-0.1,0-0.2,0.1-0.3c0.3-2,1.4-3.6,2.5-5.1
			c2-2.7,3.7-5.5,3.9-9c0.2-2.6-0.2-5.1-1.7-7.2c-2.9-4.2-6.9-6-12-5.4c-4.4,0.6-7.7,2.9-9.5,7c-1.5,3.2-1.1,6.5,0.1,9.8
			c0.8,2,2.1,3.7,3.4,5.5c1.1,1.6,2,3.3,2.2,5.3c0,0.5,0.2,0.5,0.6,0.5C1196.6,1003.8,1198.2,1003.8,1199.9,1003.8z M1199.9,1007.8
			c1.4,0,2.8,0,4.1,0c1.5,0,1.5,0,1.5-1.5c0-0.5-0.2-0.6-0.6-0.6c-3,0-6,0-9.1,0c-1.5,0-1.5,0-1.5,1.5c0,0.4,0.2,0.5,0.5,0.5
			C1196.6,1007.8,1198.2,1007.8,1199.9,1007.8z M1200,1009.8c-1.7,0-3.4,0-5,0c-0.6,0-0.6,0.2-0.5,0.7c0.3,0.8,1,1.4,1.8,1.4
			c2.4,0,4.9,0,7.3,0c0.9,0,1.6-0.6,1.9-1.5c0.1-0.4,0-0.5-0.4-0.5C1203.3,1009.9,1201.6,1009.8,1200,1009.8z M1199.9,1012.9
			c-0.5,0-1,0-1.5,0c-0.4,0-0.6,0.1-0.5,0.5c0.2,0.9,1.1,1.5,2.1,1.5c0.9,0,1.7-0.7,1.9-1.6c0.1-0.4-0.1-0.5-0.4-0.4
			C1201,1012.9,1200.4,1012.9,1199.9,1012.9z"/>
		<path d="M1199.9,1003.8c-1.7,0-3.3,0-5,0c-0.4,0-0.6,0-0.6-0.5c-0.1-2-1-3.7-2.2-5.3c-1.2-1.8-2.6-3.5-3.4-5.5
			c-1.2-3.2-1.5-6.5-0.1-9.8c1.8-4.1,5.1-6.4,9.5-7c5-0.7,9.1,1.2,12,5.4c1.5,2.2,1.9,4.6,1.7,7.2c-0.2,3.5-1.9,6.3-3.9,9
			c-1.2,1.6-2.2,3.2-2.5,5.1c0,0.1,0,0.2-0.1,0.3c-0.1,1-0.1,1-1.1,1C1202.9,1003.8,1201.4,1003.8,1199.9,1003.8z M1190.5,985.9
			c0,0.8,0.3,1.2,0.9,1.3c0.5,0.1,1-0.4,1.1-1c0.6-2.6,2.1-4.5,4.5-5.6c0.7-0.3,1-0.8,0.8-1.3c-0.3-0.6-0.9-0.8-1.6-0.5
			c-1.6,0.7-3,1.7-4,3.1C1191.3,983.1,1190.7,984.5,1190.5,985.9z"/>
		<path d="M1199.9,1007.8c-1.7,0-3.3,0-5,0c-0.4,0-0.5-0.1-0.5-0.5c0-1.5,0-1.5,1.5-1.5c3,0,6,0,9.1,0c0.5,0,0.6,0.1,0.6,0.6
			c0,1.5,0,1.5-1.5,1.5C1202.6,1007.8,1201.3,1007.8,1199.9,1007.8z"/>
		<path d="M1200,1009.8c1.7,0,3.4,0,5,0c0.4,0,0.5,0.1,0.4,0.5c-0.2,0.9-1,1.5-1.9,1.5c-2.4,0-4.9,0-7.3,0c-0.8,0-1.5-0.6-1.8-1.4
			c-0.2-0.5-0.1-0.7,0.5-0.7C1196.6,1009.9,1198.3,1009.8,1200,1009.8z"/>
		<path d="M1199.9,1012.9c0.5,0,1,0,1.6,0c0.3,0,0.5,0,0.4,0.4c-0.2,0.9-0.9,1.5-1.9,1.6c-1,0-1.8-0.6-2.1-1.5
			c-0.1-0.4,0-0.6,0.5-0.5C1198.9,1012.9,1199.4,1012.9,1199.9,1012.9z"/>
		<path class="st78" d="M1190.5,985.9c0.2-1.4,0.8-2.7,1.7-4c1.1-1.4,2.4-2.4,4-3.1c0.7-0.3,1.3-0.1,1.6,0.5c0.2,0.5-0.1,1-0.8,1.3
			c-2.4,1.1-4,2.9-4.5,5.6c-0.1,0.6-0.6,1-1.1,1C1190.8,987.1,1190.5,986.6,1190.5,985.9z"/>
	</g>
	<g id="light">
		<path class="st78" d="M1545.1,476.6c11-0.1,20.3,9,20.3,20.3c0,11.2-9.2,20.3-20.5,20.2c-11-0.1-20.2-9.2-20.1-20.4
			C1524.9,485.5,1534.3,476.5,1545.1,476.6z M1544.7,503.5c1.1,0,2.3,0,3.4,0c0.8,0,0.8,0,0.9-0.8c0-0.1,0-0.2,0-0.2
			c0.2-1.5,1-2.7,1.9-3.9c1.5-2.1,2.8-4.2,3-6.9c0.1-2-0.2-3.9-1.3-5.5c-2.2-3.2-5.3-4.6-9.1-4.1c-3.4,0.4-5.9,2.2-7.3,5.3
			c-1.1,2.5-0.9,5,0.1,7.5c0.6,1.6,1.6,2.9,2.6,4.2c0.9,1.2,1.6,2.5,1.7,4.1c0,0.3,0.2,0.4,0.4,0.4
			C1542.2,503.5,1543.5,503.5,1544.7,503.5z M1544.7,506.5c1.1,0,2.1,0,3.2,0c1.1,0,1.1,0,1.1-1.1c0-0.4-0.1-0.4-0.5-0.4
			c-2.3,0-4.6,0-6.9,0c-1.2,0-1.1,0-1.1,1.2c0,0.3,0.1,0.4,0.4,0.4C1542.2,506.5,1543.4,506.5,1544.7,506.5z M1544.8,508.1
			c-1.3,0-2.6,0-3.8,0c-0.4,0-0.5,0.2-0.4,0.5c0.2,0.6,0.7,1,1.4,1c1.9,0,3.7,0,5.6,0c0.7,0,1.2-0.5,1.4-1.1c0.1-0.3,0-0.4-0.3-0.4
			C1547.3,508.1,1546,508.1,1544.8,508.1z M1544.7,510.4c-0.4,0-0.8,0-1.2,0c-0.3,0-0.4,0.1-0.3,0.4c0.2,0.7,0.8,1.2,1.6,1.1
			c0.7,0,1.3-0.5,1.4-1.2c0.1-0.3,0-0.4-0.3-0.3C1545.5,510.4,1545.1,510.4,1544.7,510.4z"/>
		<path d="M1544.7,503.5c-1.3,0-2.5,0-3.8,0c-0.3,0-0.4,0-0.4-0.4c-0.1-1.5-0.8-2.8-1.7-4.1c-0.9-1.3-2-2.6-2.6-4.2
			c-0.9-2.5-1.2-5-0.1-7.5c1.4-3.1,3.9-4.9,7.3-5.3c3.8-0.5,6.9,0.9,9.1,4.1c1.1,1.6,1.5,3.5,1.3,5.5c-0.2,2.7-1.4,4.8-3,6.9
			c-0.9,1.2-1.7,2.4-1.9,3.9c0,0.1,0,0.2,0,0.2c-0.1,0.8-0.1,0.8-0.9,0.8C1547,503.5,1545.9,503.5,1544.7,503.5z M1537.5,489.8
			c0,0.6,0.3,0.9,0.7,1c0.4,0,0.8-0.3,0.9-0.7c0.4-2,1.6-3.4,3.5-4.2c0.6-0.2,0.8-0.6,0.6-1c-0.2-0.5-0.7-0.6-1.2-0.4
			c-1.2,0.5-2.3,1.3-3.1,2.4C1538.2,487.7,1537.7,488.7,1537.5,489.8z"/>
		<path d="M1544.7,506.5c-1.3,0-2.5,0-3.8,0c-0.3,0-0.4-0.1-0.4-0.4c0-1.2,0-1.2,1.1-1.2c2.3,0,4.6,0,6.9,0c0.3,0,0.5,0.1,0.5,0.4
			c0,1.1,0,1.1-1.1,1.1C1546.8,506.5,1545.8,506.5,1544.7,506.5z"/>
		<path d="M1544.8,508.1c1.3,0,2.6,0,3.8,0c0.3,0,0.4,0.1,0.3,0.4c-0.2,0.7-0.7,1.1-1.4,1.1c-1.9,0-3.7,0-5.6,0
			c-0.6,0-1.2-0.5-1.4-1c-0.1-0.4-0.1-0.5,0.4-0.5C1542.2,508.1,1543.5,508.1,1544.8,508.1z"/>
		<path d="M1544.7,510.4c0.4,0,0.8,0,1.2,0c0.3,0,0.4,0,0.3,0.3c-0.2,0.7-0.7,1.2-1.4,1.2c-0.8,0-1.4-0.4-1.6-1.1
			c-0.1-0.3,0-0.4,0.3-0.4C1544,510.4,1544.3,510.4,1544.7,510.4z"/>
		<path class="st78" d="M1537.5,489.8c0.2-1,0.6-2.1,1.3-3c0.8-1.1,1.8-1.9,3.1-2.4c0.5-0.2,1-0.1,1.2,0.4c0.2,0.4-0.1,0.8-0.6,1
			c-1.9,0.8-3,2.2-3.5,4.2c-0.1,0.5-0.5,0.8-0.9,0.7C1537.8,490.7,1537.5,490.3,1537.5,489.8z"/>
	</g>
	<g id="light">
		<path class="st78" d="M455.1,272.6c15.3-0.2,28.2,12.5,28.2,28.2c0,15.6-12.8,28.3-28.5,28.2c-15.3-0.1-28.1-12.8-27.9-28.5
			C427,285,440,272.4,455.1,272.6z M454.5,310c1.6,0,3.2,0,4.7,0c1.1,0,1.1,0,1.2-1.1c0-0.1,0-0.2,0.1-0.3c0.3-2.1,1.5-3.8,2.7-5.5
			c2.1-2.9,3.9-5.9,4.1-9.6c0.2-2.8-0.3-5.4-1.9-7.7c-3.1-4.4-7.4-6.4-12.7-5.7c-4.7,0.6-8.2,3.1-10.1,7.4
			c-1.5,3.4-1.2,6.9,0.1,10.4c0.8,2.2,2.3,4,3.6,5.8c1.2,1.7,2.2,3.5,2.3,5.7c0,0.5,0.2,0.5,0.6,0.5C451,310,452.8,310,454.5,310z
			 M454.5,314.3c1.5,0,2.9,0,4.4,0c1.6,0,1.5,0,1.6-1.5c0-0.5-0.2-0.6-0.6-0.6c-3.2,0-6.4,0-9.6,0c-1.6,0-1.6,0-1.6,1.6
			c0,0.5,0.2,0.5,0.6,0.5C451,314.2,452.7,314.3,454.5,314.3z M454.6,316.4c-1.8,0-3.6,0-5.3,0c-0.6,0-0.7,0.2-0.5,0.7
			c0.3,0.8,1,1.4,1.9,1.4c2.6,0,5.2,0,7.7,0c1,0,1.7-0.7,2-1.6c0.1-0.4,0-0.6-0.4-0.6C458.1,316.4,456.3,316.4,454.6,316.4z
			 M454.5,319.6c-0.5,0-1.1,0-1.6,0c-0.5,0-0.6,0.1-0.5,0.6c0.2,1,1.1,1.6,2.2,1.6c1,0,1.8-0.7,2-1.7c0.1-0.4-0.1-0.5-0.4-0.5
			C455.6,319.6,455.1,319.6,454.5,319.6z"/>
		<path d="M454.5,310c-1.8,0-3.5,0-5.3,0c-0.4,0-0.6,0-0.6-0.5c-0.1-2.1-1.1-4-2.3-5.7c-1.3-1.9-2.8-3.7-3.6-5.8
			c-1.3-3.4-1.6-7-0.1-10.4c2-4.3,5.4-6.8,10.1-7.4c5.4-0.7,9.7,1.3,12.7,5.7c1.6,2.3,2,4.9,1.9,7.7c-0.3,3.7-2,6.7-4.1,9.6
			c-1.2,1.7-2.3,3.4-2.7,5.5c0,0.1,0,0.2-0.1,0.3c-0.1,1.1-0.1,1.1-1.2,1.1C457.7,310,456.1,310,454.5,310z M444.5,290.9
			c0,0.8,0.4,1.3,0.9,1.4c0.5,0.1,1.1-0.4,1.2-1c0.6-2.8,2.2-4.7,4.8-5.9c0.8-0.3,1.1-0.9,0.8-1.4c-0.3-0.6-0.9-0.9-1.7-0.6
			c-1.7,0.7-3.2,1.8-4.3,3.3C445.4,288,444.7,289.5,444.5,290.9z"/>
		<path d="M454.5,314.3c-1.8,0-3.5,0-5.3,0c-0.4,0-0.6-0.1-0.6-0.5c0-1.6,0-1.6,1.6-1.6c3.2,0,6.4,0,9.6,0c0.5,0,0.6,0.1,0.6,0.6
			c0,1.5,0,1.5-1.6,1.5C457.4,314.3,455.9,314.3,454.5,314.3z"/>
		<path d="M454.6,316.4c1.8,0,3.6,0,5.3,0c0.5,0,0.6,0.1,0.4,0.6c-0.3,0.9-1,1.6-2,1.6c-2.6,0-5.2,0-7.7,0c-0.9,0-1.6-0.6-1.9-1.4
			c-0.2-0.5-0.1-0.7,0.5-0.7C451,316.4,452.8,316.4,454.6,316.4z"/>
		<path d="M454.5,319.6c0.6,0,1.1,0,1.7,0c0.4,0,0.5,0,0.4,0.5c-0.2,0.9-1,1.6-2,1.7c-1.1,0-2-0.6-2.2-1.6c-0.1-0.4,0-0.6,0.5-0.6
			C453.4,319.6,454,319.6,454.5,319.6z"/>
		<path class="st78" d="M444.5,290.9c0.2-1.5,0.9-2.9,1.8-4.2c1.1-1.5,2.6-2.6,4.3-3.3c0.7-0.3,1.4-0.1,1.7,0.6
			c0.2,0.6-0.1,1.1-0.8,1.4c-2.6,1.2-4.2,3.1-4.8,5.9c-0.1,0.6-0.7,1.1-1.2,1C444.9,292.2,444.5,291.7,444.5,290.9z"/>
	</g>
	<g id="light">
		<path class="st78" d="M1045.4,842.6c18-0.2,33.2,14.6,33.1,33.1c0,18.4-15.1,33.2-33.5,33.1c-18-0.1-33-15.1-32.8-33.4
			C1012.4,857.2,1027.6,842.4,1045.4,842.6z M1044.7,886.5c1.9,0,3.7,0,5.6,0c1.3,0,1.3,0,1.4-1.2c0-0.1,0-0.3,0.1-0.4
			c0.4-2.5,1.7-4.5,3.1-6.4c2.5-3.4,4.6-6.9,4.9-11.3c0.2-3.3-0.3-6.3-2.2-9c-3.6-5.2-8.7-7.5-15-6.7c-5.5,0.7-9.6,3.6-11.9,8.7
			c-1.8,4-1.4,8.2,0.1,12.2c1,2.6,2.7,4.7,4.2,6.9c1.4,2,2.6,4.1,2.7,6.7c0,0.6,0.3,0.6,0.7,0.6
			C1040.6,886.5,1042.7,886.5,1044.7,886.5z M1044.7,891.5c1.7,0,3.5,0,5.2,0c1.8,0,1.8,0,1.8-1.8c0-0.6-0.2-0.7-0.8-0.7
			c-3.8,0-7.5,0-11.3,0c-1.9,0-1.9,0-1.8,1.9c0,0.5,0.2,0.6,0.7,0.6C1040.6,891.5,1042.6,891.5,1044.7,891.5z M1044.8,894
			c-2.1,0-4.2,0-6.3,0c-0.7,0-0.8,0.3-0.6,0.8c0.3,1,1.2,1.7,2.2,1.7c3,0,6.1,0,9.1,0c1.1,0,2-0.8,2.3-1.9c0.1-0.5,0.1-0.7-0.5-0.7
			C1049,894.1,1046.9,894,1044.8,894z M1044.7,897.8c-0.6,0-1.3,0-1.9,0c-0.6,0-0.7,0.2-0.6,0.7c0.3,1.1,1.3,1.9,2.6,1.9
			c1.2,0,2.1-0.9,2.3-2c0.1-0.5-0.1-0.6-0.5-0.6C1046.1,897.8,1045.4,897.8,1044.7,897.8z"/>
		<path d="M1044.7,886.5c-2.1,0-4.1,0-6.2,0c-0.4,0-0.7,0-0.7-0.6c-0.2-2.5-1.3-4.6-2.7-6.7c-1.6-2.2-3.2-4.3-4.2-6.9
			c-1.5-4-1.9-8.2-0.1-12.2c2.3-5.1,6.4-8,11.9-8.7c6.3-0.8,11.3,1.5,15,6.7c1.9,2.7,2.4,5.8,2.2,9c-0.3,4.4-2.4,7.9-4.9,11.3
			c-1.4,1.9-2.7,4-3.1,6.4c0,0.1-0.1,0.3-0.1,0.4c-0.1,1.2-0.1,1.2-1.4,1.2C1048.5,886.5,1046.6,886.5,1044.7,886.5z M1033,864.1
			c0,0.9,0.4,1.5,1.1,1.6c0.6,0.1,1.3-0.4,1.4-1.2c0.7-3.3,2.6-5.6,5.7-6.9c0.9-0.4,1.3-1,1-1.7c-0.3-0.8-1.1-1-2-0.7
			c-2,0.9-3.7,2.1-5,3.9C1034,860.7,1033.3,862.4,1033,864.1z"/>
		<path d="M1044.7,891.5c-2.1,0-4.1,0-6.2,0c-0.5,0-0.7-0.1-0.7-0.6c0-1.9,0-1.9,1.8-1.9c3.8,0,7.5,0,11.3,0c0.6,0,0.8,0.1,0.8,0.7
			c0,1.8,0,1.8-1.8,1.8C1048.2,891.5,1046.4,891.5,1044.7,891.5z"/>
		<path d="M1044.8,894c2.1,0,4.2,0,6.3,0c0.6,0,0.6,0.1,0.5,0.7c-0.3,1.1-1.2,1.9-2.3,1.9c-3,0-6.1,0-9.1,0c-1,0-1.9-0.7-2.2-1.7
			c-0.2-0.6-0.1-0.8,0.6-0.8C1040.6,894.1,1042.7,894,1044.8,894z"/>
		<path d="M1044.7,897.8c0.7,0,1.3,0,2,0c0.4,0,0.6,0.1,0.5,0.6c-0.2,1.1-1.2,1.9-2.3,2c-1.3,0-2.3-0.7-2.6-1.9
			c-0.1-0.5,0-0.7,0.6-0.7C1043.5,897.8,1044.1,897.8,1044.7,897.8z"/>
		<path class="st78" d="M1033,864.1c0.3-1.7,1-3.4,2.2-5c1.3-1.8,3-3,5-3.9c0.9-0.4,1.6-0.1,2,0.7c0.3,0.7-0.1,1.3-1,1.7
			c-3.1,1.4-5,3.6-5.7,6.9c-0.2,0.8-0.8,1.3-1.4,1.2C1033.4,865.6,1033,865,1033,864.1z"/>
	</g>
	<g id="light">
		<path class="st78" d="M324.6,23.6c17-0.2,31.2,13.8,31.2,31.2c0,17.3-14.2,31.3-31.5,31.2c-16.9-0.1-31-14.2-30.9-31.5
			C293.5,37.3,307.8,23.4,324.6,23.6z M323.9,64.9c1.8,0,3.5,0,5.3,0c1.2,0,1.2,0,1.3-1.2c0-0.1,0-0.2,0.1-0.4c0.4-2.3,1.6-4.2,3-6
			c2.4-3.2,4.3-6.5,4.6-10.6c0.2-3.1-0.3-6-2-8.5c-3.4-4.9-8.2-7.1-14.1-6.3c-5.2,0.7-9,3.4-11.2,8.2c-1.7,3.8-1.3,7.7,0.1,11.5
			c0.9,2.4,2.5,4.4,4,6.5c1.3,1.9,2.4,3.9,2.5,6.3c0,0.5,0.3,0.6,0.7,0.6C320,64.9,322,64.9,323.9,64.9z M323.9,69.7
			c1.6,0,3.2,0,4.9,0c1.7,0,1.7,0,1.7-1.7c0-0.6-0.2-0.7-0.7-0.7c-3.5,0-7.1,0-10.6,0c-1.8,0-1.8,0-1.7,1.8c0,0.5,0.2,0.6,0.6,0.6
			C320,69.7,322,69.7,323.9,69.7z M324,72c-2,0-3.9,0-5.9,0c-0.7,0-0.7,0.2-0.5,0.8c0.3,0.9,1.1,1.6,2.1,1.6c2.9,0,5.7,0,8.6,0
			c1.1,0,1.9-0.7,2.2-1.8c0.1-0.5,0-0.6-0.5-0.6C327.9,72.1,326,72,324,72z M323.9,75.6c-0.6,0-1.2,0-1.8,0c-0.5,0-0.7,0.2-0.5,0.6
			c0.3,1.1,1.3,1.8,2.4,1.7c1.1,0,2-0.8,2.2-1.9c0.1-0.5-0.1-0.5-0.5-0.5C325.2,75.6,324.6,75.6,323.9,75.6z"/>
		<path d="M323.9,64.9c-1.9,0-3.9,0-5.8,0c-0.4,0-0.6,0-0.7-0.6c-0.1-2.4-1.2-4.4-2.5-6.3c-1.5-2.1-3.1-4.1-4-6.5
			c-1.4-3.8-1.8-7.7-0.1-11.5c2.2-4.8,6-7.6,11.2-8.2c5.9-0.8,10.7,1.4,14.1,6.3c1.8,2.5,2.3,5.4,2,8.5c-0.3,4.1-2.2,7.4-4.6,10.6
			c-1.4,1.8-2.6,3.7-3,6c0,0.1-0.1,0.2-0.1,0.4c-0.1,1.2-0.1,1.2-1.3,1.2C327.4,64.9,325.7,64.9,323.9,64.9z M312.9,43.9
			c0,0.9,0.4,1.4,1,1.5c0.6,0.1,1.2-0.4,1.3-1.1c0.7-3.1,2.5-5.3,5.3-6.5c0.9-0.4,1.2-1,0.9-1.6c-0.3-0.7-1-1-1.9-0.6
			c-1.9,0.8-3.5,2-4.7,3.7C313.8,40.6,313.1,42.2,312.9,43.9z"/>
		<path d="M323.9,69.7c-1.9,0-3.9,0-5.8,0c-0.5,0-0.6-0.1-0.6-0.6c0-1.8,0-1.8,1.7-1.8c3.5,0,7.1,0,10.6,0c0.5,0,0.7,0.1,0.7,0.7
			c0,1.7,0,1.7-1.7,1.7C327.2,69.7,325.5,69.7,323.9,69.7z"/>
		<path d="M324,72c2,0,3.9,0,5.9,0c0.5,0,0.6,0.1,0.5,0.6c-0.3,1-1.1,1.8-2.2,1.8c-2.9,0-5.7,0-8.6,0c-0.9,0-1.8-0.7-2.1-1.6
			c-0.2-0.5-0.1-0.8,0.5-0.8C320.1,72.1,322,72,324,72z"/>
		<path d="M323.9,75.6c0.6,0,1.2,0,1.8,0c0.4,0,0.6,0,0.5,0.5c-0.2,1-1.1,1.8-2.2,1.9c-1.2,0-2.2-0.7-2.4-1.7
			c-0.1-0.5,0-0.7,0.5-0.6C322.8,75.6,323.4,75.6,323.9,75.6z"/>
		<path class="st78" d="M312.9,43.9c0.3-1.6,1-3.2,2-4.7c1.2-1.7,2.8-2.9,4.7-3.7c0.8-0.3,1.5-0.1,1.9,0.6c0.3,0.6-0.1,1.2-0.9,1.6
			c-2.9,1.3-4.7,3.4-5.3,6.5c-0.2,0.7-0.7,1.2-1.3,1.1C313.3,45.3,312.9,44.7,312.9,43.9z"/>
	</g>
	<g id="light">
		<path class="st78" d="M1762.9,537.6c14.7-0.2,27.1,12,27.1,27c0,15-12.3,27.1-27.3,27c-14.7-0.1-26.9-12.3-26.8-27.3
			C1736,549.5,1748.4,537.4,1762.9,537.6z M1762.4,573.5c1.5,0,3,0,4.6,0c1,0,1,0,1.2-1c0-0.1,0-0.2,0.1-0.3c0.3-2,1.4-3.7,2.6-5.2
			c2-2.8,3.7-5.7,4-9.2c0.2-2.7-0.2-5.2-1.8-7.4c-3-4.2-7.1-6.2-12.2-5.5c-4.5,0.6-7.8,3-9.7,7.1c-1.5,3.3-1.2,6.7,0.1,10
			c0.8,2.1,2.2,3.8,3.4,5.6c1.2,1.6,2.1,3.4,2.2,5.4c0,0.5,0.2,0.5,0.6,0.5C1759,573.5,1760.7,573.5,1762.4,573.5z M1762.4,577.6
			c1.4,0,2.8,0,4.2,0c1.5,0,1.5,0,1.5-1.5c0-0.5-0.2-0.6-0.6-0.6c-3.1,0-6.1,0-9.2,0c-1.5,0-1.5,0-1.5,1.5c0,0.4,0.2,0.5,0.6,0.5
			C1759,577.6,1760.7,577.6,1762.4,577.6z M1762.4,579.6c-1.7,0-3.4,0-5.1,0c-0.6,0-0.6,0.2-0.5,0.7c0.3,0.8,1,1.4,1.8,1.4
			c2.5,0,5,0,7.4,0c0.9,0,1.6-0.6,1.9-1.5c0.1-0.4,0-0.5-0.4-0.5C1765.9,579.6,1764.2,579.6,1762.4,579.6z M1762.4,582.7
			c-0.5,0-1,0-1.5,0c-0.5,0-0.6,0.1-0.5,0.6c0.2,0.9,1.1,1.6,2.1,1.5c0.9,0,1.7-0.7,1.9-1.6c0.1-0.4-0.1-0.5-0.4-0.5
			C1763.5,582.7,1762.9,582.7,1762.4,582.7z"/>
		<path d="M1762.4,573.5c-1.7,0-3.4,0-5.1,0c-0.4,0-0.6,0-0.6-0.5c-0.1-2.1-1-3.8-2.2-5.4c-1.3-1.8-2.6-3.5-3.4-5.6
			c-1.3-3.3-1.6-6.7-0.1-10c1.9-4.2,5.2-6.5,9.7-7.1c5.1-0.7,9.3,1.2,12.2,5.5c1.5,2.2,2,4.7,1.8,7.4c-0.3,3.6-1.9,6.4-4,9.2
			c-1.2,1.6-2.2,3.2-2.6,5.2c0,0.1,0,0.2-0.1,0.3c-0.1,1-0.1,1-1.2,1C1765.4,573.5,1763.9,573.5,1762.4,573.5z M1752.8,555.2
			c0,0.8,0.4,1.2,0.9,1.3c0.5,0.1,1-0.4,1.2-1c0.6-2.7,2.1-4.6,4.6-5.7c0.7-0.3,1-0.8,0.8-1.4c-0.3-0.6-0.9-0.8-1.6-0.5
			c-1.6,0.7-3,1.7-4.1,3.2C1753.6,552.4,1753,553.8,1752.8,555.2z"/>
		<path d="M1762.4,577.6c-1.7,0-3.4,0-5.1,0c-0.4,0-0.6-0.1-0.6-0.5c0-1.5,0-1.5,1.5-1.5c3.1,0,6.1,0,9.2,0c0.5,0,0.6,0.1,0.6,0.6
			c0,1.5,0,1.5-1.5,1.5C1765.2,577.6,1763.8,577.6,1762.4,577.6z"/>
		<path d="M1762.4,579.6c1.7,0,3.4,0,5.1,0c0.5,0,0.5,0.1,0.4,0.5c-0.2,0.9-1,1.5-1.9,1.5c-2.5,0-5,0-7.4,0c-0.8,0-1.5-0.6-1.8-1.4
			c-0.2-0.5-0.1-0.7,0.5-0.7C1759,579.6,1760.7,579.6,1762.4,579.6z"/>
		<path d="M1762.4,582.7c0.5,0,1.1,0,1.6,0c0.3,0,0.5,0,0.4,0.5c-0.2,0.9-1,1.6-1.9,1.6c-1,0-1.9-0.6-2.1-1.5
			c-0.1-0.4,0-0.6,0.5-0.6C1761.4,582.7,1761.9,582.7,1762.4,582.7z"/>
		<path class="st78" d="M1752.8,555.2c0.2-1.4,0.8-2.8,1.8-4c1.1-1.4,2.5-2.5,4.1-3.2c0.7-0.3,1.3-0.1,1.6,0.5
			c0.2,0.5-0.1,1-0.8,1.4c-2.5,1.1-4.1,3-4.6,5.7c-0.1,0.6-0.6,1-1.2,1C1753.2,556.4,1752.8,555.9,1752.8,555.2z"/>
	</g>
	<g id="light">
		<path class="st78" d="M1674.6,540.6c12.9-0.1,23.7,10.5,23.7,23.7c0,13.1-10.8,23.8-23.9,23.7c-12.9-0.1-23.6-10.8-23.5-23.9
			C1650.9,551,1661.9,540.4,1674.6,540.6z M1674.1,572c1.3,0,2.7,0,4,0c0.9,0,0.9,0,1-0.9c0-0.1,0-0.2,0-0.3
			c0.3-1.8,1.2-3.2,2.2-4.6c1.8-2.4,3.3-5,3.5-8.1c0.2-2.3-0.2-4.5-1.6-6.5c-2.6-3.7-6.2-5.4-10.7-4.8c-3.9,0.5-6.9,2.6-8.5,6.2
			c-1.3,2.9-1,5.8,0.1,8.7c0.7,1.8,1.9,3.3,3,4.9c1,1.4,1.8,3,1.9,4.8c0,0.4,0.2,0.4,0.5,0.4C1671.1,572,1672.6,572,1674.1,572z
			 M1674.1,575.6c1.2,0,2.5,0,3.7,0c1.3,0,1.3,0,1.3-1.3c0-0.4-0.1-0.5-0.5-0.5c-2.7,0-5.4,0-8.1,0c-1.3,0-1.3,0-1.3,1.4
			c0,0.4,0.1,0.5,0.5,0.5C1671.1,575.6,1672.6,575.6,1674.1,575.6z M1674.1,577.4c-1.5,0-3,0-4.5,0c-0.5,0-0.6,0.2-0.4,0.6
			c0.2,0.7,0.9,1.2,1.6,1.2c2.2,0,4.3,0,6.5,0c0.8,0,1.4-0.6,1.7-1.3c0.1-0.4,0-0.5-0.4-0.5C1677.1,577.4,1675.6,577.4,1674.1,577.4
			z M1674.1,580.1c-0.4,0-0.9,0-1.3,0c-0.4,0-0.5,0.1-0.4,0.5c0.2,0.8,0.9,1.4,1.8,1.3c0.8,0,1.5-0.6,1.7-1.4c0.1-0.4,0-0.4-0.4-0.4
			C1675,580.1,1674.6,580.1,1674.1,580.1z"/>
		<path d="M1674.1,572c-1.5,0-3,0-4.4,0c-0.3,0-0.5,0-0.5-0.4c-0.1-1.8-0.9-3.3-1.9-4.8c-1.1-1.6-2.3-3.1-3-4.9
			c-1.1-2.9-1.4-5.8-0.1-8.7c1.6-3.7,4.6-5.7,8.5-6.2c4.5-0.6,8.1,1.1,10.7,4.8c1.3,1.9,1.7,4.1,1.6,6.5c-0.2,3.1-1.7,5.6-3.5,8.1
			c-1,1.4-2,2.8-2.2,4.6c0,0.1,0,0.2,0,0.3c-0.1,0.9-0.1,0.9-1,0.9C1676.8,572,1675.4,572,1674.1,572z M1665.7,556
			c0,0.7,0.3,1.1,0.8,1.1c0.5,0.1,0.9-0.3,1-0.9c0.5-2.3,1.9-4,4.1-5c0.6-0.3,0.9-0.7,0.7-1.2c-0.2-0.5-0.8-0.7-1.4-0.5
			c-1.4,0.6-2.7,1.5-3.6,2.8C1666.4,553.6,1665.9,554.8,1665.7,556z"/>
		<path d="M1674.1,575.6c-1.5,0-3,0-4.4,0c-0.3,0-0.5-0.1-0.5-0.5c0-1.4,0-1.4,1.3-1.4c2.7,0,5.4,0,8.1,0c0.4,0,0.5,0.1,0.5,0.5
			c0,1.3,0,1.3-1.3,1.3C1676.5,575.6,1675.3,575.6,1674.1,575.6z"/>
		<path d="M1674.1,577.4c1.5,0,3,0,4.5,0c0.4,0,0.5,0.1,0.4,0.5c-0.2,0.8-0.8,1.3-1.7,1.3c-2.2,0-4.3,0-6.5,0
			c-0.7,0-1.3-0.5-1.6-1.2c-0.1-0.4-0.1-0.6,0.4-0.6C1671.2,577.4,1672.6,577.4,1674.1,577.4z"/>
		<path d="M1674.1,580.1c0.5,0,0.9,0,1.4,0c0.3,0,0.4,0,0.4,0.4c-0.2,0.8-0.8,1.4-1.7,1.4c-0.9,0-1.6-0.5-1.8-1.3
			c-0.1-0.4,0-0.5,0.4-0.5C1673.2,580.1,1673.7,580.1,1674.1,580.1z"/>
		<path class="st78" d="M1665.7,556c0.2-1.2,0.7-2.4,1.5-3.5c0.9-1.3,2.1-2.2,3.6-2.8c0.6-0.3,1.2-0.1,1.4,0.5
			c0.2,0.5-0.1,0.9-0.7,1.2c-2.2,1-3.6,2.6-4.1,5c-0.1,0.5-0.6,0.9-1,0.9C1666,557.1,1665.7,556.7,1665.7,556z"/>
	</g>
	<g id="light">
		<path class="st78" d="M1657.4,658.6c12.3-0.1,22.6,10,22.6,22.6c0,12.5-10.3,22.6-22.8,22.5c-12.2-0.1-22.4-10.3-22.4-22.8
			C1634.9,668.5,1645.3,658.5,1657.4,658.6z M1657,688.5c1.3,0,2.5,0,3.8,0c0.9,0,0.9,0,1-0.8c0-0.1,0-0.2,0-0.3
			c0.3-1.7,1.2-3,2.1-4.4c1.7-2.3,3.1-4.7,3.3-7.7c0.2-2.2-0.2-4.3-1.5-6.2c-2.5-3.5-5.9-5.1-10.2-4.6c-3.7,0.5-6.5,2.5-8.1,5.9
			c-1.2,2.7-1,5.6,0.1,8.3c0.7,1.7,1.8,3.2,2.9,4.7c1,1.4,1.7,2.8,1.8,4.5c0,0.4,0.2,0.4,0.5,0.4
			C1654.2,688.5,1655.6,688.5,1657,688.5z M1657,691.9c1.2,0,2.3,0,3.5,0c1.3,0,1.2,0,1.3-1.2c0-0.4-0.1-0.5-0.5-0.5
			c-2.6,0-5.1,0-7.7,0c-1.3,0-1.3,0-1.3,1.3c0,0.4,0.1,0.4,0.5,0.4C1654.1,691.9,1655.6,691.9,1657,691.9z M1657,693.6
			c-1.4,0-2.8,0-4.3,0c-0.5,0-0.5,0.2-0.4,0.6c0.2,0.7,0.8,1.2,1.5,1.2c2.1,0,4.1,0,6.2,0c0.8,0,1.4-0.5,1.6-1.3
			c0.1-0.4,0-0.5-0.3-0.4C1659.9,693.7,1658.5,693.6,1657,693.6z M1657,696.2c-0.4,0-0.9,0-1.3,0c-0.4,0-0.5,0.1-0.4,0.5
			c0.2,0.8,0.9,1.3,1.8,1.3c0.8,0,1.4-0.6,1.6-1.3c0.1-0.3,0-0.4-0.3-0.4C1657.9,696.2,1657.4,696.2,1657,696.2z"/>
		<path d="M1657,688.5c-1.4,0-2.8,0-4.2,0c-0.3,0-0.5,0-0.5-0.4c-0.1-1.7-0.9-3.2-1.8-4.5c-1.1-1.5-2.2-2.9-2.9-4.7
			c-1-2.8-1.3-5.6-0.1-8.3c1.6-3.5,4.4-5.5,8.1-5.9c4.3-0.6,7.7,1,10.2,4.6c1.3,1.8,1.6,3.9,1.5,6.2c-0.2,3-1.6,5.4-3.3,7.7
			c-1,1.3-1.9,2.7-2.1,4.4c0,0.1,0,0.2,0,0.3c-0.1,0.8-0.1,0.8-1,0.8C1659.5,688.5,1658.2,688.5,1657,688.5z M1649,673.3
			c0,0.6,0.3,1,0.7,1.1c0.4,0.1,0.9-0.3,1-0.8c0.5-2.2,1.8-3.8,3.9-4.7c0.6-0.3,0.9-0.7,0.7-1.1c-0.2-0.5-0.8-0.7-1.3-0.4
			c-1.4,0.6-2.5,1.5-3.4,2.7C1649.7,670.9,1649.2,672.1,1649,673.3z"/>
		<path d="M1657,691.9c-1.4,0-2.8,0-4.2,0c-0.3,0-0.5-0.1-0.5-0.4c0-1.3,0-1.3,1.3-1.3c2.6,0,5.1,0,7.7,0c0.4,0,0.5,0.1,0.5,0.5
			c0,1.2,0,1.2-1.3,1.2C1659.3,691.9,1658.1,691.9,1657,691.9z"/>
		<path d="M1657,693.6c1.4,0,2.8,0,4.3,0c0.4,0,0.4,0.1,0.3,0.4c-0.2,0.7-0.8,1.3-1.6,1.3c-2.1,0-4.1,0-6.2,0
			c-0.7,0-1.3-0.5-1.5-1.2c-0.1-0.4-0.1-0.6,0.4-0.6C1654.2,693.7,1655.6,693.6,1657,693.6z"/>
		<path d="M1657,696.2c0.4,0,0.9,0,1.3,0c0.3,0,0.4,0,0.3,0.4c-0.2,0.8-0.8,1.3-1.6,1.3c-0.9,0-1.6-0.5-1.8-1.3
			c-0.1-0.3,0-0.5,0.4-0.5C1656.1,696.2,1656.6,696.2,1657,696.2z"/>
		<path class="st78" d="M1649,673.3c0.2-1.2,0.7-2.3,1.5-3.4c0.9-1.2,2-2.1,3.4-2.7c0.6-0.2,1.1-0.1,1.3,0.4
			c0.2,0.4-0.1,0.9-0.7,1.1c-2.1,0.9-3.4,2.5-3.9,4.7c-0.1,0.5-0.5,0.9-1,0.8C1649.3,674.3,1649,673.9,1649,673.3z"/>
	</g>
	<g id="light">
		<path class="st78" d="M1508.4,691.6c15.9-0.2,29.2,12.9,29.2,29.2c0,16.2-13.3,29.3-29.5,29.2c-15.8-0.1-29-13.3-28.9-29.5
			C1479.3,704.5,1492.7,691.4,1508.4,691.6z M1507.8,730.3c1.6,0,3.3,0,4.9,0c1.1,0,1.1,0,1.2-1.1c0-0.1,0-0.2,0.1-0.3
			c0.4-2.2,1.5-3.9,2.8-5.6c2.2-3,4-6.1,4.3-9.9c0.2-2.9-0.3-5.6-1.9-8c-3.2-4.6-7.6-6.6-13.2-5.9c-4.8,0.6-8.5,3.2-10.5,7.7
			c-1.6,3.6-1.3,7.2,0.1,10.8c0.9,2.2,2.3,4.1,3.7,6.1c1.3,1.8,2.3,3.7,2.4,5.9c0,0.5,0.2,0.5,0.6,0.5
			C1504.2,730.3,1506,730.3,1507.8,730.3z M1507.8,734.7c1.5,0,3,0,4.6,0c1.6,0,1.6,0,1.6-1.6c0-0.5-0.2-0.6-0.7-0.6
			c-3.3,0-6.6,0-10,0c-1.7,0-1.6,0-1.6,1.7c0,0.5,0.2,0.6,0.6,0.6C1504.1,734.7,1506,734.7,1507.8,734.7z M1507.9,736.9
			c-1.8,0-3.7,0-5.5,0c-0.6,0-0.7,0.2-0.5,0.7c0.3,0.8,1.1,1.5,2,1.5c2.7,0,5.3,0,8,0c1,0,1.8-0.7,2-1.6c0.1-0.5,0-0.6-0.4-0.6
			C1511.6,737,1509.7,736.9,1507.9,736.9z M1507.8,740.3c-0.6,0-1.1,0-1.7,0c-0.5,0-0.6,0.1-0.5,0.6c0.2,1,1.2,1.7,2.3,1.6
			c1,0,1.8-0.8,2-1.7c0.1-0.4-0.1-0.5-0.4-0.5C1509,740.3,1508.4,740.3,1507.8,740.3z"/>
		<path d="M1507.8,730.3c-1.8,0-3.6,0-5.5,0c-0.4,0-0.6,0-0.6-0.5c-0.1-2.2-1.1-4.1-2.4-5.9c-1.4-1.9-2.9-3.8-3.7-6.1
			c-1.4-3.6-1.7-7.2-0.1-10.8c2-4.5,5.6-7.1,10.5-7.7c5.5-0.7,10,1.3,13.2,5.9c1.7,2.4,2.1,5.1,1.9,8c-0.3,3.8-2.1,7-4.3,9.9
			c-1.3,1.7-2.4,3.5-2.8,5.6c0,0.1,0,0.2-0.1,0.3c-0.1,1.1-0.1,1.1-1.2,1.1C1511.1,730.3,1509.5,730.3,1507.8,730.3z M1497.5,710.6
			c0,0.8,0.4,1.3,0.9,1.4c0.6,0.1,1.1-0.4,1.3-1.1c0.6-2.9,2.3-4.9,5-6.1c0.8-0.4,1.1-0.9,0.9-1.5c-0.3-0.7-1-0.9-1.7-0.6
			c-1.8,0.8-3.3,1.9-4.4,3.4C1498.4,707.5,1497.7,709.1,1497.5,710.6z"/>
		<path d="M1507.8,734.7c-1.8,0-3.6,0-5.5,0c-0.4,0-0.6-0.1-0.6-0.6c0-1.7,0-1.7,1.6-1.7c3.3,0,6.6,0,10,0c0.5,0,0.7,0.1,0.7,0.6
			c0,1.6,0,1.6-1.6,1.6C1510.8,734.7,1509.3,734.7,1507.8,734.7z"/>
		<path d="M1507.9,736.9c1.8,0,3.7,0,5.5,0c0.5,0,0.6,0.1,0.4,0.6c-0.3,1-1,1.6-2,1.6c-2.7,0-5.3,0-8,0c-0.9,0-1.7-0.6-2-1.5
			c-0.2-0.5-0.1-0.7,0.5-0.7C1504.2,737,1506,736.9,1507.9,736.9z"/>
		<path d="M1507.8,740.3c0.6,0,1.2,0,1.7,0c0.4,0,0.5,0,0.4,0.5c-0.2,1-1,1.7-2,1.7c-1.1,0-2-0.6-2.3-1.6c-0.1-0.4,0-0.6,0.5-0.6
			C1506.7,740.3,1507.3,740.3,1507.8,740.3z"/>
		<path class="st78" d="M1497.5,710.6c0.2-1.5,0.9-3,1.9-4.4c1.2-1.6,2.6-2.7,4.4-3.4c0.8-0.3,1.4-0.1,1.7,0.6
			c0.2,0.6-0.1,1.1-0.9,1.5c-2.7,1.2-4.4,3.2-5,6.1c-0.1,0.7-0.7,1.1-1.3,1.1C1497.8,711.9,1497.5,711.4,1497.5,710.6z"/>
	</g>
	<g id="light">
		<path class="st78" d="M1521.4,858.6c14-0.2,25.7,11.4,25.7,25.7c0,14.2-11.7,25.8-26,25.7c-13.9-0.1-25.6-11.7-25.5-25.9
			C1495.8,869.9,1507.6,858.4,1521.4,858.6z M1520.9,892.7c1.4,0,2.9,0,4.3,0c1,0,1,0,1.1-1c0-0.1,0-0.2,0.1-0.3
			c0.3-1.9,1.3-3.5,2.4-5c1.9-2.6,3.5-5.4,3.8-8.7c0.2-2.5-0.2-4.9-1.7-7c-2.8-4-6.7-5.9-11.6-5.2c-4.3,0.6-7.4,2.8-9.2,6.8
			c-1.4,3.1-1.1,6.3,0.1,9.5c0.8,2,2.1,3.6,3.3,5.3c1.1,1.6,2,3.2,2.1,5.2c0,0.4,0.2,0.5,0.6,0.5
			C1517.7,892.7,1519.3,892.7,1520.9,892.7z M1520.9,896.6c1.3,0,2.7,0,4,0c1.4,0,1.4,0,1.4-1.4c0-0.5-0.1-0.6-0.6-0.6
			c-2.9,0-5.8,0-8.8,0c-1.5,0-1.4,0-1.4,1.5c0,0.4,0.2,0.5,0.5,0.5C1517.7,896.6,1519.3,896.6,1520.9,896.6z M1520.9,898.5
			c-1.6,0-3.2,0-4.9,0c-0.6,0-0.6,0.2-0.5,0.6c0.3,0.7,0.9,1.3,1.7,1.3c2.4,0,4.7,0,7.1,0c0.9,0,1.6-0.6,1.8-1.5
			c0.1-0.4,0-0.5-0.4-0.5C1524.2,898.5,1522.6,898.5,1520.9,898.5z M1520.9,901.4c-0.5,0-1,0-1.5,0c-0.4,0-0.5,0.1-0.4,0.5
			c0.2,0.9,1,1.5,2,1.4c0.9,0,1.6-0.7,1.8-1.5c0.1-0.4,0-0.4-0.4-0.4C1521.9,901.4,1521.4,901.4,1520.9,901.4z"/>
		<path d="M1520.9,892.7c-1.6,0-3.2,0-4.8,0c-0.3,0-0.5,0-0.6-0.5c-0.1-2-1-3.6-2.1-5.2c-1.2-1.7-2.5-3.4-3.3-5.3
			c-1.2-3.1-1.5-6.3-0.1-9.5c1.8-4,5-6.2,9.2-6.8c4.9-0.6,8.8,1.2,11.6,5.2c1.5,2.1,1.9,4.5,1.7,7c-0.2,3.4-1.8,6.1-3.8,8.7
			c-1.1,1.5-2.1,3.1-2.4,5c0,0.1,0,0.2-0.1,0.3c-0.1,1-0.1,1-1.1,1C1523.8,892.7,1522.3,892.7,1520.9,892.7z M1511.8,875.3
			c0,0.7,0.3,1.2,0.8,1.2c0.5,0.1,1-0.3,1.1-0.9c0.5-2.5,2-4.3,4.4-5.4c0.7-0.3,1-0.8,0.8-1.3c-0.3-0.6-0.9-0.8-1.5-0.5
			c-1.6,0.7-2.9,1.7-3.9,3C1512.6,872.6,1512,874,1511.8,875.3z"/>
		<path d="M1520.9,896.6c-1.6,0-3.2,0-4.8,0c-0.4,0-0.5-0.1-0.5-0.5c0-1.5,0-1.5,1.4-1.5c2.9,0,5.8,0,8.8,0c0.4,0,0.6,0.1,0.6,0.6
			c0,1.4,0,1.4-1.4,1.4C1523.5,896.6,1522.2,896.6,1520.9,896.6z"/>
		<path d="M1520.9,898.5c1.6,0,3.2,0,4.9,0c0.4,0,0.5,0.1,0.4,0.5c-0.2,0.8-0.9,1.4-1.8,1.5c-2.4,0-4.7,0-7.1,0
			c-0.8,0-1.5-0.6-1.7-1.3c-0.2-0.5-0.1-0.7,0.5-0.6C1517.7,898.5,1519.3,898.5,1520.9,898.5z"/>
		<path d="M1520.9,901.4c0.5,0,1,0,1.5,0c0.3,0,0.5,0,0.4,0.4c-0.2,0.9-0.9,1.5-1.8,1.5c-1,0-1.8-0.6-2-1.4c-0.1-0.4,0-0.6,0.4-0.5
			C1519.9,901.5,1520.4,901.4,1520.9,901.4z"/>
		<path class="st78" d="M1511.8,875.3c0.2-1.3,0.8-2.7,1.7-3.8c1-1.4,2.3-2.4,3.9-3c0.7-0.3,1.3-0.1,1.5,0.5c0.2,0.5-0.1,1-0.8,1.3
			c-2.4,1.1-3.9,2.8-4.4,5.4c-0.1,0.6-0.6,1-1.1,0.9C1512.1,876.5,1511.8,876,1511.8,875.3z"/>
	</g>
	<g id="light">
		<path class="st78" d="M1554.4,564.6c8.4-0.1,15.5,6.9,15.5,15.5c0,8.6-7.1,15.6-15.7,15.5c-8.4-0.1-15.4-7.1-15.4-15.7
			C1538.9,571.5,1546.1,564.5,1554.4,564.6z M1554.1,585.2c0.9,0,1.7,0,2.6,0c0.6,0,0.6,0,0.7-0.6c0-0.1,0-0.1,0-0.2
			c0.2-1.2,0.8-2.1,1.5-3c1.2-1.6,2.1-3.2,2.3-5.3c0.1-1.5-0.1-3-1-4.2c-1.7-2.4-4.1-3.5-7-3.2c-2.6,0.3-4.5,1.7-5.6,4.1
			c-0.8,1.9-0.7,3.8,0.1,5.7c0.5,1.2,1.2,2.2,2,3.2c0.7,0.9,1.2,1.9,1.3,3.1c0,0.3,0.1,0.3,0.3,0.3
			C1552.1,585.2,1553.1,585.2,1554.1,585.2z M1554.1,587.6c0.8,0,1.6,0,2.4,0c0.9,0,0.9,0,0.9-0.9c0-0.3-0.1-0.3-0.4-0.3
			c-1.8,0-3.5,0-5.3,0c-0.9,0-0.9,0-0.9,0.9c0,0.3,0.1,0.3,0.3,0.3C1552.1,587.6,1553.1,587.6,1554.1,587.6z M1554.1,588.7
			c-1,0-2,0-2.9,0c-0.3,0-0.4,0.1-0.3,0.4c0.2,0.5,0.6,0.8,1,0.8c1.4,0,2.8,0,4.3,0c0.5,0,0.9-0.4,1.1-0.9c0.1-0.2,0-0.3-0.2-0.3
			C1556.1,588.7,1555.1,588.7,1554.1,588.7z M1554.1,590.5c-0.3,0-0.6,0-0.9,0c-0.3,0-0.3,0.1-0.3,0.3c0.1,0.5,0.6,0.9,1.2,0.9
			c0.5,0,1-0.4,1.1-0.9c0.1-0.2,0-0.3-0.2-0.3C1554.7,590.5,1554.4,590.5,1554.1,590.5z"/>
		<path d="M1554.1,585.2c-1,0-1.9,0-2.9,0c-0.2,0-0.3,0-0.3-0.3c-0.1-1.2-0.6-2.2-1.3-3.1c-0.7-1-1.5-2-2-3.2
			c-0.7-1.9-0.9-3.8-0.1-5.7c1.1-2.4,3-3.8,5.6-4.1c2.9-0.4,5.3,0.7,7,3.2c0.9,1.3,1.1,2.7,1,4.2c-0.1,2-1.1,3.7-2.3,5.3
			c-0.7,0.9-1.3,1.9-1.5,3c0,0.1,0,0.1,0,0.2c-0.1,0.6-0.1,0.6-0.7,0.6C1555.8,585.2,1555,585.2,1554.1,585.2z M1548.6,574.7
			c0,0.4,0.2,0.7,0.5,0.8c0.3,0,0.6-0.2,0.7-0.6c0.3-1.5,1.2-2.6,2.7-3.2c0.4-0.2,0.6-0.5,0.5-0.8c-0.2-0.4-0.5-0.5-0.9-0.3
			c-0.9,0.4-1.7,1-2.4,1.8C1549.1,573.1,1548.7,573.9,1548.6,574.7z"/>
		<path d="M1554.1,587.6c-1,0-1.9,0-2.9,0c-0.2,0-0.3,0-0.3-0.3c0-0.9,0-0.9,0.9-0.9c1.8,0,3.5,0,5.3,0c0.3,0,0.4,0,0.4,0.3
			c0,0.9,0,0.9-0.9,0.9C1555.7,587.6,1554.9,587.6,1554.1,587.6z"/>
		<path d="M1554.1,588.7c1,0,2,0,2.9,0c0.3,0,0.3,0.1,0.2,0.3c-0.1,0.5-0.6,0.9-1.1,0.9c-1.4,0-2.8,0-4.3,0c-0.5,0-0.9-0.3-1-0.8
			c-0.1-0.3-0.1-0.4,0.3-0.4C1552.2,588.7,1553.1,588.7,1554.1,588.7z"/>
		<path d="M1554.1,590.5c0.3,0,0.6,0,0.9,0c0.2,0,0.3,0,0.2,0.3c-0.1,0.5-0.5,0.9-1.1,0.9c-0.6,0-1.1-0.3-1.2-0.9
			c-0.1-0.2,0-0.3,0.3-0.3C1553.5,590.5,1553.8,590.5,1554.1,590.5z"/>
		<path class="st78" d="M1548.6,574.7c0.1-0.8,0.5-1.6,1-2.3c0.6-0.8,1.4-1.4,2.4-1.8c0.4-0.2,0.8,0,0.9,0.3c0.1,0.3,0,0.6-0.5,0.8
			c-1.4,0.6-2.3,1.7-2.7,3.2c-0.1,0.4-0.4,0.6-0.7,0.6C1548.8,575.4,1548.6,575.1,1548.6,574.7z"/>
	</g>
	<g id="light">
		<path class="st78" d="M162.9,98.6c21.2-0.2,39.1,17.3,39.1,39c0,21.7-17.8,39.2-39.4,39c-21.2-0.2-38.8-17.7-38.7-39.4
			C124,115.8,142,98.3,162.9,98.6z M162.2,150.3c2.2,0,4.4,0,6.6,0c1.5,0,1.5,0,1.7-1.5c0-0.2,0.1-0.3,0.1-0.5
			c0.5-2.9,2-5.3,3.7-7.6c3-4,5.4-8.2,5.7-13.3c0.3-3.9-0.4-7.5-2.6-10.7c-4.3-6.1-10.2-8.9-17.6-7.9c-6.5,0.8-11.3,4.3-14,10.3
			c-2.1,4.8-1.7,9.6,0.1,14.4c1.1,3,3.1,5.5,5,8.1c1.7,2.4,3,4.9,3.2,7.9c0,0.7,0.3,0.7,0.9,0.7
			C157.3,150.3,159.7,150.3,162.2,150.3z M162.1,156.3c2,0,4.1,0,6.1,0c2.2,0,2.1,0,2.2-2.1c0-0.7-0.2-0.9-0.9-0.8
			c-4.4,0-8.9,0-13.3,0c-2.2,0-2.2,0-2.2,2.2c0,0.6,0.2,0.8,0.8,0.8C157.2,156.3,159.7,156.3,162.1,156.3z M162.2,159.2
			c-2.5,0-4.9,0-7.4,0c-0.8,0-0.9,0.3-0.7,1c0.4,1.1,1.4,2,2.6,2c3.6,0,7.1,0,10.7,0c1.3,0,2.4-0.9,2.7-2.2c0.2-0.6,0.1-0.8-0.6-0.8
			C167.2,159.2,164.7,159.2,162.2,159.2z M162.2,163.7c-0.7,0-1.5,0-2.2,0c-0.7,0-0.8,0.2-0.7,0.8c0.3,1.3,1.6,2.2,3,2.2
			c1.4,0,2.4-1,2.7-2.3c0.1-0.6-0.1-0.7-0.6-0.7C163.7,163.7,162.9,163.7,162.2,163.7z"/>
		<path d="M162.2,150.3c-2.4,0-4.9,0-7.3,0c-0.5,0-0.8,0-0.9-0.7c-0.2-3-1.5-5.5-3.2-7.9c-1.8-2.6-3.8-5.1-5-8.1
			c-1.8-4.8-2.3-9.6-0.1-14.4c2.7-6,7.5-9.5,14-10.3c7.4-1,13.4,1.8,17.6,7.9c2.2,3.2,2.8,6.8,2.6,10.7c-0.4,5.1-2.8,9.3-5.7,13.3
			c-1.7,2.3-3.2,4.7-3.7,7.6c0,0.2-0.1,0.3-0.1,0.5c-0.2,1.5-0.2,1.5-1.7,1.5C166.5,150.3,164.4,150.3,162.2,150.3z M148.3,123.9
			c0,1.1,0.5,1.8,1.3,1.9c0.7,0.1,1.5-0.5,1.7-1.4c0.8-3.9,3.1-6.6,6.7-8.2c1.1-0.5,1.5-1.2,1.2-2c-0.4-0.9-1.3-1.2-2.3-0.8
			c-2.4,1-4.4,2.5-5.9,4.6C149.5,119.9,148.6,121.9,148.3,123.9z"/>
		<path d="M162.1,156.3c-2.4,0-4.9,0-7.3,0c-0.6,0-0.8-0.1-0.8-0.8c0-2.2,0-2.2,2.2-2.2c4.4,0,8.9,0,13.3,0c0.7,0,0.9,0.1,0.9,0.8
			c0,2.1,0,2.1-2.2,2.1C166.2,156.3,164.1,156.3,162.1,156.3z"/>
		<path d="M162.2,159.2c2.5,0,4.9,0,7.4,0c0.7,0,0.8,0.2,0.6,0.8c-0.4,1.3-1.4,2.2-2.7,2.2c-3.6,0-7.1,0-10.7,0
			c-1.2,0-2.2-0.9-2.6-2c-0.2-0.7-0.2-1,0.7-1C157.3,159.3,159.8,159.2,162.2,159.2z"/>
		<path d="M162.2,163.7c0.8,0,1.5,0,2.3,0c0.5,0,0.7,0.1,0.6,0.7c-0.3,1.3-1.4,2.3-2.7,2.3c-1.5,0-2.7-0.9-3-2.2
			c-0.1-0.6,0-0.8,0.7-0.8C160.7,163.7,161.4,163.7,162.2,163.7z"/>
		<path class="st78" d="M148.3,123.9c0.3-2,1.2-4,2.6-5.8c1.5-2.1,3.5-3.6,5.9-4.6c1-0.4,1.9-0.1,2.3,0.8c0.3,0.8-0.1,1.5-1.2,2
			c-3.6,1.6-5.9,4.3-6.7,8.2c-0.2,0.9-0.9,1.5-1.7,1.4C148.8,125.7,148.3,125.1,148.3,123.9z"/>
	</g>
	<g id="el">
		<path class="st79" d="M243.6,744c0.4,14.7-12.1,28.2-28.2,28c-15.4-0.2-27.8-13.2-27.6-28.5c0.2-14.2,12.2-27.8,28.6-27.5
			C231.5,716.3,244,729.2,243.6,744z M218.2,731.4c0-2,0-4,0-6c0-1.4-0.7-2.3-1.9-2.6c-1.2-0.3-2.3,0.2-2.9,1.5
			c-3.6,7.4-7.2,14.8-10.8,22.1c-1,2.1,0.1,3.9,2.4,3.9c2.5,0,5,0,7.5,0c0.5,0,0.7,0.1,0.7,0.7c0,4,0,7.9,0,11.9c0,0.3,0,0.7,0.1,1
			c0.2,1.1,1.1,1.9,2.2,2c1.2,0.1,2-0.5,2.6-1.8c3.5-7.3,7.1-14.6,10.6-21.9c1-2-0.1-3.8-2.4-3.8c-2.5,0-5,0-7.5,0
			c-0.6,0-0.8-0.1-0.8-0.7C218.2,735.5,218.2,733.5,218.2,731.4z"/>
		<path class="st75" d="M218.2,731.4c0,2,0,4.1,0,6.1c0,0.6,0.2,0.8,0.8,0.7c2.5,0,5,0,7.5,0c2.2,0,3.3,1.8,2.4,3.8
			c-3.6,7.3-7.1,14.6-10.6,21.9c-0.7,1.3-1.4,1.9-2.6,1.8c-1.1-0.1-2-0.9-2.2-2c-0.1-0.3-0.1-0.7-0.1-1c0-4,0-7.9,0-11.9
			c0-0.6-0.1-0.7-0.7-0.7c-2.5,0-5,0-7.5,0c-2.3,0-3.4-1.8-2.4-3.9c3.6-7.4,7.2-14.8,10.8-22.1c0.6-1.3,1.7-1.8,2.9-1.5
			c1.2,0.3,1.9,1.2,1.9,2.6C218.2,727.4,218.2,729.4,218.2,731.4z"/>
	</g>
</g>
<g id="POINTS">
</g>
<g id="Kitchen">
</g>
<g id="Livingroom-icons">
</g>
<g id="Livingroom">
</g>
</svg>
