<svg xmlns="http://www.w3.org/2000/svg" viewBox="0 0 1920 1080"><defs><style>.cls-1{fill:#fdee40;}.cls-2{fill:#020202;}.cls-3{fill:#76b62a;}.cls-4{fill:#fab924;}.cls-5{fill:#010101;}</style></defs><g id="icons"><g id="heat"><path class="cls-1" d="M383.57,463.56a36,36,0,1,1-36.09,35.63C347.62,479.55,363.93,463.3,383.57,463.56ZM370.69,520h0c0,.57,0,1.14,0,1.7.1,1.55.63,1.84,1.93,1,.92-.61,1.77-1.34,2.69-2,1.15-.78,1.62-.62,2.08.68.38,1.07.63,2.19,1,3.26.49,1.41,1.13,1.51,2.07.33.68-.84,1.25-1.76,1.9-2.62.93-1.21,1.45-1.21,2.36,0,.69.91,1.27,1.89,2,2.79.82,1.05,1.47,1,1.94-.3.41-1.06.68-2.17,1.06-3.24.52-1.43,1-1.57,2.25-.68.95.67,1.84,1.44,2.81,2.08s1.49.39,1.65-.8-.09-2.5,0-3.75.53-1.57,1.73-1.2c1,.32,2,.74,3.06,1.06.52.17,1.14.48,1.61,0s.22-1.08.05-1.61c-.3-1-.67-1.93-1-2.92-.43-1.44-.09-1.9,1.41-1.9,1.08,0,2.16.13,3.24.08,1.52-.07,1.82-.68,1-1.95-.61-.93-1.34-1.78-2-2.69-.77-1.14-.61-1.64.69-2.09,1.09-.39,2.24-.65,3.33-1,1.29-.46,1.4-1.13.32-2-.89-.71-1.86-1.31-2.76-2-1.12-.88-1.12-1.39,0-2.25.58-.45,1.22-.83,1.82-1.26a11.2,11.2,0,0,0,1.28-1c.68-.64.59-1.16-.25-1.59a7.06,7.06,0,0,0-1-.39c-.84-.27-1.69-.5-2.51-.8-1.44-.53-1.59-1-.69-2.25.65-.9,1.39-1.74,2-2.65.79-1.16.49-1.75-.9-1.8-1.19-.05-2.39,0-3.58,0s-1.54-.49-1.2-1.64.78-2.19,1.12-3.31c.44-1.49,0-1.95-1.48-1.54-1.12.32-2.21.75-3.33,1.06s-1.54.09-1.61-1.12,0-2.27,0-3.4c0-.57.06-1.22-.52-1.53s-1.09.14-1.55.45c-.84.58-1.63,1.24-2.47,1.82-1.24.85-1.75.68-2.24-.76-.33-1-.56-2-.88-2.93-.17-.53-.28-1.19-1-1.28s-1,.48-1.33.93c-.61.82-1.17,1.68-1.79,2.49-.9,1.17-1.4,1.17-2.3,0-.64-.84-1.19-1.73-1.8-2.59-.31-.44-.65-1-1.25-.9s-.79.74-1,1.26-.24.76-.36,1.14c-.25.75-.46,1.52-.77,2.25-.38.91-.83,1-1.67.5s-1.32-1-2-1.48a7.38,7.38,0,0,0-1.55-1c-.72-.3-1.07-.14-1.25.62a5.07,5.07,0,0,0-.11,1.1c0,1,.05,2,0,3-.06,1.31-.49,1.61-1.76,1.22-1.11-.34-2.19-.79-3.31-1.12-1.34-.39-1.77,0-1.45,1.39.12.5.3,1,.46,1.46.23.7.49,1.4.68,2.11.25,1,0,1.38-1,1.51a9.77,9.77,0,0,1-1.53,0,12,12,0,0,0-2.81,0c-.79.17-1,.54-.68,1.28a8.73,8.73,0,0,0,1.18,1.78,15.85,15.85,0,0,1,1.37,1.95.91.91,0,0,1-.49,1.44c-.58.23-1.18.41-1.78.6a13.77,13.77,0,0,0-2.49.84c-.68.37-.76.78-.28,1.37a7.89,7.89,0,0,0,1.66,1.33,15,15,0,0,1,2,1.48.9.9,0,0,1,0,1.47,11.12,11.12,0,0,1-1.7,1.28c-.47.32-1,.61-1.41,1s-1,.64-.84,1.28.66.74,1.13.91c.75.26,1.52.46,2.28.71a12.31,12.31,0,0,1,1.42.56.87.87,0,0,1,.44,1.33,10.7,10.7,0,0,1-1.23,1.74,9.85,9.85,0,0,0-1.43,2c-.33.72-.12,1.13.66,1.29a5,5,0,0,0,1,.06c1.08,0,2.17,0,3.24,0s1.33.47,1,1.47-.72,2.09-1,3.14c-.18.58-.55,1.25,0,1.77s1.19.16,1.77,0c1.1-.3,2.12-.82,3.25-1,.89-.17,1.3.11,1.35,1C370.72,518.63,370.69,519.32,370.69,520Z"/><path class="cls-2" d="M370.69,520c0-.68,0-1.37,0-2-.05-.91-.46-1.19-1.35-1-1.13.22-2.15.74-3.25,1-.58.16-1.25.54-1.77,0s-.14-1.19,0-1.77c.33-1.05.76-2.08,1-3.14s0-1.41-1-1.47-2.16,0-3.24,0a5,5,0,0,1-1-.06c-.78-.16-1-.57-.66-1.29a9.85,9.85,0,0,1,1.43-2,10.7,10.7,0,0,0,1.23-1.74.87.87,0,0,0-.44-1.33,12.31,12.31,0,0,0-1.42-.56c-.76-.25-1.53-.45-2.28-.71-.47-.17-1-.32-1.13-.91s.42-1,.84-1.28.94-.64,1.41-1a11.12,11.12,0,0,0,1.7-1.28.9.9,0,0,0,0-1.47,15,15,0,0,0-2-1.48,7.89,7.89,0,0,1-1.66-1.33c-.48-.59-.4-1,.28-1.37a13.77,13.77,0,0,1,2.49-.84c.6-.19,1.2-.37,1.78-.6a.91.91,0,0,0,.49-1.44,15.85,15.85,0,0,0-1.37-1.95,8.73,8.73,0,0,1-1.18-1.78c-.32-.74-.11-1.11.68-1.28a12,12,0,0,1,2.81,0,9.77,9.77,0,0,0,1.53,0c1-.13,1.28-.51,1-1.51-.19-.71-.45-1.41-.68-2.11-.16-.49-.34-1-.46-1.46-.32-1.35.11-1.78,1.45-1.39,1.12.33,2.2.78,3.31,1.12,1.27.39,1.7.09,1.76-1.22,0-1,0-2,0-3a5.07,5.07,0,0,1,.11-1.1c.18-.76.53-.92,1.25-.62a7.38,7.38,0,0,1,1.55,1c.66.5,1.29,1,2,1.48s1.29.41,1.67-.5c.31-.73.52-1.5.77-2.25.12-.38.21-.77.36-1.14s.34-1.19,1-1.26.94.46,1.25.9c.61.86,1.16,1.75,1.8,2.59.9,1.19,1.4,1.19,2.3,0,.62-.81,1.18-1.67,1.79-2.49.34-.45.67-1,1.33-.93s.79.75,1,1.28c.32,1,.55,2,.88,2.93.49,1.44,1,1.61,2.24.76.84-.58,1.63-1.24,2.47-1.82.46-.31,1-.77,1.55-.45s.52,1,.52,1.53c0,1.13-.09,2.27,0,3.4s.42,1.44,1.61,1.12,2.21-.74,3.33-1.06c1.48-.41,1.92,0,1.48,1.54-.34,1.12-.79,2.2-1.12,3.31s0,1.6,1.2,1.64,2.39,0,3.58,0c1.39.05,1.69.64.9,1.8-.62.91-1.36,1.75-2,2.65-.9,1.26-.75,1.72.69,2.25.82.3,1.67.53,2.51.8a7.06,7.06,0,0,1,1,.39c.84.43.93.95.25,1.59a11.2,11.2,0,0,1-1.28,1c-.6.43-1.24.81-1.82,1.26-1.13.86-1.13,1.37,0,2.25.9.7,1.87,1.3,2.76,2,1.08.85,1,1.52-.32,2-1.09.39-2.24.65-3.33,1-1.3.45-1.46.95-.69,2.09.62.91,1.35,1.76,2,2.69.85,1.27.55,1.88-1,1.95-1.08,0-2.16-.08-3.24-.08-1.5,0-1.84.46-1.41,1.9.28,1,.65,1.94,1,2.92.17.53.42,1.15-.05,1.61s-1.09.16-1.61,0c-1-.32-2-.74-3.06-1.06-1.2-.37-1.62-.06-1.73,1.2s.15,2.5,0,3.75-.65,1.46-1.65.8-1.86-1.41-2.81-2.08c-1.26-.89-1.73-.75-2.25.68-.38,1.07-.65,2.18-1.06,3.24-.47,1.25-1.12,1.35-1.94.3-.7-.9-1.28-1.88-2-2.79-.91-1.21-1.43-1.21-2.36,0-.65.86-1.22,1.78-1.9,2.62-.94,1.18-1.58,1.08-2.07-.33-.38-1.07-.63-2.19-1-3.26-.46-1.3-.93-1.46-2.08-.68-.92.62-1.77,1.35-2.69,2-1.3.86-1.83.57-1.93-1,0-.56,0-1.13,0-1.7Zm32.16-21.12A19.12,19.12,0,1,0,384,518,19.16,19.16,0,0,0,402.85,498.88Z"/><path class="cls-1" d="M402.85,498.88a19.12,19.12,0,1,1-19.1-19.11A19.15,19.15,0,0,1,402.85,498.88Zm-33.75,0a14.64,14.64,0,1,0,14.74-14.62A14.64,14.64,0,0,0,369.1,498.87Z"/><path class="cls-2" d="M369.1,498.87a14.64,14.64,0,1,1,14.61,14.68A14.61,14.61,0,0,1,369.1,498.87Z"/></g><g id="light"><path class="cls-3" d="M1087.94,322.62a32.54,32.54,0,1,1-32.58,32.23C1055.48,336.92,1070.48,322.36,1087.94,322.62Zm-.65,43.11h5.48c1.25,0,1.25,0,1.38-1.22,0-.13,0-.26.07-.38a14.44,14.44,0,0,1,3.09-6.3c2.46-3.32,4.48-6.8,4.78-11.08a13.35,13.35,0,0,0-2.14-8.88c-3.55-5.11-8.51-7.42-14.69-6.61a14.11,14.11,0,0,0-11.69,8.58c-1.78,4-1.4,8,.11,12a31.62,31.62,0,0,0,4.14,6.75,12.66,12.66,0,0,1,2.66,6.55c0,.56.27.59.71.59Zm0,4.94h5.09c1.81,0,1.78,0,1.81-1.79,0-.6-.19-.71-.75-.7-3.7,0-7.39,0-11.09,0-1.85,0-1.83,0-1.82,1.86,0,.53.19.63.67.63C1083.19,370.66,1085.22,370.67,1087.25,370.67Zm.1,2.46c-2.06,0-4.11,0-6.17,0-.7,0-.76.25-.57.82a2.43,2.43,0,0,0,2.18,1.67h8.94a2.4,2.4,0,0,0,2.28-1.84c.14-.51,0-.66-.5-.65C1091.46,373.15,1089.4,373.13,1087.35,373.13Zm-.06,3.71c-.61,0-1.23,0-1.85,0s-.68.17-.55.67a2.48,2.48,0,0,0,4.81-.12c.12-.49-.06-.56-.48-.55C1088.58,376.86,1087.94,376.84,1087.29,376.84Z"/><path d="M1087.29,365.73h-6.1c-.44,0-.68,0-.71-.59a12.66,12.66,0,0,0-2.66-6.55,31.62,31.62,0,0,1-4.14-6.75c-1.51-4-1.89-8-.11-12a14.11,14.11,0,0,1,11.69-8.58c6.18-.81,11.14,1.5,14.69,6.61a13.35,13.35,0,0,1,2.14,8.88c-.3,4.28-2.32,7.76-4.78,11.08a14.44,14.44,0,0,0-3.09,6.3c0,.12-.06.25-.07.38-.13,1.21-.13,1.22-1.38,1.22Zm-11.54-22c0,.92.42,1.5,1,1.58a1.4,1.4,0,0,0,1.4-1.18,9.17,9.17,0,0,1,5.57-6.81c.89-.4,1.25-1,1-1.64a1.38,1.38,0,0,0-1.94-.64,11.78,11.78,0,0,0-4.94,3.83A11,11,0,0,0,1075.75,343.72Z"/><path d="M1087.25,370.67c-2,0-4.06,0-6.09,0-.48,0-.66-.1-.67-.63,0-1.86,0-1.86,1.82-1.86,3.7,0,7.39,0,11.09,0,.56,0,.75.1.75.7,0,1.79,0,1.79-1.81,1.79Z"/><path d="M1087.35,373.13c2.05,0,4.11,0,6.16,0,.55,0,.64.14.5.65a2.4,2.4,0,0,1-2.28,1.84h-8.94a2.43,2.43,0,0,1-2.18-1.67c-.19-.57-.13-.83.57-.82C1083.24,373.16,1085.29,373.13,1087.35,373.13Z"/><path d="M1087.29,376.84c.65,0,1.29,0,1.93,0,.42,0,.6.06.48.55a2.48,2.48,0,0,1-4.81.12c-.13-.5,0-.71.55-.67S1086.68,376.84,1087.29,376.84Z"/><path class="cls-3" d="M1075.75,343.72a11,11,0,0,1,2.12-4.86,11.78,11.78,0,0,1,4.94-3.83,1.38,1.38,0,0,1,1.94.64c.27.64-.09,1.24-1,1.64a9.17,9.17,0,0,0-5.57,6.81,1.4,1.4,0,0,1-1.4,1.18C1076.17,345.22,1075.73,344.64,1075.75,343.72Z"/></g><g id="light-2" data-name="light"><path class="cls-3" d="M561.94,879.64c22-.25,40.59,17.93,40.56,40.54a40.57,40.57,0,1,1-81.14-.4C521.51,897.44,540.19,879.31,561.94,879.64Zm-.81,53.69H568c1.56,0,1.56,0,1.72-1.52,0-.16.06-.32.08-.47.49-3,2.09-5.48,3.85-7.85,3.07-4.13,5.58-8.47,6-13.8a16.69,16.69,0,0,0-2.66-11.06c-4.43-6.36-10.61-9.24-18.31-8.23a17.57,17.57,0,0,0-14.55,10.69c-2.22,4.94-1.74,10,.13,14.94,1.19,3.12,3.26,5.72,5.16,8.41a15.83,15.83,0,0,1,3.31,8.16c0,.7.34.74.88.74C556.06,933.32,558.6,933.33,561.13,933.33Zm0,6.16h6.34c2.26,0,2.22,0,2.25-2.23,0-.75-.23-.88-.92-.88-4.61,0-9.22,0-13.82,0-2.31,0-2.28,0-2.26,2.31,0,.66.23.79.83.79C556,939.47,558.55,939.49,561.08,939.49Zm.13,3.06c-2.56,0-5.12,0-7.68,0-.88,0-1,.31-.71,1a3,3,0,0,0,2.71,2.08q5.57,0,11.14,0a3,3,0,0,0,2.84-2.29c.17-.63.06-.82-.62-.81C566.33,942.58,563.77,942.55,561.21,942.55Zm-.07,4.62c-.77,0-1.54,0-2.31,0s-.84.21-.69.83a3,3,0,0,0,3.16,2.27,3,3,0,0,0,2.84-2.41c.14-.62-.08-.7-.6-.68C562.74,947.2,561.94,947.17,561.14,947.17Z"/><path d="M561.13,933.33c-2.53,0-5.07,0-7.6,0-.54,0-.84,0-.88-.74a15.83,15.83,0,0,0-3.31-8.16c-1.9-2.69-4-5.29-5.16-8.41-1.87-5-2.35-10-.13-14.94A17.57,17.57,0,0,1,558.6,890.4c7.7-1,13.88,1.87,18.31,8.23a16.69,16.69,0,0,1,2.66,11.06c-.38,5.33-2.89,9.67-6,13.8-1.76,2.37-3.36,4.84-3.85,7.85,0,.15-.06.31-.08.47-.16,1.52-.16,1.52-1.72,1.52Zm-14.38-27.41c0,1.15.53,1.87,1.32,2a1.72,1.72,0,0,0,1.74-1.47,11.45,11.45,0,0,1,6.93-8.48c1.11-.49,1.57-1.24,1.22-2a1.7,1.7,0,0,0-2.41-.81,14.63,14.63,0,0,0-6.14,4.77A14,14,0,0,0,546.75,905.92Z"/><path d="M561.08,939.49c-2.53,0-5.05,0-7.58,0-.6,0-.83-.13-.83-.79,0-2.31,0-2.31,2.26-2.31,4.6,0,9.21,0,13.82,0,.69,0,.93.13.92.88,0,2.23,0,2.23-2.25,2.23Z"/><path d="M561.21,942.55c2.56,0,5.12,0,7.68,0,.68,0,.79.18.62.81a3,3,0,0,1-2.84,2.29q-5.58,0-11.14,0a3,3,0,0,1-2.71-2.08c-.25-.71-.17-1,.71-1C556.09,942.58,558.65,942.55,561.21,942.55Z"/><path d="M561.14,947.17c.8,0,1.6,0,2.4,0,.52,0,.74.06.6.68a3,3,0,0,1-2.84,2.41,3,3,0,0,1-3.16-2.27c-.15-.62,0-.88.69-.83S560.37,947.17,561.14,947.17Z"/><path class="cls-3" d="M546.75,905.92a14,14,0,0,1,2.66-6.06,14.63,14.63,0,0,1,6.14-4.77,1.7,1.7,0,0,1,2.41.81c.35.79-.11,1.54-1.22,2a11.45,11.45,0,0,0-6.93,8.48,1.72,1.72,0,0,1-1.74,1.47C547.28,907.79,546.74,907.07,546.75,905.92Z"/></g><g id="el"><path class="cls-4" d="M324.1,228c.4,14.68-12.1,28.17-28.23,28a28.21,28.21,0,0,1-27.59-28.46c.21-14.21,12.21-27.8,28.55-27.5C312,200.31,324.46,213.18,324.1,228Zm-25.38-12.57v-6a2.47,2.47,0,0,0-1.87-2.63,2.45,2.45,0,0,0-2.91,1.48q-5.38,11.07-10.78,22.14c-1,2.07.1,3.88,2.41,3.89,2.49,0,5,0,7.49,0,.55,0,.7.13.7.68,0,4,0,7.92,0,11.88a5.5,5.5,0,0,0,.07,1,2.41,2.41,0,0,0,2.24,2c1.19.08,2-.46,2.62-1.81l10.65-21.91a2.5,2.5,0,0,0-2.35-3.83c-2.5,0-5,0-7.5,0-.58,0-.79-.11-.78-.75C298.75,219.49,298.72,217.45,298.72,215.42Z"/><path class="cls-5" d="M298.72,215.42c0,2,0,4.07,0,6.1,0,.64.2.75.78.75,2.5,0,5,0,7.5,0a2.5,2.5,0,0,1,2.35,3.83L298.68,248c-.65,1.35-1.43,1.89-2.62,1.81a2.41,2.41,0,0,1-2.24-2,5.5,5.5,0,0,1-.07-1c0-4,0-7.92,0-11.88,0-.55-.15-.69-.7-.68-2.5,0-5,0-7.49,0-2.31,0-3.42-1.82-2.41-3.89q5.4-11.07,10.78-22.14a2.45,2.45,0,0,1,2.91-1.48,2.47,2.47,0,0,1,1.87,2.63Z"/></g><g id="el-2" data-name="el"><path class="cls-4" d="M879.11,401.54c.47,17-14,32.67-32.75,32.46-17.86-.21-32.26-15.35-32-33,.25-16.48,14.16-32.24,33.12-31.88C865.07,369.43,879.53,384.35,879.11,401.54Zm-29.44-14.61v-7.08a2.88,2.88,0,0,0-5.52-1.29q-6.25,12.84-12.49,25.68c-1.21,2.47.05,4.56,2.78,4.56s5.69,0,8.54,0c.82,0,.94.25.94,1,0,4.52,0,9,0,13.54a7.33,7.33,0,0,0,.08,1.15,2.81,2.81,0,0,0,2.86,2.39,3.09,3.09,0,0,0,2.81-2.12Q855.8,412,862,399.3a3,3,0,0,0-2.77-4.45c-3,.1-5.9,0-8.85,0-.59,0-.73-.16-.72-.73C849.69,391.75,849.67,389.34,849.67,386.93Z"/><path class="cls-5" d="M849.67,386.93c0,2.41,0,4.82,0,7.23,0,.57.13.74.72.73,3,0,5.9.06,8.85,0A3,3,0,0,1,862,399.3q-6.22,12.69-12.35,25.42a3.09,3.09,0,0,1-2.81,2.12,2.81,2.81,0,0,1-2.86-2.39,7.33,7.33,0,0,1-.08-1.15c0-4.51,0-9,0-13.54,0-.73-.12-1-.94-1-2.85.06-5.7,0-8.54,0s-4-2.09-2.78-4.56q6.26-12.84,12.49-25.68a2.88,2.88,0,0,1,5.52,1.29Z"/></g><g id="el-3" data-name="el"><path class="cls-4" d="M1688.42,157.76c.44,16.07-13.25,30.85-30.91,30.65-16.85-.19-30.44-14.49-30.2-31.16.23-15.56,13.37-30.43,31.26-30.1C1675.17,127.46,1688.81,141.55,1688.42,157.76ZM1660.63,144v-6.61a2.72,2.72,0,0,0-5.23-1.26q-5.89,12.12-11.8,24.24c-1.1,2.27.11,4.25,2.64,4.26,2.73,0,5.47,0,8.2,0,.6,0,.76.15.76.76,0,4.33,0,8.66,0,13a6.58,6.58,0,0,0,.08,1.09,2.63,2.63,0,0,0,2.45,2.19c1.31.09,2.16-.5,2.88-2q5.82-12,11.65-24a2.73,2.73,0,0,0-2.58-4.19c-2.73,0-5.47,0-8.2,0-.64,0-.87-.12-.86-.82C1660.66,148.45,1660.63,146.23,1660.63,144Z"/><path class="cls-5" d="M1660.63,144c0,2.23,0,4.45,0,6.68,0,.7.22.83.86.82,2.73,0,5.47,0,8.2,0a2.73,2.73,0,0,1,2.58,4.19q-5.84,12-11.65,24c-.72,1.48-1.57,2.07-2.88,2a2.63,2.63,0,0,1-2.45-2.19,6.58,6.58,0,0,1-.08-1.09c0-4.33,0-8.66,0-13,0-.61-.16-.76-.76-.76-2.73,0-5.47,0-8.2,0-2.53,0-3.74-2-2.64-4.26q5.91-12.12,11.8-24.24a2.72,2.72,0,0,1,5.23,1.26Z"/></g><g id="el-4" data-name="el"><path class="cls-4" d="M1161.76,973.87c.49,17.71-14.61,34-34.09,33.79-18.59-.22-33.58-16-33.3-34.38.26-17.15,14.74-33.56,34.48-33.18C1147.15,940.44,1162.2,956,1161.76,973.87Zm-30.64-15.21c0-2.46,0-4.91,0-7.37a3,3,0,0,0-5.74-1.34q-6.51,13.37-13,26.73c-1.25,2.57.06,4.74,2.9,4.75s5.93,0,8.89,0c.86,0,1,.25,1,1,0,4.7,0,9.4,0,14.09a8,8,0,0,0,.08,1.2,2.92,2.92,0,0,0,3,2.49,3.22,3.22,0,0,0,2.93-2.21q6.39-13.25,12.85-26.46a3.08,3.08,0,0,0-2.89-4.63c-3.06.1-6.14,0-9.2,0-.61,0-.77-.17-.76-.76C1131.14,963.68,1131.12,961.17,1131.12,958.66Z"/><path class="cls-5" d="M1131.12,958.66c0,2.51,0,5,0,7.53,0,.59.15.77.76.76,3.06,0,6.14.06,9.2,0a3.08,3.08,0,0,1,2.89,4.63q-6.48,13.2-12.85,26.46a3.22,3.22,0,0,1-2.93,2.21,2.92,2.92,0,0,1-3-2.49,8,8,0,0,1-.08-1.2c0-4.69,0-9.39,0-14.09,0-.77-.12-1-1-1-3,.06-5.93,0-8.89,0s-4.15-2.18-2.9-4.75q6.53-13.36,13-26.73a3,3,0,0,1,5.74,1.34C1131.12,953.75,1131.12,956.2,1131.12,958.66Z"/></g></g></svg>