<?xml version="1.0" encoding="utf-8"?>
<!-- Generator: Adobe Illustrator 24.3.0, SVG Export Plug-In . SVG Version: 6.00 Build 0)  -->
<svg version="1.1" xmlns="http://www.w3.org/2000/svg" xmlns:xlink="http://www.w3.org/1999/xlink" x="0px" y="0px"
	 viewBox="0 0 1920 1080" style="enable-background:new 0 0 1920 1080;" xml:space="preserve">
<style type="text/css">
	.st0{fill:#D8E9F0;}
	.st1{fill:#3687A4;}
	.st2{fill:#ADDDEC;}
	.st3{opacity:0.4;fill:#FFFFFF;}
	.st4{fill:#FFFFFF;}
	.st5{fill:#A6DEF6;}
	.st6{fill:#FBC45E;}
	.st7{fill:#E89BBE;}
	.st8{fill:#7A8EC7;}
	.st9{fill:none;stroke:#FFFFFF;stroke-width:6;stroke-miterlimit:10;}
	.st10{fill:#C1E6EC;}
	.st11{fill:#FFFFFF;stroke:#FFFFFF;stroke-width:4;stroke-miterlimit:10;}
	.st12{fill:#CBDF8C;}
	.st13{fill:none;stroke:#FFFFFF;stroke-width:2;stroke-miterlimit:10;}
	.st14{fill:#838186;stroke:#838186;stroke-width:4;stroke-miterlimit:10;}
	.st15{fill:#838186;}
	.st16{fill:#DFDFDF;}
	.st17{fill:none;stroke:#FFFFFF;stroke-width:28;stroke-miterlimit:10;}
	.st18{fill:#BFE3D3;}
	.st19{fill:#ADCEC1;}
	.st20{fill:url(#SVGID_1_);}
	.st21{fill:#58C5C7;}
	.st22{fill:#00B6BE;}
	.st23{fill:url(#SVGID_2_);}
	.st24{fill:#DDBCC8;}
	.st25{fill:#BCAB92;}
	.st26{fill:#D6A1B7;}
	.st27{fill:#261F44;}
	.st28{opacity:0.44;fill:#5F5F60;}
	.st29{fill:none;stroke:#998675;stroke-width:2;stroke-miterlimit:10;}
	.st30{fill:#454289;}
	.st31{fill:#38327C;}
	.st32{fill:#E6E6E6;}
	.st33{fill:#FF6699;}
	.st34{fill:#FF4370;}
	.st35{opacity:0.23;fill:#E53C70;}
	.st36{fill:#3F4650;}
	.st37{fill:#0267B6;}
	.st38{fill:#2BB03E;}
	.st39{fill:#EA2023;}
	.st40{fill:#FBED23;}
	.st41{fill:#0E6B7A;}
	.st42{opacity:0.64;fill:url(#SVGID_3_);}
	.st43{fill:none;stroke:#FFFFFF;stroke-width:8.0256;stroke-miterlimit:10;}
	.st44{fill:none;stroke:#FF4370;stroke-width:1.3376;stroke-miterlimit:10;}
	.st45{fill:url(#bedroom_x5F_lys_17_);}
	.st46{fill:url(#bedroom_x5F_lys_18_);}
	.st47{fill:url(#bedroom_x5F_lys_19_);}
	.st48{fill:url(#bedroom_x5F_lys_20_);}
	.st49{fill:url(#bedroom_x5F_lys_21_);}
	.st50{fill:url(#bedroom_x5F_lys_22_);}
	.st51{fill:url(#bedroom_x5F_lys_23_);}
	.st52{fill:url(#bedroom_x5F_lys_24_);}
	.st53{fill:url(#bedroom_x5F_lys_25_);}
	.st54{fill:url(#bedroom_x5F_lys_26_);}
	.st55{fill:url(#bedroom_x5F_lys_27_);}
	.st56{fill:url(#bedroom_x5F_lys_28_);}
	.st57{fill:url(#bedroom_x5F_lys_29_);}
	.st58{fill:url(#bedroom_x5F_lys_30_);}
	.st59{fill:url(#bedroom_x5F_lys_31_);}
	.st60{fill:url(#bedroom_x5F_lys_32_);}
	.st61{fill:url(#bedroom_x5F_lys_33_);}
	.st62{fill:#E53C70;}
	.st63{fill:#FF83B3;}
	.st64{fill:#EBB724;}
	.st65{fill:#FFC727;}
	.st66{fill:#50ACB0;}
	.st67{fill:#FD8283;}
	.st68{fill:#F07B7C;}
	.st69{fill:#3C8185;}
	.st70{display:none;fill:#3C8185;}
	.st71{fill:#ECECEC;}
	.st72{fill:#BEC3C7;}
	.st73{fill:#DAE0E2;}
	.st74{fill:#92D1DF;}
	.st75{fill:#010101;}
	.st76{fill:#FDEE40;}
	.st77{fill:#020202;}
	.st78{fill:#76B62A;}
	.st79{fill:#FAB924;}
	.st80{fill:#F20303;}
	.st81{fill:#ABD2D0;}
	.st82{fill:#968976;}
	.st83{fill:#70675B;}
	.st84{fill:#E4DECE;}
	.st85{fill:#93B7B6;}
	.st86{fill:#C9F9F9;}
	.st87{fill:none;stroke:#FFFFFF;stroke-width:2.9103;stroke-miterlimit:10;}
	.st88{fill:#F1893A;}
	.st89{fill:#C96E31;}
	.st90{fill:#DB7838;}
	.st91{fill:#2F3E4C;}
	.st92{fill:#FFDD83;}
	.st93{fill:#219260;}
	.st94{fill:#147798;}
	.st95{fill:#915E36;}
	.st96{fill:#FB8710;}
	.st97{fill:#CA9E64;}
	.st98{fill:#B07F48;}
	.st99{fill:#53D678;}
	.st100{fill:#5C4B51;}
	.st101{fill:#F06060;}
	.st102{fill:#F2EBBF;}
	.st103{fill:none;stroke:#5C4B51;stroke-width:3.4462;stroke-linecap:round;stroke-linejoin:round;stroke-miterlimit:10;}
	.st104{opacity:0.38;fill:none;stroke:#FFFFFF;stroke-width:7;stroke-linecap:round;stroke-linejoin:round;stroke-miterlimit:10;}
	.st105{fill:#5C4B7A;}
	.st106{fill:#F03960;}
	.st107{fill:#FFC783;}
	.st108{fill:#5C1A51;}
	.st109{fill:#52BEB2;}
	.st110{fill:#F0A660;}
	.st111{fill:#F3B562;}
	.st112{fill:#87A978;}
	.st113{fill:#93BD85;}
	.st114{fill:#ACDA99;}
	.st115{fill:#475362;}
	.st116{fill:#627289;}
	.st117{fill:#303846;}
	.st118{fill:#41505E;}
	.st119{fill:none;stroke:#87A978;stroke-width:1.1982;stroke-miterlimit:10;}
	.st120{fill:#B4E6A1;}
	.st121{fill:none;stroke:#87A978;stroke-width:0.8558;stroke-miterlimit:10;}
	.st122{fill:#6E8462;}
	.st123{fill-rule:evenodd;clip-rule:evenodd;fill:#F0EEE6;}
	.st124{fill:#E4E0D9;}
	.st125{fill:#DC9C76;}
	.st126{fill:#729C76;}
	.st127{fill:#A94B51;}
	.st128{fill:#974B51;}
	.st129{opacity:0.5;fill:#CC575E;}
	.st130{fill:#7F9C76;}
	.st131{fill:#F27800;}
	.st132{fill:#613D4A;}
	.st133{fill:#004F4D;}
	.st134{fill:#007F4F;}
	.st135{fill:#00654D;}
	.st136{fill:#F59333;}
	.st137{fill:#F1ECDA;}
	.st138{fill:#88A8A7;}
	.st139{fill:url(#SVGID_4_);}
	.st140{fill:#E6E7E8;}
	.st141{fill:#D1D3D4;}
	.st142{fill:#FDBA4A;}
	.st143{fill:#FAA222;}
	.st144{fill:#D3DEBC;}
	.st145{fill:#CC883B;}
	.st146{fill-rule:evenodd;clip-rule:evenodd;fill:#919697;}
	.st147{fill-rule:evenodd;clip-rule:evenodd;fill:#36343A;}
	.st148{fill-rule:evenodd;clip-rule:evenodd;fill:#0C050D;stroke:#0C050D;stroke-width:0.235;stroke-miterlimit:22.9256;}
	.st149{fill-rule:evenodd;clip-rule:evenodd;fill:#36343A;stroke:#0C050D;stroke-width:0.235;stroke-miterlimit:22.9256;}
	.st150{fill-rule:evenodd;clip-rule:evenodd;fill:#7D8082;}
	.st151{fill-rule:evenodd;clip-rule:evenodd;fill:#5BBA47;}
	.st152{fill-rule:evenodd;clip-rule:evenodd;fill:#818081;}
	.st153{fill-rule:evenodd;clip-rule:evenodd;fill:#666264;}
	.st154{fill-rule:evenodd;clip-rule:evenodd;fill:#3B3438;}
	.st155{fill-rule:evenodd;clip-rule:evenodd;fill:#62C3D2;}
	.st156{fill-rule:evenodd;clip-rule:evenodd;fill:#A0D6E1;}
	.st157{fill-rule:evenodd;clip-rule:evenodd;fill:#00B6E8;}
	.st158{fill-rule:evenodd;clip-rule:evenodd;fill:#232938;}
	.st159{fill-rule:evenodd;clip-rule:evenodd;fill:#E5B249;}
	.st160{fill-rule:evenodd;clip-rule:evenodd;fill:#D4C2AB;}
	.st161{fill-rule:evenodd;clip-rule:evenodd;fill:#E1894A;}
	.st162{fill-rule:evenodd;clip-rule:evenodd;fill:#FFFFFF;}
	.st163{fill:#232938;}
	.st164{fill:#A9B392;}
	.st165{fill:#E5B249;}
	.st166{fill-rule:evenodd;clip-rule:evenodd;fill:#A9B392;}
	.st167{fill:#F45A2A;}
	.st168{fill:#F67B46;}
	.st169{fill:#E73F1F;}
	.st170{fill:#E1894A;}
	.st171{fill:#0A837F;}
	.st172{fill:#1DA19F;}
	.st173{fill:#3A6B34;}
	.st174{fill:#96BCBB;}
	.st175{fill:#68858E;}
	.st176{fill:#69935F;}
	.st177{fill:#B75353;}
	.st178{fill:#E0A76E;}
	.st179{fill:#F0D1BC;}
	.st180{fill:#1D2E35;}
	.st181{fill:#272A33;}
	.st182{fill:#563B31;}
	.st183{fill:#462D23;}
	.st184{fill:#FF8D0C;}
	.st185{fill:#FFBF17;}
	.st186{fill:#FFF2EB;}
	.st187{fill:#FFD690;}
	.st188{fill:#FFE5BF;}
	.st189{fill:#F9C44E;}
	.st190{fill:#F9DCB2;}
	.st191{fill:#F9EAD7;}
	.st192{fill:#61AA6A;}
	.st193{fill:#DCD8A0;}
	.st194{fill:#F8F6D3;}
	.st195{fill:#E8E4BF;}
	.st196{fill:#F1CC5E;}
	.st197{fill:#BB8150;}
	.st198{fill:#D09059;}
	.st199{fill:#E3AA79;}
	.st200{fill:#6FC07F;}
	.st201{fill:#A56A2D;}
	.st202{fill:url(#SVGID_5_);}
	.st203{fill:#EFA68F;}
	.st204{fill:#F28B66;}
	.st205{fill-rule:evenodd;clip-rule:evenodd;fill:#999A9A;}
	.st206{fill-rule:evenodd;clip-rule:evenodd;fill:#F3C54B;}
	.st207{fill-rule:evenodd;clip-rule:evenodd;fill:#BBBABA;}
	.st208{fill-rule:evenodd;clip-rule:evenodd;fill:#009CB4;}
	.st209{fill:url(#SVGID_6_);}
	.st210{fill:#3F4E61;}
	.st211{fill:#BE6647;}
	.st212{fill:#404F5F;}
	.st213{fill:#117598;}
	.st214{opacity:0.5;fill:#FF6E86;}
</style>
<g id="Bathroom-icons">
</g>
<g id="Bathroom">
</g>
<g id="Bedroom-icons">
</g>
<g id="Bedroom">
</g>
<g id="icons">
	<g id="heat">
		<path class="st76" d="M383.6,463.6c19.5-0.2,35.9,15.9,35.9,36c0,19.8-16.3,36.2-36.4,36c-19.4-0.2-35.7-16.3-35.6-36.3
			C347.6,479.5,363.9,463.3,383.6,463.6z M370.7,520C370.7,520,370.7,520,370.7,520c0,0.6-0.1,1.1,0,1.7c0.1,1.5,0.6,1.8,1.9,1
			c0.9-0.6,1.8-1.3,2.7-2c1.2-0.8,1.6-0.6,2.1,0.7c0.4,1.1,0.6,2.2,1,3.3c0.5,1.4,1.1,1.5,2.1,0.3c0.7-0.8,1.2-1.8,1.9-2.6
			c0.9-1.2,1.5-1.2,2.4,0c0.7,0.9,1.3,1.9,2,2.8c0.8,1.1,1.5,1,1.9-0.3c0.4-1.1,0.7-2.2,1.1-3.2c0.5-1.4,1-1.6,2.3-0.7
			c1,0.7,1.8,1.4,2.8,2.1c1,0.7,1.5,0.4,1.6-0.8c0.2-1.2-0.1-2.5,0-3.7c0.1-1.3,0.5-1.6,1.7-1.2c1,0.3,2,0.7,3.1,1.1
			c0.5,0.2,1.1,0.5,1.6,0c0.5-0.5,0.2-1.1,0-1.6c-0.3-1-0.7-1.9-1-2.9c-0.4-1.4-0.1-1.9,1.4-1.9c1.1,0,2.2,0.1,3.2,0.1
			c1.5-0.1,1.8-0.7,1-2c-0.6-0.9-1.3-1.8-2-2.7c-0.8-1.1-0.6-1.6,0.7-2.1c1.1-0.4,2.2-0.6,3.3-1c1.3-0.5,1.4-1.1,0.3-2
			c-0.9-0.7-1.9-1.3-2.8-2c-1.1-0.9-1.1-1.4,0-2.3c0.6-0.4,1.2-0.8,1.8-1.3c0.4-0.3,0.9-0.6,1.3-1c0.7-0.6,0.6-1.2-0.2-1.6
			c-0.3-0.2-0.7-0.3-1-0.4c-0.8-0.3-1.7-0.5-2.5-0.8c-1.4-0.5-1.6-1-0.7-2.2c0.6-0.9,1.4-1.7,2-2.7c0.8-1.2,0.5-1.7-0.9-1.8
			c-1.2,0-2.4,0-3.6,0c-1.2,0-1.5-0.5-1.2-1.6c0.3-1.1,0.8-2.2,1.1-3.3c0.4-1.5,0-2-1.5-1.5c-1.1,0.3-2.2,0.7-3.3,1.1
			c-1.2,0.3-1.5,0.1-1.6-1.1c-0.1-1.1,0-2.3,0-3.4c0-0.6,0.1-1.2-0.5-1.5c-0.6-0.3-1.1,0.1-1.6,0.5c-0.8,0.6-1.6,1.2-2.5,1.8
			c-1.2,0.9-1.7,0.7-2.2-0.8c-0.3-1-0.6-2-0.9-2.9c-0.2-0.5-0.3-1.2-1-1.3c-0.7-0.1-1,0.5-1.3,0.9c-0.6,0.8-1.2,1.7-1.8,2.5
			c-0.9,1.2-1.4,1.2-2.3,0c-0.6-0.8-1.2-1.7-1.8-2.6c-0.3-0.4-0.6-1-1.2-0.9c-0.7,0.1-0.8,0.7-1,1.3c-0.1,0.4-0.2,0.8-0.4,1.1
			c-0.2,0.8-0.5,1.5-0.8,2.3c-0.4,0.9-0.8,1-1.7,0.5c-0.7-0.4-1.3-1-2-1.5c-0.5-0.4-1-0.8-1.6-1c-0.7-0.3-1.1-0.1-1.2,0.6
			c-0.1,0.4-0.1,0.7-0.1,1.1c0,1,0.1,2,0,3c-0.1,1.3-0.5,1.6-1.8,1.2c-1.1-0.3-2.2-0.8-3.3-1.1c-1.3-0.4-1.8,0-1.5,1.4
			c0.1,0.5,0.3,1,0.5,1.5c0.2,0.7,0.5,1.4,0.7,2.1c0.3,1,0,1.4-1,1.5c-0.5,0.1-1,0-1.5,0c-0.9,0-1.9-0.2-2.8,0
			c-0.8,0.2-1,0.5-0.7,1.3c0.3,0.7,0.8,1.2,1.2,1.8c0.5,0.6,1,1.2,1.4,2c0.4,0.7,0.2,1.2-0.5,1.4c-0.6,0.2-1.2,0.4-1.8,0.6
			c-0.8,0.3-1.7,0.4-2.5,0.8c-0.7,0.4-0.8,0.8-0.3,1.4c0.5,0.6,1.1,0.9,1.7,1.3c0.7,0.5,1.4,0.9,2,1.5c0.5,0.5,0.5,1,0,1.5
			c-0.5,0.5-1.1,0.9-1.7,1.3c-0.5,0.3-1,0.6-1.4,1c-0.4,0.3-0.9,0.6-0.8,1.3c0.1,0.6,0.7,0.7,1.1,0.9c0.7,0.3,1.5,0.5,2.3,0.7
			c0.5,0.2,1,0.3,1.4,0.6c0.6,0.3,0.7,0.7,0.4,1.3c-0.3,0.6-0.8,1.2-1.2,1.7c-0.5,0.6-1.1,1.3-1.4,2c-0.3,0.7-0.1,1.1,0.7,1.3
			c0.3,0.1,0.7,0.1,1,0.1c1.1,0,2.2,0,3.2,0c1,0.1,1.3,0.5,1.1,1.5c-0.3,1.1-0.7,2.1-1.1,3.1c-0.2,0.6-0.6,1.2,0,1.8
			c0.5,0.5,1.2,0.2,1.8,0c1.1-0.3,2.1-0.8,3.2-1c0.9-0.2,1.3,0.1,1.4,1C370.7,518.6,370.7,519.3,370.7,520z"/>
		<path class="st77" d="M370.7,520c0-0.7,0-1.4,0-2c-0.1-0.9-0.5-1.2-1.4-1c-1.1,0.2-2.1,0.7-3.2,1c-0.6,0.2-1.3,0.5-1.8,0
			c-0.5-0.5-0.1-1.2,0-1.8c0.3-1.1,0.8-2.1,1.1-3.1c0.3-1,0-1.4-1.1-1.5c-1.1-0.1-2.2,0-3.2,0c-0.3,0-0.7,0-1-0.1
			c-0.8-0.2-1-0.6-0.7-1.3c0.3-0.8,0.9-1.4,1.4-2c0.4-0.6,0.9-1.1,1.2-1.7c0.3-0.6,0.2-1.1-0.4-1.3c-0.5-0.2-0.9-0.4-1.4-0.6
			c-0.8-0.3-1.5-0.4-2.3-0.7c-0.5-0.2-1-0.3-1.1-0.9c-0.1-0.6,0.4-1,0.8-1.3c0.4-0.3,0.9-0.6,1.4-1c0.6-0.4,1.2-0.8,1.7-1.3
			c0.5-0.5,0.5-1,0-1.5c-0.6-0.6-1.3-1-2-1.5c-0.6-0.4-1.2-0.8-1.7-1.3c-0.5-0.6-0.4-1,0.3-1.4c0.8-0.4,1.7-0.6,2.5-0.8
			c0.6-0.2,1.2-0.4,1.8-0.6c0.7-0.3,0.8-0.8,0.5-1.4c-0.4-0.7-0.9-1.3-1.4-2c-0.4-0.6-0.9-1.1-1.2-1.8c-0.3-0.7-0.1-1.1,0.7-1.3
			c0.9-0.2,1.9,0,2.8,0c0.5,0,1,0,1.5,0c1-0.1,1.3-0.5,1-1.5c-0.2-0.7-0.4-1.4-0.7-2.1c-0.2-0.5-0.3-1-0.5-1.5
			c-0.3-1.4,0.1-1.8,1.5-1.4c1.1,0.3,2.2,0.8,3.3,1.1c1.3,0.4,1.7,0.1,1.8-1.2c0-1,0-2,0-3c0-0.4,0-0.7,0.1-1.1
			c0.2-0.8,0.5-0.9,1.2-0.6c0.6,0.2,1.1,0.7,1.6,1c0.7,0.5,1.3,1,2,1.5c0.8,0.5,1.3,0.4,1.7-0.5c0.3-0.7,0.5-1.5,0.8-2.3
			c0.1-0.4,0.2-0.8,0.4-1.1c0.2-0.5,0.3-1.2,1-1.3c0.6-0.1,0.9,0.5,1.2,0.9c0.6,0.9,1.2,1.8,1.8,2.6c0.9,1.2,1.4,1.2,2.3,0
			c0.6-0.8,1.2-1.7,1.8-2.5c0.3-0.4,0.7-1,1.3-0.9c0.7,0.1,0.8,0.8,1,1.3c0.3,1,0.6,2,0.9,2.9c0.5,1.4,1,1.6,2.2,0.8
			c0.8-0.6,1.6-1.2,2.5-1.8c0.5-0.3,1-0.8,1.6-0.5c0.6,0.3,0.5,1,0.5,1.5c0,1.1-0.1,2.3,0,3.4c0.1,1.2,0.4,1.4,1.6,1.1
			c1.1-0.3,2.2-0.7,3.3-1.1c1.5-0.4,1.9,0,1.5,1.5c-0.3,1.1-0.8,2.2-1.1,3.3c-0.3,1.2,0,1.6,1.2,1.6c1.2,0,2.4,0,3.6,0
			c1.4,0.1,1.7,0.6,0.9,1.8c-0.6,0.9-1.4,1.8-2,2.7c-0.9,1.3-0.8,1.7,0.7,2.2c0.8,0.3,1.7,0.5,2.5,0.8c0.4,0.1,0.7,0.2,1,0.4
			c0.8,0.4,0.9,0.9,0.2,1.6c-0.4,0.4-0.8,0.7-1.3,1c-0.6,0.4-1.2,0.8-1.8,1.3c-1.1,0.9-1.1,1.4,0,2.3c0.9,0.7,1.9,1.3,2.8,2
			c1.1,0.9,1,1.5-0.3,2c-1.1,0.4-2.2,0.6-3.3,1c-1.3,0.5-1.5,1-0.7,2.1c0.6,0.9,1.3,1.8,2,2.7c0.8,1.3,0.6,1.9-1,2
			c-1.1,0-2.2-0.1-3.2-0.1c-1.5,0-1.8,0.5-1.4,1.9c0.3,1,0.7,1.9,1,2.9c0.2,0.5,0.4,1.1,0,1.6c-0.5,0.5-1.1,0.2-1.6,0
			c-1-0.3-2-0.7-3.1-1.1c-1.2-0.4-1.6-0.1-1.7,1.2c-0.1,1.2,0.2,2.5,0,3.7c-0.2,1.2-0.6,1.5-1.6,0.8c-1-0.6-1.9-1.4-2.8-2.1
			c-1.3-0.9-1.7-0.8-2.3,0.7c-0.4,1.1-0.7,2.2-1.1,3.2c-0.5,1.3-1.1,1.3-1.9,0.3c-0.7-0.9-1.3-1.9-2-2.8c-0.9-1.2-1.4-1.2-2.4,0
			c-0.7,0.9-1.2,1.8-1.9,2.6c-0.9,1.2-1.6,1.1-2.1-0.3c-0.4-1.1-0.6-2.2-1-3.3c-0.5-1.3-0.9-1.5-2.1-0.7c-0.9,0.6-1.8,1.3-2.7,2
			c-1.3,0.9-1.8,0.6-1.9-1C370.6,521.1,370.7,520.6,370.7,520C370.7,520,370.7,520,370.7,520z M402.9,498.9
			c0-10.5-8.6-19.1-19.1-19.1c-10.6,0-19.1,8.6-19.1,19.2c0,10.6,8.6,19.1,19.4,19.1C394.3,518,402.9,509.3,402.9,498.9z"/>
		<path class="st76" d="M402.9,498.9c0,10.4-8.6,19.1-18.8,19.1c-10.8,0-19.4-8.5-19.4-19.1c0-10.6,8.6-19.2,19.1-19.2
			C394.2,479.8,402.8,488.4,402.9,498.9z M369.1,498.9c0,8.1,6.5,14.7,14.6,14.7c8,0,14.6-6.5,14.7-14.4c0-8.3-6.4-14.9-14.5-14.9
			C375.6,484.2,369.1,490.7,369.1,498.9z"/>
		<path class="st77" d="M369.1,498.9c0-8.1,6.5-14.6,14.7-14.6c8.1,0,14.5,6.6,14.5,14.9c0,7.9-6.7,14.4-14.7,14.4
			C375.6,513.5,369.1,507,369.1,498.9z"/>
	</g>
	<g id="light">
		<path class="st78" d="M1087.9,322.6c17.7-0.2,32.6,14.4,32.6,32.5c0,18.1-14.8,32.7-32.9,32.5c-17.7-0.1-32.4-14.8-32.3-32.8
			C1055.5,336.9,1070.5,322.4,1087.9,322.6z M1087.3,365.7c1.8,0,3.7,0,5.5,0c1.3,0,1.3,0,1.4-1.2c0-0.1,0-0.3,0.1-0.4
			c0.4-2.4,1.7-4.4,3.1-6.3c2.5-3.3,4.5-6.8,4.8-11.1c0.2-3.2-0.3-6.2-2.1-8.9c-3.6-5.1-8.5-7.4-14.7-6.6c-5.4,0.7-9.4,3.6-11.7,8.6
			c-1.8,4-1.4,8,0.1,12c1,2.5,2.6,4.6,4.1,6.8c1.4,2,2.5,4.1,2.7,6.5c0,0.6,0.3,0.6,0.7,0.6C1083.2,365.7,1085.3,365.7,1087.3,365.7
			z M1087.2,370.7c1.7,0,3.4,0,5.1,0c1.8,0,1.8,0,1.8-1.8c0-0.6-0.2-0.7-0.7-0.7c-3.7,0-7.4,0-11.1,0c-1.8,0-1.8,0-1.8,1.9
			c0,0.5,0.2,0.6,0.7,0.6C1083.2,370.7,1085.2,370.7,1087.2,370.7z M1087.3,373.1c-2.1,0-4.1,0-6.2,0c-0.7,0-0.8,0.2-0.6,0.8
			c0.3,0.9,1.2,1.7,2.2,1.7c3,0,6,0,8.9,0c1.1,0,2-0.8,2.3-1.8c0.1-0.5,0.1-0.7-0.5-0.6C1091.5,373.1,1089.4,373.1,1087.3,373.1z
			 M1087.3,376.8c-0.6,0-1.2,0-1.9,0c-0.5,0-0.7,0.2-0.6,0.7c0.3,1.1,1.3,1.9,2.5,1.8c1.1,0,2-0.8,2.3-1.9c0.1-0.5-0.1-0.6-0.5-0.5
			C1088.6,376.9,1087.9,376.8,1087.3,376.8z"/>
		<path d="M1087.3,365.7c-2,0-4.1,0-6.1,0c-0.4,0-0.7,0-0.7-0.6c-0.1-2.5-1.3-4.6-2.7-6.5c-1.5-2.2-3.2-4.2-4.1-6.8
			c-1.5-4-1.9-8-0.1-12c2.3-5,6.3-7.9,11.7-8.6c6.2-0.8,11.1,1.5,14.7,6.6c1.8,2.6,2.4,5.7,2.1,8.9c-0.3,4.3-2.3,7.8-4.8,11.1
			c-1.4,1.9-2.7,3.9-3.1,6.3c0,0.1-0.1,0.3-0.1,0.4c-0.1,1.2-0.1,1.2-1.4,1.2C1090.9,365.7,1089.1,365.7,1087.3,365.7z
			 M1075.7,343.7c0,0.9,0.4,1.5,1.1,1.6c0.6,0.1,1.2-0.4,1.4-1.2c0.7-3.2,2.6-5.5,5.6-6.8c0.9-0.4,1.3-1,1-1.6
			c-0.3-0.7-1.1-1-1.9-0.6c-2,0.8-3.6,2.1-4.9,3.8C1076.8,340.4,1076,342,1075.7,343.7z"/>
		<path d="M1087.2,370.7c-2,0-4.1,0-6.1,0c-0.5,0-0.7-0.1-0.7-0.6c0-1.9,0-1.9,1.8-1.9c3.7,0,7.4,0,11.1,0c0.6,0,0.8,0.1,0.7,0.7
			c0,1.8,0,1.8-1.8,1.8C1090.6,370.7,1088.9,370.7,1087.2,370.7z"/>
		<path d="M1087.3,373.1c2.1,0,4.1,0,6.2,0c0.5,0,0.6,0.1,0.5,0.6c-0.3,1.1-1.2,1.8-2.3,1.8c-3,0-6,0-8.9,0c-1,0-1.8-0.7-2.2-1.7
			c-0.2-0.6-0.1-0.8,0.6-0.8C1083.2,373.2,1085.3,373.1,1087.3,373.1z"/>
		<path d="M1087.3,376.8c0.6,0,1.3,0,1.9,0c0.4,0,0.6,0.1,0.5,0.5c-0.2,1.1-1.2,1.9-2.3,1.9c-1.2,0-2.3-0.7-2.5-1.8
			c-0.1-0.5,0-0.7,0.6-0.7C1086.1,376.9,1086.7,376.8,1087.3,376.8z"/>
		<path class="st78" d="M1075.7,343.7c0.3-1.7,1-3.4,2.1-4.9c1.3-1.7,3-3,4.9-3.8c0.8-0.4,1.6-0.1,1.9,0.6c0.3,0.6-0.1,1.2-1,1.6
			c-3,1.3-4.9,3.6-5.6,6.8c-0.2,0.7-0.8,1.3-1.4,1.2C1076.2,345.2,1075.7,344.6,1075.7,343.7z"/>
	</g>
	<g id="light">
		<path class="st78" d="M561.9,879.6c22-0.2,40.6,17.9,40.6,40.5c0,22.5-18.4,40.7-41,40.5c-22-0.2-40.3-18.4-40.2-40.9
			C521.5,897.4,540.2,879.3,561.9,879.6z M561.1,933.3c2.3,0,4.6,0,6.8,0c1.6,0,1.6,0,1.7-1.5c0-0.2,0.1-0.3,0.1-0.5
			c0.5-3,2.1-5.5,3.9-7.8c3.1-4.1,5.6-8.5,6-13.8c0.3-4-0.4-7.8-2.7-11.1c-4.4-6.4-10.6-9.2-18.3-8.2c-6.7,0.9-11.7,4.4-14.6,10.7
			c-2.2,4.9-1.7,10,0.1,14.9c1.2,3.1,3.3,5.7,5.2,8.4c1.7,2.5,3.1,5.1,3.3,8.2c0,0.7,0.3,0.7,0.9,0.7
			C556.1,933.3,558.6,933.3,561.1,933.3z M561.1,939.5c2.1,0,4.2,0,6.3,0c2.3,0,2.2,0,2.3-2.2c0-0.8-0.2-0.9-0.9-0.9
			c-4.6,0-9.2,0-13.8,0c-2.3,0-2.3,0-2.3,2.3c0,0.7,0.2,0.8,0.8,0.8C556,939.5,558.6,939.5,561.1,939.5z M561.2,942.6
			c-2.6,0-5.1,0-7.7,0c-0.9,0-1,0.3-0.7,1c0.4,1.2,1.5,2.1,2.7,2.1c3.7,0,7.4,0,11.1,0c1.4,0,2.5-1,2.8-2.3c0.2-0.6,0.1-0.8-0.6-0.8
			C566.3,942.6,563.8,942.6,561.2,942.6z M561.1,947.2c-0.8,0-1.5,0-2.3,0c-0.7,0-0.8,0.2-0.7,0.8c0.3,1.4,1.6,2.3,3.2,2.3
			c1.4,0,2.5-1.1,2.8-2.4c0.1-0.6-0.1-0.7-0.6-0.7C562.7,947.2,561.9,947.2,561.1,947.2z"/>
		<path d="M561.1,933.3c-2.5,0-5.1,0-7.6,0c-0.5,0-0.8,0-0.9-0.7c-0.2-3.1-1.6-5.7-3.3-8.2c-1.9-2.7-4-5.3-5.2-8.4
			c-1.9-5-2.4-10-0.1-14.9c2.8-6.3,7.8-9.8,14.6-10.7c7.7-1,13.9,1.9,18.3,8.2c2.3,3.3,2.9,7.1,2.7,11.1c-0.4,5.3-2.9,9.7-6,13.8
			c-1.8,2.4-3.4,4.8-3.9,7.8c0,0.2-0.1,0.3-0.1,0.5c-0.2,1.5-0.2,1.5-1.7,1.5C565.7,933.3,563.4,933.3,561.1,933.3z M546.8,905.9
			c0,1.1,0.5,1.9,1.3,2c0.8,0.1,1.5-0.5,1.7-1.5c0.9-4,3.2-6.8,6.9-8.5c1.1-0.5,1.6-1.2,1.2-2c-0.4-0.9-1.4-1.3-2.4-0.8
			c-2.5,1-4.5,2.6-6.1,4.8C548,901.7,547.1,903.8,546.8,905.9z"/>
		<path d="M561.1,939.5c-2.5,0-5.1,0-7.6,0c-0.6,0-0.8-0.1-0.8-0.8c0-2.3,0-2.3,2.3-2.3c4.6,0,9.2,0,13.8,0c0.7,0,0.9,0.1,0.9,0.9
			c0,2.2,0,2.2-2.3,2.2C565.3,939.5,563.2,939.5,561.1,939.5z"/>
		<path d="M561.2,942.6c2.6,0,5.1,0,7.7,0c0.7,0,0.8,0.2,0.6,0.8c-0.4,1.3-1.5,2.3-2.8,2.3c-3.7,0-7.4,0-11.1,0
			c-1.2,0-2.3-0.9-2.7-2.1c-0.2-0.7-0.2-1,0.7-1C556.1,942.6,558.6,942.6,561.2,942.6z"/>
		<path d="M561.1,947.2c0.8,0,1.6,0,2.4,0c0.5,0,0.7,0.1,0.6,0.7c-0.3,1.4-1.4,2.4-2.8,2.4c-1.5,0.1-2.8-0.9-3.2-2.3
			c-0.2-0.6,0-0.9,0.7-0.8C559.6,947.2,560.4,947.2,561.1,947.2z"/>
		<path class="st78" d="M546.8,905.9c0.3-2.1,1.3-4.2,2.7-6.1c1.6-2.2,3.7-3.7,6.1-4.8c1.1-0.4,2-0.1,2.4,0.8c0.3,0.8-0.1,1.5-1.2,2
			c-3.7,1.7-6.1,4.5-6.9,8.5c-0.2,0.9-1,1.6-1.7,1.5C547.3,907.8,546.7,907.1,546.8,905.9z"/>
	</g>
	<g id="el">
		<path class="st79" d="M324.1,228c0.4,14.7-12.1,28.2-28.2,28c-15.4-0.2-27.8-13.2-27.6-28.5c0.2-14.2,12.2-27.8,28.6-27.5
			C312,200.3,324.5,213.2,324.1,228z M298.7,215.4c0-2,0-4,0-6c0-1.4-0.7-2.3-1.9-2.6c-1.2-0.3-2.3,0.2-2.9,1.5
			c-3.6,7.4-7.2,14.8-10.8,22.1c-1,2.1,0.1,3.9,2.4,3.9c2.5,0,5,0,7.5,0c0.5,0,0.7,0.1,0.7,0.7c0,4,0,7.9,0,11.9c0,0.3,0,0.7,0.1,1
			c0.2,1.1,1.1,1.9,2.2,2c1.2,0.1,2-0.5,2.6-1.8c3.5-7.3,7.1-14.6,10.6-21.9c1-2-0.1-3.8-2.4-3.8c-2.5,0-5,0-7.5,0
			c-0.6,0-0.8-0.1-0.8-0.7C298.7,219.5,298.7,217.5,298.7,215.4z"/>
		<path class="st75" d="M298.7,215.4c0,2,0,4.1,0,6.1c0,0.6,0.2,0.8,0.8,0.7c2.5,0,5,0,7.5,0c2.2,0,3.3,1.8,2.4,3.8
			c-3.6,7.3-7.1,14.6-10.6,21.9c-0.7,1.3-1.4,1.9-2.6,1.8c-1.1-0.1-2-0.9-2.2-2c-0.1-0.3-0.1-0.7-0.1-1c0-4,0-7.9,0-11.9
			c0-0.6-0.1-0.7-0.7-0.7c-2.5,0-5,0-7.5,0c-2.3,0-3.4-1.8-2.4-3.9c3.6-7.4,7.2-14.8,10.8-22.1c0.6-1.3,1.7-1.8,2.9-1.5
			c1.2,0.3,1.9,1.2,1.9,2.6C298.7,211.4,298.7,213.4,298.7,215.4z"/>
	</g>
	<g id="el">
		<path class="st79" d="M879.1,401.5c0.5,17-14,32.7-32.7,32.5c-17.9-0.2-32.3-15.3-32-33c0.2-16.5,14.2-32.2,33.1-31.9
			C865.1,369.4,879.5,384.4,879.1,401.5z M849.7,386.9c0-2.4,0-4.7,0-7.1c0-1.5-0.8-2.6-2.2-3c-1.4-0.3-2.7,0.3-3.3,1.7
			c-4.2,8.6-8.3,17.1-12.5,25.7c-1.2,2.5,0.1,4.6,2.8,4.6c2.8,0,5.7,0,8.5,0c0.8,0,0.9,0.2,0.9,1c0,4.5,0,9,0,13.5
			c0,0.4,0,0.8,0.1,1.1c0.2,1.4,1.4,2.4,2.9,2.4c1.4,0,2.2-0.9,2.8-2.1c4.1-8.5,8.2-17,12.3-25.4c1.1-2.2-0.3-4.5-2.8-4.5
			c-2.9,0.1-5.9,0-8.8,0c-0.6,0-0.7-0.2-0.7-0.7C849.7,391.7,849.7,389.3,849.7,386.9z"/>
		<path class="st75" d="M849.7,386.9c0,2.4,0,4.8,0,7.2c0,0.6,0.1,0.7,0.7,0.7c2.9,0,5.9,0.1,8.8,0c2.4-0.1,3.9,2.2,2.8,4.5
			c-4.1,8.5-8.3,16.9-12.3,25.4c-0.6,1.2-1.4,2.1-2.8,2.1c-1.4,0-2.6-1-2.9-2.4c-0.1-0.4-0.1-0.8-0.1-1.1c0-4.5,0-9,0-13.5
			c0-0.7-0.1-1-0.9-1c-2.8,0.1-5.7,0-8.5,0c-2.7,0-4-2.1-2.8-4.6c4.2-8.6,8.3-17.1,12.5-25.7c0.7-1.4,1.9-2,3.3-1.7
			c1.4,0.3,2.2,1.4,2.2,3C849.7,382.2,849.7,384.6,849.7,386.9z"/>
	</g>
	<g id="el_1_">
		<path class="st79" d="M1688.4,157.8c0.4,16.1-13.2,30.8-30.9,30.6c-16.9-0.2-30.4-14.5-30.2-31.2c0.2-15.6,13.4-30.4,31.3-30.1
			C1675.2,127.5,1688.8,141.5,1688.4,157.8z M1660.6,144c0-2.2,0-4.4,0-6.6c0-1.5-0.8-2.6-2-2.9c-1.4-0.3-2.5,0.2-3.2,1.6
			c-3.9,8.1-7.9,16.2-11.8,24.2c-1.1,2.3,0.1,4.3,2.6,4.3c2.7,0,5.5,0,8.2,0c0.6,0,0.8,0.1,0.8,0.8c0,4.3,0,8.7,0,13
			c0,0.4,0,0.7,0.1,1.1c0.2,1.2,1.2,2.1,2.5,2.2c1.3,0.1,2.2-0.5,2.9-2c3.9-8,7.8-16,11.7-24c1.1-2.2-0.2-4.2-2.6-4.2
			c-2.7,0-5.5,0-8.2,0c-0.6,0-0.9-0.1-0.9-0.8C1660.7,148.5,1660.6,146.2,1660.6,144z"/>
		<path class="st75" d="M1660.6,144c0,2.2,0,4.5,0,6.7c0,0.7,0.2,0.8,0.9,0.8c2.7,0,5.5,0,8.2,0c2.4,0,3.6,2,2.6,4.2
			c-3.9,8-7.8,16-11.7,24c-0.7,1.5-1.6,2.1-2.9,2c-1.2-0.1-2.2-1-2.5-2.2c-0.1-0.4-0.1-0.7-0.1-1.1c0-4.3,0-8.7,0-13
			c0-0.6-0.2-0.8-0.8-0.8c-2.7,0-5.5,0-8.2,0c-2.5,0-3.7-2-2.6-4.3c3.9-8.1,7.9-16.2,11.8-24.2c0.7-1.4,1.8-1.9,3.2-1.6
			c1.3,0.3,2,1.4,2,2.9C1660.6,139.6,1660.6,141.8,1660.6,144z"/>
	</g>
	<g id="el">
		<path class="st79" d="M1161.8,973.9c0.5,17.7-14.6,34-34.1,33.8c-18.6-0.2-33.6-16-33.3-34.4c0.3-17.2,14.7-33.6,34.5-33.2
			C1147.2,940.4,1162.2,956,1161.8,973.9z M1131.1,958.7c0-2.5,0-4.9,0-7.4c0-1.6-0.9-2.7-2.3-3.1c-1.5-0.3-2.8,0.3-3.5,1.7
			c-4.3,8.9-8.7,17.8-13,26.7c-1.3,2.6,0.1,4.7,2.9,4.7c3,0,5.9,0,8.9,0c0.9,0,1,0.3,1,1c0,4.7,0,9.4,0,14.1c0,0.4,0,0.8,0.1,1.2
			c0.2,1.5,1.5,2.5,3,2.5c1.5,0,2.3-0.9,2.9-2.2c4.3-8.8,8.5-17.7,12.9-26.5c1.1-2.3-0.4-4.7-2.9-4.6c-3.1,0.1-6.1,0-9.2,0
			c-0.6,0-0.8-0.2-0.8-0.8C1131.1,963.7,1131.1,961.2,1131.1,958.7z"/>
		<path class="st75" d="M1131.1,958.7c0,2.5,0,5,0,7.5c0,0.6,0.1,0.8,0.8,0.8c3.1,0,6.1,0.1,9.2,0c2.5-0.1,4,2.3,2.9,4.6
			c-4.3,8.8-8.6,17.6-12.9,26.5c-0.6,1.3-1.4,2.2-2.9,2.2c-1.5,0-2.7-1-3-2.5c-0.1-0.4-0.1-0.8-0.1-1.2c0-4.7,0-9.4,0-14.1
			c0-0.8-0.1-1-1-1c-3,0.1-5.9,0-8.9,0c-2.8,0-4.1-2.2-2.9-4.7c4.3-8.9,8.7-17.8,13-26.7c0.7-1.5,2-2.1,3.5-1.7
			c1.4,0.3,2.3,1.5,2.3,3.1C1131.1,953.7,1131.1,956.2,1131.1,958.7z"/>
	</g>
</g>
<g id="POINTS">
</g>
<g id="Kitchen">
</g>
<g id="Livingroom-icons">
</g>
<g id="Livingroom">
</g>
</svg>
