<svg xmlns="http://www.w3.org/2000/svg" viewBox="0 0 1920 1080"><defs><style>.cls-1{fill:#92d1df;}.cls-2{fill:#010101;}.cls-3{fill:#76b62a;}</style></defs><g id="icons"><g id="water"><path class="cls-1" d="M1416.19,131.06c25.65-.34,48,21.43,47.41,48.54a47.54,47.54,0,1,1-47.41-48.54Zm24.49,54.29c0-.53-.06-1.59-.19-2.63a33.16,33.16,0,0,0-4-11.42c-4.76-8.86-11.32-16.31-18.49-23.26a2.9,2.9,0,0,0-4.16.14q-1.71,1.63-3.34,3.34a92.27,92.27,0,0,0-14.5,18.88c-3.48,6.26-5.46,12.8-4.18,20.07,1.24,7.07,4.68,12.61,11.07,16.08a27.55,27.55,0,0,0,17.69,2.82c5.79-.87,10.84-3.21,14.69-7.74S1440.56,191.69,1440.68,185.35Z"/><path class="cls-2" d="M1440.68,185.35c-.12,6.34-1.5,11.74-5.36,16.28s-8.9,6.87-14.69,7.74a27.55,27.55,0,0,1-17.69-2.82c-6.39-3.47-9.83-9-11.07-16.08-1.28-7.27.7-13.81,4.18-20.07a92.27,92.27,0,0,1,14.5-18.88q1.64-1.71,3.34-3.34a2.9,2.9,0,0,1,4.16-.14c7.17,7,13.73,14.4,18.49,23.26a33.16,33.16,0,0,1,4,11.42C1440.62,183.76,1440.65,184.82,1440.68,185.35Zm-41.54-.67a18.67,18.67,0,0,0,2.9,9.8,16.82,16.82,0,0,0,14.34,7.72,3,3,0,0,0,3.17-3,3.11,3.11,0,0,0-3-3.16c-.3,0-.6,0-.9-.05a10.59,10.59,0,0,1-9.19-6.27,15,15,0,0,1-1.19-5.91,3.05,3.05,0,0,0-5.57-1.62A3.63,3.63,0,0,0,1399.14,184.68Z"/><path class="cls-1" d="M1399.14,184.68a3.63,3.63,0,0,1,.55-2.47,3.05,3.05,0,0,1,5.57,1.62,15,15,0,0,0,1.19,5.91,10.59,10.59,0,0,0,9.19,6.27c.3,0,.6,0,.9.05a3.11,3.11,0,0,1,3,3.16,3,3,0,0,1-3.17,3,16.82,16.82,0,0,1-14.34-7.72A18.67,18.67,0,0,1,1399.14,184.68Z"/></g><g id="water-2" data-name="water"><path class="cls-1" d="M988.65,418.06c22.37-.3,41.84,18.68,41.34,42.32a41.45,41.45,0,1,1-41.34-42.32ZM1010,465.4c0-.47,0-1.39-.17-2.3a28.88,28.88,0,0,0-3.44-10c-4.15-7.73-9.87-14.23-16.13-20.29a2.52,2.52,0,0,0-3.62.13c-1,.95-2,1.92-2.92,2.91a80.54,80.54,0,0,0-12.64,16.46c-3,5.46-4.76,11.17-3.64,17.5,1.08,6.16,4.08,11,9.65,14a24,24,0,0,0,15.42,2.46,20.08,20.08,0,0,0,12.82-6.75C1008.7,475.64,1009.9,470.92,1010,465.4Z"/><path class="cls-2" d="M1010,465.4c-.11,5.52-1.31,10.24-4.67,14.19a20.08,20.08,0,0,1-12.82,6.75,24,24,0,0,1-15.42-2.46c-5.57-3-8.57-7.86-9.65-14-1.12-6.33.61-12,3.64-17.5a80.54,80.54,0,0,1,12.64-16.46c.95-1,1.93-2,2.92-2.91a2.52,2.52,0,0,1,3.62-.13c6.26,6.06,12,12.56,16.13,20.29a28.88,28.88,0,0,1,3.44,10C1010,464,1010,464.93,1010,465.4Zm-36.23-.58a16.21,16.21,0,0,0,2.54,8.53,14.64,14.64,0,0,0,12.5,6.74,2.65,2.65,0,0,0,2.76-2.6,2.71,2.71,0,0,0-2.62-2.76l-.79,0a9.2,9.2,0,0,1-8-5.47,13,13,0,0,1-1-5.15,2.64,2.64,0,0,0-2-2.49,2.71,2.71,0,0,0-2.86,1.08A3.21,3.21,0,0,0,973.78,464.82Z"/><path class="cls-1" d="M973.78,464.82a3.21,3.21,0,0,1,.48-2.16,2.71,2.71,0,0,1,2.86-1.08,2.64,2.64,0,0,1,2,2.49,13,13,0,0,0,1,5.15,9.2,9.2,0,0,0,8,5.47l.79,0a2.71,2.71,0,0,1,2.62,2.76,2.65,2.65,0,0,1-2.76,2.6,14.64,14.64,0,0,1-12.5-6.74A16.21,16.21,0,0,1,973.78,464.82Z"/></g><g id="water-3" data-name="water"><path class="cls-1" d="M695.25,309.06c24.29-.32,45.46,20.3,44.91,46a45,45,0,1,1-44.91-46Zm23.2,51.44c0-.52-.06-1.51-.19-2.5a31.29,31.29,0,0,0-3.73-10.82c-4.51-8.4-10.73-15.45-17.52-22a2.74,2.74,0,0,0-3.94.13c-1.08,1-2.14,2.09-3.17,3.16a87.39,87.39,0,0,0-13.73,17.89c-3.3,5.92-5.18,12.13-4,19,1.18,6.7,4.44,12,10.5,15.23a26.09,26.09,0,0,0,16.75,2.68,21.82,21.82,0,0,0,13.92-7.34C717,371.62,718.33,366.49,718.45,360.5Z"/><path class="cls-2" d="M718.45,360.5c-.12,6-1.42,11.12-5.08,15.41a21.82,21.82,0,0,1-13.92,7.34,26.09,26.09,0,0,1-16.75-2.68c-6.06-3.28-9.32-8.53-10.5-15.23-1.21-6.88.67-13.09,4-19a87.39,87.39,0,0,1,13.73-17.89c1-1.07,2.09-2.13,3.17-3.16a2.74,2.74,0,0,1,3.94-.13c6.79,6.58,13,13.63,17.52,22A31.29,31.29,0,0,1,718.26,358C718.39,359,718.41,360,718.45,360.5Zm-39.36-.64a17.63,17.63,0,0,0,2.75,9.28,16,16,0,0,0,13.59,7.32,2.88,2.88,0,0,0,3-2.83,3,3,0,0,0-2.86-3l-.85,0a10,10,0,0,1-8.7-5.94,14.37,14.37,0,0,1-1.13-5.6,2.89,2.89,0,0,0-2.18-2.71,2.94,2.94,0,0,0-3.1,1.17A3.47,3.47,0,0,0,679.09,359.86Z"/><path class="cls-1" d="M679.09,359.86a3.47,3.47,0,0,1,.52-2.35,2.94,2.94,0,0,1,3.1-1.17,2.89,2.89,0,0,1,2.18,2.71,14.37,14.37,0,0,0,1.13,5.6,10,10,0,0,0,8.7,5.94l.85,0a3,3,0,0,1,2.86,3,2.88,2.88,0,0,1-3,2.83,16,16,0,0,1-13.59-7.32A17.63,17.63,0,0,1,679.09,359.86Z"/></g><g id="water-4" data-name="water"><path class="cls-1" d="M370.68,151.06c27.53-.36,51.52,23,50.9,52.11a51,51,0,0,1-102.07-1.69C319.75,173.68,342.54,150.77,370.68,151.06Zm26.3,58.3c-.05-.58-.07-1.71-.21-2.83a35.56,35.56,0,0,0-4.24-12.26c-5.11-9.52-12.15-17.52-19.86-25a3.11,3.11,0,0,0-4.46.15q-1.83,1.76-3.6,3.59a99.52,99.52,0,0,0-15.56,20.27c-3.74,6.72-5.86,13.75-4.49,21.55,1.34,7.59,5,13.54,11.89,17.26a29.57,29.57,0,0,0,19,3c6.22-.94,11.64-3.45,15.78-8.32S396.84,216.16,397,209.36Z"/><path class="cls-2" d="M397,209.36c-.14,6.8-1.61,12.6-5.76,17.47s-9.56,7.38-15.78,8.32a29.57,29.57,0,0,1-19-3c-6.87-3.72-10.55-9.67-11.89-17.26-1.37-7.8.75-14.83,4.49-21.55A99.52,99.52,0,0,1,364.61,173q1.77-1.83,3.6-3.59a3.11,3.11,0,0,1,4.46-.15c7.71,7.46,14.75,15.46,19.86,25a35.56,35.56,0,0,1,4.24,12.26C396.91,207.65,396.93,208.78,397,209.36Zm-44.61-.72a20,20,0,0,0,3.11,10.51c3.66,5.48,8.89,8.13,15.4,8.3a3.27,3.27,0,0,0,3.41-3.21,3.35,3.35,0,0,0-3.24-3.39l-1,0a11.36,11.36,0,0,1-9.86-6.73,16.12,16.12,0,0,1-1.28-6.35,3.27,3.27,0,0,0-2.47-3.07A3.33,3.33,0,0,0,353,206,3.89,3.89,0,0,0,352.37,208.64Z"/><path class="cls-1" d="M352.37,208.64A3.89,3.89,0,0,1,353,206a3.33,3.33,0,0,1,3.51-1.33,3.27,3.27,0,0,1,2.47,3.07,16.12,16.12,0,0,0,1.28,6.35,11.36,11.36,0,0,0,9.86,6.73l1,0a3.35,3.35,0,0,1,3.24,3.39,3.27,3.27,0,0,1-3.41,3.21c-6.51-.17-11.74-2.82-15.4-8.3A20,20,0,0,1,352.37,208.64Z"/></g><g id="light"><path class="cls-3" d="M336.41,813.64c26.75-.3,49.25,21.76,49.22,49.19a49.24,49.24,0,1,1-98.47-.48C287.35,835.25,310,813.24,336.41,813.64Zm-1,65.15h8.29c1.9,0,1.9,0,2.09-1.84,0-.19.07-.38.1-.57.6-3.65,2.54-6.65,4.67-9.53,3.73-5,6.77-10.28,7.23-16.74.35-4.86-.45-9.43-3.23-13.43-5.37-7.71-12.87-11.2-22.21-10-8.16,1.06-14.26,5.38-17.67,13-2.69,6-2.11,12.12.17,18.13,1.44,3.79,3.95,6.94,6.25,10.21,2.11,3,3.8,6.16,4,9.89.05.85.41.91,1.08.9C329.28,878.78,332.35,878.79,335.42,878.79Zm-.05,7.48h7.69c2.74,0,2.69,0,2.73-2.71,0-.91-.28-1.07-1.12-1.06-5.59,0-11.18,0-16.77,0-2.8,0-2.77,0-2.75,2.82,0,.8.29,1,1,.95C329.23,886.25,332.3,886.26,335.37,886.27Zm.15,3.72c-3.11,0-6.21,0-9.32,0-1.07,0-1.16.37-.86,1.23a3.64,3.64,0,0,0,3.29,2.53c4.51,0,9,0,13.51,0a3.61,3.61,0,0,0,3.45-2.78c.21-.77.08-1-.75-1C341.73,890,338.62,890,335.52,890Zm-.08,5.6c-.94,0-1.87,0-2.8,0s-1,.25-.84,1a3.75,3.75,0,0,0,7.28-.17c.17-.75-.09-.85-.73-.83C337.38,895.62,336.41,895.59,335.44,895.59Z"/><path d="M335.42,878.79c-3.07,0-6.14,0-9.21,0-.67,0-1,0-1.08-.9-.22-3.73-1.91-6.9-4-9.89-2.3-3.27-4.81-6.42-6.25-10.21-2.28-6-2.86-12.13-.17-18.13,3.41-7.59,9.51-11.91,17.67-13,9.34-1.22,16.84,2.27,22.21,10,2.78,4,3.58,8.57,3.23,13.43-.46,6.46-3.5,11.73-7.23,16.74-2.13,2.88-4.07,5.88-4.67,9.53,0,.19-.08.38-.1.57-.19,1.84-.19,1.84-2.09,1.84ZM318,845.53c0,1.4.64,2.26,1.59,2.38a2.09,2.09,0,0,0,2.12-1.78,13.89,13.89,0,0,1,8.41-10.29c1.35-.6,1.9-1.5,1.48-2.47a2.06,2.06,0,0,0-2.92-1,17.64,17.64,0,0,0-7.46,5.79A16.92,16.92,0,0,0,318,845.53Z"/><path d="M335.37,886.27c-3.07,0-6.14,0-9.21,0-.72,0-1-.15-1-.95,0-2.82,0-2.82,2.75-2.82,5.59,0,11.18,0,16.77,0,.84,0,1.14.15,1.12,1.06,0,2.7,0,2.71-2.73,2.71Z"/><path d="M335.52,890c3.1,0,6.21,0,9.32,0,.83,0,1,.21.75,1a3.61,3.61,0,0,1-3.45,2.78c-4.5,0-9,0-13.51,0a3.64,3.64,0,0,1-3.29-2.53c-.3-.86-.21-1.25.86-1.23C329.31,890,332.41,890,335.52,890Z"/><path d="M335.44,895.59c1,0,1.94,0,2.91,0,.64,0,.9.08.73.83a3.75,3.75,0,0,1-7.28.17c-.19-.75,0-1.06.84-1S334.5,895.59,335.44,895.59Z"/><path class="cls-3" d="M318,845.53a16.92,16.92,0,0,1,3.22-7.35,17.64,17.64,0,0,1,7.46-5.79,2.06,2.06,0,0,1,2.92,1c.42,1-.13,1.87-1.48,2.47a13.89,13.89,0,0,0-8.41,10.29,2.09,2.09,0,0,1-2.12,1.78C318.62,847.79,318,846.93,318,845.53Z"/></g><g id="light-2" data-name="light"><path class="cls-3" d="M1731,484.64c22.25-.25,41,18.1,41,40.93a41,41,0,1,1-81.93-.4C1690.16,502.62,1709,484.31,1731,484.64Zm-.82,54.21h6.89c1.58,0,1.58,0,1.74-1.53,0-.16.06-.32.09-.48.49-3,2.11-5.53,3.88-7.92,3.1-4.18,5.64-8.56,6-13.93a16.85,16.85,0,0,0-2.69-11.18c-4.47-6.42-10.71-9.32-18.48-8.31a17.78,17.78,0,0,0-14.7,10.8c-2.24,5-1.76,10.08.14,15.08,1.19,3.15,3.29,5.78,5.2,8.5a15.81,15.81,0,0,1,3.34,8.23c.05.71.35.75.9.75C1725.05,538.84,1727.6,538.85,1730.16,538.85Zm-.05,6.22h6.4c2.28,0,2.24,0,2.28-2.25,0-.76-.24-.89-.94-.89-4.65,0-9.3,0-13.95,0-2.33,0-2.3,0-2.29,2.34,0,.66.24.8.84.79C1725,545.05,1727.56,545.07,1730.11,545.07Zm.13,3.09c-2.59,0-5.17,0-7.75,0-.9,0-1,.31-.72,1a3,3,0,0,0,2.74,2.1c3.75,0,7.49,0,11.24,0a3,3,0,0,0,2.87-2.32c.17-.63.06-.82-.63-.81C1735.41,548.19,1732.82,548.16,1730.24,548.16Zm-.07,4.67c-.78,0-1.56,0-2.33,0s-.85.21-.7.83a3.12,3.12,0,0,0,6.06-.14c.14-.62-.08-.71-.61-.69C1731.79,552.85,1731,552.83,1730.17,552.83Z"/><path d="M1730.16,538.85c-2.56,0-5.11,0-7.67,0-.55,0-.85,0-.9-.75a15.81,15.81,0,0,0-3.34-8.23c-1.91-2.72-4-5.35-5.2-8.5-1.9-5-2.38-10.09-.14-15.08a17.78,17.78,0,0,1,14.7-10.8c7.77-1,14,1.89,18.48,8.31a16.85,16.85,0,0,1,2.69,11.18c-.38,5.37-2.92,9.75-6,13.93-1.77,2.39-3.39,4.89-3.88,7.92,0,.16-.07.32-.09.48-.16,1.53-.16,1.53-1.74,1.53Zm-14.52-27.67c0,1.15.54,1.88,1.33,2a1.75,1.75,0,0,0,1.76-1.49,11.57,11.57,0,0,1,7-8.56c1.12-.5,1.58-1.25,1.23-2.06a1.72,1.72,0,0,0-2.43-.81,14.73,14.73,0,0,0-6.21,4.82A14.07,14.07,0,0,0,1715.64,511.18Z"/><path d="M1730.11,545.07c-2.55,0-5.1,0-7.66,0-.6,0-.83-.13-.84-.79,0-2.34,0-2.34,2.29-2.34,4.65,0,9.3,0,13.95,0,.7,0,1,.13.94.89,0,2.25,0,2.25-2.28,2.25Z"/><path d="M1730.24,548.16c2.58,0,5.17,0,7.75,0,.69,0,.8.18.63.81a3,3,0,0,1-2.87,2.32c-3.75,0-7.49,0-11.24,0a3,3,0,0,1-2.74-2.1c-.25-.72-.18-1,.72-1C1725.07,548.2,1727.65,548.16,1730.24,548.16Z"/><path d="M1730.17,552.83c.81,0,1.62,0,2.42,0,.53,0,.75.07.61.69a3.12,3.12,0,0,1-6.06.14c-.15-.62,0-.88.7-.83S1729.39,552.83,1730.17,552.83Z"/><path class="cls-3" d="M1715.64,511.18a14.07,14.07,0,0,1,2.68-6.12,14.73,14.73,0,0,1,6.21-4.82,1.72,1.72,0,0,1,2.43.81c.35.81-.11,1.56-1.23,2.06a11.57,11.57,0,0,0-7,8.56,1.75,1.75,0,0,1-1.76,1.49C1716.18,513.06,1715.63,512.33,1715.64,511.18Z"/></g></g></svg>