<svg xmlns="http://www.w3.org/2000/svg" viewBox="0 0 1920 1080"><defs><style>.cls-1{fill:#fdee40;}.cls-2{fill:#020202;}.cls-3{fill:#76b62a;}.cls-4{fill:#fab924;}.cls-5{fill:#010101;}</style></defs><g id="icons"><g id="heat"><path class="cls-1" d="M1637.6,398.25A37.44,37.44,0,1,1,1600,435.34C1600.18,414.9,1617.16,398,1637.6,398.25ZM1624.19,457h0c0,.59,0,1.18,0,1.77.1,1.62.66,1.91,2,1,1-.64,1.84-1.39,2.8-2,1.2-.81,1.69-.65,2.17.71.39,1.11.65,2.27,1,3.39.52,1.47,1.18,1.58,2.17.35.7-.88,1.29-1.84,2-2.73,1-1.26,1.51-1.26,2.46,0,.71.94,1.32,2,2,2.9.86,1.09,1.54,1,2-.31.42-1.1.7-2.26,1.1-3.37.54-1.5,1-1.64,2.35-.71,1,.69,1.91,1.5,2.92,2.16s1.54.4,1.72-.83-.1-2.6,0-3.9.55-1.64,1.8-1.25c1.07.33,2.11.77,3.18,1.11.54.17,1.19.49,1.68,0s.22-1.12.05-1.68c-.31-1-.69-2-1-3-.44-1.51-.09-2,1.47-2,1.12,0,2.25.13,3.37.08,1.58-.07,1.89-.7,1-2-.64-1-1.39-1.85-2-2.8-.8-1.18-.63-1.7.72-2.18,1.14-.4,2.32-.67,3.46-1.07,1.35-.48,1.46-1.18.34-2.07-.93-.73-1.94-1.36-2.87-2.09-1.18-.91-1.17-1.45,0-2.34.61-.47,1.27-.87,1.9-1.31a13.46,13.46,0,0,0,1.33-1c.71-.67.61-1.21-.26-1.65a6,6,0,0,0-1.07-.41c-.87-.29-1.76-.52-2.62-.84-1.5-.55-1.64-1-.71-2.34.67-.94,1.44-1.81,2.09-2.76.82-1.2.51-1.82-.93-1.87-1.24-.05-2.49,0-3.73,0s-1.61-.51-1.25-1.71.81-2.28,1.16-3.44c.47-1.55,0-2-1.54-1.6-1.17.32-2.3.78-3.46,1.1s-1.61.09-1.68-1.17,0-2.36,0-3.54c0-.59.07-1.27-.53-1.59s-1.14.14-1.62.47c-.88.6-1.7,1.29-2.57,1.89-1.29.89-1.82.71-2.33-.79-.34-1-.59-2-.92-3-.18-.55-.29-1.24-1-1.33s-1,.5-1.38,1c-.64.85-1.22,1.75-1.87,2.59-.93,1.22-1.46,1.21-2.39,0-.66-.87-1.24-1.81-1.88-2.7-.32-.45-.67-1-1.3-.94s-.82.78-1,1.32c-.15.38-.25.78-.37,1.18-.26.78-.48,1.59-.8,2.35-.4.94-.87,1.08-1.74.52s-1.38-1-2.06-1.54a7.67,7.67,0,0,0-1.62-1.09c-.74-.31-1.11-.14-1.29.65a5.46,5.46,0,0,0-.13,1.14c0,1,.06,2.07,0,3.11-.06,1.36-.51,1.67-1.84,1.27-1.15-.36-2.28-.83-3.44-1.17-1.39-.41-1.84,0-1.51,1.45.13.51.32,1,.48,1.52.24.73.52,1.45.7,2.19.27,1.05,0,1.44-1.07,1.57a12,12,0,0,1-1.59,0,12.4,12.4,0,0,0-2.92,0c-.82.18-1,.57-.71,1.34a8.69,8.69,0,0,0,1.23,1.84,16.89,16.89,0,0,1,1.42,2,.94.94,0,0,1-.51,1.5c-.6.24-1.22.43-1.84.62a13.27,13.27,0,0,0-2.6.88c-.7.39-.79.81-.29,1.42a8,8,0,0,0,1.73,1.38,14.71,14.71,0,0,1,2,1.55.93.93,0,0,1,0,1.53,12.79,12.79,0,0,1-1.77,1.33c-.49.33-1,.64-1.47,1s-1,.67-.88,1.33.7.77,1.19.95c.78.27,1.58.48,2.37.74a13.35,13.35,0,0,1,1.48.58.9.9,0,0,1,.45,1.39,12.07,12.07,0,0,1-1.28,1.81,10.43,10.43,0,0,0-1.48,2.09c-.35.76-.13,1.19.68,1.35a6.29,6.29,0,0,0,1.06.07c1.13,0,2.26-.05,3.38,0s1.38.5,1.09,1.53-.75,2.18-1.09,3.28c-.19.6-.58,1.29,0,1.84s1.24.16,1.85,0c1.14-.32,2.21-.86,3.37-1.08.94-.18,1.36.11,1.42,1.06C1624.23,455.58,1624.19,456.29,1624.19,457Z"/><path class="cls-2" d="M1624.19,457c0-.71,0-1.42,0-2.13-.06-.95-.48-1.24-1.42-1.06-1.16.22-2.23.76-3.37,1.08-.61.16-1.31.56-1.85,0s-.14-1.24,0-1.84c.34-1.1.79-2.17,1.09-3.28s0-1.46-1.09-1.53-2.25,0-3.38,0a6.29,6.29,0,0,1-1.06-.07c-.81-.16-1-.59-.68-1.35a10.43,10.43,0,0,1,1.48-2.09,12.07,12.07,0,0,0,1.28-1.81.9.9,0,0,0-.45-1.39,13.35,13.35,0,0,0-1.48-.58c-.79-.26-1.59-.47-2.37-.74-.49-.18-1.08-.33-1.19-.95s.45-1,.88-1.33,1-.67,1.47-1a12.79,12.79,0,0,0,1.77-1.33.93.93,0,0,0,0-1.53,14.71,14.71,0,0,0-2-1.55,8,8,0,0,1-1.73-1.38c-.5-.61-.41-1,.29-1.42a13.27,13.27,0,0,1,2.6-.88c.62-.19,1.24-.38,1.84-.62a.94.94,0,0,0,.51-1.5,16.89,16.89,0,0,0-1.42-2,8.69,8.69,0,0,1-1.23-1.84c-.33-.77-.11-1.16.71-1.34a12.4,12.4,0,0,1,2.92,0,12,12,0,0,0,1.59,0c1.07-.13,1.34-.52,1.07-1.57-.18-.74-.46-1.46-.7-2.19-.16-.51-.35-1-.48-1.52-.33-1.41.12-1.86,1.51-1.45,1.16.34,2.29.81,3.44,1.17,1.33.4,1.78.09,1.84-1.27,0-1,0-2.08,0-3.11a5.46,5.46,0,0,1,.13-1.14c.18-.79.55-1,1.29-.65a7.67,7.67,0,0,1,1.62,1.09c.68.52,1.34,1.07,2.06,1.54s1.34.42,1.74-.52c.32-.76.54-1.57.8-2.35.12-.4.22-.8.37-1.18.22-.54.35-1.24,1-1.32s1,.49,1.3.94c.64.89,1.22,1.83,1.88,2.7.93,1.23,1.46,1.24,2.39,0,.65-.84,1.23-1.74,1.87-2.59.35-.47.69-1.06,1.38-1s.82.78,1,1.33c.33,1,.58,2,.92,3,.51,1.5,1,1.68,2.33.79.87-.6,1.69-1.29,2.57-1.89.48-.33,1-.8,1.62-.47s.53,1,.53,1.59c0,1.18-.1,2.37,0,3.54s.44,1.5,1.68,1.17,2.29-.78,3.46-1.1c1.55-.43,2,.05,1.54,1.6-.35,1.16-.82,2.28-1.16,3.44s0,1.66,1.25,1.71,2.49,0,3.73,0c1.44.05,1.75.67.93,1.87-.65.95-1.42,1.82-2.09,2.76-.93,1.31-.79,1.79.71,2.34.86.32,1.75.55,2.62.84a6,6,0,0,1,1.07.41c.87.44,1,1,.26,1.65a13.46,13.46,0,0,1-1.33,1c-.63.44-1.29.84-1.9,1.31-1.17.89-1.18,1.43,0,2.34.93.73,1.94,1.36,2.87,2.09,1.12.89,1,1.59-.34,2.07-1.14.4-2.32.67-3.46,1.07-1.35.48-1.52,1-.72,2.18.65.95,1.4,1.84,2,2.8.88,1.33.57,2-1,2-1.12,0-2.25-.08-3.37-.08-1.56,0-1.91.47-1.47,2,.3,1,.68,2,1,3,.17.56.44,1.2-.05,1.68s-1.14.17-1.68,0c-1.07-.34-2.11-.78-3.18-1.11-1.25-.39-1.69-.06-1.8,1.25s.16,2.6,0,3.9-.68,1.52-1.72.83-1.93-1.47-2.92-2.16c-1.32-.93-1.81-.79-2.35.71-.4,1.11-.68,2.27-1.1,3.37-.49,1.3-1.17,1.4-2,.31-.72-.93-1.33-2-2-2.9-1-1.26-1.49-1.26-2.46,0-.68.89-1.27,1.85-2,2.73-1,1.23-1.65,1.12-2.17-.35-.39-1.12-.65-2.28-1-3.39-.48-1.36-1-1.52-2.17-.71-1,.65-1.84,1.4-2.8,2-1.35.89-1.91.6-2-1,0-.59,0-1.18,0-1.77Zm33.48-22a19.9,19.9,0,1,0-19.6,19.9A19.93,19.93,0,0,0,1657.67,435Z"/><path class="cls-1" d="M1657.67,435a19.9,19.9,0,1,1-19.88-19.89A19.92,19.92,0,0,1,1657.67,435Zm-35.14,0a15.24,15.24,0,1,0,15.35-15.22A15.24,15.24,0,0,0,1622.53,435Z"/><path class="cls-2" d="M1622.53,435a15.24,15.24,0,1,1,15.22,15.27A15.22,15.22,0,0,1,1622.53,435Z"/></g><g id="light"><path class="cls-3" d="M464.44,942.64a32.54,32.54,0,1,1-32.58,32.22C432,956.93,447,942.38,464.44,942.64Zm-.65,43.1h5.48c1.25,0,1.25,0,1.38-1.22,0-.13.05-.25.07-.38a14.55,14.55,0,0,1,3.09-6.3c2.46-3.32,4.48-6.8,4.78-11.07a13.39,13.39,0,0,0-2.14-8.89c-3.55-5.1-8.51-7.41-14.69-6.6a14.11,14.11,0,0,0-11.69,8.58c-1.78,4-1.4,8,.11,12a31.44,31.44,0,0,0,4.14,6.76,12.63,12.63,0,0,1,2.66,6.54c0,.57.27.6.71.6C459.72,985.73,461.75,985.74,463.79,985.74Zm0,5h5.09c1.81,0,1.78,0,1.81-1.79,0-.6-.19-.71-.75-.71-3.7,0-7.39,0-11.09,0-1.85,0-1.83,0-1.82,1.86,0,.53.19.64.67.63C459.69,990.67,461.72,990.69,463.75,990.69Zm.1,2.46c-2.06,0-4.11,0-6.17,0-.7,0-.76.25-.57.82a2.4,2.4,0,0,0,2.18,1.67q4.47,0,8.94,0a2.38,2.38,0,0,0,2.28-1.84c.14-.5.05-.65-.5-.64C468,993.17,465.9,993.15,463.85,993.15Zm-.06,3.71c-.61,0-1.23,0-1.85,0s-.68.16-.55.66a2.48,2.48,0,0,0,4.81-.11c.12-.5-.06-.57-.48-.55C465.08,996.87,464.44,996.86,463.79,996.86Z"/><path d="M463.79,985.74c-2,0-4.07,0-6.1,0-.44,0-.68,0-.71-.6a12.63,12.63,0,0,0-2.66-6.54,31.44,31.44,0,0,1-4.14-6.76c-1.51-4-1.89-8-.11-12a14.11,14.11,0,0,1,11.69-8.58c6.18-.81,11.14,1.5,14.69,6.6a13.39,13.39,0,0,1,2.14,8.89c-.3,4.27-2.32,7.75-4.78,11.07a14.55,14.55,0,0,0-3.09,6.3c0,.13-.06.25-.07.38-.13,1.22-.13,1.22-1.38,1.22Zm-11.54-22c0,.92.42,1.49,1.05,1.57a1.38,1.38,0,0,0,1.4-1.18,9.18,9.18,0,0,1,5.57-6.81c.89-.39,1.25-1,1-1.63a1.37,1.37,0,0,0-1.94-.65,11.78,11.78,0,0,0-4.94,3.83A11.08,11.08,0,0,0,452.25,963.74Z"/><path d="M463.75,990.69c-2,0-4.06,0-6.09,0-.48,0-.66-.1-.67-.63,0-1.86,0-1.86,1.82-1.86,3.7,0,7.39,0,11.09,0,.56,0,.75.11.75.71,0,1.79,0,1.79-1.81,1.79Z"/><path d="M463.85,993.15c2,0,4.11,0,6.16,0,.55,0,.64.14.5.64a2.38,2.38,0,0,1-2.28,1.84q-4.47,0-8.94,0a2.4,2.4,0,0,1-2.18-1.67c-.19-.57-.13-.83.57-.82C459.74,993.17,461.79,993.15,463.85,993.15Z"/><path d="M463.79,996.86c.65,0,1.29,0,1.93,0,.42,0,.6,0,.48.55a2.48,2.48,0,0,1-4.81.11c-.13-.5,0-.7.55-.66S463.18,996.86,463.79,996.86Z"/><path class="cls-3" d="M452.25,963.74a11.08,11.08,0,0,1,2.12-4.87,11.78,11.78,0,0,1,4.94-3.83,1.37,1.37,0,0,1,1.94.65c.27.64-.09,1.24-1,1.63a9.18,9.18,0,0,0-5.57,6.81,1.38,1.38,0,0,1-1.4,1.18C452.67,965.23,452.23,964.66,452.25,963.74Z"/></g><g id="light-2" data-name="light"><path class="cls-3" d="M123.57,798.64a27.68,27.68,0,1,1-27.71,27.41C96,810.8,108.72,798.41,123.57,798.64ZM123,835.31h4.66c1.07,0,1.07,0,1.18-1,0-.11,0-.21.06-.32a12.32,12.32,0,0,1,2.63-5.36c2.1-2.82,3.81-5.79,4.07-9.42a11.44,11.44,0,0,0-1.82-7.56A12.41,12.41,0,0,0,121.29,806a12,12,0,0,0-9.94,7.3c-1.51,3.37-1.19,6.82.1,10.2a26.48,26.48,0,0,0,3.52,5.75,10.86,10.86,0,0,1,2.26,5.57c0,.48.23.51.6.5Zm0,4.21h4.33c1.54,0,1.51,0,1.54-1.52,0-.52-.16-.61-.63-.61-3.15,0-6.3,0-9.45,0-1.57,0-1.55,0-1.54,1.59,0,.45.16.54.57.53C119.54,839.5,121.26,839.52,123,839.52Zm.08,2.09c-1.74,0-3.49,0-5.24,0-.6,0-.65.21-.48.7a2,2,0,0,0,1.85,1.41c2.53,0,5.07,0,7.6,0a2,2,0,0,0,1.94-1.57c.12-.43,0-.56-.42-.55C126.57,841.63,124.82,841.61,123.07,841.61Zm0,3.15c-.53,0-1,0-1.58,0s-.57.14-.47.56a2.11,2.11,0,0,0,4.1-.09c.09-.43,0-.48-.41-.47C124.12,844.78,123.57,844.76,123,844.76Z"/><path d="M123,835.31h-5.19c-.37,0-.57,0-.6-.5a10.86,10.86,0,0,0-2.26-5.57,26.48,26.48,0,0,1-3.52-5.75c-1.29-3.38-1.61-6.83-.1-10.2a12,12,0,0,1,9.94-7.3,12.41,12.41,0,0,1,12.51,5.62,11.44,11.44,0,0,1,1.82,7.56c-.26,3.63-2,6.6-4.07,9.42a12.32,12.32,0,0,0-2.63,5.36c0,.11,0,.21-.06.32-.11,1-.11,1-1.18,1Zm-9.82-18.72c0,.78.36,1.27.9,1.34a1.18,1.18,0,0,0,1.19-1,7.81,7.81,0,0,1,4.74-5.79c.75-.33,1.07-.84.83-1.39a1.17,1.17,0,0,0-1.65-.55,10.12,10.12,0,0,0-4.2,3.26A9.58,9.58,0,0,0,113.2,816.59Z"/><path d="M123,839.52c-1.73,0-3.45,0-5.18,0-.41,0-.57-.08-.57-.53,0-1.59,0-1.59,1.54-1.59,3.15,0,6.3,0,9.45,0,.47,0,.63.09.63.61,0,1.51,0,1.52-1.54,1.52Z"/><path d="M123.07,841.61c1.75,0,3.5,0,5.25,0,.47,0,.54.12.42.55a2,2,0,0,1-1.94,1.57c-2.53,0-5.07,0-7.6,0a2,2,0,0,1-1.85-1.41c-.17-.49-.12-.71.48-.7C119.58,841.63,121.33,841.61,123.07,841.61Z"/><path d="M123,844.76c.54,0,1.09,0,1.64,0,.36,0,.5,0,.41.47a2.11,2.11,0,0,1-4.1.09c-.1-.42,0-.6.47-.56S122.5,844.76,123,844.76Z"/><path class="cls-3" d="M113.2,816.59a9.58,9.58,0,0,1,1.81-4.14,10.12,10.12,0,0,1,4.2-3.26,1.17,1.17,0,0,1,1.65.55c.24.55-.08,1.06-.83,1.39a7.81,7.81,0,0,0-4.74,5.79,1.18,1.18,0,0,1-1.19,1C113.56,817.86,113.19,817.37,113.2,816.59Z"/></g><g id="light-3" data-name="light"><path class="cls-3" d="M162.57,589.64A28.68,28.68,0,1,1,133.86,618C134,602.24,147.19,589.41,162.57,589.64Zm-.57,38h4.83c1.11,0,1.11,0,1.22-1.07l.06-.34a12.92,12.92,0,0,1,2.73-5.55c2.17-2.92,3.95-6,4.21-9.76a11.8,11.8,0,0,0-1.88-7.83,12.87,12.87,0,0,0-13-5.83,12.46,12.46,0,0,0-10.3,7.57c-1.57,3.49-1.23,7.06.1,10.57a27.33,27.33,0,0,0,3.65,6,11.2,11.2,0,0,1,2.34,5.78c0,.49.24.52.63.52Zm0,4.36h4.48c1.6,0,1.57,0,1.6-1.57,0-.53-.17-.63-.65-.63-3.27,0-6.53,0-9.79,0-1.63,0-1.61,0-1.6,1.64,0,.47.17.56.59.56C158.39,632,160.18,632,162,632Zm.09,2.17c-1.81,0-3.63,0-5.44,0-.62,0-.67.22-.5.72a2.12,2.12,0,0,0,1.92,1.47c2.63,0,5.25,0,7.88,0a2.1,2.1,0,0,0,2-1.62c.12-.44,0-.57-.44-.57C165.68,634.18,163.87,634.16,162.06,634.16Zm-.05,3.27c-.54,0-1.09,0-1.63,0s-.6.15-.49.59a2.17,2.17,0,0,0,2.23,1.61,2.13,2.13,0,0,0,2-1.71c.1-.44,0-.5-.42-.48C163.14,637.45,162.58,637.43,162,637.43Z"/><path d="M162,627.63h-5.37c-.39,0-.6,0-.63-.52a11.2,11.2,0,0,0-2.34-5.78,27.33,27.33,0,0,1-3.65-6c-1.33-3.51-1.67-7.08-.1-10.57a12.46,12.46,0,0,1,10.3-7.57,12.87,12.87,0,0,1,13,5.83,11.8,11.8,0,0,1,1.88,7.83c-.26,3.77-2,6.84-4.21,9.76a12.92,12.92,0,0,0-2.73,5.55l-.06.34c-.11,1.07-.11,1.07-1.22,1.07Zm-10.17-19.39c0,.81.37,1.32.93,1.38a1.2,1.2,0,0,0,1.23-1,8.11,8.11,0,0,1,4.91-6c.78-.34,1.11-.87.86-1.44a1.21,1.21,0,0,0-1.7-.57,10.26,10.26,0,0,0-4.35,3.38A9.87,9.87,0,0,0,151.83,608.24Z"/><path d="M162,632c-1.79,0-3.58,0-5.37,0-.42,0-.58-.09-.59-.56,0-1.64,0-1.64,1.6-1.64,3.26,0,6.52,0,9.79,0,.48,0,.66.1.65.63,0,1.57,0,1.57-1.6,1.57Z"/><path d="M162.06,634.16c1.81,0,3.62,0,5.43,0,.49,0,.56.13.44.57a2.1,2.1,0,0,1-2,1.62c-2.63,0-5.25,0-7.88,0a2.12,2.12,0,0,1-1.92-1.47c-.17-.5-.12-.73.5-.72C158.43,634.18,160.25,634.16,162.06,634.16Z"/><path d="M162,637.43c.57,0,1.13,0,1.7,0,.37,0,.52,0,.42.48a2.13,2.13,0,0,1-2,1.71,2.17,2.17,0,0,1-2.23-1.61c-.11-.44,0-.62.49-.59S161.47,637.43,162,637.43Z"/><path class="cls-3" d="M151.83,608.24a9.87,9.87,0,0,1,1.88-4.29,10.26,10.26,0,0,1,4.35-3.38,1.21,1.21,0,0,1,1.7.57c.25.57-.08,1.1-.86,1.44a8.11,8.11,0,0,0-4.91,6,1.2,1.2,0,0,1-1.23,1C152.2,609.56,151.82,609.05,151.83,608.24Z"/></g><g id="light-4" data-name="light"><path class="cls-3" d="M312.43,272.64A24.55,24.55,0,1,1,287.86,297,24.5,24.5,0,0,1,312.43,272.64Zm-.49,32.51h4.14c.95,0,.95,0,1-.92,0-.09,0-.19.05-.28a11.08,11.08,0,0,1,2.33-4.75c1.86-2.51,3.38-5.13,3.61-8.36a10,10,0,0,0-1.61-6.7,11,11,0,0,0-11.09-5,10.65,10.65,0,0,0-8.81,6.48,11.43,11.43,0,0,0,.08,9.05,23.74,23.74,0,0,0,3.12,5.09,9.61,9.61,0,0,1,2,4.94c0,.43.2.45.53.45Zm0,3.73h3.83c1.37,0,1.35,0,1.37-1.34,0-.46-.14-.54-.56-.54-2.79,0-5.58,0-8.37,0-1.4,0-1.38,0-1.37,1.41,0,.39.14.47.5.47C308.85,308.87,310.38,308.88,311.92,308.88Zm.07,1.86c-1.55,0-3.1,0-4.65,0-.53,0-.58.19-.43.62a1.83,1.83,0,0,0,1.64,1.26h6.75a1.82,1.82,0,0,0,1.72-1.39c.1-.38,0-.49-.38-.49C315.09,310.76,313.54,310.74,312,310.74Zm0,2.8c-.47,0-.93,0-1.4,0s-.51.13-.42.5a1.88,1.88,0,0,0,3.64-.08c.08-.38,0-.43-.37-.42C312.92,313.55,312.43,313.54,312,313.54Z"/><path d="M311.94,305.15h-4.6c-.33,0-.51,0-.53-.45a9.61,9.61,0,0,0-2-4.94,23.74,23.74,0,0,1-3.12-5.09,11.43,11.43,0,0,1-.08-9.05,10.65,10.65,0,0,1,8.81-6.48,11,11,0,0,1,11.09,5,10,10,0,0,1,1.61,6.7c-.23,3.23-1.75,5.85-3.61,8.36a11.08,11.08,0,0,0-2.33,4.75c0,.09,0,.19-.05.28-.09.92-.09.92-1,.92Zm-8.7-16.59c0,.69.32,1.12.79,1.18a1,1,0,0,0,1.06-.89,6.91,6.91,0,0,1,4.2-5.13c.67-.3.95-.75.74-1.24a1,1,0,0,0-1.46-.48,8.77,8.77,0,0,0-3.73,2.89A8.38,8.38,0,0,0,303.24,288.56Z"/><path d="M311.92,308.88c-1.54,0-3.07,0-4.6,0-.36,0-.5-.08-.5-.47,0-1.41,0-1.41,1.37-1.41,2.79,0,5.58,0,8.37,0,.42,0,.56.08.56.54,0,1.34,0,1.34-1.37,1.34Z"/><path d="M312,310.74c1.55,0,3.1,0,4.65,0,.42,0,.48.11.38.49a1.82,1.82,0,0,1-1.72,1.39h-6.75a1.83,1.83,0,0,1-1.64-1.26c-.15-.43-.1-.63.43-.62C308.89,310.76,310.44,310.74,312,310.74Z"/><path d="M312,313.54c.48,0,1,0,1.45,0,.32,0,.45,0,.37.42a1.88,1.88,0,0,1-3.64.08c-.09-.37,0-.53.42-.5S311.48,313.54,312,313.54Z"/><path class="cls-3" d="M303.24,288.56a8.38,8.38,0,0,1,1.6-3.67,8.77,8.77,0,0,1,3.73-2.89,1,1,0,0,1,1.46.48c.21.49-.07.94-.74,1.24a6.91,6.91,0,0,0-4.2,5.13,1,1,0,0,1-1.06.89C303.56,289.68,303.23,289.25,303.24,288.56Z"/></g><g id="light-5" data-name="light"><path class="cls-3" d="M161.87,473.64a23.68,23.68,0,1,1-23.71,23.45A23.64,23.64,0,0,1,161.87,473.64ZM161.4,505h4c.92,0,.92,0,1-.89a2.56,2.56,0,0,1,0-.27,10.57,10.57,0,0,1,2.25-4.59c1.79-2.41,3.26-4.95,3.48-8.06a9.79,9.79,0,0,0-1.56-6.47,10.65,10.65,0,0,0-10.7-4.81,10.31,10.31,0,0,0-8.5,6.25,11,11,0,0,0,.08,8.73,22.78,22.78,0,0,0,3,4.92,9.18,9.18,0,0,1,1.94,4.76c0,.41.19.44.51.43Zm0,3.6h3.71c1.32,0,1.29,0,1.31-1.3,0-.44-.13-.52-.54-.52-2.69,0-5.38,0-8.07,0-1.35,0-1.33,0-1.32,1.36,0,.38.13.46.48.45Zm.08,1.79c-1.5,0-3,0-4.49,0-.51,0-.56.18-.41.6a1.74,1.74,0,0,0,1.58,1.21h6.51a1.74,1.74,0,0,0,1.66-1.34c.1-.37,0-.47-.37-.47C164.44,510.41,162.94,510.4,161.45,510.4Zm0,2.7c-.45,0-.9,0-1.35,0s-.49.12-.4.49a1.8,1.8,0,0,0,3.5-.08c.08-.37,0-.42-.35-.41C162.34,513.11,161.88,513.1,161.41,513.1Z"/><path d="M161.4,505H157c-.32,0-.49,0-.51-.43a9.18,9.18,0,0,0-1.94-4.76,22.78,22.78,0,0,1-3-4.92,11,11,0,0,1-.08-8.73,10.31,10.31,0,0,1,8.5-6.25,10.65,10.65,0,0,1,10.7,4.81,9.79,9.79,0,0,1,1.56,6.47c-.22,3.11-1.69,5.65-3.48,8.06a10.57,10.57,0,0,0-2.25,4.59,2.56,2.56,0,0,0,0,.27c-.09.89-.09.89-1,.89ZM153,489c0,.67.31,1.08.77,1.14a1,1,0,0,0,1-.86,6.66,6.66,0,0,1,4.05-4.95c.65-.29.91-.73.71-1.19a1,1,0,0,0-1.41-.47,8.53,8.53,0,0,0-3.59,2.78A8.3,8.3,0,0,0,153,489Z"/><path d="M161.37,508.61h-4.43c-.35,0-.48-.07-.48-.45,0-1.36,0-1.36,1.32-1.36,2.69,0,5.38,0,8.07,0,.41,0,.55.08.54.52,0,1.3,0,1.3-1.31,1.3Z"/><path d="M161.45,510.4c1.49,0,3,0,4.48,0,.4,0,.47.1.37.47a1.74,1.74,0,0,1-1.66,1.34h-6.51a1.74,1.74,0,0,1-1.58-1.21c-.15-.42-.1-.61.41-.6C158.46,510.42,160,510.4,161.45,510.4Z"/><path d="M161.41,513.1c.47,0,.93,0,1.4,0,.31,0,.43,0,.35.41a1.8,1.8,0,0,1-3.5.08c-.09-.37,0-.52.4-.49S161,513.1,161.41,513.1Z"/><path class="cls-3" d="M153,489a8.3,8.3,0,0,1,1.55-3.55,8.53,8.53,0,0,1,3.59-2.78,1,1,0,0,1,1.41.47c.2.46-.06.9-.71,1.19a6.66,6.66,0,0,0-4.05,4.95,1,1,0,0,1-1,.86C153.31,490.08,153,489.67,153,489Z"/></g><g id="light-6" data-name="light"><path class="cls-3" d="M851.94,817.64a35,35,0,1,1-35.08,34.7C817,833,833.14,817.36,851.94,817.64Zm-.7,46.41h5.9c1.35,0,1.35,0,1.49-1.31,0-.14,0-.28.07-.41a15.7,15.7,0,0,1,3.33-6.78c2.65-3.58,4.82-7.33,5.15-11.93a14.46,14.46,0,0,0-2.3-9.57c-3.83-5.49-9.17-8-15.83-7.11a15.22,15.22,0,0,0-12.58,9.24c-1.92,4.27-1.5,8.63.12,12.92,1,2.69,2.81,4.94,4.45,7.27a13.59,13.59,0,0,1,2.87,7c0,.6.29.64.76.64C846.86,864,849.05,864.05,851.24,864.05Zm0,5.32h5.47c2,0,1.92,0,2-1.92,0-.65-.2-.77-.8-.76-4,0-8,0-12,0-2,0-2,0-2,2,0,.56.21.68.72.67C846.83,869.36,849,869.37,851.2,869.37Zm.1,2.66c-2.21,0-4.42,0-6.63,0-.77,0-.83.27-.62.88a2.61,2.61,0,0,0,2.35,1.8q4.82,0,9.62,0a2.58,2.58,0,0,0,2.46-2c.15-.55,0-.71-.54-.7C855.73,872,853.52,872,851.3,872Zm0,4c-.67,0-1.34,0-2,0s-.73.18-.6.71a2.65,2.65,0,0,0,2.73,2,2.61,2.61,0,0,0,2.46-2.09c.12-.53-.07-.61-.52-.59C852.63,876,851.94,876,851.25,876Z"/><path d="M851.24,864.05c-2.19,0-4.38,0-6.57,0-.47,0-.73,0-.76-.64a13.59,13.59,0,0,0-2.87-7c-1.64-2.33-3.43-4.58-4.45-7.27-1.62-4.29-2-8.65-.12-12.92a15.22,15.22,0,0,1,12.58-9.24c6.66-.87,12,1.62,15.83,7.11a14.46,14.46,0,0,1,2.3,9.57c-.33,4.6-2.5,8.35-5.15,11.93a15.7,15.7,0,0,0-3.33,6.78c0,.13-.06.27-.07.41-.14,1.31-.14,1.31-1.49,1.31Zm-12.43-23.69c0,1,.46,1.61,1.14,1.69a1.48,1.48,0,0,0,1.5-1.27,9.87,9.87,0,0,1,6-7.33c.95-.42,1.35-1.07,1-1.76a1.47,1.47,0,0,0-2.08-.69,12.62,12.62,0,0,0-5.32,4.12A12.09,12.09,0,0,0,838.81,840.36Z"/><path d="M851.2,869.37c-2.19,0-4.37,0-6.56,0-.51,0-.72-.11-.72-.67,0-2,0-2,2-2,4,0,8,0,12,0,.6,0,.81.11.8.76,0,1.92,0,1.92-2,1.92Z"/><path d="M851.3,872c2.22,0,4.43,0,6.64,0,.59,0,.69.15.54.7a2.58,2.58,0,0,1-2.46,2q-4.8,0-9.62,0a2.61,2.61,0,0,1-2.35-1.8c-.21-.61-.15-.89.62-.88C846.88,872.05,849.09,872,851.3,872Z"/><path d="M851.25,876c.69,0,1.38,0,2.07,0,.45,0,.64.06.52.59a2.61,2.61,0,0,1-2.46,2.09,2.65,2.65,0,0,1-2.73-2c-.13-.53,0-.75.6-.71S850.58,876,851.25,876Z"/><path class="cls-3" d="M838.81,840.36a12.09,12.09,0,0,1,2.29-5.24,12.62,12.62,0,0,1,5.32-4.12,1.47,1.47,0,0,1,2.08.69c.3.69-.1,1.34-1,1.76a9.87,9.87,0,0,0-6,7.33,1.48,1.48,0,0,1-1.5,1.27C839.27,842,838.8,841.35,838.81,840.36Z"/></g><g id="light-7" data-name="light"><path class="cls-3" d="M87.43,295.64a28.54,28.54,0,1,1-28.57,28.27C59,308.18,72.12,295.41,87.43,295.64Zm-.56,37.81h4.8c1.11,0,1.1,0,1.22-1.07,0-.11,0-.22.06-.33a12.75,12.75,0,0,1,2.71-5.53c2.16-2.91,3.93-6,4.19-9.72A11.75,11.75,0,0,0,98,309a12.82,12.82,0,0,0-12.9-5.8,12.41,12.41,0,0,0-10.25,7.53c-1.56,3.48-1.22,7,.1,10.53a27.93,27.93,0,0,0,3.63,5.92,11.14,11.14,0,0,1,2.33,5.74c0,.5.24.53.63.52Zm0,4.33h4.46c1.59,0,1.57,0,1.59-1.56,0-.53-.16-.63-.65-.62-3.24,0-6.49,0-9.73,0-1.63,0-1.61,0-1.6,1.63,0,.46.17.56.59.55C83.27,337.77,85.05,337.78,86.83,337.78Zm.09,2.16c-1.8,0-3.61,0-5.41,0-.62,0-.67.22-.5.72a2.13,2.13,0,0,0,1.91,1.47h7.84a2.09,2.09,0,0,0,2-1.62c.13-.44,0-.57-.43-.57C90.53,340,88.72,339.94,86.92,339.94Zm0,3.26c-.54,0-1.08,0-1.62,0s-.6.15-.49.58a2.18,2.18,0,0,0,4.23-.1c.09-.43-.06-.49-.43-.48C88,343.21,87.44,343.2,86.87,343.2Z"/><path d="M86.87,333.45H81.52c-.39,0-.6,0-.63-.52a11.14,11.14,0,0,0-2.33-5.74,27.93,27.93,0,0,1-3.63-5.92c-1.32-3.49-1.66-7-.1-10.53a12.41,12.41,0,0,1,10.25-7.53A12.82,12.82,0,0,1,98,309a11.75,11.75,0,0,1,1.87,7.79c-.26,3.75-2,6.81-4.19,9.72A12.75,12.75,0,0,0,93,332.05c0,.11,0,.22-.06.33-.12,1.07-.11,1.07-1.22,1.07Zm-10.13-19.3c0,.8.37,1.31.93,1.38a1.21,1.21,0,0,0,1.22-1,8.06,8.06,0,0,1,4.89-6c.78-.35,1.1-.87.86-1.43a1.2,1.2,0,0,0-1.7-.57,10.3,10.3,0,0,0-4.33,3.36A9.89,9.89,0,0,0,76.74,314.15Z"/><path d="M86.83,337.78c-1.78,0-3.56,0-5.34,0-.42,0-.58-.09-.59-.55,0-1.63,0-1.63,1.6-1.63,3.24,0,6.49,0,9.73,0,.49,0,.66.09.65.62,0,1.56,0,1.56-1.59,1.56Z"/><path d="M86.92,339.94c1.8,0,3.61,0,5.41,0,.48,0,.56.13.43.57a2.09,2.09,0,0,1-2,1.62H82.92A2.13,2.13,0,0,1,81,340.65c-.17-.5-.12-.73.5-.72C83.31,340,85.12,339.94,86.92,339.94Z"/><path d="M86.87,343.2c.57,0,1.13,0,1.69,0,.37,0,.52.05.43.48a2.18,2.18,0,0,1-4.23.1c-.11-.43,0-.61.49-.58S86.33,343.2,86.87,343.2Z"/><path class="cls-3" d="M76.74,314.15a9.89,9.89,0,0,1,1.87-4.27,10.3,10.3,0,0,1,4.33-3.36,1.2,1.2,0,0,1,1.7.57c.24.56-.08,1.08-.86,1.43a8.06,8.06,0,0,0-4.89,6,1.21,1.21,0,0,1-1.22,1C77.11,315.46,76.73,315,76.74,314.15Z"/></g><g id="light-8" data-name="light"><path class="cls-3" d="M1200.43,968.64a26.54,26.54,0,1,1-26.57,26.29C1174,980.3,1186.19,968.42,1200.43,968.64Zm-.53,35.16h4.48c1,0,1,0,1.12-1l.06-.31a11.92,11.92,0,0,1,2.52-5.14c2-2.71,3.65-5.55,3.9-9a10.87,10.87,0,0,0-1.74-7.24,11.92,11.92,0,0,0-12-5.4,11.52,11.52,0,0,0-9.53,7c-1.46,3.23-1.14,6.54.09,9.78a25.28,25.28,0,0,0,3.37,5.51,10.35,10.35,0,0,1,2.17,5.34c0,.46.22.49.58.49C1196.59,1003.79,1198.25,1003.8,1199.9,1003.8Zm0,4H1204c1.48,0,1.46,0,1.48-1.45,0-.49-.15-.58-.6-.58-3,0-6,0-9.06,0-1.51,0-1.49,0-1.48,1.52,0,.43.16.52.55.51C1196.56,1007.82,1198.22,1007.83,1199.87,1007.83Zm.09,2c-1.68,0-3.36,0-5,0-.58,0-.63.2-.47.67a2,2,0,0,0,1.78,1.36q3.65,0,7.29,0a1.94,1.94,0,0,0,1.86-1.5c.11-.41,0-.53-.41-.53C1203.31,1009.86,1201.63,1009.84,1200,1009.84Zm0,3c-.5,0-1,0-1.51,0s-.55.14-.45.54a2,2,0,0,0,3.93-.09c.09-.4-.05-.46-.4-.45C1201,1012.88,1200.43,1012.87,1199.91,1012.87Z"/><path d="M1199.9,1003.8c-1.65,0-3.31,0-5,0-.36,0-.55,0-.58-.49a10.35,10.35,0,0,0-2.17-5.34,25.28,25.28,0,0,1-3.37-5.51c-1.23-3.24-1.55-6.55-.09-9.78a11.52,11.52,0,0,1,9.53-7,11.92,11.92,0,0,1,12,5.4,10.87,10.87,0,0,1,1.74,7.24c-.25,3.49-1.89,6.33-3.9,9a11.92,11.92,0,0,0-2.52,5.14l-.06.31c-.1,1-.1,1-1.12,1Zm-9.41-17.95c0,.75.35,1.22.86,1.28a1.12,1.12,0,0,0,1.14-1,7.47,7.47,0,0,1,4.54-5.55c.73-.32,1-.81.8-1.33a1.11,1.11,0,0,0-1.58-.53,9.49,9.49,0,0,0-4,3.12A9.11,9.11,0,0,0,1190.49,985.85Z"/><path d="M1199.87,1007.83c-1.65,0-3.31,0-5,0-.39,0-.55-.08-.55-.51,0-1.52,0-1.52,1.48-1.52,3,0,6,0,9.06,0,.45,0,.61.09.6.58,0,1.45,0,1.45-1.48,1.45Z"/><path d="M1200,1009.84c1.67,0,3.35,0,5,0,.45,0,.52.12.41.53a1.94,1.94,0,0,1-1.86,1.5q-3.65,0-7.29,0a2,2,0,0,1-1.78-1.36c-.16-.47-.11-.68.47-.67C1196.6,1009.86,1198.28,1009.84,1200,1009.84Z"/><path d="M1199.91,1012.87c.52,0,1,0,1.57,0,.35,0,.49,0,.4.45a2,2,0,0,1-3.93.09c-.1-.4,0-.57.45-.54S1199.41,1012.87,1199.91,1012.87Z"/><path class="cls-3" d="M1190.49,985.85a9.11,9.11,0,0,1,1.74-4,9.49,9.49,0,0,1,4-3.12,1.11,1.11,0,0,1,1.58.53c.23.52-.07,1-.8,1.33a7.47,7.47,0,0,0-4.54,5.55,1.12,1.12,0,0,1-1.14,1C1190.84,987.07,1190.48,986.6,1190.49,985.85Z"/></g><g id="light-9" data-name="light"><path class="cls-3" d="M1545.13,476.64a20.25,20.25,0,1,1-20.27,20.05A20.21,20.21,0,0,1,1545.13,476.64Zm-.4,26.82h3.41c.78,0,.78,0,.86-.75,0-.08,0-.16,0-.24a9.2,9.2,0,0,1,1.93-3.92,13.09,13.09,0,0,0,3-6.9,8.22,8.22,0,0,0-1.33-5.52,9.08,9.08,0,0,0-9.14-4.12,8.81,8.81,0,0,0-7.28,5.35,9.48,9.48,0,0,0,.07,7.46,19.28,19.28,0,0,0,2.58,4.2,7.88,7.88,0,0,1,1.65,4.08c0,.35.17.37.44.37Zm0,3.08h3.16c1.13,0,1.11,0,1.13-1.11,0-.38-.12-.44-.46-.44h-6.91c-1.15,0-1.14,0-1.13,1.16,0,.32.12.39.42.39C1542.18,506.53,1543.44,506.54,1544.71,506.54Zm.06,1.53c-1.28,0-2.56,0-3.84,0-.44,0-.48.15-.35.51a1.49,1.49,0,0,0,1.35,1c1.86,0,3.71,0,5.57,0a1.51,1.51,0,0,0,1.42-1.15c.08-.31,0-.41-.31-.4C1547.33,508.09,1546.05,508.07,1544.77,508.07Zm0,2.31c-.38,0-.77,0-1.15,0s-.42.1-.34.41a1.54,1.54,0,0,0,3-.07c.07-.31,0-.35-.3-.34Z"/><path d="M1544.73,503.46h-3.8c-.27,0-.42,0-.44-.37a7.88,7.88,0,0,0-1.65-4.08,19.28,19.28,0,0,1-2.58-4.2,9.48,9.48,0,0,1-.07-7.46,8.81,8.81,0,0,1,7.28-5.35,9.08,9.08,0,0,1,9.14,4.12,8.22,8.22,0,0,1,1.33,5.52,13.09,13.09,0,0,1-3,6.9,9.2,9.2,0,0,0-1.93,3.92c0,.08,0,.16,0,.24-.08.75-.08.75-.86.75Zm-7.18-13.69c0,.57.26.93.65,1a.85.85,0,0,0,.87-.73,5.72,5.72,0,0,1,3.47-4.24c.55-.25.78-.62.61-1a.85.85,0,0,0-1.21-.4,7.26,7.26,0,0,0-3.07,2.38A6.85,6.85,0,0,0,1537.55,489.77Z"/><path d="M1544.71,506.54c-1.27,0-2.53,0-3.79,0-.3,0-.42-.07-.42-.39,0-1.16,0-1.16,1.13-1.16h6.91c.34,0,.46.06.46.44,0,1.11,0,1.11-1.13,1.11Z"/><path d="M1544.77,508.07c1.28,0,2.56,0,3.84,0,.34,0,.39.09.31.4a1.51,1.51,0,0,1-1.42,1.15c-1.86,0-3.71,0-5.57,0a1.49,1.49,0,0,1-1.35-1c-.13-.36-.09-.52.35-.51C1542.21,508.09,1543.49,508.07,1544.77,508.07Z"/><path d="M1544.73,510.38h1.2c.27,0,.37,0,.3.34a1.54,1.54,0,0,1-3,.07c-.08-.31,0-.44.34-.41S1544.35,510.38,1544.73,510.38Z"/><path class="cls-3" d="M1537.55,489.77a6.85,6.85,0,0,1,1.32-3,7.26,7.26,0,0,1,3.07-2.38.85.85,0,0,1,1.21.4c.17.4-.06.77-.61,1a5.72,5.72,0,0,0-3.47,4.24.85.85,0,0,1-.87.73C1537.81,490.7,1537.54,490.34,1537.55,489.77Z"/></g><g id="light-10" data-name="light"><path class="cls-3" d="M455.07,272.64a28.18,28.18,0,1,1-28.21,27.91C427,285,440,272.41,455.07,272.64ZM454.51,310h4.75c1.09,0,1.09,0,1.2-1.06,0-.11,0-.21.06-.32a12.7,12.7,0,0,1,2.67-5.46c2.14-2.87,3.88-5.89,4.15-9.59a11.61,11.61,0,0,0-1.86-7.7,12.63,12.63,0,0,0-12.73-5.72,12.25,12.25,0,0,0-10.12,7.43c-1.54,3.44-1.21,6.95.1,10.39a27,27,0,0,0,3.58,5.85,10.9,10.9,0,0,1,2.3,5.67c0,.49.24.52.62.52C451,310,452.75,310,454.51,310Zm0,4.28h4.4c1.57,0,1.55,0,1.57-1.54,0-.53-.16-.62-.64-.62-3.2,0-6.41,0-9.61,0-1.6,0-1.58,0-1.57,1.62,0,.45.16.55.58.54C451,314.24,452.72,314.25,454.48,314.25Zm.09,2.14c-1.78,0-3.56,0-5.34,0-.62,0-.67.22-.5.71a2.11,2.11,0,0,0,1.89,1.45c2.58,0,5.16,0,7.74,0a2.08,2.08,0,0,0,2-1.59c.12-.44,0-.57-.43-.56C458.13,316.4,456.35,316.39,454.57,316.39Zm-.05,3.21c-.54,0-1.07,0-1.6,0s-.59.14-.49.58a2.15,2.15,0,0,0,4.18-.1c.09-.43-.06-.49-.42-.48C455.63,319.61,455.08,319.6,454.52,319.6Z"/><path d="M454.51,310c-1.76,0-3.52,0-5.28,0-.38,0-.59,0-.62-.52a10.9,10.9,0,0,0-2.3-5.67,27,27,0,0,1-3.58-5.85c-1.31-3.44-1.64-6.95-.1-10.39a12.25,12.25,0,0,1,10.12-7.43,12.63,12.63,0,0,1,12.73,5.72,11.61,11.61,0,0,1,1.86,7.7c-.27,3.7-2,6.72-4.15,9.59a12.7,12.7,0,0,0-2.67,5.46c0,.11,0,.21-.06.32-.11,1.06-.11,1.06-1.2,1.06Zm-10-19.06c0,.8.36,1.3.91,1.37a1.21,1.21,0,0,0,1.21-1,8,8,0,0,1,4.82-5.9c.77-.34,1.09-.86.85-1.42a1.19,1.19,0,0,0-1.68-.56,10.17,10.17,0,0,0-4.27,3.32A9.62,9.62,0,0,0,444.52,290.91Z"/><path d="M454.48,314.25c-1.76,0-3.52,0-5.27,0-.42,0-.58-.09-.58-.54,0-1.62,0-1.62,1.57-1.62,3.2,0,6.41,0,9.61,0,.48,0,.65.09.64.62,0,1.54,0,1.54-1.57,1.54Z"/><path d="M454.57,316.39c1.78,0,3.56,0,5.34,0,.47,0,.55.12.43.56a2.08,2.08,0,0,1-2,1.59c-2.58,0-5.16,0-7.74,0a2.11,2.11,0,0,1-1.89-1.45c-.17-.49-.12-.72.5-.71C451,316.41,452.79,316.39,454.57,316.39Z"/><path d="M454.52,319.6c.56,0,1.11,0,1.67,0,.36,0,.51.05.42.48a2.15,2.15,0,0,1-4.18.1c-.1-.44,0-.61.49-.58S454,319.6,454.52,319.6Z"/><path class="cls-3" d="M444.52,290.91a9.62,9.62,0,0,1,1.84-4.21,10.17,10.17,0,0,1,4.27-3.32,1.19,1.19,0,0,1,1.68.56c.24.56-.08,1.08-.85,1.42a8,8,0,0,0-4.82,5.9,1.21,1.21,0,0,1-1.21,1C444.88,292.21,444.5,291.71,444.52,290.91Z"/></g><g id="light-11" data-name="light"><path class="cls-3" d="M1045.4,842.64a33.11,33.11,0,1,1-33.15,32.79C1012.38,857.18,1027.64,842.37,1045.4,842.64Zm-.66,43.86h5.58c1.28,0,1.28,0,1.41-1.24,0-.13,0-.26.06-.39a15,15,0,0,1,3.15-6.41c2.51-3.37,4.56-6.92,4.87-11.27a13.65,13.65,0,0,0-2.18-9c-3.62-5.19-8.66-7.54-15-6.72a14.38,14.38,0,0,0-11.9,8.73c-1.81,4-1.42,8.16.12,12.21a31.68,31.68,0,0,0,4.21,6.87,12.87,12.87,0,0,1,2.7,6.66c0,.57.28.61.72.61C1040.6,886.49,1042.67,886.5,1044.74,886.5Zm0,5h5.18c1.84,0,1.81,0,1.84-1.82,0-.61-.19-.72-.75-.72-3.77,0-7.53,0-11.3,0-1.88,0-1.86,0-1.84,1.89,0,.54.19.65.68.64C1040.57,891.52,1042.64,891.53,1044.7,891.53Zm.1,2.51c-2.09,0-4.18,0-6.27,0-.72,0-.78.25-.58.84a2.45,2.45,0,0,0,2.22,1.69q4.55,0,9.09,0a2.43,2.43,0,0,0,2.32-1.88c.15-.51.06-.66-.5-.66C1049,894.05,1046.9,894,1044.8,894Zm0,3.77c-.63,0-1.26,0-1.89,0s-.69.17-.56.68a2.49,2.49,0,0,0,2.58,1.85,2.46,2.46,0,0,0,2.32-2c.11-.5-.06-.57-.49-.56C1046.06,897.83,1045.4,897.81,1044.75,897.81Z"/><path d="M1044.74,886.5c-2.07,0-4.14,0-6.21,0-.44,0-.68,0-.72-.61a12.87,12.87,0,0,0-2.7-6.66,31.68,31.68,0,0,1-4.21-6.87c-1.54-4-1.93-8.17-.12-12.21a14.38,14.38,0,0,1,11.9-8.73c6.29-.82,11.33,1.53,15,6.72a13.65,13.65,0,0,1,2.18,9c-.31,4.35-2.36,7.9-4.87,11.27a15,15,0,0,0-3.15,6.41c0,.13,0,.26-.06.39-.13,1.24-.13,1.24-1.41,1.24ZM1033,864.11c0,.94.43,1.52,1.07,1.6a1.4,1.4,0,0,0,1.42-1.2,9.35,9.35,0,0,1,5.67-6.93c.9-.4,1.28-1,1-1.66a1.41,1.41,0,0,0-2-.66,12,12,0,0,0-5,3.9A11.34,11.34,0,0,0,1033,864.11Z"/><path d="M1044.7,891.53c-2.06,0-4.13,0-6.19,0-.49,0-.68-.1-.68-.64,0-1.89,0-1.89,1.84-1.89,3.77,0,7.53,0,11.3,0,.56,0,.76.11.75.72,0,1.82,0,1.82-1.84,1.82Z"/><path d="M1044.8,894c2.1,0,4.19,0,6.28,0,.56,0,.65.15.5.66a2.43,2.43,0,0,1-2.32,1.88q-4.54,0-9.09,0a2.45,2.45,0,0,1-2.22-1.69c-.2-.59-.14-.85.58-.84C1040.62,894.06,1042.71,894,1044.8,894Z"/><path d="M1044.75,897.81c.65,0,1.31,0,2,0,.43,0,.6.06.49.56a2.46,2.46,0,0,1-2.32,2,2.49,2.49,0,0,1-2.58-1.85c-.13-.51,0-.72.56-.68S1044.12,897.81,1044.75,897.81Z"/><path class="cls-3" d="M1033,864.11a11.34,11.34,0,0,1,2.16-5,12,12,0,0,1,5-3.9,1.41,1.41,0,0,1,2,.66c.28.65-.1,1.26-1,1.66a9.35,9.35,0,0,0-5.67,6.93,1.4,1.4,0,0,1-1.42,1.2C1033.43,865.63,1033,865.05,1033,864.11Z"/></g><g id="light-12" data-name="light"><path class="cls-3" d="M324.56,23.64a31.18,31.18,0,1,1-31.22,30.88C293.46,37.34,307.83,23.39,324.56,23.64ZM323.94,65h5.25c1.21,0,1.21,0,1.33-1.17,0-.13,0-.25.06-.37a14,14,0,0,1,3-6c2.37-3.18,4.3-6.52,4.59-10.62a12.82,12.82,0,0,0-2.05-8.51c-3.41-4.89-8.16-7.11-14.09-6.33a13.5,13.5,0,0,0-11.19,8.22c-1.71,3.8-1.34,7.68.1,11.5a30.07,30.07,0,0,0,4,6.47,12.16,12.16,0,0,1,2.54,6.27c0,.54.27.57.69.57C320,64.94,322,65,323.94,65Zm0,4.73h4.88c1.74,0,1.71,0,1.73-1.71,0-.58-.18-.68-.71-.68-3.54,0-7.09,0-10.63,0-1.78,0-1.75,0-1.74,1.78,0,.51.18.61.64.6C320,69.67,322,69.68,323.9,69.68ZM324,72c-2,0-3.94,0-5.91,0-.68,0-.73.24-.54.79a2.29,2.29,0,0,0,2.08,1.59c2.86,0,5.71,0,8.57,0a2.29,2.29,0,0,0,2.18-1.77c.14-.48.05-.63-.47-.62C327.94,72.06,326,72,324,72ZM324,75.6c-.59,0-1.19,0-1.78,0s-.65.16-.53.64a2.38,2.38,0,0,0,4.62-.11c.1-.48-.06-.54-.47-.53C325.18,75.61,324.56,75.6,324,75.6Z"/><path d="M323.94,65c-1.95,0-3.9,0-5.84,0-.42,0-.65,0-.69-.57a12.16,12.16,0,0,0-2.54-6.27,30.07,30.07,0,0,1-4-6.47c-1.44-3.82-1.81-7.7-.1-11.5A13.5,13.5,0,0,1,322,31.92c5.93-.78,10.68,1.44,14.09,6.33a12.82,12.82,0,0,1,2.05,8.51c-.29,4.1-2.22,7.44-4.59,10.62a14,14,0,0,0-3,6c0,.12-.05.24-.06.37C330.4,65,330.4,65,329.19,65ZM312.88,43.86c0,.88.41,1.43,1,1.51a1.33,1.33,0,0,0,1.34-1.13,8.82,8.82,0,0,1,5.34-6.53c.85-.38,1.2-1,.93-1.56a1.3,1.3,0,0,0-1.85-.62,11.16,11.16,0,0,0-4.73,3.67A10.79,10.79,0,0,0,312.88,43.86Z"/><path d="M323.9,69.68c-1.94,0-3.89,0-5.83,0-.46,0-.64-.09-.64-.6,0-1.78,0-1.78,1.74-1.78,3.54,0,7.09,0,10.63,0,.53,0,.72.1.71.68,0,1.71,0,1.71-1.73,1.71Z"/><path d="M324,72c2,0,3.94,0,5.91,0,.52,0,.61.14.47.62a2.29,2.29,0,0,1-2.18,1.77c-2.86,0-5.71,0-8.57,0a2.29,2.29,0,0,1-2.08-1.59c-.19-.55-.14-.8.54-.79C320.06,72.07,322,72,324,72Z"/><path d="M324,75.6c.61,0,1.23,0,1.84,0,.41,0,.57,0,.47.53a2.38,2.38,0,0,1-4.62.11c-.12-.48,0-.68.53-.64S323.36,75.6,324,75.6Z"/><path class="cls-3" d="M312.88,43.86a10.79,10.79,0,0,1,2-4.66,11.16,11.16,0,0,1,4.73-3.67,1.3,1.3,0,0,1,1.85.62c.27.61-.08,1.18-.93,1.56a8.82,8.82,0,0,0-5.34,6.53,1.33,1.33,0,0,1-1.34,1.13C313.29,45.29,312.87,44.74,312.88,43.86Z"/></g><g id="light-13" data-name="light"><path class="cls-3" d="M1762.93,537.64a27,27,0,1,1-27.07,26.78C1736,549.52,1748.42,537.42,1762.93,537.64Zm-.54,35.82H1767c1,0,1,0,1.15-1,0-.11,0-.21.06-.32a12.1,12.1,0,0,1,2.56-5.23c2-2.76,3.73-5.65,4-9.21a11.11,11.11,0,0,0-1.78-7.38,12.12,12.12,0,0,0-12.21-5.49A11.72,11.72,0,0,0,1751,552a12.61,12.61,0,0,0,.09,10,25.85,25.85,0,0,0,3.44,5.61,10.61,10.61,0,0,1,2.21,5.44c0,.47.22.5.59.5Zm0,4.11h4.23c1.51,0,1.48,0,1.51-1.48,0-.5-.16-.59-.62-.59-3.08,0-6.15,0-9.22,0-1.54,0-1.52,0-1.51,1.55,0,.44.16.52.55.52C1759,577.56,1760.68,577.57,1762.36,577.57Zm.09,2c-1.71,0-3.42,0-5.13,0-.59,0-.64.2-.47.68a2,2,0,0,0,1.81,1.38c2.48,0,4.95,0,7.43,0a2,2,0,0,0,1.89-1.53c.12-.42,0-.55-.41-.54C1765.86,579.63,1764.15,579.62,1762.45,579.62Zm0,3.08c-.51,0-1,0-1.54,0s-.56.14-.46.56a2,2,0,0,0,2.11,1.51,2,2,0,0,0,1.89-1.61c.1-.41-.05-.47-.4-.45C1763.47,582.72,1762.94,582.7,1762.4,582.7Z"/><path d="M1762.39,573.46h-5.06c-.37,0-.57,0-.59-.5a10.61,10.61,0,0,0-2.21-5.44,25.85,25.85,0,0,1-3.44-5.61,12.61,12.61,0,0,1-.09-10,11.72,11.72,0,0,1,9.71-7.13,12.12,12.12,0,0,1,12.21,5.49,11.11,11.11,0,0,1,1.78,7.38c-.25,3.56-1.93,6.45-4,9.21a12.1,12.1,0,0,0-2.56,5.23c0,.11-.05.21-.06.32-.11,1-.11,1-1.15,1Zm-9.59-18.28c0,.76.35,1.24.88,1.3a1.13,1.13,0,0,0,1.16-1,7.63,7.63,0,0,1,4.63-5.66c.74-.32,1-.82.81-1.35a1.14,1.14,0,0,0-1.61-.54,9.78,9.78,0,0,0-4.1,3.18A9.41,9.41,0,0,0,1752.8,555.18Z"/><path d="M1762.36,577.57c-1.68,0-3.37,0-5.06,0-.39,0-.55-.08-.55-.52,0-1.55,0-1.55,1.51-1.55,3.07,0,6.14,0,9.22,0,.46,0,.62.09.62.59,0,1.48,0,1.48-1.51,1.48Z"/><path d="M1762.45,579.62c1.7,0,3.41,0,5.12,0,.46,0,.53.12.41.54a2,2,0,0,1-1.89,1.53c-2.48,0-4.95,0-7.43,0a2,2,0,0,1-1.81-1.38c-.17-.48-.12-.69.47-.68C1759,579.64,1760.74,579.62,1762.45,579.62Z"/><path d="M1762.4,582.7c.54,0,1.07,0,1.6,0,.35,0,.5,0,.4.45a2,2,0,0,1-1.89,1.61,2,2,0,0,1-2.11-1.51c-.1-.42,0-.59.46-.56S1761.89,582.7,1762.4,582.7Z"/><path class="cls-3" d="M1752.8,555.18a9.41,9.41,0,0,1,1.77-4,9.78,9.78,0,0,1,4.1-3.18,1.14,1.14,0,0,1,1.61.54c.23.53-.07,1-.81,1.35a7.63,7.63,0,0,0-4.63,5.66,1.13,1.13,0,0,1-1.16,1C1753.15,556.42,1752.79,555.94,1752.8,555.18Z"/></g><g id="light-14" data-name="light"><path class="cls-3" d="M1674.57,540.64a23.68,23.68,0,1,1-23.71,23.45A23.63,23.63,0,0,1,1674.57,540.64ZM1674.1,572h4c.91,0,.91,0,1-.89,0-.09,0-.18.05-.27a10.68,10.68,0,0,1,2.25-4.59c1.79-2.41,3.26-5,3.48-8.06a9.78,9.78,0,0,0-1.55-6.47,10.65,10.65,0,0,0-10.7-4.81,10.31,10.31,0,0,0-8.51,6.25,11.12,11.12,0,0,0,.08,8.73,23.22,23.22,0,0,0,3,4.92,9.25,9.25,0,0,1,1.93,4.76c0,.41.2.44.52.43Zm0,3.6h3.7c1.32,0,1.3,0,1.32-1.3,0-.44-.14-.52-.54-.52-2.69,0-5.39,0-8.08,0-1.34,0-1.33,0-1.32,1.36,0,.38.14.46.49.45Zm.07,1.79c-1.49,0-3,0-4.48,0-.52,0-.56.18-.42.6a1.76,1.76,0,0,0,1.59,1.21h6.5a1.73,1.73,0,0,0,1.66-1.34c.1-.37,0-.47-.36-.47C1677.13,577.41,1675.64,577.4,1674.14,577.4Zm0,2.7c-.45,0-.9,0-1.35,0s-.49.12-.4.49a1.81,1.81,0,0,0,3.51-.08c.08-.37,0-.42-.36-.41C1675,580.11,1674.57,580.1,1674.1,580.1Z"/><path d="M1674.1,572h-4.44c-.32,0-.5,0-.52-.43a9.25,9.25,0,0,0-1.93-4.76,23.22,23.22,0,0,1-3-4.92,11.12,11.12,0,0,1-.08-8.73,10.31,10.31,0,0,1,8.51-6.25,10.65,10.65,0,0,1,10.7,4.81,9.78,9.78,0,0,1,1.55,6.47c-.22,3.11-1.69,5.65-3.48,8.06a10.68,10.68,0,0,0-2.25,4.59c0,.09,0,.18-.05.27-.09.89-.09.89-1,.89Zm-8.4-16c0,.67.3,1.08.76,1.14a1,1,0,0,0,1-.86,6.68,6.68,0,0,1,4-4.95c.65-.29.92-.73.72-1.19a1,1,0,0,0-1.41-.47,8.41,8.41,0,0,0-3.59,2.78A8.06,8.06,0,0,0,1665.7,556Z"/><path d="M1674.07,575.61h-4.43c-.35,0-.49-.07-.49-.45,0-1.36,0-1.36,1.32-1.36,2.69,0,5.39,0,8.08,0,.4,0,.54.08.54.52,0,1.3,0,1.3-1.32,1.3Z"/><path d="M1674.14,577.4c1.5,0,3,0,4.49,0,.4,0,.46.1.36.47a1.73,1.73,0,0,1-1.66,1.34h-6.5a1.76,1.76,0,0,1-1.59-1.21c-.14-.42-.1-.61.42-.6C1671.15,577.42,1672.65,577.4,1674.14,577.4Z"/><path d="M1674.1,580.1c.47,0,.94,0,1.4,0,.31,0,.44,0,.36.41a1.81,1.81,0,0,1-3.51.08c-.09-.37,0-.52.4-.49S1673.65,580.1,1674.1,580.1Z"/><path class="cls-3" d="M1665.7,556a8.06,8.06,0,0,1,1.55-3.55,8.41,8.41,0,0,1,3.59-2.78,1,1,0,0,1,1.41.47c.2.46-.07.9-.72,1.19a6.68,6.68,0,0,0-4,4.95,1,1,0,0,1-1,.86C1666,557.08,1665.69,556.67,1665.7,556Z"/></g><g id="light-15" data-name="light"><path class="cls-3" d="M1657.43,658.64A22.55,22.55,0,1,1,1634.86,681,22.5,22.5,0,0,1,1657.43,658.64Zm-.45,29.87h3.8c.87,0,.87,0,1-.85a2.38,2.38,0,0,1,0-.26,10.17,10.17,0,0,1,2.14-4.37,14.5,14.5,0,0,0,3.31-7.67,9.24,9.24,0,0,0-1.48-6.16,10.1,10.1,0,0,0-10.18-4.58,9.79,9.79,0,0,0-8.1,6,10.52,10.52,0,0,0,.08,8.31,21.35,21.35,0,0,0,2.86,4.68,8.77,8.77,0,0,1,1.84,4.54c0,.39.19.41.5.41Zm0,3.42h3.52c1.26,0,1.24,0,1.26-1.23,0-.42-.13-.5-.52-.49h-7.69c-1.28,0-1.26,0-1.26,1.29,0,.37.14.44.47.44Zm.07,1.71c-1.43,0-2.85,0-4.28,0-.49,0-.53.17-.39.57a1.67,1.67,0,0,0,1.51,1.15c2.06,0,4.13,0,6.19,0a1.65,1.65,0,0,0,1.58-1.28c.1-.35,0-.45-.34-.45C1659.87,693.65,1658.45,693.64,1657,693.64Zm0,2.57c-.43,0-.86,0-1.28,0s-.47.12-.39.46a1.72,1.72,0,0,0,3.34-.07c.08-.35,0-.4-.34-.38Z"/><path d="M1657,688.51h-4.22c-.31,0-.47,0-.5-.41a8.77,8.77,0,0,0-1.84-4.54,21.35,21.35,0,0,1-2.86-4.68,10.52,10.52,0,0,1-.08-8.31,9.79,9.79,0,0,1,8.1-6,10.1,10.1,0,0,1,10.18,4.58,9.24,9.24,0,0,1,1.48,6.16,14.5,14.5,0,0,1-3.31,7.67,10.17,10.17,0,0,0-2.14,4.37,2.38,2.38,0,0,0,0,.26c-.09.85-.09.85-1,.85Zm-8-15.25c0,.64.29,1,.73,1.09a1,1,0,0,0,1-.82,6.36,6.36,0,0,1,3.85-4.72c.62-.27.87-.68.68-1.13a1,1,0,0,0-1.34-.45,8.21,8.21,0,0,0-3.42,2.66A7.59,7.59,0,0,0,1649,673.26Z"/><path d="M1657,691.93h-4.22c-.33,0-.46-.07-.47-.44,0-1.29,0-1.29,1.26-1.29h7.69c.39,0,.52.07.52.49,0,1.23,0,1.23-1.26,1.23Z"/><path d="M1657,693.64c1.42,0,2.84,0,4.27,0,.38,0,.44.1.34.45a1.65,1.65,0,0,1-1.58,1.28c-2.06,0-4.13,0-6.19,0a1.67,1.67,0,0,1-1.51-1.15c-.14-.4-.1-.58.39-.57C1654.18,693.66,1655.6,693.64,1657,693.64Z"/><path d="M1657,696.21h1.33c.3,0,.42,0,.34.38a1.72,1.72,0,0,1-3.34.07c-.08-.34,0-.48.39-.46S1656.56,696.21,1657,696.21Z"/><path class="cls-3" d="M1649,673.26a7.59,7.59,0,0,1,1.47-3.37,8.21,8.21,0,0,1,3.42-2.66,1,1,0,0,1,1.34.45c.19.45-.06.86-.68,1.13a6.36,6.36,0,0,0-3.85,4.72,1,1,0,0,1-1,.82C1649.28,674.3,1649,673.9,1649,673.26Z"/></g><g id="light-16" data-name="light"><path class="cls-3" d="M1508.4,691.64a29.18,29.18,0,1,1-29.22,28.9C1479.29,704.46,1492.74,691.4,1508.4,691.64Zm-.58,38.66h4.91c1.13,0,1.13,0,1.25-1.1,0-.11,0-.22,0-.34a13.21,13.21,0,0,1,2.78-5.65c2.21-3,4-6.1,4.29-9.93a12,12,0,0,0-1.92-8,13.1,13.1,0,0,0-13.18-5.93,12.69,12.69,0,0,0-10.48,7.7c-1.6,3.56-1.26,7.19.1,10.76a27.91,27.91,0,0,0,3.71,6.06,11.31,11.31,0,0,1,2.38,5.87c0,.5.25.53.64.53Zm0,4.43h4.57c1.62,0,1.6,0,1.62-1.6,0-.54-.17-.64-.67-.64-3.31,0-6.63,0-10,0-1.66,0-1.64,0-1.63,1.67,0,.48.17.57.6.57C1504.14,734.72,1506,734.73,1507.78,734.73Zm.09,2.21c-1.84,0-3.68,0-5.52,0-.64,0-.69.22-.52.73a2.18,2.18,0,0,0,2,1.5h8a2.15,2.15,0,0,0,2-1.65c.13-.45,0-.59-.45-.58C1511.56,737,1509.72,736.94,1507.87,736.94Zm0,3.32c-.55,0-1.1,0-1.66,0s-.6.14-.49.59a2.23,2.23,0,0,0,4.32-.1c.1-.44-.06-.5-.44-.49C1509,740.28,1508.4,740.26,1507.82,740.26Z"/><path d="M1507.82,730.3h-5.47c-.39,0-.61,0-.64-.53a11.31,11.31,0,0,0-2.38-5.87,27.91,27.91,0,0,1-3.71-6.06c-1.36-3.57-1.7-7.2-.1-10.76a12.69,12.69,0,0,1,10.48-7.7,13.1,13.1,0,0,1,13.18,5.93,12,12,0,0,1,1.92,8c-.28,3.83-2.08,7-4.29,9.93a13.21,13.21,0,0,0-2.78,5.65c0,.12,0,.23,0,.34-.12,1.1-.12,1.1-1.25,1.1Zm-10.35-19.74c0,.83.38,1.34.94,1.41a1.23,1.23,0,0,0,1.26-1.05,8.23,8.23,0,0,1,5-6.11c.8-.36,1.13-.89.88-1.47a1.24,1.24,0,0,0-1.74-.58,10.54,10.54,0,0,0-4.42,3.44A10,10,0,0,0,1497.47,710.56Z"/><path d="M1507.78,734.73c-1.82,0-3.64,0-5.46,0-.43,0-.59-.09-.6-.57,0-1.67,0-1.67,1.63-1.67,3.32,0,6.64,0,10,0,.5,0,.68.1.67.64,0,1.6,0,1.6-1.62,1.6Z"/><path d="M1507.87,736.94c1.85,0,3.69,0,5.53,0,.49,0,.58.13.45.58a2.15,2.15,0,0,1-2,1.65h-8a2.18,2.18,0,0,1-2-1.5c-.17-.51-.12-.74.52-.73C1504.19,737,1506,736.94,1507.87,736.94Z"/><path d="M1507.82,740.26c.58,0,1.16,0,1.73,0,.38,0,.54,0,.44.49a2.23,2.23,0,0,1-4.32.1c-.11-.45,0-.63.49-.59S1507.27,740.26,1507.82,740.26Z"/><path class="cls-3" d="M1497.47,710.56a10,10,0,0,1,1.91-4.36,10.54,10.54,0,0,1,4.42-3.44,1.24,1.24,0,0,1,1.74.58c.25.58-.08,1.11-.88,1.47a8.23,8.23,0,0,0-5,6.11,1.23,1.23,0,0,1-1.26,1.05C1497.85,711.9,1497.46,711.39,1497.47,710.56Z"/></g><g id="light-17" data-name="light"><path class="cls-3" d="M1521.4,858.64a25.68,25.68,0,1,1-25.72,25.43A25.63,25.63,0,0,1,1521.4,858.64Zm-.51,34h4.32c1,0,1,0,1.1-1,0-.1,0-.2,0-.3a11.43,11.43,0,0,1,2.44-5c1.94-2.62,3.53-5.37,3.77-8.75a10.57,10.57,0,0,0-1.68-7,11.52,11.52,0,0,0-11.6-5.21,11.15,11.15,0,0,0-9.23,6.77,12,12,0,0,0,.09,9.47,24.89,24.89,0,0,0,3.26,5.33,9.84,9.84,0,0,1,2.1,5.17c0,.44.22.47.56.46Zm0,3.9h4c1.43,0,1.41,0,1.43-1.41,0-.47-.15-.56-.58-.56-2.92,0-5.84,0-8.76,0-1.46,0-1.45,0-1.44,1.47,0,.42.15.5.53.5C1517.65,896.55,1519.26,896.56,1520.86,896.56Zm.08,2c-1.63,0-3.25,0-4.87,0-.56,0-.61.2-.45.65a1.9,1.9,0,0,0,1.72,1.32h7.06a1.9,1.9,0,0,0,1.8-1.45c.11-.4,0-.52-.4-.51C1524.18,898.52,1522.56,898.51,1520.94,898.51Zm0,2.92c-.48,0-1,0-1.46,0s-.53.14-.44.53a2,2,0,0,0,3.81-.09c.08-.39,0-.45-.38-.43C1521.91,901.45,1521.4,901.43,1520.89,901.43Z"/><path d="M1520.89,892.66h-4.82c-.34,0-.53,0-.56-.46a9.84,9.84,0,0,0-2.1-5.17,24.89,24.89,0,0,1-3.26-5.33,12,12,0,0,1-.09-9.47,11.15,11.15,0,0,1,9.23-6.77,11.52,11.52,0,0,1,11.6,5.21,10.57,10.57,0,0,1,1.68,7c-.24,3.38-1.83,6.13-3.77,8.75a11.43,11.43,0,0,0-2.44,5c0,.1,0,.2,0,.3-.11,1-.1,1-1.1,1Zm-9.11-17.37c0,.73.33,1.18.83,1.24a1.07,1.07,0,0,0,1.1-.93,7.27,7.27,0,0,1,4.4-5.37c.7-.31,1-.78.77-1.29a1.08,1.08,0,0,0-1.53-.51,9.25,9.25,0,0,0-3.89,3A8.74,8.74,0,0,0,1511.78,875.29Z"/><path d="M1520.86,896.56c-1.6,0-3.21,0-4.81,0-.38,0-.52-.08-.53-.5,0-1.47,0-1.47,1.44-1.47,2.92,0,5.84,0,8.76,0,.43,0,.59.09.58.56,0,1.41,0,1.41-1.43,1.41Z"/><path d="M1520.94,898.51c1.62,0,3.24,0,4.86,0,.44,0,.51.11.4.51a1.9,1.9,0,0,1-1.8,1.45h-7.06a1.9,1.9,0,0,1-1.72-1.32c-.16-.45-.11-.66.45-.65C1517.69,898.52,1519.31,898.51,1520.94,898.51Z"/><path d="M1520.89,901.43c.51,0,1,0,1.53,0,.33,0,.46,0,.38.43a2,2,0,0,1-3.81.09c-.09-.39,0-.56.44-.53S1520.41,901.43,1520.89,901.43Z"/><path class="cls-3" d="M1511.78,875.29a8.74,8.74,0,0,1,1.68-3.84,9.25,9.25,0,0,1,3.89-3,1.08,1.08,0,0,1,1.53.51c.22.51-.07,1-.77,1.29a7.27,7.27,0,0,0-4.4,5.37,1.07,1.07,0,0,1-1.1.93C1512.11,876.47,1511.77,876,1511.78,875.29Z"/></g><g id="light-18" data-name="light"><path class="cls-3" d="M1554.4,564.64A15.52,15.52,0,1,1,1538.86,580,15.49,15.49,0,0,1,1554.4,564.64Zm-.31,20.56h2.61c.6,0,.6,0,.66-.58l0-.18a7,7,0,0,1,1.48-3,10.06,10.06,0,0,0,2.28-5.28,6.36,6.36,0,0,0-1-4.24,6.94,6.94,0,0,0-7-3.15,6.71,6.71,0,0,0-5.57,4.09,7.24,7.24,0,0,0,0,5.72,14.56,14.56,0,0,0,2,3.22,6,6,0,0,1,1.27,3.13c0,.27.13.28.34.28Zm0,2.36h2.43c.86,0,.85,0,.86-.86,0-.28-.09-.33-.35-.33h-5.3c-.88,0-.87,0-.86.89,0,.25.09.3.32.3Zm0,1.17h-2.94c-.34,0-.37.11-.28.39a1.14,1.14,0,0,0,1,.79h4.27a1.15,1.15,0,0,0,1.09-.88c.06-.24,0-.31-.24-.3Zm0,1.77c-.29,0-.59,0-.88,0s-.33.08-.27.31a1.17,1.17,0,0,0,1.21.87,1.14,1.14,0,0,0,1.09-.92c0-.24,0-.27-.23-.26Z"/><path d="M1554.09,585.2h-2.91c-.21,0-.32,0-.34-.28a6,6,0,0,0-1.27-3.13,14.56,14.56,0,0,1-2-3.22,7.24,7.24,0,0,1,0-5.72,6.71,6.71,0,0,1,5.57-4.09,6.94,6.94,0,0,1,7,3.15,6.36,6.36,0,0,1,1,4.24,10.06,10.06,0,0,1-2.28,5.28,7,7,0,0,0-1.48,3l0,.18c-.06.58-.06.58-.66.58Zm-5.51-10.5c0,.44.2.72.51.75a.65.65,0,0,0,.66-.56,4.4,4.4,0,0,1,2.66-3.25c.42-.19.6-.47.47-.78a.67.67,0,0,0-.93-.31,5.64,5.64,0,0,0-2.35,1.83A5.33,5.33,0,0,0,1548.58,574.7Z"/><path d="M1554.07,587.56h-2.9c-.23,0-.32,0-.32-.3,0-.89,0-.89.86-.89h5.3c.26,0,.35,0,.35.33,0,.86,0,.86-.86.86Z"/><path d="M1554.12,588.73h2.94c.26,0,.3.06.24.3a1.15,1.15,0,0,1-1.09.88h-4.27a1.14,1.14,0,0,1-1-.79c-.09-.28-.06-.4.28-.39Z"/><path d="M1554.09,590.5h.92c.2,0,.28,0,.23.26a1.14,1.14,0,0,1-1.09.92,1.17,1.17,0,0,1-1.21-.87c-.06-.23,0-.33.27-.31S1553.8,590.5,1554.09,590.5Z"/><path class="cls-3" d="M1548.58,574.7a5.33,5.33,0,0,1,1-2.32,5.64,5.64,0,0,1,2.35-1.83.67.67,0,0,1,.93.31c.13.31-.05.59-.47.78a4.4,4.4,0,0,0-2.66,3.25.65.65,0,0,1-.66.56C1548.78,575.42,1548.58,575.14,1548.58,574.7Z"/></g><g id="light-19" data-name="light"><path class="cls-3" d="M162.94,98.64c21.23-.24,39.09,17.27,39.06,39a39.07,39.07,0,1,1-78.14-.39C124,115.79,142,98.32,162.94,98.64Zm-.78,51.7h6.57c1.51,0,1.51,0,1.66-1.46,0-.15.06-.3.08-.45a17.59,17.59,0,0,1,3.71-7.56c3-4,5.37-8.16,5.74-13.29a16,16,0,0,0-2.57-10.65c-4.26-6.13-10.21-8.9-17.63-7.93a16.93,16.93,0,0,0-14,10.3c-2.14,4.75-1.68,9.61.13,14.38,1.14,3,3.13,5.51,5,8.1a15.18,15.18,0,0,1,3.19,7.86c0,.67.33.71.85.71C157.28,150.33,159.72,150.34,162.16,150.34Zm0,5.93h6.1c2.18,0,2.14,0,2.18-2.14,0-.72-.23-.85-.89-.85-4.44,0-8.88,0-13.32,0-2.21,0-2.19,0-2.17,2.23,0,.63.23.76.8.76C157.24,156.26,159.68,156.27,162.11,156.27Zm.12,3c-2.46,0-4.93,0-7.39,0-.85,0-.92.3-.68,1a2.88,2.88,0,0,0,2.61,2c3.57,0,7.15,0,10.72,0a2.88,2.88,0,0,0,2.74-2.21c.16-.61.06-.79-.6-.78C167.16,159.25,164.7,159.23,162.23,159.23Zm-.06,4.45c-.74,0-1.49,0-2.22,0s-.82.2-.67.8a2.94,2.94,0,0,0,3,2.19,2.9,2.9,0,0,0,2.74-2.32c.13-.6-.07-.68-.58-.66C163.71,163.7,162.94,163.68,162.17,163.68Z"/><path d="M162.16,150.34c-2.44,0-4.88,0-7.32,0-.52,0-.81,0-.85-.71a15.18,15.18,0,0,0-3.19-7.86c-1.83-2.59-3.82-5.09-5-8.1-1.81-4.77-2.27-9.63-.13-14.38a16.93,16.93,0,0,1,14-10.3c7.42-1,13.37,1.8,17.63,7.93a16,16,0,0,1,2.57,10.65c-.37,5.13-2.78,9.31-5.74,13.29a17.59,17.59,0,0,0-3.71,7.56c0,.15-.06.3-.08.45-.15,1.46-.15,1.46-1.66,1.46ZM148.32,124c0,1.1.5,1.79,1.26,1.89a1.66,1.66,0,0,0,1.68-1.42,11,11,0,0,1,6.68-8.17c1.06-.47,1.5-1.19,1.17-2a1.64,1.64,0,0,0-2.32-.78,14.08,14.08,0,0,0-5.92,4.59A13.35,13.35,0,0,0,148.32,124Z"/><path d="M162.11,156.27c-2.43,0-4.87,0-7.3,0-.57,0-.8-.13-.8-.76,0-2.23,0-2.23,2.17-2.23,4.44,0,8.88,0,13.32,0,.66,0,.9.13.89.85,0,2.14,0,2.14-2.18,2.14Z"/><path d="M162.23,159.23c2.47,0,4.93,0,7.4,0,.66,0,.76.17.6.78a2.88,2.88,0,0,1-2.74,2.21c-3.57,0-7.15,0-10.72,0a2.88,2.88,0,0,1-2.61-2c-.24-.68-.17-1,.68-1C157.3,159.26,159.77,159.23,162.23,159.23Z"/><path d="M162.17,163.68c.77,0,1.54,0,2.31,0,.51,0,.71.06.58.66a2.9,2.9,0,0,1-2.74,2.32,2.94,2.94,0,0,1-3-2.19c-.15-.6,0-.84.67-.8S161.43,163.68,162.17,163.68Z"/><path class="cls-3" d="M148.32,124a13.35,13.35,0,0,1,2.55-5.84,14.08,14.08,0,0,1,5.92-4.59,1.64,1.64,0,0,1,2.32.78c.33.76-.11,1.48-1.17,2a11,11,0,0,0-6.68,8.17,1.66,1.66,0,0,1-1.68,1.42C148.82,125.74,148.3,125.05,148.32,124Z"/></g><g id="el"><path class="cls-4" d="M243.6,744c.4,14.68-12.1,28.17-28.23,28a28.21,28.21,0,0,1-27.59-28.46c.21-14.21,12.21-27.8,28.55-27.5C231.5,716.31,244,729.18,243.6,744Zm-25.38-12.57v-6a2.47,2.47,0,0,0-1.87-2.63,2.45,2.45,0,0,0-2.91,1.48q-5.38,11.07-10.78,22.14c-1,2.07.1,3.88,2.41,3.89,2.49,0,5,0,7.49,0,.55,0,.7.13.7.68,0,4,0,7.92,0,11.88a5.5,5.5,0,0,0,.07,1,2.41,2.41,0,0,0,2.24,2c1.19.08,2-.46,2.62-1.81l10.65-21.91a2.5,2.5,0,0,0-2.35-3.83c-2.5,0-5,0-7.5,0-.58,0-.79-.11-.78-.75C218.25,735.49,218.22,733.45,218.22,731.42Z"/><path class="cls-5" d="M218.22,731.42c0,2,0,4.07,0,6.1,0,.64.2.75.78.75,2.5,0,5,0,7.5,0a2.5,2.5,0,0,1,2.35,3.83L218.18,764c-.65,1.35-1.43,1.89-2.62,1.81a2.41,2.41,0,0,1-2.24-2,5.5,5.5,0,0,1-.07-1c0-4,0-7.92,0-11.88,0-.55-.15-.69-.7-.68-2.5,0-5,0-7.49,0-2.31,0-3.42-1.82-2.41-3.89q5.4-11.07,10.78-22.14a2.45,2.45,0,0,1,2.91-1.48,2.47,2.47,0,0,1,1.87,2.63Z"/></g></g></svg>