<?xml version="1.0" encoding="utf-8"?>
<!-- Generator: Adobe Illustrator 24.3.0, SVG Export Plug-In . SVG Version: 6.00 Build 0)  -->
<svg version="1.1" xmlns="http://www.w3.org/2000/svg" xmlns:xlink="http://www.w3.org/1999/xlink" x="0px" y="0px"
	 viewBox="0 0 1920 1080" style="enable-background:new 0 0 1920 1080;" xml:space="preserve">
<style type="text/css">
	.st0{fill:#D8E9F0;}
	.st1{fill:#3687A4;}
	.st2{fill:#ADDDEC;}
	.st3{opacity:0.4;fill:#FFFFFF;}
	.st4{fill:#FFFFFF;}
	.st5{fill:#A6DEF6;}
	.st6{fill:#FBC45E;}
	.st7{fill:#E89BBE;}
	.st8{fill:#7A8EC7;}
	.st9{fill:none;stroke:#FFFFFF;stroke-width:6;stroke-miterlimit:10;}
	.st10{fill:#C1E6EC;}
	.st11{fill:#FFFFFF;stroke:#FFFFFF;stroke-width:4;stroke-miterlimit:10;}
	.st12{fill:#CBDF8C;}
	.st13{fill:none;stroke:#FFFFFF;stroke-width:2;stroke-miterlimit:10;}
	.st14{fill:#838186;stroke:#838186;stroke-width:4;stroke-miterlimit:10;}
	.st15{fill:#838186;}
	.st16{fill:#DFDFDF;}
	.st17{fill:none;stroke:#FFFFFF;stroke-width:28;stroke-miterlimit:10;}
	.st18{fill:#BFE3D3;}
	.st19{fill:#ADCEC1;}
	.st20{fill:url(#SVGID_1_);}
	.st21{fill:#58C5C7;}
	.st22{fill:#00B6BE;}
	.st23{fill:url(#SVGID_2_);}
	.st24{fill:#DDBCC8;}
	.st25{fill:#BCAB92;}
	.st26{fill:#D6A1B7;}
	.st27{fill:#261F44;}
	.st28{opacity:0.44;fill:#5F5F60;}
	.st29{fill:none;stroke:#998675;stroke-width:2;stroke-miterlimit:10;}
	.st30{fill:#454289;}
	.st31{fill:#38327C;}
	.st32{fill:#E6E6E6;}
	.st33{fill:#FF6699;}
	.st34{fill:#FF4370;}
	.st35{opacity:0.23;fill:#E53C70;}
	.st36{fill:#3F4650;}
	.st37{fill:#0267B6;}
	.st38{fill:#2BB03E;}
	.st39{fill:#EA2023;}
	.st40{fill:#FBED23;}
	.st41{fill:#0E6B7A;}
	.st42{opacity:0.64;fill:url(#SVGID_3_);}
	.st43{fill:none;stroke:#FFFFFF;stroke-width:8.0256;stroke-miterlimit:10;}
	.st44{fill:none;stroke:#FF4370;stroke-width:1.3376;stroke-miterlimit:10;}
	.st45{fill:url(#bedroom_x5F_lys_17_);}
	.st46{fill:url(#bedroom_x5F_lys_18_);}
	.st47{fill:url(#bedroom_x5F_lys_19_);}
	.st48{fill:url(#bedroom_x5F_lys_20_);}
	.st49{fill:url(#bedroom_x5F_lys_21_);}
	.st50{fill:url(#bedroom_x5F_lys_22_);}
	.st51{fill:url(#bedroom_x5F_lys_23_);}
	.st52{fill:url(#bedroom_x5F_lys_24_);}
	.st53{fill:url(#bedroom_x5F_lys_25_);}
	.st54{fill:url(#bedroom_x5F_lys_26_);}
	.st55{fill:url(#bedroom_x5F_lys_27_);}
	.st56{fill:url(#bedroom_x5F_lys_28_);}
	.st57{fill:url(#bedroom_x5F_lys_29_);}
	.st58{fill:url(#bedroom_x5F_lys_30_);}
	.st59{fill:url(#bedroom_x5F_lys_31_);}
	.st60{fill:url(#bedroom_x5F_lys_32_);}
	.st61{fill:url(#bedroom_x5F_lys_33_);}
	.st62{fill:#E53C70;}
	.st63{fill:#FF83B3;}
	.st64{fill:#EBB724;}
	.st65{fill:#FFC727;}
	.st66{fill:#50ACB0;}
	.st67{fill:#FD8283;}
	.st68{fill:#F07B7C;}
	.st69{fill:#3C8185;}
	.st70{display:none;fill:#3C8185;}
	.st71{fill:#ECECEC;}
	.st72{fill:#BEC3C7;}
	.st73{fill:#DAE0E2;}
	.st74{fill:#92D1DF;}
	.st75{fill:#010101;}
	.st76{fill:#FDEE40;}
	.st77{fill:#020202;}
	.st78{fill:#76B62A;}
	.st79{fill:#FAB924;}
	.st80{fill:#F20303;}
	.st81{fill:#ABD2D0;}
	.st82{fill:#968976;}
	.st83{fill:#70675B;}
	.st84{fill:#E4DECE;}
	.st85{fill:#93B7B6;}
	.st86{fill:#C9F9F9;}
	.st87{fill:none;stroke:#FFFFFF;stroke-width:2.9103;stroke-miterlimit:10;}
	.st88{fill:#F1893A;}
	.st89{fill:#C96E31;}
	.st90{fill:#DB7838;}
	.st91{fill:#2F3E4C;}
	.st92{fill:#FFDD83;}
	.st93{fill:#219260;}
	.st94{fill:#147798;}
	.st95{fill:#915E36;}
	.st96{fill:#FB8710;}
	.st97{fill:#CA9E64;}
	.st98{fill:#B07F48;}
	.st99{fill:#53D678;}
	.st100{fill:#5C4B51;}
	.st101{fill:#F06060;}
	.st102{fill:#F2EBBF;}
	.st103{fill:none;stroke:#5C4B51;stroke-width:3.4462;stroke-linecap:round;stroke-linejoin:round;stroke-miterlimit:10;}
	.st104{opacity:0.38;fill:none;stroke:#FFFFFF;stroke-width:7;stroke-linecap:round;stroke-linejoin:round;stroke-miterlimit:10;}
	.st105{fill:#5C4B7A;}
	.st106{fill:#F03960;}
	.st107{fill:#FFC783;}
	.st108{fill:#5C1A51;}
	.st109{fill:#52BEB2;}
	.st110{fill:#F0A660;}
	.st111{fill:#F3B562;}
	.st112{fill:#87A978;}
	.st113{fill:#93BD85;}
	.st114{fill:#ACDA99;}
	.st115{fill:#475362;}
	.st116{fill:#627289;}
	.st117{fill:#303846;}
	.st118{fill:#41505E;}
	.st119{fill:none;stroke:#87A978;stroke-width:1.1982;stroke-miterlimit:10;}
	.st120{fill:#B4E6A1;}
	.st121{fill:none;stroke:#87A978;stroke-width:0.8558;stroke-miterlimit:10;}
	.st122{fill:#6E8462;}
	.st123{fill-rule:evenodd;clip-rule:evenodd;fill:#F0EEE6;}
	.st124{fill:#E4E0D9;}
	.st125{fill:#DC9C76;}
	.st126{fill:#729C76;}
	.st127{fill:#A94B51;}
	.st128{fill:#974B51;}
	.st129{opacity:0.5;fill:#CC575E;}
	.st130{fill:#7F9C76;}
	.st131{fill:#F27800;}
	.st132{fill:#613D4A;}
	.st133{fill:#004F4D;}
	.st134{fill:#007F4F;}
	.st135{fill:#00654D;}
	.st136{fill:#F59333;}
	.st137{fill:#F1ECDA;}
	.st138{fill:#88A8A7;}
	.st139{fill:url(#SVGID_4_);}
	.st140{fill:#E6E7E8;}
	.st141{fill:#D1D3D4;}
	.st142{fill:#FDBA4A;}
	.st143{fill:#FAA222;}
	.st144{fill:#D3DEBC;}
	.st145{fill:#CC883B;}
	.st146{fill-rule:evenodd;clip-rule:evenodd;fill:#919697;}
	.st147{fill-rule:evenodd;clip-rule:evenodd;fill:#36343A;}
	.st148{fill-rule:evenodd;clip-rule:evenodd;fill:#0C050D;stroke:#0C050D;stroke-width:0.235;stroke-miterlimit:22.9256;}
	.st149{fill-rule:evenodd;clip-rule:evenodd;fill:#36343A;stroke:#0C050D;stroke-width:0.235;stroke-miterlimit:22.9256;}
	.st150{fill-rule:evenodd;clip-rule:evenodd;fill:#7D8082;}
	.st151{fill-rule:evenodd;clip-rule:evenodd;fill:#5BBA47;}
	.st152{fill-rule:evenodd;clip-rule:evenodd;fill:#818081;}
	.st153{fill-rule:evenodd;clip-rule:evenodd;fill:#666264;}
	.st154{fill-rule:evenodd;clip-rule:evenodd;fill:#3B3438;}
	.st155{fill-rule:evenodd;clip-rule:evenodd;fill:#62C3D2;}
	.st156{fill-rule:evenodd;clip-rule:evenodd;fill:#A0D6E1;}
	.st157{fill-rule:evenodd;clip-rule:evenodd;fill:#00B6E8;}
	.st158{fill-rule:evenodd;clip-rule:evenodd;fill:#232938;}
	.st159{fill-rule:evenodd;clip-rule:evenodd;fill:#E5B249;}
	.st160{fill-rule:evenodd;clip-rule:evenodd;fill:#D4C2AB;}
	.st161{fill-rule:evenodd;clip-rule:evenodd;fill:#E1894A;}
	.st162{fill-rule:evenodd;clip-rule:evenodd;fill:#FFFFFF;}
	.st163{fill:#232938;}
	.st164{fill:#A9B392;}
	.st165{fill:#E5B249;}
	.st166{fill-rule:evenodd;clip-rule:evenodd;fill:#A9B392;}
	.st167{fill:#F45A2A;}
	.st168{fill:#F67B46;}
	.st169{fill:#E73F1F;}
	.st170{fill:#E1894A;}
	.st171{fill:#0A837F;}
	.st172{fill:#1DA19F;}
	.st173{fill:#3A6B34;}
	.st174{fill:#96BCBB;}
	.st175{fill:#68858E;}
	.st176{fill:#69935F;}
	.st177{fill:#B75353;}
	.st178{fill:#E0A76E;}
	.st179{fill:#F0D1BC;}
	.st180{fill:#1D2E35;}
	.st181{fill:#272A33;}
	.st182{fill:#563B31;}
	.st183{fill:#462D23;}
	.st184{fill:#FF8D0C;}
	.st185{fill:#FFBF17;}
	.st186{fill:#FFF2EB;}
	.st187{fill:#FFD690;}
	.st188{fill:#FFE5BF;}
	.st189{fill:#F9C44E;}
	.st190{fill:#F9DCB2;}
	.st191{fill:#F9EAD7;}
	.st192{fill:#61AA6A;}
	.st193{fill:#DCD8A0;}
	.st194{fill:#F8F6D3;}
	.st195{fill:#E8E4BF;}
	.st196{fill:#F1CC5E;}
	.st197{fill:#BB8150;}
	.st198{fill:#D09059;}
	.st199{fill:#E3AA79;}
	.st200{fill:#6FC07F;}
	.st201{fill:#A56A2D;}
	.st202{fill:url(#SVGID_5_);}
	.st203{fill:#EFA68F;}
	.st204{fill:#F28B66;}
	.st205{fill-rule:evenodd;clip-rule:evenodd;fill:#999A9A;}
	.st206{fill-rule:evenodd;clip-rule:evenodd;fill:#F3C54B;}
	.st207{fill-rule:evenodd;clip-rule:evenodd;fill:#BBBABA;}
	.st208{fill-rule:evenodd;clip-rule:evenodd;fill:#009CB4;}
	.st209{fill:url(#SVGID_6_);}
	.st210{fill:#3F4E61;}
	.st211{fill:#BE6647;}
	.st212{fill:#404F5F;}
	.st213{fill:#117598;}
	.st214{opacity:0.5;fill:#FF6E86;}
</style>
<g id="Bathroom-icons">
</g>
<g id="Bathroom">
</g>
<g id="Bedroom-icons">
</g>
<g id="Bedroom">
</g>
<g id="icons">
	<g id="water">
		<path class="st74" d="M385.1,385.1c20.5-0.3,38.4,17.1,37.9,38.8c-0.4,19.9-17,37.4-38.5,37.1c-20.4-0.2-37.7-16.9-37.5-38.4
			C347.1,401.9,364.1,384.8,385.1,385.1z M404.7,428.5c0-0.4,0-1.3-0.2-2.1c-0.4-3.3-1.6-6.3-3.2-9.1c-3.8-7.1-9.1-13-14.8-18.6
			c-1-0.9-2.3-0.8-3.3,0.1c-0.9,0.9-1.8,1.8-2.7,2.7c-4.4,4.6-8.5,9.5-11.6,15.1c-2.8,5-4.4,10.2-3.3,16c1,5.7,3.7,10.1,8.9,12.9
			c4.4,2.4,9.2,3,14.1,2.3c4.6-0.7,8.7-2.6,11.8-6.2C403.5,437.9,404.6,433.6,404.7,428.5z"/>
		<path class="st75" d="M404.7,428.5c-0.1,5.1-1.2,9.4-4.3,13c-3.1,3.6-7.1,5.5-11.8,6.2c-4.9,0.7-9.7,0.1-14.1-2.3
			c-5.1-2.8-7.9-7.2-8.9-12.9c-1-5.8,0.6-11,3.3-16c3.1-5.6,7.2-10.5,11.6-15.1c0.9-0.9,1.8-1.8,2.7-2.7c1-1,2.4-1,3.3-0.1
			c5.7,5.6,11,11.5,14.8,18.6c1.5,2.9,2.7,5.9,3.2,9.1C404.6,427.2,404.6,428.1,404.7,428.5z M371.4,428c0.1,2.8,0.7,5.5,2.3,7.8
			c2.7,4.1,6.6,6.1,11.5,6.2c1.4,0,2.5-1,2.5-2.4c0-1.3-1-2.4-2.4-2.5c-0.2,0-0.5,0-0.7,0c-3.4-0.3-5.9-1.9-7.3-5
			c-0.7-1.5-0.9-3.1-1-4.7c-0.1-1.1-0.8-2-1.8-2.3c-1-0.3-2,0.1-2.6,1C371.4,426.6,371.4,427.2,371.4,428z"/>
		<path class="st74" d="M371.4,428c0-0.7,0-1.4,0.4-2c0.6-0.8,1.7-1.2,2.6-1c1.1,0.3,1.8,1.2,1.8,2.3c0.1,1.6,0.2,3.2,1,4.7
			c1.5,3.1,4,4.7,7.3,5c0.2,0,0.5,0,0.7,0c1.4,0.1,2.4,1.2,2.4,2.5c0,1.3-1.1,2.4-2.5,2.4c-4.9-0.1-8.7-2.1-11.5-6.2
			C372.2,433.4,371.5,430.8,371.4,428z"/>
	</g>
	<g id="light">
		<path class="st78" d="M1099.4,628.6c23.1-0.3,42.6,18.8,42.6,42.5c0,23.6-19.3,42.7-43,42.5c-23.1-0.2-42.3-19.3-42.2-42.9
			C1057,647.3,1076.6,628.3,1099.4,628.6z M1098.6,685c2.4,0,4.8,0,7.2,0c1.6,0,1.6,0,1.8-1.6c0-0.2,0.1-0.3,0.1-0.5
			c0.5-3.2,2.2-5.7,4-8.2c3.2-4.3,5.9-8.9,6.3-14.5c0.3-4.2-0.4-8.2-2.8-11.6c-4.6-6.7-11.1-9.7-19.2-8.6
			c-7.1,0.9-12.3,4.7-15.3,11.2c-2.3,5.2-1.8,10.5,0.1,15.7c1.2,3.3,3.4,6,5.4,8.8c1.8,2.6,3.3,5.3,3.5,8.6c0,0.7,0.4,0.8,0.9,0.8
			C1093.3,685,1095.9,685,1098.6,685z M1098.5,691.4c2.2,0,4.4,0,6.6,0c2.4,0,2.3,0,2.4-2.3c0-0.8-0.2-0.9-1-0.9
			c-4.8,0-9.7,0-14.5,0c-2.4,0-2.4,0-2.4,2.4c0,0.7,0.2,0.8,0.9,0.8C1093.2,691.4,1095.9,691.4,1098.5,691.4z M1098.7,694.7
			c-2.7,0-5.4,0-8.1,0c-0.9,0-1,0.3-0.7,1.1c0.4,1.2,1.6,2.2,2.8,2.2c3.9,0,7.8,0,11.7,0c1.5,0,2.6-1,3-2.4c0.2-0.7,0.1-0.9-0.7-0.8
			C1104,694.7,1101.4,694.7,1098.7,694.7z M1098.6,699.5c-0.8,0-1.6,0-2.4,0c-0.7,0-0.9,0.2-0.7,0.9c0.4,1.5,1.7,2.4,3.3,2.4
			c1.5,0,2.7-1.1,3-2.5c0.1-0.7-0.1-0.7-0.6-0.7C1100.3,699.5,1099.4,699.5,1098.6,699.5z"/>
		<path d="M1098.6,685c-2.7,0-5.3,0-8,0c-0.6,0-0.9,0-0.9-0.8c-0.2-3.2-1.6-6-3.5-8.6c-2-2.8-4.2-5.6-5.4-8.8
			c-2-5.2-2.5-10.5-0.1-15.7c2.9-6.6,8.2-10.3,15.3-11.2c8.1-1.1,14.6,2,19.2,8.6c2.4,3.5,3.1,7.4,2.8,11.6
			c-0.4,5.6-3,10.1-6.3,14.5c-1.8,2.5-3.5,5.1-4,8.2c0,0.2-0.1,0.3-0.1,0.5c-0.2,1.6-0.2,1.6-1.8,1.6
			C1103.4,685,1101,685,1098.6,685z M1083.5,656.2c0,1.2,0.6,2,1.4,2.1c0.8,0.1,1.6-0.6,1.8-1.5c0.9-4.2,3.4-7.2,7.3-8.9
			c1.2-0.5,1.6-1.3,1.3-2.1c-0.4-1-1.4-1.3-2.5-0.8c-2.6,1.1-4.8,2.7-6.5,5C1084.8,651.8,1083.9,654,1083.5,656.2z"/>
		<path d="M1098.5,691.4c-2.7,0-5.3,0-8,0c-0.6,0-0.9-0.1-0.9-0.8c0-2.4,0-2.4,2.4-2.4c4.8,0,9.7,0,14.5,0c0.7,0,1,0.1,1,0.9
			c0,2.3,0,2.3-2.4,2.3C1103,691.4,1100.8,691.4,1098.5,691.4z"/>
		<path d="M1098.7,694.7c2.7,0,5.4,0,8.1,0c0.7,0,0.8,0.2,0.7,0.8c-0.4,1.4-1.5,2.4-3,2.4c-3.9,0-7.8,0-11.7,0
			c-1.3,0-2.4-0.9-2.8-2.2c-0.3-0.7-0.2-1.1,0.7-1.1C1093.3,694.7,1096,694.7,1098.7,694.7z"/>
		<path d="M1098.6,699.5c0.8,0,1.7,0,2.5,0c0.6,0,0.8,0.1,0.6,0.7c-0.3,1.4-1.5,2.5-3,2.5c-1.6,0.1-3-0.9-3.3-2.4
			c-0.2-0.7,0-0.9,0.7-0.9C1097,699.5,1097.8,699.5,1098.6,699.5z"/>
		<path class="st78" d="M1083.5,656.2c0.4-2.2,1.3-4.4,2.8-6.4c1.7-2.3,3.9-3.9,6.5-5c1.1-0.5,2.1-0.1,2.5,0.8
			c0.4,0.8-0.1,1.6-1.3,2.1c-3.9,1.7-6.4,4.7-7.3,8.9c-0.2,1-1,1.6-1.8,1.5C1084.1,658.2,1083.5,657.4,1083.5,656.2z"/>
	</g>
	<g id="el">
		<path class="st79" d="M974.6,307c0.5,17.3-14.3,33.2-33.3,33c-18.2-0.2-32.8-15.6-32.5-33.6c0.2-16.8,14.4-32.8,33.7-32.4
			C960.3,274.4,975,289.5,974.6,307z M944.7,292.2c0-2.4,0-4.7,0-7.1c0-1.6-0.8-2.8-2.2-3.1c-1.5-0.4-2.7,0.3-3.4,1.7
			c-4.2,8.7-8.5,17.4-12.7,26.1c-1.2,2.4,0.1,4.6,2.8,4.6c2.9,0,5.9,0,8.8,0c0.6,0,0.8,0.2,0.8,0.8c0,4.7,0,9.3,0,14
			c0,0.4,0,0.8,0.1,1.2c0.2,1.3,1.3,2.3,2.6,2.4c1.4,0.1,2.3-0.5,3.1-2.1c4.2-8.6,8.4-17.2,12.5-25.8c1.1-2.4-0.2-4.5-2.8-4.5
			c-2.9,0-5.9,0-8.8,0c-0.7,0-0.9-0.1-0.9-0.9C944.7,297,944.7,294.6,944.7,292.2z"/>
		<path class="st75" d="M944.7,292.2c0,2.4,0,4.8,0,7.2c0,0.8,0.2,0.9,0.9,0.9c2.9,0,5.9,0,8.8,0c2.6,0,3.9,2.2,2.8,4.5
			c-4.2,8.6-8.4,17.2-12.5,25.8c-0.8,1.6-1.7,2.2-3.1,2.1c-1.3-0.1-2.4-1-2.6-2.4c-0.1-0.4-0.1-0.8-0.1-1.2c0-4.7,0-9.3,0-14
			c0-0.7-0.2-0.8-0.8-0.8c-2.9,0-5.9,0-8.8,0c-2.7,0-4-2.1-2.8-4.6c4.2-8.7,8.5-17.4,12.7-26.1c0.7-1.5,2-2.1,3.4-1.7
			c1.4,0.3,2.2,1.5,2.2,3.1C944.7,287.4,944.7,289.8,944.7,292.2z"/>
	</g>
	<g id="el">
		<path class="st79" d="M532.6,809c0.8,28.9-23.8,55.4-55.5,55c-30.3-0.3-54.7-26-54.2-55.9c0.4-27.9,24-54.6,56.1-54
			C508.8,754.6,533.3,779.9,532.6,809z M482.7,784.3c0-4,0-7.9,0-11.9c0-2.7-1.3-4.6-3.7-5.2c-2.5-0.6-4.5,0.4-5.7,2.9
			c-7.1,14.5-14.1,29-21.2,43.5c-2,4.1,0.2,7.6,4.7,7.6c4.9,0,9.8,0,14.7,0c1.1,0,1.4,0.3,1.4,1.4c0,7.8,0,15.6,0,23.3
			c0,0.6,0,1.3,0.1,1.9c0.4,2.2,2.2,3.8,4.4,3.9c2.3,0.2,3.9-0.9,5.2-3.6c7-14.4,13.9-28.7,20.9-43.1c1.9-3.9-0.3-7.5-4.6-7.5
			c-4.9,0-9.8,0-14.7,0c-1.1,0-1.6-0.2-1.5-1.5C482.8,792.3,482.7,788.3,482.7,784.3z"/>
		<path class="st75" d="M482.7,784.3c0,4,0.1,8,0,12c0,1.3,0.4,1.5,1.5,1.5c4.9-0.1,9.8,0,14.7,0c4.3,0,6.5,3.6,4.6,7.5
			c-7,14.3-13.9,28.7-20.9,43.1c-1.3,2.7-2.8,3.7-5.2,3.6c-2.2-0.1-4-1.7-4.4-3.9c-0.1-0.6-0.1-1.3-0.1-1.9c0-7.8,0-15.6,0-23.3
			c0-1.1-0.3-1.4-1.4-1.4c-4.9,0.1-9.8,0-14.7,0c-4.5,0-6.7-3.6-4.7-7.6c7.1-14.5,14.1-29,21.2-43.5c1.2-2.5,3.3-3.5,5.7-2.9
			c2.3,0.6,3.7,2.4,3.7,5.2C482.7,776.4,482.7,780.3,482.7,784.3z"/>
	</g>
</g>
<g id="POINTS">
</g>
<g id="Kitchen">
</g>
<g id="Livingroom-icons">
</g>
<g id="Livingroom">
</g>
</svg>
