<svg xmlns="http://www.w3.org/2000/svg" viewBox="0 0 1920 1080"><defs><style>.cls-1{fill:#92d1df;}.cls-2{fill:#010101;}.cls-3{fill:#76b62a;}.cls-4{fill:#fab924;}</style></defs><g id="icons"><g id="water"><path class="cls-1" d="M385.07,385.06c20.51-.27,38.38,17.14,37.92,38.82a38,38,0,1,1-37.92-38.82Zm19.59,43.43c0-.43-.05-1.28-.16-2.11a26.44,26.44,0,0,0-3.15-9.13c-3.81-7.09-9.05-13.05-14.79-18.61a2.33,2.33,0,0,0-3.33.11c-.91.88-1.8,1.77-2.68,2.68A73.68,73.68,0,0,0,369,416.53c-2.78,5-4.37,10.24-3.35,16.05,1,5.65,3.75,10.09,8.86,12.86a22,22,0,0,0,14.15,2.26,18.4,18.4,0,0,0,11.75-6.19C403.46,437.88,404.56,433.55,404.66,428.49Z"/><path class="cls-2" d="M404.66,428.49c-.1,5.06-1.2,9.39-4.29,13a18.4,18.4,0,0,1-11.75,6.19,22,22,0,0,1-14.15-2.26c-5.11-2.77-7.86-7.21-8.86-12.86-1-5.81.57-11.05,3.35-16.05a73.68,73.68,0,0,1,11.59-15.1c.88-.91,1.77-1.8,2.68-2.68a2.33,2.33,0,0,1,3.33-.11c5.74,5.56,11,11.52,14.79,18.61a26.44,26.44,0,0,1,3.15,9.13C404.61,427.21,404.63,428.06,404.66,428.49ZM371.43,428a14.84,14.84,0,0,0,2.32,7.83A13.45,13.45,0,0,0,385.22,442a2.44,2.44,0,0,0,2.54-2.39,2.5,2.5,0,0,0-2.41-2.53l-.72,0a8.46,8.46,0,0,1-7.35-5,12.23,12.23,0,0,1-1-4.73,2.43,2.43,0,0,0-1.83-2.29,2.49,2.49,0,0,0-2.62,1A2.94,2.94,0,0,0,371.43,428Z"/><path class="cls-1" d="M371.43,428a2.94,2.94,0,0,1,.44-2,2.49,2.49,0,0,1,2.62-1,2.43,2.43,0,0,1,1.83,2.29,12.23,12.23,0,0,0,1,4.73,8.46,8.46,0,0,0,7.35,5l.72,0a2.5,2.5,0,0,1,2.41,2.53,2.44,2.44,0,0,1-2.54,2.39,13.45,13.45,0,0,1-11.47-6.19A14.84,14.84,0,0,1,371.43,428Z"/></g><g id="light"><path class="cls-3" d="M1099.44,628.64c23.13-.26,42.59,18.81,42.56,42.54a42.57,42.57,0,1,1-85.14-.42C1057,647.32,1076.62,628.3,1099.44,628.64Zm-.85,56.34h7.16c1.65,0,1.65,0,1.81-1.6,0-.17.06-.33.09-.49.51-3.16,2.19-5.75,4-8.24,3.22-4.34,5.85-8.89,6.25-14.47a17.48,17.48,0,0,0-2.79-11.61c-4.65-6.68-11.13-9.69-19.21-8.64a18.47,18.47,0,0,0-15.28,11.22c-2.32,5.18-1.82,10.47.15,15.67,1.24,3.28,3.41,6,5.41,8.83a16.57,16.57,0,0,1,3.47,8.56c0,.73.36.78.93.77C1093.28,685,1095.93,685,1098.59,685Zm0,6.46h6.65c2.37,0,2.33,0,2.36-2.34,0-.79-.24-.93-1-.92-4.84,0-9.67,0-14.51,0-2.42,0-2.39,0-2.37,2.44,0,.69.25.83.87.82C1093.23,691.42,1095.89,691.44,1098.54,691.44Zm.13,3.22c-2.68,0-5.37,0-8.06,0-.92,0-1,.32-.74,1.07a3.16,3.16,0,0,0,2.85,2.18c3.89,0,7.79,0,11.68,0a3.13,3.13,0,0,0,3-2.4c.18-.66.07-.86-.65-.85C1104,694.68,1101.36,694.66,1098.67,694.66Zm-.07,4.84c-.81,0-1.62,0-2.42,0s-.89.22-.73.87a3.22,3.22,0,0,0,3.32,2.39,3.18,3.18,0,0,0,3-2.54c.15-.65-.08-.74-.63-.72C1100.28,699.53,1099.44,699.5,1098.6,699.5Z"/><path d="M1098.59,685c-2.66,0-5.31,0-8,0-.57,0-.89,0-.93-.77a16.57,16.57,0,0,0-3.47-8.56c-2-2.83-4.17-5.55-5.41-8.83-2-5.2-2.47-10.49-.15-15.67a18.47,18.47,0,0,1,15.28-11.22c8.08-1,14.56,2,19.21,8.64a17.48,17.48,0,0,1,2.79,11.61c-.4,5.58-3,10.13-6.25,14.47-1.85,2.49-3.53,5.08-4,8.24,0,.16-.07.32-.09.49-.16,1.6-.16,1.6-1.81,1.6Zm-15.08-28.76c0,1.2.55,1.95,1.37,2a1.79,1.79,0,0,0,1.83-1.54,12,12,0,0,1,7.28-8.9c1.16-.51,1.64-1.29,1.28-2.13a1.79,1.79,0,0,0-2.53-.85,15.36,15.36,0,0,0-6.45,5A14.56,14.56,0,0,0,1083.51,656.22Z"/><path d="M1098.54,691.44c-2.65,0-5.31,0-8,0-.62,0-.87-.13-.87-.82,0-2.44,0-2.44,2.37-2.44,4.84,0,9.67,0,14.51,0,.72,0,1,.13,1,.92,0,2.34,0,2.34-2.36,2.34Z"/><path d="M1098.67,694.66c2.69,0,5.37,0,8.06,0,.72,0,.83.19.65.85a3.13,3.13,0,0,1-3,2.4c-3.89,0-7.79,0-11.68,0a3.16,3.16,0,0,1-2.85-2.18c-.26-.75-.18-1.09.74-1.07C1093.3,694.69,1096,694.66,1098.67,694.66Z"/><path d="M1098.6,699.5c.84,0,1.68,0,2.52,0,.55,0,.78.07.63.72a3.18,3.18,0,0,1-3,2.54,3.22,3.22,0,0,1-3.32-2.39c-.16-.65,0-.92.73-.87S1097.79,699.5,1098.6,699.5Z"/><path class="cls-3" d="M1083.51,656.22a14.56,14.56,0,0,1,2.78-6.36,15.36,15.36,0,0,1,6.45-5,1.79,1.79,0,0,1,2.53.85c.36.84-.12,1.62-1.28,2.13a12,12,0,0,0-7.28,8.9,1.79,1.79,0,0,1-1.83,1.54C1084.06,658.17,1083.49,657.42,1083.51,656.22Z"/></g><g id="el"><path class="cls-4" d="M974.59,307c.49,17.31-14.26,33.22-33.28,33-18.15-.21-32.79-15.6-32.52-33.56.25-16.75,14.4-32.77,33.66-32.41C960.33,274.36,975,289.53,974.59,307Zm-29.92-14.82v-7.11a2.9,2.9,0,0,0-2.2-3.1A2.87,2.87,0,0,0,939,283.7q-6.36,13.05-12.71,26.1c-1.19,2.44.11,4.58,2.84,4.59,2.94,0,5.89,0,8.83,0,.65,0,.83.16.82.82,0,4.66,0,9.33,0,14a6.52,6.52,0,0,0,.09,1.17,2.83,2.83,0,0,0,2.64,2.36c1.41.1,2.32-.54,3.09-2.13q6.27-12.91,12.55-25.83c1.15-2.36-.16-4.51-2.77-4.52-2.95,0-5.89,0-8.84,0-.68,0-.93-.13-.92-.88C944.71,297,944.67,294.57,944.67,292.17Z"/><path class="cls-2" d="M944.67,292.17c0,2.4,0,4.8,0,7.2,0,.75.24.89.92.88,2.95,0,5.89,0,8.84,0,2.61,0,3.92,2.16,2.77,4.52q-6.28,12.9-12.55,25.83c-.77,1.59-1.68,2.23-3.09,2.13a2.83,2.83,0,0,1-2.64-2.36,6.52,6.52,0,0,1-.09-1.17c0-4.66,0-9.33,0-14,0-.66-.17-.83-.82-.82-2.94,0-5.89,0-8.83,0-2.73,0-4-2.15-2.84-4.59q6.38-13.05,12.71-26.1a2.87,2.87,0,0,1,3.43-1.74,2.9,2.9,0,0,1,2.2,3.1Z"/></g><g id="el-2" data-name="el"><path class="cls-4" d="M532.59,809c.8,28.86-23.78,55.37-55.48,55-30.26-.35-54.66-26-54.21-55.94.41-27.93,24-54.63,56.11-54C508.81,754.59,533.3,779.88,532.59,809Zm-49.88-24.7V772.42c0-2.72-1.35-4.61-3.66-5.16a4.77,4.77,0,0,0-5.72,2.89q-10.6,21.75-21.19,43.51c-2,4.07.19,7.63,4.72,7.65,4.91,0,9.82,0,14.73,0,1.08,0,1.38.27,1.37,1.36,0,7.77,0,15.55,0,23.33a11.45,11.45,0,0,0,.15,1.94,4.73,4.73,0,0,0,4.4,3.94c2.34.16,3.87-.9,5.16-3.56q10.44-21.52,20.91-43c1.91-3.93-.27-7.52-4.62-7.53-4.91,0-9.82,0-14.73,0-1.14,0-1.56-.22-1.53-1.47C482.77,792.27,482.71,788.28,482.71,784.28Z"/><path class="cls-2" d="M482.71,784.28c0,4,.06,8,0,12,0,1.25.39,1.48,1.53,1.47,4.91-.06,9.82,0,14.73,0,4.35,0,6.53,3.6,4.62,7.53q-10.47,21.51-20.91,43c-1.29,2.66-2.82,3.72-5.16,3.56a4.73,4.73,0,0,1-4.4-3.94,11.45,11.45,0,0,1-.15-1.94c0-7.78,0-15.56,0-23.33,0-1.09-.29-1.37-1.37-1.36-4.91.06-9.82,0-14.73,0-4.53,0-6.71-3.58-4.72-7.65q10.61-21.75,21.19-43.51a4.77,4.77,0,0,1,5.72-2.89c2.31.55,3.66,2.44,3.66,5.16Z"/></g></g></svg>