<?xml version="1.0" encoding="utf-8"?>
<!-- Generator: Adobe Illustrator 24.3.0, SVG Export Plug-In . SVG Version: 6.00 Build 0)  -->
<svg version="1.1" xmlns="http://www.w3.org/2000/svg" xmlns:xlink="http://www.w3.org/1999/xlink" x="0px" y="0px"
	 viewBox="0 0 1920 1080" style="enable-background:new 0 0 1920 1080;" xml:space="preserve">
<style type="text/css">
	.st0{fill:#D8E9F0;}
	.st1{fill:#3687A4;}
	.st2{fill:#ADDDEC;}
	.st3{opacity:0.4;fill:#FFFFFF;}
	.st4{fill:#FFFFFF;}
	.st5{fill:#A6DEF6;}
	.st6{fill:#FBC45E;}
	.st7{fill:#E89BBE;}
	.st8{fill:#7A8EC7;}
	.st9{fill:none;stroke:#FFFFFF;stroke-width:6;stroke-miterlimit:10;}
	.st10{fill:#C1E6EC;}
	.st11{fill:#FFFFFF;stroke:#FFFFFF;stroke-width:4;stroke-miterlimit:10;}
	.st12{fill:#CBDF8C;}
	.st13{fill:none;stroke:#FFFFFF;stroke-width:2;stroke-miterlimit:10;}
	.st14{fill:#838186;stroke:#838186;stroke-width:4;stroke-miterlimit:10;}
	.st15{fill:#838186;}
	.st16{fill:#DFDFDF;}
	.st17{fill:none;stroke:#FFFFFF;stroke-width:28;stroke-miterlimit:10;}
	.st18{fill:#BFE3D3;}
	.st19{fill:#ADCEC1;}
	.st20{fill:url(#SVGID_1_);}
	.st21{fill:#58C5C7;}
	.st22{fill:#00B6BE;}
	.st23{fill:url(#SVGID_2_);}
	.st24{fill:#DDBCC8;}
	.st25{fill:#BCAB92;}
	.st26{fill:#D6A1B7;}
	.st27{fill:#261F44;}
	.st28{opacity:0.44;fill:#5F5F60;}
	.st29{fill:none;stroke:#998675;stroke-width:2;stroke-miterlimit:10;}
	.st30{fill:#454289;}
	.st31{fill:#38327C;}
	.st32{fill:#E6E6E6;}
	.st33{fill:#FF6699;}
	.st34{fill:#FF4370;}
	.st35{opacity:0.23;fill:#E53C70;}
	.st36{fill:#3F4650;}
	.st37{fill:#0267B6;}
	.st38{fill:#2BB03E;}
	.st39{fill:#EA2023;}
	.st40{fill:#FBED23;}
	.st41{fill:#0E6B7A;}
	.st42{opacity:0.64;fill:url(#SVGID_3_);}
	.st43{fill:none;stroke:#FFFFFF;stroke-width:8.0256;stroke-miterlimit:10;}
	.st44{fill:none;stroke:#FF4370;stroke-width:1.3376;stroke-miterlimit:10;}
	.st45{fill:url(#bedroom_x5F_lys_17_);}
	.st46{fill:url(#bedroom_x5F_lys_18_);}
	.st47{fill:url(#bedroom_x5F_lys_19_);}
	.st48{fill:url(#bedroom_x5F_lys_20_);}
	.st49{fill:url(#bedroom_x5F_lys_21_);}
	.st50{fill:url(#bedroom_x5F_lys_22_);}
	.st51{fill:url(#bedroom_x5F_lys_23_);}
	.st52{fill:url(#bedroom_x5F_lys_24_);}
	.st53{fill:url(#bedroom_x5F_lys_25_);}
	.st54{fill:url(#bedroom_x5F_lys_26_);}
	.st55{fill:url(#bedroom_x5F_lys_27_);}
	.st56{fill:url(#bedroom_x5F_lys_28_);}
	.st57{fill:url(#bedroom_x5F_lys_29_);}
	.st58{fill:url(#bedroom_x5F_lys_30_);}
	.st59{fill:url(#bedroom_x5F_lys_31_);}
	.st60{fill:url(#bedroom_x5F_lys_32_);}
	.st61{fill:url(#bedroom_x5F_lys_33_);}
	.st62{fill:#E53C70;}
	.st63{fill:#FF83B3;}
	.st64{fill:#EBB724;}
	.st65{fill:#FFC727;}
	.st66{fill:#50ACB0;}
	.st67{fill:#FD8283;}
	.st68{fill:#F07B7C;}
	.st69{fill:#3C8185;}
	.st70{display:none;fill:#3C8185;}
	.st71{fill:#ECECEC;}
	.st72{fill:#BEC3C7;}
	.st73{fill:#DAE0E2;}
	.st74{fill:#92D1DF;}
	.st75{fill:#010101;}
	.st76{fill:#FDEE40;}
	.st77{fill:#020202;}
	.st78{fill:#76B62A;}
	.st79{fill:#FAB924;}
	.st80{fill:#F20303;}
	.st81{fill:#ABD2D0;}
	.st82{fill:#968976;}
	.st83{fill:#70675B;}
	.st84{fill:#E4DECE;}
	.st85{fill:#93B7B6;}
	.st86{fill:#C9F9F9;}
	.st87{fill:none;stroke:#FFFFFF;stroke-width:2.9103;stroke-miterlimit:10;}
	.st88{fill:#F1893A;}
	.st89{fill:#C96E31;}
	.st90{fill:#DB7838;}
	.st91{fill:#2F3E4C;}
	.st92{fill:#FFDD83;}
	.st93{fill:#219260;}
	.st94{fill:#147798;}
	.st95{fill:#915E36;}
	.st96{fill:#FB8710;}
	.st97{fill:#CA9E64;}
	.st98{fill:#B07F48;}
	.st99{fill:#53D678;}
	.st100{fill:#5C4B51;}
	.st101{fill:#F06060;}
	.st102{fill:#F2EBBF;}
	.st103{fill:none;stroke:#5C4B51;stroke-width:3.4462;stroke-linecap:round;stroke-linejoin:round;stroke-miterlimit:10;}
	.st104{opacity:0.38;fill:none;stroke:#FFFFFF;stroke-width:7;stroke-linecap:round;stroke-linejoin:round;stroke-miterlimit:10;}
	.st105{fill:#5C4B7A;}
	.st106{fill:#F03960;}
	.st107{fill:#FFC783;}
	.st108{fill:#5C1A51;}
	.st109{fill:#52BEB2;}
	.st110{fill:#F0A660;}
	.st111{fill:#F3B562;}
	.st112{fill:#87A978;}
	.st113{fill:#93BD85;}
	.st114{fill:#ACDA99;}
	.st115{fill:#475362;}
	.st116{fill:#627289;}
	.st117{fill:#303846;}
	.st118{fill:#41505E;}
	.st119{fill:none;stroke:#87A978;stroke-width:1.1982;stroke-miterlimit:10;}
	.st120{fill:#B4E6A1;}
	.st121{fill:none;stroke:#87A978;stroke-width:0.8558;stroke-miterlimit:10;}
	.st122{fill:#6E8462;}
	.st123{fill-rule:evenodd;clip-rule:evenodd;fill:#F0EEE6;}
	.st124{fill:#E4E0D9;}
	.st125{fill:#DC9C76;}
	.st126{fill:#729C76;}
	.st127{fill:#A94B51;}
	.st128{fill:#974B51;}
	.st129{opacity:0.5;fill:#CC575E;}
	.st130{fill:#7F9C76;}
	.st131{fill:#F27800;}
	.st132{fill:#613D4A;}
	.st133{fill:#004F4D;}
	.st134{fill:#007F4F;}
	.st135{fill:#00654D;}
	.st136{fill:#F59333;}
	.st137{fill:#F1ECDA;}
	.st138{fill:#88A8A7;}
	.st139{fill:url(#SVGID_4_);}
	.st140{fill:#E6E7E8;}
	.st141{fill:#D1D3D4;}
	.st142{fill:#FDBA4A;}
	.st143{fill:#FAA222;}
	.st144{fill:#D3DEBC;}
	.st145{fill:#CC883B;}
	.st146{fill-rule:evenodd;clip-rule:evenodd;fill:#919697;}
	.st147{fill-rule:evenodd;clip-rule:evenodd;fill:#36343A;}
	.st148{fill-rule:evenodd;clip-rule:evenodd;fill:#0C050D;stroke:#0C050D;stroke-width:0.235;stroke-miterlimit:22.9256;}
	.st149{fill-rule:evenodd;clip-rule:evenodd;fill:#36343A;stroke:#0C050D;stroke-width:0.235;stroke-miterlimit:22.9256;}
	.st150{fill-rule:evenodd;clip-rule:evenodd;fill:#7D8082;}
	.st151{fill-rule:evenodd;clip-rule:evenodd;fill:#5BBA47;}
	.st152{fill-rule:evenodd;clip-rule:evenodd;fill:#818081;}
	.st153{fill-rule:evenodd;clip-rule:evenodd;fill:#666264;}
	.st154{fill-rule:evenodd;clip-rule:evenodd;fill:#3B3438;}
	.st155{fill-rule:evenodd;clip-rule:evenodd;fill:#62C3D2;}
	.st156{fill-rule:evenodd;clip-rule:evenodd;fill:#A0D6E1;}
	.st157{fill-rule:evenodd;clip-rule:evenodd;fill:#00B6E8;}
	.st158{fill-rule:evenodd;clip-rule:evenodd;fill:#232938;}
	.st159{fill-rule:evenodd;clip-rule:evenodd;fill:#E5B249;}
	.st160{fill-rule:evenodd;clip-rule:evenodd;fill:#D4C2AB;}
	.st161{fill-rule:evenodd;clip-rule:evenodd;fill:#E1894A;}
	.st162{fill-rule:evenodd;clip-rule:evenodd;fill:#FFFFFF;}
	.st163{fill:#232938;}
	.st164{fill:#A9B392;}
	.st165{fill:#E5B249;}
	.st166{fill-rule:evenodd;clip-rule:evenodd;fill:#A9B392;}
	.st167{fill:#F45A2A;}
	.st168{fill:#F67B46;}
	.st169{fill:#E73F1F;}
	.st170{fill:#E1894A;}
	.st171{fill:#0A837F;}
	.st172{fill:#1DA19F;}
	.st173{fill:#3A6B34;}
	.st174{fill:#96BCBB;}
	.st175{fill:#68858E;}
	.st176{fill:#69935F;}
	.st177{fill:#B75353;}
	.st178{fill:#E0A76E;}
	.st179{fill:#F0D1BC;}
	.st180{fill:#1D2E35;}
	.st181{fill:#272A33;}
	.st182{fill:#563B31;}
	.st183{fill:#462D23;}
	.st184{fill:#FF8D0C;}
	.st185{fill:#FFBF17;}
	.st186{fill:#FFF2EB;}
	.st187{fill:#FFD690;}
	.st188{fill:#FFE5BF;}
	.st189{fill:#F9C44E;}
	.st190{fill:#F9DCB2;}
	.st191{fill:#F9EAD7;}
	.st192{fill:#61AA6A;}
	.st193{fill:#DCD8A0;}
	.st194{fill:#F8F6D3;}
	.st195{fill:#E8E4BF;}
	.st196{fill:#F1CC5E;}
	.st197{fill:#BB8150;}
	.st198{fill:#D09059;}
	.st199{fill:#E3AA79;}
	.st200{fill:#6FC07F;}
	.st201{fill:#A56A2D;}
	.st202{fill:url(#SVGID_5_);}
	.st203{fill:#EFA68F;}
	.st204{fill:#F28B66;}
	.st205{fill-rule:evenodd;clip-rule:evenodd;fill:#999A9A;}
	.st206{fill-rule:evenodd;clip-rule:evenodd;fill:#F3C54B;}
	.st207{fill-rule:evenodd;clip-rule:evenodd;fill:#BBBABA;}
	.st208{fill-rule:evenodd;clip-rule:evenodd;fill:#009CB4;}
	.st209{fill:url(#SVGID_6_);}
	.st210{fill:#3F4E61;}
	.st211{fill:#BE6647;}
	.st212{fill:#404F5F;}
	.st213{fill:#117598;}
	.st214{opacity:0.5;fill:#FF6E86;}
</style>
<g id="Bathroom-icons">
</g>
<g id="Bathroom">
</g>
<g id="Bedroom-icons">
</g>
<g id="Bedroom">
</g>
<g id="icons">
	<g id="water">
		<path class="st74" d="M1416.2,131.1c25.6-0.3,48,21.4,47.4,48.5c-0.5,24.9-21.2,46.7-48.1,46.4c-25.5-0.3-47.2-21.2-46.9-48
			C1368.8,152.1,1390,130.8,1416.2,131.1z M1440.7,185.4c0-0.5-0.1-1.6-0.2-2.6c-0.5-4.1-2-7.8-3.9-11.4
			c-4.8-8.9-11.3-16.3-18.5-23.3c-1.2-1.2-2.9-1.1-4.2,0.1c-1.1,1.1-2.3,2.2-3.3,3.3c-5.5,5.8-10.6,11.9-14.5,18.9
			c-3.5,6.3-5.5,12.8-4.2,20.1c1.2,7.1,4.7,12.6,11.1,16.1c5.5,3,11.5,3.8,17.7,2.8c5.8-0.9,10.8-3.2,14.7-7.7
			C1439.2,197.1,1440.6,191.7,1440.7,185.4z"/>
		<path class="st75" d="M1440.7,185.4c-0.1,6.3-1.5,11.7-5.4,16.3c-3.9,4.5-8.9,6.9-14.7,7.7c-6.2,0.9-12.1,0.2-17.7-2.8
			c-6.4-3.5-9.8-9-11.1-16.1c-1.3-7.3,0.7-13.8,4.2-20.1c3.9-7,9-13.1,14.5-18.9c1.1-1.1,2.2-2.3,3.3-3.3c1.2-1.2,3-1.3,4.2-0.1
			c7.2,6.9,13.7,14.4,18.5,23.3c1.9,3.6,3.4,7.3,3.9,11.4C1440.6,183.8,1440.6,184.8,1440.7,185.4z M1399.1,184.7
			c0.1,3.5,0.9,6.8,2.9,9.8c3.4,5.1,8.3,7.6,14.3,7.7c1.8,0,3.1-1.3,3.2-3c0-1.7-1.2-3-3-3.2c-0.3,0-0.6,0-0.9-0.1
			c-4.2-0.4-7.3-2.4-9.2-6.3c-0.9-1.9-1.1-3.9-1.2-5.9c-0.1-1.4-1-2.5-2.3-2.9c-1.2-0.3-2.5,0.2-3.3,1.2
			C1399.2,183,1399.1,183.8,1399.1,184.7z"/>
		<path class="st74" d="M1399.1,184.7c-0.1-0.9,0-1.7,0.6-2.5c0.7-1.1,2.1-1.6,3.3-1.2c1.3,0.3,2.2,1.4,2.3,2.9c0.1,2,0.3,4,1.2,5.9
			c1.9,3.8,4.9,5.9,9.2,6.3c0.3,0,0.6,0,0.9,0.1c1.8,0.1,3.1,1.5,3,3.2c0,1.7-1.4,3-3.2,3c-6.1-0.2-10.9-2.6-14.3-7.7
			C1400.1,191.5,1399.3,188.2,1399.1,184.7z"/>
	</g>
	<g id="water">
		<path class="st74" d="M988.7,418.1c22.4-0.3,41.8,18.7,41.3,42.3c-0.5,21.7-18.5,40.7-42,40.5c-22.2-0.3-41.1-18.5-40.9-41.8
			C947.3,436.4,965.8,417.8,988.7,418.1z M1010,465.4c0-0.5-0.1-1.4-0.2-2.3c-0.5-3.6-1.8-6.8-3.4-10c-4.2-7.7-9.9-14.2-16.1-20.3
			c-1-1-2.5-0.9-3.6,0.1c-1,1-2,1.9-2.9,2.9c-4.8,5-9.2,10.4-12.6,16.5c-3,5.5-4.8,11.2-3.6,17.5c1.1,6.2,4.1,11,9.7,14
			c4.8,2.6,10,3.3,15.4,2.5c5-0.8,9.5-2.8,12.8-6.8C1008.7,475.6,1009.9,470.9,1010,465.4z"/>
		<path class="st75" d="M1010,465.4c-0.1,5.5-1.3,10.2-4.7,14.2c-3.4,4-7.8,6-12.8,6.8c-5.4,0.8-10.6,0.2-15.4-2.5
			c-5.6-3-8.6-7.9-9.7-14c-1.1-6.3,0.6-12,3.6-17.5c3.4-6.1,7.8-11.4,12.6-16.5c1-1,1.9-2,2.9-2.9c1.1-1,2.6-1.1,3.6-0.1
			c6.3,6.1,12,12.6,16.1,20.3c1.7,3.1,3,6.4,3.4,10C1010,464,1010,464.9,1010,465.4z M973.8,464.8c0.1,3.1,0.8,6,2.5,8.5
			c3,4.5,7.2,6.6,12.5,6.7c1.6,0,2.7-1.1,2.8-2.6c0-1.5-1.1-2.6-2.6-2.8c-0.3,0-0.5,0-0.8,0c-3.7-0.3-6.4-2.1-8-5.5
			c-0.8-1.6-1-3.4-1-5.2c-0.1-1.2-0.9-2.2-2-2.5c-1-0.3-2.2,0.2-2.9,1.1C973.8,463.3,973.7,464,973.8,464.8z"/>
		<path class="st74" d="M973.8,464.8c-0.1-0.8,0-1.5,0.5-2.2c0.7-0.9,1.8-1.4,2.9-1.1c1.2,0.3,1.9,1.3,2,2.5c0.1,1.8,0.3,3.5,1,5.2
			c1.6,3.4,4.3,5.1,8,5.5c0.3,0,0.5,0,0.8,0c1.5,0.1,2.7,1.3,2.6,2.8c0,1.5-1.2,2.6-2.8,2.6c-5.3-0.1-9.5-2.3-12.5-6.7
			C974.6,470.8,973.9,467.9,973.8,464.8z"/>
	</g>
	<g id="water">
		<path class="st74" d="M695.2,309.1c24.3-0.3,45.5,20.3,44.9,46c-0.5,23.6-20.1,44.2-45.6,44c-24.2-0.3-44.7-20.1-44.5-45.5
			C650.3,329,670.4,308.8,695.2,309.1z M718.4,360.5c0-0.5-0.1-1.5-0.2-2.5c-0.5-3.9-1.9-7.4-3.7-10.8c-4.5-8.4-10.7-15.5-17.5-22
			c-1.1-1.1-2.8-1-3.9,0.1c-1.1,1-2.1,2.1-3.2,3.2c-5.2,5.5-10,11.2-13.7,17.9c-3.3,5.9-5.2,12.1-4,19c1.2,6.7,4.4,12,10.5,15.2
			c5.3,2.8,10.9,3.6,16.8,2.7c5.5-0.8,10.3-3,13.9-7.3C717,371.6,718.3,366.5,718.4,360.5z"/>
		<path class="st75" d="M718.4,360.5c-0.1,6-1.4,11.1-5.1,15.4c-3.7,4.3-8.4,6.5-13.9,7.3c-5.9,0.9-11.5,0.2-16.8-2.7
			c-6.1-3.3-9.3-8.5-10.5-15.2c-1.2-6.9,0.7-13.1,4-19c3.7-6.6,8.5-12.4,13.7-17.9c1-1.1,2.1-2.1,3.2-3.2c1.2-1.1,2.8-1.2,3.9-0.1
			c6.8,6.6,13,13.6,17.5,22c1.8,3.4,3.2,7,3.7,10.8C718.4,359,718.4,360,718.4,360.5z M679.1,359.9c0.1,3.3,0.9,6.5,2.7,9.3
			c3.2,4.8,7.8,7.2,13.6,7.3c1.7,0,3-1.2,3-2.8c0-1.6-1.2-2.9-2.9-3c-0.3,0-0.6,0-0.9,0c-4-0.3-6.9-2.3-8.7-5.9
			c-0.9-1.8-1-3.7-1.1-5.6c-0.1-1.3-0.9-2.4-2.2-2.7c-1.1-0.3-2.4,0.2-3.1,1.2C679.1,358.2,679,359,679.1,359.9z"/>
		<path class="st74" d="M679.1,359.9c-0.1-0.8,0-1.6,0.5-2.3c0.7-1,2-1.5,3.1-1.2c1.2,0.3,2.1,1.4,2.2,2.7c0.1,1.9,0.3,3.8,1.1,5.6
			c1.8,3.6,4.7,5.6,8.7,5.9c0.3,0,0.6,0,0.9,0c1.7,0.1,2.9,1.4,2.9,3c0,1.6-1.3,2.9-3,2.8c-5.7-0.2-10.4-2.5-13.6-7.3
			C680,366.3,679.2,363.2,679.1,359.9z"/>
	</g>
	<g id="water">
		<path class="st74" d="M370.7,151.1c27.5-0.4,51.5,23,50.9,52.1c-0.6,26.7-22.8,50.2-51.7,49.8c-27.4-0.3-50.6-22.7-50.4-51.5
			C319.8,173.7,342.5,150.8,370.7,151.1z M397,209.4c0-0.6-0.1-1.7-0.2-2.8c-0.6-4.4-2.2-8.4-4.2-12.3c-5.1-9.5-12.2-17.5-19.9-25
			c-1.3-1.2-3.1-1.1-4.5,0.2c-1.2,1.2-2.4,2.4-3.6,3.6c-5.9,6.2-11.4,12.7-15.6,20.3c-3.7,6.7-5.9,13.7-4.5,21.5
			c1.3,7.6,5,13.5,11.9,17.3c6,3.2,12.3,4,19,3c6.2-0.9,11.6-3.5,15.8-8.3C395.4,222,396.8,216.2,397,209.4z"/>
		<path class="st75" d="M397,209.4c-0.1,6.8-1.6,12.6-5.8,17.5c-4.1,4.9-9.6,7.4-15.8,8.3c-6.6,1-13,0.2-19-3
			c-6.9-3.7-10.6-9.7-11.9-17.3c-1.4-7.8,0.8-14.8,4.5-21.5c4.2-7.5,9.6-14.1,15.6-20.3c1.2-1.2,2.4-2.4,3.6-3.6
			c1.3-1.3,3.2-1.4,4.5-0.2c7.7,7.5,14.7,15.5,19.9,25c2.1,3.9,3.7,7.9,4.2,12.3C396.9,207.6,396.9,208.8,397,209.4z M352.4,208.6
			c0.2,3.8,1,7.3,3.1,10.5c3.7,5.5,8.9,8.1,15.4,8.3c1.9,0.1,3.4-1.4,3.4-3.2c0-1.8-1.3-3.2-3.2-3.4c-0.3,0-0.6,0-1-0.1
			c-4.6-0.4-7.9-2.6-9.9-6.7c-1-2-1.2-4.2-1.3-6.3c-0.1-1.5-1.1-2.7-2.5-3.1c-1.3-0.3-2.7,0.2-3.5,1.3
			C352.4,206.8,352.3,207.7,352.4,208.6z"/>
		<path class="st74" d="M352.4,208.6c-0.1-0.9,0-1.9,0.6-2.7c0.8-1.1,2.2-1.7,3.5-1.3c1.4,0.4,2.4,1.6,2.5,3.1
			c0.1,2.2,0.3,4.3,1.3,6.3c2,4.1,5.3,6.3,9.9,6.7c0.3,0,0.6,0,1,0.1c1.9,0.1,3.3,1.6,3.2,3.4c0,1.8-1.5,3.3-3.4,3.2
			c-6.5-0.2-11.7-2.8-15.4-8.3C353.4,216,352.5,212.4,352.4,208.6z"/>
	</g>
	<g id="light">
		<path class="st78" d="M336.4,813.6c26.8-0.3,49.3,21.8,49.2,49.2c0,27.3-22.4,49.4-49.7,49.2c-26.7-0.2-49-22.4-48.8-49.7
			C287.4,835.2,310,813.2,336.4,813.6z M335.4,878.8c2.8,0,5.5,0,8.3,0c1.9,0,1.9,0,2.1-1.8c0-0.2,0.1-0.4,0.1-0.6
			c0.6-3.6,2.5-6.6,4.7-9.5c3.7-5,6.8-10.3,7.2-16.7c0.3-4.9-0.4-9.4-3.2-13.4c-5.4-7.7-12.9-11.2-22.2-10
			c-8.2,1.1-14.3,5.4-17.7,13c-2.7,6-2.1,12.1,0.2,18.1c1.4,3.8,3.9,6.9,6.3,10.2c2.1,3,3.8,6.2,4,9.9c0.1,0.8,0.4,0.9,1.1,0.9
			C329.3,878.8,332.4,878.8,335.4,878.8z M335.4,886.3c2.6,0,5.1,0,7.7,0c2.7,0,2.7,0,2.7-2.7c0-0.9-0.3-1.1-1.1-1.1
			c-5.6,0-11.2,0-16.8,0c-2.8,0-2.8,0-2.7,2.8c0,0.8,0.3,1,1,1C329.2,886.2,332.3,886.3,335.4,886.3z M335.5,890c-3.1,0-6.2,0-9.3,0
			c-1.1,0-1.2,0.4-0.9,1.2c0.5,1.4,1.8,2.5,3.3,2.5c4.5,0,9,0,13.5,0c1.7,0,3-1.2,3.4-2.8c0.2-0.8,0.1-1-0.8-1
			C341.7,890,338.6,890,335.5,890z M335.4,895.6c-0.9,0-1.9,0-2.8,0c-0.8-0.1-1,0.3-0.8,1c0.4,1.7,2,2.8,3.8,2.8
			c1.7-0.1,3.1-1.3,3.5-2.9c0.2-0.8-0.1-0.9-0.7-0.8C337.4,895.6,336.4,895.6,335.4,895.6z"/>
		<path d="M335.4,878.8c-3.1,0-6.1,0-9.2,0c-0.7,0-1,0-1.1-0.9c-0.2-3.7-1.9-6.9-4-9.9c-2.3-3.3-4.8-6.4-6.3-10.2
			c-2.3-6-2.9-12.1-0.2-18.1c3.4-7.6,9.5-11.9,17.7-13c9.3-1.2,16.8,2.3,22.2,10c2.8,4,3.6,8.6,3.2,13.4c-0.5,6.5-3.5,11.7-7.2,16.7
			c-2.1,2.9-4.1,5.9-4.7,9.5c0,0.2-0.1,0.4-0.1,0.6c-0.2,1.8-0.2,1.8-2.1,1.8C340.9,878.8,338.2,878.8,335.4,878.8z M318,845.5
			c0,1.4,0.6,2.3,1.6,2.4c0.9,0.1,1.9-0.7,2.1-1.8c1-4.9,3.9-8.3,8.4-10.3c1.3-0.6,1.9-1.5,1.5-2.5c-0.5-1.1-1.6-1.5-2.9-1
			c-3,1.3-5.5,3.2-7.5,5.8C319.5,840.5,318.4,843,318,845.5z"/>
		<path d="M335.4,886.3c-3.1,0-6.1,0-9.2,0c-0.7,0-1-0.2-1-1c0-2.8-0.1-2.8,2.7-2.8c5.6,0,11.2,0,16.8,0c0.8,0,1.1,0.2,1.1,1.1
			c0,2.7,0,2.7-2.7,2.7C340.5,886.3,337.9,886.3,335.4,886.3z"/>
		<path d="M335.5,890c3.1,0,6.2,0,9.3,0c0.8,0,1,0.2,0.8,1c-0.4,1.6-1.8,2.8-3.4,2.8c-4.5,0-9,0-13.5,0c-1.5,0-2.8-1.1-3.3-2.5
			c-0.3-0.9-0.2-1.3,0.9-1.2C329.3,890,332.4,890,335.5,890z"/>
		<path d="M335.4,895.6c1,0,1.9,0,2.9,0c0.6,0,0.9,0.1,0.7,0.8c-0.4,1.6-1.7,2.9-3.5,2.9c-1.9,0.1-3.4-1.1-3.8-2.8
			c-0.2-0.8,0-1.1,0.8-1C333.6,895.6,334.5,895.6,335.4,895.6z"/>
		<path class="st78" d="M318,845.5c0.4-2.5,1.5-5.1,3.2-7.4c1.9-2.6,4.5-4.5,7.5-5.8c1.3-0.5,2.4-0.1,2.9,1c0.4,1-0.1,1.9-1.5,2.5
			c-4.5,2-7.4,5.4-8.4,10.3c-0.2,1.1-1.2,1.9-2.1,1.8C318.6,847.8,318,846.9,318,845.5z"/>
	</g>
	<g id="light">
		<path class="st78" d="M1731,484.6c22.3-0.3,41,18.1,41,40.9c0,22.7-18.6,41.1-41.4,40.9c-22.2-0.2-40.7-18.6-40.6-41.3
			C1690.2,502.6,1709,484.3,1731,484.6z M1730.2,538.8c2.3,0,4.6,0,6.9,0c1.6,0,1.6,0,1.7-1.5c0-0.2,0.1-0.3,0.1-0.5
			c0.5-3,2.1-5.5,3.9-7.9c3.1-4.2,5.6-8.6,6-13.9c0.3-4-0.4-7.8-2.7-11.2c-4.5-6.4-10.7-9.3-18.5-8.3c-6.8,0.9-11.9,4.5-14.7,10.8
			c-2.2,5-1.8,10.1,0.1,15.1c1.2,3.2,3.3,5.8,5.2,8.5c1.8,2.5,3.2,5.1,3.3,8.2c0,0.7,0.3,0.8,0.9,0.7
			C1725,538.8,1727.6,538.8,1730.2,538.8z M1730.1,545.1c2.1,0,4.3,0,6.4,0c2.3,0,2.2,0,2.3-2.2c0-0.8-0.2-0.9-0.9-0.9
			c-4.7,0-9.3,0-14,0c-2.3,0-2.3,0-2.3,2.3c0,0.7,0.2,0.8,0.8,0.8C1725,545.1,1727.6,545.1,1730.1,545.1z M1730.2,548.2
			c-2.6,0-5.2,0-7.8,0c-0.9,0-1,0.3-0.7,1c0.4,1.2,1.5,2.1,2.7,2.1c3.7,0,7.5,0,11.2,0c1.4,0,2.5-1,2.9-2.3c0.2-0.6,0.1-0.8-0.6-0.8
			C1735.4,548.2,1732.8,548.2,1730.2,548.2z M1730.2,552.8c-0.8,0-1.6,0-2.3,0c-0.7,0-0.9,0.2-0.7,0.8c0.3,1.4,1.6,2.3,3.2,2.3
			c1.4,0,2.6-1.1,2.9-2.4c0.1-0.6-0.1-0.7-0.6-0.7C1731.8,552.9,1731,552.8,1730.2,552.8z"/>
		<path d="M1730.2,538.8c-2.6,0-5.1,0-7.7,0c-0.6,0-0.9,0-0.9-0.7c-0.2-3.1-1.6-5.7-3.3-8.2c-1.9-2.7-4-5.3-5.2-8.5
			c-1.9-5-2.4-10.1-0.1-15.1c2.8-6.3,7.9-9.9,14.7-10.8c7.8-1,14,1.9,18.5,8.3c2.3,3.3,3,7.1,2.7,11.2c-0.4,5.4-2.9,9.8-6,13.9
			c-1.8,2.4-3.4,4.9-3.9,7.9c0,0.2-0.1,0.3-0.1,0.5c-0.2,1.5-0.2,1.5-1.7,1.5C1734.8,538.8,1732.5,538.8,1730.2,538.8z
			 M1715.6,511.2c0,1.2,0.5,1.9,1.3,2c0.8,0.1,1.6-0.6,1.8-1.5c0.9-4.1,3.2-6.9,7-8.6c1.1-0.5,1.6-1.2,1.2-2.1
			c-0.4-0.9-1.4-1.3-2.4-0.8c-2.5,1.1-4.6,2.6-6.2,4.8C1716.9,507,1716,509.1,1715.6,511.2z"/>
		<path d="M1730.1,545.1c-2.6,0-5.1,0-7.7,0c-0.6,0-0.8-0.1-0.8-0.8c0-2.3,0-2.3,2.3-2.3c4.7,0,9.3,0,14,0c0.7,0,0.9,0.1,0.9,0.9
			c0,2.2,0,2.2-2.3,2.2C1734.4,545.1,1732.2,545.1,1730.1,545.1z"/>
		<path d="M1730.2,548.2c2.6,0,5.2,0,7.8,0c0.7,0,0.8,0.2,0.6,0.8c-0.4,1.3-1.5,2.3-2.9,2.3c-3.7,0-7.5,0-11.2,0
			c-1.2,0-2.3-0.9-2.7-2.1c-0.3-0.7-0.2-1,0.7-1C1725.1,548.2,1727.7,548.2,1730.2,548.2z"/>
		<path d="M1730.2,552.8c0.8,0,1.6,0,2.4,0c0.5,0,0.7,0.1,0.6,0.7c-0.3,1.4-1.4,2.4-2.9,2.4c-1.5,0.1-2.8-0.9-3.2-2.3
			c-0.2-0.6,0-0.9,0.7-0.8C1728.6,552.9,1729.4,552.8,1730.2,552.8z"/>
		<path class="st78" d="M1715.6,511.2c0.3-2.1,1.3-4.2,2.7-6.1c1.6-2.2,3.7-3.8,6.2-4.8c1.1-0.5,2-0.1,2.4,0.8
			c0.3,0.8-0.1,1.6-1.2,2.1c-3.8,1.7-6.1,4.5-7,8.6c-0.2,0.9-1,1.6-1.8,1.5C1716.2,513.1,1715.6,512.3,1715.6,511.2z"/>
	</g>
</g>
<g id="POINTS">
</g>
<g id="Kitchen">
</g>
<g id="Livingroom-icons">
</g>
<g id="Livingroom">
</g>
</svg>
