<svg xmlns="http://www.w3.org/2000/svg" xmlns:xlink="http://www.w3.org/1999/xlink" viewBox="0 0 1920 1080"><defs><style>.cls-1{fill:#abd2d0;}.cls-2{fill:#968976;}.cls-3{fill:#70675b;}.cls-4{fill:#e4dece;}.cls-5{fill:#93b7b6;}.cls-6{fill:#c9f9f9;}.cls-24,.cls-25,.cls-40,.cls-42,.cls-7{fill:none;}.cls-25,.cls-7{stroke:#fff;}.cls-40,.cls-42,.cls-7{stroke-miterlimit:10;}.cls-7{stroke-width:2.91px;}.cls-8{fill:#f1893a;}.cls-9{fill:#c96e31;}.cls-10{fill:#db7838;}.cls-11{fill:#2f3e4c;}.cls-12{fill:#fff;}.cls-13{fill:#ffdd83;}.cls-14{fill:#219260;}.cls-15{fill:#147798;}.cls-16{fill:#915e36;}.cls-17{fill:#fb8710;}.cls-18{fill:#ca9e64;}.cls-19{fill:#b07f48;}.cls-20{fill:#53d678;}.cls-21{fill:#5c4b51;}.cls-22{fill:#f06060;}.cls-23{fill:#f2ebbf;}.cls-24{stroke:#5c4b51;stroke-width:3.45px;}.cls-24,.cls-25{stroke-linecap:round;stroke-linejoin:round;}.cls-25{stroke-width:7px;opacity:0.38;}.cls-26{fill:#5c4b7a;}.cls-27{fill:#f03960;}.cls-28{fill:#ffc783;}.cls-29{fill:#5c1a51;}.cls-30{fill:#52beb2;}.cls-31{fill:#f0a660;}.cls-32{fill:#f3b562;}.cls-33{fill:#87a978;}.cls-34{fill:#93bd85;}.cls-35{fill:#acda99;}.cls-36{fill:#475362;}.cls-37{fill:#627289;}.cls-38{fill:#303846;}.cls-39{fill:#41505e;}.cls-40,.cls-42{stroke:#87a978;}.cls-40{stroke-width:1.2px;}.cls-41{fill:#b4e6a1;}.cls-42{stroke-width:0.86px;}.cls-43{fill:#6e8462;}.cls-44,.cls-45{fill:#f0eee6;}.cls-44{fill-rule:evenodd;}.cls-46{fill:#e4e0d9;}.cls-47{fill:#dc9c76;}.cls-48{fill:#729c76;}.cls-49{fill:#a94b51;}.cls-50{fill:#974b51;}.cls-51{fill:#cc575e;}.cls-51,.cls-70{opacity:0.5;}.cls-52{fill:#7f9c76;}.cls-53{fill:#f27800;}.cls-54{fill:#613d4a;}.cls-55{fill:#004f4d;}.cls-56{fill:#007f4f;}.cls-57{fill:#00654d;}.cls-58{fill:#f59333;}.cls-59{fill:#f1ecda;}.cls-60{fill:#88a8a7;}.cls-61{fill:url(#linear-gradient);}.cls-62{fill:#e6e7e8;}.cls-63{fill:#d1d3d4;}.cls-64{fill:#fdba4a;}.cls-65{fill:#faa222;}.cls-66{fill:#3f4e61;}.cls-67{fill:#be6647;}.cls-68{fill:#404f5f;}.cls-69{fill:#117598;}.cls-70{fill:#ff6e86;}</style><linearGradient id="linear-gradient" x1="367.38" y1="354.83" x2="367.38" y2="463" gradientUnits="userSpaceOnUse"><stop offset="0.39" stop-color="#ffffa7"/><stop offset="0.53" stop-color="#ffffbc" stop-opacity="0.76"/><stop offset="0.76" stop-color="#ffffe0" stop-opacity="0.36"/><stop offset="0.92" stop-color="#fffff6" stop-opacity="0.1"/><stop offset="1" stop-color="#fff" stop-opacity="0"/></linearGradient></defs><g id="Kitchen"><rect class="cls-1" x="1" width="1920" height="1079"/><rect class="cls-2" x="0.5" y="911.5" width="1920" height="168"/><rect class="cls-3" y="881" width="1920" height="51"/><rect class="cls-4" x="956" y="126" width="346" height="441"/><rect class="cls-5" x="1002" y="169" width="258" height="356"/><rect class="cls-6" x="1006" y="173" width="122" height="113"/><rect class="cls-6" x="1134" y="173" width="122" height="113"/><rect class="cls-6" x="1006" y="291" width="122" height="113"/><rect class="cls-6" x="1134" y="291" width="122" height="113"/><rect class="cls-6" x="1006" y="409" width="122" height="113"/><rect class="cls-6" x="1134" y="409" width="122" height="113"/><rect class="cls-7" x="992.5" y="158.5" width="278" height="376"/><rect class="cls-8" x="719" y="584.71" width="813.57" height="300.75"/><rect class="cls-9" x="741.77" y="588.3" width="3.59" height="266"/><rect class="cls-9" x="895.13" y="588.3" width="3.59" height="266"/><rect class="cls-9" x="920.3" y="674.57" width="3.59" height="210.88"/><rect class="cls-9" x="1327.68" y="674.57" width="3.59" height="210.88"/><rect class="cls-9" x="1302.52" y="699.73" width="3.59" height="148.58"/><rect class="cls-9" x="945.46" y="699.73" width="3.59" height="148.58"/><rect class="cls-9" x="971.82" y="726.09" width="3.59" height="98.25"/><rect class="cls-9" x="1098.83" y="726.09" width="3.59" height="98.25"/><rect class="cls-9" x="1150.35" y="726.09" width="3.59" height="98.25"/><rect class="cls-9" x="1125.19" y="699.73" width="3.59" height="148.58"/><rect class="cls-9" x="1276.16" y="726.09" width="3.59" height="98.25"/><rect class="cls-9" x="818.45" y="774.02" width="3.59" height="156.96" transform="translate(1672.75 32.25) rotate(90)"/><rect class="cls-9" x="818.45" y="680.56" width="3.59" height="156.96" transform="translate(1579.29 -61.21) rotate(90)"/><rect class="cls-9" x="818.45" y="584.71" width="3.59" height="156.96" transform="translate(1483.43 -157.06) rotate(90)"/><rect class="cls-9" x="1123.39" y="521.8" width="3.59" height="359.46" transform="translate(1826.71 -423.66) rotate(90)"/><rect class="cls-9" x="1123.39" y="666.78" width="3.59" height="359.46" transform="translate(1971.7 -278.68) rotate(90)"/><rect class="cls-9" x="1123.99" y="678.16" width="3.59" height="410.98" transform="translate(2009.44 -242.13) rotate(90)"/><rect class="cls-9" x="1117.4" y="507.42" width="16.77" height="772.83" transform="translate(2019.62 -231.95) rotate(90)"/><rect class="cls-10" x="1121.59" y="173.73" width="8.39" height="813.57" transform="translate(1706.3 -545.27) rotate(90)"/><rect class="cls-11" x="1121.59" y="165.34" width="8.39" height="813.57" transform="translate(1697.91 -553.66) rotate(90)"/><rect class="cls-9" x="1117.4" y="524.2" width="16.77" height="772.83" transform="translate(2036.4 -215.17) rotate(90)"/><rect class="cls-9" x="1123.39" y="642.82" width="3.59" height="359.46" transform="translate(1947.73 -302.64) rotate(90)"/><rect class="cls-9" x="1123.39" y="548.16" width="3.59" height="359.46" transform="translate(1853.07 -397.3) rotate(90)"/><rect class="cls-9" x="1123.39" y="471.48" width="3.59" height="409.78" transform="translate(1801.55 -448.82) rotate(90)"/><rect class="cls-9" x="818.45" y="511.62" width="3.59" height="156.96" transform="translate(1410.34 -230.15) rotate(90)"/><rect class="cls-9" x="1352.84" y="588.3" width="3.59" height="266"/><rect class="cls-9" x="1506.21" y="588.3" width="3.59" height="266"/><rect class="cls-9" x="1429.53" y="774.02" width="3.59" height="156.96" transform="translate(2283.82 -578.82) rotate(90)"/><rect class="cls-9" x="1429.53" y="680.56" width="3.59" height="156.96" transform="translate(2190.37 -672.28) rotate(90)"/><rect class="cls-9" x="1429.53" y="584.71" width="3.59" height="156.96" transform="translate(2094.51 -768.14) rotate(90)"/><rect class="cls-9" x="1429.53" y="511.62" width="3.59" height="156.96" transform="translate(2021.42 -841.23) rotate(90)"/><circle class="cls-12" cx="820.25" cy="627.24" r="8.99"/><circle class="cls-11" cx="820.25" cy="627.24" r="4.19"/><circle class="cls-12" cx="820.25" cy="712.31" r="8.99"/><circle class="cls-11" cx="820.25" cy="712.31" r="4.19"/><circle class="cls-12" cx="820.25" cy="808.17" r="8.99"/><circle class="cls-11" cx="820.25" cy="808.17" r="4.19"/><circle class="cls-12" cx="1113.8" cy="744.66" r="8.99"/><circle class="cls-11" cx="1113.8" cy="744.66" r="4.19"/><circle class="cls-12" cx="1138.97" cy="744.66" r="8.99"/><circle class="cls-11" cx="1138.97" cy="744.66" r="4.19"/><circle class="cls-12" cx="1431.32" cy="627.24" r="8.99"/><circle class="cls-11" cx="1431.32" cy="627.24" r="4.19"/><circle class="cls-12" cx="1431.32" cy="712.31" r="8.99"/><circle class="cls-11" cx="1431.32" cy="712.31" r="4.19"/><circle class="cls-12" cx="1431.32" cy="806.97" r="8.99"/><circle class="cls-11" cx="1431.32" cy="806.97" r="4.19"/><path class="cls-11" d="M920.3,576.32h409.78a0,0,0,0,1,0,0v73.19A25.06,25.06,0,0,1,1305,674.57H945.36a25.06,25.06,0,0,1-25.06-25.06V576.32A0,0,0,0,1,920.3,576.32Z"/><g id="vand_group"><rect class="cls-13" x="992.53" y="551.44" width="32.38" height="10.36" rx="1.48"/><rect class="cls-14" x="992.53" y="548.67" width="32.38" height="6.29"/><path class="cls-15" d="M1066.29,564.64c0,4.09-2.3,7.4-5.14,7.4h-8.72c-2.84,0-5.14-3.31-5.14-7.4V541.45c0-4.09,2.3-7.4,5.14-7.4h8.72c2.84,0,5.14,3.31,5.14,7.4Z"/><path class="cls-15" d="M1059.63,490.14a15.3,15.3,0,1,1,30.59,0h6.41a21.71,21.71,0,0,0-43.42,0Z"/><rect class="cls-15" x="1053.21" y="489.96" width="6.43" height="45.9"/><rect class="cls-15" x="1090.19" y="489.83" width="6.43" height="20.53"/><rect class="cls-15" x="1060.86" y="542.44" width="21.46" height="10.36"/><rect class="cls-15" x="1075.41" y="524.43" width="2.96" height="27.63"/><rect class="cls-15" x="1036.93" y="563.16" width="218.07" height="5.18"/><rect class="cls-15" x="986.05" y="561.38" width="44.36" height="5.84"/></g><rect class="cls-16" x="1448.89" y="492.95" width="4.98" height="35.54"/><path class="cls-17" d="M1446.75,493.07l-6.8-17a3.4,3.4,0,0,1,3.4-3.4h15.87a3.4,3.4,0,0,1,3.4,3.4l-6.81,17Z"/><path class="cls-18" d="M1431.39,552.16s.22-.95.59-2.61.79-4,1.26-6.87.92-6.17,1.29-9.73.71-7.35,1-11.14.55-7.59.55-11.14a86.21,86.21,0,0,0-.34-9.72,60.27,60.27,0,0,0-1-6.88,24.32,24.32,0,0,0-.66-2.61c-.29-.85.91-1.65,2.67-1.79s3.43.44,3.72,1.29a.85.85,0,0,1,0,.5,24.32,24.32,0,0,0-.66,2.61,56.08,56.08,0,0,0-1,6.88,81.74,81.74,0,0,0-.34,9.72c0,3.55.36,7.35.54,11.14s.58,7.59,1,11.14.87,6.88,1.3,9.73.9,5.21,1.25,6.87.59,2.61.59,2.61c.36,1.57-2,3-5.25,3.15s-6.19-1-6.55-2.53A1.62,1.62,0,0,1,1431.39,552.16Z"/><path class="cls-18" d="M1448.08,485.84c0,8.32-4.73,15.06-10.56,15.06S1427,494.16,1427,485.84s4.72-15.06,10.56-15.06S1448.08,477.52,1448.08,485.84Z"/><path class="cls-19" d="M1445,485.84c0,5.88-3.35,10.65-7.47,10.65s-7.47-4.77-7.47-10.65,3.34-10.65,7.47-10.65S1445,480,1445,485.84Z"/><path class="cls-18" d="M1443.87,556.82s.16-.68.43-1.88.57-2.91.91-5,.66-4.45.93-7,.52-5.31.76-8.05.39-5.48.39-8a61.43,61.43,0,0,0-.25-7,42.77,42.77,0,0,0-.73-5,18.6,18.6,0,0,0-.48-1.89c-.21-.61.66-1.19,1.93-1.29s2.48.32,2.68.93a.55.55,0,0,1,0,.36,17.38,17.38,0,0,0-.47,1.89,40.39,40.39,0,0,0-.74,5,59.37,59.37,0,0,0-.24,7c0,2.57.26,5.31.39,8s.42,5.48.75,8.05.63,5,.94,7,.65,3.77.9,5,.43,1.88.43,1.88c.26,1.14-1.44,2.16-3.8,2.28s-4.47-.69-4.73-1.83A1.14,1.14,0,0,1,1443.87,556.82Z"/><path class="cls-18" d="M1455.93,508.91c0,6-3.41,10.88-7.63,10.88s-7.63-4.87-7.63-10.88,3.41-10.88,7.63-10.88S1455.93,502.9,1455.93,508.91Z"/><path class="cls-19" d="M1453.7,508.91c0,4.25-2.42,7.7-5.4,7.7s-5.4-3.45-5.4-7.7,2.42-7.69,5.4-7.69S1453.7,504.66,1453.7,508.91Z"/><rect class="cls-14" x="1429.7" y="523.87" width="27.49" height="44.54" rx="1.42"/><rect class="cls-20" x="1429.7" y="529.29" width="27.45" height="3.38"/><polygon class="cls-20" points="1433.51 546.55 1433.37 543.29 1430.66 545.09 1438.21 530.3 1441.06 531.75 1433.51 546.55"/><polygon class="cls-20" points="1445.44 540.57 1443.18 539.57 1442.56 541.96 1437.77 532.04 1440.65 530.65 1445.44 540.57"/><rect class="cls-20" x="1436.31" y="528.37" width="5.86" height="6.04"/><rect class="cls-21" x="1376.14" y="536.75" width="3.64" height="4.67"/><path class="cls-22" d="M1356.88,533.33v.47A4.16,4.16,0,0,0,1361,538h33.87a4.17,4.17,0,0,0,4.15-4.15v-2h-42.16Z"/><path class="cls-22" d="M1395.13,564.69h-34.34a2.31,2.31,0,0,1-2.31-2.3l1.85-19.51a2.3,2.3,0,0,1,2.3-2.3h30.66a2.31,2.31,0,0,1,2.3,2.3l1.84,19.51A2.3,2.3,0,0,1,1395.13,564.69Z"/><path class="cls-23" d="M1385.32,552.59a7.37,7.37,0,1,1-7.36-7.37A7.36,7.36,0,0,1,1385.32,552.59Z"/><line class="cls-24" x1="1378.01" y1="553.27" x2="1381.05" y2="547.91"/><line class="cls-25" x1="1364.69" y1="544.85" x2="1363.08" y2="560.85"/><rect class="cls-21" x="1358.25" y="564.69" width="39.42" height="3.07" rx="0.4"/><path class="cls-26" d="M793.64,512c-1.29-1.47-.76-2.56,1.19-2.43l95.63,6.16c1.94.12,2.33,1.28.87,2.56,0,0-11.33,9.91-49.53,7.44S793.64,512,793.64,512Z"/><path class="cls-27" d="M795.61,524.3c-1.49-1.26-1.12-2.42.82-2.58l95.51-7.78c1.95-.16,2.5.93,1.24,2.41,0,0-9.77,11.44-47.93,14.55S795.61,524.3,795.61,524.3Z"/><path class="cls-28" d="M796.89,530.61c-1.46-1.3-1.06-2.45.89-2.56l95.67-5.45c1.95-.11,2.47,1,1.17,2.44,0,0-10,11.2-48.26,13.38S796.89,530.61,796.89,530.61Z"/><path class="cls-29" d="M796.46,534.2c-1.4-1.36-1-2.49,1-2.52l95.82-1.52c2,0,2.43,1.09,1.07,2.48,0,0-10.49,10.79-48.77,11.39S796.46,534.2,796.46,534.2Z"/><path class="cls-30" d="M795.78,540.31c-1.33-1.42-.82-2.53,1.12-2.46l95.77,3.51c2,.07,2.37,1.22.94,2.54,0,0-11.05,10.22-49.31,8.81S795.78,540.31,795.78,540.31Z"/><path class="cls-31" d="M798,549c-1.39-1.36-.94-2.49,1-2.51l95.83-.93c2,0,2.42,1.1,1.05,2.49,0,0-10.56,10.72-48.84,11.09S798,549,798,549Z"/><path class="cls-13" d="M796.74,555.69c-1.38-1.37-.92-2.5,1-2.5H893.6c1.95,0,2.42,1.13,1,2.5,0,0-10.66,10.62-48.94,10.62S796.74,555.69,796.74,555.69Z"/><rect class="cls-32" x="822.68" y="564.17" width="46.01" height="3.19" rx="0.72"/><g id="el_group"><g id="kitchen_el"><rect class="cls-33" x="1532.57" y="584.71" width="370.24" height="315.12"/><rect class="cls-34" x="1542.16" y="667.38" width="349.87" height="224.06"/><rect class="cls-34" x="1542.16" y="589.5" width="349.87" height="70.69"/><path class="cls-35" d="M1531.88,567.93H1903.5a6.5,6.5,0,0,1,6.5,6.5v10.27a0,0,0,0,1,0,0H1525.38a0,0,0,0,1,0,0V574.43a6.5,6.5,0,0,1,6.5-6.5Z"/><rect class="cls-36" x="1606.86" y="704.52" width="221.66" height="129.4"/><rect class="cls-37" x="1633.22" y="730.88" width="170.14" height="77.88"/><rect class="cls-38" x="1629.62" y="727.29" width="3.59" height="85.07"/><rect class="cls-38" x="1716.49" y="640.42" width="3.59" height="177.33" transform="translate(2447.38 -989.2) rotate(90)"/><rect class="cls-38" x="1716.49" y="721.9" width="3.59" height="177.33" transform="translate(2528.85 -907.73) rotate(90)"/><rect class="cls-38" x="1717.69" y="707.52" width="1.2" height="177.33" transform="translate(2514.48 -922.1) rotate(90)"/><rect class="cls-38" x="1717.69" y="693.14" width="1.2" height="177.33" transform="translate(2500.1 -936.48) rotate(90)"/><rect class="cls-38" x="1717.69" y="677.56" width="1.2" height="177.33" transform="translate(2484.52 -952.06) rotate(90)"/><rect class="cls-38" x="1717.69" y="660.79" width="1.2" height="177.33" transform="translate(2467.75 -968.83) rotate(90)"/><rect class="cls-38" x="1803.36" y="727.29" width="3.59" height="85.07"/><rect class="cls-39" x="1684.74" y="854.3" width="67.1" height="20.37"/><circle class="cls-40" cx="1856.68" cy="627.24" r="16.77"/><rect class="cls-41" x="1853.09" y="620.05" width="8.39" height="28.76" rx="3.5"/><circle class="cls-40" cx="1812.35" cy="627.24" r="16.77"/><rect class="cls-41" x="1808.75" y="620.05" width="8.39" height="28.76" rx="3.5"/><circle class="cls-40" cx="1766.82" cy="627.24" r="16.77"/><rect class="cls-41" x="1763.22" y="620.05" width="8.39" height="28.76" rx="3.5"/><rect class="cls-41" x="1712.3" y="611.07" width="8.39" height="22.77" rx="3.5"/><circle class="cls-40" cx="1662.57" cy="627.24" r="16.77"/><circle class="cls-42" cx="1716.49" cy="622.45" r="11.98"/><rect class="cls-41" x="1658.98" y="620.05" width="8.39" height="28.76" rx="3.5"/><circle class="cls-40" cx="1617.04" cy="627.24" r="16.77"/><rect class="cls-41" x="1613.45" y="620.05" width="8.39" height="28.76" rx="3.5"/><circle class="cls-40" cx="1571.51" cy="627.24" r="16.77"/><rect class="cls-41" x="1567.92" y="620.05" width="8.39" height="28.76" rx="3.5"/><circle class="cls-33" cx="1572.11" cy="605.07" r="3.59"/><rect class="cls-43" x="1532.57" y="899.83" width="370.24" height="19.17"/></g><g id="kitchen_el-2" data-name="kitchen_el"><polygon class="cls-44" points="1900 352 1548 352 1534.2 327.51 1912.78 327.51 1900 352"/><rect class="cls-45" x="1658.57" y="0.44" width="129.83" height="193.14"/><polygon class="cls-46" points="1788.4 193.58 1658.59 193.58 1534.2 327.51 1912.78 327.51 1788.4 193.58"/></g><rect class="cls-47" x="1602.95" y="510.04" width="40.32" height="4.56"/><path class="cls-48" d="M1661.72,499a2.89,2.89,0,0,1-.31-5.77V466.92h-9.08a2.89,2.89,0,0,1-5.77-.31,5.48,5.48,0,0,1,5.47-5.48h9.69a5.49,5.49,0,0,1,5.48,5.48v26.88A5.48,5.48,0,0,1,1661.72,499Z"/><path class="cls-49" d="M1645,567.65h-44.66a7.77,7.77,0,0,1-7.75-7.74l5.17-38.21c.54-6.49,1.93-7.75,7.75-7.75h34.32c4.26,0,7.81,0,7.75,5.17l5.17,40.79A7.77,7.77,0,0,1,1645,567.65Z"/><path class="cls-50" d="M1585.56,455.09l7.06,7.75,5.17,40.78c.54,6.26,2.26,7.75,7.75,7.75h34.32c6,0,7-.85,7.75-7.75l5.17-40.78.87-7.75Z"/><polygon class="cls-51" points="1614.58 513.96 1631.37 513.96 1635.24 567.35 1611.13 567.35 1614.58 513.96"/><polygon class="cls-51" points="1614.74 511.37 1631.37 511.37 1635.73 455.09 1609.41 455.09 1614.74 511.37"/><polygon class="cls-52" points="1585.56 455.09 1621.75 445.17 1653.65 455.09 1585.56 455.09"/><path class="cls-52" d="M1625.79,443.87a3.88,3.88,0,1,1-3.88-3.87A3.88,3.88,0,0,1,1625.79,443.87Z"/><path class="cls-53" d="M1852.35,501c-.92-.72-15.5-14.47-48.9-18.7v-.34c0-8.79-5.27-15.94-14.06-15.94s-14.07,7.15-14.07,15.94v.34c-42.19,4.23-50.87,18-51.79,18.7-1.13.9-4.13,2.73-4.15,2.73h134.25A4.51,4.51,0,0,0,1852.35,501Zm-65.85-19.83c-2.22,0-4.39.07-6.53.2a6.56,6.56,0,0,1,13.06,0Q1789.84,481.16,1786.5,481.15Z"/><path class="cls-54" d="M1876.9,508.92a4.21,4.21,0,0,0-6.08-1.41l-16.38,10.78V504.86s-.41-.56-.41-.57-.4-.58-.4-.58H1719.38s-1,.56-1,.58-1,.55-1,.57v13.43l-15.75-10.78a4.1,4.1,0,0,0-6,1.41c-1.39,2.17-1.54,5.08.64,6.47l21.08,14v23.82c0,8.77,9.21,13.75,18,13.75h102.4c8.79,0,16.74-5,16.74-13.75V529.43l21.44-14C1878.07,514,1878.29,511.09,1876.9,508.92Z"/></g><path class="cls-55" d="M368.3,589c.09-.51,8.58-51.41,19-59.49l-.61-.79c-10.76,8.32-19.06,58-19.41,60.12Z"/><path class="cls-55" d="M386,537.11c-4.87,1.59-7.41,6.52-7.41,6.52s5.37,2.35,10.25.76,7.39-6.51,7.39-6.51S390.89,535.52,386,537.11Z"/><path class="cls-55" d="M381.07,554.22c-4.86,1.59-7.39,6.52-7.39,6.52s5.37,2.34,10.24.75,7.39-6.51,7.39-6.51S386,552.63,381.07,554.22Z"/><path class="cls-55" d="M377.23,571.36c-4.86,1.59-7.39,6.51-7.39,6.51s5.37,2.35,10.23.77,7.4-6.52,7.4-6.52S382.11,569.77,377.23,571.36Z"/><path class="cls-55" d="M380.6,532.07c1.7,4.51-.91,9.41-.91,9.41s-5.33-2.42-7-6.93.91-9.41.91-9.41S378.92,527.56,380.6,532.07Z"/><path class="cls-55" d="M392.1,528.18c-2.33,2.21-6.16,2.23-6.16,2.23a8.48,8.48,0,0,1,2.28-5.71c2.32-2.2,6.15-2.24,6.15-2.24A8.51,8.51,0,0,1,392.1,528.18Z"/><path class="cls-55" d="M387.67,526.08a6.08,6.08,0,0,1-1.35,4.18,6.49,6.49,0,0,1-2.5-3.73,6.13,6.13,0,0,1,1.34-4.19A6.48,6.48,0,0,1,387.67,526.08Z"/><path class="cls-55" d="M371.43,548.7c3.53,3.47,3.33,8.93,3.33,8.93s-5.93-.19-9.46-3.67S362,545,362,545,367.89,545.21,371.43,548.7Z"/><path class="cls-55" d="M367.75,562.88c3.44,3.57,3.08,9,3.08,9s-5.92-.35-9.34-3.93-3.09-9-3.09-9S364.32,559.3,367.75,562.88Z"/><path class="cls-56" d="M361.1,591.32c0-.43-3.66-43.23,3.11-51.91l-.65-.51c-7,8.93-3.44,50.72-3.28,52.49Z"/><path class="cls-56" d="M364.72,545.86c-3.6,2.28-4.63,6.78-4.63,6.78s4.81.79,8.42-1.49,4.62-6.78,4.62-6.78S368.32,543.57,364.72,545.86Z"/><path class="cls-56" d="M364.25,560.67c-3.59,2.28-4.62,6.78-4.62,6.78s4.81.79,8.41-1.49,4.63-6.78,4.63-6.78S367.86,558.39,364.25,560.67Z"/><path class="cls-56" d="M364.68,575.29c-3.6,2.28-4.62,6.77-4.62,6.77s4.81.8,8.41-1.48,4.63-6.79,4.63-6.79S368.29,573,364.68,575.29Z"/><path class="cls-56" d="M359.31,542.91c2.3,3.28,1.2,7.77,1.2,7.77s-4.79-.85-7.08-4.14-1.2-7.78-1.2-7.78S357,539.62,359.31,542.91Z"/><path class="cls-56" d="M367.79,537.4a8.53,8.53,0,0,1-4.52,3.07,7.08,7.08,0,0,1,.67-5.08,8.54,8.54,0,0,1,4.5-3.07A7.08,7.08,0,0,1,367.79,537.4Z"/><path class="cls-56" d="M363.78,536.61a5.06,5.06,0,0,1-.23,3.66,5.39,5.39,0,0,1-2.78-2.5,5.06,5.06,0,0,1,.22-3.65A5.39,5.39,0,0,1,363.78,536.61Z"/><path class="cls-56" d="M355.33,558.21c3.57,2.07,4.53,6.52,4.53,6.52s-4.82,1.07-8.38-1-4.54-6.53-4.54-6.53S351.76,556.12,355.33,558.21Z"/><path class="cls-56" d="M355.29,570.4c3.51,2.18,4.34,6.65,4.34,6.65s-4.85.93-8.34-1.25-4.36-6.64-4.36-6.64S351.78,568.22,355.29,570.4Z"/><path class="cls-57" d="M354.16,588.76c-.08-.57-7.66-56.64-18.84-65.85l.69-.85c11.52,9.49,18.92,64.23,19.23,66.55Z"/><path class="cls-57" d="M336.5,531.34c5.29,1.91,7.9,7.39,7.9,7.39s-6,2.4-11.25.49-7.88-7.39-7.88-7.39S331.22,529.43,336.5,531.34Z"/><path class="cls-57" d="M341.34,550.25c5.28,1.91,7.89,7.4,7.89,7.4s-6,2.39-11.25.48-7.88-7.39-7.88-7.39S336.05,548.34,341.34,550.25Z"/><path class="cls-57" d="M345,569.17c5.28,1.9,7.88,7.39,7.88,7.39s-6,2.4-11.24.49-7.89-7.4-7.89-7.4S339.68,567.26,345,569.17Z"/><path class="cls-57" d="M342.61,526c-2,4.88.69,10.34.69,10.34s5.91-2.47,7.92-7.36-.68-10.33-.68-10.33S344.61,521.12,342.61,526Z"/><path class="cls-57" d="M330.15,521.34c2.48,2.5,6.68,2.65,6.68,2.65a9.3,9.3,0,0,0-2.31-6.33c-2.47-2.49-6.67-2.66-6.67-2.66S327.68,518.87,330.15,521.34Z"/><path class="cls-57" d="M335.07,519.19a6.69,6.69,0,0,0,1.34,4.63,7.11,7.11,0,0,0,2.87-4,6.72,6.72,0,0,0-1.33-4.64A7.11,7.11,0,0,0,335.07,519.19Z"/><path class="cls-57" d="M352.1,544.53c-4,3.69-4,9.68-4,9.68s6.51,0,10.5-3.7,4-9.68,4-9.68S356.1,540.83,352.1,544.53Z"/><path class="cls-57" d="M355.65,560.19C351.76,564,352,570,352,570s6.5-.19,10.37-4S366,556.2,366,556.2,359.54,556.39,355.65,560.19Z"/><polygon class="cls-58" points="372.34 600 347.7 600 340.66 584.04 379.38 584.04 372.34 600"/><rect class="cls-59" x="127" y="331" width="294" height="18"/><rect class="cls-60" x="141" y="349" width="267" height="26"/><rect class="cls-59" x="399" y="346" width="9" height="44" rx="3.58"/><rect class="cls-59" x="141" y="346" width="9" height="44" rx="3.58"/><rect class="cls-59" x="488" y="187" width="294" height="18"/><rect class="cls-60" x="502" y="205" width="267" height="26"/><rect class="cls-59" x="760" y="202" width="9" height="44" rx="3.58"/><rect class="cls-59" x="502" y="202" width="9" height="44" rx="3.58"/><g id="lys_group"><polygon class="cls-61" points="329.6 361.88 250.59 463 484.17 463 384.94 354.83 329.6 361.88"/><rect class="cls-62" x="355.48" width="16.19" height="268.95"/><rect class="cls-63" x="363.23" width="8.44" height="268.95"/><circle class="cls-63" cx="363.55" cy="274.33" r="14.87"/><path class="cls-62" d="M378,270.89a14.91,14.91,0,0,0-11-11,8.79,8.79,0,1,0,11,11Z"/><polygon class="cls-64" points="363.3 254.64 363.3 400 294.37 400 332.92 254.64 363.3 254.64"/><polygon class="cls-65" points="363.3 254.64 363.3 400 432.16 400 393.6 254.64 363.3 254.64"/></g></g><g id="Livingroom"><path class="cls-66" d="M135.53,690.61h183a0,0,0,0,1,0,0v2.86a13,13,0,0,1-13,13h-157a13,13,0,0,1-13-13v-2.86a0,0,0,0,1,0,0Z" transform="translate(454.07 1397.08) rotate(-180)"/><path class="cls-66" d="M38.41,595H202.35a0,0,0,0,1,0,0v2.86a13,13,0,0,1-13,13H51.41a13,13,0,0,1-13-13V595a0,0,0,0,1,0,0Z" transform="translate(-432.74 871.31) rotate(-104.59)"/><path class="cls-67" d="M309.82,907.78h-14V732.09s-69-22-161,0c0,0-.28,74.43-50.41,175.69H73.66S155.94,744.94,81.08,526a4.58,4.58,0,0,1,.44-4.09A4.52,4.52,0,0,1,85.28,520a7.07,7.07,0,0,1,6.63,4.18C98.78,539,127,604.8,135.53,705.25H309.82Z"/><path class="cls-66" d="M422.17,690.61h157a13,13,0,0,1,13,13v2.86a0,0,0,0,1,0,0h-183a0,0,0,0,1,0,0v-2.86a13,13,0,0,1,13-13Z"/><path class="cls-66" d="M538.36,595H676.3a13,13,0,0,1,13,13v2.86a0,0,0,0,1,0,0H525.36a0,0,0,0,1,0,0V608A13,13,0,0,1,538.36,595Z" transform="translate(-129.15 1038.72) rotate(-75.41)"/><path class="cls-67" d="M417.89,907.78h14V732.09s69-22,161,0c0,0,.28,74.43,50.41,175.69h10.73S571.77,744.94,646.63,526a4.58,4.58,0,0,0-.44-4.09,4.52,4.52,0,0,0-3.76-1.89,7.08,7.08,0,0,0-6.63,4.18c-6.87,14.79-35.07,80.61-43.62,181.06H417.89Z"/><rect class="cls-68" x="212.75" y="612.53" width="19.52" height="296.47"/><rect class="cls-68" x="497.02" y="612.53" width="19.52" height="296.47"/><rect class="cls-69" x="358.54" y="436.23" width="13.42" height="339.17" transform="translate(971.07 240.57) rotate(90)"/><rect class="cls-12" x="240.81" y="599.11" width="242.79" height="53.68"/><rect class="cls-70" x="240.81" y="625.95" width="242.79" height="13.42"/><rect class="cls-12" x="240.81" y="612.53" width="242.79" height="13.42"/><rect class="cls-70" x="240.81" y="599.11" width="242.79" height="13.42"/><rect class="cls-70" x="220.68" y="619.24" width="53.68" height="13.42" transform="translate(-378.43 873.47) rotate(-90)"/><rect class="cls-70" x="247.52" y="619.24" width="53.68" height="13.42" transform="translate(-351.59 900.31) rotate(-90)"/><rect class="cls-70" x="274.36" y="619.24" width="53.68" height="13.42" transform="translate(-324.75 927.15) rotate(-90)"/><rect class="cls-70" x="301.2" y="619.24" width="53.68" height="13.42" transform="translate(-297.91 953.99) rotate(-90)"/><rect class="cls-70" x="328.04" y="619.24" width="53.68" height="13.42" transform="translate(-271.07 980.83) rotate(-90)"/><rect class="cls-70" x="354.88" y="619.24" width="53.68" height="13.42" transform="translate(-244.23 1007.67) rotate(-90)"/><rect class="cls-70" x="381.72" y="619.24" width="53.68" height="13.42" transform="translate(-217.38 1034.51) rotate(-90)"/><rect class="cls-70" x="408.56" y="619.24" width="53.68" height="13.42" transform="translate(-190.54 1061.35) rotate(-90)"/><rect class="cls-70" x="435.4" y="619.24" width="53.68" height="13.42" transform="translate(-163.7 1088.19) rotate(-90)"/></g></svg>