<svg xmlns="http://www.w3.org/2000/svg" xmlns:xlink="http://www.w3.org/1999/xlink" viewBox="0 0 1920 1080"><defs><style>.cls-1{fill:#d3debc;}.cls-2{fill:#cc883b;}.cls-3{fill:#919697;}.cls-10,.cls-11,.cls-12,.cls-13,.cls-3,.cls-4,.cls-5,.cls-6,.cls-68,.cls-7,.cls-70,.cls-71,.cls-8,.cls-9{fill-rule:evenodd;}.cls-4,.cls-6{fill:#36343a;}.cls-5{fill:#0c050d;}.cls-5,.cls-6{stroke:#0c050d;stroke-miterlimit:22.93;stroke-width:0.24px;}.cls-7{fill:#7d8082;}.cls-8{fill:#5bba47;}.cls-9{fill:#818081;}.cls-10{fill:#666264;}.cls-11{fill:#3b3438;}.cls-12{fill:#62c3d2;}.cls-13{fill:#a0d6e1;}.cls-14{fill:#00b6e8;}.cls-15{fill:#232938;}.cls-16{fill:#e5b249;}.cls-17{fill:#d4c2ab;}.cls-18{fill:#e1894a;}.cls-19{fill:#fff;}.cls-20{fill:#a9b392;}.cls-21{fill:#ebb724;}.cls-22{fill:#ffc727;}.cls-23{fill:#50acb0;}.cls-24{fill:#fd8283;}.cls-25{fill:#f07b7c;}.cls-26{fill:#3c8185;}.cls-27{fill:#ececec;}.cls-28{fill:#bec3c7;}.cls-29{fill:#dae0e2;}.cls-30{fill:#f45a2a;}.cls-31{fill:#f67b46;}.cls-32{fill:#e73f1f;}.cls-33{fill:#0a837f;}.cls-34{fill:#1da19f;}.cls-35{fill:#3a6b34;}.cls-36{fill:#96bcbb;}.cls-37{fill:#68858e;}.cls-38{fill:#69935f;}.cls-39{fill:#b75353;}.cls-40{fill:#e0a76e;}.cls-41{fill:#f0d1bc;}.cls-42{fill:#1d2e35;}.cls-43{fill:#272a33;}.cls-44{fill:#563b31;}.cls-45{fill:#462d23;}.cls-46{fill:#ff8d0c;}.cls-47{fill:#ffbf17;}.cls-48{fill:#fff2eb;}.cls-49{fill:#ffd690;}.cls-50{fill:#ffe5bf;}.cls-51{fill:#f9c44e;}.cls-52{fill:#f9dcb2;}.cls-53{fill:#f9ead7;}.cls-54{fill:#61aa6a;}.cls-55{fill:#dcd8a0;}.cls-56{fill:#f8f6d3;}.cls-57{fill:#e8e4bf;}.cls-58{fill:#f1cc5e;}.cls-59{fill:#bb8150;}.cls-60{fill:#d09059;}.cls-61{fill:#e3aa79;}.cls-62{fill:#6fc07f;}.cls-63{fill:#a56a2d;}.cls-64{fill:url(#linear-gradient);}.cls-65{fill:#efa68f;}.cls-66{fill:#f28b66;}.cls-67{fill:#999a9a;}.cls-68{fill:#f3c54b;}.cls-69,.cls-71{fill:#bbbaba;}.cls-70{fill:#009cb4;}.cls-72{fill:url(#linear-gradient-2);}</style><linearGradient id="linear-gradient" x1="677.13" y1="237.83" x2="677.13" y2="346" gradientUnits="userSpaceOnUse"><stop offset="0.39" stop-color="#ffffa7"/><stop offset="0.53" stop-color="#ffffbc" stop-opacity="0.76"/><stop offset="0.76" stop-color="#ffffe0" stop-opacity="0.36"/><stop offset="0.92" stop-color="#fffff6" stop-opacity="0.1"/><stop offset="1" stop-color="#fff" stop-opacity="0"/></linearGradient><linearGradient id="linear-gradient-2" x1="1798.13" y1="369.83" x2="1798.13" y2="516" xlink:href="#linear-gradient"/></defs><g id="Livingroom"><rect class="cls-1" width="1920" height="1080"/><rect class="cls-2" y="911.5" width="1920" height="168.5"/><g id="el_group"><path class="cls-3" d="M1477.56,396h32.25a7.88,7.88,0,0,1,7.86,7.85v98.64a3.52,3.52,0,0,1-3.52,3.51h-40.93a3.52,3.52,0,0,1-3.51-3.51V403.85A7.87,7.87,0,0,1,1477.56,396Z"/><path class="cls-4" d="M1480.15,401.24h26.61a6.5,6.5,0,0,1,6.48,6.48V486a2.91,2.91,0,0,1-2.9,2.9h-33.77a2.91,2.91,0,0,1-2.9-2.9V407.72A6.5,6.5,0,0,1,1480.15,401.24Z"/><path class="cls-5" d="M1493.45,441.59a14.53,14.53,0,1,0-14.52-14.52A14.54,14.54,0,0,0,1493.45,441.59Z"/><path class="cls-6" d="M1493.45,436.06a9,9,0,1,0-9-9A9,9,0,0,0,1493.45,436.06Z"/><path class="cls-5" d="M1493.64,475.34a10.18,10.18,0,1,0-10.18-10.18A10.2,10.2,0,0,0,1493.64,475.34Z"/><path class="cls-6" d="M1493.64,470.63a5.47,5.47,0,1,0-5.47-5.47A5.48,5.48,0,0,0,1493.64,470.63Z"/><path class="cls-3" d="M376.86,650H409.1a7.88,7.88,0,0,1,7.86,7.85v98.64a3.52,3.52,0,0,1-3.52,3.51H372.51a3.52,3.52,0,0,1-3.51-3.51V657.85A7.87,7.87,0,0,1,376.86,650Z"/><path class="cls-4" d="M379.44,655.24h26.61a6.5,6.5,0,0,1,6.48,6.48V740a2.91,2.91,0,0,1-2.9,2.9H375.86A2.91,2.91,0,0,1,373,740V661.72A6.5,6.5,0,0,1,379.44,655.24Z"/><path class="cls-4" d="M386.39,750.65a5.73,5.73,0,1,0,5.75-5.71A5.73,5.73,0,0,0,386.39,750.65Z"/><path class="cls-7" d="M388.76,750.66a3.36,3.36,0,1,0,3.37-3.35A3.37,3.37,0,0,0,388.76,750.66Z"/><path class="cls-8" d="M375,751.42a1.58,1.58,0,1,0,1.58-1.57A1.57,1.57,0,0,0,375,751.42Z"/><path class="cls-5" d="M392.76,695.59a14.53,14.53,0,1,0-14.52-14.52A14.55,14.55,0,0,0,392.76,695.59Z"/><path class="cls-6" d="M392.76,690.06a9,9,0,1,0-9-9A9,9,0,0,0,392.76,690.06Z"/><path class="cls-5" d="M393,729.34a10.18,10.18,0,1,0-10.18-10.18A10.2,10.2,0,0,0,393,729.34Z"/><path class="cls-6" d="M393,724.63a5.47,5.47,0,1,0-5.47-5.47A5.48,5.48,0,0,0,393,724.63Z"/><path class="cls-4" d="M402.94,750.66a3.53,3.53,0,1,0,3.54-3.52A3.52,3.52,0,0,0,402.94,750.66Z"/><path class="cls-7" d="M404.4,750.66a2.07,2.07,0,1,0,2.08-2.06A2.07,2.07,0,0,0,404.4,750.66Z"/><path class="cls-3" d="M122.86,518H163.1a7.88,7.88,0,0,1,7.86,7.85V908.49a3.52,3.52,0,0,1-3.52,3.51H118.51a3.52,3.52,0,0,1-3.51-3.51V525.85A7.87,7.87,0,0,1,122.86,518Z"/><path class="cls-4" d="M125.44,522.24h35.61a6.5,6.5,0,0,1,6.48,6.48V892a2.91,2.91,0,0,1-2.9,2.9H121.86A2.91,2.91,0,0,1,119,892V528.72A6.5,6.5,0,0,1,125.44,522.24Z"/><path class="cls-4" d="M136.39,902.65a5.73,5.73,0,1,0,5.75-5.71A5.73,5.73,0,0,0,136.39,902.65Z"/><path class="cls-7" d="M138.76,902.66a3.36,3.36,0,1,0,3.37-3.35A3.37,3.37,0,0,0,138.76,902.66Z"/><path class="cls-8" d="M125,903.42a1.58,1.58,0,1,0,1.58-1.57A1.57,1.57,0,0,0,125,903.42Z"/><path class="cls-4" d="M152.94,902.66a3.53,3.53,0,1,0,3.54-3.52A3.52,3.52,0,0,0,152.94,902.66Z"/><path class="cls-7" d="M154.4,902.66a2.07,2.07,0,1,0,2.08-2.06A2.07,2.07,0,0,0,154.4,902.66Z"/><g id="tv"><path class="cls-9" d="M440.45,714.54c1.2,0,2.18-1.78,2.18-4s-1-4-2.18-4-2.18,1.78-2.18,4S439.25,714.54,440.45,714.54Z"/><path class="cls-9" d="M440.79,725.22c1.19,0,2.17-1.78,2.17-4s-1-4-2.17-4-2.18,1.78-2.18,4S439.59,725.22,440.79,725.22Z"/><path class="cls-9" d="M440.79,735.9c1.19,0,2.17-1.78,2.17-4s-1-4-2.17-4-2.18,1.78-2.18,4S439.59,735.9,440.79,735.9Z"/><path class="cls-10" d="M501.6,723.05H610.36c-1.21,11.65,2.58,25.46,22.87,33.5H478.73C499,748.51,502.81,734.7,501.6,723.05Z"/><path class="cls-11" d="M447.82,595h217a6.73,6.73,0,0,1,6.71,6.71v136a6.73,6.73,0,0,1-6.71,6.71h-217a6.72,6.72,0,0,1-6.71-6.7v-136A6.73,6.73,0,0,1,447.82,595Z"/><path class="cls-12" d="M448.35,600.94H662.83a.46.46,0,0,1,.46.46V735.1a.47.47,0,0,1-.46.46H448.35a.47.47,0,0,1-.46-.46V601.4A.46.46,0,0,1,448.35,600.94Z"/><path class="cls-13" d="M448.34,600.94H662.92c3.81,0-32.51,37.42-102.25,83.51-54.95,36.32-113.08,52.23-112.78,50.67V601.4A.45.45,0,0,1,448.34,600.94Z"/><path class="cls-11" d="M476.39,748.92H639.66a6,6,0,0,1,6,6v3.72a2.34,2.34,0,0,1-2.33,2.33H472.29a1.93,1.93,0,0,1-1.92-1.92V755A6,6,0,0,1,476.39,748.92Z"/><rect class="cls-14" x="523.37" y="738.32" width="65.09" height="3.39"/></g></g><g id="tv-shelf"><rect class="cls-15" x="361.97" y="852.41" width="16" height="61.12" rx="8" transform="translate(104.2 -36.75) rotate(6.62)"/><rect class="cls-15" x="402.97" y="852.41" width="16" height="61.12" rx="8" transform="translate(104.47 -41.47) rotate(6.62)"/><rect class="cls-15" x="724.97" y="852.41" width="16" height="61.12" rx="8" transform="translate(-132.78 129.73) rotate(-9.28)"/><rect class="cls-15" x="766.97" y="852.41" width="16" height="61.12" rx="8" transform="translate(-132.23 136.5) rotate(-9.28)"/><rect class="cls-16" x="343.5" y="760.5" width="389" height="100"/><rect class="cls-17" x="742" y="760" width="46.5" height="101"/><rect class="cls-18" x="732" y="760" width="10" height="101"/><rect class="cls-19" x="357" y="772" width="108" height="78"/><rect class="cls-19" x="485" y="772" width="108" height="78"/><rect class="cls-19" x="613" y="772" width="108" height="78"/><circle class="cls-15" cx="411" cy="811" r="10"/><circle class="cls-15" cx="539" cy="811" r="10"/><circle class="cls-15" cx="667" cy="811" r="10"/></g><rect class="cls-20" x="977" y="536" width="211" height="17"/><rect class="cls-16" x="969" y="527" width="211" height="17"/><rect class="cls-20" x="1152" y="347" width="211" height="17"/><path class="cls-21" d="M1298.9,246.92l2.42,0c2,0,4.66-.17,7.31-.29l3.89-.17c1.23-.05,2.38-.07,3.37-.08l1.33,0,1,.08c.27,0,.45.09.59.12l.22,0,.12,0a.41.41,0,0,0,.45-.23.41.41,0,0,0-.2-.55l-.25-.11a5.57,5.57,0,0,0-.7-.28l-1.08-.27c-.41-.07-.88-.15-1.39-.21-1-.11-2.2-.19-3.47-.21-.63,0-1.29,0-2,0l-2,.06c-2.68.13-5.35.41-7.34.7-1,.14-1.82.3-2.4.4s-.76.14-.86.17h-.06a.4.4,0,0,0-.31.39.4.4,0,0,0,.36.4h1Z"/><path class="cls-22" d="M1199.78,239.67c-1.87-4.9-25.5-4.87-25.46-.93,0,0,.63,80,5.33,100,7.36-.1,15.58-.16,24.34-.2C1203.84,319.4,1201.55,244.34,1199.78,239.67Zm-6.14,34.19a.35.35,0,0,1-.21.1l-.38,0h-.19l-.76,0-2.62.22c-1,.06-2,.08-2.71.05a9.46,9.46,0,0,1-1.26-.11.43.43,0,0,1-.35-.49.45.45,0,0,1,.24-.31,7.43,7.43,0,0,1,1.21-.43,14,14,0,0,1,2.75-.47c.51,0,1,0,1.51,0a7.57,7.57,0,0,1,1.35.19,3.74,3.74,0,0,1,.56.16,3.87,3.87,0,0,1,.45.21,1.76,1.76,0,0,1,.31.24l.1.1A.33.33,0,0,1,1193.64,273.86Zm2.78-8.37a.42.42,0,0,1-.38.27h-.75c-.41,0-1,.06-1.77.1-1.49.1-3.48.22-5.48.27s-4,.06-5.5,0c-.76,0-1.38-.08-1.82-.1l-.7-.06a.4.4,0,0,1-.35-.45.42.42,0,0,1,.31-.36l.69-.12c.44-.06,1.06-.18,1.81-.27,1.5-.18,3.5-.34,5.51-.4a48.62,48.62,0,0,1,5.55.12,16.4,16.4,0,0,1,1.85.25,2.9,2.9,0,0,1,.57.15l.21.07A.42.42,0,0,1,1196.42,265.49Z"/><path class="cls-23" d="M1296.38,338.66h.26a.94.94,0,0,0,.09-.12,1,1,0,0,0,.16-.82c-.34-1.17-10.85-21.24-21.63-41.29-6.44-12-21.67-40.13-23.88-42.31-2.4-2.38-11.81,1.15-16.67,4.71-2.22,1.62-3.17,3-2.7,3.95.11.21,10.87,21.41,22.17,42.18q12.75,23.44,19.52,33.61h.24Zm-18.8-2.76a17,17,0,0,1,1.68-1,37.85,37.85,0,0,1,3.89-1.86,41,41,0,0,1,4-1.45,18.75,18.75,0,0,1,1.92-.48.49.49,0,0,1,.36.88s-.66.46-1.69,1a41.35,41.35,0,0,1-3.89,1.85,38.36,38.36,0,0,1-4.05,1.44c-1.13.33-1.92.47-1.92.47a.47.47,0,0,1-.54-.39A.46.46,0,0,1,1277.58,335.9Zm-23-64.11s-.14.14-.39.34a11.24,11.24,0,0,1-1.06.74,28,28,0,0,1-3.36,1.85,33.36,33.36,0,0,1-3.56,1.41c-.49.16-.92.27-1.21.35l-.47.11a.47.47,0,0,1-.42-.8h0a4.86,4.86,0,0,1,.39-.31c.26-.19.61-.44,1.06-.72a31.53,31.53,0,0,1,3.36-1.82,33.61,33.61,0,0,1,3.53-1.43c.49-.18.9-.3,1.19-.39l.44-.12h0a.48.48,0,0,1,.46.81Zm-.1-7.43-.16.12a4.71,4.71,0,0,1-.44.32c-.39.25-.92.62-1.59,1-1.33.8-3.14,1.77-5,2.66s-3.74,1.68-5.19,2.22c-.72.28-1.34.47-1.76.62l-.68.22a.46.46,0,0,1-.57-.32.48.48,0,0,1,.16-.49h0s.2-.15.59-.4.92-.6,1.59-1c1.33-.78,3.15-1.75,5-2.63s3.73-1.69,5.16-2.25c.72-.29,1.33-.49,1.74-.65l.64-.23,0,0a.47.47,0,0,1,.44.82Z"/><path class="cls-24" d="M1232.69,334.43a27.54,27.54,0,0,1-3.37,1.14,30.53,30.53,0,0,1-3.73.76,34.49,34.49,0,0,1-12.48-.51c-1.08-.23-2-.49-2.57-.64l-.66-.16s-.12,0,0,0a.19.19,0,0,0,.12-.09l0,0,0,0a.33.33,0,0,1-.18.08c.19,1.32.4,2.49.61,3.5,7.18,0,14.65,0,22.26,0C1232.63,337.49,1232.67,336.12,1232.69,334.43Z"/><path class="cls-24" d="M1209.9,334.16a6.29,6.29,0,0,1,.81,0l2.62.29a63.24,63.24,0,0,0,7.87.42,53.73,53.73,0,0,0,7.83-.67c1.06-.19,2-.33,2.57-.47s1-.2,1-.2h.13c.2-14.83-.38-50.17-1.74-69.31l-.07,0h0l-1-.05-1.15-.05-1.5,0-3.76-.06h-4.31c-2.94,0-5.89,0-8.1-.07s-3.69-.11-3.69-.11h0c-.58,19.23,0,54.23,2.26,70.33l.12,0Zm16-40.51a.43.43,0,0,1-.36.31h-.06l-.49,0-1.35.13c-1.13.08-2.64.15-4.14.16s-3-.05-4.13-.12l-.76-.05-.54,0a1.27,1.27,0,0,0-.33,0h-.14l-.36,0a.4.4,0,0,1-.44-.37.4.4,0,0,1,.37-.44.41.41,0,0,1,.16,0,2.4,2.4,0,0,1,.55-.21l.65-.15c.23-.05.49-.09.78-.13a29.78,29.78,0,0,1,4.18-.29,34.11,34.11,0,0,1,4.18.23c.57.07,1,.15,1.38.22a3.29,3.29,0,0,1,.4.1l.15,0A.42.42,0,0,1,1225.93,293.65Zm-14.51-7.4a.5.5,0,0,1,.24.06,2.26,2.26,0,0,1,.69-.22l.8-.16c.29-.06.62-.11,1-.16a44.71,44.71,0,0,1,5.29-.32,48.61,48.61,0,0,1,5.29.24c.72.07,1.32.18,1.75.24a4.83,4.83,0,0,1,.5.1l.18,0a.47.47,0,0,1,.36.57.49.49,0,0,1-.41.37h0l-.63.07-1.73.15c-1.43.11-3.34.19-5.25.2s-3.82-.05-5.24-.13l-1.68-.11a3.55,3.55,0,0,0-.44,0h-.17l-.44,0a.46.46,0,0,1-.5-.45A.47.47,0,0,1,1211.42,286.25Z"/><path class="cls-24" d="M1211,262.66c2.22-.2,5.18-.35,8.15-.34a69.13,69.13,0,0,1,8.17.46c.56.06,1.07.16,1.52.23s.84.15,1.16.22.76.17.91.2c-.48-6.41-1.05-10.84-1.71-11.81,0,0-20.6-3.78-21.24,1.41-.26,2.17-.47,5.67-.61,10l1-.13C1209,262.88,1209.89,262.75,1211,262.66Z"/><path class="cls-21" d="M1196.17,265l-.21-.07a2.9,2.9,0,0,0-.57-.15,16.4,16.4,0,0,0-1.85-.25,48.62,48.62,0,0,0-5.55-.12c-2,.06-4,.22-5.51.41-.75.08-1.37.2-1.81.26l-.69.12a.42.42,0,0,0-.31.36.4.4,0,0,0,.35.45l.7.06c.44,0,1.06.08,1.82.1,1.5.05,3.5.05,5.5,0s4-.18,5.48-.27c.74-.05,1.36-.11,1.77-.1h.75a.41.41,0,0,0,.38-.27A.42.42,0,0,0,1196.17,265Z"/><path class="cls-21" d="M1193.54,273.29a1.76,1.76,0,0,0-.31-.24,3.87,3.87,0,0,0-.45-.21,3.74,3.74,0,0,0-.56-.16,7.57,7.57,0,0,0-1.35-.19c-.48,0-1,0-1.51,0a14,14,0,0,0-2.75.47,7.43,7.43,0,0,0-1.21.43.45.45,0,0,0-.24.31.43.43,0,0,0,.35.49,9.46,9.46,0,0,0,1.26.11c.75,0,1.74,0,2.71-.05l2.62-.22.76,0h.19l.38,0a.35.35,0,0,0,.21-.1.33.33,0,0,0,0-.47Z"/><path class="cls-25" d="M1211.05,264c2.21,0,5.16.05,8.1.07h4.31l3.76.06,1.5,0,1.15.05,1,.05h0l.07,0a.42.42,0,0,0,.35-.3.44.44,0,0,0-.31-.51l-.1,0c-.15,0-.45-.11-.91-.2s-.71-.15-1.16-.22-1-.17-1.52-.23a69.13,69.13,0,0,0-8.17-.46c-3,0-5.93.14-8.15.34-1.11.09-2,.22-2.68.29s-.89.12-1,.14h0a.41.41,0,0,0,0,.8h0S1208.83,264,1211.05,264Z"/><path class="cls-25" d="M1225.63,293.14l-.15,0a3.29,3.29,0,0,0-.4-.1c-.34-.07-.81-.15-1.38-.22a34.11,34.11,0,0,0-4.18-.23,31.51,31.51,0,0,0-4.18.28l-.78.14-.65.15a2.4,2.4,0,0,0-.55.21.41.41,0,0,0-.16,0,.4.4,0,0,0-.37.44.4.4,0,0,0,.44.37l.36,0h.14a1.27,1.27,0,0,1,.33,0l.54,0,.76.05c1.12.07,2.63.12,4.13.12s3-.08,4.13-.16L1225,294l.49,0h.06a.44.44,0,0,0,.36-.31A.42.42,0,0,0,1225.63,293.14Z"/><path class="cls-25" d="M1211.47,287.2l.44,0h.17a3.55,3.55,0,0,1,.44,0l1.68.11c1.42.08,3.33.14,5.24.13s3.82-.09,5.25-.2l1.73-.15.63-.07h0a.49.49,0,0,0,.41-.37.47.47,0,0,0-.36-.57l-.18,0a4.83,4.83,0,0,0-.5-.1c-.43-.06-1-.17-1.75-.24a48.61,48.61,0,0,0-5.29-.24,44.71,44.71,0,0,0-5.29.32c-.37.05-.7.1-1,.16l-.8.16a2.26,2.26,0,0,0-.69.22.5.5,0,0,0-.24-.06.47.47,0,0,0-.45.5A.46.46,0,0,0,1211.47,287.2Z"/><path class="cls-25" d="M1209.92,334.94l0,0a.19.19,0,0,1-.12.09c-.09,0,0,0,0,0l.66.16c.61.15,1.49.41,2.57.64a34.49,34.49,0,0,0,12.48.51,30.53,30.53,0,0,0,3.73-.76,27.54,27.54,0,0,0,3.37-1.14l.14-.06a.42.42,0,0,0,.24-.46.4.4,0,0,0-.36-.34h-.13s-.36.06-1,.2-1.51.28-2.57.47a53.73,53.73,0,0,1-7.83.67,63.24,63.24,0,0,1-7.87-.42l-2.62-.29a6.29,6.29,0,0,0-.81,0l-.2,0-.12,0a.48.48,0,0,0-.16.08l-.06.05a.41.41,0,0,0,0,.55.42.42,0,0,0,.38.14.33.33,0,0,0,.18-.08Z"/><path class="cls-22" d="M1323.4,333.57l-.19,0-.72.11c-.62.07-1.48.18-2.53.27-2.08.18-4.86.34-7.65.41s-5.56,0-7.65,0c-1.05,0-1.92-.1-2.53-.13l-1-.07a.42.42,0,0,1-.36-.45.4.4,0,0,1,.35-.36l.95-.11c.61-.06,1.48-.16,2.52-.24,2.08-.16,4.86-.3,7.64-.37s5.56-.06,7.65,0l3.42.11h.08c.58-24.63-2.49-85.39-4.4-91.35-1.4-4.33-20-6.35-20.87.12-.09.68-.16,2.29-.2,4.61.1,0,.39-.09.86-.17s1.4-.26,2.4-.4c2-.29,4.66-.57,7.34-.7l2-.06c.66,0,1.32,0,2,0,1.26,0,2.45.1,3.47.21.51.06,1,.14,1.39.21l1.08.27a5.57,5.57,0,0,1,.7.28l.25.11a.41.41,0,0,1,.2.55.41.41,0,0,1-.45.23l-.12,0-.22,0c-.14,0-.32-.08-.59-.12l-1-.08-1.33,0c-1,0-2.14,0-3.37.08l-3.89.17c-2.65.12-5.31.24-7.31.29l-2.42,0h-1c-.27,18.81.91,77.85,3.16,91.77l22,.13C1323.26,337.37,1323.34,335.61,1323.4,333.57Zm-8.71-53.81a.45.45,0,0,1-.3.31,12.08,12.08,0,0,1-1.41.28,24.64,24.64,0,0,1-3.11.24,24.07,24.07,0,0,1-3.12-.16,12.43,12.43,0,0,1-1.42-.26.42.42,0,0,1-.29-.51.42.42,0,0,1,.28-.3,13.28,13.28,0,0,1,1.41-.29,24.64,24.64,0,0,1,3.11-.24,24.32,24.32,0,0,1,3.12.15,11.39,11.39,0,0,1,1.42.25A.44.44,0,0,1,1314.69,279.76ZM1304,273.24a.42.42,0,0,1,.31-.31,16.51,16.51,0,0,1,1.74-.3,36.69,36.69,0,0,1,3.82-.25,34.16,34.16,0,0,1,3.84.15,15.59,15.59,0,0,1,1.74.24.44.44,0,0,1,.34.51.46.46,0,0,1-.33.33,17.11,17.11,0,0,1-1.74.28,36.69,36.69,0,0,1-3.82.25,34.16,34.16,0,0,1-3.84-.15,16.89,16.89,0,0,1-1.74-.25A.42.42,0,0,1,1304,273.24Z"/><path class="cls-21" d="M1323.34,332.73l-3.42-.11c-2.09-.05-4.87-.05-7.65,0s-5.56.21-7.64.37c-1,.08-1.91.18-2.52.24l-.95.11a.4.4,0,0,0-.35.36.42.42,0,0,0,.36.45l1,.07c.61,0,1.48.1,2.53.13,2.09.07,4.87.09,7.65,0s5.57-.22,7.65-.4c1-.09,1.91-.2,2.53-.27l.72-.11.19,0h.08a.42.42,0,0,0-.06-.83h-.08Z"/><path class="cls-21" d="M1304.32,273.74a16.89,16.89,0,0,0,1.74.25c1,.1,2.44.16,3.84.15a36.69,36.69,0,0,0,3.82-.25,17.11,17.11,0,0,0,1.74-.28.46.46,0,0,0,.33-.34.45.45,0,0,0-.34-.51s-.7-.14-1.74-.24a37.69,37.69,0,0,0-7.66.11,16.51,16.51,0,0,0-1.74.3.41.41,0,0,0,0,.81Z"/><path class="cls-21" d="M1314.38,279.23A11.39,11.39,0,0,0,1313,279a24.32,24.32,0,0,0-3.12-.15,24.64,24.64,0,0,0-3.11.24,13.28,13.28,0,0,0-1.41.29.42.42,0,0,0-.28.3.42.42,0,0,0,.29.51,12.43,12.43,0,0,0,1.42.26,24.07,24.07,0,0,0,3.12.16,24.64,24.64,0,0,0,3.11-.24,12.08,12.08,0,0,0,1.41-.28.45.45,0,0,0,.3-.31A.44.44,0,0,0,1314.38,279.23Z"/><path class="cls-26" d="M1254.08,263.54l0,0-.64.23c-.41.16-1,.36-1.74.65-1.43.56-3.31,1.36-5.16,2.25s-3.67,1.85-5,2.63c-.67.39-1.2.75-1.59,1s-.59.4-.59.4h0a.48.48,0,0,0-.16.49.46.46,0,0,0,.57.32l.68-.22c.42-.15,1-.34,1.76-.62,1.45-.54,3.34-1.34,5.19-2.22s3.66-1.86,5-2.66c.67-.39,1.2-.76,1.59-1a4.71,4.71,0,0,0,.44-.32l.16-.12a.47.47,0,0,0-.44-.82Z"/><path class="cls-26" d="M1254.16,271h0l-.44.12c-.29.09-.7.21-1.19.39a33.61,33.61,0,0,0-3.53,1.43,31.53,31.53,0,0,0-3.36,1.82c-.45.28-.8.53-1.06.72a4.86,4.86,0,0,0-.39.31h0a.47.47,0,0,0,.42.8l.47-.11c.29-.08.72-.19,1.21-.35a33.36,33.36,0,0,0,3.56-1.41,28,28,0,0,0,3.36-1.85c.45-.28.81-.55,1.06-.74s.39-.34.39-.34a.48.48,0,0,0-.46-.81Z"/><path class="cls-26" d="M1277.93,336.74s.79-.14,1.92-.47a38.36,38.36,0,0,0,4.05-1.44,41.35,41.35,0,0,0,3.89-1.85c1-.56,1.69-1,1.69-1a.49.49,0,0,0,.2-.48.48.48,0,0,0-.56-.39s-.79.14-1.92.47a41,41,0,0,0-4,1.45,37.85,37.85,0,0,0-3.89,1.86,17,17,0,0,0-1.68,1,.47.47,0,0,0,.35.84Z"/><rect class="cls-16" x="1144" y="338" width="211" height="17"/><rect class="cls-20" x="1447" y="514" width="108" height="17"/><rect class="cls-16" x="1440" y="506" width="108" height="17"/><rect class="cls-20" x="173.88" y="91.92" width="304.12" height="203.08"/><rect class="cls-16" x="162" y="79" width="304.12" height="203.08"/><rect class="cls-20" x="821.26" y="139.54" width="147.74" height="198.46"/><rect class="cls-16" x="806" y="126" width="147.74" height="198.46"/><rect class="cls-20" x="481.31" y="419.75" width="153.57" height="110.25"/><rect class="cls-16" x="472" y="411" width="153.56" height="110.25"/><g id="varm_group"><rect class="cls-27" x="930.84" y="871.13" width="265.18" height="15.4" rx="4.37"/><rect class="cls-28" x="936.71" y="868.19" width="254.91" height="22.01" rx="5.81"/><rect class="cls-28" x="927.9" y="687" width="270.68" height="15.4" rx="4.37"/><rect class="cls-27" x="933.04" y="684.07" width="260.41" height="22.01" rx="5.81"/><rect class="cls-28" x="940.01" y="679.67" width="246.11" height="30.81" rx="5.81"/><rect class="cls-29" x="948.08" y="676" width="32.64" height="223"/><rect class="cls-29" x="946.24" y="858.65" width="36.31" height="40.35" rx="7.66"/><rect class="cls-29" x="987.32" y="676" width="32.64" height="223"/><rect class="cls-29" x="985.49" y="858.65" width="36.31" height="40.35" rx="7.66"/><rect class="cls-29" x="1027.67" y="676" width="32.64" height="223"/><rect class="cls-29" x="1025.83" y="858.65" width="36.31" height="40.35" rx="7.66"/><rect class="cls-29" x="1068.01" y="676" width="32.64" height="223"/><rect class="cls-29" x="1066.18" y="858.65" width="36.31" height="40.35" rx="7.66"/><rect class="cls-29" x="1106.89" y="676" width="32.64" height="223"/><rect class="cls-29" x="1105.06" y="858.65" width="36.31" height="40.35" rx="7.66"/><rect class="cls-29" x="1146.5" y="676" width="32.64" height="223"/><rect class="cls-29" x="1144.67" y="858.65" width="36.31" height="40.35" rx="7.66"/><rect class="cls-28" x="966.41" y="682.97" width="35.58" height="24.57" rx="8.3"/><rect class="cls-28" x="1006.03" y="682.97" width="35.58" height="24.57" rx="8.3"/><rect class="cls-28" x="1046" y="682.97" width="35.58" height="24.57" rx="8.3"/><rect class="cls-28" x="1085.98" y="682.97" width="35.58" height="24.57" rx="8.3"/><rect class="cls-28" x="1125.6" y="682.97" width="35.58" height="24.57" rx="8.3"/><rect class="cls-28" x="1165.57" y="682.97" width="18.34" height="24.57" rx="7.4"/><rect class="cls-28" x="943.67" y="682.97" width="18.34" height="24.57" rx="7.4"/></g><rect class="cls-30" x="1167" y="639" width="501" height="249" rx="39.78"/><path class="cls-31" d="M1203.92,639h146.16A36.92,36.92,0,0,1,1387,675.92V793a0,0,0,0,1,0,0H1167a0,0,0,0,1,0,0V675.92A36.92,36.92,0,0,1,1203.92,639Z"/><rect class="cls-32" x="1082" y="756" width="150" height="156" rx="45.09"/><path class="cls-31" d="M1423.92,639h146.16A36.92,36.92,0,0,1,1607,675.92V793a0,0,0,0,1,0,0H1387a0,0,0,0,1,0,0V675.92A36.92,36.92,0,0,1,1423.92,639Z"/><path class="cls-30" d="M1167,792h386.16A20.84,20.84,0,0,1,1574,812.84v11.32A20.84,20.84,0,0,1,1553.16,845H1167a0,0,0,0,1,0,0V792A0,0,0,0,1,1167,792Z"/><rect class="cls-30" x="1551" y="756" width="156" height="156" rx="45.09"/><rect class="cls-31" x="1134" y="800" width="398" height="45" rx="20.84"/><rect class="cls-31" x="1084" y="758" width="84" height="151.89" rx="40.66"/><rect class="cls-30" x="1094" y="768" width="62" height="129" rx="29.57"/><polygon class="cls-30" points="1350.6 715.4 1359 720 1350.6 724.6 1346 733 1341.4 724.6 1333 720 1341.4 715.4 1346 707 1350.6 715.4"/><polygon class="cls-30" points="1283.6 693.4 1292 698 1283.6 702.6 1279 711 1274.4 702.6 1266 698 1274.4 693.4 1279 685 1283.6 693.4"/><polygon class="cls-30" points="1215.6 715.4 1224 720 1215.6 724.6 1211 733 1206.4 724.6 1198 720 1206.4 715.4 1211 707 1215.6 715.4"/><polygon class="cls-31" points="1129.6 828.4 1138 833 1129.6 837.6 1125 846 1120.4 837.6 1112 833 1120.4 828.4 1125 820 1129.6 828.4"/><polygon class="cls-30" points="1428.6 715.4 1437 720 1428.6 724.6 1424 733 1419.4 724.6 1411 720 1419.4 715.4 1424 707 1428.6 715.4"/><polygon class="cls-30" points="1496.6 693.4 1505 698 1496.6 702.6 1492 711 1487.4 702.6 1479 698 1487.4 693.4 1492 685 1496.6 693.4"/><polygon class="cls-30" points="1563.6 715.4 1572 720 1563.6 724.6 1559 733 1554.4 724.6 1546 720 1554.4 715.4 1559 707 1563.6 715.4"/><path class="cls-18" d="M1192,797l-35-74,23-1c11,0,24-1.87,31.88,5.39L1250.42,763a19.52,19.52,0,0,1,1.1,27.48L1250,792C1242.79,799.89,1208,796,1192,797Z"/><path class="cls-16" d="M1182,791.53,1143.5,756a19.52,19.52,0,0,1-1.1-27.48h0a19.51,19.51,0,0,1,27.48-1.1L1208.42,763a19.52,19.52,0,0,1,1.1,27.48h0A19.5,19.5,0,0,1,1182,791.53Z"/><path class="cls-33" d="M1543.5,726l-35.33,73.84,23,1.1c11,.05,24,2,31.91-5.24l38.69-35.4a19.5,19.5,0,0,0,1.22-27.47l-1.47-1.61C1594.29,723.28,1559.49,727,1543.5,726Z"/><path class="cls-34" d="M1533.55,731.38l-38.74,35.35a19.51,19.51,0,0,0-1.25,27.47h0a19.5,19.5,0,0,0,27.47,1.25l38.73-35.35a19.5,19.5,0,0,0,1.26-27.47h0A19.5,19.5,0,0,0,1533.55,731.38Z"/><rect class="cls-31" x="1551" y="756" width="84" height="155.31" rx="40.66"/><rect class="cls-30" x="1562" y="770" width="62" height="129" rx="29.57"/><polygon class="cls-31" points="1597.6 830.4 1606 835 1597.6 839.6 1593 848 1588.4 839.6 1580 835 1588.4 830.4 1593 822 1597.6 830.4"/><rect class="cls-19" x="172.37" y="89" width="283.15" height="184"/><rect class="cls-19" x="482.11" y="421.97" width="135.38" height="91.41"/><rect class="cls-19" x="818.09" y="136" width="122.91" height="177"/><path class="cls-35" d="M250.16,203.54l-19.56,2.71s-5.49-10.82,1.05-19.86a.83.83,0,0,1,1.24.09l7.45,8.23a.9.9,0,0,0,1.56-.66l-.43-6.69a.89.89,0,0,1,1.63-.57C245,189.52,250.16,203.54,250.16,203.54ZM230,198.25c-.44,3.16,5.54.56,5.31-2S230.4,195.09,230,198.25Z"/><path class="cls-35" d="M228.77,206.25l-16.46-2s4.51-7.19,5.3-7.79-9.09,1.23-9.41-4.14,9-4.37,10.28.84c0,0,2.3-9.16,5.58-8.14s.68,8.47-3.51,9.67C220.55,194.7,224.94,196.4,228.77,206.25Z"/><path class="cls-36" d="M253.84,203.24l-.37,1.73a3.81,3.81,0,0,0-2.13,6.68c.07.38,2.1,11.47-18.69,9.24-13.55-1.46-17.68-5.48-18.9-8.17l-.48-1.87a3.14,3.14,0,0,1,0-.74,3.48,3.48,0,0,0,.26-5.16S233.71,210.11,253.84,203.24Z"/><path class="cls-37" d="M253.84,212.59a10,10,0,0,1-3.56,7.1l1.65-7.61A3.84,3.84,0,0,0,253.84,212.59Z"/><path class="cls-38" d="M353.13,175.26a37.35,37.35,0,0,0,8.42-4.71c-1.4,1.06-.09,3.14,0,3.28a9.41,9.41,0,0,0-1.66-.29c-4.34-.44-17.69,13.78-26.69,24,.1-3.93.4-7.7.74-10.92l.56,0s11.34-1.11,12.3-9.67A32,32,0,0,0,353.13,175.26Z"/><path class="cls-37" d="M213.75,212.72l1.13,4.41a13.6,13.6,0,0,1-3.77-6.24,3.46,3.46,0,0,0,2-.64l.15.6A5.44,5.44,0,0,0,213.75,212.72Z"/><path class="cls-37" d="M253.84,205a3.82,3.82,0,1,1-1.91,7.13l.25-1.18a2.67,2.67,0,0,0,1.66.57,2.7,2.7,0,1,0,0-5.4,2.27,2.27,0,0,0-.63.08l.26-1.18A2.23,2.23,0,0,1,253.84,205Z"/><path class="cls-37" d="M207.62,207.41a3.48,3.48,0,0,1,3.49-3.48,2.48,2.48,0,0,1,.39,0l.36,1.39a2.32,2.32,0,0,0-.75-.13,2.2,2.2,0,1,0,1.65,3.64l.36,1.4a3.49,3.49,0,0,1-5.5-2.84Z"/><path class="cls-37" d="M213.57,205a3.48,3.48,0,0,1-.26,5.16,1.33,1.33,0,0,0-.19.14l-.36-1.4a2.16,2.16,0,0,0,.54-1.44,2.21,2.21,0,0,0-1.44-2.07L211.5,204A3.41,3.41,0,0,1,213.57,205Z"/><path class="cls-39" d="M327.29,233.62l3.86,7.44a31.26,31.26,0,0,1-3.82.2l-3.39-6.64-6.3-12.32c1.14-.39,2.19-.78,3.16-1.17Z"/><path class="cls-40" d="M370.9,148.15c-.17-.37-.32-.76-.47-1.14-.81-2.08-1.38-4.25-2.06-6.38a34.19,34.19,0,0,0-1.66-4.31,27.57,27.57,0,0,0-4.48-6.62,24,24,0,0,0-1.91-1.86c-.13-.11-.26-.23-.4-.33a24.9,24.9,0,0,0-4.62-3.07l-.1,0-.13.27c-8.14,1.34-19.88,15-21.07,16l.06,1s4,6.14-2.39,10c-11.25,6.76-20.75-.57-24.44-3.67h0l0-.06a4.67,4.67,0,0,1-1.25-.4,39.35,39.35,0,0,0,10.67,20.22l.07.07q.51.49,1,.93c.39.34.78.67,1.18,1a35.33,35.33,0,0,0,15.14,7.05l1.24.23a35.23,35.23,0,0,0,8.39.38c1-.08,2.08-.21,3.11-.38a32.65,32.65,0,0,0,6.33-1.74,37.35,37.35,0,0,0,8.42-4.71c8.51-6.2,14.75-15.1,15.92-18.18C374.28,152.75,372.13,151,370.9,148.15Zm-42.13,17.26c-.34-.11-.69-.24-1-.39a3.72,3.72,0,0,0,.26-3.29l.26,0,.77-.36c1.91-.84,6.73-2.68,6.73.36C335.75,165.2,333.18,166.91,328.77,165.41Zm9.51-10.89c-1.7.52-2.8-5.77-.74-5.76C340.2,148.78,340,154,338.28,154.52Zm11.17,3.28c-3.13.89-3.93,2-6.13,3.88s-2.34-14.94,7.83-10C355.92,154,352.58,156.92,349.45,157.8Z"/><path class="cls-40" d="M421.65,173.53c29.5,62.36-28.41,61.7-28.41,61.7,2.77-8.08-.37-15.55-4.3-21.06-.42-.59-.84-1.15-1.27-1.69a34.3,34.3,0,0,1-5.07-12.63,56.69,56.69,0,0,1,2.26-29.48c2.94-8,8.29-11.31,11.69-16.6L394.29,166l7.55-7.05v20.91L411.52,161l4.92,8.66.94-5.87Q419.24,168.44,421.65,173.53Z"/><path class="cls-37" d="M417.38,163.82l-.94,5.87L411.52,161l-9.68,18.79V158.91L394.29,166l2.26-12.19c2.5-3.9,3.95-8.88,2.58-17.63-3.2-20.42,14.88-26.45,15.27-26.58C414.15,109.82,401.06,123.48,417.38,163.82Z"/><path class="cls-40" d="M388.85,214.08c3.93,5.52,7.07,13,4.3,21.07-5.41,15.79-32.19,18.28-51.84,17.76.17-1,2.42-15.13-3.05-14.2,4.9-2.63,9.59-7.13,13.34-11.42h0a97.76,97.76,0,0,0,8.37-11l-.22-.61c12.37-4.47,18.06-9.09,20-11l0,0a45.53,45.53,0,0,1,7.8,7.7C388,213,388.4,213.54,388.85,214.08Z"/><path class="cls-35" d="M381.24,200.12a7.38,7.38,0,0,1-.66,3.77,10.72,10.72,0,0,1-.82.86c-1.94,1.87-7.63,6.49-20,11a145.67,145.67,0,0,1-22.38,5.94l-.11.06c-.12-.22-.25-.44-.36-.66a20.36,20.36,0,0,1-.93-2l.21-.06s31.49-4.36,40.2-21C376.39,198,380.73,197,381.24,200.12Z"/><path class="cls-37" d="M380.7,103.3s-.6,5.74-1.69,13.07l-.52-7-2.55,4.07-.68-2.88-5,1Z"/><path class="cls-40" d="M378.48,109.41l.52,7h0c-1.75,11.87-4.77,27.91-8.58,30.64-.8-2.07-1.38-4.25-2.06-6.37,7.61-3.13,6.05-26.14,6.05-26.14-4.18,3.51-12.33,14.46-12.18,15.21a23.91,23.91,0,0,0-1.91-1.86,4.35,4.35,0,0,0-.41-.34c.35-1.05,3.61-10.48,10.37-15.89l5-1,.68,2.88Z"/><path class="cls-41" d="M374.41,114.5s1.57,23-6,26.14a33.75,33.75,0,0,0-1.66-4.32,27.51,27.51,0,0,0-4.48-6.61C362.09,129,370.23,118,374.41,114.5Z"/><path class="cls-38" d="M366.32,184.41c1,4.64,10.07,13.58,10.07,13.58-8.71,16.64-40.2,21-40.2,21l-.21.06a35,35,0,0,1-2-7.26C344.19,203.77,364.38,187.61,366.32,184.41Z"/><path class="cls-35" d="M361.55,173.83c5.46,1.39,7.15,6.65,4.77,10.58-1.94,3.2-22.13,19.36-32.29,27.38a76.9,76.9,0,0,1-.83-14.22c9-10.25,22.35-24.47,26.69-24a9.41,9.41,0,0,1,1.66.29Z"/><path class="cls-40" d="M359.76,215.63l.22.61a97.76,97.76,0,0,1-8.37,11h0c-7.06,1.72-11.55-.89-14.33-5.67l.11-.06A147,147,0,0,0,359.76,215.63Z"/><path class="cls-37" d="M335.57,121.84c.81-.18,1.62-.32,2.44-.43a29.53,29.53,0,0,1,17.11,3l-.13.28c-8.14,1.33-19.88,15-21.07,16,0,0-7.54-13.42-2.41-17.58h0A26.36,26.36,0,0,1,335.57,121.84Z"/><path class="cls-41" d="M351.6,227.38c-3.75,4.28-8.44,8.79-13.34,11.41a20.3,20.3,0,0,1-4.2,1.74c-.28-7.39-5.62-7.85-5.8-7.86a45.59,45.59,0,0,0,8.49-11.54l.16-.08c.11.22.24.44.36.66C340.05,226.49,344.54,229.09,351.6,227.38Z"/><path class="cls-39" d="M351.15,151.66c4.77,2.3,1.43,5.26-1.7,6.14s-3.93,2-6.13,3.88S341,146.74,351.15,151.66Z"/><path class="cls-35" d="M343.69,177.38c1-.08,2.08-.2,3.11-.38-1,8.56-12.3,9.67-12.3,9.67l-.56,0c.19-1.77.39-3.38.58-4.76C334.92,182.05,340,183.9,343.69,177.38Z"/><path class="cls-40" d="M335.3,177a35.23,35.23,0,0,0,8.39.38c-3.69,6.52-8.77,4.67-9.17,4.51C334.94,178.87,335.3,177,335.3,177Z"/><path class="cls-35" d="M338.26,238.79c5.47-.93,3.22,13.16,3.05,14.21a167,167,0,0,1-20-1.64c4-13.18-3.37-20-3.37-20a1.53,1.53,0,0,1,1.08-.78c1.58-.11,2.88,2.11,3.81,4.48a37.77,37.77,0,0,1,1.62,5.48s0,.67,2.84.71l2.47,4.84,3.18-1.53-1.83-3.51.52-.05a14.66,14.66,0,0,0,2.39-.48A20.3,20.3,0,0,0,338.26,238.79Z"/><path class="cls-42" d="M337.54,148.76c2.66,0,2.44,5.24.74,5.76S335.48,148.75,337.54,148.76Z"/><path class="cls-35" d="M334.6,181.89c-.18,1.38-.39,3-.58,4.76-.34,3.22-.64,7-.74,10.92-3.74,4.25-6.74,7.83-8,9.38.51-4.29-6.12-4.35-6.12-4.35l15-25.83h0c.41.09.83.16,1.24.23C335.38,177,335,178.87,334.6,181.89Z"/><path class="cls-42" d="M307.23,148h0l0-.07a3.23,3.23,0,0,0,2.59-.58l.2,0c2.47,1.68,4,3.65,8.76,4.18.52.05,1.08.09,1.69.12,10,.33,13.59-10,13.59-10s4,6.14-2.39,10C320.42,158.42,310.92,151.09,307.23,148Z"/><path class="cls-40" d="M333.92,140.65l.06,1s-3.57,10.32-13.58,10c-.61,0-1.18-.07-1.7-.12a33.24,33.24,0,0,1,1.08-15.4,24.16,24.16,0,0,1,5.2-8.69l2.19-2.19a25.22,25.22,0,0,1,4.34-2.19h0C326.38,127.23,333.92,140.65,333.92,140.65Zm-10,10.58c1.7-.52,1.91-5.75-.75-5.76C321.11,145.45,322.21,151.74,323.91,151.23Z"/><path class="cls-39" d="M328.25,161.71s7.5-3.79,7.5,0-3,5.46-8,3.31a3.72,3.72,0,0,0,.26-3.29Z"/><path class="cls-35" d="M333.2,197.57a76.9,76.9,0,0,0,.83,14.22c-3.47,2.75-5.77,4.54-5.77,4.54l-.21-.09a2.19,2.19,0,0,0,.2-.82c.14-2.35-1.57-7.12-3.76-7.65l.69-.82C326.46,205.4,329.46,201.82,333.2,197.57Z"/><path class="cls-40" d="M335.65,121.84a25.71,25.71,0,0,0-4.06,1.23,25.22,25.22,0,0,0-4.34,2.19l-2.19,2.19a70.09,70.09,0,0,0-6.75-12.16l1.11-5.73,3.83,4.07.29-3.48A50.51,50.51,0,0,1,335.65,121.84Z"/><path class="cls-35" d="M331.15,241.06l1.83,3.51-3.18,1.53-2.47-4.84A31.26,31.26,0,0,0,331.15,241.06Z"/><path class="cls-38" d="M334.06,240.53a14.66,14.66,0,0,1-2.39.48l-.52.05-3.86-7.44s.37-.34,1-1C328.44,232.68,333.78,233.14,334.06,240.53Z"/><path class="cls-41" d="M308.09,220.26a9.9,9.9,0,0,1-1.86-6.42c.26-1.75,2.91-2.83,5.32-3.45a29.76,29.76,0,0,1,4.05-.74s-2.17-.54-2-2.28a3.16,3.16,0,0,1,.48-1.23s7.59,1.58,10,1.58a1.74,1.74,0,0,1,.39.05c2.19.53,3.9,5.3,3.76,7.65a2.19,2.19,0,0,1-.2.82c-.71,1.65-3.25,3.29-7.25,4.89-1,.39-2,.78-3.16,1.17l-1.47.48A6.74,6.74,0,0,1,308.09,220.26Z"/><path class="cls-38" d="M323.94,234.62l3.39,6.64c-2.84,0-2.84-.71-2.84-.71a37.77,37.77,0,0,0-1.62-5.48Z"/><path class="cls-40" d="M319.06,202.6s6.63.06,6.12,4.35l-.69.82a1.74,1.74,0,0,0-.39-.05c-2.38,0-10-1.58-10-1.58a3.33,3.33,0,0,0-.48,1.23l-.78-1.51a2.06,2.06,0,0,1,.78-2.72l4,2Z"/><path class="cls-42" d="M323.16,145.47c2.66,0,2.45,5.24.75,5.76S321.11,145.45,323.16,145.47Z"/><path class="cls-37" d="M323.54,110.15l-.29,3.48-3.83-4.07-1.11,5.73c-3.88-5.64-8.38-10.42-12.34-12.29C306,103,314.22,103.8,323.54,110.15Z"/><path class="cls-35" d="M317.16,248c-1.21-3-1.35-7.45-.86-11.11a13.54,13.54,0,0,1,1.68-5.53s7.42,6.81,3.37,20l-1-.16C318.89,250.91,317.85,249.7,317.16,248Z"/><path class="cls-41" d="M318.31,115.29a70.09,70.09,0,0,1,6.75,12.16,23.88,23.88,0,0,0-5.2,8.69C322.64,123.07,306,103,306,103,309.93,104.87,314.43,109.65,318.31,115.29Z"/><path class="cls-38" d="M317.16,248c-3.67-.32-4.9.78-6.56.51,4-13.18-4-20.14-4-20.14a1.52,1.52,0,0,1,1.08-.78c3.34-.23,6.6,9.67,6.6,9.67s.23-.67,2.06-.37C315.81,240.56,316,245,317.16,248Z"/><path class="cls-39" d="M312.87,205.86l.78,1.51c-.22,1.74,2,2.28,2,2.28a29.76,29.76,0,0,0-4.05.74l-1.18-2.31c-18.37-35.89-43.32-84.47-45.82-88.51a18.61,18.61,0,0,1-2.83-12.14Z"/><path class="cls-40" d="M311.55,210.39c-2.41.62-5.06,1.7-5.32,3.45a9.9,9.9,0,0,0,1.86,6.42c-.18-.07-4.11-1.59-4-5.58s6.25-6.6,6.25-6.6Z"/><path class="cls-38" d="M306.56,228.38s8.09,7,4,20.14C303.05,248.52,304,232,306.56,228.38Z"/><path class="cls-42" d="M306,147.51c-3.25-1.51-5.86-6.17-2.77-5.82.31,0,9,3.06,7.2,5.09a4.94,4.94,0,0,1-.58.55,3.23,3.23,0,0,1-2.59.58,4.67,4.67,0,0,1-1.25-.4Z"/><path class="cls-36" d="M261.11,246.24c-8.62.07-15.46,1.08-15.46,2.31s7.32,2.32,16.35,2.32,16.36-1,16.36-2.32S271,246.24,262,246.24Zm0-2.33H262c18.13,0,32.83,2.09,32.83,4.65s-14.7,4.65-32.83,4.65-32.82-2.08-32.82-4.65S243.4,244,261.11,243.91Z"/><path class="cls-36" d="M261.11,246.24H262c9,0,16.36,1,16.36,2.31S271,250.87,262,250.87s-16.35-1-16.35-2.32S252.49,246.31,261.11,246.24Z"/><path class="cls-37" d="M254.23,201.47l-.39,1.77c-20.13,6.87-40.27,1.71-40.27,1.71a3.41,3.41,0,0,0-2.07-1l-.42-1.65S223.81,205,231.14,205,254.23,201.47,254.23,201.47Z"/><path class="cls-37" d="M251.34,211.65a3.81,3.81,0,0,1,2.13-6.68l-.26,1.18a2.69,2.69,0,0,0-2.07,2.62,2.72,2.72,0,0,0,1,2.13l-.25,1.18A3.07,3.07,0,0,1,251.34,211.65Z"/><path class="cls-37" d="M251.93,212.08l-1.65,7.61c-2.77,2.46-7.71,4.52-16.48,4.19-10.1-.39-15.77-3.62-18.92-6.75l-1.13-4.41c1.22,2.69,5.35,6.71,18.9,8.17,20.79,2.23,18.76-8.86,18.69-9.24A3.07,3.07,0,0,0,251.93,212.08Z"/><path class="cls-36" d="M250.2,219.53l-3.87,18.67c-9.46,3.91-25.66,1.16-25.66,1.16l-5.89-22.07c3.17,3.11,8.87,6.28,19,6.58C242.53,224.12,247.45,222,250.2,219.53Z"/><path class="cls-42" d="M328.77,165.41a1.18,1.18,0,0,1-.11.19c-1.36,2.17-4.55,3.51-9.74,4.12-.4-.32-.79-.65-1.18-1s-.68-.6-1-.93l-.07-.07,1-.08c6.27-.58,8.44-2.06,9.16-3.21a2.59,2.59,0,0,0,.15-2.35,6.64,6.64,0,0,0-1.2-2,1.09,1.09,0,1,1,1.59-1.5,8.72,8.72,0,0,1,1.68,2.77v0A4.79,4.79,0,0,1,328.77,165.41Z"/><path class="cls-42" d="M260,248.51v-140a1.13,1.13,0,0,1,.87-1.12,1.11,1.11,0,0,1,1.35,1.07v140.1a1.11,1.11,0,0,1-1.35,1.08A1.13,1.13,0,0,1,260,248.51Z"/><path class="cls-40" d="M593.72,486.65c-.3-4.5-2.72-1.08-2.72-1.08-2.45-11.13-13.34-12.35-13.34-12.35h0c-1-1.19-3.32-2.23-6.08-3.1-.72-.23-1.47-.45-2.23-.65A114,114,0,0,0,556.79,467l-.15-.19a15.06,15.06,0,0,0,3.41-3.56h0c2-.25,4-3.52,2.19-3.31,0,0-.69.23-1.44.55-.66-.24-2.5-1.44-1.48-7.07a7.93,7.93,0,0,0-1.16-5.83,2.12,2.12,0,0,0,.16-1.51c-.2-2.29-1.37-4.17-1.57-6.46-.18-2.07.9-8.49,1.34-10.34-1.57,1.29-2.86,2.46-3.92,3.52-6.56,6.57-4.22,8.95-4.22,8.95l0,.22c-6.53-1.31-10.95.06-13.79,3.07a8.82,8.82,0,0,0-2.56-2c-5-2.59-12-.82-13.8-.3l-.42.13c1.55.8,3.09,1.66,4.58,2.58a36.51,36.51,0,0,1,3.39,2.28c2.17,1.71,3.25,4.36,5.47,6.07,0,1.05,0,2.08-.06,3.06a7.3,7.3,0,0,1-1,3.25c-.1.18-1,2.06-1.33,1.89a85.88,85.88,0,0,0,8.4,5s-1.92,2.77-3.22,4.41a18.57,18.57,0,0,1-2,1.65c-.72.56-1.55,1.24-2.39,2-2.64,2.5-5.38,6.16-4.9,10.93-3.9-.89-1.4-19.63-6.64-22-.32-.14-.63-.29-.92-.44-11.91-6-10.2-17.46-10.12-18a20.09,20.09,0,0,1-.62,2c-.51,1.74-.94,3.51-1.31,5.29a41.12,41.12,0,0,0-1,12.76,23.7,23.7,0,0,0,3.87,10.11c.34.53.69,1.06,1.05,1.58a24.84,24.84,0,0,0,6.15,6.69c3,2.07,6.33,3.78,9.94,4a16.3,16.3,0,0,0,2,4.24c-2.27-.41-4.51-.92-6.68-1.52-6.56-7.93-11.33-4.93-12.85,1.52s11.29,10.56,11,4.88c-.45-7.92-7.92-4.09-7-2.52s4.59-.54,4.86.51c.62,2.41-6.57,2.82-6.72-.66s6.4-4.75,9.41-1.78c2.23,2.19,3.87,8.13,3.87,8.13A84.72,84.72,0,0,0,542.64,503c19.06,0,46.38-2.34,48.36-3.78C594,497.07,594,491.14,593.72,486.65Zm-25-13.39c1.19.23,2,.42,2.12.44h0l.83.34a6.27,6.27,0,0,0-1.43,1.66c-1.56-1-4.89-2.13-8.56-3.16C563,472.25,566.44,472.83,568.71,473.26ZM565.11,493a11,11,0,0,1-1-2.26c-1-3.16-1.58-7.49-3.15-10.18-2.12-3.63-6.54-1.76-7.79-1.13.67-.39.93-.85,1.25-2.18l0-.15.49.07,2.45.3a58.8,58.8,0,0,0,11.24.43s14.17,6.38,17.83,11.83A188.62,188.62,0,0,1,565.11,493Zm-12.23-13.4.32-.16Zm-.18,14.2a30.25,30.25,0,0,0,2.28-3.65h0a18.59,18.59,0,0,0,1.26-2.94c.88.05,3.78,5.05,3.78,5.05l-.29-.07c-.57-.19-.73.39-.59,1.3C557.05,493.66,554.89,493.76,552.7,493.83Zm-3.78-5.15c-.14.38-.49,1.31-.81,2.46a20.19,20.19,0,0,0-.6,2.75l-2.35,0A12.67,12.67,0,0,0,548.92,488.68Zm41.5-1h0l-1.57.88c-2.55-6.71-19-9.85-18.63-10.88a1.47,1.47,0,0,0,.86-.57c.15-.27,0-.57-.27-.88h0a4,4,0,0,1,1.78-1.85l.15.3c.6.26,3.09,1.24,4.55-.06v-.08a18.85,18.85,0,0,1,7,3.14c3.66,2.77,6.11,7.81,6.58,8.84A7,7,0,0,1,590.42,487.64Z"/><path class="cls-41" d="M555.17,433.83c1.5-2.49,2.89-4.55,2.89-4.55-.44,1.85-1.51,8.27-1.34,10.34.2,2.29,1.38,4.17,1.57,6.46a2.12,2.12,0,0,1-.16,1.51,15.65,15.65,0,0,0-6.33-5.18C550.65,441.85,553,437.39,555.17,433.83Z"/><path class="cls-38" d="M539.51,473.07c-1.32-2.91,2.77-4.69,2.77-4.69a16.85,16.85,0,0,1-3.5-1.37s-1.93,2.77-3.23,4.41a17.58,17.58,0,0,1-2,1.65,3.66,3.66,0,0,0,.72,3.49,8.51,8.51,0,0,0,1.93,1.92,16.33,16.33,0,0,0,1.81,1.16,28.82,28.82,0,0,0,4.62,2,21,21,0,0,1,6.37-2,10,10,0,0,1,3.83.21l.06-.21h0l.32-.16h0c.67-.39.93-.85,1.25-2.18l0-.15C547.2,476.13,540.15,474.48,539.51,473.07Z"/><path class="cls-38" d="M571.55,470.12c-.72-.23-1.47-.45-2.23-.65l0,.07a4.48,4.48,0,0,0-.52.6,3.24,3.24,0,0,0-.71,1.53,1.69,1.69,0,0,0,.65,1.55v0c1.19.23,2,.42,2.12.44a2.76,2.76,0,0,1-.58-1.47,2.08,2.08,0,0,1,.76-1.7A3.46,3.46,0,0,1,571.55,470.12Z"/><path class="cls-38" d="M555.2,472.07a5.46,5.46,0,0,0-1.19,3,2.73,2.73,0,0,0,1,2.09l2.45.3v0a3.44,3.44,0,0,1-1.08-2.17,3.68,3.68,0,0,1,.66-2.24,6.35,6.35,0,0,1,1.29-1.42l-2.27-.57A9.39,9.39,0,0,0,555.2,472.07Z"/><path class="cls-38" d="M555.3,470.91a10.84,10.84,0,0,0-.09-3.2,12.09,12.09,0,0,1-5.87,1.45l0,.12c1.62.47,3.26,1,4.7,1.32Z"/><path class="cls-39" d="M551.8,495s.36-.45.9-1.18a30.25,30.25,0,0,0,2.28-3.65c-1.18,1.75-6.29,1.05-6.87,1a20.19,20.19,0,0,0-.6,2.75,7.27,7.27,0,0,0,.15,3.49c2.37.19,4.79.32,7.2.42.59-.45.79-.94.68-1.26A6.28,6.28,0,0,1,551.8,495Z"/><path class="cls-39" d="M570.38,495c-.29-.31-.36.84-3.66-.48a3.47,3.47,0,0,1-1.61-1.53,11,11,0,0,1-1-2.26s-2.64,1.68-4.13,1.52l-.29-.07c-.57-.19-.73.39-.59,1.3a10.66,10.66,0,0,0,2,4.4c2.46,0,4.88-.05,7.17-.15C569.75,496.58,570.55,495.21,570.38,495Z"/><path class="cls-39" d="M550.07,458.79a3.21,3.21,0,0,0-.73-.54h0a3.17,3.17,0,0,0-2.84,0c-2.48,1.09-1.2,2.43.39,2.88a11.91,11.91,0,0,1,4.36,2.12C552,463.94,551.78,460.46,550.07,458.79Z"/><path class="cls-35" d="M556.76,467l-.14-.19a14.08,14.08,0,0,1-1.41.89,10.84,10.84,0,0,1,.09,3.2L554,470.6c-1.44-.33-3.08-.85-4.7-1.32-2.79-.81-5.51-1.49-7-.9,0,0-4.09,1.78-2.77,4.69.64,1.41,7.69,3.06,15,4.06l.49.07a2.73,2.73,0,0,1-1-2.09,5.46,5.46,0,0,1,1.19-3,9.39,9.39,0,0,1,.83-1l2.27.57c1.13.28,2.27.58,3.37.89,1.29-.29,4.77.29,7,.72v0a1.69,1.69,0,0,1-.65-1.55,3.24,3.24,0,0,1,.71-1.53,4.48,4.48,0,0,1,.52-.6l0-.07A114,114,0,0,0,556.76,467Z"/><path class="cls-35" d="M536.19,478.48a8.51,8.51,0,0,1-1.93-1.92,3.66,3.66,0,0,1-.72-3.49c-.71.56-1.54,1.24-2.39,2h0a9.86,9.86,0,0,0,1.25,3.29,8.65,8.65,0,0,0,2,2.27,8,8,0,0,0,3.07,1.52,11.06,11.06,0,0,0,3.6.24q.75-.42,1.59-.81a28.82,28.82,0,0,1-4.62-2A16.33,16.33,0,0,1,536.19,478.48Z"/><path class="cls-41" d="M529.11,445a17.55,17.55,0,0,1,4.87,3,11.69,11.69,0,0,0-1.22,5.78c-2.22-1.71-3.31-4.36-5.48-6.07a34,34,0,0,0-3.39-2.28q-2.24-1.38-4.58-2.58l.42-.13v.08C521.54,442.62,525.56,443.49,529.11,445Z"/><path class="cls-40" d="M573,474.14l-.38.19.15.29c.6.27,3.09,1.25,4.54-.06l0-.07A10.51,10.51,0,0,0,573,474.14Z"/><path class="cls-40" d="M577.63,473.22c-1-1.19-3.32-2.23-6.08-3.1a3.46,3.46,0,0,0-.54.41,2.08,2.08,0,0,0-.76,1.7,2.76,2.76,0,0,0,.58,1.47h0l.83.34C574.24,472,577.52,473.18,577.63,473.22Z"/><path class="cls-40" d="M553.21,479.46h0l-.32.16h0l-.06.21a7.3,7.3,0,0,1,1.32.5c2.87,1.4,3,4.15,2.1,6.89.88.05,3.78,5.05,3.78,5.05,1.49.16,4.13-1.52,4.13-1.52-1-3.16-1.58-7.49-3.15-10.18C558.88,477,554.46,478.83,553.21,479.46Z"/><path class="cls-40" d="M555.17,433.83l-2.59,1.33,1.56-2.36c-6.56,6.57-4.21,8.95-4.22,8.95l0,.22c.62.12,1.26.27,1.92.44C550.65,441.85,553,437.39,555.17,433.83Z"/><path class="cls-40" d="M533.53,443.09l-4,.8,1.86,1.19h-2.31a17.55,17.55,0,0,1,4.87,3s7.11,2.69,2.11-3A8.56,8.56,0,0,0,533.53,443.09Z"/><path class="cls-40" d="M519.61,464c-.32-.14-.62-.29-.92-.44l-2.2-.14,1,2.26-1.8-.71,1.8,3.28-4.56-1s1.38,5.36,1.32,5.6-5.81-5-5.81-5,1.08,7,1.11,7.94c.33.53.68,1.06,1,1.58a24.84,24.84,0,0,0,6.15,6.69c3,2.07,6.34,3.78,9.94,4a12.81,12.81,0,0,1-.39-2C522.36,485.14,524.85,466.4,519.61,464Z"/><path class="cls-36" d="M593.7,486.66c-.3-4.49-2.73-1.08-2.73-1.08-2.44-11.13-13.34-12.34-13.34-12.34h0c-.11,0-3.39-1.26-6,.82a6.49,6.49,0,0,0-1.43,1.67,3.58,3.58,0,0,1,.6.47,4,4,0,0,1,1.78-1.85c.12-.06.25-.13.38-.18a10.43,10.43,0,0,1,4.33.34,18.81,18.81,0,0,1,7,3.14c3.67,2.77,6.12,7.81,6.59,8.84a8,8,0,0,1-.45,1.16h0l-1.57.88c-2.55-6.71-19-9.85-18.63-10.88a8.44,8.44,0,0,1-1.57.3s14.17,6.39,17.83,11.84A187.43,187.43,0,0,1,565.11,493a3.47,3.47,0,0,0,1.61,1.53c3.3,1.32,3.37.18,3.66.48s-.63,1.54-2.11,2.73c-2.29.11-4.71.15-7.17.15a10.55,10.55,0,0,1-2-4.4c-2.09.14-4.25.25-6.44.31-.54.74-.9,1.18-.9,1.18a6.28,6.28,0,0,0,3.74,1.53c.11.33-.09.82-.68,1.26-2.41-.09-4.83-.23-7.2-.41a7.31,7.31,0,0,1-.15-3.5c-.78,0-1.57,0-2.35,0a13.31,13.31,0,0,1-5.54,2.67,81.26,81.26,0,0,1-9.14-1.73,3,3,0,0,1-.38-.42,22.92,22.92,0,0,1-1.5-2.09c-2.28-.41-4.52-.91-6.68-1.52-6.57-7.93-11.33-4.93-12.86,1.52s11.29,10.56,11,4.88c-.45-7.91-7.91-4.09-7-2.52s4.59-.54,4.86.51c.62,2.42-6.56,2.83-6.71-.66s6.39-4.75,9.41-1.77c2.22,2.19,3.86,8.13,3.86,8.13A84.87,84.87,0,0,0,542.62,503c19,0,46.37-2.34,48.35-3.78C593.94,497.09,594,491.16,593.7,486.66Z"/><path class="cls-43" d="M555,458.82a7.1,7.1,0,0,0,4.12,2.58c-.59.42-.93.86-.6,1.24a1.66,1.66,0,0,0,1.54.61c2-.25,4-3.52,2.2-3.31a14.65,14.65,0,0,0-1.44.55l-.59.27c-2.7-2.49-6.13-8.86-6.13-8.86S553.07,456,555,458.82Z"/><path class="cls-43" d="M557.82,456.17c.9-.27,1-3-.39-3.05C556.34,453.11,556.92,456.45,557.82,456.17Z"/><path class="cls-37" d="M558.06,429.28c-1.57,1.29-2.86,2.46-3.92,3.52l-1.56,2.36,2.59-1.33C556.67,431.34,558.06,429.28,558.06,429.28Z"/><path class="cls-37" d="M541,445c.32,0,.64,0,1,0,.64,0,1.29,0,1.93,0a17.47,17.47,0,0,1,4.81.89c2.44.85,5.36,4.95,5.47,5.11,0-.21-1.76-6.71-2.17-6.87-2.5-1-5.74-1.83-8.33-1.13a6.24,6.24,0,0,0-2.86,1.48C540.33,444.85,540.35,445,541,445Z"/><path class="cls-43" d="M549.33,458.25h0a3.21,3.21,0,0,1,.73.54l0-.05c1.26,0,1.56-3.74-.14-3.75C548.72,455,548.67,457.62,549.33,458.25Z"/><path class="cls-37" d="M529.11,445.08h2.31l-1.86-1.19,4-.8c-5-2.58-12-.81-13.8-.3v.08C521.54,442.65,525.56,443.53,529.11,445.08Z"/><path class="cls-37" d="M508.4,467.87s5.75,5.28,5.81,5-1.32-5.6-1.32-5.6l4.56,1-1.8-3.28,1.8.71-1-2.26,2.2.14c-11.9-6-10.19-17.46-10.11-18a20.15,20.15,0,0,1-.63,2c-.5,1.74-.94,3.51-1.3,5.29a41.43,41.43,0,0,0-1,12.76,23.58,23.58,0,0,0,3.88,10.11C509.48,474.89,508.4,467.87,508.4,467.87Z"/><path class="cls-43" d="M553.62,466.33a7.35,7.35,0,0,1-2.14-.32,3.35,3.35,0,0,1-2.05-1.53,2.55,2.55,0,0,1-.09-2,.46.46,0,1,1,.88.28,1.7,1.7,0,0,0,0,1.34,2.49,2.49,0,0,0,1.5,1.06,6.51,6.51,0,0,0,4.11-.11,6.34,6.34,0,0,0,1.82-1l.1-.07a4.94,4.94,0,0,0,1-.94.46.46,0,0,1,.92,0c.06.43-.29.86-1.39,1.7l-.09.07a7.21,7.21,0,0,1-2.09,1.15A7.55,7.55,0,0,1,553.62,466.33Zm5.23-3.24Zm0-.12Z"/><path class="cls-44" d="M891.85,227.77a10.92,10.92,0,0,0-.37-13.33,6.67,6.67,0,0,0,.21-1.68v-.31a8.62,8.62,0,0,0-3.27-6.6,9.81,9.81,0,0,0-6.28-2.2,8.09,8.09,0,0,0-2.72.45,12.81,12.81,0,0,0-1.85.84,64.68,64.68,0,0,1-7.68-12.77.68.68,0,1,0-1.25.54,64.8,64.8,0,0,0,7.76,13,8.46,8.46,0,0,0-3.48,4.29,7,7,0,0,0-.49,2.59v.17h0v.13a6.63,6.63,0,0,0,1,3.42c-.11.22-.22.44-.32.67l-.56-.86a4.49,4.49,0,0,0-2.32-1.91,4.15,4.15,0,0,0-.45-2.06l-1.45-3a3.09,3.09,0,0,0-2-1.8,1.9,1.9,0,0,0-.54-.94l-1.12-1.09a1.38,1.38,0,0,0-1.25-.48h0v0h0a1.6,1.6,0,0,0,.56,1.3l1.12,1.09a1.73,1.73,0,0,0,.86.49,3.73,3.73,0,0,0,.36,2.58l1.44,2.95a3.57,3.57,0,0,0,1.53,1.66,4.2,4.2,0,0,0,.75,2.51l2.13,3.3c0,.2,0,.4,0,.6a10.88,10.88,0,0,0,1.49,5.5,16.32,16.32,0,0,0-7.47,10.47,2.11,2.11,0,0,0-1.26-.08,4,4,0,0,0-2.1-.08l-3,.58a4.65,4.65,0,0,0-1.89.78,1.84,1.84,0,0,0-.51.07l-1.2.34a1.11,1.11,0,0,0-.83.69h0a1.28,1.28,0,0,0,1.12.12l1.2-.34.24-.09a4.13,4.13,0,0,0,2,0l3-.58a5.42,5.42,0,0,0,1.29-.42,1.9,1.9,0,0,0,1,1l.61.29c0,.37,0,.75,0,1.13a12.71,12.71,0,0,0,.45,3.2,4,4,0,0,0-.86,1.14L864,247.8a3.21,3.21,0,0,0-.36,2.16,1.87,1.87,0,0,0-.6.69l-.65,1.27a1.28,1.28,0,0,0-.09,1.23h0a1.47,1.47,0,0,0,1-.84l.66-1.27a1.92,1.92,0,0,0,.2-.71,3.44,3.44,0,0,0,1.78-1.7l1.12-2.17c3.27,8.1,12,16.82,15.78,16.82,4.14,0,15.52-13.51,15.52-22.5A16.26,16.26,0,0,0,891.85,227.77Z"/><path class="cls-45" d="M909.47,239.62h0a1.08,1.08,0,0,0-.82-.69l-1.2-.34a1.89,1.89,0,0,0-.51-.07,4.75,4.75,0,0,0-1.9-.78l-3-.58a4,4,0,0,0-2.11.08,2.2,2.2,0,0,0-1.44.15l-.44.21a16.24,16.24,0,0,0-6.18-9.83,10.81,10.81,0,0,0,2.09-6.42c0-.33,0-.66,0-1l1.88-2.92a4.2,4.2,0,0,0,.75-2.51,3.52,3.52,0,0,0,1.53-1.66l1.45-2.95a3.77,3.77,0,0,0,.35-2.58,1.76,1.76,0,0,0,.87-.49l1.11-1.09a1.6,1.6,0,0,0,.56-1.3h0v0h0a1.38,1.38,0,0,0-1.25.48L900,206.42a1.9,1.9,0,0,0-.54.94,3.12,3.12,0,0,0-2,1.8l-1.45,3a4.26,4.26,0,0,0-.45,2.06,4.49,4.49,0,0,0-2.32,1.91l-.39.61a10.69,10.69,0,0,0-1.42-2.25,6.67,6.67,0,0,0,.21-1.68v-.31a9.08,9.08,0,0,0-4.11-7.22A65.61,65.61,0,0,0,895,192.71a.69.69,0,0,0-1.26-.54,65.21,65.21,0,0,1-7.38,12.39,10.21,10.21,0,0,0-4.23-.91,9.36,9.36,0,0,0-1.41.11v58.93l.14.07,2,5a.32.32,0,0,0,.6,0l2.15-5.65h0c4.39-3,10.83-11.36,12.41-18.37l.08.06a3.18,3.18,0,0,0,.38,2l1.37,2.66a3.37,3.37,0,0,0,1.77,1.69,1.66,1.66,0,0,0,.2.7l.65,1.27a1.46,1.46,0,0,0,1,.83h0a1.28,1.28,0,0,0-.08-1.22l-.65-1.26a2,2,0,0,0-.6-.69,3.1,3.1,0,0,0-.36-2.14l-1.37-2.66a3.75,3.75,0,0,0-1.26-1.44,3.77,3.77,0,0,0-.14-2.39l-.5-1.32,1.12-.53a1.92,1.92,0,0,0,1-1,5.14,5.14,0,0,0,1.29.42l3,.58a4.18,4.18,0,0,0,2,0l.24.09,1.2.34a1.29,1.29,0,0,0,1.12-.12h0Z"/><path class="cls-46" d="M888.36,218.61c-1-4-1.33-10.53-1.44-13.78a8.82,8.82,0,0,1,5,7.89h0A6.74,6.74,0,0,1,888.36,218.61Z"/><path class="cls-46" d="M875.72,218.87c1-4,1.33-10.53,1.45-13.77a8.78,8.78,0,0,0-5,7.88h0A6.73,6.73,0,0,0,875.72,218.87Z"/><path class="cls-47" d="M888.8,213.35a47.86,47.86,0,0,1-.48-4.77.77.77,0,0,1,1.31-.58,4.63,4.63,0,0,1,1.42,3.31h0a3.72,3.72,0,0,1-.9,2.41A.77.77,0,0,1,888.8,213.35Z"/><path class="cls-48" d="M889.29,212a18.61,18.61,0,0,1-.22-2.16.34.34,0,0,1,.59-.26,2.09,2.09,0,0,1,.64,1.5h0a1.61,1.61,0,0,1-.41,1.08A.34.34,0,0,1,889.29,212Z"/><path class="cls-47" d="M875.54,213.35a45.14,45.14,0,0,0,.49-4.77.77.77,0,0,0-1.31-.58,4.59,4.59,0,0,0-1.42,3.31h0a3.72,3.72,0,0,0,.9,2.41A.76.76,0,0,0,875.54,213.35Z"/><path class="cls-48" d="M875.06,212a18.61,18.61,0,0,0,.22-2.16.34.34,0,0,0-.59-.26,2.05,2.05,0,0,0-.64,1.5h0a1.65,1.65,0,0,0,.4,1.08A.35.35,0,0,0,875.06,212Z"/><path class="cls-47" d="M891.25,256.57a43.89,43.89,0,0,0,2.78-3.9H870.46a44.06,44.06,0,0,0,3,3.9Z"/><path class="cls-47" d="M866.7,245.57a27.47,27.47,0,0,0,1.78,3.9h27.37a27.48,27.48,0,0,0,1.64-3.9Z"/><path class="cls-47" d="M865.77,240.79a10.81,10.81,0,0,0,.12,1.58h32.35a12.35,12.35,0,0,0,.11-1.58,16,16,0,0,0-.17-2.32H865.94A16,16,0,0,0,865.77,240.79Z"/><path class="cls-47" d="M868.88,231.22a16.12,16.12,0,0,0-2.1,3.9h30.55a16.44,16.44,0,0,0-2.09-3.9Z"/><path class="cls-49" d="M881.72,224.48s14.61,11.18,21.28,12.84,14.51,1.28,16.77-3.23c0,0,3-5.89-2-9.61S881.72,224.48,881.72,224.48Z"/><path class="cls-50" d="M883,224.35s46.18-24.52,50-15-7.65,20.2-26.38,17.84S883,224.35,883,224.35Z"/><path class="cls-51" d="M880.73,252.67H870.46a44.06,44.06,0,0,0,3,3.9h7.23Z"/><path class="cls-51" d="M866.7,245.57a27.47,27.47,0,0,0,1.78,3.9h12.25v-3.9Z"/><path class="cls-51" d="M865.94,238.47a16,16,0,0,0-.17,2.32,10.81,10.81,0,0,0,.12,1.58h14.84v-3.9Z"/><path class="cls-51" d="M880.73,231.22H868.88a16.12,16.12,0,0,0-2.1,3.9h14Z"/><path class="cls-52" d="M880.6,224.48S866,235.66,859.32,237.32s-14.51,1.28-16.77-3.23c0,0-3-5.89,2-9.61S880.6,224.48,880.6,224.48Z"/><path class="cls-53" d="M879.64,224.35s-46.18-24.52-50-15,7.65,20.2,26.38,17.84S879.64,224.35,879.64,224.35Z"/><path class="cls-54" d="M1065.86,477.64c-.22-8.57-5-19.31-20.13-20.08s-26.82,2.61-20.52,5.71,14.11,7.05,17.27,15.47c3.06,8.17,12.15,15.94,16.81,7.58v7.14h2.09v-8C1063.27,485,1066,483.26,1065.86,477.64Z"/><rect class="cls-54" x="1069.02" y="461.29" width="2.09" height="32.17"/><path class="cls-55" d="M1076.61,457.83a20.24,20.24,0,0,1,.8-3.06c2.44-3.07,2.54-7.9,1.58-11.71a14.88,14.88,0,0,0-1.15-3.15c-2.45-4.79-7.52-23.36-8.87-19.35s-4.09,11-7,17.61c-3.81,8.93-2.31,13.81.26,16.46l.15.8c.33,1.77.62,3.29,1,4.6,1,3.76,2.35,5.62,6.27,5.92a5.29,5.29,0,0,0,3.16-.64C1074.65,464.22,1075.9,461.78,1076.61,457.83Z"/><path class="cls-56" d="M1069,457.77s-14.89-1.1-7-19.6c2.91-6.59,5.63-13.51,7-17.61s6.42,14.56,8.87,19.35C1080.81,445.7,1081.11,458.81,1069,457.77Z"/><path class="cls-57" d="M1073.57,454.46c-1.33.91-3.26,1.63-4.85,1.11-2.45-.8-5.2-2.31-6-4.9-.68-2.1-.06-4.57.37-6.66a35.42,35.42,0,0,1,3.9-10.39c.57-1,1.4-2.07,2.66-2.09C1072.79,431.49,1081.21,449.22,1073.57,454.46Z"/><path class="cls-58" d="M1071.38,455.48a10.11,10.11,0,0,1-1.77.34,8.23,8.23,0,0,1-.89-.25,130.82,130.82,0,0,0-5.46-12.21c-2-3.95-4.42-7.76-6.62-9.52-5.22-4.17,1.79-4.48,7.7,5.58.34.58.67,1.18,1,1.82C1070.24,450.85,1071.19,454.45,1071.38,455.48Z"/><path class="cls-58" d="M1073.57,454.46a7.33,7.33,0,0,1-1.58.81s-.45-12.7,1.51-17.06S1073.09,450.29,1073.57,454.46Z"/><path class="cls-54" d="M1095.94,457.56c-15.14.77-19.91,11.51-20.13,20.08-.13,5.36,2.34,7.17,4.21,7.78v8h2.09v-7.65c4.56,9.18,14,1.26,17.08-7.07s11-12.38,17.27-15.47S1111.07,456.8,1095.94,457.56Z"/><polygon class="cls-59" points="1084.36 526.77 1055.79 526.77 1050.88 498.37 1089.28 498.37 1084.36 526.77"/><polygon class="cls-60" points="1052.05 505.14 1055.79 526.77 1084.36 526.77 1088.1 505.14 1052.05 505.14"/><rect class="cls-61" x="1049.28" y="492.22" width="41.48" height="8.77"/><path class="cls-62" d="M1093.42,466.69c7.48-4.33,16.41-6.65,24.77-5.27-.24-2.43-10.14-4.47-22.25-3.86-15.14.77-19.91,11.51-20.13,20.08-.18,7.13,4.26,8,5.76,8.07C1083.47,478.05,1086.5,470.79,1093.42,466.69Z"/><path class="cls-62" d="M1048.25,466.69c-7.48-4.33-16.41-6.65-24.78-5.27.24-2.43,10.15-4.47,22.26-3.86,15.14.77,19.91,11.51,20.13,20.08.18,7.13-4.26,8-5.76,8.07C1058.19,478.05,1055.17,470.79,1048.25,466.69Z"/><rect class="cls-20" x="541" y="303" width="54" height="26" rx="13"/><rect class="cls-20" x="509" y="337" width="54" height="26" rx="13"/><rect class="cls-20" x="575" y="337" width="54" height="26" rx="13"/><rect class="cls-20" x="1679" y="215" width="54" height="26" rx="13"/><rect class="cls-20" x="1647" y="249" width="54" height="26" rx="13"/><rect class="cls-20" x="1713" y="249" width="54" height="26" rx="13"/><rect class="cls-20" x="1278" y="510" width="54" height="26" rx="13" transform="translate(2610 1046) rotate(180)"/><rect class="cls-20" x="1310" y="476" width="54" height="26" rx="13" transform="translate(2674 978) rotate(180)"/><rect class="cls-20" x="1405" y="300" width="54" height="26" rx="13" transform="translate(2864 626) rotate(-180)"/><rect class="cls-20" x="1608" y="540" width="54" height="26" rx="13" transform="translate(3270 1106) rotate(180)"/><rect class="cls-20" x="1244" y="476" width="54" height="26" rx="13" transform="translate(2542 978) rotate(180)"/><rect class="cls-20" x="782" y="372" width="54" height="26" rx="13" transform="translate(1618 770) rotate(180)"/><rect class="cls-20" x="1022" y="176" width="54" height="26" rx="13"/><rect class="cls-20" x="1055" y="210" width="54" height="26" rx="13"/><rect class="cls-20" x="87" y="371" width="54" height="26" rx="13"/><rect class="cls-20" x="120" y="405" width="54" height="26" rx="13"/><rect class="cls-20" x="850" y="571" width="54" height="26" rx="13" transform="translate(1754 1168) rotate(-180)"/><rect class="cls-20" x="343" y="560" width="54" height="26" rx="13" transform="translate(740 1146) rotate(180)"/><rect class="cls-20" x="886" y="537" width="54" height="26" rx="13" transform="translate(1826 1100) rotate(-180)"/><rect class="cls-63" x="1651" y="974" width="72" height="7"/><rect class="cls-63" x="1593" y="974" width="36" height="7"/><rect class="cls-63" x="1175" y="1032" width="144" height="7" transform="translate(2494 2071) rotate(180)"/><rect class="cls-63" x="1340" y="1032" width="72" height="7" transform="translate(2752 2071) rotate(180)"/><rect class="cls-63" x="841" y="981" width="72" height="7"/><rect class="cls-63" x="904" y="1008" width="72" height="7"/><rect class="cls-63" x="1359" y="951" width="72" height="7"/><rect class="cls-63" x="622" y="1011" width="72" height="7"/><rect class="cls-63" x="388" y="1011" width="219" height="7"/><rect class="cls-63" x="174" y="982" width="72" height="7"/><rect class="cls-63" x="84" y="958" width="126" height="7"/><g id="lys_group"><g id="livinigroom_lys"><polygon class="cls-64" points="639.35 244.88 560.34 346 793.92 346 694.69 237.83 639.35 244.88"/><rect class="cls-65" x="667.32" width="11.95" height="192.19"/><rect class="cls-66" x="673.3" width="6.44" height="192.19"/><path class="cls-31" d="M673.21,207.05a67,67,0,0,0-67,67h134A67,67,0,0,0,673.21,207.05Z"/><path class="cls-30" d="M633.9,274H740.24a67.07,67.07,0,0,0-40.69-61.65A67,67,0,0,0,633.9,274Z"/><circle class="cls-66" cx="673.48" cy="196.16" r="10.94"/><path class="cls-65" d="M684.1,193.63a11,11,0,0,0-8.09-8.09,6.47,6.47,0,1,0,8.09,8.09Z"/></g><g id="livinigroom_lys-2" data-name="livinigroom_lys"><rect class="cls-67" x="1742.93" y="434.68" width="4.26" height="130.52"/><path class="cls-68" d="M1744.88,575.94a9.13,9.13,0,1,0-9.13-9.13A9.14,9.14,0,0,0,1744.88,575.94Z"/><rect class="cls-69" x="1785.02" y="413.9" width="12.25" height="474.13"/><rect class="cls-69" x="1780.76" y="568.39" width="20.24" height="319.64"/><path class="cls-70" d="M1789.34,892.37a23,23,0,1,0-23-23A23.08,23.08,0,0,0,1789.34,892.37Z"/><path class="cls-71" d="M1789.07,912h-59.32c0-23,26.56-41.57,59.32-41.57S1848.39,889,1848.39,912Z"/><polygon class="cls-72" points="1747.08 379.36 1640.31 516 1955.95 516 1821.86 369.83 1747.08 379.36"/><polygon class="cls-70" points="1736.16 326 1845.74 326 1902.54 444.8 1687.06 444.8 1736.16 326"/><path class="cls-70" d="M1790.47,586.28c12.69,0,23-5.85,23-13s-10.34-13-23-13-23,5.86-23,13S1777.78,586.28,1790.47,586.28Z"/></g></g></g></svg>